<svg width="24" height="24" viewBox="0 0 24 24" fill="none" xmlns="http://www.w3.org/2000/svg">
<path fill-rule="evenodd" clip-rule="evenodd" d="M13.9436 18.0283L13.932 18.0399L11.1549 15.2627L12.3814 14.0361L13.9436 15.5983L16.8249 12.7286L18.0514 13.9551L13.9551 18.0514L13.9436 18.0283ZM11.5714 0C5.20714 0 0 5.20714 0 11.5714C0 17.9357 5.20714 23.1429 11.5714 23.1429C17.9357 23.1429 23.1429 17.9357 23.1429 11.5714C23.1429 5.20714 17.9357 0 11.5714 0ZM6.17914 4.95257L7.81071 6.58414L9.44229 4.95257L10.6689 6.17914L9.03729 7.81071L10.6689 9.44229L9.44229 10.6689L7.81071 9.03729L6.17914 10.6689L4.95257 9.44229L6.58414 7.81071L4.95257 6.17914L6.17914 4.95257ZM11.5714 20.8286C9.02571 20.8286 6.71143 19.7871 4.97571 18.1671L18.1671 4.97571C19.7871 6.71143 20.8286 9.02571 20.8286 11.5714C20.8286 16.6629 16.6629 20.8286 11.5714 20.8286Z" fill="white"/>
</svg>
