<svg width="407" height="365" viewBox="0 0 407 365" fill="none" xmlns="http://www.w3.org/2000/svg">
<path d="M406.124 166.375V308.779C406.124 315.041 400.982 320.183 394.719 320.183H369.874L370.434 353.378C370.586 362.848 359.844 368.398 352.206 362.695L294.674 320.132H176.096C169.834 320.132 164.691 314.99 164.691 308.728V166.324C164.691 160.062 169.834 154.971 176.096 154.971H394.719C400.982 154.971 406.124 160.062 406.124 166.324V166.375Z" fill="#F5781F"/>
<path d="M221.628 253.841C230.542 253.841 237.768 246.615 237.768 237.702C237.768 228.788 230.542 221.562 221.628 221.562C212.714 221.562 205.488 228.788 205.488 237.702C205.488 246.615 212.714 253.841 221.628 253.841Z" fill="white"/>
<path d="M286.889 253.843C295.802 253.843 303.028 246.617 303.028 237.703C303.028 228.79 295.802 221.564 286.889 221.564C277.975 221.564 270.749 228.79 270.749 237.703C270.749 246.617 277.975 253.843 286.889 253.843Z" fill="white"/>
<path d="M354.394 253.843C363.308 253.843 370.534 246.617 370.534 237.703C370.534 228.79 363.308 221.564 354.394 221.564C345.481 221.564 338.255 228.79 338.255 237.703C338.255 246.617 345.481 253.843 354.394 253.843Z" fill="white"/>
<path d="M227.38 17.8704V155.03H176.059C169.797 155.03 164.655 160.121 164.655 166.383V241.836H128.659L39.6108 306.547V241.836H17.8707C7.99344 241.836 0 233.843 0 223.966V17.8704C0 7.99333 7.99344 0 17.8707 0H209.51C219.387 0 227.38 7.99333 227.38 17.8704Z" fill="#47B43D"/>
<path d="M90.8481 137.615L175.318 53.147L197.422 75.2508L112.952 159.719L112.963 159.73L91.8452 180.848L91.8342 180.837L91.8335 180.838L69.7293 158.734L69.73 158.733L33.1901 122.194L54.3082 101.076L90.8481 137.615Z" fill="white"/>
<path d="M112.967 159.73L91.8494 180.848L33.1943 122.193L54.3124 101.076L112.967 159.73Z" fill="white"/>
</svg>
