<svg width="42" height="42" viewBox="0 0 42 42" fill="none" xmlns="http://www.w3.org/2000/svg">
<circle cx="21" cy="21" r="20" fill="white" stroke="#C426B4" stroke-width="2"/>
<path d="M33.0976 15.2663H18.622C18.2759 15.2663 17.9927 14.9831 17.9927 14.6369V13.3782C17.9927 13.032 18.2759 12.7488 18.622 12.7488H33.0976C33.4438 12.7488 33.727 13.032 33.727 13.3782V14.6369C33.727 14.9831 33.4438 15.2663 33.0976 15.2663Z" fill="#786BFF"/>
<path d="M10.2896 16.3632L8.08429 14.1579C7.86904 13.9427 7.86904 13.5934 8.08429 13.3781L8.86408 12.5983C9.07932 12.3831 9.42863 12.3831 9.64387 12.5983L10.6798 13.6343L13.9217 10.3924C14.137 10.1771 14.4863 10.1771 14.7015 10.3924L15.4813 11.1722C15.6965 11.3874 15.6965 11.7367 15.4813 11.952L11.0694 16.3632C10.8542 16.5791 10.5049 16.5791 10.2896 16.3632Z" fill="#43BD51"/>
<path d="M33.0976 22.8185H18.622C18.2759 22.8185 17.9927 22.5353 17.9927 22.1891V20.9304C17.9927 20.5842 18.2759 20.301 18.622 20.301H33.0976C33.4438 20.301 33.727 20.5842 33.727 20.9304V22.1891C33.727 22.5353 33.4438 22.8185 33.0976 22.8185Z" fill="#786BFF"/>
<path d="M10.2896 23.9153L8.08429 21.7099C7.86904 21.4947 7.86904 21.1454 8.08429 20.9301L8.86408 20.1503C9.07932 19.9351 9.42863 19.9351 9.64387 20.1503L10.6798 21.1863L13.9217 17.9444C14.137 17.7291 14.4863 17.7291 14.7015 17.9444L15.4813 18.7242C15.6965 18.9394 15.6965 19.2887 15.4813 19.504L11.0694 23.9153C10.8542 24.1311 10.5049 24.1311 10.2896 23.9153Z" fill="#43BD51"/>
<path d="M33.0976 30.371H18.622C18.2759 30.371 17.9927 30.0878 17.9927 29.7416V28.4829C17.9927 28.1367 18.2759 27.8535 18.622 27.8535H33.0976C33.4438 27.8535 33.727 28.1367 33.727 28.4829V29.7416C33.727 30.0878 33.4438 30.371 33.0976 30.371Z" fill="#786BFF"/>
<path d="M11.6987 27.2241C10.6558 27.2241 9.81055 28.0694 9.81055 29.1122C9.81055 30.1551 10.6558 31.0004 11.6987 31.0004C12.7415 31.0004 13.5868 30.1551 13.5868 29.1122C13.5868 28.0694 12.7415 27.2241 11.6987 27.2241Z" fill="#FF9D00"/>
</svg>
