<svg width="793" height="522" viewBox="0 0 793 522" fill="none" xmlns="http://www.w3.org/2000/svg">
<path d="M715.173 6.28998e-05C715.173 6.28998e-05 659.182 40.1632 598.482 38.7368C517.417 36.8463 401.276 30.1782 386.806 129.323C419.802 143.106 464.812 150.478 464.812 150.478L770.597 48.1716C770.597 48.1716 722.976 36.1588 715.173 6.28998e-05Z" fill="#FAF0C5"/>
<path d="M421.14 108.104C431.624 79.8434 473.212 62.2349 564.833 58.74C629.314 56.2818 661.253 50.8304 695.032 38.4727C681.353 44.894 662.54 57.0845 567.392 61.2148C439.919 66.7331 421.14 108.104 421.14 108.104Z" fill="#BCAD75"/>
<path d="M458.157 118.445C464.343 108.102 477.864 90.947 594.802 77.2233C678.784 67.37 724.197 48.407 724.197 48.407C724.197 48.407 688.857 68.5531 595.461 80.0796C472.388 95.3075 458.157 118.445 458.157 118.445Z" fill="#BCAD75"/>
<path d="M76.0116 0.00136169C76.0116 0.00136169 131.988 40.1572 192.685 38.738C273.758 36.8557 389.894 30.1928 404.369 129.328C371.369 143.101 326.358 150.481 326.358 150.481L20.5732 48.1794C20.5732 48.1794 68.2134 36.1685 76.0116 0.00136169Z" fill="#FAF0C5"/>
<path d="M372.335 108.115C361.838 79.8538 320.264 62.2366 228.64 58.7426C164.157 56.2954 132.225 50.826 98.4355 38.4718C112.116 44.8848 130.928 57.0915 226.075 61.2193C353.553 66.733 372.335 108.115 372.335 108.115Z" fill="#BCAD75"/>
<path d="M335.323 118.453C329.14 108.103 315.597 90.9609 198.676 77.2439C114.69 67.388 69.2861 48.4164 69.2861 48.4164C69.2861 48.4164 104.631 68.5637 198.023 80.0889C321.084 95.3155 335.323 118.453 335.323 118.453Z" fill="#BCAD75"/>
<path d="M320.265 147.674C342.566 109.707 430.28 97.3743 472.808 145.724C440.908 164.631 420.25 166.427 386.922 166.842C338.05 167.457 320.265 147.674 320.265 147.674Z" fill="#FFC588"/>
<path d="M335.296 150.09C347.28 125.205 423.187 110.274 457.812 149.632C432.744 169.754 401.233 166.7 387.89 166.838C346.853 167.25 335.296 150.09 335.296 150.09Z" fill="#B94100"/>
<path d="M479.501 143.482C479.501 143.482 452.888 179.566 399.057 176.675V176.502C398.676 176.536 398.329 176.553 397.983 176.571V176.502C397.654 176.536 397.377 176.536 397.065 176.553C396.754 176.536 396.459 176.536 396.148 176.502C396.148 176.502 395.455 176.536 395.092 176.502V176.675C341.242 179.566 314.63 143.482 314.63 143.482L1.12793 48.424C5.47394 68.1109 75.2353 392.202 84.7065 404.6C106.766 419.167 249.128 466.722 335.771 496.91C354.973 510.631 438.361 510.631 457.581 496.91C544.224 466.722 687.348 419.167 709.424 404.6C718.896 392.202 787.272 68.1109 791.635 48.424L479.501 143.482Z" fill="#FF921D"/>
<path d="M313.21 150.84C317.892 196.199 328.813 452.385 335.79 496.898C363.16 532.154 433.117 526.655 457.606 496.898C469.635 360.295 479.893 151.933 479.893 151.933C479.893 151.933 445.824 183.169 396.013 181.382C338.978 179.349 313.21 150.84 313.21 150.84Z" fill="#DC7200"/>
<path d="M474.785 246.58C463.549 254.988 434.483 273.31 395.994 271.926C354.908 270.451 330.053 255.249 319.354 246.856C320.845 273.679 322.459 303.298 324.089 332.611C336.585 341.172 360.072 352.947 395.994 354.222C429.58 355.421 455.971 341.634 469.621 332.519C471.558 301.854 473.31 272.449 474.785 246.58Z" fill="#B94100"/>
<path d="M468.33 352.573C454.348 361.68 428.545 374.589 395.997 373.424C361.149 372.182 337.983 361.052 325.228 352.589C325.611 359.304 325.979 365.973 326.377 372.535C339.348 380.906 362.176 391.423 395.997 392.619C427.549 393.753 452.738 381.657 467.012 372.627C467.456 365.927 467.901 359.227 468.33 352.573Z" fill="#B94100"/>
<path d="M396.012 249.966C436 251.412 465.803 231.58 476.019 223.687C476.45 216.04 476.85 208.839 477.219 202.177C468.311 209.286 437.677 230.887 396.012 229.395C351.209 227.795 325.699 209.87 316.821 202.254C317.237 209.055 317.652 216.286 318.083 223.871C327.961 231.98 353.147 248.442 396.012 249.966Z" fill="#B94100"/>
<path d="M772.687 42.4858C772.687 42.4858 490.492 139.502 467.075 139.502C459.906 155.697 424.755 163.491 396.461 163.873C368.167 163.491 333.016 155.697 325.847 139.502C302.431 139.502 20.2352 42.4858 20.2352 42.4858C-0.334465 38.3718 -5.81962 53.4737 6.53956 57.5703C36.7779 70.6065 312.898 156.982 312.898 156.982C312.898 156.982 336.592 185.363 396.392 186.942V186.96C396.426 186.96 396.444 186.96 396.461 186.96C396.496 186.96 396.496 186.96 396.531 186.96V186.942C456.33 185.363 480.042 156.982 480.042 156.982C480.042 156.982 756.145 70.6065 786.4 57.5703C798.742 53.4737 793.257 38.3718 772.687 42.4858Z" fill="#FFC588"/>
<path d="M515.151 407.035C532.386 407.17 538.485 414.745 540.641 420.636L641.593 383.61C647.725 362.449 664.539 353.166 674.901 349.375L710.702 166.022C699.263 165.432 691.496 157.598 688.514 143.665L564.919 184.369C561.566 196.904 556.175 206.709 548.846 213.515C543.674 218.351 537.676 221.602 530.987 223.203L515.151 407.035ZM539.243 425.552C538.889 425.552 538.535 425.463 538.232 425.291C537.676 424.998 537.289 424.488 537.154 423.888C535.216 415.248 526.809 410.898 512.876 411.323C512.27 411.336 511.697 411.1 511.259 410.657C510.854 410.216 510.635 409.614 510.686 409.01L526.877 221.282C526.961 220.339 527.652 219.547 528.578 219.362C539.681 217.155 554.322 208.916 561.078 182.195C561.246 181.488 561.785 180.915 562.476 180.696L689.491 138.863C690.081 138.661 690.738 138.728 691.243 139.048C691.782 139.385 692.153 139.908 692.254 140.531C694.68 155.121 701.722 162.265 713.196 161.776C713.836 161.742 714.476 162.029 714.897 162.517C715.335 163.006 715.504 163.68 715.369 164.32L678.86 351.38C678.725 352.122 678.186 352.745 677.462 352.981C667.875 356.283 650.977 364.926 645.417 385.783C645.232 386.457 644.743 386.996 644.086 387.232L539.967 425.421C539.731 425.507 539.496 425.552 539.243 425.552Z" fill="#C36500"/>
<path d="M151.334 383.599L252.296 420.635C254.438 414.746 260.54 407.169 277.781 407.041L261.945 223.195C255.247 221.592 249.259 218.342 244.08 213.518C236.743 206.706 231.365 196.901 228.017 184.372L104.408 143.66C101.442 157.595 93.6656 165.428 82.2285 166.024L118.03 349.373C128.389 353.162 145.218 362.442 151.334 383.599ZM253.7 425.545C253.445 425.545 253.204 425.502 252.963 425.417L148.836 387.232C148.184 386.99 147.687 386.451 147.517 385.784C141.94 364.925 125.054 356.283 115.461 352.991C114.752 352.736 114.213 352.126 114.071 351.388L77.56 164.321C77.4323 163.668 77.6026 163.016 78.0283 162.519C78.454 162.022 79.0783 161.738 79.7311 161.781C91.1966 162.263 98.249 155.112 100.675 140.524C100.775 139.914 101.144 139.375 101.683 139.049C102.194 138.736 102.847 138.651 103.443 138.85L230.457 180.682C231.153 180.909 231.678 181.477 231.848 182.186C238.617 208.906 253.246 217.15 264.343 219.364C265.28 219.548 265.975 220.329 266.06 221.28L282.237 409.013C282.293 409.609 282.08 410.219 281.655 410.659C281.243 411.099 280.647 411.34 280.051 411.326C266.103 410.901 257.716 415.243 255.772 423.884C255.644 424.48 255.247 424.991 254.708 425.289C254.396 425.46 254.041 425.545 253.7 425.545Z" fill="#C36500"/>
</svg>
