<svg width="343" height="294" viewBox="0 0 343 294" fill="none" xmlns="http://www.w3.org/2000/svg">
<path d="M228.686 273.982C139.798 314.266 41.92 289.933 10.0668 219.643C-7.47697 180.919 -1.32891 136.339 22.5915 97.3583C23.4813 95.9088 24.3968 94.4658 25.3324 93.0294C44.9711 63.0365 75.2374 36.7071 113.341 19.4375C113.696 19.2793 114.047 19.1212 114.403 18.9697C115.959 18.2647 117.525 17.586 119.087 16.9337C178.221 -7.92642 240.601 -4.58581 284.383 21.5262C286.046 22.5145 287.678 23.5358 289.285 24.5966C307.861 36.7994 322.694 53.3442 331.955 73.7831C334.4 79.1729 336.384 84.6812 337.92 90.2686C338.443 92.1531 338.911 94.0441 339.328 95.9417C353.877 161.937 308.456 237.835 228.686 273.982Z" fill="#FFFCDA"/>
<path d="M260.111 147.446C260.111 147.446 247.586 153.713 234.279 152.57C220.971 151.43 188.51 136.388 188.51 136.388L204.98 97.2601L250.986 100.301C250.986 100.301 273.799 138.32 260.111 147.446Z" fill="#EF7E4D"/>
<path d="M192.386 106.622L180.789 114.353C174.952 118.244 173.464 126.18 177.496 131.922L183.547 140.546C185.727 143.652 188.925 145.901 192.588 146.902L207.513 149.401C210.543 149.908 213.642 149.034 215.96 147.014C219.232 144.166 221.02 139.974 220.814 135.643L220.332 125.442L192.386 106.622Z" fill="#FF9E66"/>
<path d="M192.686 146.461L207.588 148.957C210.497 149.444 213.44 148.613 215.663 146.674C218.85 143.899 220.564 139.885 220.364 135.662L219.892 125.689L192.385 107.163L181.04 114.728C178.319 116.54 176.488 119.31 175.886 122.525C175.283 125.74 175.986 128.985 177.866 131.659L183.916 140.287C186.027 143.297 189.141 145.487 192.686 146.461ZM209.225 149.996C208.631 149.996 208.034 149.946 207.438 149.846L192.47 147.338C188.713 146.31 185.413 143.992 183.177 140.804L177.126 132.181C175.106 129.302 174.35 125.813 174.998 122.359C175.646 118.905 177.614 115.926 180.539 113.978L192.388 106.077L220.772 125.195L221.266 135.619C221.479 140.121 219.653 144.398 216.256 147.357C214.284 149.073 211.792 149.996 209.225 149.996Z" fill="#EF7E4D"/>
<path d="M192.624 93.4541L181.027 101.189C175.19 105.08 173.702 113.012 177.733 118.754L186.679 131.497C188.312 133.823 190.691 135.519 193.422 136.303L207.945 140.476C211.69 141.55 215.723 140.507 218.478 137.752L222.851 133.378L220.569 112.278L192.624 93.4541Z" fill="#FF9E66"/>
<path d="M192.622 93.999L181.277 101.564C178.556 103.376 176.725 106.147 176.123 109.361C175.52 112.576 176.224 115.818 178.103 118.495L187.048 131.238C188.616 133.471 190.924 135.113 193.546 135.867L208.069 140.039C211.655 141.071 215.521 140.074 218.158 137.435L222.378 133.212L220.143 112.533L192.622 93.999ZM210.9 141.342C209.872 141.342 208.835 141.202 207.819 140.909L193.297 136.736C190.477 135.925 187.995 134.155 186.309 131.756L177.364 119.013C175.343 116.138 174.588 112.649 175.236 109.195C175.883 105.741 177.851 102.762 180.776 100.811L192.625 92.9133L220.996 112.02L223.323 133.545L218.797 138.073C216.675 140.194 213.821 141.342 210.9 141.342Z" fill="#EF7E4D"/>
<path d="M238.819 101.058L227.793 125.392L221.996 129.692C219.16 131.786 215.548 132.517 212.126 131.698L201.245 129.066C197.615 128.193 194.607 125.655 193.117 122.224L183.464 99.8563C182.038 96.5606 183.094 92.7239 186.002 90.6181L187.952 89.2079L192.052 86.2289C192.052 86.2289 217.905 81.6697 220.948 82.0483C221.833 82.1565 223.702 83.8102 225.933 86.0937C231.351 91.6729 238.819 101.058 238.819 101.058Z" fill="#FF9E66"/>
<path d="M192.233 86.6577L186.266 90.9851C183.509 92.9788 182.527 96.5528 183.879 99.6747L193.532 122.046C194.959 125.33 197.881 127.791 201.35 128.63L212.232 131.257C215.534 132.049 218.995 131.346 221.727 129.329L227.43 125.098L238.293 101.124C237.143 99.6863 230.496 91.441 225.609 86.4104C222.392 83.1147 221.274 82.5428 220.893 82.4965C218.549 82.2067 201.183 85.0775 192.233 86.6577ZM214.918 132.478C213.952 132.478 212.98 132.366 212.02 132.134L201.139 129.507C197.396 128.603 194.242 125.948 192.703 122.401L183.05 100.034C181.529 96.5219 182.634 92.4959 185.737 90.251L191.871 85.8039L191.973 85.7845C193.032 85.5991 217.93 81.2137 221.004 81.6001C221.624 81.6773 222.782 82.2183 226.256 85.7807C231.628 91.3097 239.097 100.683 239.172 100.776L239.344 100.992L228.156 125.686L222.264 130.055C220.111 131.643 217.537 132.478 214.918 132.478Z" fill="#EF7E4D"/>
<path d="M234.538 104.578L213.724 106.286L213.444 95.4481L187.952 89.2081L192.052 86.2291C192.052 86.2291 217.905 81.6699 220.948 82.0486C221.833 82.1567 223.702 83.8104 225.932 86.0939L234.538 104.578Z" fill="#EF7E4D"/>
<path d="M220.045 183.061L115.812 58.5954C112.907 55.1335 108.238 53.5145 105.343 54.9982L66.166 75.0743L66.0843 71.7283L62.2645 77.6784C60.5398 79.9812 60.9143 83.5861 63.5303 86.7042L183.288 229.668C186.617 233.637 191.352 234.166 193.822 230.905L221.771 193.996C223.735 191.402 222.95 186.523 220.045 183.061Z" fill="#392549"/>
<path d="M225.667 187.38L197.812 225.14C195.419 228.384 190.621 227.712 187.137 223.586L67.3512 81.7081C63.8669 77.5816 64.0095 72.7364 67.609 70.9243L109.504 49.7935C112.32 48.3755 117.011 50.1335 120.023 53.6997L223.58 176.355C226.592 179.923 227.539 184.843 225.667 187.38Z" fill="#513B60"/>
<path d="M118.685 56.7561L218.074 174.478C219.796 176.518 220.494 179.074 219.628 180.192L191.01 217.125C189.911 218.543 187.427 217.819 185.47 215.5L72.4666 81.6542C70.5087 79.336 70.223 76.782 71.8159 75.9474L113.301 54.2524C114.556 53.5995 116.962 54.7199 118.685 56.7561Z" fill="#FFFDF7"/>
<path d="M118.685 56.7564L127.149 66.7829L82.0908 93.0564L72.4666 81.6545C70.5087 79.3362 70.223 76.7823 71.8159 75.9477L113.301 54.2527C114.556 53.5997 116.962 54.7202 118.685 56.7564Z" fill="#FAD8A0"/>
<path d="M75.8834 81.009C75.6694 81.009 75.462 80.897 75.3532 80.6922C75.1952 80.4024 75.3042 80.0354 75.5967 79.877L81.5463 76.6623C81.8387 76.5039 82.204 76.6159 82.3622 76.9057C82.5202 77.1994 82.4111 77.5664 82.1186 77.721L76.169 80.9356C76.0781 80.9859 75.98 81.009 75.8834 81.009Z" fill="#F6BC66"/>
<path d="M78.5565 84.1733C78.3445 84.1733 78.1389 84.0613 78.029 83.8642C77.8683 83.5745 77.9738 83.2074 78.2649 83.0451L84.1727 79.7841C84.4637 79.6218 84.8298 79.7262 84.9906 80.0198C85.1515 80.3096 85.046 80.6766 84.7548 80.835L78.8471 84.0999C78.7548 84.1501 78.6549 84.1733 78.5565 84.1733Z" fill="#F6BC66"/>
<path d="M81.2292 87.3416C81.0191 87.3416 80.8152 87.2295 80.7044 87.0363C80.5409 86.7465 80.643 86.3795 80.9324 86.2133L86.7984 82.9021C87.0878 82.7359 87.4551 82.8403 87.6187 83.1301C87.7822 83.4198 87.6801 83.7869 87.3907 83.9492L81.5247 87.2643C81.4311 87.3145 81.3294 87.3416 81.2292 87.3416Z" fill="#F6BC66"/>
<path d="M113.859 58.7655C113.592 58.7655 113.362 58.8119 113.178 58.9124C112.914 59.0515 112.753 59.291 112.687 59.6349C112.495 60.6356 113.135 62.185 114.317 63.5836C116.22 65.8401 118.655 66.779 119.649 66.211C119.904 66.0642 120.058 65.8246 120.12 65.4808C120.297 64.4801 119.656 62.9384 118.486 61.5513C116.952 59.7354 115.05 58.7655 113.859 58.7655ZM118.946 67.571C117.271 67.571 115.083 66.3578 113.397 64.3603C111.947 62.6409 111.239 60.7902 111.504 59.4069C111.64 58.7037 112.022 58.1628 112.611 57.8498C114.283 56.9573 117.268 58.2401 119.406 60.7747C120.84 62.4709 121.55 64.31 121.306 65.6894C121.181 66.3887 120.814 66.9335 120.245 67.2581C119.872 67.4706 119.43 67.571 118.946 67.571Z" fill="#F6BC66"/>
<path d="M210.143 165.085L218.074 174.478C219.796 176.518 220.494 179.074 219.628 180.192L191.01 217.125C189.911 218.543 187.428 217.819 185.47 215.5L176.453 204.82L210.143 165.085Z" fill="#FAD8A0"/>
<path d="M216.208 176.85L188.201 212.09C187.672 212.756 186.642 212.589 185.903 211.713L182.418 207.586C181.679 206.71 181.52 205.47 182.062 204.818L210.71 170.339C211.143 169.818 212.026 170.028 212.683 170.807L215.783 174.478C216.44 175.256 216.631 176.318 216.208 176.85Z" fill="#FFFDF7"/>
<path d="M159.218 116.274L131.882 138.49C130.852 139.325 129.048 138.869 127.859 137.459L98.3138 102.465C97.1247 101.054 97.0879 99.335 98.2252 98.6241L128.398 79.7689C129.345 79.1778 130.983 79.7341 132.06 81.0092L158.819 112.704C159.896 113.979 160.076 115.574 159.218 116.274Z" fill="#DEF5FF"/>
<path d="M176.968 167.134L164.978 179.682C164.547 180.132 163.749 179.968 163.196 179.313L149.455 163.038C148.902 162.383 148.823 161.508 149.277 161.084L161.913 149.301C162.329 148.915 163.093 149.108 163.621 149.73L176.727 165.255C177.254 165.88 177.362 166.72 176.968 167.134Z" fill="#DEF5FF"/>
<path d="M191.151 152.288L180.373 163.57C179.987 163.974 179.248 163.8 178.724 163.179L165.712 147.767C165.188 147.149 165.095 146.337 165.502 145.955L176.862 135.364C177.237 135.013 177.946 135.214 178.447 135.805L190.889 150.541C191.389 151.136 191.507 151.917 191.151 152.288Z" fill="#DEF5FF"/>
<path d="M135.857 146.801C135.665 146.801 135.474 146.72 135.339 146.562C135.098 146.276 135.133 145.851 135.419 145.607L164.938 120.616C165.224 120.373 165.651 120.412 165.893 120.694C166.135 120.98 166.1 121.408 165.814 121.652L136.295 146.643C136.167 146.751 136.012 146.801 135.857 146.801Z" fill="#C9DEFF"/>
<path d="M139.938 151.635C139.749 151.635 139.561 151.557 139.426 151.403C139.18 151.121 139.209 150.692 139.491 150.448L168.635 125.009C168.916 124.762 169.345 124.793 169.591 125.075C169.837 125.357 169.808 125.786 169.526 126.033L140.383 151.468C140.254 151.58 140.096 151.635 139.938 151.635Z" fill="#C9DEFF"/>
<path d="M170.02 186.463C169.856 186.463 169.692 186.404 169.561 186.284C169.286 186.031 169.269 185.602 169.522 185.326L195.862 156.711C196.116 156.436 196.545 156.418 196.82 156.672C197.096 156.925 197.113 157.354 196.86 157.63L170.519 186.245C170.386 186.39 170.203 186.463 170.02 186.463Z" fill="#C9DEFF"/>
<path d="M173.707 190.831C173.546 190.831 173.385 190.773 173.255 190.657C172.976 190.407 172.953 189.979 173.203 189.7L180.13 181.969C180.38 181.691 180.808 181.667 181.087 181.917C181.366 182.167 181.389 182.595 181.14 182.874L174.212 190.605C174.079 190.754 173.893 190.831 173.707 190.831Z" fill="#C9DEFF"/>
<path d="M144.018 156.469C143.832 156.469 143.648 156.393 143.514 156.244C143.264 155.966 143.286 155.537 143.564 155.287L165.035 135.967C165.313 135.72 165.742 135.739 165.992 136.021C166.243 136.299 166.22 136.724 165.942 136.976L144.471 156.295C144.341 156.411 144.18 156.469 144.018 156.469Z" fill="#C9DEFF"/>
<path d="M172.663 114.369L202.699 100.679L235.398 101.819C235.398 101.819 271.518 112.468 269.236 133C266.955 153.528 241.612 153.837 227.793 125.396L207.262 119.689C207.262 119.689 180.267 133.378 172.663 114.369Z" fill="#FF9E66"/>
<path d="M175.942 112.989L179.791 116.837L191.626 113.418C193.976 112.305 194.658 107.476 193.051 105.432L175.942 112.989Z" fill="#F9C1A5"/>
<path d="M227.793 126.223C227.72 126.223 227.645 126.211 227.571 126.192L207.345 120.574C205.114 121.656 191.404 127.927 181.103 124.04C176.833 122.432 173.735 119.279 171.893 114.674L171.599 113.94L202.533 99.8448L235.426 100.992C235.884 101.008 236.241 101.39 236.225 101.85C236.209 102.306 235.827 102.665 235.368 102.65L202.865 101.514L173.74 114.786C175.427 118.545 178.096 121.134 181.684 122.486C192.004 126.381 206.739 119.024 206.887 118.951L207.173 118.808L228.015 124.596C228.455 124.72 228.714 125.176 228.591 125.616C228.489 125.983 228.156 126.223 227.793 126.223Z" fill="#EF7E4D"/>
<path d="M323.921 119.697C321.64 118.557 290.846 108.662 290.846 108.662L272.596 105.239L227.413 69.1242L184.829 65.3222L155.553 73.6834L130.459 90.796C130.459 90.796 138.443 104.864 162.397 91.5533L187.871 85.0931L217.527 91.5533L229.314 107.144C229.314 107.144 237.13 142.319 261.083 146.882L313.11 162.938L323.921 119.697Z" fill="#FF9E66"/>
<path d="M149.849 77.8678L150.528 78.3856C152.527 79.9156 152.353 82.9796 150.193 84.2701L140.249 90.2241L135.021 87.7513L149.849 77.8678Z" fill="#F9C1A5"/>
<path d="M162.669 91.5571C162.277 91.5571 161.928 91.279 161.855 90.8771L160.821 85.2399C160.739 84.7917 161.037 84.359 161.487 84.2778C161.937 84.1967 162.369 84.4903 162.452 84.9424L163.485 90.5796C163.567 91.0278 163.269 91.4605 162.819 91.5455C162.769 91.5533 162.719 91.5571 162.669 91.5571Z" fill="#EF7E4D"/>
<path d="M187.942 85.155C187.903 85.155 187.864 85.1551 187.825 85.1473C187.372 85.0855 187.056 84.6644 187.121 84.2123L188.258 76.1525C188.322 75.7004 188.742 75.3836 189.195 75.4454C189.648 75.5111 189.963 75.9322 189.899 76.3843L188.762 84.4441C188.703 84.8575 188.348 85.155 187.942 85.155Z" fill="#EF7E4D"/>
<path d="M218.135 225.751L218.357 265.565L175.094 264.01L163.37 263.587C164.339 247.486 164.65 230.26 164.65 230.26C160.654 227.743 143.883 214.12 134.693 206.596C131.057 203.619 128.607 201.596 128.607 201.596C128.607 201.596 115.874 192.73 115.004 186.958C114.511 183.67 116.36 175.335 118.044 168.775C119.315 163.82 120.49 159.876 120.49 159.876L147.451 171.271L196.955 192.189C196.955 192.189 205.371 194.544 213.171 202.28C220.972 210.018 218.135 225.751 218.135 225.751Z" fill="#FF9E66"/>
<path d="M122.84 177.741C122.648 177.741 122.455 177.67 122.305 177.527C121.994 177.232 121.982 176.74 122.277 176.43C122.458 176.239 126.759 171.745 130.562 170.361C130.965 170.212 131.41 170.421 131.557 170.824C131.704 171.227 131.496 171.673 131.093 171.819C127.634 173.078 123.444 177.456 123.402 177.499C123.25 177.66 123.045 177.741 122.84 177.741Z" fill="#EF7E4D"/>
<path d="M126.289 187.59C126.26 187.59 126.229 187.589 126.199 187.585C125.773 187.535 125.468 187.15 125.517 186.724C126.467 178.58 132.158 173.16 132.4 172.934C132.713 172.64 133.203 172.656 133.497 172.969C133.79 173.281 133.775 173.772 133.463 174.066C133.408 174.117 127.942 179.34 127.06 186.904C127.014 187.299 126.678 187.59 126.289 187.59Z" fill="#EF7E4D"/>
<path d="M165.103 204.959C151.73 201.183 139.493 194.028 132.411 179.628C128.843 172.371 119.887 169.412 118.044 168.775C119.314 163.82 120.489 159.876 120.489 159.876L147.451 171.271C156.817 186.342 174.865 207.717 165.103 204.959Z" fill="#EF7E4D"/>
<path d="M95.2473 130.956L116.362 156.266C116.362 156.266 130.933 170.84 135.703 176.837C140.474 182.834 154.27 207.659 167.359 214.559C180.447 221.46 201.274 220.559 204.53 211.113C207.788 201.667 197.537 177.556 174.553 162.107C161.841 153.563 151.696 154.4 151.696 154.4L132.216 142.702C132.216 142.702 111.014 112.421 95.2473 130.956Z" fill="#FF9E66"/>
<path d="M116.206 156.018C116.035 156.018 115.863 155.961 115.719 155.845C115.386 155.576 115.334 155.087 115.603 154.753L120.731 148.404C121.001 148.072 121.49 148.018 121.823 148.289C122.157 148.559 122.209 149.046 121.94 149.378L116.811 155.729C116.658 155.919 116.433 156.018 116.206 156.018Z" fill="#EF7E4D"/>
<path d="M97.1401 133.297C97.1401 133.297 104.025 125.16 109.881 130.438C111.549 131.937 112.773 133.104 113.672 134C115.162 135.484 115.266 137.864 113.92 139.483L108.192 146.542L97.1401 133.297Z" fill="#F9C1A5"/>
<path d="M202.172 213.571C202.082 213.571 201.989 213.555 201.9 213.521C201.498 213.371 201.295 212.923 201.445 212.522C205.228 202.434 201.055 194.416 201.012 194.336C200.81 193.958 200.953 193.488 201.33 193.285C201.708 193.084 202.177 193.225 202.38 193.602C202.568 193.952 206.938 202.294 202.899 213.067C202.782 213.379 202.486 213.571 202.172 213.571Z" fill="#EF7E4D"/>
<path d="M174.868 226.083L175.094 264.01L163.37 263.587C164.339 247.486 164.65 230.26 164.65 230.26C160.654 227.743 143.883 214.12 134.693 206.596C157.838 221.384 174.868 226.083 174.868 226.083Z" fill="#EF7E4D"/>
<path d="M260.111 147.446C260.111 147.446 247.586 153.713 234.279 152.57C220.971 151.43 188.51 136.388 188.51 136.388L204.98 97.2601L250.986 100.301C250.986 100.301 273.799 138.32 260.111 147.446Z" fill="#EF7E4D"/>
<path d="M192.386 106.622L180.789 114.353C174.952 118.244 173.464 126.18 177.496 131.922L183.547 140.546C185.727 143.652 188.925 145.901 192.588 146.902L207.513 149.401C210.543 149.908 213.642 149.034 215.96 147.014C219.232 144.166 221.02 139.974 220.814 135.643L220.332 125.442L192.386 106.622Z" fill="#FF9E66"/>
<path d="M192.686 146.461L207.588 148.957C210.497 149.444 213.44 148.613 215.663 146.674C218.85 143.899 220.564 139.885 220.364 135.662L219.892 125.689L192.385 107.163L181.04 114.728C178.319 116.54 176.488 119.31 175.886 122.525C175.283 125.74 175.986 128.985 177.866 131.659L183.916 140.287C186.027 143.297 189.141 145.487 192.686 146.461ZM209.225 149.996C208.631 149.996 208.034 149.946 207.438 149.846L192.47 147.338C188.713 146.31 185.413 143.992 183.177 140.804L177.126 132.181C175.106 129.302 174.35 125.813 174.998 122.359C175.646 118.905 177.614 115.926 180.539 113.978L192.388 106.077L220.772 125.195L221.266 135.619C221.479 140.121 219.653 144.398 216.256 147.357C214.284 149.073 211.792 149.996 209.225 149.996Z" fill="#EF7E4D"/>
<path d="M192.624 93.4541L181.027 101.189C175.19 105.08 173.702 113.012 177.733 118.754L186.679 131.497C188.312 133.823 190.691 135.519 193.422 136.303L207.945 140.476C211.69 141.55 215.723 140.507 218.478 137.752L222.851 133.378L220.569 112.278L192.624 93.4541Z" fill="#FF9E66"/>
<path d="M192.622 93.999L181.277 101.564C178.556 103.376 176.725 106.147 176.123 109.361C175.52 112.576 176.224 115.818 178.103 118.495L187.048 131.238C188.616 133.471 190.924 135.113 193.546 135.867L208.069 140.039C211.655 141.071 215.521 140.074 218.158 137.435L222.378 133.212L220.143 112.533L192.622 93.999ZM210.9 141.342C209.872 141.342 208.835 141.202 207.819 140.909L193.297 136.736C190.477 135.925 187.995 134.155 186.309 131.756L177.364 119.013C175.343 116.138 174.588 112.649 175.236 109.195C175.883 105.741 177.851 102.762 180.776 100.811L192.625 92.9133L220.996 112.02L223.323 133.545L218.797 138.073C216.675 140.194 213.821 141.342 210.9 141.342Z" fill="#EF7E4D"/>
<path d="M238.819 101.058L227.793 125.392L221.996 129.692C219.16 131.786 215.548 132.517 212.126 131.698L201.245 129.066C197.615 128.193 194.607 125.655 193.117 122.224L183.464 99.8563C182.038 96.5606 183.094 92.7239 186.002 90.6181L187.952 89.2079L192.052 86.2289C192.052 86.2289 217.905 81.6697 220.948 82.0483C221.833 82.1565 223.702 83.8102 225.933 86.0937C231.351 91.6729 238.819 101.058 238.819 101.058Z" fill="#FF9E66"/>
<path d="M192.233 86.6577L186.266 90.9851C183.509 92.9788 182.527 96.5528 183.879 99.6747L193.532 122.046C194.959 125.33 197.881 127.791 201.35 128.63L212.232 131.257C215.534 132.049 218.995 131.346 221.727 129.329L227.43 125.098L238.293 101.124C237.143 99.6863 230.496 91.441 225.609 86.4104C222.392 83.1147 221.274 82.5428 220.893 82.4965C218.549 82.2067 201.183 85.0775 192.233 86.6577ZM214.918 132.478C213.952 132.478 212.98 132.366 212.02 132.134L201.139 129.507C197.396 128.603 194.242 125.948 192.703 122.401L183.05 100.034C181.529 96.5219 182.634 92.4959 185.737 90.251L191.871 85.8039L191.973 85.7845C193.032 85.5991 217.93 81.2137 221.004 81.6001C221.624 81.6773 222.782 82.2183 226.256 85.7807C231.628 91.3097 239.097 100.683 239.172 100.776L239.344 100.992L228.156 125.686L222.264 130.055C220.111 131.643 217.537 132.478 214.918 132.478Z" fill="#EF7E4D"/>
<path d="M234.538 104.578L213.724 106.286L213.444 95.4481L187.952 89.2081L192.052 86.2291C192.052 86.2291 217.905 81.6699 220.948 82.0486C221.833 82.1567 223.702 83.8104 225.932 86.0939L234.538 104.578Z" fill="#EF7E4D"/>
<path d="M220.045 183.061L115.812 58.5954C112.907 55.1335 108.238 53.5145 105.343 54.9982L66.166 75.0743L66.0843 71.7283L62.2645 77.6784C60.5398 79.9812 60.9143 83.5861 63.5303 86.7042L183.288 229.668C186.617 233.637 191.352 234.166 193.822 230.905L221.771 193.996C223.735 191.402 222.95 186.523 220.045 183.061Z" fill="#392549"/>
<path d="M225.667 187.38L197.812 225.14C195.419 228.384 190.621 227.712 187.137 223.586L67.3512 81.7081C63.8669 77.5816 64.0095 72.7364 67.609 70.9243L109.504 49.7935C112.32 48.3755 117.011 50.1335 120.023 53.6997L223.58 176.355C226.592 179.923 227.539 184.843 225.667 187.38Z" fill="#513B60"/>
<path d="M118.685 56.7561L218.074 174.478C219.796 176.518 220.494 179.074 219.628 180.192L191.01 217.125C189.911 218.543 187.427 217.819 185.47 215.5L72.4666 81.6542C70.5087 79.336 70.223 76.782 71.8159 75.9474L113.301 54.2524C114.556 53.5995 116.962 54.7199 118.685 56.7561Z" fill="#FFFDF7"/>
<path d="M118.685 56.7564L127.149 66.7829L82.0908 93.0564L72.4666 81.6545C70.5087 79.3362 70.223 76.7823 71.8159 75.9477L113.301 54.2527C114.556 53.5997 116.962 54.7202 118.685 56.7564Z" fill="#FAD8A0"/>
<path d="M75.8834 81.009C75.6694 81.009 75.462 80.897 75.3532 80.6922C75.1952 80.4024 75.3042 80.0354 75.5967 79.877L81.5463 76.6623C81.8387 76.5039 82.204 76.6159 82.3622 76.9057C82.5202 77.1994 82.4111 77.5664 82.1186 77.721L76.169 80.9356C76.0781 80.9859 75.98 81.009 75.8834 81.009Z" fill="#F6BC66"/>
<path d="M78.5565 84.1733C78.3445 84.1733 78.1389 84.0613 78.029 83.8642C77.8683 83.5745 77.9738 83.2074 78.2649 83.0451L84.1727 79.7841C84.4637 79.6218 84.8298 79.7262 84.9906 80.0198C85.1515 80.3096 85.046 80.6766 84.7548 80.835L78.8471 84.0999C78.7548 84.1501 78.6549 84.1733 78.5565 84.1733Z" fill="#F6BC66"/>
<path d="M81.2292 87.3416C81.0191 87.3416 80.8152 87.2295 80.7044 87.0363C80.5409 86.7465 80.643 86.3795 80.9324 86.2133L86.7984 82.9021C87.0878 82.7359 87.4551 82.8403 87.6187 83.1301C87.7822 83.4198 87.6801 83.7869 87.3907 83.9492L81.5247 87.2643C81.4311 87.3145 81.3294 87.3416 81.2292 87.3416Z" fill="#F6BC66"/>
<path d="M113.859 58.7655C113.592 58.7655 113.362 58.8119 113.178 58.9124C112.914 59.0515 112.753 59.291 112.687 59.6349C112.495 60.6356 113.135 62.185 114.317 63.5836C116.22 65.8401 118.655 66.779 119.649 66.211C119.904 66.0642 120.058 65.8246 120.12 65.4808C120.297 64.4801 119.656 62.9384 118.486 61.5513C116.952 59.7354 115.05 58.7655 113.859 58.7655ZM118.946 67.571C117.271 67.571 115.083 66.3578 113.397 64.3603C111.947 62.6409 111.239 60.7902 111.504 59.4069C111.64 58.7037 112.022 58.1628 112.611 57.8498C114.283 56.9573 117.268 58.2401 119.406 60.7747C120.84 62.4709 121.55 64.31 121.306 65.6894C121.181 66.3887 120.814 66.9335 120.245 67.2581C119.872 67.4706 119.43 67.571 118.946 67.571Z" fill="#F6BC66"/>
<path d="M210.143 165.085L218.074 174.478C219.796 176.518 220.494 179.074 219.628 180.192L191.01 217.125C189.911 218.543 187.428 217.819 185.47 215.5L176.453 204.82L210.143 165.085Z" fill="#FAD8A0"/>
<path d="M216.208 176.85L188.201 212.09C187.672 212.756 186.642 212.589 185.903 211.713L182.418 207.586C181.679 206.71 181.52 205.47 182.062 204.818L210.71 170.339C211.143 169.818 212.026 170.028 212.683 170.807L215.783 174.478C216.44 175.256 216.631 176.318 216.208 176.85Z" fill="#FFFDF7"/>
<path d="M159.218 116.274L131.882 138.49C130.852 139.325 129.048 138.869 127.859 137.459L98.3138 102.465C97.1247 101.054 97.0879 99.335 98.2252 98.6241L128.398 79.7689C129.345 79.1778 130.983 79.7341 132.06 81.0092L158.819 112.704C159.896 113.979 160.076 115.574 159.218 116.274Z" fill="#DEF5FF"/>
<path d="M176.968 167.134L164.978 179.682C164.547 180.132 163.749 179.968 163.196 179.313L149.455 163.038C148.902 162.383 148.823 161.508 149.277 161.084L161.913 149.301C162.329 148.915 163.093 149.108 163.621 149.73L176.727 165.255C177.254 165.88 177.362 166.72 176.968 167.134Z" fill="#DEF5FF"/>
<path d="M191.151 152.288L180.373 163.57C179.987 163.974 179.248 163.8 178.724 163.179L165.712 147.767C165.188 147.149 165.095 146.337 165.502 145.955L176.862 135.364C177.237 135.013 177.946 135.214 178.447 135.805L190.889 150.541C191.389 151.136 191.507 151.917 191.151 152.288Z" fill="#DEF5FF"/>
<path d="M135.857 146.801C135.665 146.801 135.474 146.72 135.339 146.562C135.098 146.276 135.133 145.851 135.419 145.607L164.938 120.616C165.224 120.373 165.651 120.412 165.893 120.694C166.135 120.98 166.1 121.408 165.814 121.652L136.295 146.643C136.167 146.751 136.012 146.801 135.857 146.801Z" fill="#C9DEFF"/>
<path d="M139.938 151.635C139.749 151.635 139.561 151.557 139.426 151.403C139.18 151.121 139.209 150.692 139.491 150.448L168.635 125.009C168.916 124.762 169.345 124.793 169.591 125.075C169.837 125.357 169.808 125.786 169.526 126.033L140.383 151.468C140.254 151.58 140.096 151.635 139.938 151.635Z" fill="#C9DEFF"/>
<path d="M170.02 186.463C169.856 186.463 169.692 186.404 169.561 186.284C169.286 186.031 169.269 185.602 169.522 185.326L195.862 156.711C196.116 156.436 196.545 156.418 196.82 156.672C197.096 156.925 197.113 157.354 196.86 157.63L170.519 186.245C170.386 186.39 170.203 186.463 170.02 186.463Z" fill="#C9DEFF"/>
<path d="M173.707 190.831C173.546 190.831 173.385 190.773 173.255 190.657C172.976 190.407 172.953 189.979 173.203 189.7L180.13 181.969C180.38 181.691 180.808 181.667 181.087 181.917C181.366 182.167 181.389 182.595 181.14 182.874L174.212 190.605C174.079 190.754 173.893 190.831 173.707 190.831Z" fill="#C9DEFF"/>
<path d="M144.018 156.469C143.832 156.469 143.648 156.393 143.514 156.244C143.264 155.966 143.286 155.537 143.564 155.287L165.035 135.967C165.313 135.72 165.742 135.739 165.992 136.021C166.243 136.299 166.22 136.724 165.942 136.976L144.471 156.295C144.341 156.411 144.18 156.469 144.018 156.469Z" fill="#C9DEFF"/>
<path d="M172.663 114.369L202.699 100.679L235.398 101.819C235.398 101.819 271.518 112.468 269.236 133C266.955 153.528 241.612 153.837 227.793 125.396L207.262 119.689C207.262 119.689 180.267 133.378 172.663 114.369Z" fill="#FF9E66"/>
<path d="M175.942 112.989L179.791 116.837L191.626 113.418C193.976 112.305 194.658 107.476 193.051 105.432L175.942 112.989Z" fill="#F9C1A5"/>
<path d="M227.793 126.223C227.72 126.223 227.645 126.211 227.571 126.192L207.345 120.574C205.114 121.656 191.404 127.927 181.103 124.04C176.833 122.432 173.735 119.279 171.893 114.674L171.599 113.94L202.533 99.8448L235.426 100.992C235.884 101.008 236.241 101.39 236.225 101.85C236.209 102.306 235.827 102.665 235.368 102.65L202.865 101.514L173.74 114.786C175.427 118.545 178.096 121.134 181.684 122.486C192.004 126.381 206.739 119.024 206.887 118.951L207.173 118.808L228.015 124.596C228.455 124.72 228.714 125.176 228.591 125.616C228.489 125.983 228.156 126.223 227.793 126.223Z" fill="#EF7E4D"/>
<path d="M323.921 119.697C321.64 118.557 290.846 108.662 290.846 108.662L272.596 105.239L227.413 69.1242L184.829 65.3222L155.553 73.6834L130.459 90.796C130.459 90.796 138.443 104.864 162.397 91.5533L187.871 85.0931L217.527 91.5533L229.314 107.144C229.314 107.144 237.13 142.319 261.083 146.882L313.11 162.938L323.921 119.697Z" fill="#FF9E66"/>
<path d="M149.849 77.8678L150.528 78.3856C152.527 79.9156 152.353 82.9796 150.193 84.2701L140.249 90.2241L135.021 87.7513L149.849 77.8678Z" fill="#F9C1A5"/>
<path d="M162.669 91.5571C162.277 91.5571 161.928 91.279 161.855 90.8771L160.821 85.2399C160.739 84.7917 161.037 84.359 161.487 84.2778C161.937 84.1967 162.369 84.4903 162.452 84.9424L163.485 90.5796C163.567 91.0278 163.269 91.4605 162.819 91.5455C162.769 91.5533 162.719 91.5571 162.669 91.5571Z" fill="#EF7E4D"/>
<path d="M187.942 85.155C187.903 85.155 187.864 85.1551 187.825 85.1473C187.372 85.0855 187.056 84.6644 187.121 84.2123L188.258 76.1525C188.322 75.7004 188.742 75.3836 189.195 75.4454C189.648 75.5111 189.963 75.9322 189.899 76.3843L188.762 84.4441C188.703 84.8575 188.348 85.155 187.942 85.155Z" fill="#EF7E4D"/>
<path d="M218.135 225.751L218.357 265.565L175.094 264.01L163.37 263.587C164.339 247.486 164.65 230.26 164.65 230.26C160.654 227.743 143.883 214.12 134.693 206.596C131.057 203.619 128.607 201.596 128.607 201.596C128.607 201.596 115.874 192.73 115.004 186.958C114.511 183.67 116.36 175.335 118.044 168.775C119.315 163.82 120.49 159.876 120.49 159.876L147.451 171.271L196.955 192.189C196.955 192.189 205.371 194.544 213.171 202.28C220.972 210.018 218.135 225.751 218.135 225.751Z" fill="#FF9E66"/>
<path d="M122.84 177.741C122.648 177.741 122.455 177.67 122.305 177.527C121.994 177.232 121.982 176.74 122.277 176.43C122.458 176.239 126.759 171.745 130.562 170.361C130.965 170.212 131.41 170.421 131.557 170.824C131.704 171.227 131.496 171.673 131.093 171.819C127.634 173.078 123.444 177.456 123.402 177.499C123.25 177.66 123.045 177.741 122.84 177.741Z" fill="#EF7E4D"/>
<path d="M126.289 187.59C126.26 187.59 126.229 187.589 126.199 187.585C125.773 187.535 125.468 187.15 125.517 186.724C126.467 178.58 132.158 173.16 132.4 172.934C132.713 172.64 133.203 172.656 133.497 172.969C133.79 173.281 133.775 173.772 133.463 174.066C133.408 174.117 127.942 179.34 127.06 186.904C127.014 187.299 126.678 187.59 126.289 187.59Z" fill="#EF7E4D"/>
<path d="M165.103 204.959C151.73 201.183 139.493 194.028 132.411 179.628C128.843 172.371 119.887 169.412 118.044 168.775C119.314 163.82 120.489 159.876 120.489 159.876L147.451 171.271C156.817 186.342 174.865 207.717 165.103 204.959Z" fill="#EF7E4D"/>
<path d="M95.2473 130.956L116.362 156.266C116.362 156.266 130.933 170.84 135.703 176.837C140.474 182.834 154.27 207.659 167.359 214.559C180.447 221.46 201.274 220.559 204.53 211.113C207.788 201.667 197.537 177.556 174.553 162.107C161.841 153.563 151.696 154.4 151.696 154.4L132.216 142.702C132.216 142.702 111.014 112.421 95.2473 130.956Z" fill="#FF9E66"/>
<path d="M116.206 156.018C116.035 156.018 115.863 155.961 115.719 155.845C115.386 155.576 115.334 155.087 115.603 154.753L120.731 148.404C121.001 148.072 121.49 148.018 121.823 148.289C122.157 148.559 122.209 149.046 121.94 149.378L116.811 155.729C116.658 155.919 116.433 156.018 116.206 156.018Z" fill="#EF7E4D"/>
<path d="M97.1401 133.297C97.1401 133.297 104.025 125.16 109.881 130.438C111.549 131.937 112.773 133.104 113.672 134C115.162 135.484 115.266 137.864 113.92 139.483L108.192 146.542L97.1401 133.297Z" fill="#F9C1A5"/>
<path d="M202.172 213.571C202.082 213.571 201.989 213.555 201.9 213.521C201.498 213.371 201.295 212.923 201.445 212.522C205.228 202.434 201.055 194.416 201.012 194.336C200.81 193.958 200.953 193.488 201.33 193.285C201.708 193.084 202.177 193.225 202.38 193.602C202.568 193.952 206.938 202.294 202.899 213.067C202.782 213.379 202.486 213.571 202.172 213.571Z" fill="#EF7E4D"/>
<path d="M174.868 226.083L175.094 264.01L163.37 263.587C164.339 247.486 164.65 230.26 164.65 230.26C160.654 227.743 143.883 214.12 134.693 206.596C157.838 221.384 174.868 226.083 174.868 226.083Z" fill="#EF7E4D"/>
</svg>
