<svg width="1436" height="1264" viewBox="0 0 1436 1264" fill="none" xmlns="http://www.w3.org/2000/svg">
<path d="M960.151 1166.78C586.952 1335.92 176.004 1233.76 42.2662 938.638C-31.3925 776.056 -5.57952 588.881 94.8517 425.221C98.5874 419.135 102.431 413.076 106.359 407.045C188.813 281.119 315.888 170.573 475.867 98.0656C477.361 97.4016 478.832 96.7378 480.329 96.1015C486.86 93.1415 493.436 90.292 499.993 87.5532C748.272 -16.8232 1010.18 -2.79748 1194 106.835C1200.98 110.985 1207.83 115.273 1214.58 119.727C1292.57 170.96 1354.85 240.425 1393.73 326.239C1404 348.868 1412.33 371.995 1418.77 395.454C1420.97 403.366 1422.94 411.306 1424.69 419.273C1485.77 696.356 1295.07 1015.02 960.151 1166.78Z" fill="#FFFCDA"/>
<path fill-rule="evenodd" clip-rule="evenodd" d="M686.688 517.345C686.688 517.345 686.998 545.79 712.453 531.291C737.896 516.787 957.974 398.873 957.974 398.873L966.365 803.373C966.365 803.373 820.074 903.411 768.002 929.017C715.93 954.622 690.296 952.059 672.296 971.598C654.3 991.145 479.868 1224.64 479.868 1224.64C479.868 1224.64 283.941 1103.86 278.125 987.84C381.711 885.422 506.732 712.779 535.207 662.961C563.682 613.142 686.688 517.345 686.688 517.345Z" fill="#FCB18B"/>
<g opacity="0.996">
<path fill-rule="evenodd" clip-rule="evenodd" d="M778.741 102.885L1089.7 124.493C1106.43 125.655 1119.32 137.863 1118.5 151.762L1079.39 814.277C1078.57 828.177 1064.34 838.494 1047.61 837.33L736.657 815.721C719.926 814.56 707.031 802.352 707.851 788.452L746.964 125.937C747.784 112.038 762.018 101.72 778.741 102.885Z" fill="#656565"/>
</g>
<path fill-rule="evenodd" clip-rule="evenodd" d="M790.873 125.64C778.065 124.748 767.821 134.001 767.048 147.155L734.485 698.661C733.704 711.818 742.782 722.409 755.586 723.293L1039.71 743.039C1052.52 743.932 1062.74 734.684 1063.52 721.519L1096.09 170.013C1096.86 156.848 1087.81 146.267 1075 145.375L790.878 125.629L790.873 125.64Z" fill="#FEFDF8"/>
<path fill-rule="evenodd" clip-rule="evenodd" d="M790.879 125.637C778.071 124.745 767.827 133.998 767.046 147.155L763.897 200.566L1092.93 223.435L1096.08 170.024C1096.86 156.859 1087.8 146.279 1074.99 145.386L790.879 125.637Z" fill="#5DB7BB"/>
<path fill-rule="evenodd" clip-rule="evenodd" d="M814.546 239.951L910.208 246.597C923.8 247.542 934.278 257.455 933.609 268.746L927.121 378.68C926.452 389.971 914.893 398.358 901.301 397.413L805.639 390.767C792.047 389.822 781.57 379.909 782.239 368.619L788.727 258.684C789.396 247.394 800.954 239.006 814.546 239.951Z" fill="#DEF4FF"/>
<path fill-rule="evenodd" clip-rule="evenodd" d="M955.777 267.357L1061.63 274.709L1061.14 283.133L955.278 275.773L955.777 267.357Z" fill="#DEF4FF"/>
<path fill-rule="evenodd" clip-rule="evenodd" d="M954.732 284.896L1060.6 292.253L1060.1 300.669L954.233 293.312L954.732 284.896Z" fill="#DEF4FF"/>
<path fill-rule="evenodd" clip-rule="evenodd" d="M953.704 302.432L1059.56 309.792L1059.07 318.208L953.208 310.856L953.704 302.432Z" fill="#DEF4FF"/>
<path fill-rule="evenodd" clip-rule="evenodd" d="M952.663 319.981L1058.52 327.332L1058.02 335.757L952.164 328.397L952.663 319.981Z" fill="#DEF4FF"/>
<path fill-rule="evenodd" clip-rule="evenodd" d="M951.635 337.514L1057.5 344.874L1057 353.29L951.136 345.93L951.635 337.514Z" fill="#DEF4FF"/>
<path fill-rule="evenodd" clip-rule="evenodd" d="M950.591 355.056L1056.45 362.416L1055.95 370.832L950.095 363.48L950.591 355.056Z" fill="#DEF4FF"/>
<path fill-rule="evenodd" clip-rule="evenodd" d="M949.558 372.601L1055.42 379.95L1054.93 388.374L949.059 381.017L949.558 372.601Z" fill="#DEF4FF"/>
<path fill-rule="evenodd" clip-rule="evenodd" d="M804.119 416.57L1027.63 432.1C1041.22 433.045 1051.7 442.958 1051.03 454.249L1044.54 564.183C1043.87 575.473 1032.32 583.861 1018.72 582.916L795.212 567.386C781.62 566.441 771.143 556.528 771.812 545.238L778.3 435.303C778.969 424.013 790.527 415.625 804.119 416.57Z" fill="#DEF4FF"/>
<path fill-rule="evenodd" clip-rule="evenodd" d="M768.686 598.151L1041.42 617.097L1040.92 625.521L768.187 606.567L768.686 598.151Z" fill="#DEF4FF"/>
<path fill-rule="evenodd" clip-rule="evenodd" d="M767.57 616.999L1040.31 635.953L1039.81 644.369L767.074 625.423L767.57 616.999Z" fill="#DEF4FF"/>
<path fill-rule="evenodd" clip-rule="evenodd" d="M766.458 635.855L1039.19 654.801L1038.69 663.225L765.959 644.271L766.458 635.855Z" fill="#DEF4FF"/>
<path fill-rule="evenodd" clip-rule="evenodd" d="M765.351 654.701L1038.09 673.654L1037.59 682.07L764.855 663.125L765.351 654.701Z" fill="#DEF4FF"/>
<path fill-rule="evenodd" clip-rule="evenodd" d="M764.239 673.556L1036.97 692.502L1036.47 700.926L763.74 681.972L764.239 673.556Z" fill="#DEF4FF"/>
<path fill-rule="evenodd" clip-rule="evenodd" d="M763.123 692.405L1035.85 711.361L1035.36 719.774L762.627 700.829L763.123 692.405Z" fill="#DEF4FF"/>
<g opacity="0.996">
<path fill-rule="evenodd" clip-rule="evenodd" d="M778.741 102.885L1089.7 124.493C1106.43 125.655 1119.32 137.863 1118.5 151.762L1079.39 814.277C1078.57 828.177 1064.34 838.494 1047.61 837.33L736.657 815.721C719.926 814.56 707.031 802.352 707.851 788.452L746.964 125.937C747.784 112.038 762.018 101.72 778.741 102.885Z" fill="#656565"/>
</g>
<path fill-rule="evenodd" clip-rule="evenodd" d="M790.873 125.64C778.065 124.748 767.821 134.001 767.048 147.155L734.485 698.661C733.704 711.818 742.782 722.409 755.586 723.293L1039.71 743.039C1052.52 743.932 1062.74 734.684 1063.52 721.519L1096.09 170.013C1096.86 156.848 1087.81 146.267 1075 145.375L790.878 125.629L790.873 125.64Z" fill="#FEFDF8"/>
<path fill-rule="evenodd" clip-rule="evenodd" d="M790.879 125.637C778.071 124.745 767.827 133.998 767.046 147.155L763.897 200.566L1092.93 223.435L1096.08 170.024C1096.86 156.859 1087.8 146.279 1074.99 145.386L790.879 125.637Z" fill="#5DB7BB"/>
<path fill-rule="evenodd" clip-rule="evenodd" d="M814.546 239.951L910.208 246.597C923.8 247.542 934.278 257.455 933.609 268.746L927.121 378.68C926.452 389.971 914.893 398.358 901.301 397.413L805.639 390.767C792.047 389.822 781.57 379.909 782.239 368.619L788.727 258.684C789.396 247.394 800.954 239.006 814.546 239.951Z" fill="#DEF4FF"/>
<path fill-rule="evenodd" clip-rule="evenodd" d="M955.777 267.357L1061.63 274.709L1061.14 283.133L955.278 275.773L955.777 267.357Z" fill="#DEF4FF"/>
<path fill-rule="evenodd" clip-rule="evenodd" d="M954.732 284.896L1060.6 292.253L1060.1 300.669L954.233 293.312L954.732 284.896Z" fill="#DEF4FF"/>
<path fill-rule="evenodd" clip-rule="evenodd" d="M953.704 302.432L1059.56 309.792L1059.07 318.208L953.208 310.856L953.704 302.432Z" fill="#DEF4FF"/>
<path fill-rule="evenodd" clip-rule="evenodd" d="M952.663 319.981L1058.52 327.332L1058.02 335.757L952.164 328.397L952.663 319.981Z" fill="#DEF4FF"/>
<path fill-rule="evenodd" clip-rule="evenodd" d="M951.635 337.514L1057.5 344.874L1057 353.29L951.136 345.93L951.635 337.514Z" fill="#DEF4FF"/>
<path fill-rule="evenodd" clip-rule="evenodd" d="M950.591 355.056L1056.45 362.416L1055.95 370.832L950.095 363.48L950.591 355.056Z" fill="#DEF4FF"/>
<path fill-rule="evenodd" clip-rule="evenodd" d="M949.558 372.601L1055.42 379.95L1054.93 388.374L949.059 381.017L949.558 372.601Z" fill="#DEF4FF"/>
<path fill-rule="evenodd" clip-rule="evenodd" d="M804.119 416.57L1027.63 432.1C1041.22 433.045 1051.7 442.958 1051.03 454.249L1044.54 564.183C1043.87 575.473 1032.32 583.861 1018.72 582.916L795.212 567.386C781.62 566.441 771.143 556.528 771.812 545.238L778.3 435.303C778.969 424.013 790.527 415.625 804.119 416.57Z" fill="#DEF4FF"/>
<path fill-rule="evenodd" clip-rule="evenodd" d="M768.686 598.151L1041.42 617.097L1040.92 625.521L768.187 606.567L768.686 598.151Z" fill="#DEF4FF"/>
<path fill-rule="evenodd" clip-rule="evenodd" d="M767.57 616.999L1040.31 635.953L1039.81 644.369L767.074 625.423L767.57 616.999Z" fill="#DEF4FF"/>
<path fill-rule="evenodd" clip-rule="evenodd" d="M766.458 635.855L1039.19 654.801L1038.69 663.225L765.959 644.271L766.458 635.855Z" fill="#DEF4FF"/>
<path fill-rule="evenodd" clip-rule="evenodd" d="M765.351 654.701L1038.09 673.654L1037.59 682.07L764.855 663.125L765.351 654.701Z" fill="#DEF4FF"/>
<path fill-rule="evenodd" clip-rule="evenodd" d="M764.239 673.556L1036.97 692.502L1036.47 700.926L763.74 681.972L764.239 673.556Z" fill="#DEF4FF"/>
<path fill-rule="evenodd" clip-rule="evenodd" d="M763.123 692.405L1035.85 711.361L1035.36 719.774L762.627 700.829L763.123 692.405Z" fill="#DEF4FF"/>
<path fill-rule="evenodd" clip-rule="evenodd" d="M1108.28 588.727C1091.64 576.388 1059.05 561.95 1036.41 573.574C1013.78 585.197 1013.44 606.26 1025.07 628.893C1036.69 651.528 1072.61 683.855 1091.65 681.09C1110.68 678.319 1153.99 632.9 1108.28 588.727Z" fill="#FCB18B"/>
<path fill-rule="evenodd" clip-rule="evenodd" d="M679.33 363.785C679.33 363.785 759.635 370.308 785.795 368.887C811.955 367.465 848.911 364.215 849.03 375.593C849.156 386.969 839.321 424.634 803.667 442.665C768.014 460.697 735.573 460.476 735.573 460.476C735.573 460.476 699.761 516.632 697.079 530.889C694.389 545.148 705.434 566.082 705.434 566.082L509.475 704.216C509.475 704.216 551.959 529.624 569.306 502.694C586.654 475.764 658.983 376.528 679.322 363.788L679.33 363.785Z" fill="#FCB18B"/>
<path d="M755.42 373.223C770.288 397.396 786.892 403.052 800.986 401.441C815.08 399.831 832.826 375.791 835.631 365.046C791.277 359.202 755.42 373.223 755.42 373.223Z" fill="#F9D7C7"/>
<path d="M1052.64 575.676C1040.34 583.378 1052.84 626.266 1052.84 626.266C1052.84 626.266 1073.64 639.806 1083.53 631.782C1093.43 623.758 1094.59 603.787 1087.59 593.537C1080.6 583.288 1052.64 575.676 1052.64 575.676Z" fill="#F9D7C7"/>
<path fill-rule="evenodd" clip-rule="evenodd" d="M1104.93 480.63C1089 477.382 1064.2 491.33 1059.68 519.146C1055.16 546.963 1077.34 570.253 1095.88 573.272C1114.43 576.29 1136.4 561.97 1143.27 546.801C1150.14 531.641 1139.03 489.712 1104.93 480.622L1104.93 480.63Z" fill="#FCB18B"/>
<path fill-rule="evenodd" clip-rule="evenodd" d="M1114.81 398.103C1090.68 402.637 1077.26 424.406 1080.12 451.971C1082.98 479.536 1117.15 482.012 1133.01 475.581C1148.88 469.15 1160.8 440.281 1152.61 419.314C1144.42 398.344 1125.02 394.576 1114.81 398.103Z" fill="#FCB18B"/>
<path fill-rule="evenodd" clip-rule="evenodd" d="M1093.33 747.13C1071.47 734.496 1016.63 723.826 1002.42 748.926C988.203 774.025 1005.02 803.221 1055.79 809.903C1106.57 816.594 1116.86 764.573 1093.33 747.13Z" fill="#FCB18B"/>
<path d="M1019.24 742.023C1006.69 748.992 1015.7 781.768 1015.7 781.768C1015.7 781.768 1034.97 790.872 1045.2 783.837C1055.44 776.802 1058.04 761.012 1051.99 753.476C1045.93 745.94 1019.24 742.023 1019.24 742.023Z" fill="#F9D7C7"/>
<path fill-rule="evenodd" clip-rule="evenodd" d="M1110.93 496.05C1114.6 518.342 1110.81 540.513 1102.64 548.044C1115.53 550.318 1124.47 539.153 1126.97 528.864C1129.47 518.574 1122.62 498.74 1110.93 496.05Z" fill="#F9D7C7"/>
<path fill-rule="evenodd" clip-rule="evenodd" d="M1126.26 407.966C1126.26 407.966 1142.54 443.404 1119.38 460.146C1153.33 455.149 1144.59 410.377 1126.26 407.966Z" fill="#F9D7C7"/>
</svg>
