<svg width="485" height="480" viewBox="0 0 485 480" fill="none" xmlns="http://www.w3.org/2000/svg">
<ellipse cx="242.5" cy="240" rx="242.5" ry="240" fill="white"/>
<path d="M403.795 331.497C419.197 304.488 428 273.223 428 239.901C428 212.684 422.129 186.839 411.585 163.565L262.334 249.781L403.795 331.497Z" fill="#E53935"/>
<path d="M91.3845 345.99C97.5928 354.855 104.556 363.153 112.184 370.786C145.662 404.282 191.912 425 243 425C294.087 425 340.337 404.282 373.815 370.786C381.444 363.154 388.407 354.856 394.615 345.99L243 258.407L91.3845 345.99Z" fill="#227D9C"/>
<path d="M234.395 55.0006C186.731 57.1843 143.772 77.4097 112.185 109.014C78.7066 142.51 58 188.785 58 239.901C58 273.224 66.8022 304.488 82.2047 331.497L234.395 243.582L234.395 55.0006Z" fill="#F7851B"/>
<path d="M373.815 109.014C342.228 77.4091 299.269 57.1837 251.605 55V236.182L403.78 148.276C395.559 133.866 385.461 120.666 373.815 109.014Z" fill="#70D15E"/>
</svg>
