<svg width="336" height="464" viewBox="0 0 336 464" fill="none" xmlns="http://www.w3.org/2000/svg">
<path d="M24.0156 392V464L56.0156 448L88.0155 464V392H24.0156Z" fill="#2FC241"/>
<path d="M319.999 95.9623V415.962H55.9999C41.1478 415.962 26.904 410.062 16.402 399.56C5.89998 389.058 0 374.814 0 359.962V55.9624L63.9999 95.9623H319.999Z" fill="#E87233"/>
<path d="M63.9999 55.9624V415.962H55.9999C41.1478 415.962 26.904 410.062 16.402 399.56C5.89997 389.058 0 374.814 0 359.962V55.9624H63.9999Z" fill="#FFBD99"/>
<path d="M63.9999 55.9624V183.962H55.9999C41.1478 183.962 26.904 178.062 16.402 167.56C5.89997 157.058 0 142.814 0 127.962V55.9624H63.9999Z" fill="#E87233"/>
<path d="M63.9999 343.988V415.988H55.9999C41.1478 415.988 26.904 410.088 16.402 399.586C5.89997 389.084 0 374.84 0 359.988V287.988C0 302.84 5.89997 317.084 16.402 327.586C26.904 338.088 41.1478 343.988 55.9999 343.988H63.9999Z" fill="#E87233"/>
<path d="M221.465 210.929H158.192C155.395 210.929 152.713 212.04 150.735 214.018C148.758 215.996 147.646 218.678 147.646 221.475C147.646 224.272 148.758 226.954 150.735 228.931C152.713 230.909 155.395 232.02 158.192 232.02H221.465C224.261 232.02 226.944 230.909 228.921 228.931C230.899 226.954 232.01 224.272 232.01 221.475C232.01 218.678 230.899 215.996 228.921 214.018C226.944 212.04 224.261 210.929 221.465 210.929Z" fill="#FFBD99"/>
<path d="M263.609 274.167H115.973C113.176 274.167 110.494 275.278 108.516 277.255C106.539 279.233 105.428 281.915 105.428 284.712C105.428 287.509 106.539 290.191 108.516 292.169C110.494 294.146 113.176 295.257 115.973 295.257H263.609C266.406 295.257 269.089 294.146 271.066 292.169C273.044 290.191 274.155 287.509 274.155 284.712C274.155 281.915 273.044 279.233 271.066 277.255C269.089 275.278 266.406 274.167 263.609 274.167Z" fill="#FFBD99"/>
<path d="M71.9624 111.994H55.9624V415.993H71.9624V111.994Z" fill="#CB4700"/>
<path d="M319.595 80.0005H288.005C277.338 64.0005 277.338 48.0006 288.005 32.0006H320.005C322.117 32.0033 324.21 31.5871 326.161 30.7759C328.111 29.9647 329.882 28.7747 331.37 27.2747C332.858 25.7748 334.034 23.9946 334.829 22.0373C335.625 20.08 336.024 17.9843 336.005 15.8716C335.9 11.6017 334.121 7.544 331.051 4.57462C327.98 1.60524 323.866 -0.0376373 319.595 0.000654657H56.0048C48.5881 7.08636e-06 41.2452 1.47264 34.4023 4.33306C27.5594 7.19348 21.3528 11.3847 16.1429 16.6634C10.9331 21.9421 6.8237 28.2031 4.05335 35.083C1.283 41.9629 -0.0931165 49.3245 0.00488988 56.7405C0.404889 87.5105 26.0649 112 56.8348 112H320.005C322.117 112.003 324.21 111.587 326.161 110.776C328.111 109.965 329.882 108.775 331.37 107.275C332.858 105.775 334.034 103.994 334.829 102.037C335.625 100.08 336.024 97.9842 336.005 95.8715C335.9 91.6015 334.121 87.5438 331.051 84.5745C327.98 81.6051 323.866 79.9622 319.595 80.0005Z" fill="#CC4700"/>
<path d="M287.948 79.9477H55.9482C49.583 79.9477 43.4785 77.4191 38.9777 72.9183C34.4768 68.4174 31.9482 62.3129 31.9482 55.9477C31.9482 49.5825 34.4768 43.478 38.9777 38.9772C43.4785 34.4763 49.583 31.9478 55.9482 31.9478H287.948C277.281 47.9477 277.281 63.9477 287.948 79.9477Z" fill="#D0D2D4"/>
</svg>
