<svg width="473" height="402" viewBox="0 0 473 402" fill="none" xmlns="http://www.w3.org/2000/svg">
<path d="M244.491 376.004C244.491 376.004 238.469 359.873 241.48 361.164C244.491 362.455 254.225 367.37 254.225 367.37C254.225 367.37 264.708 360.112 265.354 361.091C265.999 362.07 264.494 375.36 264.494 375.36C264.494 375.36 277.399 382.243 275.033 383.748C272.667 385.253 260.838 386.544 260.838 386.544C260.838 386.544 256.349 403.105 254.226 401.437C250.988 398.894 248.148 388.695 248.148 388.695C248.148 388.695 234.579 388.48 235.01 386.329C235.441 384.178 244.491 376.004 244.491 376.004Z" fill="#E8C01B"/>
<path d="M41.491 63.0038C41.491 63.0038 35.4691 46.8728 38.4801 48.1638C41.4911 49.4538 51.225 54.3698 51.225 54.3698C51.225 54.3698 61.708 47.1118 62.354 48.0908C62.999 49.0698 61.4941 62.3598 61.4941 62.3598C61.4941 62.3598 74.3991 69.2428 72.0331 70.7478C69.6671 72.2538 57.8381 73.5438 57.8381 73.5438C57.8381 73.5438 53.3491 90.1048 51.2261 88.4368C47.9881 85.8938 45.1481 75.6948 45.1481 75.6948C45.1481 75.6948 31.5791 75.4798 32.0101 73.3288C32.4391 71.1768 41.491 63.0038 41.491 63.0038Z" fill="#E8C01B"/>
<path d="M313.819 168.448C313.819 168.448 467.42 201.825 472.509 217.851C477.598 233.877 439.391 364.623 429.918 366.898C420.446 369.173 367.666 355.411 367.666 355.411C367.666 355.411 341.905 385.226 337.759 380.438C333.614 375.65 331.03 347.826 331.03 347.826C331.03 347.826 277.545 338.34 277.545 326.654C277.546 318.647 295.446 164.122 313.819 168.448Z" fill="#BE607A"/>
<path d="M359.317 295.953C356.724 295.953 354.304 294.325 353.417 291.736C353.047 290.656 349.944 280.928 354.757 271.597C357.886 265.531 363.458 261.274 371.321 258.941L372.137 258.699C378.986 256.677 395.023 251.945 398.775 242.935C400.368 239.112 399.691 234.561 396.704 229.023C393.632 223.326 389.746 219.954 384.823 218.71C374.562 216.128 362.879 223.546 362.765 223.619C359.885 225.519 356.021 224.717 354.127 221.837C352.234 218.96 353.033 215.093 355.909 213.201C356.567 212.767 372.181 202.663 387.876 206.617C396.262 208.735 402.926 214.281 407.684 223.104C412.499 232.037 413.377 240.322 410.29 247.734C404.252 262.229 384.947 267.926 375.668 270.664L374.868 270.9C370.389 272.228 367.354 274.388 365.843 277.315C363.438 281.978 365.199 287.638 365.217 287.693C366.334 290.951 364.598 294.498 361.339 295.615C360.669 295.843 359.987 295.953 359.317 295.953Z" fill="white"/>
<path d="M361.216 308.211C356.258 306.624 350.952 309.356 349.365 314.314C347.777 319.272 350.51 324.578 355.468 326.165C360.426 327.752 365.732 325.02 367.319 320.062C368.906 315.104 366.174 309.798 361.216 308.211Z" fill="white"/>
<path d="M296.551 305.048C296.229 305.048 295.913 304.9 295.709 304.617C294.47 302.889 293.223 298.65 297.386 294.966C297.816 294.582 298.471 294.623 298.854 295.055C299.235 295.483 299.194 296.141 298.765 296.521C295.054 299.808 297.151 303.05 297.402 303.409C297.73 303.876 297.62 304.524 297.154 304.854C296.97 304.985 296.76 305.048 296.551 305.048Z" fill="white"/>
<path d="M306.536 300.679C306.214 300.679 305.898 300.531 305.694 300.249C304.455 298.521 303.209 294.282 307.371 290.598C307.8 290.214 308.457 290.255 308.839 290.687C309.22 291.115 309.179 291.773 308.75 292.153C305.04 295.44 307.136 298.682 307.387 299.041C307.715 299.508 307.605 300.158 307.138 300.486C306.956 300.616 306.744 300.679 306.536 300.679Z" fill="white"/>
<path d="M299.439 290.11C299.117 290.11 298.801 289.962 298.597 289.68C297.358 287.952 296.111 283.713 300.274 280.029C300.703 279.647 301.361 279.686 301.743 280.118C302.124 280.546 302.082 281.204 301.653 281.584C297.942 284.871 300.039 288.113 300.29 288.472C300.618 288.939 300.508 289.587 300.042 289.917C299.858 290.047 299.648 290.11 299.439 290.11Z" fill="white"/>
<path d="M309.27 284.071C308.948 284.071 308.631 283.923 308.428 283.641C307.189 281.913 305.942 277.674 310.105 273.99C310.534 273.606 311.19 273.647 311.573 274.079C311.954 274.507 311.913 275.165 311.484 275.545C307.773 278.832 309.87 282.074 310.121 282.433C310.449 282.9 310.339 283.547 309.873 283.878C309.689 284.008 309.479 284.071 309.27 284.071Z" fill="white"/>
<path d="M316.057 294.564C315.735 294.564 315.419 294.416 315.215 294.134C313.976 292.406 312.729 288.167 316.892 284.483C317.321 284.099 317.977 284.14 318.36 284.572C318.741 285 318.7 285.658 318.271 286.038C314.56 289.325 316.657 292.567 316.908 292.926C317.236 293.393 317.126 294.041 316.66 294.371C316.476 294.501 316.266 294.564 316.057 294.564Z" fill="white"/>
<path d="M303.546 273.366C303.224 273.366 302.908 273.218 302.704 272.936C301.465 271.208 300.218 266.969 304.381 263.285C304.81 262.903 305.467 262.94 305.849 263.374C306.23 263.802 306.189 264.46 305.76 264.84C302.049 268.127 304.146 271.369 304.397 271.728C304.725 272.195 304.615 272.843 304.149 273.174C303.965 273.303 303.755 273.366 303.546 273.366Z" fill="white"/>
<path d="M312.046 269.87C311.617 269.87 311.215 269.602 311.064 269.174C311.046 269.121 309.258 263.751 315.94 260.41C316.454 260.152 317.078 260.363 317.335 260.875C317.592 261.389 317.384 262.014 316.87 262.27C311.806 264.802 313.014 268.452 313.027 268.489C313.216 269.031 312.931 269.624 312.388 269.813C312.276 269.852 312.16 269.87 312.046 269.87Z" fill="white"/>
<path d="M443.505 307.825C443.377 307.825 443.248 307.803 443.122 307.752C442.588 307.541 442.327 306.936 442.538 306.404C447.685 293.403 460.405 242.219 460.533 241.703C460.671 241.145 461.236 240.806 461.793 240.944C462.349 241.082 462.689 241.646 462.551 242.203C462.027 244.314 449.669 294.039 444.471 307.168C444.31 307.578 443.918 307.825 443.505 307.825Z" fill="white"/>
<path d="M432.453 333.57C432.22 333.57 431.984 333.491 431.79 333.331C431.348 332.963 431.288 332.308 431.654 331.867C433.153 330.062 436.238 322.423 437.3 319.631C437.504 319.095 438.106 318.833 438.641 319.028C439.178 319.233 439.447 319.834 439.243 320.37C438.84 321.43 435.246 330.797 433.254 333.194C433.048 333.442 432.752 333.57 432.453 333.57Z" fill="white"/>
<path d="M154.701 182.947C240.872 227.568 200.962 324.207 165.598 334.914C165.598 334.914 172.935 364.305 168.106 365.765C163.277 367.225 132.045 352.175 132.045 352.175C132.045 352.175 87.0236 382.365 41.2716 355.096C23.4886 344.498 -19.4373 310.866 10.7817 243.833C35.5016 189.001 102.022 155.669 154.701 182.947Z" fill="#E8C01B"/>
<path d="M121.763 297.382C120.855 297.382 119.932 297.183 119.059 296.761C118.135 296.317 109.949 292.151 107.018 283.167C105.109 277.314 105.898 271.059 109.364 264.579L109.714 263.925C112.587 258.568 119.315 246.025 116.193 238.575C114.906 235.503 111.856 233.301 106.871 231.841C101.735 230.337 97.5117 230.641 93.9587 232.777C86.3447 237.349 83.8957 248.777 83.8717 248.89C83.1747 252.254 79.8917 254.432 76.5177 253.746C73.1517 253.06 70.9717 249.791 71.6457 246.421C71.7827 245.737 75.1387 229.587 87.4587 222.13C94.0847 218.123 101.794 217.355 110.375 219.87C119.076 222.418 124.905 227.087 127.697 233.754C133.115 246.682 124.734 262.31 120.705 269.82L120.363 270.457C118.562 273.827 118.062 276.801 118.876 279.296C120.162 283.236 124.433 285.504 124.475 285.524C127.578 287.018 128.88 290.748 127.384 293.85C126.31 296.081 124.082 297.382 121.763 297.382Z" fill="white"/>
<path d="M143.153 304.138C140.933 299.891 135.69 298.247 131.443 300.467C127.196 302.687 125.552 307.93 127.772 312.177C129.992 316.424 135.235 318.068 139.482 315.848C143.729 313.628 145.373 308.385 143.153 304.138Z" fill="white"/>
<path d="M19.2596 286.096C18.7436 286.096 18.2976 285.714 18.2296 285.189C13.4666 248.186 38.6406 229.019 38.8956 228.83C39.3576 228.487 40.0076 228.582 40.3496 229.045C40.6926 229.504 40.5966 230.156 40.1366 230.499C40.0756 230.543 33.9336 235.176 28.4486 244.172C23.4006 252.453 17.8876 266.244 20.2926 284.925C20.3656 285.494 19.9636 286.015 19.3946 286.088C19.3476 286.094 19.3026 286.096 19.2596 286.096Z" fill="white"/>
<path d="M29.0898 311.789C28.8478 311.789 28.6058 311.706 28.4088 311.535C23.7328 307.479 23.1818 296.538 23.1608 296.073C23.1348 295.5 23.5778 295.015 24.1518 294.989C24.7238 294.914 25.2128 295.405 25.2378 295.98C25.2428 296.084 25.7678 306.492 29.7708 309.963C30.2038 310.341 30.2508 310.996 29.8758 311.429C29.6698 311.667 29.3798 311.789 29.0898 311.789Z" fill="white"/>
<path d="M187.617 262.49C187.341 262.49 187.065 262.38 186.86 262.163C186.467 261.745 186.487 261.087 186.905 260.693C190.516 257.297 188.322 254.119 188.06 253.768C187.718 253.309 187.808 252.657 188.265 252.314C188.72 251.969 189.366 252.054 189.715 252.509C191.007 254.196 192.379 258.396 188.33 262.207C188.128 262.397 187.872 262.49 187.617 262.49Z" fill="white"/>
<path d="M177.766 267.158C177.49 267.158 177.214 267.048 177.009 266.831C176.616 266.413 176.635 265.755 177.054 265.361C180.665 261.965 178.471 258.787 178.209 258.436C177.867 257.977 177.957 257.325 178.414 256.982C178.868 256.637 179.515 256.722 179.864 257.177C181.156 258.864 182.529 263.065 178.479 266.875C178.278 267.064 178.022 267.158 177.766 267.158Z" fill="white"/>
<path d="M185.177 277.507C184.901 277.507 184.625 277.397 184.42 277.18C184.027 276.762 184.046 276.104 184.465 275.71C188.076 272.314 185.883 269.136 185.621 268.785C185.279 268.326 185.369 267.674 185.826 267.331C186.282 266.986 186.929 267.073 187.275 267.526C188.566 269.213 189.939 273.414 185.889 277.224C185.689 277.414 185.433 277.507 185.177 277.507Z" fill="white"/>
<path d="M175.534 283.841C175.258 283.841 174.982 283.731 174.777 283.514C174.384 283.096 174.403 282.438 174.822 282.044C178.433 278.648 176.239 275.47 175.977 275.119C175.635 274.66 175.725 274.008 176.182 273.665C176.637 273.32 177.283 273.405 177.632 273.86C178.924 275.547 180.297 279.747 176.247 283.558C176.046 283.748 175.79 283.841 175.534 283.841Z" fill="white"/>
<path d="M168.435 273.555C168.159 273.555 167.883 273.445 167.678 273.228C167.285 272.81 167.304 272.152 167.723 271.758C171.334 268.362 169.141 265.184 168.879 264.833C168.537 264.374 168.627 263.723 169.084 263.379C169.538 263.034 170.185 263.119 170.534 263.574C171.825 265.261 173.198 269.461 169.148 273.272C168.946 273.461 168.691 273.555 168.435 273.555Z" fill="white"/>
<path d="M181.577 294.37C181.301 294.37 181.025 294.26 180.82 294.043C180.427 293.625 180.446 292.967 180.865 292.573C184.476 289.177 182.282 285.999 182.02 285.648C181.678 285.189 181.768 284.538 182.225 284.194C182.679 283.849 183.326 283.936 183.674 284.389C184.966 286.076 186.339 290.276 182.289 294.087C182.088 294.276 181.833 294.37 181.577 294.37Z" fill="white"/>
<path d="M170.33 297.431C169.96 297.431 169.601 297.232 169.413 296.885C169.141 296.379 169.331 295.748 169.836 295.476C174.757 292.827 173.541 289.286 173.487 289.136C173.292 288.6 173.564 288.003 174.099 287.804C174.638 287.597 175.227 287.871 175.431 288.399C175.451 288.454 177.399 293.765 170.821 297.307C170.665 297.391 170.496 297.431 170.33 297.431Z" fill="white"/>
<path d="M353.878 32.626C313.354 -14.898 184.555 3.506 184.555 3.506C95.0637 6.822 115.824 182.781 131.876 197.813C147.928 212.846 214.035 216.394 214.035 216.394C214.035 216.394 226.939 237.368 232.074 240.915C237.209 244.462 255.082 217.02 260.845 211.267C266.608 205.514 330.019 219.096 348.678 195.904C367.336 172.712 392.883 78.368 353.878 32.626Z" fill="#76ADA2"/>
<path d="M233.062 164.317C229.33 164.317 225.82 162.078 224.383 158.389C223.764 156.799 218.519 142.416 225.1 127.531C229.532 117.506 238.047 110.015 250.408 105.266C270.254 97.642 283.327 86.8101 286.275 75.5461C288.187 68.2381 285.722 60.3881 278.947 52.2141C271.23 42.9061 263.4 38.4501 255.655 38.9581C242.027 39.8631 229.316 55.5891 225.568 61.5731C222.829 65.9441 217.064 67.2831 212.687 64.5561C208.309 61.8271 206.96 56.0801 209.677 51.6961C210.426 50.4881 228.321 22.0821 254.328 20.2961C268.437 19.3011 281.56 26.048 293.35 40.275C306.853 56.564 306.798 71.0231 304.374 80.284C299.816 97.702 283.033 112.777 257.117 122.732C235.476 131.046 240.599 148.3 241.845 151.674C243.625 156.49 241.204 161.88 236.404 163.703C235.304 164.118 234.173 164.317 233.062 164.317Z" fill="white"/>
<path d="M237.766 175.318C231.448 173.573 224.911 177.28 223.166 183.598C221.421 189.916 225.128 196.454 231.447 198.199C237.765 199.944 244.302 196.237 246.047 189.919C247.792 183.6 244.084 177.063 237.766 175.318Z" fill="white"/>
<path d="M135.97 173.982C135.733 173.982 135.495 173.901 135.3 173.734C133.682 172.355 131.455 168.539 134.611 163.961C134.937 163.488 135.583 163.368 136.057 163.695C136.53 164.022 136.649 164.669 136.323 165.142C133.509 169.223 136.323 171.866 136.653 172.154C137.084 172.53 137.133 173.185 136.76 173.618C136.552 173.858 136.262 173.982 135.97 173.982Z" fill="white"/>
<path d="M144.615 167.343C144.378 167.343 144.14 167.262 143.945 167.095C142.327 165.717 140.1 161.9 143.256 157.322C143.582 156.849 144.229 156.729 144.701 157.056C145.174 157.383 145.293 158.03 144.967 158.504C142.153 162.585 144.967 165.228 145.297 165.516C145.728 165.892 145.777 166.547 145.404 166.98C145.198 167.22 144.907 167.343 144.615 167.343Z" fill="white"/>
<path d="M135.188 158.786C134.951 158.786 134.713 158.705 134.518 158.538C132.9 157.16 130.673 153.345 133.829 148.767C134.154 148.294 134.802 148.174 135.274 148.499C135.747 148.826 135.866 149.473 135.54 149.944C132.727 154.027 135.54 156.67 135.87 156.958C136.301 157.334 136.35 157.989 135.977 158.422C135.771 158.663 135.48 158.786 135.188 158.786Z" fill="white"/>
<path d="M143.28 150.564C143.043 150.564 142.805 150.483 142.61 150.316C140.992 148.938 138.766 145.121 141.921 140.543C142.247 140.07 142.894 139.95 143.366 140.277C143.839 140.604 143.958 141.252 143.632 141.725C140.819 145.806 143.632 148.449 143.963 148.737C144.393 149.113 144.442 149.768 144.069 150.201C143.863 150.44 143.573 150.564 143.28 150.564Z" fill="white"/>
<path d="M152.387 159.121C152.15 159.121 151.912 159.04 151.717 158.873C150.099 157.495 147.872 153.68 151.028 149.102C151.353 148.627 152.001 148.509 152.473 148.834C152.946 149.161 153.065 149.809 152.739 150.279C149.926 154.362 152.739 157.005 153.069 157.293C153.5 157.668 153.549 158.324 153.176 158.757C152.97 158.998 152.68 159.121 152.387 159.121Z" fill="white"/>
<path d="M135.155 141.546C134.918 141.546 134.68 141.465 134.485 141.298C132.867 139.92 130.64 136.103 133.796 131.525C134.121 131.051 134.769 130.933 135.241 131.259C135.714 131.585 135.833 132.233 135.507 132.704C132.693 136.786 135.507 139.43 135.837 139.718C136.268 140.094 136.317 140.749 135.944 141.182C135.737 141.423 135.447 141.546 135.155 141.546Z" fill="white"/>
<path d="M142.562 136.107C142.225 136.107 141.895 135.943 141.697 135.639C141.666 135.591 138.642 130.808 144.327 125.961C144.761 125.586 145.419 125.639 145.792 126.078C146.165 126.515 146.113 127.17 145.675 127.543C141.423 131.17 143.358 134.375 143.442 134.511C143.745 134.994 143.605 135.635 143.124 135.942C142.949 136.053 142.754 136.107 142.562 136.107Z" fill="white"/>
<path d="M358.341 89.4069C357.831 89.4069 357.386 89.0319 357.313 88.5129C349.565 33.5799 317.347 28.0539 317.023 28.0059C316.455 27.9199 316.065 27.3899 316.15 26.8229C316.236 26.2569 316.769 25.8739 317.331 25.9489C317.67 25.9999 351.394 31.6539 359.372 88.2229C359.452 88.7909 359.056 89.3169 358.488 89.3969C358.438 89.4039 358.388 89.4069 358.341 89.4069Z" fill="white"/>
<path d="M355.531 125.429C355.248 125.429 354.965 125.313 354.76 125.086C354.375 124.66 354.409 124.003 354.835 123.618C356.242 122.349 357.194 111.936 357.303 102.602C357.31 102.032 357.774 101.575 358.342 101.575C358.346 101.575 358.35 101.575 358.354 101.575C358.928 101.582 359.387 102.052 359.381 102.627C359.327 107.294 358.939 122.714 356.227 125.162C356.028 125.341 355.78 125.429 355.531 125.429Z" fill="white"/>
</svg>
