<svg width="24" height="21" viewBox="0 0 24 21" fill="none" xmlns="http://www.w3.org/2000/svg">
<path d="M18.2486 0.109909C18.7909 -0.113877 19.41 0.0114429 19.8258 0.418732L22.7181 3.28319C22.9892 3.55173 23.1429 3.91426 23.1429 4.2947C23.1429 4.67513 22.9892 5.03766 22.7181 5.30621L19.8258 8.17066C19.41 8.58242 18.7909 8.70327 18.2486 8.47948C17.7063 8.2557 17.3538 7.73652 17.3538 7.15467V5.72245H15.9076C15.4512 5.72245 15.0218 5.93281 14.7507 6.29534L12.8345 8.83306L11.0269 6.44751L12.4369 4.58562C13.2548 3.5025 14.5428 2.86695 15.9076 2.86695H17.3538V1.43472C17.3538 0.857352 17.7063 0.333694 18.2486 0.109909ZM7.4115 11.2231L9.21918 13.6086L7.80919 15.4705C6.99121 16.5537 5.70324 17.1892 4.33844 17.1892H1.44615C0.646246 17.1892 0 16.5492 0 15.757C0 14.9648 0.646246 14.3248 1.44615 14.3248H4.33844C4.79488 14.3248 5.2242 14.1144 5.49536 13.7519L7.4115 11.2231ZM19.8212 19.6374C19.4055 20.0492 18.7863 20.17 18.244 19.9462C17.7017 19.7225 17.3492 19.2033 17.3492 18.6214V17.1892H15.9031C14.5383 17.1892 13.2503 16.5537 12.4323 15.4705L5.49536 6.30429C5.2242 5.94176 4.79488 5.7314 4.33844 5.7314H1.44615C0.646246 5.7314 0 5.09137 0 4.29917C0 3.50697 0.646246 2.86695 1.44615 2.86695H4.33844C5.70324 2.86695 6.99121 3.5025 7.80919 4.58562L14.7507 13.7519C15.0218 14.1144 15.4512 14.3248 15.9076 14.3248H17.3538V12.8925C17.3538 12.3152 17.7063 11.7915 18.2486 11.5677C18.7909 11.3439 19.41 11.4693 19.8258 11.8765L22.7181 14.741C22.9892 15.0095 23.1429 15.3721 23.1429 15.7525C23.1429 16.1329 22.9892 16.4955 22.7181 16.764L19.8258 19.6285L19.8212 19.6374Z" fill="white"/>
</svg>
