<svg width="18" height="16" viewBox="0 0 18 16" fill="none" xmlns="http://www.w3.org/2000/svg">
<path d="M14.1933 0.0876764C14.6151 -0.0908419 15.0967 0.00912826 15.42 0.334032L17.6696 2.61907C17.8805 2.83329 18 3.12249 18 3.42597C18 3.72945 17.8805 4.01865 17.6696 4.23287L15.42 6.5179C15.0967 6.84638 14.6151 6.94278 14.1933 6.76426C13.7715 6.58574 13.4974 6.17158 13.4974 5.70743V4.56491H12.3726C12.0176 4.56491 11.6837 4.73272 11.4728 5.02192L9.98243 7.04632L8.57645 5.14331L9.67311 3.65804C10.3093 2.79401 11.3111 2.28702 12.3726 2.28702H13.4974V1.1445C13.4974 0.683927 13.7715 0.266195 14.1933 0.0876764ZM5.7645 8.95289L7.17048 10.8559L6.07381 12.3412C5.43761 13.2052 4.43585 13.7122 3.37434 13.7122H1.12478C0.502636 13.7122 0 13.2016 0 12.5697C0 11.9377 0.502636 11.4272 1.12478 11.4272H3.37434C3.72935 11.4272 4.06327 11.2593 4.27417 10.9701L5.7645 8.95289ZM15.4165 15.6652C15.0931 15.9937 14.6116 16.0901 14.1898 15.9115C13.768 15.733 13.4938 15.3189 13.4938 14.8547V13.7122H12.3691C11.3076 13.7122 10.3058 13.2052 9.6696 12.3412L4.27417 5.02906C4.06327 4.73986 3.72935 4.57205 3.37434 4.57205H1.12478C0.502636 4.57205 0 4.06149 0 3.42954C0 2.79758 0.502636 2.28702 1.12478 2.28702H3.37434C4.43585 2.28702 5.43761 2.79401 6.07381 3.65804L11.4728 10.9701C11.6837 11.2593 12.0176 11.4272 12.3726 11.4272H13.4974V10.2846C13.4974 9.82406 13.7715 9.40633 14.1933 9.22781C14.6151 9.04929 15.0967 9.14926 15.42 9.47416L17.6696 11.7592C17.8805 11.9734 18 12.2626 18 12.5661C18 12.8696 17.8805 13.1588 17.6696 13.373L15.42 15.658L15.4165 15.6652Z" fill="#A0C0CB"/>
</svg>
