<svg width="705" height="686" viewBox="0 0 705 686" fill="none" xmlns="http://www.w3.org/2000/svg">
<path d="M695.36 392.054C680.213 442.987 648.266 485.374 605.24 516.88C602.333 519.014 599.4 521.08 596.4 523.107C552.346 552.867 497.813 571.814 438.36 577.747C434.826 578.107 431.266 578.427 427.68 578.68C377.893 582.307 324.96 576.894 272.04 561.147C82.745 504.854 -34.615 337.88 9.90097 188.2C41.1943 82.9869 144.133 14.3203 268.266 2.36023C271.933 2.00024 275.613 1.70685 279.306 1.45349C328.586 -1.93317 380.92 3.53357 433.226 19.0936C461.066 27.3869 487.346 38.0535 511.786 50.7068C515.066 52.4135 518.306 54.1469 521.52 55.9202C657.16 130.614 732.453 267.334 695.36 392.054Z" fill="#D2F2FF"/>
<path d="M515.853 452C464.013 452 421.826 494.174 421.826 546.014C421.826 557.507 423.893 568.507 427.68 578.68C431.266 578.427 434.826 578.107 438.36 577.747C434.346 567.974 432.12 557.24 432.12 546.014C432.12 499.854 469.68 462.28 515.853 462.28C554.08 462.28 586.413 488.04 596.4 523.107C599.4 521.08 602.333 519.014 605.24 516.88C592.96 479.254 557.52 452 515.853 452Z" fill="white"/>
<path d="M511.786 50.7069C505.506 110.72 454.626 157.64 392.986 157.64C327.12 157.64 273.52 104.067 273.52 38.1869C273.52 25.3736 275.546 13.0269 279.306 1.4536C275.613 1.70692 271.933 2.00029 268.266 2.36029C264.986 13.747 263.24 25.7603 263.24 38.1869C263.24 109.734 321.44 167.934 392.986 167.934C458.52 167.934 512.853 119.107 521.52 55.9203C518.306 54.1469 515.066 52.4136 511.786 50.7069Z" fill="white"/>
<path d="M169.8 270.387L125.484 283.6V359.16L149.146 359.96L184.64 350.107L169.8 270.387Z" fill="white"/>
<path d="M525.56 143.853V93.5334L490.546 81.4001V131.72L525.56 143.853ZM525.56 222.2V171.893L490.546 159.76V210.08L525.56 222.2ZM525.56 300.56V250.24L490.546 238.107V288.427L525.56 300.56ZM525.56 378.92V328.587L490.546 316.453V345.693L486.253 352.293L478.64 337.36L468.693 342.16L487.053 378.16L493.72 367.88L525.56 378.92ZM587.146 243.56V193.24L552.146 181.093V231.413L587.146 243.56ZM587.146 321.907V271.587L552.146 259.453V309.773L587.146 321.907ZM587.146 400.253V349.933L552.146 337.8V388.12L587.146 400.253ZM587.16 165.213V114.88L552.146 102.747V140.84L550.546 143.293L542.92 128.36L532.973 133.147L551.346 169.133L560 155.8L587.16 165.213ZM648.746 186.547V136.227L613.746 124.093V174.413L648.746 186.547ZM648.746 343.253V292.933L613.746 280.8V331.12L648.746 343.253ZM648.746 421.613V371.293L613.746 359.16V409.48L648.746 421.613ZM648.76 264.907V214.587L613.746 202.453V234.253L609.453 225.88L599.506 230.68L617.88 266.653L624.48 256.493L648.76 264.907ZM677.946 116.227V482.773L461.346 407.707V232.307C470.533 221.387 477.72 212.493 477.72 212.493C477.72 212.493 470.946 210.613 461.346 208.107V41.1602L677.946 116.227Z" fill="#FEE0AA"/>
<path d="M648.76 214.587V264.907L624.48 256.493L643.226 227.613L632.786 216.613L617.08 240.813L613.746 234.253V202.453L648.76 214.587Z" fill="white"/>
<path d="M648.746 371.294V421.614L613.746 409.48V359.16L648.746 371.294Z" fill="white"/>
<path d="M648.746 292.933V343.253L613.746 331.12V280.8L648.746 292.933Z" fill="white"/>
<path d="M648.746 136.227V186.547L613.746 174.414V124.094L648.746 136.227Z" fill="white"/>
<path d="M632.786 216.614L643.226 227.614L624.48 256.494L617.88 266.654L599.506 230.681L609.453 225.881L613.746 234.254L617.08 240.814L632.786 216.614Z" fill="#E11F27"/>
<path d="M587.16 114.881V165.214L560 155.801L576.693 130.094L566.266 119.094L552.146 140.827V102.747L587.16 114.881Z" fill="white"/>
<path d="M587.146 349.933V400.253L552.146 388.12V337.8L587.146 349.933Z" fill="white"/>
<path d="M587.146 271.587V321.907L552.146 309.773V259.453L587.146 271.587Z" fill="white"/>
<path d="M587.146 193.24V243.56L552.146 231.413V181.093L587.146 193.24Z" fill="white"/>
<path d="M566.266 119.094L576.693 130.094L560 155.8L551.346 169.134L532.973 133.147L542.92 128.36L550.546 143.294L552.146 140.84V140.827L566.266 119.094Z" fill="#E11F27"/>
<path d="M525.56 328.587V378.92L493.72 367.88L512.4 339.107L501.973 328.094L490.546 345.694V316.454L525.56 328.587Z" fill="white"/>
<path d="M525.56 250.24V300.56L490.546 288.427V238.107L525.56 250.24Z" fill="white"/>
<path d="M525.56 171.894V222.2L490.546 210.08V159.76L525.56 171.894Z" fill="white"/>
<path d="M525.56 93.5335V143.854L490.546 131.72V81.4002L525.56 93.5335Z" fill="white"/>
<path d="M501.973 328.093L512.4 339.107L493.72 367.88L487.053 378.16L468.693 342.16L478.64 337.36L486.253 352.293L490.546 345.693L501.973 328.093Z" fill="#E11F27"/>
<path d="M461.346 208.107C470.946 210.614 477.72 212.494 477.72 212.494C477.72 212.494 470.533 221.387 461.346 232.307C457.08 237.347 452.386 242.84 447.773 248.067C443.666 242.24 439.826 234.467 436.973 225.574C434.12 216.68 432.706 208.134 432.653 200.987V200.974C442.613 203.294 453.04 205.934 461.346 208.107Z" fill="#4D1111"/>
<path d="M445.666 318.387C445.666 318.413 445.666 318.427 445.666 318.453C445.64 320.933 442.813 323.293 437.84 325.4C435.333 326.44 432.306 327.44 428.8 328.333C430.066 320.893 431.146 314.547 432.093 309.72C440.56 312.067 445.613 315.067 445.666 318.387Z" fill="#4D1111"/>
<path d="M423.386 271.894C418.586 273.281 412.573 269.001 407.026 261.161C402.92 255.334 399.08 247.547 396.226 238.654C389.506 217.747 390.773 198.614 399.026 195.774L399.16 195.734C402.693 194.614 417.106 197.387 432.653 200.974V200.987C432.706 208.134 434.12 216.681 436.973 225.574C439.826 234.467 443.666 242.241 447.773 248.067C445.573 250.561 443.386 253.014 441.28 255.321C433.293 264.094 426.373 270.947 423.586 271.841C423.52 271.867 423.453 271.894 423.386 271.894Z" fill="white"/>
<path d="M441.293 255.334C442.08 266.88 437.36 284.134 432.64 306.92C432.466 307.774 432.28 308.72 432.093 309.72C431.146 314.547 430.066 320.894 428.8 328.334C419.04 330.854 405.706 332.667 390.64 333.36C392.173 329.907 394.04 326.16 396.346 322.16C409.506 299.294 391.653 291.134 381.866 301.64L381.813 301.587C383.666 297.174 385.186 293.014 385.973 288.974C386.306 287.307 386.266 285.587 385.84 283.96L423.386 271.894C423.453 271.894 423.52 271.867 423.586 271.84C426.373 270.947 433.293 264.094 441.28 255.32L441.293 255.334Z" fill="#EFBC83"/>
<path d="M445.666 318.454C445.386 328.6 443.346 342.587 439.973 358.574L439.813 358.547C413.36 367.12 383.346 364.6 383.346 364.6C383.813 361.12 383.64 357.574 384.213 354.107C384.76 350.8 385.733 346.387 387.6 341.014C388.426 338.654 389.427 336.094 390.627 333.36H390.64C405.706 332.667 419.04 330.854 428.8 328.334C432.306 327.44 435.333 326.44 437.84 325.4C442.813 323.294 445.64 320.934 445.666 318.454Z" fill="white"/>
<path d="M439.813 358.547L439.973 358.574C426.546 422.174 391.853 517.467 361.266 528.521C357.906 493.214 350.8 460.894 350.64 460.214C368.16 427.614 379.48 394.054 383.346 364.6C383.346 364.6 413.36 367.121 439.813 358.547Z" fill="#F8D6CD"/>
<path d="M423.386 271.894L385.84 283.96C385.4 282.187 384.52 280.547 383.213 279.227C380.026 276.027 375.053 274.84 369.066 279.68C369.626 277.934 370.093 276.214 370.426 274.52C370.546 273.96 370.6 273.4 370.64 272.84L407.026 261.16C412.573 269 418.586 273.28 423.386 271.894Z" fill="#E77725"/>
<path d="M407.026 261.16L370.64 272.84C370.773 269.867 369.76 266.894 367.653 264.76C362.92 259.974 354.146 259.72 343.946 277.254C344.52 275.187 344.973 273.174 345.253 271.214C345.746 267.667 344.6 264 341.946 261.614C336.92 257.054 328.08 257.294 318.786 275.76C315.826 281.614 313.466 287.04 311.573 291.88L311.466 291.84L164.28 339.107H164.266C160.16 333.294 156.306 325.494 153.453 316.6C146.706 295.587 148.013 276.36 156.373 273.694L246.333 244.787L302.133 226.88L399.026 195.774C390.773 198.614 389.506 217.747 396.226 238.654C399.08 247.547 402.92 255.334 407.026 261.16Z" fill="#F1BD1B"/>
<path d="M381.866 301.64C391.653 291.134 409.506 299.294 396.346 322.16C394.04 326.16 392.173 329.907 390.64 333.36H390.626C389.426 336.094 388.426 338.654 387.6 341.014C385.733 346.387 384.76 350.8 384.213 354.107C383.64 357.574 383.813 361.12 383.346 364.6C379.48 394.054 368.16 427.614 350.64 460.214C348.68 463.894 346.613 467.56 344.493 471.214C341.666 476.04 338.706 480.827 335.613 485.574C325.28 479.654 309.653 464.64 294.466 445.214C279.92 426.587 269.373 408.574 265.68 397C269.48 393.387 272.826 389.907 275.573 386.68C278.786 382.88 281.16 379.4 282.4 376.414C293.72 349.2 289.146 315.014 289.146 315.014V315L305.8 309.667C306.893 305.32 308.693 299.254 311.573 291.88C313.466 287.04 315.826 281.614 318.786 275.76C328.08 257.294 336.92 257.054 341.946 261.614C344.6 264 345.746 267.667 345.253 271.214C344.973 273.174 344.52 275.187 343.946 277.254C354.146 259.72 362.92 259.974 367.653 264.76C369.76 266.894 370.773 269.867 370.64 272.84C370.6 273.4 370.546 273.96 370.426 274.52C370.093 276.214 369.626 277.934 369.066 279.68C375.053 274.84 380.026 276.027 383.213 279.227C384.52 280.547 385.4 282.187 385.84 283.96C386.266 285.587 386.306 287.307 385.973 288.974C385.186 293.014 383.666 297.174 381.813 301.587L381.866 301.64Z" fill="#EFBC83"/>
<path d="M173.6 624.267V624.28C141.04 623.44 121.612 619.893 121.612 619.893L121.097 628.88C82.2517 624.48 90.7824 571.427 90.937 570.52C118.113 598.667 154.28 613.667 199.653 598.48C242.36 584.187 280.133 555.907 314.013 522.094C325.053 511.067 335.68 499.44 345.933 487.534C348.573 485.467 347.866 479.507 344.493 471.214C346.613 467.56 348.68 463.894 350.64 460.214C350.8 460.894 357.906 493.214 361.266 528.52C365.36 571.56 363.88 619.067 337.373 619.067V604.534C331.8 606.027 326.28 607.414 320.813 608.707C309.093 611.48 297.68 613.813 286.626 615.734C251.586 643.053 200.706 632.773 173.6 624.267Z" fill="#F8D6CD"/>
<path d="M344.493 471.214C347.866 479.507 348.573 485.467 345.933 487.534C343.946 489.067 340.346 488.267 335.613 485.574C338.706 480.827 341.666 476.04 344.493 471.214Z" fill="#4D1111"/>
<path d="M335.613 485.574C340.346 488.267 343.946 489.067 345.933 487.534C335.68 499.44 325.053 511.067 314.013 522.094L314 522.08C304.853 516.294 296.6 509.987 289.213 503.4C290.773 502.027 292.32 500.414 293.773 498.614C300.4 490.374 302.653 481.174 298.813 478.08C294.96 474.987 286.466 479.16 279.84 487.4C278.746 488.747 277.773 490.147 276.92 491.52C243.386 456.16 231.6 418.374 231.6 418.374C249.44 401.96 262.2 388.814 265.173 385.734C263.693 387.72 263.96 391.68 265.68 397C269.373 408.574 279.92 426.587 294.466 445.214C309.653 464.64 325.28 479.654 335.613 485.574Z" fill="white"/>
<path d="M337.373 628.893L343.706 684.333H108.904C108.564 656.027 120.294 643.053 120.294 643.053C120.294 643.053 188.173 660.093 287.24 641.093H287.253C288.36 643.613 290.253 646 292.8 647.867C299.226 652.6 307.466 652.32 311.186 647.253C313.52 644.067 313.533 639.76 311.626 635.827C314.666 635.08 317.72 634.307 320.813 633.493C326.266 632.08 331.786 630.547 337.373 628.893Z" fill="#3877E5"/>
<path d="M337.373 628.881V628.894C331.786 630.547 326.266 632.081 320.813 633.494V633.44V608.707C326.28 607.414 331.8 606.027 337.373 604.534V619.067V628.881Z" fill="#6C9ADD"/>
<path d="M320.813 633.44V633.493C317.72 634.307 314.666 635.08 311.626 635.827C310.493 633.48 308.693 631.267 306.293 629.507C299.853 624.787 291.613 625.053 287.893 630.133C285.653 633.187 285.56 637.293 287.253 641.093H287.24C188.173 660.093 120.294 643.053 120.294 643.053L121.097 628.88L121.612 619.893C121.612 619.893 141.04 623.44 173.6 624.28V624.267C200.706 632.773 251.586 643.053 286.626 615.733C297.68 613.813 309.093 611.48 320.813 608.707V633.44Z" fill="#6C9ADD"/>
<path d="M231.6 418.374C231.6 418.374 243.386 456.16 276.92 491.52C272.626 498.507 271.586 505.347 274.8 507.92C277.8 510.347 283.64 508.32 289.213 503.4C296.6 509.987 304.853 516.294 314 522.08L314.013 522.094C280.133 555.907 242.36 584.187 199.653 598.48C154.28 613.667 118.113 598.667 90.9371 570.52C90.9371 570.507 90.9371 570.507 90.9371 570.507C43.0251 520.854 23.0931 430.28 30.0491 391.987C40.5451 334.267 89.9277 318.054 89.9277 318.054L90.3704 318.014C90.9984 323.48 92.2744 329.467 94.2504 335.614C100.99 356.627 113.245 371.48 121.601 368.814L121.612 368.8L161.413 356.014L180.746 349.814L180.813 349.8L289.146 315V315.014C289.146 315.014 293.72 349.201 282.4 376.414C281.16 379.4 278.786 382.88 275.573 386.68C271.133 384.24 267.72 383.56 265.813 385.04C265.813 385.04 265.813 385.054 265.786 385.067C265.546 385.254 265.346 385.467 265.173 385.734C262.2 388.814 249.44 401.96 231.6 418.374Z" fill="#F8D6CD"/>
<path d="M311.626 635.827C313.533 639.76 313.52 644.067 311.187 647.253C307.467 652.32 299.226 652.6 292.8 647.867C290.253 646 288.36 643.613 287.253 641.093C285.56 637.293 285.653 633.187 287.893 630.134C291.613 625.053 299.853 624.787 306.293 629.507C308.693 631.267 310.493 633.48 311.626 635.827Z" fill="#4D1111"/>
<path d="M311.466 291.84L311.573 291.88C308.693 299.254 306.893 305.32 305.8 309.667L289.146 315L180.813 349.8L180.746 349.814C175.946 351.307 169.853 347.014 164.266 339.107H164.28L311.466 291.84Z" fill="#E77725"/>
<path d="M298.813 478.08C302.653 481.174 300.4 490.374 293.773 498.614C292.32 500.414 290.773 502.027 289.213 503.4C283.64 508.32 277.8 510.347 274.8 507.921C271.586 505.347 272.627 498.507 276.92 491.521C277.773 490.147 278.746 488.747 279.84 487.4C286.466 479.16 294.96 474.987 298.813 478.08Z" fill="#4D1111"/>
<path d="M265.813 385.04C267.72 383.56 271.133 384.241 275.573 386.681C272.826 389.907 269.48 393.387 265.68 397C263.96 391.68 263.693 387.72 265.173 385.734C265.493 385.374 265.72 385.147 265.786 385.067C265.813 385.054 265.813 385.04 265.813 385.04Z" fill="#4D1111"/>
<path d="M151.813 260.534C137.417 260.174 127.848 248.174 125.738 233.787C123.453 218.294 136.821 203.12 154.973 208.587C177.493 188.734 159.493 159.947 159.493 159.947C167.146 156.774 178 150.467 178.626 140.16C178.8 137.52 178.213 134.974 177.066 132.72C183.053 130.627 190.546 126.774 199.706 120.414V120.427C200.48 121.334 201.24 122.294 201.96 123.32C205.933 128.814 209.213 133.654 212.16 137.867C221.733 151.52 228.066 158.547 244.946 159.467C262.213 161.467 248.16 175.947 249.76 198.44C250.906 214.494 258.76 230.747 246.333 244.787L156.373 273.694L150.226 275.667C151.026 272.867 151.48 270.36 151.72 268.24C152.293 263.414 151.813 260.534 151.813 260.534Z" fill="#EFBC83"/>
<path d="M214.16 165.507C216.946 169.72 217.066 174.534 214.453 176.267C211.826 178 207.44 175.987 204.666 171.774C201.893 167.56 201.76 162.747 204.386 161.027C207.013 159.294 211.386 161.294 214.16 165.507Z" fill="#4D1111"/>
<path d="M159.493 159.947C159.493 159.947 177.493 188.734 154.973 208.587C136.821 203.12 123.453 218.294 125.738 233.787C127.848 248.174 137.417 260.174 151.813 260.534C151.813 260.534 152.293 263.414 151.72 268.24C125.49 274.32 87.1704 268.76 81.1717 233.987C79.2264 222.68 81.5104 214.974 85.5237 210.04C96.1637 217.707 110.437 216.974 109.818 207.454C109.428 201.454 93.797 199.8 85.5237 210.04C78.557 205.027 73.145 196.387 74.513 184.267C76.0263 170.907 83.5583 164.48 90.041 161.387C89.9903 160.334 88.0344 119.374 103.161 106.88C105.94 104.587 108.542 103.787 110.878 104.04C106.732 118.147 110.18 132.254 117.145 130.2C126.406 127.48 121.396 105.12 110.878 104.04C113.461 95.2403 118.998 86.4403 128.465 81.587C153.12 68.9203 163.72 90.2403 163.72 90.2403C163.72 90.2403 183.173 66.6137 202.76 77.5737C219.466 86.907 226.68 117.307 212.16 137.867C209.213 133.654 205.933 128.814 201.96 123.32C201.24 122.294 200.48 121.334 199.706 120.427V120.414C190.546 126.774 183.053 130.627 177.066 132.72C175.346 129.334 172.346 126.56 168.68 125C153.16 118.374 151.106 141.854 177.066 132.72C178.213 134.974 178.8 137.52 178.626 140.16C178 150.467 167.146 156.774 159.493 159.947Z" fill="#E11F27"/>
<path d="M168.68 125C172.346 126.56 175.346 129.333 177.066 132.72C151.106 141.853 153.16 118.373 168.68 125Z" fill="#E11F27"/>
<path d="M161.413 356.013L121.612 368.8L121.601 368.813C113.245 371.48 100.99 356.627 94.2504 335.613C92.2744 329.467 90.9984 323.48 90.3704 318.013C88.8678 304.773 91.2557 294.6 97.1717 292.693H97.1824L137.16 279.853C128.845 282.587 127.538 301.787 134.278 322.76C140.968 343.587 153.066 358.36 161.413 356.013Z" fill="#F69282"/>
<path d="M110.878 104.04C121.396 105.12 126.406 127.48 117.145 130.2C110.18 132.254 106.732 118.147 110.878 104.04Z" fill="#E11F27"/>
<path d="M109.818 207.453C110.437 216.973 96.1637 217.707 85.5237 210.04C93.797 199.8 109.428 201.453 109.818 207.453Z" fill="#E11F27"/>
<path d="M184.64 285C182.426 285 180.373 283.56 179.706 281.334C178.893 278.6 180.44 275.734 183.16 274.92L304.4 238.627C307.12 237.814 309.986 239.361 310.813 242.081C311.626 244.801 310.08 247.667 307.36 248.494L186.12 284.787C185.626 284.934 185.12 285 184.64 285Z" fill="white"/>
<path d="M361.28 70.0005C361.28 67.9605 362.933 66.3071 364.973 66.3071C367.013 66.3071 368.68 67.9605 368.68 70.0005C368.68 72.0405 367.013 73.6938 364.973 73.6938C362.933 73.6938 361.28 72.0405 361.28 70.0005Z" fill="#4D1111"/>
<path d="M390.533 70.0005C390.533 67.9605 392.186 66.3071 394.226 66.3071C396.266 66.3071 397.92 67.9605 397.92 70.0005C397.92 72.0405 396.266 73.6938 394.226 73.6938C392.186 73.6938 390.533 72.0405 390.533 70.0005Z" fill="#4D1111"/>
<path d="M375.906 70.0005C375.906 67.9605 377.56 66.3071 379.6 66.3071C381.64 66.3071 383.293 67.9605 383.293 70.0005C383.293 72.0405 381.64 73.6938 379.6 73.6938C377.56 73.6938 375.906 72.0405 375.906 70.0005Z" fill="#4D1111"/>
<path d="M364.973 95.6934C367.013 95.6934 368.68 97.3467 368.68 99.3867C368.68 101.427 367.013 103.08 364.973 103.08C362.933 103.08 361.28 101.427 361.28 99.3867C361.28 97.3467 362.933 95.6934 364.973 95.6934Z" fill="#4D1111"/>
<path d="M364.973 81.0668C367.013 81.0668 368.68 82.7202 368.68 84.7602C368.68 86.8002 367.013 88.4668 364.973 88.4668C362.933 88.4668 361.28 86.8002 361.28 84.7602C361.28 82.7202 362.933 81.0668 364.973 81.0668Z" fill="#4D1111"/>
<path d="M379.6 95.6934C381.64 95.6934 383.293 97.3467 383.293 99.3867C383.293 101.427 381.64 103.08 379.6 103.08C377.56 103.08 375.906 101.427 375.906 99.3867C375.906 97.3467 377.56 95.6934 379.6 95.6934Z" fill="#4D1111"/>
<path d="M379.6 81.0668C381.64 81.0668 383.293 82.7202 383.293 84.7602C383.293 86.8002 381.64 88.4668 379.6 88.4668C377.56 88.4668 375.906 86.8002 375.906 84.7602C375.906 82.7202 377.56 81.0668 379.6 81.0668Z" fill="#4D1111"/>
<path d="M394.226 95.6934C396.266 95.6934 397.92 97.3467 397.92 99.3867C397.92 101.427 396.266 103.08 394.226 103.08C392.186 103.08 390.533 101.427 390.533 99.3867C390.533 97.3467 392.186 95.6934 394.226 95.6934Z" fill="#4D1111"/>
<path d="M394.226 81.0668C396.266 81.0668 397.92 82.7202 397.92 84.7602C397.92 86.8002 396.266 88.4668 394.226 88.4668C392.186 88.4668 390.533 86.8002 390.533 84.7602C390.533 82.7202 392.186 81.0668 394.226 81.0668Z" fill="#4D1111"/>
<path d="M35.161 273.44C34.7663 273.44 34.3717 273.28 34.0704 272.987L27.7277 266.64C27.1237 266.04 27.1237 265.054 27.7277 264.454C28.3303 263.854 29.3063 263.854 29.9103 264.454L36.253 270.8C36.8557 271.4 36.8557 272.374 36.253 272.987C35.9517 273.28 35.5557 273.44 35.161 273.44Z" fill="#4D1111"/>
<path d="M50.5837 288.854C50.1891 288.854 49.7944 288.707 49.4931 288.4L43.1504 282.067C42.5464 281.454 42.5464 280.48 43.1504 279.88C43.7531 279.28 44.7291 279.28 45.3331 279.88L51.6758 286.227C52.2784 286.827 52.2784 287.8 51.6758 288.4C51.3744 288.707 50.9784 288.854 50.5837 288.854Z" fill="#4D1111"/>
<path d="M44.241 273.44C43.8463 273.44 43.4517 273.28 43.1504 272.987C42.5464 272.374 42.5464 271.4 43.1504 270.8L49.4931 264.454C50.0958 263.854 51.0731 263.854 51.6758 264.454C52.2784 265.054 52.2784 266.04 51.6758 266.64L45.3331 272.987C45.0304 273.28 44.6357 273.44 44.241 273.44Z" fill="#4D1111"/>
<path d="M28.8183 288.854C28.4236 288.854 28.029 288.707 27.7277 288.4C27.1237 287.8 27.1237 286.827 27.7277 286.227L34.0704 279.88C34.673 279.28 35.6504 279.28 36.253 279.88C36.8557 280.48 36.8557 281.454 36.253 282.067L29.9103 288.4C29.6077 288.707 29.2129 288.854 28.8183 288.854Z" fill="#4D1111"/>
<path d="M150.226 277.214C150.093 277.214 149.946 277.187 149.813 277.147C148.986 276.921 148.506 276.067 148.746 275.241C149.426 272.827 149.92 270.414 150.186 268.067C150.72 263.547 150.293 260.801 150.293 260.774C150.16 259.934 150.72 259.147 151.56 259.001C152.4 258.867 153.2 259.427 153.333 260.267C153.36 260.401 153.853 263.427 153.253 268.427C152.96 270.934 152.44 273.507 151.72 276.081C151.52 276.761 150.906 277.214 150.226 277.214Z" fill="#4D1111"/>
<path d="M246.333 246.333C245.973 246.333 245.613 246.214 245.32 245.947C244.68 245.387 244.613 244.414 245.186 243.774C253.986 233.814 252.026 222.64 249.946 210.814C249.24 206.814 248.52 202.667 248.226 198.56C247.6 189.787 249.28 182.254 250.626 176.2C251.893 170.534 252.893 166.04 251.213 163.68C250.2 162.267 248.106 161.387 244.773 161C227.666 160.08 221.013 153.174 210.893 138.76C210 137.494 209.093 136.16 208.133 134.787C205.96 131.627 203.48 128.054 200.706 124.227C200.066 123.307 199.36 122.4 198.533 121.427C198.293 121.147 198.16 120.787 198.16 120.427C198.16 119.574 198.853 118.88 199.706 118.88C200.226 118.88 200.68 119.133 200.96 119.52C201.826 120.533 202.56 121.494 203.226 122.427C206 126.267 208.493 129.867 210.68 133.027C211.626 134.4 212.533 135.72 213.426 136.987C223.173 150.88 229.106 157.067 245.04 157.92C249.426 158.44 252.16 159.694 253.72 161.88C256.213 165.374 255.08 170.454 253.64 176.88C252.333 182.734 250.706 190.027 251.306 198.333C251.586 202.293 252.306 206.347 252.986 210.28C255.106 222.307 257.293 234.747 247.493 245.814C247.186 246.16 246.76 246.333 246.333 246.333Z" fill="#4D1111"/>
<path d="M152.466 262.08C152.226 262.08 151.986 262.08 151.746 262.067C137.698 261.733 126.621 250.453 124.21 234.013C122.965 225.573 126.12 216.933 132.44 211.48C138.6 206.16 146.973 204.573 155.413 207.12C157.64 207.787 159.893 208.747 162.106 209.947C162.866 210.36 163.133 211.293 162.733 212.053C162.32 212.8 161.386 213.067 160.64 212.667C158.6 211.56 156.546 210.68 154.52 210.067C147.013 207.8 139.88 209.133 134.457 213.813C128.928 218.587 126.172 226.16 127.265 233.573C129.082 245.96 137.39 258.627 151.853 258.987C152.08 259 152.266 258.987 152.466 259C154.986 259 157.44 258.627 159.773 257.907C160.586 257.64 161.453 258.107 161.706 258.92C161.96 259.733 161.506 260.6 160.693 260.853C158.053 261.667 155.293 262.08 152.466 262.08Z" fill="#4D1111"/>
<path d="M163.72 231.333H140.473C139.621 231.333 138.93 230.64 138.93 229.787C138.93 228.933 139.621 228.24 140.473 228.24H163.72C164.573 228.24 165.266 228.933 165.266 229.787C165.266 230.64 164.573 231.333 163.72 231.333Z" fill="#4D1111"/>
<path d="M144.72 242.174C144.64 242.174 144.56 242.174 144.466 242.16C143.626 242.027 143.066 241.227 143.2 240.387L144.986 229.547C145.12 228.694 145.92 228.134 146.76 228.267C147.6 228.4 148.16 229.2 148.026 230.04L146.24 240.881C146.12 241.641 145.466 242.174 144.72 242.174Z" fill="#4D1111"/>
<path d="M222.04 224.494C221.986 224.494 221.933 224.494 221.88 224.494C221.026 224.4 220.413 223.64 220.506 222.787C220.56 222.267 222.04 209.774 232.866 207.88C233.693 207.734 234.506 208.307 234.653 209.147C234.8 209.987 234.226 210.774 233.386 210.92C224.866 212.414 223.626 222.694 223.573 223.12C223.493 223.92 222.826 224.494 222.04 224.494Z" fill="#4D1111"/>
<path d="M191.906 168.24C191.053 168.24 190.36 167.56 190.36 166.707C190.28 147.254 201.88 144.04 202.373 143.92C203.2 143.707 204.04 144.2 204.253 145.027C204.466 145.854 203.973 146.694 203.16 146.907C202.733 147.014 193.373 149.787 193.453 166.694C193.453 167.547 192.76 168.24 191.906 168.24Z" fill="#4D1111"/>
<path d="M154.973 210.134C154.546 210.134 154.12 209.96 153.813 209.614C153.253 208.974 153.306 208 153.946 207.44C175.24 188.654 158.36 161.04 158.186 160.774C157.733 160.04 157.946 159.094 158.666 158.64C159.4 158.187 160.346 158.414 160.8 159.134C160.986 159.427 179.226 189.267 156 209.747C155.706 210.014 155.333 210.134 154.973 210.134Z" fill="#4D1111"/>
<path d="M177.066 134.267C176.426 134.267 175.826 133.867 175.613 133.227C175.333 132.427 175.746 131.547 176.56 131.267C183.013 129 190.506 124.92 198.826 119.147C201.893 117.027 205.133 114.614 208.466 112C209.133 111.467 210.106 111.587 210.626 112.254C211.16 112.934 211.04 113.894 210.373 114.427C207 117.08 203.706 119.52 200.586 121.68C192.04 127.627 184.293 131.827 177.573 134.174C177.413 134.24 177.24 134.267 177.066 134.267Z" fill="#4D1111"/>
<path d="M163.453 125.334C161.546 125.334 160.213 126.027 159.48 126.934C158.56 128.067 158.52 129.534 159.386 130.76C161.066 133.134 165.973 134.574 174.76 131.854C173.16 129.494 170.84 127.6 168.08 126.414C166.28 125.654 164.733 125.334 163.453 125.334ZM166.4 136.4C160.253 136.4 157.666 133.68 156.866 132.534C155.226 130.214 155.306 127.187 157.08 125C159 122.614 163.226 120.987 169.28 123.574C173.306 125.294 176.56 128.294 178.44 132.027C178.64 132.427 178.666 132.88 178.493 133.294C178.333 133.707 178 134.027 177.573 134.174C172.946 135.814 169.28 136.4 166.4 136.4Z" fill="#4D1111"/>
<path d="M152 164.054C151.306 164.054 150.68 163.587 150.506 162.88C150.293 162.054 150.8 161.214 151.626 161.014C151.653 161 154.826 160.214 158.893 158.52C165.44 155.814 176.493 149.8 177.093 140.067C177.226 137.8 176.746 135.507 175.693 133.427C175.306 132.654 175.613 131.734 176.373 131.347C177.133 130.96 178.053 131.267 178.44 132.027C179.746 134.6 180.346 137.454 180.173 140.254C179.506 151.094 168.88 157.72 160.08 161.374C155.786 163.16 152.506 163.974 152.373 164.014C152.24 164.04 152.12 164.054 152 164.054Z" fill="#4D1111"/>
<path d="M212.16 139.414C211.84 139.414 211.533 139.32 211.266 139.134C210.573 138.64 210.4 137.68 210.893 136.974C217.786 127.214 220.106 114.414 217.253 101.854C214.906 91.5069 209.2 82.9336 202.013 78.9202C183.786 68.7202 165.093 90.9869 164.906 91.2136C164.573 91.6136 164.066 91.8269 163.546 91.7735C163.026 91.7069 162.573 91.3869 162.333 90.9202C162.293 90.8402 158.24 82.9202 149.626 80.1069C143.573 78.1335 136.696 79.0936 129.17 82.9603C118.421 88.4669 114.024 98.8002 112.36 104.467C112.12 105.28 111.265 105.76 110.444 105.52C109.626 105.28 109.157 104.414 109.397 103.6C112.512 92.9869 119.033 84.6802 127.761 80.2136C136.064 75.9469 143.76 74.9336 150.626 77.1869C157.786 79.5336 162.093 84.8136 163.973 87.6536C168.986 82.4002 186.186 66.5203 203.52 76.2269C211.586 80.7336 217.693 89.8269 220.266 101.174C223.306 114.587 220.813 128.28 213.413 138.76C213.12 139.187 212.64 139.414 212.16 139.414Z" fill="#4D1111"/>
<path d="M111.982 105.84C109.393 115.827 110.817 124.96 113.768 127.907C114.656 128.787 115.59 129.053 116.709 128.72C119.945 127.773 120.73 123.427 120.388 119.693C119.85 113.84 116.554 107.293 111.982 105.84ZM115.829 131.947C114.276 131.947 112.81 131.307 111.586 130.093C107.19 125.693 106.249 114.307 109.398 103.6C109.608 102.88 110.3 102.427 111.038 102.493C117.909 103.213 122.75 111.653 123.461 119.413C124.042 125.733 121.789 130.44 117.582 131.68C116.99 131.853 116.404 131.947 115.829 131.947Z" fill="#4D1111"/>
<path d="M90.0409 161.414L88.497 161.387C88.2877 157.094 86.873 118.334 102.178 105.694C105.121 103.267 108.104 102.187 111.041 102.494C111.889 102.587 112.504 103.347 112.413 104.2C112.324 105.04 111.565 105.654 110.717 105.574C108.632 105.347 106.424 106.187 104.144 108.08C89.7543 119.96 91.501 159.627 91.5823 161.32L90.0409 161.414Z" fill="#4D1111"/>
<path d="M132.749 271.92C120.797 271.92 108.018 269.414 97.7224 262.587C87.8424 256.027 81.7624 246.494 79.6504 234.254C77.3691 220.987 80.9344 213.24 84.3277 209.067C84.8651 208.414 85.8384 208.307 86.4984 208.84C87.1598 209.387 87.2584 210.36 86.7211 211.014C82.4358 216.28 81.0424 224.134 82.6931 233.734C84.6544 245.094 90.285 253.934 99.429 260.014C114.884 270.267 136.396 270.214 151.373 266.747C152.2 266.547 153.026 267.067 153.226 267.894C153.413 268.72 152.906 269.56 152.066 269.747C146.346 271.08 139.682 271.92 132.749 271.92Z" fill="#4D1111"/>
<path d="M87.8478 209.747C94.5905 214 102.028 214.587 105.653 212.587C107.544 211.533 108.428 209.84 108.278 207.547C108.172 205.92 106.013 205.053 105.089 204.76C100.317 203.253 92.9198 204.547 87.8478 209.747ZM100.432 216.813C95.4345 216.813 89.5904 214.88 84.6211 211.293C84.2771 211.053 84.0504 210.667 83.9944 210.253C83.9384 209.827 84.057 209.4 84.3237 209.067C90.229 201.76 99.9117 199.88 106.024 201.827C109.252 202.84 111.197 204.867 111.36 207.347C111.585 210.84 110.09 213.653 107.149 215.28C105.277 216.32 102.962 216.813 100.432 216.813Z" fill="#4D1111"/>
<path d="M85.5224 211.587C85.2104 211.587 84.8944 211.494 84.6211 211.294C79.5397 207.627 71.2703 199.227 72.9796 184.094C74.5916 169.867 82.7864 163.134 89.377 160C94.917 157.374 99.6984 157.067 99.8997 157.054C100.738 157 101.481 157.654 101.533 158.494C101.584 159.347 100.936 160.08 100.086 160.134C99.9958 160.134 95.6437 160.454 90.701 162.787C84.8197 165.587 77.4996 171.614 76.0463 184.44C74.5143 198.014 81.8917 205.52 86.4264 208.787C87.1184 209.294 87.2744 210.254 86.7757 210.947C86.4744 211.36 86.0024 211.587 85.5224 211.587Z" fill="#4D1111"/>
<path d="M119.624 370.654C110.608 370.654 99.2837 356.361 92.781 336.081C90.8303 330.027 89.5037 324 88.837 318.187C87.1863 303.64 90.1996 293.32 96.6996 291.227C97.5103 290.96 98.3796 291.414 98.6409 292.227C98.9022 293.027 98.4569 293.907 97.6449 294.16C92.7823 295.734 90.4743 305.241 91.9037 317.84C92.5477 323.454 93.8317 329.267 95.7197 335.147C102.738 357.027 114.528 369.454 121.13 367.347C121.944 367.081 122.812 367.534 123.072 368.334C123.332 369.147 122.884 370.027 122.072 370.281C121.28 370.534 120.461 370.654 119.624 370.654Z" fill="#4D1111"/>
<path d="M178.8 351.654C173.96 351.654 168.333 347.547 163 340C158.613 333.774 154.8 325.84 151.986 317.067C148.666 306.72 147.146 296.467 147.706 288.16C148.306 279.387 151.213 273.721 155.906 272.214C156.72 271.961 157.586 272.401 157.84 273.214C158.106 274.027 157.653 274.894 156.84 275.16C153.493 276.227 151.293 281.04 150.786 288.374C150.253 296.294 151.72 306.147 154.933 316.12C157.613 324.48 161.373 332.334 165.52 338.227C170.866 345.774 176.386 349.561 180.293 348.347C181.106 348.094 181.973 348.547 182.226 349.36C182.48 350.174 182.026 351.04 181.213 351.294C180.426 351.534 179.626 351.654 178.8 351.654Z" fill="#4D1111"/>
<path d="M399.546 197.227C399.533 197.227 399.533 197.227 399.533 197.227C393.013 199.48 390.72 216.467 397.693 238.173C400.413 246.667 404.08 254.307 408.293 260.267C413.573 267.747 419.053 271.533 422.96 270.413C423.026 270.4 423.093 270.373 423.16 270.373C424.36 269.973 428.226 267.36 440.133 254.28C442.24 251.987 444.413 249.547 446.613 247.053C450.653 242.48 455.213 237.187 460.16 231.307C466.813 223.413 472.453 216.52 475.026 213.36C472.266 212.6 467.186 211.227 460.946 209.6C453.693 207.707 442.826 204.933 432.306 202.48C407.466 196.747 401.173 196.707 399.626 197.2C399.6 197.213 399.573 197.213 399.546 197.227ZM421.573 273.693C416.72 273.693 411.093 269.587 405.773 262.04C401.386 255.84 397.573 247.907 394.76 239.12C387.693 217.147 389.346 197.467 398.52 194.307C398.56 194.293 398.6 194.28 398.64 194.28C398.653 194.267 398.68 194.267 398.693 194.253C400.813 193.587 406.68 193.387 433 199.48C443.56 201.933 454.453 204.707 461.733 206.613C471.24 209.093 478.053 210.987 478.12 211C478.626 211.147 479.026 211.52 479.186 212.013C479.346 212.52 479.24 213.053 478.92 213.467C478.84 213.547 471.613 222.507 462.52 233.293C457.56 239.187 452.973 244.507 448.92 249.093C446.72 251.6 444.533 254.053 442.413 256.36C429.653 270.373 425.826 272.747 424.053 273.32C423.92 273.36 423.826 273.387 423.733 273.4C423.04 273.6 422.306 273.693 421.573 273.693Z" fill="#4D1111"/>
<path d="M447.773 249.614C447.28 249.614 446.813 249.387 446.506 248.96C442.12 242.734 438.32 234.814 435.506 226.04C432.68 217.28 431.16 208.614 431.106 201C431.106 200.147 431.786 199.454 432.64 199.44C433.466 199.4 434.186 200.12 434.2 200.974C434.253 208.28 435.72 216.627 438.44 225.094C441.16 233.574 444.826 241.2 449.026 247.174C449.52 247.867 449.36 248.84 448.653 249.334C448.386 249.52 448.08 249.614 447.773 249.614Z" fill="#4D1111"/>
<path d="M121.611 370.347C120.959 370.347 120.353 369.934 120.143 369.267C119.881 368.467 120.328 367.587 121.14 367.334L305.32 308.187C306.12 307.934 307.013 308.347 307.293 309.134C307.573 309.934 307.2 310.787 306.427 311.08L306.346 311.107L122.084 370.267C121.926 370.32 121.768 370.347 121.611 370.347Z" fill="#4D1111"/>
<path d="M385.84 285.507C385.186 285.507 384.586 285.08 384.373 284.427C384.106 283.613 384.56 282.747 385.373 282.493L423.146 270.36C423.96 270.107 424.826 270.573 425.066 271.387C425.306 272.213 424.853 273.067 424.026 273.32L423.826 273.374L386.32 285.427C386.16 285.48 386 285.507 385.84 285.507Z" fill="#4D1111"/>
<path d="M97.1823 294.24C96.5303 294.24 95.9236 293.827 95.7129 293.16C95.4529 292.36 95.8997 291.48 96.7103 291.227L136.688 278.387C136.72 278.374 136.794 278.347 136.826 278.347L301.666 225.414C302.466 225.147 303.346 225.6 303.6 226.4C303.866 227.214 303.413 228.094 302.6 228.347L137.673 281.307C137.64 281.32 137.566 281.347 137.534 281.347L97.6557 294.16C97.4983 294.214 97.3397 294.24 97.1823 294.24Z" fill="#4D1111"/>
<path d="M302.133 228.427C301.48 228.427 300.866 228 300.666 227.347C300.4 226.533 300.853 225.667 301.666 225.413L323.866 218.28C324.68 218.013 325.546 218.467 325.813 219.28C326.08 220.093 325.626 220.96 324.813 221.213L302.6 228.347C302.453 228.4 302.293 228.427 302.133 228.427Z" fill="#4D1111"/>
<path d="M347.533 213.854C346.88 213.854 346.267 213.427 346.053 212.774C345.8 211.96 346.24 211.094 347.053 210.84L398.706 194.254C399.52 194 400.386 194.467 400.64 195.28C400.88 196.094 400.426 196.96 399.613 197.2L399.48 197.24L348 213.774C347.84 213.827 347.68 213.854 347.533 213.854Z" fill="#4D1111"/>
<path d="M265.68 398.534C265.266 398.534 264.853 398.374 264.56 398.054C263.973 397.44 264 396.467 264.613 395.88C268.413 392.267 271.706 388.84 274.4 385.68C277.64 381.84 279.853 378.52 280.987 375.827C292 349.32 287.666 315.56 287.613 315.214C287.506 314.374 288.093 313.6 288.946 313.48C289.786 313.374 290.56 313.96 290.68 314.814C290.866 316.227 295.173 349.72 283.827 377.014C282.587 380 280.2 383.587 276.76 387.68C273.987 390.934 270.613 394.44 266.733 398.12C266.44 398.4 266.053 398.534 265.68 398.534Z" fill="#4D1111"/>
<path d="M304.24 318.693C304.173 318.693 304.093 318.693 304.027 318.68C303.187 318.573 302.586 317.8 302.706 316.96C302.72 316.84 303.08 314.12 304.293 309.28C305.267 305.413 307.08 299.147 310.133 291.32C312.24 285.907 314.693 280.44 317.4 275.067C322.626 264.68 328.226 258.867 334.04 257.787C337.24 257.187 340.413 258.133 342.987 260.467C345.947 263.147 347.373 267.24 346.773 271.427C346.506 273.32 346.066 275.36 345.44 277.653C345.213 278.48 344.36 278.96 343.546 278.733C342.72 278.507 342.24 277.667 342.466 276.84C343.053 274.68 343.467 272.76 343.72 270.987C344.173 267.827 343.12 264.747 340.906 262.747C339.613 261.573 337.466 260.293 334.613 260.813C331.293 261.44 326.107 264.653 320.16 276.453C317.493 281.747 315.08 287.12 313 292.44C310.013 300.12 308.24 306.253 307.293 310.04C306.12 314.68 305.76 317.333 305.76 317.36C305.667 318.133 305 318.693 304.24 318.693Z" fill="#4D1111"/>
<path d="M328.946 313.454C328.786 313.454 328.626 313.427 328.466 313.374C327.653 313.107 327.213 312.227 327.48 311.427C330.506 302.254 335.546 288.814 342.413 276.854L342.573 276.547C342.586 276.52 342.6 276.494 342.613 276.467C348.346 266.614 354.2 261.24 360 260.507C363.226 260.094 366.32 261.227 368.746 263.667C371.093 266.054 372.346 269.427 372.173 272.92C372.133 273.627 372.066 274.24 371.946 274.827C371.6 276.52 371.133 278.307 370.533 280.16C370.266 280.96 369.386 281.414 368.586 281.147C367.773 280.88 367.333 280.014 367.586 279.2C368.16 277.467 368.6 275.787 368.92 274.214C369 273.774 369.066 273.294 369.093 272.76C369.226 270.134 368.293 267.614 366.546 265.84C365.333 264.6 363.266 263.2 360.4 263.574C357.093 263.987 351.8 266.827 345.306 277.987C345.306 278 345.306 278 345.293 278.014L345.106 278.36C338.36 290.134 333.386 303.36 330.413 312.387C330.2 313.04 329.6 313.454 328.946 313.454Z" fill="#4D1111"/>
<path d="M344.453 328.014C344.293 328.014 344.133 327.987 343.973 327.934C343.16 327.667 342.72 326.787 342.986 325.987C347.44 312.534 352.48 300.88 357.973 291.334C361.293 285.52 364.706 281.2 368.093 278.48C373.84 273.84 379.906 273.707 384.306 278.134C385.773 279.614 386.813 281.494 387.346 283.587C387.813 285.4 387.866 287.374 387.493 289.28C386.6 293.814 384.84 298.347 383.24 302.174C382.92 302.96 382.013 303.334 381.226 303.014C380.44 302.68 380.066 301.774 380.4 300.987C381.933 297.294 383.626 292.947 384.466 288.68C384.746 287.227 384.706 285.734 384.346 284.347C383.96 282.787 383.186 281.387 382.12 280.307C378.853 277.027 374.56 277.227 370.026 280.88C366.933 283.36 363.786 287.387 360.64 292.867C355.266 302.24 350.306 313.707 345.92 326.947C345.706 327.6 345.106 328.014 344.453 328.014Z" fill="#4D1111"/>
<path d="M390.64 334.907C390.426 334.907 390.213 334.867 390.013 334.773C389.24 334.427 388.88 333.52 389.226 332.733C390.893 328.96 392.84 325.147 395.013 321.387C401.6 309.933 399.946 302.907 396.186 300.133C392.533 297.44 386.866 298.533 383 302.693C382.466 303.24 382 303.827 381.573 304.44C374.6 314.893 369.413 323.627 365.733 331.093C365.36 331.853 364.426 332.173 363.666 331.787C362.906 331.413 362.586 330.493 362.96 329.72C366.706 322.133 371.96 313.293 379.026 302.707C379.546 301.947 380.12 301.24 380.746 300.573C385.68 295.28 393.106 294.013 398.026 297.653C402.84 301.213 405.293 309.72 397.693 322.92C395.573 326.6 393.68 330.32 392.053 333.987C391.8 334.56 391.226 334.907 390.64 334.907Z" fill="#4D1111"/>
<path d="M350.64 461.747C350.386 461.747 350.146 461.694 349.906 461.574C349.16 461.16 348.88 460.227 349.28 459.48C366.373 427.667 377.933 393.907 381.826 364.4C382.026 362.867 382.106 361.32 382.186 359.707C382.266 357.787 382.373 355.814 382.693 353.854C383.413 349.507 384.573 345.014 386.146 340.507C387.013 338.014 388.053 335.387 389.213 332.734C389.56 331.96 390.466 331.6 391.253 331.947C392.026 332.294 392.386 333.2 392.04 333.987C390.906 336.56 389.906 339.094 389.066 341.52C387.546 345.867 386.426 350.187 385.746 354.36C385.44 356.147 385.36 357.947 385.266 359.854C385.186 361.467 385.106 363.134 384.88 364.8C380.946 394.667 369.266 428.814 352 460.934C351.72 461.454 351.186 461.747 350.64 461.747Z" fill="#4D1111"/>
<path d="M335.613 487.12C335.333 487.12 335.04 487.04 334.773 486.867C334.066 486.4 333.853 485.44 334.32 484.733C337.413 479.987 340.387 475.173 343.16 470.427C345.28 466.787 347.346 463.107 349.28 459.493C349.68 458.733 350.613 458.453 351.373 458.853C352.12 459.253 352.4 460.2 352 460.947C350.04 464.6 347.96 468.32 345.813 471.987C343.026 476.773 340.026 481.627 336.906 486.413C336.613 486.867 336.12 487.12 335.613 487.12Z" fill="#4D1111"/>
<path d="M164.586 606.053C155.48 606.053 146.613 604.774 138.033 602.227C120.716 597.093 104.496 586.787 89.8264 571.587C89.233 570.973 89.2518 570 89.8638 569.413C90.4784 568.813 91.4543 568.84 92.0463 569.453C122.75 601.253 158.786 610.533 199.16 597.013C237.226 584.267 274.44 559.413 312.92 521C323.373 510.56 333.786 499.28 344.76 486.52C345.32 485.88 346.293 485.8 346.933 486.36C347.586 486.92 347.653 487.893 347.093 488.533C336.066 501.36 325.6 512.693 315.093 523.187C276.28 561.933 238.666 587.04 200.146 599.947C187.986 604.013 176.093 606.053 164.586 606.053Z" fill="#4D1111"/>
<path d="M90.9371 572.054C90.5331 572.054 90.1292 571.894 89.8251 571.587C68.1892 549.16 49.9384 515.72 38.4397 477.427C28.6464 444.827 24.8492 411.974 28.5305 391.707C34.0358 361.44 50.2825 342.627 62.9425 332.187C76.6665 320.867 88.9317 316.76 89.4464 316.587C90.2584 316.334 91.1278 316.774 91.3931 317.574C91.6598 318.387 91.2198 319.254 90.4104 319.52C89.9251 319.68 41.7691 336.16 31.5677 392.267C24.5984 430.627 45.1665 520.854 92.0478 569.44C92.6398 570.054 92.621 571.027 92.0077 571.614C91.709 571.907 91.3225 572.054 90.9371 572.054Z" fill="#4D1111"/>
<path d="M184.64 459.693C184.08 459.693 183.546 459.387 183.266 458.867C168.453 430.493 153.64 387.507 153.493 387.067C153.213 386.267 153.64 385.387 154.453 385.107C155.253 384.84 156.133 385.267 156.413 386.067C156.56 386.493 171.306 429.267 186.013 457.44C186.4 458.187 186.106 459.12 185.36 459.52C185.12 459.64 184.88 459.693 184.64 459.693Z" fill="#4D1111"/>
<path d="M337.373 620.613C336.52 620.613 335.84 619.92 335.84 619.067C335.84 618.214 336.52 617.52 337.373 617.52C342.506 617.52 346.693 615.667 350.173 611.827C360.52 600.44 363.826 571.68 359.72 528.667C356.346 493.147 349.2 460.867 349.133 460.56C349.106 460.454 349.093 460.334 349.093 460.214C349.093 459.36 349.786 458.667 350.64 458.667C351.413 458.667 352.04 459.227 352.16 459.96C352.573 461.814 359.493 493.547 362.8 528.374C367.04 572.907 363.56 601.68 352.453 613.907C348.413 618.36 343.333 620.613 337.373 620.613Z" fill="#4D1111"/>
<path d="M121.1 630.427C121.041 630.427 120.982 630.427 120.924 630.414C111.045 629.293 103.257 625.027 97.7744 617.734C84.725 600.387 89.2185 571.467 89.4091 570.294C89.5171 569.547 90.1598 568.974 90.9371 568.974C91.7891 568.974 92.4797 569.654 92.4797 570.507V570.52C92.4797 570.6 92.4718 570.694 92.4585 570.774C92.4092 571.067 87.7771 599.307 100.242 615.88C105.194 622.467 112.27 626.334 121.27 627.347C122.118 627.453 122.727 628.214 122.631 629.053C122.541 629.853 121.873 630.427 121.1 630.427Z" fill="#4D1111"/>
<path d="M120.296 644.6C120.266 644.6 120.237 644.6 120.208 644.6C119.356 644.546 118.705 643.813 118.753 642.974L120.07 619.8C120.096 619.36 120.31 618.946 120.657 618.68C121.005 618.4 121.453 618.293 121.889 618.374C122.082 618.414 141.6 621.907 173.64 622.733C174.493 622.76 175.16 623.467 175.146 624.32C175.12 625.16 174.44 625.827 173.56 625.813C146.68 625.133 128.516 622.56 123.054 621.693L121.836 643.147C121.789 643.96 121.109 644.6 120.296 644.6Z" fill="#4D1111"/>
<path d="M337.373 630.427C336.52 630.427 335.84 629.734 335.84 628.88V606.534C331.013 607.813 326.08 609.053 321.16 610.214C309.826 612.893 298.293 615.267 286.893 617.253C285.96 617.414 285.066 616.68 285.066 615.734C285.066 614.934 285.666 614.28 286.44 614.2C297.76 612.227 309.2 609.88 320.453 607.2C326 605.893 331.56 604.493 336.973 603.04C337.44 602.92 337.933 603.013 338.32 603.307C338.693 603.6 338.92 604.053 338.92 604.534V628.88C338.92 629.734 338.226 630.427 337.373 630.427Z" fill="#4D1111"/>
<path d="M391.906 685.88H90.9371C90.0837 685.88 89.3931 685.187 89.3931 684.333C89.3931 683.48 90.0837 682.8 90.9371 682.8H391.906C392.76 682.8 393.453 683.48 393.453 684.333C393.453 685.187 392.76 685.88 391.906 685.88Z" fill="#4D1111"/>
<path d="M361.266 530.054C360.64 530.054 360.04 529.667 359.813 529.04C359.533 528.24 359.946 527.347 360.746 527.067C390.48 516.32 424.986 422.12 438.453 358.254C441.893 341.987 443.853 328.214 444.12 318.414C444.146 317.56 444.84 316.894 445.706 316.907C446.56 316.934 447.226 317.64 447.2 318.494C446.933 328.48 444.946 342.454 441.48 358.894C434.24 393.214 421.893 432.454 408.48 463.854C397.12 490.427 379.8 523.467 361.8 529.96C361.626 530.027 361.44 530.054 361.266 530.054Z" fill="#4D1111"/>
<path d="M428.813 329.867C428.72 329.867 428.64 329.867 428.546 329.854C427.706 329.707 427.146 328.907 427.28 328.067C428.48 321.014 429.613 314.361 430.573 309.427C430.773 308.414 430.96 307.481 431.133 306.614C432.173 301.574 433.2 296.894 434.2 292.347C437.626 276.641 440.346 264.227 439.746 255.441C439.693 254.587 440.333 253.854 441.186 253.787C442.026 253.734 442.773 254.374 442.826 255.227C443.466 264.454 440.706 277.054 437.213 293.014C436.213 297.534 435.186 302.227 434.16 307.227C433.986 308.081 433.8 309.014 433.6 310.014C432.653 314.907 431.52 321.561 430.32 328.587C430.2 329.347 429.546 329.867 428.813 329.867Z" fill="#4D1111"/>
<path d="M343.386 489.84C341.12 489.84 338.266 488.867 334.853 486.92C323.973 480.68 308.026 465.067 293.253 446.16C278.973 427.894 268.12 409.694 264.2 397.48C264.2 397.44 264.186 397.414 264.173 397.387C262.24 391.32 262.16 387.214 263.933 384.814C264.146 384.48 264.466 384.134 264.84 383.854C265.506 383.334 266.48 383.44 267 384.12C267.533 384.787 267.413 385.76 266.733 386.28C266.626 386.374 266.533 386.48 266.453 386.6C265.906 387.334 264.946 389.694 267.146 396.52C267.16 396.56 267.16 396.587 267.173 396.614C270.946 408.334 281.866 426.574 295.68 444.267C310.226 462.867 325.826 478.187 336.386 484.24C340.52 486.587 343.653 487.347 344.973 486.307C346.44 485.174 346.706 480.747 343.053 471.787C342.733 471 343.12 470.094 343.906 469.774C344.693 469.454 345.6 469.84 345.92 470.627C349.786 480.12 350.106 486.227 346.88 488.747C345.946 489.48 344.773 489.84 343.386 489.84Z" fill="#4D1111"/>
<path d="M275.573 388.227C275.32 388.227 275.066 388.16 274.826 388.04C270.986 385.92 268.04 385.267 266.76 386.254C266.093 386.787 265.12 386.654 264.6 385.987C264.08 385.307 264.2 384.334 264.88 383.814C267.28 381.96 271.12 382.467 276.32 385.334C277.066 385.747 277.333 386.68 276.92 387.427C276.64 387.934 276.12 388.227 275.573 388.227Z" fill="#4D1111"/>
<path d="M390.706 334.907L390.626 333.36L390.64 331.813C405.106 331.16 418.546 329.387 428.413 326.84C431.826 325.96 434.8 325 437.24 323.973C441.6 322.133 444.106 320.12 444.12 318.44C444.106 317.52 443.173 314.4 431.68 311.2C430.866 310.973 430.386 310.12 430.613 309.293C430.84 308.48 431.693 308 432.506 308.227C442.213 310.933 447.16 314.347 447.2 318.373C447.173 321.56 444.226 324.373 438.44 326.813C435.853 327.907 432.746 328.92 429.186 329.827C419.12 332.427 405.453 334.227 390.706 334.907Z" fill="#4D1111"/>
<path d="M266.12 385.36L266.2 385.427L265.813 385.04L266.12 385.36ZM175.346 466.654C174.866 466.654 174.4 466.427 174.106 466.014C173.6 465.334 173.746 464.36 174.44 463.854C177.56 461.587 180.68 459.254 183.693 456.92C198.413 445.64 214.173 432.294 230.56 417.24C247.893 401.267 260.586 388.267 264.053 384.654L264.306 384.4C264.466 384.227 264.573 384.107 264.626 384.054C264.64 384.027 264.666 384 264.693 383.974L266.946 386.08C266.893 386.147 266.76 386.294 266.546 386.52L266.293 386.787C262.786 390.427 250.053 403.48 232.653 419.52C216.2 434.627 200.36 448.04 185.573 459.374C182.533 461.72 179.4 464.067 176.253 466.347C175.986 466.56 175.666 466.654 175.346 466.654Z" fill="#4D1111"/>
<path d="M535.066 133.853L551.506 166.053L574.733 130.267L566.493 121.573L553.506 141.573C553.48 141.613 553.466 141.64 553.44 141.68L551.84 144.133C551.546 144.6 551.013 144.854 550.466 144.827C549.92 144.8 549.426 144.48 549.173 143.987L542.24 130.4L535.066 133.853ZM551.346 170.68C551.32 170.68 551.28 170.68 551.266 170.68C550.706 170.654 550.213 170.334 549.96 169.84L531.6 133.84C531.413 133.48 531.373 133.04 531.506 132.653C531.64 132.253 531.933 131.934 532.306 131.76L542.253 126.973C543.013 126.6 543.92 126.907 544.293 127.653L550.706 140.214L550.786 140.107C550.8 140.067 550.826 140.027 550.853 139.987L564.96 118.253C565.226 117.853 565.653 117.6 566.12 117.547C566.586 117.507 567.053 117.68 567.386 118.027L577.813 129.027C578.306 129.547 578.373 130.333 577.986 130.933L552.64 169.987C552.346 170.413 551.866 170.68 551.346 170.68Z" fill="#4D1111"/>
<path d="M601.6 231.374L618.04 263.574L641.28 227.787L633.013 219.094L618.373 241.654C618.08 242.12 617.56 242.374 617 242.347C616.453 242.32 615.96 242 615.706 241.507L608.773 227.92L601.6 231.374ZM617.88 268.2C617.853 268.2 617.826 268.2 617.8 268.2C617.24 268.174 616.746 267.854 616.506 267.36L598.133 231.374C597.946 231 597.92 230.574 598.04 230.187C598.173 229.787 598.466 229.467 598.84 229.28L608.786 224.494C609.546 224.12 610.453 224.427 610.84 225.174L617.24 237.734L631.493 215.774C631.746 215.374 632.173 215.12 632.64 215.067C633.12 215.027 633.586 215.2 633.906 215.547L644.346 226.547C644.84 227.067 644.92 227.854 644.533 228.454L625.773 257.334L619.173 267.507C618.88 267.947 618.4 268.2 617.88 268.2Z" fill="#4D1111"/>
<path d="M470.786 342.867L487.213 375.067L492.426 367.04C492.453 367 492.48 366.947 492.52 366.907L510.44 339.28L502.2 330.573L487.546 353.133C487.253 353.6 486.72 353.867 486.173 353.84C485.626 353.813 485.133 353.493 484.88 353L477.946 339.413L470.786 342.867ZM487.053 379.693C487.026 379.693 487 379.693 486.973 379.693C486.426 379.667 485.933 379.347 485.68 378.853L467.32 342.867C467.12 342.493 467.093 342.053 467.226 341.667C467.36 341.267 467.64 340.947 468.013 340.773L477.973 335.973C478.733 335.613 479.64 335.92 480.013 336.667L486.413 349.213L500.68 327.253C500.933 326.853 501.36 326.6 501.826 326.56C502.293 326.507 502.76 326.693 503.093 327.027L513.52 338.04C514.013 338.56 514.08 339.347 513.693 339.947L495.026 368.72C494.986 368.773 494.96 368.813 494.92 368.853L488.346 379C488.066 379.44 487.573 379.693 487.053 379.693Z" fill="#4D1111"/>
<path d="M677.946 323.08C677.093 323.08 676.4 322.387 676.4 321.533V117.32L462.88 43.3334V208.107C462.88 208.96 462.2 209.653 461.346 209.653C460.493 209.653 459.8 208.973 459.8 208.12V41.1601C459.8 40.6668 460.04 40.1867 460.453 39.9067C460.853 39.6134 461.373 39.5334 461.853 39.7067L678.44 114.773C679.066 114.987 679.48 115.573 679.48 116.227V321.533C679.48 322.387 678.8 323.08 677.946 323.08Z" fill="#4D1111"/>
<path d="M677.946 377.747C677.093 377.747 676.4 377.054 676.4 376.2V354.134C676.4 353.28 677.093 352.587 677.946 352.587C678.8 352.587 679.48 353.28 679.48 354.134V376.2C679.48 377.054 678.8 377.747 677.946 377.747Z" fill="#4D1111"/>
<path d="M677.946 484.32C677.773 484.32 677.6 484.294 677.44 484.227L460.84 409.16C460.213 408.947 459.8 408.36 459.8 407.707V232.307C459.8 231.454 460.493 230.76 461.346 230.76C462.2 230.76 462.88 231.454 462.88 232.307V406.614L676.4 480.6V400.414C676.4 399.56 677.093 398.867 677.946 398.867C678.8 398.867 679.48 399.56 679.48 400.414V482.774C679.48 483.28 679.24 483.747 678.84 484.027C678.573 484.227 678.253 484.32 677.946 484.32Z" fill="#4D1111"/>
<path d="M108.902 685.88C108.058 685.88 107.369 685.2 107.36 684.36C107.017 655.773 118.654 642.574 119.149 642.013C119.722 641.387 120.697 641.333 121.329 641.907C121.961 642.48 122.01 643.453 121.442 644.093C121.329 644.213 110.118 657.04 110.446 684.32C110.457 685.174 109.774 685.867 108.921 685.88C108.916 685.88 108.909 685.88 108.902 685.88Z" fill="#4D1111"/>
<path d="M343.706 685.88C342.933 685.88 342.266 685.307 342.173 684.52L335.84 629.067C335.84 629.013 335.84 628.96 335.84 628.893C335.84 628.04 336.52 627.347 337.373 627.347C338.186 627.347 338.853 627.974 338.92 628.774L345.24 684.16C345.333 685.013 344.733 685.773 343.88 685.867C343.826 685.88 343.76 685.88 343.706 685.88Z" fill="#4D1111"/>
<path d="M228.613 634.987C207.413 634.987 187.16 630.147 173.133 625.734C161.733 622.16 154.613 618.947 154.306 618.8C153.533 618.453 153.2 617.534 153.546 616.76C153.893 615.987 154.813 615.641 155.586 616C155.666 616.027 162.853 619.28 174.066 622.787C200.96 631.241 251.213 641.387 285.68 614.52C290.266 610.934 294.48 606.76 298.2 602.107C298.733 601.453 299.706 601.334 300.373 601.867C301.04 602.4 301.146 603.374 300.613 604.041C296.733 608.881 292.36 613.214 287.573 616.947C270.16 630.534 248.96 634.987 228.613 634.987Z" fill="#4D1111"/>
</svg>
