<svg width="2096" height="1759" viewBox="0 0 2096 1759" fill="none" xmlns="http://www.w3.org/2000/svg">
<path d="M1128.5 1652.8C1584.91 1652.8 1954.9 1282.81 1954.9 826.4C1954.9 369.992 1584.91 0 1128.5 0C672.092 0 302.1 369.992 302.1 826.4C302.1 1282.81 672.092 1652.8 1128.5 1652.8Z" fill="#F9F3FF"/>
<path d="M2001.8 1723.6H1377.7C1377.7 1723.6 1327.9 1037.8 1610.7 1048.9C1610.7 1048.9 1875.4 1004.1 1995.9 1053.4C2024 1064.9 2044.2 1081.5 2051.5 1105C2089.9 1229.3 2001.8 1723.6 2001.8 1723.6Z" fill="#EBE4F4"/>
<path d="M1988.8 1466C1956.5 1518.6 1920.9 1540 1893.3 1548.2C1880.87 1551.99 1870.29 1560.28 1863.64 1571.45C1856.98 1582.61 1854.72 1595.86 1857.3 1608.6L1880.4 1723.6H1377.7C1377.7 1723.6 1327.9 1037.8 1610.7 1048.9C1610.7 1048.9 1875.4 1004.1 1995.9 1053.4L1965.3 1114C1962.02 1120.55 1960.15 1127.72 1959.8 1135.04C1959.46 1142.36 1960.65 1149.67 1963.3 1156.5C1985.9 1215 2041.8 1380.1 1988.8 1466Z" fill="#DCD3ED"/>
<path d="M1865.5 896.5C1865.5 896.5 1935.2 897.3 1964.9 883.1C1994.6 868.9 2003.1 860.7 2003.1 860.7L1976.4 839.6L2020.3 848.7C2020.3 848.7 2041.5 837.3 2058.8 809.6L2076.1 782L2052.5 770.5L2081.9 767.5C2081.9 767.5 2091.5 742.7 2094.9 721.3C2098.3 699.9 2091.4 673.1 2091.4 673.1C2091.4 673.1 2044.4 685.7 2027.9 694C2011.4 702.3 2007.5 705.3 2007.5 705.3L2019.6 748L1988.3 716.1C1988.3 716.1 1956.2 742 1944.7 754.6L1933.1 767.2L1949.8 809.4L1927.7 783C1927.7 783 1872.5 805.9 1865.5 896.5Z" fill="#8D9B2A"/>
<path d="M1845.8 910C1845.53 910.007 1845.26 909.935 1845.03 909.793C1844.8 909.651 1844.62 909.445 1844.5 909.2C1844.31 908.866 1844.26 908.473 1844.35 908.101C1844.44 907.729 1844.68 907.407 1845 907.2C1845.4 907 1878.4 888.5 1919.2 857.1C1956.8 828.1 2008.8 781.9 2043.4 726.5C2043.62 726.17 2043.96 725.935 2044.35 725.843C2044.74 725.75 2045.15 725.807 2045.5 726C2045.67 726.111 2045.81 726.253 2045.92 726.419C2046.03 726.585 2046.1 726.771 2046.14 726.967C2046.18 727.162 2046.17 727.363 2046.13 727.558C2046.09 727.752 2046.01 727.937 2045.9 728.1C2011.1 783.9 1958.8 830.4 1921 859.5C1880 891 1846.8 909.6 1846.5 909.8C1846.3 909.953 1846.05 910.024 1845.8 910Z" fill="#506D26"/>
<path d="M1972.6 814.9C1972.42 814.9 1972.23 814.864 1972.06 814.794C1971.89 814.723 1971.74 814.62 1971.61 814.49C1971.48 814.36 1971.38 814.206 1971.31 814.036C1971.24 813.866 1971.2 813.684 1971.2 813.5C1971.17 813.118 1971.29 812.739 1971.53 812.442C1971.77 812.144 1972.12 811.95 1972.5 811.9L2032.4 807.7C2032.6 807.687 2032.79 807.712 2032.98 807.775C2033.17 807.838 2033.34 807.938 2033.49 808.068C2033.64 808.198 2033.76 808.356 2033.85 808.533C2033.94 808.711 2033.99 808.903 2034 809.1C2034 809.492 2033.86 809.872 2033.6 810.167C2033.35 810.461 2032.99 810.651 2032.6 810.7L1972.8 814.9H1972.6Z" fill="#506D26"/>
<path d="M2000.1 787C1999.7 787 1999.32 786.842 1999.04 786.561C1998.76 786.279 1998.6 785.898 1998.6 785.5L1997.8 737.1C1997.8 736.719 1997.94 736.352 1998.2 736.073C1998.46 735.795 1998.82 735.626 1999.2 735.6C1999.61 735.599 2000 735.754 2000.3 736.033C2000.59 736.312 2000.77 736.693 2000.8 737.1L2001.6 785.4C2001.6 785.808 2001.45 786.2 2001.17 786.498C2000.89 786.795 2000.51 786.975 2000.1 787Z" fill="#506D26"/>
<path d="M1909.8 867.5H1909.4C1909.04 867.347 1908.74 867.074 1908.56 866.728C1908.38 866.382 1908.32 865.984 1908.4 865.6L1923 812.3C1923.12 811.909 1923.38 811.578 1923.73 811.373C1924.08 811.169 1924.5 811.107 1924.9 811.2C1925.27 811.316 1925.57 811.567 1925.76 811.902C1925.94 812.236 1925.99 812.629 1925.9 813L1911.3 866.4C1911.21 866.726 1911.01 867.011 1910.74 867.211C1910.47 867.411 1910.14 867.513 1909.8 867.5Z" fill="#506D26"/>
<path d="M1843.9 905C1843.9 905 1801.7 807.6 1804.1 757.5C1806.5 707.4 1812.9 690.6 1812.9 690.6L1858.4 715.7L1819.7 659.3C1819.7 659.3 1823.2 622.8 1851.7 582.1L1880.3 541.5L1910.5 567.8L1897.2 524.8C1897.2 524.8 1926.5 496.6 1954.5 479.2C1982.5 461.8 2024.2 455.6 2024.2 455.6C2024.2 455.6 2034.4 529 2032.5 557.2C2030.6 585.4 2028.6 592.6 2028.6 592.6L1961.5 600.8L2024.8 625.8C2024.8 625.8 2007.5 686.3 1996.6 709.9L1985.7 733.6L1916.6 735.1L1966.7 750.6C1966.7 750.6 1967.1 841.7 1843.9 905Z" fill="#CCC729"/>
<path d="M1838.8 941.8H1838.5C1838.24 941.776 1837.99 941.699 1837.76 941.573C1837.53 941.448 1837.33 941.276 1837.17 941.07C1837.01 940.864 1836.9 940.627 1836.83 940.374C1836.77 940.121 1836.76 939.857 1836.8 939.6C1836.8 939.1 1843.4 881.5 1863.5 805.3C1882 735 1916.3 634 1974.1 552.2C1974.25 551.982 1974.44 551.796 1974.66 551.653C1974.89 551.51 1975.14 551.412 1975.4 551.366C1975.66 551.319 1975.92 551.325 1976.18 551.382C1976.44 551.44 1976.68 551.548 1976.9 551.7C1977.12 551.85 1977.3 552.042 1977.45 552.264C1977.59 552.487 1977.69 552.735 1977.73 552.996C1977.78 553.256 1977.78 553.523 1977.72 553.781C1977.66 554.04 1977.55 554.284 1977.4 554.5C1919.9 635.8 1885.9 736.3 1867.4 806.3C1847.3 882.1 1840.8 939.5 1840.7 940.1C1840.65 940.569 1840.43 941.002 1840.08 941.316C1839.73 941.63 1839.27 941.803 1838.8 941.8Z" fill="#8D9B2A"/>
<path d="M1897.4 707.4C1896.97 707.415 1896.55 707.285 1896.21 707.031C1895.86 706.777 1895.61 706.413 1895.5 706L1866 619.5C1865.84 618.996 1865.89 618.45 1866.14 617.982C1866.38 617.514 1866.8 617.161 1867.3 617C1867.54 616.906 1867.8 616.862 1868.06 616.873C1868.32 616.883 1868.58 616.946 1868.81 617.058C1869.04 617.171 1869.25 617.33 1869.42 617.526C1869.59 617.723 1869.72 617.952 1869.8 618.2L1899.3 704.8C1899.46 705.304 1899.41 705.849 1899.17 706.318C1898.92 706.786 1898.5 707.139 1898 707.3L1897.4 707.4Z" fill="#8D9B2A"/>
<path d="M1920.4 652.4C1920 652.4 1919.61 652.274 1919.29 652.041C1918.97 651.807 1918.73 651.478 1918.6 651.1C1918.4 650.609 1918.41 650.06 1918.61 649.573C1918.82 649.086 1919.21 648.7 1919.7 648.5L1988.1 621C1988.35 620.905 1988.61 620.86 1988.88 620.869C1989.15 620.878 1989.41 620.94 1989.65 621.052C1989.89 621.164 1990.11 621.323 1990.29 621.52C1990.47 621.718 1990.61 621.949 1990.7 622.2C1990.87 622.693 1990.86 623.232 1990.65 623.713C1990.45 624.193 1990.07 624.581 1989.6 624.8L1921.2 652.2L1920.4 652.4Z" fill="#8D9B2A"/>
<path d="M1860.6 826.7C1860.29 826.718 1859.97 826.653 1859.69 826.513C1859.41 826.373 1859.17 826.161 1859 825.9C1858.71 825.468 1858.58 824.941 1858.66 824.423C1858.73 823.905 1859 823.433 1859.4 823.1L1925.7 771.1C1925.9 770.924 1926.13 770.791 1926.38 770.71C1926.64 770.628 1926.9 770.601 1927.17 770.629C1927.43 770.658 1927.69 770.741 1927.91 770.874C1928.14 771.006 1928.34 771.186 1928.5 771.4C1928.83 771.812 1928.98 772.337 1928.93 772.862C1928.87 773.386 1928.61 773.867 1928.2 774.2L1861.8 826.3C1861.47 826.583 1861.04 826.726 1860.6 826.7Z" fill="#8D9B2A"/>
<path d="M187 1712.2C187 1712.2 155.8 1727.4 139.3 1727.1C122.8 1726.8 117.2 1724.8 117.2 1724.8L124.5 1709.2L106.8 1722.9C106.8 1722.9 94.6999 1722 80.7999 1712.8L66.8999 1703.6L74.9999 1693.1L61.0999 1698C61.0999 1698 51.1999 1688.4 44.9999 1679.1C38.7999 1669.8 35.8999 1655.8 35.8999 1655.8C35.8999 1655.8 59.8999 1651.6 69.0999 1651.9C78.2999 1652.2 80.8999 1652.9 80.8999 1652.9L84.7999 1675.5L91.8999 1653.9C91.8999 1653.9 112.1 1659.1 120 1662.5L128 1666L129.8 1689.3L134 1672.2C134 1672.2 163.9 1671.2 187 1712.2Z" fill="#8D9B2A"/>
<path d="M198.7 1711.3C198.7 1711.3 196.7 1652 183.5 1627.2C170.3 1602.4 163.1 1595.5 163.1 1595.5L146.1 1619L152.2 1581.3C152.2 1581.3 141.6 1563.6 117.5 1549.9L93.3 1536.2L84.3 1556.8L80.7 1531.8C80.7 1531.8 59.2 1524.6 40.9 1522.5C22.6 1520.4 0 1527.3 0 1527.3C0 1527.3 12.4 1566.8 20.1 1580.6C27.8 1594.4 30.5 1597.6 30.5 1597.6L66.5 1585.7L40.4 1613.5C40.4 1613.5 63.7 1639.9 74.8 1649.2L86 1658.6L121.3 1642.8L99.7 1662.6C99.7 1662.6 121.3 1708.8 198.7 1711.3Z" fill="#CCC729"/>
<path d="M209.6 1729.7C209.265 1729.7 208.937 1729.61 208.641 1729.46C208.345 1729.3 208.091 1729.07 207.9 1728.8C207.3 1727.7 139.6 1619.1 46.9 1566.8C46.4376 1566.55 46.0941 1566.12 45.9442 1565.61C45.7944 1565.11 45.8504 1564.56 46.1 1564.1C46.3727 1563.63 46.8167 1563.29 47.3388 1563.14C47.8608 1562.99 48.4203 1563.05 48.9 1563.3C142.5 1616.1 210.7 1725.6 211.3 1726.7C211.567 1727.14 211.654 1727.67 211.542 1728.17C211.43 1728.67 211.129 1729.11 210.7 1729.4C210.37 1729.6 209.988 1729.71 209.6 1729.7Z" fill="#8D9B2A"/>
<path d="M123.9 1625.2C123.402 1625.2 122.922 1625.02 122.552 1624.69C122.182 1624.35 121.95 1623.9 121.9 1623.4L116.1 1572.6C116.072 1572.34 116.097 1572.07 116.173 1571.82C116.248 1571.56 116.374 1571.33 116.541 1571.12C116.708 1570.92 116.915 1570.75 117.148 1570.63C117.381 1570.5 117.637 1570.42 117.9 1570.4C118.425 1570.37 118.943 1570.54 119.351 1570.87C119.758 1571.2 120.025 1571.68 120.1 1572.2L125.9 1623C125.93 1623.53 125.762 1624.04 125.429 1624.45C125.095 1624.86 124.621 1625.13 124.1 1625.2H123.9Z" fill="#8D9B2A"/>
<path d="M57.9001 1605.4C57.3935 1605.38 56.9119 1605.17 56.5443 1604.82C56.1767 1604.48 55.9479 1604.01 55.9001 1603.5C55.8866 1603.24 55.9251 1602.97 56.0134 1602.73C56.1016 1602.48 56.2379 1602.25 56.4144 1602.06C56.5909 1601.86 56.8041 1601.7 57.0419 1601.59C57.2797 1601.48 57.5373 1601.41 57.8001 1601.4L98.9001 1598.9C99.1708 1598.87 99.4443 1598.9 99.7038 1598.98C99.9633 1599.06 100.203 1599.2 100.409 1599.38C100.615 1599.55 100.783 1599.77 100.902 1600.02C101.02 1600.26 101.088 1600.53 101.1 1600.8C101.102 1601.32 100.909 1601.83 100.557 1602.22C100.206 1602.61 99.7217 1602.85 99.2001 1602.9L58.0001 1605.4H57.9001Z" fill="#8D9B2A"/>
<path d="M171 1676.7H170.6L124.6 1666.2C124.083 1666.08 123.634 1665.76 123.353 1665.31C123.072 1664.86 122.981 1664.32 123.1 1663.8C123.219 1663.28 123.539 1662.83 123.989 1662.55C124.439 1662.27 124.983 1662.18 125.5 1662.3L171.5 1672.8C171.756 1672.86 171.998 1672.97 172.212 1673.12C172.426 1673.27 172.608 1673.47 172.748 1673.69C172.887 1673.91 172.981 1674.16 173.024 1674.42C173.068 1674.68 173.059 1674.94 173 1675.2C172.887 1675.64 172.627 1676.03 172.263 1676.3C171.9 1676.57 171.454 1676.71 171 1676.7Z" fill="#8D9B2A"/>
<path d="M1719.1 170.9H177.3C112.186 170.9 59.3999 223.686 59.3999 288.8V1259.6C59.3999 1324.71 112.186 1377.5 177.3 1377.5H1719.1C1784.21 1377.5 1837 1324.71 1837 1259.6V288.8C1837 223.686 1784.21 170.9 1719.1 170.9Z" fill="#724A7F"/>
<path d="M1794.7 300.7V1247.7C1794.7 1272.95 1784.67 1297.16 1766.82 1315.02C1748.96 1332.87 1724.75 1342.9 1699.5 1342.9H196.9C171.651 1342.9 147.437 1332.87 129.583 1315.02C111.73 1297.16 101.7 1272.95 101.7 1247.7V300.7C101.7 275.451 111.73 251.237 129.583 233.383C147.437 215.53 171.651 205.5 196.9 205.5H1699.5C1712.01 205.487 1724.39 207.94 1735.95 212.72C1747.5 217.499 1758 224.511 1766.85 233.354C1775.69 242.197 1782.7 252.697 1787.48 264.253C1792.26 275.809 1794.71 288.194 1794.7 300.7Z" fill="#98BAC3"/>
<g opacity="0.25">
<path d="M1794.7 300.7V1247.7C1794.7 1272.95 1784.67 1297.16 1766.82 1315.02C1748.96 1332.87 1724.75 1342.9 1699.5 1342.9H196.9C171.651 1342.9 147.437 1332.87 129.583 1315.02C111.73 1297.16 101.7 1272.95 101.7 1247.7V1187C455.3 1190.3 1115.4 1159.5 1415.8 903.4C1651.1 702.8 1715.2 419.9 1725.9 209.2C1745.74 214.927 1763.18 226.949 1775.59 243.453C1788 259.958 1794.71 280.05 1794.7 300.7Z" fill="#724A7F"/>
</g>
<path d="M400.7 1267.1H203V1342.91H400.7V1267.1Z" fill="#5F4668"/>
<path d="M411.1 1240.3H192.6V1267.1H411.1V1240.3Z" fill="#98BAC3"/>
<path d="M1622.6 714.121C1700.09 677.49 1739.3 597.846 1710.18 536.231C1681.05 474.616 1594.62 454.362 1517.13 490.993C1439.64 527.624 1400.43 607.268 1429.55 668.883C1458.68 730.498 1545.11 750.751 1622.6 714.121Z" fill="#322451"/>
<path d="M1637.4 802.4C1637.16 803.386 1636.99 804.389 1636.9 805.4C1636.82 805.589 1636.79 805.795 1636.8 806C1629.2 867.8 1608.4 960.3 1551.5 980.6C1464.3 1011.8 1349.5 962.2 1334.6 908.1C1319.7 854 1343.6 802.5 1343.6 802.5C1343.6 802.5 1351.7 800.6 1362.6 797.1C1376.5 792.7 1337.7 779.2 1399.1 777.1C1400.9 777.1 1403.6 775.1 1406.7 771.9C1414.5 763.7 1425.1 747.3 1433.5 732.6C1440.4 720.6 1445.7 709.6 1446.8 705C1451.9 684.5 1451.5 662.5 1451.5 662.5L1569.3 670.3C1569.3 670.3 1563.5 694.7 1566.5 712.7C1567.7 719.6 1578.4 738.6 1582.9 741.9L1584.1 742.9C1593.3 750.5 1616.1 777 1637.4 802.4Z" fill="#FFC7D2"/>
<path d="M1659.2 796.8C1656.5 799.8 1651.1 803 1636.2 810.7C1613.5 822.3 1568.7 844.4 1477.3 892.2C1325.7 971.4 1355.9 849.8 1355.9 849.8L1358.5 762.2C1358.5 762.2 1363.5 757.9 1383 750.5C1402.5 743.1 1425.3 732.5 1434.5 709.6C1434.59 709.219 1434.72 708.849 1434.9 708.5C1443.4 685.6 1436.1 651.5 1436.1 651.5L1590.2 649C1590.2 649 1574.3 683.1 1581.6 704.2C1582.47 706.679 1583.83 708.957 1585.6 710.9C1598.2 724.8 1630.1 743.7 1630.1 743.7C1630.1 743.7 1666.2 789.2 1659.2 796.8Z" fill="#FFC7D2"/>
<path d="M1664.4 451.5C1664.4 451.5 1725 493.5 1734.9 574.9C1744.8 656.3 1676.4 680.2 1676.4 680.2C1676.4 680.2 1727.3 645.6 1726.3 598.2C1725.3 550.8 1663.9 487.9 1663.9 487.9L1664.4 451.5Z" fill="#322451"/>
<path d="M1410.3 765C1468.68 765 1516 717.677 1516 659.3C1516 600.924 1468.68 553.6 1410.3 553.6C1351.92 553.6 1304.6 600.924 1304.6 659.3C1304.6 717.677 1351.92 765 1410.3 765Z" fill="#322451"/>
<path d="M1581.6 704.2C1582.47 706.679 1583.83 708.957 1585.6 710.9C1580.6 715.2 1575.6 719.4 1570.6 723.3C1542.9 745.5 1517.1 761.3 1501.5 759C1485.9 756.7 1464.3 739 1442.2 716.3L1434.9 708.5C1443.4 685.6 1436.1 651.5 1436.1 651.5L1590.2 649C1590.2 649 1574.3 683.1 1581.6 704.2Z" fill="#F47382"/>
<path d="M1351.3 522C1351.3 522 1314.4 403.5 1366.3 307C1418.2 210.5 1500.5 246.2 1500.5 246.2C1500.5 246.2 1575.9 218.7 1634.2 263.4C1692.5 308.1 1700.5 377.1 1690.4 430C1680.3 482.9 1660.1 512.1 1660.1 512.1L1351.3 522Z" fill="#322451"/>
<path d="M1366.24 570.496C1384.1 564.693 1392.07 539.976 1384.05 515.29C1376.03 490.603 1355.05 475.294 1337.19 481.096C1319.33 486.899 1311.36 511.616 1319.38 536.303C1327.4 560.99 1348.38 576.298 1366.24 570.496Z" fill="#FFB6B1"/>
<path d="M1364.51 550.509C1374.28 547.335 1378.65 533.818 1374.26 520.319C1369.87 506.82 1358.4 498.45 1348.63 501.625C1338.86 504.799 1334.49 518.316 1338.88 531.815C1343.27 545.314 1354.74 553.684 1364.51 550.509Z" fill="#F47382"/>
<path d="M1644.68 590.926C1662.53 585.124 1670.51 560.407 1662.49 535.72C1654.47 511.033 1633.49 495.724 1615.63 501.527C1597.77 507.33 1589.8 532.046 1597.82 556.733C1605.84 581.42 1626.82 596.729 1644.68 590.926Z" fill="white"/>
<path d="M1664.1 540.9C1663.71 539.138 1663.21 537.401 1662.6 535.7L1662.2 534.5C1660.1 528.596 1657.13 523.035 1653.4 518C1653.04 517.592 1652.7 517.157 1652.4 516.7C1651.1 515.2 1649.9 513.7 1648.6 512.4L1645.9 509.9L1642.9 507.5C1641.91 506.776 1640.87 506.108 1639.8 505.5C1638.59 504.704 1637.32 504.002 1636 503.4C1628.5 500 1620.9 499.6 1614.1 502.2C1608.38 504.516 1603.6 508.667 1600.5 514C1596.3 520.7 1594.1 529.4 1594.2 538.9C1594.34 545.887 1595.59 552.807 1597.9 559.4C1598.6 561.309 1599.4 563.179 1600.3 565C1601.1 566.816 1602 568.586 1603 570.3C1606.23 575.868 1610.43 580.813 1615.4 584.9C1618.08 587.116 1621.04 588.966 1624.2 590.4C1627.9 592.159 1631.91 593.146 1636 593.3C1639.34 593.43 1642.67 592.886 1645.8 591.7H1646.1L1647.5 591.1C1649.79 590.042 1651.91 588.662 1653.8 587C1655.22 585.758 1656.53 584.385 1657.7 582.9C1662.8 576.2 1665.7 566.9 1665.9 556.7V555.7C1665.89 550.713 1665.28 545.745 1664.1 540.9ZM1645.7 590.8C1639.1 593.3 1631.8 592.9 1624.5 589.6C1621.52 588.229 1618.73 586.482 1616.2 584.4C1611.29 580.359 1607.12 575.485 1603.9 570C1602.9 568.3 1602 566.5 1601.1 564.7C1600.23 562.877 1599.46 561.008 1598.8 559.1C1596.49 552.61 1595.24 545.789 1595.1 538.9C1595 529.4 1597.2 520.6 1601.5 513.9C1604.51 508.995 1609.04 505.203 1614.4 503.1C1617.48 501.883 1620.78 501.305 1624.1 501.4C1628.08 501.591 1631.98 502.542 1635.6 504.2C1637.09 504.902 1638.52 505.704 1639.9 506.6L1642.3 508.2L1645.9 511.1C1646.42 511.516 1646.88 511.985 1647.3 512.5C1648.83 513.972 1650.27 515.542 1651.6 517.2L1653.3 519.4C1656.71 524.112 1659.41 529.301 1661.3 534.8L1662.2 537.4C1662.81 539.237 1663.31 541.107 1663.7 543C1664.67 547.737 1665.1 552.567 1665 557.4C1664.7 567.5 1661.7 576.5 1656.4 583L1654.1 585.4C1652.3 587.207 1650.2 588.694 1647.9 589.8L1646 590.7L1645.7 590.8Z" fill="black"/>
<path d="M1643.08 571.135C1652.85 567.961 1657.21 554.444 1652.83 540.945C1648.44 527.446 1636.96 519.076 1627.19 522.251C1617.42 525.425 1613.06 538.942 1617.45 552.441C1621.83 565.94 1633.31 574.31 1643.08 571.135Z" fill="white"/>
<path d="M1652.7 540.4L1652 538.5C1650.13 534.007 1647.26 530.004 1643.6 526.8C1643.32 526.543 1643.02 526.309 1642.7 526.1C1641.39 525.016 1639.95 524.108 1638.4 523.4H1638.3C1636.47 522.545 1634.51 522.004 1632.5 521.8C1630.32 521.682 1628.14 522.023 1626.1 522.8C1618.3 525.8 1614.2 535.4 1615.3 546.1C1615.6 548.9 1616.24 551.654 1617.2 554.3C1617.43 554.743 1617.59 555.214 1617.7 555.7C1618.45 557.557 1619.39 559.333 1620.5 561C1622.13 563.747 1624.23 566.184 1626.7 568.2C1627.73 569.113 1628.87 569.887 1630.1 570.5C1630.58 570.837 1631.08 571.137 1631.6 571.4C1633.68 572.343 1635.92 572.886 1638.2 573C1640.11 573.018 1642.01 572.678 1643.8 572C1645.81 571.204 1647.62 569.975 1649.1 568.4C1650.64 566.716 1651.89 564.79 1652.8 562.7C1655.4 556.4 1655.5 548.3 1652.7 540.4ZM1649.3 566.8C1647.74 568.679 1645.75 570.154 1643.5 571.1C1641.64 571.776 1639.66 572.062 1637.68 571.941C1635.7 571.821 1633.77 571.296 1632 570.4C1631.01 569.982 1630.06 569.445 1629.2 568.8C1628.32 568.315 1627.51 567.709 1626.8 567C1624.62 565.082 1622.74 562.858 1621.2 560.4C1620.14 558.684 1619.24 556.877 1618.5 555C1618.35 554.625 1618.19 554.258 1618 553.9C1617.21 551.593 1616.64 549.215 1616.3 546.8C1614.9 536.2 1618.8 526.5 1626.5 523.5C1628.15 522.848 1629.92 522.542 1631.7 522.6H1632.1C1634.11 522.733 1636.08 523.242 1637.9 524.1L1638.2 524.3C1639.64 524.94 1640.99 525.782 1642.2 526.8L1643.4 527.8C1647.24 531.283 1650.13 535.689 1651.8 540.6C1651.8 540.613 1651.8 540.626 1651.81 540.638C1651.81 540.651 1651.82 540.662 1651.83 540.671C1651.84 540.68 1651.85 540.688 1651.86 540.693C1651.87 540.698 1651.89 540.7 1651.9 540.7C1654.7 548.6 1654.5 556.6 1651.8 562.6C1651.12 564.088 1650.29 565.496 1649.3 566.8Z" fill="black"/>
<path d="M1691.56 553.09C1703.37 529.913 1699.42 504.233 1682.74 495.733C1666.05 487.234 1642.96 499.132 1631.15 522.309C1619.34 545.487 1623.29 571.166 1639.97 579.666C1656.65 588.166 1679.75 576.267 1691.56 553.09Z" fill="#FFB6B1"/>
<path d="M1672.96 545.783C1679.43 533.087 1677.29 519.035 1668.19 514.397C1659.08 509.758 1646.46 516.29 1639.99 528.986C1633.52 541.682 1635.66 555.734 1644.76 560.372C1653.86 565.011 1666.49 558.479 1672.96 545.783Z" fill="#F47382"/>
<path d="M1595.7 435C1505.2 417.5 1474.1 367.6 1474.1 367.6C1474.1 367.6 1469.7 398.6 1433 427.5C1398.3 454.8 1361.7 462.7 1358.3 464C1359 483.5 1363.8 593.8 1383.8 631.2C1405.5 671.6 1462.6 705.7 1496.9 709L1497.7 709.2H1498.4C1532.9 710.9 1594.6 685.7 1622.1 648.8C1644.3 619.3 1663.6 533.8 1670.7 499.2C1673.91 484.36 1674.79 469.11 1673.3 454C1672.9 450.3 1672.3 446.7 1671.7 443.2C1655.5 443.6 1631.4 441.8 1595.7 435Z" fill="#FFC7D2"/>
<path d="M1457.42 498.813C1458.34 487.418 1452.61 477.659 1444.63 477.017C1436.64 476.375 1429.43 485.092 1428.51 496.487C1427.6 507.883 1433.32 517.641 1441.31 518.283C1449.29 518.926 1456.5 510.209 1457.42 498.813Z" fill="#2D1164"/>
<path d="M1599.7 509.313C1600.61 497.918 1594.89 488.16 1586.9 487.517C1578.92 486.875 1571.71 495.592 1570.79 506.988C1569.87 518.383 1575.6 528.142 1583.58 528.784C1591.57 529.426 1598.78 520.709 1599.7 509.313Z" fill="#2D1164"/>
<path d="M1419.3 474.1C1418.7 474.074 1418.12 473.902 1417.6 473.6C1416.78 473.12 1416.18 472.336 1415.94 471.418C1415.7 470.5 1415.83 469.523 1416.3 468.7C1419.53 463.067 1424.42 458.564 1430.3 455.8C1436.18 453.098 1442.75 452.294 1449.1 453.5C1449.56 453.583 1450.01 453.76 1450.4 454.018C1450.79 454.276 1451.13 454.612 1451.39 455.004C1451.66 455.396 1451.84 455.837 1451.92 456.3C1452.01 456.764 1452 457.24 1451.9 457.7C1451.83 458.171 1451.66 458.622 1451.41 459.024C1451.15 459.426 1450.82 459.77 1450.42 460.034C1450.03 460.298 1449.58 460.475 1449.11 460.556C1448.64 460.636 1448.16 460.617 1447.7 460.5C1442.83 459.593 1437.8 460.222 1433.3 462.3C1428.75 464.437 1424.98 467.931 1422.5 472.3C1422.19 472.867 1421.72 473.336 1421.15 473.654C1420.59 473.971 1419.95 474.126 1419.3 474.1Z" fill="#2D1164"/>
<path d="M1606.7 488C1606 487.969 1605.33 487.735 1604.76 487.327C1604.19 486.918 1603.75 486.353 1603.5 485.7C1601.7 481.004 1598.49 476.984 1594.3 474.2C1590.18 471.515 1585.32 470.187 1580.4 470.4C1579.45 470.429 1578.53 470.092 1577.82 469.459C1577.11 468.826 1576.68 467.946 1576.6 467C1576.57 466.035 1576.92 465.098 1577.58 464.388C1578.23 463.678 1579.14 463.252 1580.1 463.2C1586.56 462.902 1592.94 464.69 1598.3 468.3C1603.72 471.862 1607.88 477.04 1610.2 483.1C1610.37 483.539 1610.46 484.009 1610.45 484.481C1610.44 484.954 1610.33 485.419 1610.13 485.848C1609.94 486.278 1609.65 486.664 1609.31 486.982C1608.96 487.3 1608.55 487.545 1608.1 487.7C1607.66 487.904 1607.18 488.007 1606.7 488Z" fill="#2D1164"/>
<path d="M1509.2 671.128C1509.35 669.09 1504.56 667.077 1498.5 666.632C1492.44 666.187 1487.41 667.478 1487.26 669.516C1487.11 671.554 1491.9 673.567 1497.96 674.012C1504.02 674.457 1509.05 673.166 1509.2 671.128Z" fill="#F47382"/>
<g opacity="0.33">
<path d="M1453.64 554.35C1454.65 540.025 1440.18 527.345 1421.34 526.027C1402.5 524.71 1386.41 535.254 1385.41 549.578C1384.41 563.903 1398.87 576.583 1417.71 577.901C1436.56 579.218 1452.64 568.674 1453.64 554.35Z" fill="#F47382"/>
<path d="M1629.36 563.033C1630.36 548.674 1615.87 535.961 1596.98 534.639C1578.09 533.317 1561.96 543.886 1560.96 558.245C1559.95 572.605 1574.45 585.317 1593.34 586.639C1612.23 587.961 1628.35 577.393 1629.36 563.033Z" fill="#F47382"/>
</g>
<path d="M1550.5 617.3C1548.04 626.746 1542.82 635.242 1535.5 641.7C1526.52 649.706 1514.77 653.901 1502.75 653.397C1490.73 652.893 1479.38 647.729 1471.1 639C1463.7 631.163 1459.06 621.118 1457.9 610.4C1457.8 609.316 1457.93 608.224 1458.27 607.191C1458.62 606.159 1459.17 605.209 1459.9 604.4C1460.62 603.588 1461.52 602.951 1462.52 602.535C1463.53 602.119 1464.61 601.936 1465.7 602L1544.2 607.9C1545.27 607.949 1546.31 608.256 1547.23 608.796C1548.16 609.336 1548.93 610.093 1549.5 611C1550.11 611.918 1550.51 612.955 1550.68 614.042C1550.86 615.129 1550.79 616.24 1550.5 617.3Z" fill="#C64F60"/>
<path d="M1549.5 611C1538.1 615.8 1521.9 618.1 1504 616.8C1486.1 615.5 1470.4 610.8 1459.9 604.4C1460.62 603.588 1461.52 602.951 1462.52 602.535C1463.53 602.119 1464.61 601.936 1465.7 602L1544.2 607.8C1545.27 607.899 1546.3 608.238 1547.22 608.792C1548.13 609.346 1548.92 610.101 1549.5 611Z" fill="white"/>
<path d="M1535.5 641.7C1526.52 649.706 1514.77 653.901 1502.75 653.397C1490.73 652.893 1479.38 647.729 1471.1 639C1480 633.1 1492.3 629.8 1505.5 630.8C1518.7 631.8 1527.7 635.7 1535.5 641.7Z" fill="#F47382"/>
<path d="M1522.1 546.5C1518.9 541.5 1516.5 537.3 1515.4 532.8C1514.3 528.3 1514.8 523.5 1516.8 520.4C1517.53 519.276 1517.85 517.933 1517.7 516.6C1517.4 515.107 1516.54 513.784 1515.3 512.9C1514.1 512.128 1512.65 511.853 1511.25 512.133C1509.85 512.413 1508.61 513.226 1507.8 514.4C1507.27 515.234 1506.81 516.103 1506.4 517C1503.83 522.75 1503.3 529.208 1504.9 535.3C1506.5 541.7 1509.7 547.3 1513 552.4C1513.49 553.099 1513.92 553.834 1514.3 554.6L1513.5 555.4C1509.46 558.905 1504.82 561.65 1499.8 563.5C1498.6 563.917 1497.59 564.744 1496.94 565.834C1496.29 566.925 1496.04 568.21 1496.24 569.464C1496.45 570.717 1497.08 571.859 1498.05 572.689C1499.01 573.519 1500.23 573.983 1501.5 574C1502.19 574.022 1502.87 573.885 1503.5 573.6C1509.79 571.341 1515.59 567.914 1520.6 563.5C1522.49 562.035 1523.91 560.056 1524.7 557.8C1526.2 552.9 1523.4 548.6 1522.1 546.5Z" fill="#F47382"/>
<path d="M1456.1 490.087C1456.49 485.242 1454.13 481.1 1450.83 480.834C1447.52 480.568 1444.53 484.28 1444.14 489.124C1443.75 493.969 1446.11 498.111 1449.42 498.377C1452.72 498.643 1455.71 494.931 1456.1 490.087Z" fill="white"/>
<path d="M1599.47 500.799C1599.86 495.954 1597.5 491.812 1594.19 491.546C1590.89 491.28 1587.9 494.992 1587.51 499.836C1587.12 504.681 1589.48 508.823 1592.78 509.089C1596.09 509.355 1599.08 505.643 1599.47 500.799Z" fill="white"/>
<path d="M1362.7 460C1362.7 460 1364.5 568.1 1370.8 610.5C1377.1 652.9 1387.1 672.9 1383.9 671.7C1380.7 670.5 1355.6 589.4 1350.1 520.7C1344.6 452 1355.2 442.9 1362.7 460Z" fill="#322451"/>
<path d="M1655.5 430.2C1655.5 430.2 1657.1 536.7 1643.6 603.8C1630.1 670.9 1615.8 688.3 1624.4 685.5C1633 682.7 1680.6 486.1 1677.8 450.2C1675 414.3 1658.9 411.6 1655.5 430.2Z" fill="#322451"/>
<path d="M1639.9 512.7C1639.76 516.308 1639.26 519.892 1638.4 523.4C1638.41 523.541 1638.38 523.683 1638.3 523.8C1638.32 523.973 1638.28 524.147 1638.2 524.3C1639.64 524.94 1640.99 525.782 1642.2 526.8L1642.5 526.4C1642.6 526.3 1642.7 526.2 1642.7 526.1C1642.7 526 1643.8 524.5 1644.4 523.8C1645.22 520.086 1645.69 516.303 1645.8 512.5L1639.9 512.7ZM1675.3 487.1L1674.3 486.9L1673.3 486.7H1672.8L1664 485L1654.9 483.1L1653.7 482.9L1638.3 479.8C1637.83 478.834 1637.29 477.899 1636.7 477C1630.82 467.272 1622.46 459.289 1612.46 453.878C1602.47 448.467 1591.21 445.823 1579.85 446.221C1568.5 446.618 1557.45 450.043 1547.86 456.14C1538.27 462.236 1530.48 470.785 1525.3 480.9C1521.33 477.166 1516.14 474.999 1510.7 474.8C1505.91 474.611 1501.2 476.018 1497.3 478.8C1493.05 469.757 1486.73 461.835 1478.87 455.671C1471 449.506 1461.8 445.269 1452 443.3C1448.51 442.593 1444.96 442.192 1441.4 442.1C1426.25 441.687 1411.44 446.646 1399.6 456.1C1393.89 460.768 1389 466.342 1385.1 472.6L1363 475.7L1358.9 476.3L1348.9 477.8H1348.7C1348.1 477.954 1347.56 478.285 1347.15 478.748C1346.74 479.211 1346.48 479.787 1346.4 480.4V481.1C1346.5 481.669 1346.76 482.199 1347.15 482.624C1347.54 483.05 1348.04 483.354 1348.6 483.5H1349.8L1356.2 482.6H1356.3L1359.2 482.2L1363.2 481.6L1381.6 479C1378.64 485.487 1376.75 492.41 1376 499.5L1375.7 504C1375.42 517.334 1379.26 530.43 1386.7 541.5L1387.3 542.4C1390.38 546.715 1393.98 550.643 1398 554.1C1407.95 562.685 1420.32 567.963 1433.4 569.2C1434.82 569.399 1436.26 569.5 1437.7 569.5C1440.4 569.604 1443.11 569.503 1445.8 569.2H1445.9C1450.84 568.692 1455.71 567.619 1460.4 566C1471.13 562.286 1480.68 555.78 1488.06 547.15C1495.45 538.52 1500.39 528.078 1502.4 516.9C1502.94 513.792 1503.28 510.652 1503.4 507.5C1503.5 504.089 1503.3 500.676 1502.8 497.3C1502.24 492.867 1501.2 488.508 1499.7 484.3C1501.17 482.973 1502.9 481.954 1504.77 481.302C1506.64 480.649 1508.62 480.377 1510.6 480.5C1516.5 480.6 1520.8 484.4 1522.7 486.4L1522.3 487.4C1519.84 493.965 1518.49 500.892 1518.3 507.9C1518.2 510.704 1518.3 513.511 1518.6 516.3C1519.83 528.03 1524.29 539.19 1531.47 548.544C1538.65 557.899 1548.29 565.082 1559.3 569.3H1559.4C1566.04 571.872 1573.08 573.292 1580.2 573.5C1587.95 573.731 1595.68 572.545 1603 570L1603.5 569.8H1603.9C1609.85 567.609 1615.45 564.542 1620.5 560.7L1620.8 560.5L1621.2 560.2L1624.9 557.1L1625.5 556.6C1629.95 552.423 1633.78 547.643 1636.9 542.4C1639.71 537.776 1641.9 532.799 1643.4 527.6C1643.42 527.432 1643.46 527.265 1643.5 527.1C1643.58 526.947 1643.62 526.773 1643.6 526.6C1643.9 525.6 1644.2 524.6 1644.4 523.6C1645.22 519.886 1645.69 516.102 1645.8 512.3C1645.89 512.078 1645.92 511.838 1645.9 511.6V509.7C1645.9 508 1645.8 506.4 1645.7 504.7C1645.19 498.354 1643.75 492.118 1641.4 486.2L1654.7 488.9L1667.4 491.4L1670.8 492.1L1671.9 492.3H1672.2L1673.4 492.6H1674.6C1675.3 492.596 1675.97 492.356 1676.52 491.921C1677.06 491.485 1677.44 490.879 1677.6 490.2C1677.62 489.499 1677.41 488.811 1676.99 488.248C1676.57 487.685 1675.98 487.281 1675.3 487.1ZM1497.5 507.6C1497.41 510.864 1497.01 514.112 1496.3 517.3C1494.11 528.25 1488.8 538.334 1481.01 546.336C1473.22 554.338 1463.29 559.917 1452.4 562.4L1451.3 562.6C1446.89 563.508 1442.4 563.911 1437.9 563.8H1436.4C1425.83 563.244 1415.63 559.784 1406.9 553.8C1400.5 549.416 1395.03 543.809 1390.8 537.3C1389.31 534.99 1387.97 532.585 1386.8 530.1C1385.48 527.196 1384.41 524.185 1383.6 521.1C1382.64 517.568 1382.04 513.951 1381.8 510.3C1381.62 508.372 1381.58 506.433 1381.7 504.5C1381.95 494.691 1384.71 485.11 1389.72 476.672C1394.72 468.234 1401.81 461.22 1410.3 456.3C1419.62 450.735 1430.35 447.958 1441.2 448.3H1443.5C1457.26 449.265 1470.24 455.097 1480.09 464.753C1489.95 474.409 1496.05 487.258 1497.3 501C1497.5 503.1 1497.5 505.3 1497.5 507.6ZM1638.4 523.4C1638.41 523.541 1638.38 523.683 1638.3 523.8C1638.32 523.973 1638.28 524.147 1638.2 524.3C1635.94 533.452 1631.4 541.882 1625 548.8C1624.01 549.972 1622.94 551.075 1621.8 552.1L1618.5 555L1618.1 555.3L1617.7 555.6C1612.73 559.557 1607.11 562.634 1601.1 564.7L1600.7 564.9H1600.3C1586.59 569.427 1571.69 568.678 1558.5 562.8C1549.28 558.674 1541.29 552.215 1535.33 544.06C1529.37 535.906 1525.64 526.338 1524.5 516.3C1524.2 513.611 1524.1 510.904 1524.2 508.2C1524.4 499.899 1526.42 491.742 1530.1 484.3C1535.7 472.902 1544.89 463.661 1556.26 457.999C1567.62 452.338 1580.54 450.57 1593.01 452.968C1605.48 455.367 1616.81 461.799 1625.27 471.273C1633.72 480.747 1638.83 492.738 1639.8 505.4C1639.84 505.565 1639.88 505.732 1639.9 505.9V506.5C1640 507.9 1640 509.3 1640 510.7V511.6C1640.02 511.936 1639.98 512.274 1639.9 512.6C1639.76 516.241 1639.26 519.86 1638.4 523.4Z" fill="white"/>
<path d="M1781.2 1758.4H1327.9C1328.5 1747.2 1329.2 1735.5 1330 1723.6C1334.8 1650.8 1342.7 1571.1 1355.2 1544.4C1358.29 1537.84 1362.04 1531.6 1366.4 1525.8C1385.2 1501.2 1417.2 1484 1472.5 1479.5C1494.5 1477.7 1520.1 1477.9 1550 1480.5L1552.4 1480.7C1572.1 1482.4 1593.5 1485.2 1617 1489C1618.7 1489.2 1620.4 1489.6 1622.1 1489.9C1645.5 1494.7 1665.7 1505.4 1683 1520.3C1686.6 1523.32 1690.04 1526.52 1693.3 1529.9C1702.54 1539.43 1710.81 1549.84 1718 1561C1748.3 1607.3 1765.7 1668.6 1775.7 1723.6C1777.8 1735.6 1779.7 1747.2 1781.2 1758.4Z" fill="#322451"/>
<path d="M1365.8 1537.7C1365.8 1537.7 1577.7 1579.4 1666.7 1533.2C1755.7 1487 1733.4 1152.2 1719.7 1067.9C1706 983.6 1610.7 751.2 1610.7 751.2L1547.1 802.6L1410.5 724.7L1365.8 1537.7Z" fill="#F9F3FF"/>
<path d="M1410.5 724.7L1428 706.1L1547.1 797.5L1600 717.4L1604.6 724.7C1604.6 724.7 1607.4 789 1604.6 808.8C1601.8 828.6 1595.5 873.1 1595.5 873.1L1547.1 802.6C1547.1 802.6 1498.5 870.8 1496.2 873.1C1493.9 875.4 1425.1 786.8 1410.5 724.7Z" fill="white"/>
<path d="M1549.7 1557C1549.17 1556.95 1548.67 1556.71 1548.3 1556.33C1547.94 1555.94 1547.72 1555.43 1547.7 1554.9C1547.8 1554 1549.6 1462.4 1556.3 1401.5C1559.2 1375.3 1563.3 1331.8 1567.6 1285.7C1573.5 1223.6 1579.5 1159.4 1583.4 1129C1590 1076.8 1545.6 805.6 1545.1 802.9C1545.01 802.37 1545.13 801.824 1545.44 801.383C1545.75 800.943 1546.22 800.643 1546.75 800.55C1547.28 800.457 1547.83 800.579 1548.27 800.888C1548.71 801.198 1549.01 801.67 1549.1 802.2C1550.9 813.4 1594.1 1076.8 1587.4 1129.5C1583.5 1159.8 1577.4 1224 1571.6 1286.1C1567.3 1332.2 1563.2 1375.7 1560.3 1402C1553.6 1462.6 1551.8 1554.1 1551.7 1555C1551.7 1555.53 1551.49 1556.04 1551.11 1556.41C1550.74 1556.79 1550.23 1557 1549.7 1557Z" fill="#C2B6D8"/>
<path d="M1535.2 1141.5C1534.94 1141.51 1534.68 1141.47 1534.44 1141.39C1534.2 1141.3 1533.98 1141.16 1533.79 1140.98C1533.6 1140.8 1533.46 1140.59 1533.35 1140.35C1533.25 1140.11 1533.2 1139.86 1533.2 1139.6C1533.17 1139.33 1533.2 1139.07 1533.28 1138.81C1533.37 1138.56 1533.5 1138.32 1533.68 1138.13C1533.86 1137.93 1534.08 1137.77 1534.32 1137.66C1534.57 1137.55 1534.83 1137.5 1535.1 1137.5C1557.13 1136.77 1579.11 1134.73 1600.9 1131.4C1601.43 1131.32 1601.97 1131.46 1602.4 1131.77C1602.83 1132.09 1603.12 1132.57 1603.2 1133.1C1603.28 1133.63 1603.15 1134.17 1602.83 1134.6C1602.51 1135.03 1602.03 1135.32 1601.5 1135.4C1579.53 1138.68 1557.4 1140.72 1535.2 1141.5Z" fill="#C2B6D8"/>
<path d="M1585.4 1157.2C1585.11 1157.2 1584.83 1157.14 1584.57 1157.02C1584.31 1156.9 1584.08 1156.72 1583.9 1156.5C1583.56 1156.1 1583.39 1155.58 1583.43 1155.06C1583.46 1154.54 1583.71 1154.05 1584.1 1153.7C1592.1 1146.7 1600.4 1140 1608.9 1133.6C1609.34 1133.33 1609.86 1133.22 1610.37 1133.29C1610.88 1133.36 1611.35 1133.62 1611.7 1134C1611.99 1134.43 1612.12 1134.96 1612.04 1135.48C1611.97 1136 1611.7 1136.47 1611.3 1136.8C1602.9 1143.1 1594.6 1149.8 1586.7 1156.7C1586.54 1156.88 1586.34 1157.02 1586.11 1157.11C1585.88 1157.2 1585.64 1157.23 1585.4 1157.2Z" fill="#C2B6D8"/>
<path d="M1602.8 1156C1602.27 1155.99 1601.77 1155.78 1601.4 1155.4C1601.21 1155.22 1601.05 1155.01 1600.95 1154.76C1600.84 1154.52 1600.78 1154.26 1600.78 1154C1600.78 1153.74 1600.84 1153.48 1600.95 1153.24C1601.05 1152.99 1601.21 1152.78 1601.4 1152.6L1607.1 1146.9C1607.49 1146.56 1607.98 1146.37 1608.5 1146.37C1609.02 1146.37 1609.52 1146.56 1609.9 1146.9C1610.27 1147.29 1610.48 1147.81 1610.48 1148.35C1610.48 1148.89 1610.27 1149.41 1609.9 1149.8L1604.2 1155.4C1604.02 1155.6 1603.81 1155.75 1603.57 1155.86C1603.32 1155.96 1603.06 1156.01 1602.8 1156Z" fill="#C2B6D8"/>
<path d="M1578.5 1535.7C1578.16 1535.68 1577.83 1535.57 1577.53 1535.4C1577.24 1535.23 1576.99 1534.99 1576.8 1534.7C1544.99 1481.5 1520.89 1424.06 1505.2 1364.1C1505.13 1363.85 1505.1 1363.59 1505.13 1363.33C1505.16 1363.07 1505.25 1362.82 1505.38 1362.6C1505.51 1362.37 1505.69 1362.18 1505.9 1362.02C1506.11 1361.87 1506.35 1361.76 1506.6 1361.7C1506.86 1361.62 1507.12 1361.6 1507.39 1361.63C1507.66 1361.66 1507.91 1361.74 1508.15 1361.87C1508.38 1362 1508.58 1362.18 1508.75 1362.39C1508.91 1362.6 1509.03 1362.84 1509.1 1363.1C1524.61 1422.71 1548.59 1479.79 1580.3 1532.6C1580.54 1533.07 1580.6 1533.62 1580.47 1534.13C1580.34 1534.65 1580.03 1535.1 1579.6 1535.4C1579.27 1535.6 1578.89 1535.71 1578.5 1535.7Z" fill="#C2B6D8"/>
<path d="M1960 1313.4C1959.7 1319 1959.3 1324.3 1959 1329.2C1955.7 1375.3 1950.3 1395.1 1922.8 1407.4C1897.53 1418.44 1869.61 1421.95 1842.4 1417.5L1841.1 1417.3C1822.2 1413.9 1800.6 1408.2 1794.4 1399.3L1794.1 1398.9C1793.6 1398 1792.8 1397.9 1791.8 1398.4C1790.84 1398.97 1789.99 1399.72 1789.3 1400.6C1785.2 1405.4 1779.5 1416.5 1774.2 1428.6C1769.8 1438.6 1765.6 1449.2 1762.6 1457.6C1762 1459.4 1761.5 1461.2 1760.9 1462.7C1759.5 1467.4 1758.6 1470.9 1758.6 1472.5C1758.6 1474.1 1762.3 1491.1 1768 1515C1780.2 1566.7 1801.7 1655.1 1815.5 1723.6C1817.9 1736 1820.2 1747.7 1822 1758.4H1607.9C1607.3 1747.5 1606.9 1735.9 1606.6 1723.6C1606.07 1687.45 1607.44 1651.3 1610.7 1615.3C1612.7 1593.6 1614.7 1571.3 1616.8 1549C1618.5 1529.3 1620.3 1509.5 1622.1 1489.9C1623.9 1470.3 1625.4 1452.9 1627 1434.7L1627.9 1425.1C1628.2 1421 1628.6 1416.9 1629 1412.9C1629.4 1408.9 1629.9 1402.1 1630.4 1396.7C1630.5 1395 1630.7 1393.2 1630.9 1391.4L1631.2 1388V1387.4C1631.6 1383.5 1631.9 1379.5 1632.2 1375.6V1374.5C1632.4 1373.1 1632.5 1371.8 1632.6 1370.4C1633.1 1365.2 1633.5 1360.1 1633.9 1355C1634.1 1353.3 1634.2 1351.6 1634.4 1350L1634.7 1345.7C1635.3 1338.7 1635.9 1331.7 1636.5 1325C1636.9 1320.9 1637.2 1316.9 1637.5 1312.9C1637.61 1312.17 1637.68 1311.44 1637.7 1310.7C1638 1307.4 1638.3 1304.3 1638.5 1301.1C1639 1296 1639.4 1290.9 1639.8 1285.9C1640.7 1275.2 1641.5 1265 1642.3 1255.4L1642.6 1251.7C1642.6 1251.4 1642.7 1251.1 1642.7 1250.9L1643 1247.6L1643.3 1243.3L1643.6 1239.2C1643.6 1238.8 1643.7 1238.5 1643.7 1238.1C1643.9 1236.1 1644 1234 1644.2 1232V1231.3C1644.5 1228.1 1644.7 1225 1645 1221.9C1644.98 1221.3 1645.02 1220.7 1645.1 1220.1C1645.2 1218.4 1645.3 1216.7 1645.5 1215C1645.7 1213.3 1645.8 1210.3 1646 1208.1C1646.2 1205.9 1646.1 1205.9 1646.2 1204.9C1646.3 1203.9 1646.5 1200.7 1646.6 1198.7C1646.72 1197.74 1646.78 1196.77 1646.8 1195.8V1194.4C1646.9 1193.6 1646.9 1192.8 1647 1192.1V1191.2C1647.1 1190.5 1647.1 1189.8 1647.2 1189.2C1647.4 1185.5 1647.6 1182.1 1647.8 1179.1C1647.8 1178.5 1647.9 1177.9 1647.9 1177.3C1648.1 1173.8 1648.2 1170.9 1648.3 1168.4V1167.5C1648.3 1167.2 1648.4 1166.8 1648.4 1166.5C1648.4 1164.4 1648.4 1162 1648.3 1159.5C1648.2 1157 1648.3 1156.4 1648.2 1154.7C1648 1150.3 1647.7 1145.5 1647.3 1140.2C1646.7 1133.1 1645.9 1125.2 1644.9 1116.7C1644.8 1115.3 1644.6 1113.7 1644.4 1112.2C1643.3 1103 1642 1093.2 1640.6 1082.9C1633.3 1030 1622 964.6 1612 909.7C1607.4 884.4 1603.1 861.3 1599.6 842.8C1598.7 838.3 1597.9 834.2 1597.2 830.3C1596.5 826.4 1595.8 822.9 1595.1 819.7C1592.27 804.972 1592.23 789.841 1595 775.1L1597.5 761.8L1598.3 757.4L1604 726.6L1604.4 724.7C1606.3 725.5 1793.2 805 1811.7 848C1814.5 854.5 1818.9 865.4 1824.4 879.4L1831.3 897.3L1839.2 917.7C1863.3 980.5 1895.4 1066.3 1911.8 1110.1C1915.3 1119.2 1918.1 1126.6 1919.9 1131.5C1921.7 1136.4 1922.4 1137.9 1922.6 1138.3L1923.5 1140.7C1928.4 1154.4 1950.5 1221.9 1957.7 1275.8C1959.8 1289.6 1960.6 1302.5 1960 1313.4Z" fill="#5F4668"/>
<path d="M1758.6 1472.5C1758.6 1475 1762.3 1491.1 1768 1515C1732.9 1553 1679.5 1597.5 1610.7 1615.3C1616.1 1556.3 1621.8 1493.8 1627 1434.7C1629.6 1405.4 1632.1 1376.8 1634.5 1349.9L1774.2 1428.6C1766 1447.1 1758.6 1467.9 1758.6 1472.5Z" fill="#3F2847"/>
<path d="M1648.6 1166.5C1650 1107.6 1609 890.1 1595.3 819.6C1592.47 804.905 1592.43 789.808 1595.2 775.1L1604.6 724.7C1605.8 726 1687.7 807.7 1688.2 814.4C1688.7 821.1 1637.8 879.3 1637.8 879.3C1637.8 879.3 1698.9 915.7 1699.9 925.8C1700.9 935.9 1713.5 1246.8 1627 1434.7C1638.5 1306.2 1647.9 1193.6 1648.6 1166.5Z" fill="#B898C1"/>
<path d="M1747.6 1501.3H1747.5C1732.2 1500.2 1716.4 1499.1 1701.2 1495.7C1683.9 1491.8 1669.5 1485.3 1658.4 1476.4C1657.99 1476.07 1657.73 1475.59 1657.67 1475.06C1657.62 1474.54 1657.77 1474.01 1658.1 1473.6C1658.43 1473.19 1658.91 1472.93 1659.44 1472.87C1659.96 1472.82 1660.49 1472.97 1660.9 1473.3C1671.6 1481.8 1685.4 1488.1 1702.1 1491.8C1717 1495.1 1732.6 1496.2 1747.8 1497.3C1748.06 1497.31 1748.31 1497.38 1748.54 1497.49C1748.78 1497.6 1748.98 1497.76 1749.15 1497.96C1749.32 1498.16 1749.45 1498.39 1749.53 1498.63C1749.6 1498.88 1749.63 1499.14 1749.6 1499.4C1749.55 1499.9 1749.32 1500.38 1748.96 1500.72C1748.59 1501.07 1748.11 1501.28 1747.6 1501.3Z" fill="#1D1321"/>
<path d="M1673.9 1540.3C1673.5 1540.3 1673.11 1540.19 1672.78 1539.98C1672.44 1539.76 1672.17 1539.46 1672 1539.1C1671.8 1538.61 1671.81 1538.06 1672.01 1537.57C1672.22 1537.09 1672.61 1536.7 1673.1 1536.5L1753.6 1501.3C1754.08 1501.1 1754.62 1501.09 1755.1 1501.27C1755.59 1501.46 1755.98 1501.83 1756.2 1502.3C1756.32 1502.54 1756.38 1502.81 1756.4 1503.07C1756.41 1503.34 1756.37 1503.61 1756.27 1503.86C1756.18 1504.11 1756.04 1504.35 1755.85 1504.54C1755.67 1504.74 1755.45 1504.89 1755.2 1505L1674.7 1540.2L1673.9 1540.3Z" fill="#1D1321"/>
<path d="M1727.3 1021.8C1726.86 1021.81 1726.43 1021.67 1726.08 1021.39C1725.73 1021.12 1725.49 1020.73 1725.4 1020.3C1713.19 973.228 1708.3 924.559 1710.9 876C1711.4 865.6 1712.6 853.7 1719.9 845.1C1720.25 844.706 1720.74 844.464 1721.26 844.426C1721.78 844.389 1722.3 844.559 1722.7 844.9C1723.11 845.233 1723.37 845.714 1723.43 846.238C1723.48 846.763 1723.33 847.288 1723 847.7C1716.5 855.3 1715.4 866.4 1714.9 876.3C1712.29 924.418 1717.12 972.651 1729.2 1019.3C1729.28 1019.55 1729.3 1019.81 1729.27 1020.07C1729.24 1020.33 1729.15 1020.58 1729.02 1020.8C1728.89 1021.03 1728.71 1021.23 1728.5 1021.38C1728.29 1021.53 1728.05 1021.64 1727.8 1021.7L1727.3 1021.8Z" fill="#1D1321"/>
<path d="M1946.3 1253.3C1945.83 1253.32 1945.37 1253.18 1945 1252.9C1924.79 1236.89 1901.46 1225.28 1876.5 1218.8C1876.24 1218.73 1876 1218.61 1875.79 1218.45C1875.58 1218.28 1875.4 1218.08 1875.27 1217.85C1875.14 1217.61 1875.06 1217.36 1875.03 1217.09C1875 1216.82 1875.02 1216.56 1875.1 1216.3C1875.24 1215.8 1875.57 1215.38 1876.02 1215.12C1876.46 1214.85 1877 1214.78 1877.5 1214.9C1903.01 1221.52 1926.86 1233.41 1947.5 1249.8C1947.8 1250.06 1948.01 1250.41 1948.11 1250.79C1948.22 1251.17 1948.2 1251.58 1948.07 1251.95C1947.94 1252.33 1947.71 1252.66 1947.39 1252.9C1947.08 1253.14 1946.7 1253.28 1946.3 1253.3Z" fill="#1D1321"/>
<path d="M1917.1 1220H1916.6C1903.57 1216.73 1890.08 1215.68 1876.7 1216.9C1876.44 1216.93 1876.17 1216.9 1875.92 1216.83C1875.66 1216.75 1875.43 1216.63 1875.22 1216.46C1875.02 1216.29 1874.85 1216.09 1874.73 1215.85C1874.6 1215.62 1874.53 1215.36 1874.5 1215.1C1874.47 1214.84 1874.5 1214.58 1874.57 1214.33C1874.65 1214.09 1874.78 1213.86 1874.95 1213.66C1875.12 1213.46 1875.32 1213.3 1875.56 1213.19C1875.79 1213.08 1876.04 1213.01 1876.3 1213C1890.11 1211.67 1904.04 1212.72 1917.5 1216.1C1917.76 1216.16 1918 1216.27 1918.21 1216.42C1918.43 1216.57 1918.61 1216.77 1918.75 1216.99C1918.89 1217.21 1918.98 1217.46 1919.02 1217.72C1919.07 1217.98 1919.06 1218.24 1919 1218.5C1918.89 1218.92 1918.65 1219.3 1918.3 1219.57C1917.96 1219.84 1917.54 1219.99 1917.1 1220Z" fill="#1D1321"/>
<path d="M1606.3 1356.6L1528.1 1298.8C1526.37 1297.49 1525.22 1295.56 1524.89 1293.41C1524.55 1291.27 1525.06 1289.08 1526.3 1287.3L1671.3 1079.2L1671.5 1078.8L1709 1017.7C1709.38 1017.14 1709.68 1016.54 1709.9 1015.9L1758.2 864.1C1758.61 862.795 1759.35 861.613 1760.33 860.658C1761.31 859.704 1762.51 859.008 1763.83 858.632C1765.15 858.256 1766.54 858.211 1767.87 858.502C1769.21 858.793 1770.46 859.411 1771.5 860.3L1981.5 1037.9C1983.05 1039.21 1984.07 1041.04 1984.37 1043.05C1984.66 1045.06 1984.21 1047.1 1983.1 1048.8L1806.9 1321.4C1806.31 1322.28 1805.91 1323.26 1805.7 1324.3L1780 1461.6C1779.76 1462.97 1779.18 1464.26 1778.31 1465.35C1777.44 1466.44 1776.31 1467.29 1775.03 1467.83C1773.74 1468.37 1772.34 1468.58 1770.96 1468.43C1769.57 1468.28 1768.25 1467.79 1767.1 1467L1606.3 1356.6Z" fill="white"/>
<path d="M1689.6 1068.1L1792.1 894.7C1793.35 892.589 1795.01 890.75 1796.99 889.291C1798.96 887.832 1801.21 886.783 1803.59 886.205C1805.98 885.628 1808.46 885.533 1810.88 885.927C1813.3 886.321 1815.62 887.196 1817.7 888.5L1976.1 988.6C1980 991.081 1982.82 994.929 1984.03 999.389C1985.23 1003.85 1984.72 1008.6 1982.6 1012.7L1875.9 1215.5L1752.9 1478.4C1751.8 1480.74 1750.23 1482.82 1748.27 1484.5C1746.31 1486.19 1744.02 1487.44 1741.55 1488.18C1739.08 1488.91 1736.47 1489.12 1733.91 1488.78C1731.35 1488.44 1728.9 1487.56 1726.7 1486.2L1558.4 1382.1C1554.57 1379.73 1551.75 1376.03 1550.48 1371.72C1549.21 1367.4 1549.57 1362.77 1551.5 1358.7L1688.8 1069.6L1689.6 1068.1Z" fill="#E05F75"/>
<path d="M1603.9 1371.2L1549 1343.5C1548.18 1343.07 1547.56 1342.34 1547.28 1341.46C1547 1340.58 1547.08 1339.62 1547.5 1338.8L1787.9 861.3C1788.12 860.862 1788.43 860.475 1788.8 860.163C1789.18 859.851 1789.62 859.622 1790.09 859.49C1790.56 859.358 1791.05 859.326 1791.54 859.397C1792.02 859.468 1792.49 859.639 1792.9 859.9L1984.1 977.9C1984.89 978.379 1985.47 979.145 1985.71 980.039C1985.95 980.933 1985.84 981.886 1985.4 982.7L1722.3 1439.7C1722.07 1440.12 1721.76 1440.48 1721.39 1440.77C1721.02 1441.07 1720.59 1441.28 1720.13 1441.4C1719.67 1441.52 1719.19 1441.55 1718.72 1441.48C1718.25 1441.41 1717.8 1441.25 1717.4 1441L1604.1 1371.3L1603.9 1371.2Z" fill="#FE8676"/>
<path d="M1868.7 1225L1875.9 1215.5C1875.9 1215.5 1974.4 1279.6 1976.1 1298.2C1977.8 1316.8 1995.5 1382.8 1982 1404C1968.5 1425.2 1910.1 1453.9 1886.4 1452.2C1862.7 1450.5 1802.6 1412.4 1794.1 1398.9C1785.6 1385.4 1777.7 1333.9 1777.7 1333.9L1868.7 1225Z" fill="white"/>
<path d="M1808.1 1141.7C1808.1 1141.7 1785.1 1043.3 1778 1036.8C1770.9 1030.3 1717.3 1010 1707.3 1002.6C1697.3 995.2 1694 996.2 1693.4 1005C1692.8 1013.8 1701.1 1031.2 1701.1 1031.2C1701.1 1031.2 1683.1 1026.2 1672.8 1034.2C1669.88 1036.34 1667.65 1039.29 1666.38 1042.68C1665.12 1046.08 1664.88 1049.77 1665.7 1053.3C1665.7 1053.3 1649.5 1057.2 1647.2 1065.1C1645.74 1069.72 1645.74 1074.68 1647.2 1079.3C1647.2 1079.3 1637.5 1082.8 1635.6 1090C1633.7 1097.2 1637.9 1108.7 1637.9 1108.7C1637.9 1108.7 1630.7 1116.4 1630.4 1123.8C1630.1 1131.2 1655.4 1170.6 1660.1 1178C1664.8 1185.4 1735.6 1211.9 1742.7 1225.4C1749.8 1238.9 1776.8 1349.8 1798.1 1377.5C1819.4 1405.2 1862.9 1435.3 1882.3 1438.2C1901.7 1441.1 1934.8 1435.8 1944.8 1418.2C1954.8 1400.6 1971.2 1395.2 1964.5 1353.4C1957.8 1311.6 1940.7 1279.1 1881.2 1234.9C1821.7 1190.7 1808.1 1141.7 1808.1 1141.7Z" fill="#FFC7D2"/>
<path d="M1677.2 1142.5C1676.9 1142.49 1676.62 1142.42 1676.36 1142.28C1676.09 1142.14 1675.87 1141.94 1675.7 1141.7C1664.89 1128.76 1651.68 1118.03 1636.8 1110.1C1636.36 1109.83 1636.03 1109.4 1635.88 1108.9C1635.73 1108.41 1635.77 1107.87 1636 1107.4C1636.11 1107.16 1636.28 1106.95 1636.48 1106.78C1636.68 1106.6 1636.92 1106.48 1637.17 1106.4C1637.43 1106.33 1637.69 1106.3 1637.96 1106.34C1638.22 1106.37 1638.47 1106.46 1638.7 1106.6C1654.07 1114.74 1667.69 1125.81 1678.8 1139.2C1679.13 1139.61 1679.28 1140.14 1679.23 1140.66C1679.17 1141.19 1678.91 1141.67 1678.5 1142C1678.14 1142.31 1677.68 1142.49 1677.2 1142.5Z" fill="#F47382"/>
<path d="M1685.7 1109.2C1685.41 1109.21 1685.13 1109.15 1684.86 1109.03C1684.6 1108.91 1684.38 1108.73 1684.2 1108.5C1673.97 1097.07 1661.86 1087.46 1648.4 1080.1C1647.94 1079.85 1647.59 1079.42 1647.44 1078.91C1647.29 1078.41 1647.35 1077.86 1647.6 1077.4C1647.87 1076.96 1648.3 1076.63 1648.8 1076.48C1649.29 1076.33 1649.83 1076.38 1650.3 1076.6C1664.19 1084.17 1676.68 1094.08 1687.2 1105.9C1687.54 1106.3 1687.71 1106.82 1687.67 1107.34C1687.64 1107.87 1687.39 1108.35 1687 1108.7C1686.63 1108.99 1686.17 1109.17 1685.7 1109.2Z" fill="#F47382"/>
<path d="M1709.6 1086C1709.32 1085.99 1709.04 1085.92 1708.78 1085.8C1708.52 1085.68 1708.29 1085.51 1708.1 1085.3C1696.64 1071.67 1682.2 1060.86 1665.9 1053.7C1665.51 1053.44 1665.22 1053.05 1665.09 1052.59C1664.96 1052.14 1665 1051.66 1665.19 1051.23C1665.38 1050.8 1665.72 1050.45 1666.14 1050.24C1666.56 1050.04 1667.04 1049.99 1667.5 1050.1C1684.36 1057.45 1699.28 1068.61 1711.1 1082.7C1711.28 1082.89 1711.42 1083.12 1711.51 1083.37C1711.6 1083.62 1711.64 1083.88 1711.62 1084.14C1711.6 1084.41 1711.53 1084.66 1711.4 1084.9C1711.28 1085.13 1711.11 1085.34 1710.9 1085.5C1710.54 1085.81 1710.08 1085.99 1709.6 1086Z" fill="#F47382"/>
<path d="M1742.1 1055.8H1741.3C1726.62 1049.5 1712.44 1042.08 1698.9 1033.6C1698.46 1033.3 1698.16 1032.84 1698.05 1032.32C1697.94 1031.8 1698.03 1031.26 1698.3 1030.8C1698.43 1030.58 1698.61 1030.38 1698.82 1030.23C1699.03 1030.08 1699.27 1029.97 1699.52 1029.92C1699.77 1029.86 1700.03 1029.86 1700.29 1029.91C1700.54 1029.95 1700.79 1030.05 1701 1030.2C1714.36 1038.6 1728.37 1045.92 1742.9 1052.1C1743.39 1052.3 1743.78 1052.69 1743.99 1053.17C1744.19 1053.66 1744.2 1054.21 1744 1054.7C1743.82 1055.04 1743.54 1055.32 1743.2 1055.52C1742.87 1055.71 1742.49 1055.81 1742.1 1055.8Z" fill="#F47382"/>
<path d="M1784.4 1231.1C1768.17 1231.06 1752.13 1227.51 1737.4 1220.7C1737.17 1220.59 1736.96 1220.44 1736.78 1220.25C1736.61 1220.06 1736.48 1219.84 1736.39 1219.59C1736.31 1219.35 1736.28 1219.09 1736.29 1218.84C1736.31 1218.58 1736.38 1218.33 1736.5 1218.1C1736.6 1217.86 1736.74 1217.64 1736.93 1217.45C1737.12 1217.27 1737.34 1217.13 1737.58 1217.03C1737.83 1216.94 1738.09 1216.9 1738.35 1216.91C1738.61 1216.92 1738.87 1216.99 1739.1 1217.1C1754.71 1224.31 1771.82 1227.7 1789 1227C1789.26 1226.99 1789.52 1227.03 1789.76 1227.12C1790 1227.2 1790.22 1227.34 1790.41 1227.52C1790.6 1227.7 1790.74 1227.91 1790.85 1228.15C1790.95 1228.39 1791 1228.64 1791 1228.9C1791.01 1229.16 1790.98 1229.43 1790.89 1229.67C1790.8 1229.92 1790.66 1230.15 1790.49 1230.34C1790.31 1230.54 1790.1 1230.7 1789.86 1230.81C1789.62 1230.92 1789.36 1230.99 1789.1 1231L1784.4 1231.1Z" fill="#F47382"/>
<path d="M1779.5 1237.8C1779.14 1237.81 1778.79 1237.7 1778.5 1237.5L1771.7 1233.7C1771.24 1233.45 1770.89 1233.02 1770.74 1232.51C1770.59 1232.01 1770.65 1231.46 1770.9 1231C1771.15 1230.54 1771.58 1230.19 1772.09 1230.04C1772.59 1229.89 1773.14 1229.95 1773.6 1230.2L1780.5 1234.1C1780.87 1234.33 1781.15 1234.67 1781.31 1235.07C1781.47 1235.47 1781.49 1235.91 1781.38 1236.32C1781.27 1236.74 1781.02 1237.11 1780.68 1237.37C1780.35 1237.64 1779.93 1237.79 1779.5 1237.8Z" fill="#F47382"/>
<path d="M1906.9 1412.9C1906.52 1412.88 1906.15 1412.76 1905.83 1412.55C1905.52 1412.34 1905.26 1412.04 1905.1 1411.7C1904.9 1411.22 1904.89 1410.68 1905.07 1410.2C1905.26 1409.71 1905.63 1409.32 1906.1 1409.1C1915.29 1404.93 1924.12 1400.02 1932.5 1394.4C1936 1392 1940 1389.1 1942 1385.2C1942.24 1384.72 1942.66 1384.36 1943.16 1384.19C1943.67 1384.02 1944.22 1384.06 1944.7 1384.3C1945.18 1384.54 1945.54 1384.96 1945.71 1385.46C1945.88 1385.97 1945.84 1386.52 1945.6 1387C1943.1 1391.8 1938.7 1395 1934.7 1397.7C1926.16 1403.43 1917.16 1408.45 1907.8 1412.7L1906.9 1412.9Z" fill="#F47382"/>
<path d="M1912.2 1419.3C1911.81 1419.32 1911.42 1419.22 1911.1 1419C1910.77 1418.78 1910.53 1418.47 1910.4 1418.1C1910.28 1417.87 1910.21 1417.62 1910.19 1417.36C1910.17 1417.11 1910.21 1416.85 1910.29 1416.61C1910.38 1416.36 1910.51 1416.14 1910.68 1415.95C1910.86 1415.76 1911.07 1415.61 1911.3 1415.5C1914.16 1414.1 1917.32 1413.41 1920.5 1413.5C1921.03 1413.5 1921.54 1413.71 1921.91 1414.09C1922.29 1414.46 1922.5 1414.97 1922.5 1415.5C1922.5 1416.03 1922.29 1416.54 1921.91 1416.91C1921.54 1417.29 1921.03 1417.5 1920.5 1417.5H1920.3C1917.78 1417.48 1915.28 1418.03 1913 1419.1L1912.2 1419.3Z" fill="#F47382"/>
<path d="M1515.4 1134.9C1514.5 1174.1 1505 1247.5 1493.9 1327.6C1486.9 1377.9 1479.2 1430.8 1472.5 1479.5C1469.1 1504.8 1465.9 1529 1463.2 1551.1C1459.6 1580.8 1456.9 1606.8 1455.6 1626.8C1453.6 1659.1 1451.1 1692.5 1448.4 1723.6C1447.4 1735.6 1446.3 1747.3 1445.2 1758.4H1138.2C1141.3 1747.1 1144.6 1735.5 1147.9 1723.6C1163.8 1667.2 1181.2 1607.2 1192.7 1573.8C1218.7 1498.2 1260.4 1399.3 1262.7 1386.1C1264.3 1376.5 1258.7 1263 1255.6 1203.1C1254.5 1181.2 1253.7 1166.5 1253.7 1166.5L1222.6 853.4C1220.82 835.554 1225.14 817.631 1234.85 802.557C1244.57 787.482 1259.11 776.147 1276.1 770.4L1349.2 745.6L1410.5 724.7L1413.9 734.9L1419.7 752.4C1419.91 752.986 1420.08 753.588 1420.2 754.2C1421.3 757.3 1422.3 760.6 1423.5 764.1C1434 796.6 1449.6 845.7 1464.9 898.4C1473.7 928.7 1482.4 960.1 1490.1 990.3C1505.2 1049.7 1516.2 1104.2 1515.4 1134.9Z" fill="#5F4668"/>
<path d="M1515.4 1134.9C1514.5 1174.1 1505 1247.5 1493.9 1327.6C1493.7 1183 1393.6 980.3 1393.6 970.1C1393.6 959.9 1428.5 918.2 1428.5 918.2C1428.5 918.2 1342.8 874.2 1340.5 858.3C1338.2 842.4 1410.5 724.7 1410.5 724.7C1410.5 724.7 1517.7 1041.2 1515.4 1134.9Z" fill="#B898C1"/>
<path d="M1398.1 1269H1397.8C1357.7 1263.8 1312.2 1256 1278.4 1228.4C1277.99 1228.06 1277.73 1227.56 1277.68 1227.03C1277.64 1226.49 1277.81 1225.96 1278.15 1225.55C1278.49 1225.14 1278.99 1224.88 1279.52 1224.83C1280.06 1224.79 1280.59 1224.96 1281 1225.3C1313.9 1252.2 1358.8 1259.9 1398.3 1265C1398.83 1265.1 1399.31 1265.38 1399.64 1265.81C1399.97 1266.23 1400.13 1266.76 1400.1 1267.3C1400.03 1267.78 1399.79 1268.21 1399.42 1268.52C1399.05 1268.84 1398.58 1269.01 1398.1 1269Z" fill="#1D1321"/>
<path d="M1465.8 1268.9H1409.9C1409.37 1268.9 1408.86 1268.69 1408.49 1268.31C1408.11 1267.94 1407.9 1267.43 1407.9 1266.9C1407.9 1266.37 1408.11 1265.86 1408.49 1265.49C1408.86 1265.11 1409.37 1264.9 1409.9 1264.9H1465.8C1466.33 1264.9 1466.84 1265.11 1467.21 1265.49C1467.59 1265.86 1467.8 1266.37 1467.8 1266.9C1467.8 1267.43 1467.59 1267.94 1467.21 1268.31C1466.84 1268.69 1466.33 1268.9 1465.8 1268.9Z" fill="#1D1321"/>
<path d="M1377.7 1324.8C1377.42 1324.84 1377.13 1324.77 1376.9 1324.6C1339.56 1306.77 1306.67 1280.84 1280.6 1248.7C1280.26 1248.27 1280.11 1247.73 1280.16 1247.19C1280.22 1246.65 1280.48 1246.15 1280.9 1245.8C1281.32 1245.49 1281.84 1245.36 1282.36 1245.41C1282.88 1245.47 1283.35 1245.71 1283.7 1246.1C1309.36 1277.83 1341.78 1303.42 1378.6 1321C1378.84 1321.12 1379.05 1321.28 1379.22 1321.48C1379.4 1321.68 1379.53 1321.91 1379.61 1322.16C1379.7 1322.41 1379.73 1322.68 1379.71 1322.94C1379.69 1323.21 1379.62 1323.46 1379.5 1323.7C1379.34 1324.04 1379.09 1324.33 1378.77 1324.52C1378.45 1324.72 1378.08 1324.82 1377.7 1324.8Z" fill="#1D1321"/>
<path d="M1305.8 1416.1C1305.27 1416.09 1304.77 1415.88 1304.4 1415.5L1280.1 1390.8C1279.81 1390.41 1279.67 1389.94 1279.7 1389.46C1279.74 1388.98 1279.95 1388.53 1280.29 1388.19C1280.63 1387.85 1281.08 1387.64 1281.56 1387.61C1282.04 1387.57 1282.51 1387.71 1282.9 1388L1307.3 1412.7C1307.65 1413.09 1307.84 1413.6 1307.82 1414.12C1307.8 1414.64 1307.58 1415.14 1307.2 1415.5C1306.83 1415.88 1306.33 1416.09 1305.8 1416.1Z" fill="#1D1321"/>
<path d="M1301.6 1444.9C1301.27 1444.91 1300.95 1444.84 1300.66 1444.7C1300.36 1444.56 1300.1 1444.36 1299.9 1444.1C1287.21 1425.5 1276.04 1405.9 1266.5 1385.5C1266.38 1385.26 1266.32 1384.99 1266.3 1384.73C1266.29 1384.46 1266.33 1384.19 1266.43 1383.94C1266.52 1383.69 1266.66 1383.45 1266.85 1383.26C1267.03 1383.06 1267.25 1382.91 1267.5 1382.8C1267.98 1382.6 1268.52 1382.59 1269 1382.77C1269.49 1382.96 1269.88 1383.33 1270.1 1383.8C1279.56 1403.99 1290.63 1423.39 1303.2 1441.8C1303.35 1442.02 1303.46 1442.26 1303.52 1442.52C1303.58 1442.78 1303.58 1443.04 1303.53 1443.3C1303.49 1443.56 1303.39 1443.81 1303.25 1444.04C1303.1 1444.26 1302.92 1444.45 1302.7 1444.6L1301.6 1444.9Z" fill="#1D1321"/>
<path d="M1437.8 1207.6H1300.2C1298.48 1207.6 1296.82 1206.92 1295.6 1205.7C1294.38 1204.48 1293.7 1202.82 1293.7 1201.1V1187.9C1293.7 1186.18 1294.38 1184.52 1295.6 1183.3C1296.82 1182.08 1298.48 1181.4 1300.2 1181.4H1431.3C1433.02 1181.4 1434.68 1182.08 1435.9 1183.3C1437.11 1184.52 1437.8 1186.18 1437.8 1187.9V1207.6Z" fill="#B898C1"/>
<path d="M1451 1410.9C1458.23 1410.9 1464.1 1405.04 1464.1 1397.8C1464.1 1390.57 1458.23 1384.7 1451 1384.7C1443.76 1384.7 1437.9 1390.57 1437.9 1397.8C1437.9 1405.04 1443.76 1410.9 1451 1410.9Z" fill="#B898C1"/>
<path d="M1424.7 1551.4C1431.94 1551.4 1437.8 1545.54 1437.8 1538.3C1437.8 1531.07 1431.94 1525.2 1424.7 1525.2C1417.47 1525.2 1411.6 1531.07 1411.6 1538.3C1411.6 1545.54 1417.47 1551.4 1424.7 1551.4Z" fill="#B898C1"/>
<path d="M1278.9 997.7C1278.9 997.7 1289.3 1079 1281.6 1173.8C1273.9 1268.6 1263.3 1289.4 1263.3 1289.4L1252.8 1158L1278.9 997.7Z" fill="#3F2847"/>
<path d="M1242.6 792.1C1242.6 792.1 1201.6 821.6 1178.7 856.3C1155.8 891 1088 1105.5 1077.7 1125.4C1067.4 1145.3 1061.4 1146.8 1055.5 1142.4C1049.6 1138 1038.6 1127.7 1034.1 1131.3C1029.6 1134.9 1034.1 1178.5 1034.1 1178.5C1034.1 1178.5 1028.2 1242.7 1022.3 1256C1016.4 1269.3 985.5 1303.2 989.2 1318.7C992.9 1334.2 999.5 1341.5 1011.3 1347.4C1023.1 1353.3 1054.3 1350.6 1054.3 1350.6C1054.3 1350.6 1098.1 1366.6 1105.4 1362.9C1112.7 1359.2 1126.3 1368.8 1172.8 1298C1219.3 1227.2 1278.2 1107 1281.2 1105.5C1284.2 1104 1283.9 769.3 1242.6 792.1Z" fill="#5F4668"/>
<path d="M1115.4 1238.5C1114.92 1238.51 1114.45 1238.34 1114.08 1238.02C1113.71 1237.71 1113.47 1237.28 1113.4 1236.8C1108.43 1201.53 1094.67 1168.07 1073.4 1139.5C1073.08 1139.08 1072.95 1138.54 1073.02 1138.02C1073.1 1137.49 1073.38 1137.02 1073.8 1136.7C1074.24 1136.42 1074.78 1136.31 1075.3 1136.4C1075.82 1136.5 1076.28 1136.78 1076.6 1137.2C1098.26 1166.31 1112.28 1200.38 1117.4 1236.3C1117.44 1236.56 1117.43 1236.82 1117.37 1237.07C1117.3 1237.33 1117.19 1237.56 1117.03 1237.77C1116.87 1237.98 1116.67 1238.15 1116.44 1238.27C1116.21 1238.4 1115.96 1238.48 1115.7 1238.5H1115.4Z" fill="#1D1321"/>
<path d="M1090.2 1182.5C1089.78 1182.5 1089.36 1182.36 1089.02 1182.11C1088.68 1181.86 1088.43 1181.5 1088.3 1181.1C1085.09 1169.98 1081.32 1159.04 1077 1148.3C1076.9 1148.05 1076.86 1147.79 1076.87 1147.52C1076.88 1147.25 1076.94 1146.99 1077.05 1146.75C1077.16 1146.5 1077.32 1146.29 1077.52 1146.11C1077.72 1145.93 1077.95 1145.79 1078.2 1145.7C1078.69 1145.53 1079.23 1145.54 1079.71 1145.75C1080.19 1145.95 1080.58 1146.33 1080.8 1146.8C1085.12 1157.67 1088.89 1168.75 1092.1 1180C1092.17 1180.25 1092.2 1180.51 1092.17 1180.77C1092.14 1181.03 1092.05 1181.28 1091.92 1181.5C1091.79 1181.73 1091.61 1181.93 1091.4 1182.08C1091.19 1182.23 1090.95 1182.34 1090.7 1182.4L1090.2 1182.5Z" fill="#1D1321"/>
<path d="M1281.6 1102.3C1281.18 1102.3 1280.76 1102.16 1280.42 1101.91C1280.08 1101.66 1279.83 1101.3 1279.7 1100.9C1268.38 1058.63 1252.1 1017.84 1231.2 979.4C1230.98 978.931 1230.93 978.395 1231.08 977.896C1231.23 977.397 1231.56 976.971 1232 976.7C1232.23 976.562 1232.48 976.473 1232.74 976.439C1233.01 976.405 1233.27 976.426 1233.53 976.502C1233.78 976.577 1234.02 976.705 1234.22 976.877C1234.42 977.049 1234.58 977.261 1234.7 977.5C1255.76 1016.2 1272.18 1057.25 1283.6 1099.8C1283.73 1100.32 1283.65 1100.86 1283.39 1101.33C1283.13 1101.79 1282.71 1102.14 1282.2 1102.3H1281.6Z" fill="#1D1321"/>
<path d="M1282.3 1110.7C1281.92 1110.72 1281.55 1110.62 1281.23 1110.42C1280.91 1110.23 1280.66 1109.94 1280.5 1109.6C1274.31 1096.49 1265.77 1084.63 1255.3 1074.6C1255.11 1074.42 1254.95 1074.21 1254.85 1073.96C1254.74 1073.72 1254.68 1073.46 1254.68 1073.2C1254.68 1072.94 1254.74 1072.68 1254.85 1072.44C1254.95 1072.19 1255.11 1071.98 1255.3 1071.8C1255.66 1071.42 1256.16 1071.2 1256.68 1071.18C1257.2 1071.16 1257.71 1071.35 1258.1 1071.7C1268.87 1082.07 1277.67 1094.3 1284.1 1107.8C1284.22 1108.04 1284.28 1108.31 1284.3 1108.57C1284.31 1108.84 1284.27 1109.11 1284.17 1109.36C1284.08 1109.61 1283.94 1109.85 1283.75 1110.04C1283.57 1110.24 1283.35 1110.39 1283.1 1110.5L1282.3 1110.7Z" fill="#1D1321"/>
<path d="M1278.9 1003.7H1278.8C1278.54 1003.7 1278.29 1003.65 1278.05 1003.55C1277.81 1003.44 1277.6 1003.3 1277.42 1003.11C1277.24 1002.92 1277.1 1002.7 1277.02 1002.46C1276.93 1002.22 1276.89 1001.96 1276.9 1001.7C1277.7 941.5 1278.6 879.2 1261.1 820.4L1260.5 818.3C1258.8 812.7 1257 806.9 1256.6 800.8C1256.57 800.542 1256.6 800.282 1256.67 800.035C1256.75 799.787 1256.88 799.558 1257.05 799.361C1257.22 799.165 1257.42 799.005 1257.66 798.891C1257.89 798.777 1258.14 798.712 1258.4 798.7C1258.66 798.672 1258.93 798.697 1259.18 798.773C1259.44 798.849 1259.67 798.974 1259.88 799.141C1260.08 799.308 1260.25 799.515 1260.37 799.748C1260.5 799.981 1260.58 800.237 1260.6 800.5C1261 806.1 1262.7 811.7 1264.3 817.1L1264.9 819.3C1282.6 878.6 1281.7 941.2 1280.9 1001.7C1280.9 1002.23 1280.69 1002.74 1280.31 1003.11C1279.94 1003.49 1279.43 1003.7 1278.9 1003.7Z" fill="#1D1321"/>
<path d="M753.1 936.6L786.1 1042L745.8 1038.1C745.8 1038.1 756.6 1033 755 1025.4C753.4 1017.8 746.7 1017.8 750.5 1016.5C754.3 1015.2 761.4 1010.2 760.5 997.4C759.6 984.6 745.7 985.3 749 980.4C752.3 975.5 758.2 963.8 754.4 956.1C750.6 948.4 744.5 950.6 749.1 946.5C750.451 945.243 751.509 943.705 752.2 941.995C752.891 940.284 753.199 938.442 753.1 936.6Z" fill="#3F2847"/>
<path d="M558.9 1156C558.9 1156 559.7 1129.6 545 1114.4C530.3 1099.2 501.1 1098.2 489.5 1097C477.9 1095.8 462.4 1097.6 463.3 1098.4C464.2 1099.2 473.9 1110.8 477.1 1123.3C480.3 1135.8 510.8 1181.1 558.9 1156Z" fill="#CCC729"/>
<path d="M569.2 1169.2C561.872 1158.56 553.086 1149 543.1 1140.8L542.3 1140.2C540.793 1135.75 538.989 1131.41 536.9 1127.2C536.6 1126.4 535.3 1126.9 535.7 1127.6C537.4 1131.2 538.9 1134.8 540.3 1138.5C534.8 1134.1 529.1 1129.9 523.2 1126C523.247 1125.89 523.271 1125.77 523.271 1125.65C523.271 1125.53 523.247 1125.41 523.2 1125.3C520.934 1121.39 518.962 1117.31 517.3 1113.1C517.274 1113.02 517.232 1112.95 517.178 1112.89C517.123 1112.82 517.057 1112.77 516.983 1112.73C516.908 1112.7 516.828 1112.68 516.745 1112.67C516.662 1112.66 516.579 1112.67 516.5 1112.7C516.421 1112.73 516.348 1112.77 516.285 1112.82C516.223 1112.88 516.171 1112.94 516.134 1113.02C516.097 1113.09 516.075 1113.17 516.069 1113.26C516.063 1113.34 516.074 1113.42 516.1 1113.5C517.568 1117.35 519.306 1121.09 521.3 1124.7L511.3 1118.1L502 1112.3C498.626 1110.09 495.119 1108.08 491.5 1106.3C490.7 1106 490.1 1107.2 490.9 1107.5C494.119 1109.05 497.226 1110.82 500.2 1112.8L508.5 1118C512.5 1120.53 516.5 1123.13 520.5 1125.8C510.166 1126.6 499.866 1127.6 489.6 1128.8C489.474 1128.87 489.372 1128.98 489.309 1129.1C489.245 1129.23 489.223 1129.38 489.245 1129.52C489.267 1129.66 489.332 1129.79 489.431 1129.9C489.53 1130 489.659 1130.07 489.8 1130.1C500.6 1128.8 511.4 1127.8 522.3 1127L524.8 1128.7C530.1 1132.4 535.3 1136.2 540.3 1140.3C529.674 1138.42 518.889 1137.58 508.1 1137.8C507.3 1137.8 507.4 1139.1 508.3 1139.1C519.566 1138.89 530.825 1139.82 541.9 1141.9H542.2C544.8 1144 547.2 1146.2 549.6 1148.4C546.189 1148.43 542.783 1148.67 539.4 1149.1C538.6 1149.2 538.7 1150.5 539.5 1150.4C543.151 1149.97 546.823 1149.73 550.5 1149.7H550.9L554.5 1153.3C559.522 1158.49 564.073 1164.11 568.1 1170.1C568.219 1170.25 568.392 1170.34 568.579 1170.36C568.767 1170.38 568.954 1170.32 569.1 1170.2C569.246 1170.08 569.338 1169.91 569.357 1169.72C569.376 1169.53 569.319 1169.35 569.2 1169.2Z" fill="#8D9B2A"/>
<path d="M581.3 1177.6C581.3 1177.6 590 1138.3 577.7 1114C565.4 1089.7 554.3 1092.3 551.5 1093.6C548.7 1094.9 540.5 1102.4 542.1 1106.3C543.7 1110.2 552.2 1124.2 561.9 1145.5C571.6 1166.8 568.6 1199.7 568.6 1199.7C575.539 1194.26 580.093 1186.33 581.3 1177.6Z" fill="#3F2847"/>
<path d="M588.8 1159.7C583.964 1163.07 578.475 1165.39 572.688 1166.51C566.901 1167.63 560.944 1167.52 555.2 1166.2C532.4 1161 497.2 1157.5 484 1180.3C463.7 1215.3 463.8 1264.9 500.6 1307.6C537.4 1350.3 565 1352.8 587.6 1334.5C600.1 1324.3 615.5 1347.7 639.2 1338.3C662.9 1328.9 696.7 1278.5 690 1229.2C683.3 1179.9 674.4 1145 632.5 1146.5C611.7 1147.2 597.7 1153.5 588.8 1159.7Z" fill="#FE8676"/>
<path d="M619.2 1161.1C631.4 1160 642.7 1165.9 653.1 1171.5C654.3 1172.2 655.6 1170.3 654.4 1169.7C643.3 1163.8 631.6 1157.7 618.7 1158.9C617.3 1159 617.7 1161.2 619.2 1161.1Z" fill="#FFB19C"/>
<path d="M658.2 1175.7C664.923 1183.25 669.179 1192.67 670.4 1202.7C670.6 1204.1 672.8 1203.7 672.6 1202.3C671.361 1191.85 666.926 1182.04 659.9 1174.2C659.701 1173.97 659.421 1173.84 659.121 1173.82C658.821 1173.8 658.526 1173.9 658.3 1174.1C658.075 1174.3 657.937 1174.58 657.919 1174.88C657.9 1175.18 658.001 1175.47 658.2 1175.7Z" fill="#FFB19C"/>
<path d="M672.8 1211.7C672.9 1212.1 672.9 1212.5 673 1212.9V1213.2V1216.2C672.986 1216.34 673.001 1216.49 673.044 1216.63C673.087 1216.77 673.157 1216.9 673.25 1217.01C673.343 1217.12 673.457 1217.21 673.586 1217.28C673.714 1217.35 673.855 1217.39 674 1217.4C674.144 1217.41 674.29 1217.4 674.429 1217.36C674.568 1217.31 674.697 1217.24 674.808 1217.15C674.92 1217.06 675.012 1216.94 675.079 1216.81C675.146 1216.69 675.187 1216.54 675.2 1216.4C675.283 1214.66 675.216 1212.92 675 1211.2C674.978 1211.06 674.925 1210.92 674.845 1210.8C674.765 1210.68 674.659 1210.58 674.535 1210.5C674.411 1210.42 674.273 1210.37 674.128 1210.36C673.984 1210.34 673.838 1210.36 673.7 1210.4C673.1 1210.5 672.8 1211 672.8 1211.7Z" fill="#FFB19C"/>
<path d="M652.608 1202.43C657.515 1197.12 654.418 1186.28 645.692 1178.22C636.965 1170.17 625.913 1167.95 621.007 1173.27C616.101 1178.59 619.197 1189.43 627.924 1197.48C636.65 1205.53 647.702 1207.75 652.608 1202.43Z" fill="#FFB19C"/>
<path d="M655 1228.1C659.308 1228.1 662.8 1224.61 662.8 1220.3C662.8 1215.99 659.308 1212.5 655 1212.5C650.692 1212.5 647.2 1215.99 647.2 1220.3C647.2 1224.61 650.692 1228.1 655 1228.1Z" fill="#FFB19C"/>
<path d="M1030.6 1642.5V1677.4C1030.6 1702.9 1002.9 1723.6 968.7 1723.6H311.3C277.1 1723.6 249.4 1702.9 249.4 1677.4V1642.5C249.4 1616.9 277.1 1596.2 311.3 1596.2H968.7C1002.9 1596.2 1030.6 1616.9 1030.6 1642.5Z" fill="#5F4668"/>
<path d="M465.9 1723.6H373.8C339.6 1723.6 311.9 1702.9 311.9 1677.4V1642.5C311.9 1616.9 339.6 1596.2 373.8 1596.2H465.9C431.7 1596.2 403.9 1616.9 403.9 1642.5V1677.4C403.9 1702.9 431.7 1723.6 465.9 1723.6Z" fill="#B898C1"/>
<path d="M998 1522.1C997.982 1531.94 995.94 1541.67 992 1550.68C988.06 1559.7 982.308 1567.8 975.1 1574.5C960.088 1588.55 940.262 1596.32 919.7 1596.2H736V1448H919.7C963 1448 998 1481.2 998 1522.1Z" fill="white"/>
<path d="M919.7 1596.7H735.5V1447.5H919.7C963.2 1447.5 998.5 1481 998.5 1522.1C998.5 1542.1 990.3 1560.8 975.4 1574.9C960.328 1589.06 940.379 1596.87 919.7 1596.7ZM736.5 1595.7H919.7C940.114 1595.86 959.807 1588.16 974.7 1574.2C981.876 1567.55 987.605 1559.49 991.528 1550.53C995.451 1541.56 997.484 1531.88 997.5 1522.1C997.5 1481.5 962.6 1448.5 919.7 1448.5H736.5V1595.7Z" fill="black"/>
<path d="M998 1522.1C997.982 1531.94 995.939 1541.67 992 1550.68C988.06 1559.7 982.307 1567.8 975.1 1574.5C960.087 1588.55 940.262 1596.32 919.7 1596.2H534.7V1578.2H556.6V1466H534.7V1448H919.7C963 1448 998 1481.2 998 1522.1Z" fill="#E05F75"/>
<path d="M639.1 1522.1C639.082 1531.94 637.04 1541.67 633.1 1550.68C629.16 1559.7 623.408 1567.8 616.2 1574.5C601.187 1588.55 581.362 1596.32 560.8 1596.2H175.8V1578.2H197.7V1466H175.8V1448H560.8C604.1 1448 639.1 1481.2 639.1 1522.1Z" fill="#FE8676"/>
<path d="M617.2 1522.1C617.2 1537.6 608.5 1551.6 594.3 1561.8C580.1 1572 560.6 1578.2 538.9 1578.2H197.7V1466H538.9C582.2 1466 617.2 1491.2 617.2 1522.1Z" fill="white"/>
<path d="M553.8 1491.4H416.5C416.102 1491.4 415.721 1491.24 415.439 1490.96C415.158 1490.68 415 1490.3 415 1489.9C415 1489.5 415.158 1489.12 415.439 1488.84C415.721 1488.56 416.102 1488.4 416.5 1488.4H553.8C554.198 1488.4 554.579 1488.56 554.861 1488.84C555.142 1489.12 555.3 1489.5 555.3 1489.9C555.3 1490.3 555.142 1490.68 554.861 1490.96C554.579 1491.24 554.198 1491.4 553.8 1491.4Z" fill="#C6BFD8"/>
<path d="M392.6 1491.4H211.8C211.402 1491.4 211.02 1491.24 210.739 1490.96C210.458 1490.68 210.3 1490.3 210.3 1489.9C210.3 1489.5 210.458 1489.12 210.739 1488.84C211.02 1488.56 211.402 1488.4 211.8 1488.4H392.6C392.998 1488.4 393.379 1488.56 393.66 1488.84C393.942 1489.12 394.1 1489.5 394.1 1489.9C394.1 1490.3 393.942 1490.68 393.66 1490.96C393.379 1491.24 392.998 1491.4 392.6 1491.4Z" fill="#C6BFD8"/>
<path d="M479.5 1515.9H263C262.602 1515.9 262.221 1515.74 261.939 1515.46C261.658 1515.18 261.5 1514.8 261.5 1514.4C261.5 1514 261.658 1513.62 261.939 1513.34C262.221 1513.06 262.602 1512.9 263 1512.9H479.5C479.898 1512.9 480.279 1513.06 480.561 1513.34C480.842 1513.62 481 1514 481 1514.4C481.015 1514.6 480.986 1514.8 480.916 1514.99C480.846 1515.18 480.736 1515.35 480.594 1515.49C480.451 1515.64 480.28 1515.75 480.091 1515.82C479.902 1515.89 479.701 1515.91 479.5 1515.9Z" fill="#C6BFD8"/>
<path d="M312.7 1545.3H223.8C223.402 1545.3 223.02 1545.14 222.739 1544.86C222.458 1544.58 222.3 1544.2 222.3 1543.8C222.285 1543.6 222.313 1543.4 222.383 1543.21C222.454 1543.02 222.564 1542.85 222.706 1542.71C222.848 1542.56 223.02 1542.45 223.209 1542.38C223.397 1542.31 223.599 1542.29 223.8 1542.3H312.7C312.901 1542.29 313.102 1542.31 313.291 1542.38C313.48 1542.45 313.651 1542.56 313.794 1542.71C313.936 1542.85 314.046 1543.02 314.116 1543.21C314.186 1543.4 314.215 1543.6 314.2 1543.8C314.2 1544.2 314.042 1544.58 313.76 1544.86C313.479 1545.14 313.098 1545.3 312.7 1545.3Z" fill="#C6BFD8"/>
<path d="M551 1545.3H392.6C392.202 1545.3 391.821 1545.14 391.539 1544.86C391.258 1544.58 391.1 1544.2 391.1 1543.8C391.1 1543.4 391.258 1543.02 391.539 1542.74C391.821 1542.46 392.202 1542.3 392.6 1542.3H551C551.398 1542.3 551.779 1542.46 552.061 1542.74C552.342 1543.02 552.5 1543.4 552.5 1543.8C552.5 1544.2 552.342 1544.58 552.061 1544.86C551.779 1545.14 551.398 1545.3 551 1545.3Z" fill="#C6BFD8"/>
<path d="M443.1 1559.6H307.1C306.702 1559.6 306.321 1559.44 306.039 1559.16C305.758 1558.88 305.6 1558.5 305.6 1558.1C305.6 1557.7 305.758 1557.32 306.039 1557.04C306.321 1556.76 306.702 1556.6 307.1 1556.6H443.1C443.498 1556.6 443.879 1556.76 444.161 1557.04C444.442 1557.32 444.6 1557.7 444.6 1558.1C444.6 1558.5 444.442 1558.88 444.161 1559.16C443.879 1559.44 443.498 1559.6 443.1 1559.6Z" fill="#C6BFD8"/>
<path d="M416.5 1514.4V1690L441.1 1663.2L465 1690V1514.4H416.5Z" fill="#CCC729"/>
<path d="M306.3 1394.9C306.323 1402.06 307.818 1409.13 310.691 1415.69C313.563 1422.24 317.753 1428.13 323 1433C333.871 1443.24 348.267 1448.9 363.2 1448.8H643.2V1435.7H627.2V1354.1H643.2V1341H363.2C331.8 1341 306.3 1365.1 306.3 1394.9Z" fill="#8D9B2A"/>
<path d="M306.3 1394.9C306.323 1402.06 307.818 1409.13 310.691 1415.69C313.563 1422.24 317.753 1428.13 323 1433C333.871 1443.24 348.267 1448.9 363.2 1448.8H643.2V1435.7H627.2V1354.1H643.2V1341H363.2C331.8 1341 306.3 1365.1 306.3 1394.9Z" fill="#8D9B2A"/>
<path d="M378.9 1433C389.771 1443.24 404.167 1448.9 419.1 1448.8H394.1C379.167 1448.9 364.771 1443.24 353.9 1433C348.653 1428.13 344.463 1422.24 341.59 1415.69C338.718 1409.13 337.223 1402.06 337.2 1394.9C337.2 1365.2 362.7 1341 394.1 1341H419.1C387.7 1341 362.2 1365.2 362.2 1394.9C362.223 1402.06 363.718 1409.13 366.59 1415.69C369.463 1422.24 373.653 1428.13 378.9 1433Z" fill="#CCC729"/>
<path d="M434.3 1433C445.208 1443.24 459.637 1448.9 474.6 1448.8H449.6C434.635 1448.91 420.202 1443.25 409.3 1433C404.054 1428.13 399.864 1422.24 396.991 1415.69C394.118 1409.13 392.623 1402.06 392.6 1394.9C392.6 1365.2 418.1 1341 449.6 1341H474.6C443.1 1341 417.7 1365.2 417.7 1394.9C417.705 1402.05 419.181 1409.12 422.037 1415.68C424.893 1422.23 429.067 1428.13 434.3 1433Z" fill="#CCC729"/>
<path d="M567.3 1394.9C567.304 1402.05 568.781 1409.12 571.636 1415.68C574.492 1422.23 578.667 1428.13 583.9 1433C594.808 1443.24 609.237 1448.9 624.2 1448.8H904.1V1435.7H888.2V1354.1H904.1V1341H624.2C592.8 1341 567.3 1365.1 567.3 1394.9Z" fill="#CCC729"/>
<path d="M583.2 1394.9C583.2 1406.2 589.5 1416.4 599.9 1423.7C610.3 1431 624.4 1435.7 640.1 1435.7H888.2V1354.1H640.1C608.7 1354.1 583.2 1372.4 583.2 1394.9Z" fill="white"/>
<path d="M729.2 1373H629.3C628.902 1373 628.52 1372.84 628.239 1372.56C627.958 1372.28 627.8 1371.9 627.8 1371.5C627.8 1371.1 627.958 1370.72 628.239 1370.44C628.52 1370.16 628.902 1370 629.3 1370H729.2C729.598 1370 729.979 1370.16 730.26 1370.44C730.542 1370.72 730.7 1371.1 730.7 1371.5C730.7 1371.9 730.542 1372.28 730.26 1372.56C729.979 1372.84 729.598 1373 729.2 1373Z" fill="#C6BFD8"/>
<path d="M877.9 1373H746.5C746.102 1373 745.721 1372.84 745.439 1372.56C745.158 1372.28 745 1371.9 745 1371.5C745 1371.1 745.158 1370.72 745.439 1370.44C745.721 1370.16 746.102 1370 746.5 1370H877.9C878.298 1370 878.679 1370.16 878.961 1370.44C879.242 1370.72 879.4 1371.1 879.4 1371.5C879.4 1371.9 879.242 1372.28 878.961 1372.56C878.679 1372.84 878.298 1373 877.9 1373Z" fill="#C6BFD8"/>
<path d="M840.7 1390.8H683.3C682.902 1390.8 682.52 1390.64 682.239 1390.36C681.958 1390.08 681.8 1389.7 681.8 1389.3C681.8 1388.9 681.958 1388.52 682.239 1388.24C682.52 1387.96 682.902 1387.8 683.3 1387.8H840.7C841.098 1387.8 841.479 1387.96 841.76 1388.24C842.042 1388.52 842.2 1388.9 842.2 1389.3C842.215 1389.5 842.186 1389.7 842.116 1389.89C842.046 1390.08 841.936 1390.25 841.794 1390.39C841.651 1390.54 841.48 1390.65 841.291 1390.72C841.102 1390.79 840.901 1390.82 840.7 1390.8Z" fill="#C6BFD8"/>
<path d="M869.3 1412.1H804.6C804.399 1412.12 804.198 1412.09 804.009 1412.02C803.82 1411.95 803.649 1411.84 803.506 1411.69C803.364 1411.55 803.254 1411.38 803.184 1411.19C803.114 1411 803.085 1410.8 803.1 1410.6C803.1 1410.2 803.258 1409.82 803.539 1409.54C803.821 1409.26 804.202 1409.1 804.6 1409.1H869.3C869.698 1409.1 870.079 1409.26 870.361 1409.54C870.642 1409.82 870.8 1410.2 870.8 1410.6C870.8 1411 870.642 1411.38 870.361 1411.66C870.079 1411.94 869.698 1412.1 869.3 1412.1Z" fill="#C6BFD8"/>
<path d="M746.5 1412.1H631.3C630.902 1412.1 630.52 1411.94 630.239 1411.66C629.958 1411.38 629.8 1411 629.8 1410.6C629.8 1410.2 629.958 1409.82 630.239 1409.54C630.52 1409.26 630.902 1409.1 631.3 1409.1H746.5C746.898 1409.1 747.279 1409.26 747.56 1409.54C747.842 1409.82 748 1410.2 748 1410.6C748 1411 747.842 1411.38 747.56 1411.66C747.279 1411.94 746.898 1412.1 746.5 1412.1Z" fill="#C6BFD8"/>
<path d="M808.6 1422.6H709.8C709.402 1422.6 709.02 1422.44 708.739 1422.16C708.458 1421.88 708.3 1421.5 708.3 1421.1C708.3 1420.7 708.458 1420.32 708.739 1420.04C709.02 1419.76 709.402 1419.6 709.8 1419.6H808.6C808.801 1419.59 809.002 1419.61 809.191 1419.68C809.38 1419.75 809.551 1419.86 809.694 1420.01C809.836 1420.15 809.946 1420.32 810.016 1420.51C810.086 1420.7 810.115 1420.9 810.1 1421.1C810.1 1421.5 809.942 1421.88 809.66 1422.16C809.379 1422.44 808.998 1422.6 808.6 1422.6Z" fill="#C6BFD8"/>
<path d="M2065 1741C2064.95 1743.38 2064.36 1745.72 2063.29 1747.85C2062.22 1749.98 2060.68 1751.84 2058.8 1753.3C2054.48 1756.65 2049.16 1758.45 2043.7 1758.4H41.8C30 1758.4 20.5 1750.6 20.5 1741C20.5 1736.2 22.9 1731.9 26.7 1728.7C31.0168 1725.35 36.3364 1723.55 41.8 1723.6H2043.7C2055.5 1723.6 2065 1731.4 2065 1741Z" fill="#C6BFD8"/>
<path d="M781.9 1098.2C777.023 1099.19 771.95 1098.34 767.665 1095.81C763.379 1093.28 760.184 1089.25 758.7 1084.5L584.7 513.7C584.053 511.643 584.221 509.417 585.171 507.481C586.12 505.545 587.777 504.048 589.8 503.3C590.752 502.909 591.771 502.705 592.8 502.7C594.559 502.705 596.274 503.257 597.707 504.278C599.139 505.299 600.22 506.739 600.8 508.4L796.5 1072.2C797.427 1074.86 797.778 1077.69 797.53 1080.5C797.282 1083.31 796.439 1086.03 795.059 1088.49C793.678 1090.95 791.792 1093.09 789.523 1094.76C787.254 1096.43 784.656 1097.61 781.9 1098.2Z" fill="#3F2847"/>
<path d="M1034.1 1131.3C1034.1 1131.3 896 1003.5 882.7 994.2C869.4 984.9 839.5 938.1 837 932.7C834.5 927.3 813.9 877.2 806.5 873.2C799.1 869.2 749 879.1 725.9 880.1C702.8 881.1 685.1 873.7 687.5 885C689.9 896.3 701.3 906.3 701.3 906.3C701.3 906.3 642.3 909.1 644.8 924.9C647.3 940.7 663 948.5 663 948.5C663 948.5 653.1 953.9 658.5 967.6C663.9 981.3 677.2 986.3 677.2 986.3C677.2 986.3 668.4 995.2 674.3 1004.5C680.2 1013.8 691 1015.8 691 1015.8C691 1015.8 688 1025.6 692.9 1032C697.8 1038.4 789.3 1037 796.7 1045.8C804.1 1054.6 821.3 1103.8 866.5 1180.5C911.7 1257.2 960.7 1297.4 970.7 1303.9C980.7 1310.4 1009.6 1316.7 1009.6 1316.7C1009.6 1316.7 1073.8 1167.9 1034.1 1131.3Z" fill="#FFC7D2"/>
<path d="M982.5 1306.9C982.5 1306.9 1016.4 1249.8 1019.9 1239.5C1023.4 1229.2 1026.3 1125 1027.8 1124.5C1029.3 1124 1069 1134 1070.5 1137.4C1072 1140.8 1082.3 1270.5 1081.8 1277.4C1081.3 1284.3 1063.2 1354.2 1057.3 1355.3C1051.4 1356.4 1002.2 1358 992.8 1348.7C983.4 1339.4 972.7 1323.6 982.5 1306.9Z" fill="#F9F3FF"/>
<path d="M801.6 1008C801.212 1008.01 800.83 1007.9 800.5 1007.7C761 981.9 763.5 946.9 765.2 936.8C727.2 937.8 700.9 908.9 699.8 907.7C699.453 907.284 699.28 906.75 699.317 906.21C699.354 905.67 699.599 905.164 700 904.8C700.399 904.459 700.917 904.289 701.441 904.326C701.965 904.364 702.453 904.606 702.8 905C703 905.3 729 933.7 765 932.8C765.602 932.797 766.197 932.919 766.748 933.161C767.3 933.402 767.794 933.756 768.2 934.2C768.591 934.646 768.875 935.174 769.031 935.746C769.187 936.318 769.21 936.918 769.1 937.5C767.5 947 765.2 979.9 802.7 1004.3C803.136 1004.6 803.44 1005.06 803.551 1005.58C803.662 1006.1 803.573 1006.64 803.3 1007.1C803.109 1007.37 802.855 1007.6 802.559 1007.76C802.263 1007.91 801.934 1008 801.6 1008Z" fill="#F47382"/>
<path d="M721.9 952.3C701 952.3 674.2 951 662.8 950.5C662.537 950.475 662.281 950.398 662.048 950.274C661.815 950.149 661.608 949.98 661.441 949.775C661.273 949.571 661.148 949.335 661.073 949.082C660.997 948.829 660.972 948.563 661 948.3C660.996 948.036 661.05 947.775 661.159 947.534C661.268 947.293 661.428 947.08 661.628 946.908C661.829 946.736 662.064 946.611 662.319 946.54C662.573 946.47 662.84 946.456 663.1 946.5C700.7 948.4 742.9 949.2 746.8 946.8C750.7 944.4 752.1 937.9 749.9 935.1C749.57 934.688 749.417 934.163 749.473 933.638C749.53 933.114 749.791 932.633 750.2 932.3C750.398 932.123 750.631 931.99 750.883 931.909C751.136 931.828 751.402 931.801 751.666 931.829C751.93 931.857 752.185 931.941 752.415 932.073C752.644 932.206 752.844 932.385 753 932.6C756.9 937.6 755.2 945.4 749.2 950C747 951.8 735.8 952.3 721.9 952.3Z" fill="#F47382"/>
<path d="M703.3 989C690.6 989 679.7 988.5 677.1 988.3C676.837 988.288 676.58 988.223 676.342 988.111C676.104 987.998 675.891 987.84 675.714 987.645C675.538 987.45 675.401 987.221 675.313 986.974C675.225 986.726 675.186 986.463 675.2 986.2C675.25 985.679 675.493 985.195 675.881 984.843C676.27 984.492 676.776 984.298 677.3 984.3C701.5 985.7 741.9 985.5 747.5 979.1C753.1 972.7 754.8 964.4 752.7 958.4C751.4 954.6 748.4 952.2 743.9 951.4C743.385 951.303 742.929 951.007 742.63 950.577C742.331 950.147 742.212 949.617 742.3 949.1C742.397 948.586 742.693 948.13 743.123 947.83C743.553 947.531 744.083 947.413 744.6 947.5C752.1 948.8 755.2 953.5 756.5 957.1C759.1 964.4 756.5 974.8 750.5 981.7C744.5 988.6 722.3 989 703.3 989Z" fill="#F47382"/>
<path d="M729.8 1020.1C713 1020.1 694.2 1018.2 690.8 1017.8C690.537 1017.77 690.282 1017.7 690.05 1017.57C689.817 1017.45 689.611 1017.28 689.444 1017.07C689.277 1016.87 689.152 1016.63 689.075 1016.38C688.999 1016.13 688.973 1015.86 689 1015.6C689.026 1015.34 689.104 1015.08 689.229 1014.85C689.353 1014.62 689.523 1014.41 689.727 1014.24C689.931 1014.08 690.166 1013.95 690.419 1013.88C690.672 1013.8 690.937 1013.77 691.2 1013.8C712.5 1016.1 748.5 1017.8 754.2 1012.8C758.3 1009.2 760 1001.4 758 995.1C756.9 991.7 753.7 985.8 744.7 984.9C744.437 984.874 744.182 984.796 743.95 984.671C743.717 984.546 743.511 984.377 743.344 984.173C743.177 983.969 743.052 983.733 742.975 983.481C742.899 983.228 742.873 982.963 742.9 982.7C742.926 982.437 743.004 982.183 743.128 981.95C743.253 981.717 743.423 981.512 743.627 981.344C743.831 981.177 744.066 981.052 744.319 980.976C744.572 980.9 744.837 980.874 745.1 980.9C753.3 981.7 759.4 986.4 761.8 993.9C764.2 1001.4 762.2 1011.2 756.8 1015.8C753.1 1019.1 742 1020.1 729.8 1020.1Z" fill="#F47382"/>
<path d="M743.1 1039.9C742.691 1039.89 742.293 1039.76 741.956 1039.53C741.618 1039.3 741.356 1038.98 741.2 1038.6C741.063 1038.08 741.12 1037.53 741.359 1037.06C741.599 1036.58 742.004 1036.2 742.5 1036C749 1033.9 752.6 1031.3 753 1028.3C753.4 1025.3 748.5 1020 746.5 1018.7C746.274 1018.56 746.079 1018.37 745.926 1018.15C745.773 1017.93 745.666 1017.69 745.61 1017.43C745.554 1017.17 745.551 1016.9 745.6 1016.63C745.65 1016.37 745.752 1016.12 745.9 1015.9C746.05 1015.68 746.242 1015.5 746.464 1015.35C746.686 1015.21 746.935 1015.11 747.195 1015.07C747.456 1015.02 747.723 1015.02 747.981 1015.08C748.239 1015.14 748.484 1015.25 748.7 1015.4C749.1 1015.6 757.9 1021.7 757 1028.9C756.3 1033.5 751.9 1037.2 743.8 1039.8L743.1 1039.9Z" fill="#F47382"/>
</svg>
