<svg width="2736" height="2499" viewBox="0 0 2736 2499" fill="none" xmlns="http://www.w3.org/2000/svg">
<path d="M2006.2 1031.23C1944 820.52 2123.74 601.77 2080.94 387C2057.2 267.84 1960.38 163.63 1836.81 124.27C1701.61 81.1902 1553.34 116.27 1431.89 190.27C1175.89 320.52 988.7 563.27 988.7 563.27C312.7 1225.77 257.81 1624.4 277.42 1791.27C278.78 1851.01 296.42 1908.87 336.42 1960.18C444.21 2098.39 611.74 2129.3 777.42 2093.11C943.1 2056.92 1095.71 1976.67 1263.42 1949.85C1397.64 1928.39 1538.3 1942.75 1664.27 1990.78C1758.87 2026.85 1846.27 2081.67 1946.51 2100.61C2113.78 2132.22 2290.91 2053.18 2395.67 1928.16C2465.67 1844.62 2508.55 1736.42 2488.55 1632.26C2440.5 1381.92 2078.53 1276.46 2006.2 1031.23Z" fill="#FFBA55"/>
<path d="M814.54 525.64C792.15 490.44 772.3 461.8 735.15 448.1C693.63 432.79 645.37 444.18 624.42 500.99C614.77 527.17 613.12 558.56 620.22 579.69L659.01 580.53C653.19 564.35 653.92 542.17 660.48 524.39C672.48 493.46 696.9 484.5 724.77 494.78C749.35 503.84 766.1 524.05 786.85 556.96C810.52 593.75 839.47 614.53 870.07 622.44L884.63 626.69L898.84 588.16L884.46 583.41C856.05 574.62 834.93 557.85 814.54 525.64Z" fill="#911A20"/>
<path d="M978.79 607C958.57 599.55 940 606.17 933.62 623.46C927.24 640.75 936.89 658.34 957.11 665.79C976.23 672.79 995.35 666.43 1001.73 649.13C1008.47 630.83 997.91 614 978.79 607Z" fill="#911A20"/>
<path d="M1047.44 397.84C1031.86 372.52 1027.01 345.99 1032.88 308.32C1039.22 267.09 1043.15 232.46 1024.22 197.69C1003.06 158.82 959.22 135.6 906.07 164.55C881.56 177.89 859.65 200.42 851.07 221L879.71 247.18C885.98 231.18 901.14 214.97 917.79 205.9C947.2 190.55 971.46 199.9 985.66 225.97C998.19 248.97 997.48 275.22 991.42 313.65C985 356.92 993.1 391.65 1010.91 417.73L1019.07 430.52L1055.14 410.89L1047.44 397.84Z" fill="#911A20"/>
<path d="M1058.08 460.33C1041.89 469.14 1037.57 488.73 1047.87 507.66C1057.61 525.56 1076.23 533.32 1092.41 524.51C1109.52 515.2 1112.64 495.6 1102.9 477.7C1092.6 458.78 1074.26 451.52 1058.08 460.33Z" fill="#911A20"/>
<path d="M2050.71 494C1935.05 589.53 1912.23 756.22 1992.2 881.11L1968.32 951.41L2043.47 941.93C2151.14 1040.18 2316.16 1047.75 2430.25 953.51C2555.39 850.15 2571.86 663.51 2467.05 536.61C2362.24 409.71 2175.84 390.67 2050.71 494Z" fill="#157C77"/>
<path d="M2024.34 451.86C1908.68 547.4 1885.86 714.09 1965.83 838.98L1941.96 909.28L2017.1 899.8C2124.78 998.05 2289.79 1005.62 2403.89 911.38C2529.02 808.02 2545.5 621.38 2440.69 494.48C2335.88 367.58 2149.47 348.51 2024.34 451.86Z" fill="#4CBFBC"/>
<path d="M2118.29 729.37C2107.23 732.021 2097.21 737.892 2089.48 746.241C2081.76 754.589 2076.69 765.04 2074.91 776.272C2073.12 787.504 2074.71 799.013 2079.47 809.342C2084.23 819.671 2091.94 828.358 2101.63 834.303C2111.33 840.248 2122.57 843.185 2133.93 842.742C2145.3 842.299 2156.27 838.497 2165.48 831.815C2174.68 825.133 2181.69 815.873 2185.63 805.204C2189.57 794.536 2190.26 782.939 2187.61 771.88C2184.05 757.051 2174.75 744.241 2161.75 736.269C2148.75 728.297 2133.12 725.815 2118.29 729.37Z" fill="white"/>
<path d="M2359.33 534.6C2357.39 532.812 2355.12 531.424 2352.65 530.514C2350.17 529.604 2347.55 529.19 2344.91 529.297C2342.28 529.404 2339.69 530.029 2337.3 531.136C2334.91 532.243 2332.76 533.811 2330.97 535.75L2188.16 690.67C2186.37 692.607 2184.99 694.876 2184.08 697.35C2183.17 699.823 2182.76 702.451 2182.86 705.083C2182.97 707.716 2183.59 710.302 2184.7 712.693C2185.81 715.084 2187.37 717.234 2189.31 719.02C2191.25 720.807 2193.52 722.194 2195.99 723.103C2198.47 724.012 2201.09 724.425 2203.73 724.319C2206.36 724.212 2208.95 723.587 2211.34 722.481C2213.73 721.374 2215.88 719.808 2217.67 717.87L2360.48 563C2364.09 559.087 2365.99 553.903 2365.77 548.587C2365.56 543.271 2363.24 538.258 2359.33 534.65V534.6Z" fill="white"/>
<path d="M804.42 780.49C714.49 687.33 565 685.74 470.52 776.93C376.04 868.12 372.37 1017.58 462.3 1110.74C545.42 1196.85 679.43 1204.74 773.84 1133.41L831.23 1148.07L819.06 1088.88C890.57 997.17 886.41 865.44 804.42 780.49Z" fill="#D6270B"/>
<path d="M843.37 763.13C753.44 669.97 603.95 668.37 509.48 759.56C415.01 850.75 411.32 1000.21 501.25 1093.37C584.38 1179.48 718.38 1187.37 812.79 1116.04L870.19 1130.7L858 1071.51C929.52 979.8 925.37 848.07 843.37 763.13Z" fill="#FE5A2C"/>
<path d="M162.51 1607.24H109.13V1660.62H162.51V1607.24Z" fill="#FFBA55"/>
<path d="M1492 44.3201C1397 46.1901 1321.5 123.64 1323.34 217.32C1325.04 303.9 1392.24 374.03 1477.42 382.68L1500.64 418.68L1523.32 381.3C1606.38 367.86 1669.02 295.94 1667.32 210.53C1665.46 116.88 1587 42.4501 1492 44.3201Z" fill="#10405F"/>
<path d="M1490.75 0.999836C1395.75 2.86984 1320.25 80.3298 1322.09 174C1323.79 260.59 1390.99 330.72 1476.16 339.36L1499.39 375.36L1522.07 338C1605.13 324.56 1667.77 252.65 1666.07 167.24C1664.24 73.5898 1585.74 -0.830164 1490.75 0.999836Z" fill="#16A3DB"/>
<path d="M1551.89 89.4898L1529.84 78.0698L1493.36 148.57L1420.82 115.53L1410.53 138.13L1481.94 170.65L1439.97 251.75L1462.03 263.16L1504.56 180.96L1588.49 219.18L1598.78 196.58L1515.99 158.87L1551.89 89.4898Z" fill="white"/>
<path d="M655.71 1870.06H527.73V1998.04H655.71V1870.06Z" fill="#FE5A2C"/>
<path d="M348.36 1087.79H220.38V1215.77H348.36V1087.79Z" fill="#FFBA55"/>
<path d="M427.18 401.57H299.2V529.55H427.18V401.57Z" fill="#4CBFBC"/>
<path d="M91.5901 1342.99H0.660156V1433.92H91.5901V1342.99Z" fill="#16A3DB"/>
<path d="M2378.43 1186.22H2287.5V1277.15H2378.43V1186.22Z" fill="#FFBA55"/>
<path d="M2735.34 1853.91H2583.1V2006.15H2735.34V1853.91Z" fill="#FE5A2C"/>
<path d="M1571.16 2188.83H1480.23V2279.76H1571.16V2188.83Z" fill="#FFBA55"/>
<path d="M249.09 2211.03H158.16V2301.96H249.09V2211.03Z" fill="#16A3DB"/>
<path d="M2664.55 956.95H2611.17V1010.33H2664.55V956.95Z" fill="#FF9A15"/>
<path d="M2633.55 1370.37H2580.17V1423.75H2633.55V1370.37Z" fill="#FFBA55"/>
<path d="M736.53 2190.58H683.15V2243.96H736.53V2190.58Z" fill="#FFBA55"/>
<path d="M2204.62 202.45H2151.24V255.83H2204.62V202.45Z" fill="#FFBA55"/>
<path d="M2390.2 2192.54H2336.82V2245.92H2390.2V2192.54Z" fill="#FFBA55"/>
<path d="M584.25 1350.73H486.58V1448.4H584.25V1350.73Z" fill="white"/>
<path d="M1018.45 1193.37H953.96V1257.86H1018.45V1193.37Z" fill="white"/>
<path d="M1054.98 1000.29H1016.58V1038.69H1054.98V1000.29Z" fill="white"/>
<path d="M1801.53 735.15H1763.13V773.55H1801.53V735.15Z" fill="white"/>
<path d="M1356.41 431.69H1318.01V470.09H1356.41V431.69Z" fill="white"/>
<path d="M964.4 741.98H933.09V773.29H964.4V741.98Z" fill="#4CBFBC"/>
<path d="M2162.84 1891.95H2065.17V1989.62H2162.84V1891.95Z" fill="white"/>
<path d="M1842.49 378.45H1744.82V476.12H1842.49V378.45Z" fill="#FE5A2C"/>
<path d="M2368.7 1713.04H2303.87V1777.87H2368.7V1713.04Z" fill="#16A3DB"/>
<path d="M1975.15 2419.7H1920.68V2474.17H1975.15V2419.7Z" fill="#4CBFBC"/>
<path d="M1051.91 2394.87H947.78V2499H1051.91V2394.87Z" fill="#FFBA55"/>
<path d="M1930.18 1173.33L1927.86 1176.68L1917.28 1221.52L1921.38 1283C1921.38 1283 1933.38 1222.55 1936.45 1200.18C1937.85 1190.07 1935.27 1179.79 1932.03 1171.55C1931.3 1172.01 1930.67 1172.62 1930.18 1173.33Z" fill="#FF6440"/>
<path d="M2213.39 1660.2C2209.78 1659.2 2206.16 1658.13 2202.54 1657.11C2202.66 1660.8 2202.79 1664.49 2202.91 1668.18L2213.39 1660.2Z" fill="#911A20"/>
<path d="M2321.39 1555.51L2265.65 1562.24L2238.75 1565.49C2229.95 1566.56 2220.75 1566.93 2212.07 1568.77C2202.89 1570.77 2199.91 1577.77 2200.16 1586.48C2200.42 1595.35 2200.76 1604.21 2201.06 1613.08C2201.55 1627.75 2202.05 1642.41 2202.54 1657.08C2206.16 1658.08 2209.78 1659.08 2213.39 1660.17L2202.91 1668.17C2202.79 1664.48 2202.66 1660.79 2202.54 1657.1C2161.98 1645.58 2121.05 1635.53 2079.74 1626.95C2069.35 1624.79 2064.9 1640.74 2075.34 1642.95C2120.31 1652.28 2164.86 1663.37 2208.99 1676.2C2213.99 1677.67 2219.64 1673.57 2219.46 1668.2C2218.92 1652.05 2218.38 1635.9 2217.83 1619.75C2217.57 1611.83 2217.3 1603.91 2217.03 1596L2216.81 1589.35C2216.92 1587.81 2216.95 1586.26 2216.89 1584.71C2216.27 1584.78 2215.66 1584.89 2215.06 1585.05C2216.24 1582.81 2216.77 1582.42 2216.64 1583.89C2216.77 1584.15 2216.85 1584.42 2216.89 1584.71C2217.12 1584.71 2217.36 1584.64 2217.6 1584.62C2219.52 1584.33 2221.45 1584.15 2223.37 1583.92L2321.37 1572.08C2325.81 1571.54 2329.65 1568.66 2329.65 1563.8C2329.67 1559.73 2325.86 1555 2321.39 1555.51Z" fill="#911A20"/>
<path d="M2215.06 1585C2215.66 1584.84 2216.27 1584.73 2216.89 1584.66C2216.85 1584.37 2216.77 1584.1 2216.64 1583.84C2216.77 1582.39 2216.25 1582.78 2215.06 1585Z" fill="#911A20"/>
<path d="M2092.11 1387.55L2092.77 1386.29C2092.83 1386.21 2092.89 1386.11 2092.95 1386.01C2092.51 1385.67 2092.02 1385.38 2091.51 1385.16L2092.11 1387.55Z" fill="#911A20"/>
<path d="M2151.83 1433C2149.1 1435.16 2146.4 1437.33 2143.69 1439.5L2153.5 1446C2152.94 1441.7 2152.38 1437.37 2151.83 1433Z" fill="#911A20"/>
<path d="M2205.55 1151.43C2186.55 1186.43 2166.66 1220.97 2147.1 1255.66C2125.5 1293.98 2103.75 1332.23 2082.45 1370.66C2080.89 1373.47 2079.21 1376.26 2077.82 1379.15C2075.3 1384.39 2074.68 1390.01 2078.24 1394.94C2081.42 1399.34 2087.24 1402.11 2091.68 1405.06L2143.68 1439.49C2146.39 1437.32 2149.09 1435.15 2151.82 1432.99C2152.37 1437.32 2152.93 1441.65 2153.49 1445.99L2143.68 1439.49C2110.55 1466.03 2078.4 1493.74 2047.24 1522.61C2039.42 1529.87 2051.14 1541.55 2058.95 1534.32C2092.62 1503.09 2127.48 1473.22 2163.52 1444.69C2167.96 1441.18 2165.81 1434.33 2161.84 1431.69C2144.41 1420.14 2126.98 1408.6 2109.53 1397.06L2096.85 1388.66C2096.57 1388.47 2094.42 1386.95 2092.94 1385.95C2092.88 1386.05 2092.82 1386.15 2092.76 1386.23L2092.1 1387.49L2091.5 1385.1C2092.01 1385.32 2092.5 1385.61 2092.94 1385.95C2093.07 1385.71 2093.19 1385.43 2093.3 1385.22C2094.52 1382.98 2095.76 1380.75 2096.99 1378.52C2105.66 1362.9 2114.39 1347.31 2123.18 1331.76C2146.93 1289.54 2170.71 1247.33 2194.5 1205.14C2202.99 1190.03 2211.5 1174.95 2219.83 1159.73C2224.93 1150.43 2210.65 1142.06 2205.55 1151.43Z" fill="#911A20"/>
<path d="M751.48 1765.13L749.89 1754.88C746.37 1756.64 742.84 1758.4 739.33 1760.19L751.48 1765.13Z" fill="#911A20"/>
<path d="M721.93 1672.67C720.457 1671.11 719.937 1670.94 720.37 1672.16C720.37 1672.29 720.42 1672.44 720.45 1672.58C721.07 1672.55 721.9 1672.54 721.93 1672.67Z" fill="#911A20"/>
<path d="M885.75 1692.89C839.75 1711.91 794.464 1732.58 749.89 1754.89L751.48 1765.14L739.33 1760.2C742.84 1758.41 746.33 1756.65 749.89 1754.89L740.68 1695.47C739.847 1690.06 739.01 1684.65 738.17 1679.25C737.35 1673.95 737.31 1667.46 734.35 1662.78C730.09 1656.05 722.75 1655.87 715.66 1656.28C697.18 1657.35 678.66 1657.74 660.15 1658.28C606.31 1659.74 552.47 1660.74 498.63 1662.18C478.46 1662.72 458.23 1663.05 438.09 1664.38C427.51 1665.09 427.44 1681.64 438.09 1680.93C480.25 1678.13 522.7 1678.09 564.94 1677.12C612.07 1676.03 659.25 1675.37 706.36 1673.33C709.92 1673.18 713.474 1673 717.02 1672.79C718.02 1672.73 719.02 1672.72 720.02 1672.61C719.47 1672.67 719.85 1672.61 720.4 1672.61C720.4 1672.47 720.4 1672.32 720.32 1672.19C719.893 1670.97 720.414 1671.14 721.88 1672.7C721.88 1672.57 721.02 1672.58 720.4 1672.61C720.51 1673.11 720.61 1673.61 720.68 1674.12C721.78 1680.46 722.68 1686.85 723.68 1693.21C727.62 1718.66 731.564 1744.11 735.51 1769.56C736.38 1775.18 743.42 1776.67 747.67 1774.51C794.29 1750.8 841.78 1728.92 890.14 1708.88C894.27 1707.18 897.21 1703.39 895.92 1698.7C894.86 1694.77 889.91 1691.17 885.75 1692.89Z" fill="#911A20"/>
<path d="M816.41 1447.31C816.225 1447.67 815.989 1448.01 815.71 1448.31C816.18 1449.15 816.41 1448.82 816.41 1447.31Z" fill="#911A20"/>
<path d="M757.64 1527.68C760.306 1525.06 763.003 1522.45 765.73 1519.85C762.483 1518.12 759.23 1516.39 755.97 1514.68C756.523 1519.01 757.08 1523.35 757.64 1527.68Z" fill="#911A20"/>
<path d="M893.86 1593.85C852.073 1567.62 809.363 1542.95 765.73 1519.85C763.03 1522.45 760.333 1525.06 757.64 1527.68C757.08 1523.34 756.523 1519.01 755.97 1514.68C759.23 1516.39 762.483 1518.12 765.73 1519.85C786.36 1499.98 807.39 1480.39 827.29 1459.85C832.63 1454.34 834.43 1447.38 830.41 1440.43C826.39 1433.48 820 1427.36 815 1421.2L784.6 1384L749.33 1340.88C746.5 1337.41 740.57 1337.94 737.63 1340.88C734.21 1344.3 734.79 1349.11 737.63 1352.58L809.38 1440.3C811 1442.3 812.67 1444.24 814.24 1446.3L815.46 1447.79C815.55 1448 815.64 1448.17 815.71 1448.31C815.989 1448.01 816.225 1447.67 816.41 1447.31C816.41 1448.82 816.18 1449.15 815.71 1448.31C814.71 1449.41 813.21 1450.48 812.36 1451.31L806.82 1456.7L787.45 1475.57L745.94 1516C742.26 1519.59 742.94 1526.54 747.61 1529C794.597 1553.57 840.563 1579.96 885.51 1608.17C894.55 1613.82 902.87 1599.5 893.86 1593.85Z" fill="#911A20"/>
<path d="M2014.56 1601.05L1990.37 1510.05C1989.42 1511.05 1988.47 1511.99 1987.52 1512.94L1964.52 1496.27L1968.76 1434.55L1978.27 1257.87L1992.27 1169.79L1988.57 1136.64L1986.09 1126.21C1985.86 1125.21 1985.39 1124.28 1984.72 1123.5C1984.06 1122.71 1983.21 1122.1 1982.26 1121.71C1981.32 1121.32 1980.29 1121.16 1979.26 1121.25C1978.24 1121.33 1977.25 1121.66 1976.38 1122.21C1975.65 1122.67 1975.02 1123.28 1974.53 1123.99L1972.21 1127.34L1961.63 1172.18L1960.48 1177.09L1956.48 1168.71L1949.2 971.18C1948.99 965.615 1947.7 960.145 1945.38 955.082C1943.06 950.019 1939.76 945.463 1935.68 941.673C1931.6 937.884 1926.82 934.935 1921.6 932.995C1916.38 931.056 1910.82 930.164 1905.26 930.37L1791.55 934.56C1777.94 937.95 1765.54 945.057 1755.74 955.087C1745.93 965.118 1739.11 977.676 1736.03 991.36L1746.64 1279.02C1746.87 1285.31 1748.49 1291.46 1751.4 1297.04C1754.3 1302.62 1758.41 1307.48 1763.43 1311.27C1763.36 1312.05 1763.36 1312.84 1763.43 1313.62C1764.15 1321.34 1771.21 1328.34 1771.21 1328.34L1810.84 1333.04L1843.13 1339.25L1844.92 1434.59L1873.98 1481.35L1859.44 1517.7L1859.3 1516.92C1859.3 1516.92 1858.85 1519.09 1858.04 1523.04C1857.96 1522.89 1857.92 1522.8 1857.92 1522.8L1855.21 1536.97C1854.59 1540.03 1853.91 1543.4 1853.21 1547.05C1822.21 1472.63 1788.36 1396.41 1768.66 1352.52C1762.35 1335.17 1756.66 1322.2 1751.73 1315.05C1747.44 1308.93 1742.6 1303.22 1737.27 1297.98L1734.44 1256.41L1724.71 1230.47L1692.71 1194.38L1670.71 1193L1663.71 1184.62C1658.65 1178.27 1654.71 1173.86 1654.71 1173.86L1627.97 1161.7L1597.24 1160.64C1597.24 1160.64 1583.24 1137.05 1574.06 1126.42C1571.35 1123.27 1568.06 1115.52 1564.81 1106.17L1595.69 1053.25C1600.9 1042.65 1605.14 1029.56 1605.83 1017.78L1607.25 1004.27C1612.73 1006.91 1618.68 1008.44 1624.75 1008.76C1630.83 1009.08 1636.91 1008.18 1642.63 1006.13C1648.36 1004.07 1653.61 1000.9 1658.1 996.785C1662.58 992.674 1666.2 987.711 1668.75 982.185C1671.29 976.66 1672.71 970.683 1672.92 964.603C1673.13 958.524 1672.12 952.464 1669.96 946.777C1667.8 941.09 1664.53 935.89 1660.34 931.482C1656.15 927.073 1651.12 923.544 1645.55 921.1C1653.08 913.834 1658.7 904.828 1661.93 894.874C1665.15 884.92 1665.88 874.326 1664.04 864.025C1662.2 853.725 1657.86 844.035 1651.39 835.811C1644.92 827.588 1636.53 821.082 1626.95 816.87L1629.38 793.8L1631.46 773.96C1638.51 771.03 1645.38 767.664 1652.01 763.88L1705.25 692.05L1727.84 609.71C1727.84 609.71 1661.29 636.62 1644.84 633.71C1628.39 630.8 1611.52 614 1611.52 614L1656.32 565.77C1656.32 565.77 1572.32 561.88 1551.41 562.65C1530.5 563.42 1469.93 519.27 1469.93 519.27C1469.93 519.27 1397.63 496.04 1362.14 512.49C1326.65 528.94 1292.76 586.62 1292.76 586.62L1263 569.73C1255.03 562.625 1244.77 558.635 1234.1 558.493C1223.43 558.352 1213.06 562.069 1204.91 568.96L1145.65 619.07L1105.76 746.52C1100.28 764.016 1099.24 782.604 1102.76 800.6L1120.28 890.24L1190.23 964.14L1251.23 1011.57L1283.23 1049.48C1281.42 1067.32 1278.97 1101.48 1277.39 1124.54C1254.77 1104.46 1240.65 1091.09 1240.65 1091.09L1281.57 1065.34L1231.27 1076L1159.72 1228.63L1136.27 1243.55L1138.96 1244.02L1051.22 1303.02L1021.06 1375.62C1021.06 1375.62 1037.45 1492.68 1048.65 1588.13L1058.79 1829.43L1062.54 2012.29L1114.46 2053.7L1172.28 2045.4C1185.28 2044.19 1199.51 2042.55 1214.28 2040.62L1226.15 2039.96L1263.39 2033.6C1303.3 2027.44 1343.45 2020.34 1374.6 2014.6L1554.13 1983.9C1563.33 1981.37 1903.45 1895.9 1903.45 1895.9C1903.45 1895.9 1903.45 1895.72 1903.35 1895.4C1907.43 1894.19 1910.67 1893.08 1912.85 1892.28C1955.7 1880.61 1978.65 1858.4 1992.79 1836.02C2002.79 1820.28 2014.79 1784.25 2013.13 1765.7L2001.08 1627.22C2006.22 1619.02 2010.75 1610.45 2014.64 1601.58L2014.56 1601.05ZM1573 1197.5L1571.36 1195.5L1558 1190.7C1545.19 1185.02 1537.31 1181.79 1537.31 1181.79L1534.14 1182.2L1533.73 1182.05C1533.49 1170.8 1534.61 1159.56 1537.06 1148.57C1537.42 1148.28 1537.76 1147.97 1538.11 1147.67L1540.11 1154.67L1574.11 1197.99L1573 1197.5Z" fill="#4CBFBC"/>
<path d="M1890.15 1033.39C1889.95 1027.82 1888.65 1022.35 1886.33 1017.29C1884.01 1012.23 1880.72 1007.67 1876.64 1003.88C1872.56 1000.09 1867.77 997.137 1862.55 995.197C1857.33 993.257 1851.78 992.364 1846.21 992.57L1732.5 996.76C1721.26 997.177 1710.65 1002.04 1702.99 1010.28C1695.34 1018.52 1691.27 1029.46 1691.68 1040.7L1702.29 1328.36C1702.49 1333.93 1703.79 1339.4 1706.11 1344.46C1708.43 1349.52 1711.73 1354.08 1715.81 1357.87C1719.89 1361.66 1724.67 1364.6 1729.89 1366.54C1735.11 1368.48 1740.66 1369.38 1746.23 1369.17L1859.94 1364.98C1865.5 1364.78 1870.97 1363.48 1876.04 1361.16C1881.1 1358.84 1885.66 1355.54 1889.45 1351.46C1893.24 1347.38 1896.18 1342.6 1898.12 1337.38C1900.06 1332.16 1900.96 1326.61 1900.75 1321.04L1890.15 1033.39Z" fill="#D67500"/>
<path d="M1904.85 1020.53C1904.65 1014.96 1903.35 1009.49 1901.03 1004.43C1898.71 999.365 1895.42 994.808 1891.34 991.017C1887.26 987.226 1882.47 984.277 1877.25 982.337C1872.03 980.397 1866.48 979.504 1860.91 979.71L1747.2 983.9C1735.96 984.317 1725.35 989.179 1717.69 997.419C1710.04 1005.66 1705.97 1016.6 1706.38 1027.84L1717 1315.5C1717.41 1326.74 1722.28 1337.35 1730.51 1345C1738.75 1352.66 1749.69 1356.72 1760.93 1356.31L1874.65 1352.12C1880.21 1351.91 1885.69 1350.62 1890.75 1348.3C1895.81 1345.98 1900.37 1342.68 1904.16 1338.6C1907.95 1334.52 1910.89 1329.74 1912.83 1324.52C1914.77 1319.3 1915.67 1313.74 1915.46 1308.18L1904.85 1020.53Z" fill="black"/>
<path d="M1492.93 1231.1L1114.36 1280L1006.84 1352.27L976.68 1424.87C976.68 1424.87 1009.68 1660.43 1014.02 1735.71C1018.36 1810.99 1024.42 1920.84 1018.8 1960.34C1013.18 1999.84 1021.8 2054.25 1021.8 2054.25L1066.91 2095.61L1181.83 2089.22L1509.83 2033.12C1519.03 2030.59 1859.15 1945.12 1859.15 1945.12C1859.15 1945.12 1750.73 1427.68 1707.4 1364.37C1664.07 1301.06 1492.93 1231.1 1492.93 1231.1Z" fill="#16A3DB"/>
<path d="M1707.36 1364.39C1582.2 1305.24 1579.88 1551.28 1579.88 1551.28C1579.88 1551.28 1685.09 1828.7 1719.13 1897.53C1762.87 1985.97 1871.72 1940.29 1871.72 1940.29C1871.72 1940.29 1904.88 1872.93 1872.38 1763.68C1839.88 1654.43 1707.36 1364.39 1707.36 1364.39Z" fill="#10405F"/>
<path d="M1495 1189.43C1495 1189.43 1336.65 1003.55 1240.56 1087C1238.44 1088.84 1231.42 1197.52 1231.42 1197.52C1231.42 1197.52 1433 1375.17 1519.1 1350C1519.1 1350 1473.74 1255.22 1495 1189.43Z" fill="#FFA992"/>
<path d="M1941.74 1175.51C1941.51 1174.51 1941.04 1173.58 1940.37 1172.8C1939.71 1172.01 1938.87 1171.4 1937.92 1171.01C1936.97 1170.62 1935.94 1170.46 1934.91 1170.55C1933.89 1170.63 1932.9 1170.96 1932.03 1171.51C1931.3 1171.97 1930.67 1172.58 1930.18 1173.29L1927.86 1176.64L1917.28 1221.48L1916.13 1226.39C1912.13 1218.1 1908.2 1209.81 1904.35 1201.51C1901.08 1194.51 1895.07 1194.72 1888.55 1192.51C1882.55 1190.51 1874.61 1189.71 1868.4 1188.51C1859.92 1186.76 1851.29 1185.85 1842.63 1185.79C1835.94 1185.7 1829.27 1185.46 1822.58 1185.18C1814.19 1184.84 1805.8 1184.43 1797.42 1183.94C1788.89 1183.42 1781.51 1193.65 1777.75 1199.94C1774.75 1204.94 1770.99 1210.39 1768.99 1216.2C1768.75 1216.85 1768.73 1217.56 1768.93 1218.23C1769.14 1218.89 1769.55 1219.47 1770.11 1219.88C1770.74 1220.38 1771.53 1220.63 1772.32 1220.58C1773.12 1220.53 1773.88 1220.19 1774.44 1219.62C1775.25 1218.83 1776.02 1218.06 1776.76 1217.38C1777.96 1216.29 1789.09 1204.84 1790.95 1205.18C1791.58 1205.3 1826.8 1208.87 1826.8 1208.87L1851.45 1215.43L1874.26 1228L1870.45 1227.57L1854.74 1225.8L1799.96 1219.64L1735.88 1254C1741.17 1263.68 1747.46 1267.13 1747.46 1267.13C1769.85 1272.48 1808.62 1253.79 1808.62 1253.79L1834.88 1263.92L1868.59 1310.15L1875.12 1319.15C1873.96 1317.8 1843.42 1281.98 1835.25 1273.81C1834.08 1272.64 1832.78 1271.6 1831.39 1270.7L1798.39 1270.41C1792.02 1273.06 1784.65 1276.35 1778.72 1279.58C1765.42 1286.86 1742.08 1288.95 1728.72 1293.76C1723.11 1295.76 1722.14 1300.23 1722.9 1304.76C1723.96 1310.97 1728.35 1317.26 1728.35 1317.26L1762.79 1322.47C1770.23 1323.59 1777.83 1322.31 1784.49 1318.82L1802.06 1309.61L1835.81 1349.71L1843.33 1358.64L1801.62 1349.04L1778.62 1343.76L1771.25 1344.58L1728.25 1349.32C1720.6 1353.15 1718.6 1358.22 1719.06 1363.01C1719.78 1370.73 1726.84 1377.73 1726.84 1377.73L1766.47 1382.43L1798.76 1388.64L1800.56 1483.98L1829.56 1530.74L1814.56 1568.37C1812.98 1575.76 1812.34 1583.32 1812.64 1590.87C1814.94 1648.21 1873.56 1678.14 1873.56 1678.14C1915.44 1710.5 1930.75 1624.24 1930.75 1624.24L1920.11 1545.62L1924.35 1483.9L1933.86 1307.22L1947.86 1219.14L1944.16 1185.99L1941.74 1175.51Z" fill="#FFA992"/>
<path d="M1482.77 1348.15L1480.37 1348.73C1488.97 1386.46 1495.65 1424.61 1500.37 1463.02C1513.9 1571.36 1506.85 1640.02 1498.56 1678.47L1500.97 1678.99C1516.08 1608.91 1510.31 1522.68 1502.82 1462.68C1498.08 1424.19 1491.38 1385.96 1482.77 1348.15Z" fill="black"/>
<path d="M1947.05 1565.07L1920.14 1545.57C1927.79 1629.57 1893.71 1662.69 1893.71 1662.69C1830.96 1659.31 1814.96 1566.26 1814.96 1566.26C1814.96 1566.26 1773.45 1767.32 1765.82 1838.2C1758.19 1909.08 1776.09 1949.41 1776.09 1949.41C1882.96 1954.62 1926.4 1920.16 1948.45 1885.26C1958.45 1869.52 1970.45 1833.49 1968.79 1814.94L1947.05 1565.07Z" fill="#10405F"/>
<path d="M1278.39 1102.69C1278.39 1102.69 1328.25 1239.25 1492.19 1261.05C1492.19 1261.05 1479.35 1170.27 1496.96 1132.65C1514.57 1095.03 1325.27 1037 1278.39 1102.69Z" fill="#FF6440"/>
<path d="M1482.19 718.6C1475.19 713.74 1468.19 709.22 1461.19 705.21C1453.68 700.818 1445.87 696.978 1437.8 693.72C1404.22 680.45 1357.92 698.89 1319.93 720.72C1296.01 734.634 1273.27 750.48 1251.93 768.1C1251.93 768.1 1161.29 930.97 1254.3 1021.86L1293.88 1106.86C1300.53 1120.46 1329.83 1147.86 1342.97 1155.36L1399.97 1188.67C1419.48 1199.88 1440.97 1209.73 1463.35 1207.3L1471.98 1206.37C1478.69 1205.65 1485.1 1203.24 1490.63 1199.37C1496.16 1195.5 1500.62 1190.3 1503.59 1184.24L1551.23 1102.58C1556.44 1091.98 1560.68 1078.89 1561.37 1067.11L1584.92 843.11L1587.82 815.47C1587.82 815.47 1536.77 756.68 1482.19 718.6Z" fill="#FFA992"/>
<path d="M1498.12 1036.73L1521.81 1007.51L1491.22 986.11L1498.12 1036.73Z" fill="#FF6440"/>
<path d="M1490.21 1062.63C1484.47 1062.85 1427.12 1092.51 1409.68 1101.63L1411.92 1105.94C1439.71 1091.47 1485.4 1068.33 1490.37 1067.54C1493.86 1068.07 1510.25 1082.54 1523.52 1095.65L1526.95 1092.2C1526.87 1092.13 1519.49 1084.82 1511.51 1077.63C1494.72 1062.47 1491.66 1062.58 1490.21 1062.63Z" fill="black"/>
<path d="M1430.05 915.53C1425.94 915.68 1422.96 925.32 1423.39 937.07C1423.82 948.82 1427.51 958.2 1431.62 958.07C1435.73 957.94 1438.71 948.28 1438.27 936.54C1437.83 924.8 1434.16 915.38 1430.05 915.53Z" fill="#911A20"/>
<path d="M1537.62 915.53C1533.51 915.68 1530.53 925.32 1530.96 937.07C1531.39 948.82 1535.08 958.2 1539.19 958.07C1543.3 957.94 1546.28 948.28 1545.84 936.54C1545.4 924.8 1541.73 915.38 1537.62 915.53Z" fill="#911A20"/>
<path d="M1453.6 863.29C1441.65 854.846 1428.02 849.09 1413.63 846.418C1399.25 843.746 1384.45 844.221 1370.27 847.81C1367.19 848.6 1368.5 853.36 1371.59 852.58C1385.14 849.175 1399.27 848.752 1413 851.342C1426.73 853.932 1439.73 859.472 1451.11 867.58C1453.7 869.4 1456.17 865.12 1453.6 863.29Z" fill="black"/>
<path d="M1503.9 1098.25C1502.79 1096.85 1501.25 1095.85 1499.53 1095.39C1496.3 1094.43 1492.84 1094.73 1489.81 1096.21C1486.79 1097.69 1484.44 1100.25 1483.22 1103.39C1475.22 1123.58 1458.22 1175.45 1481.31 1207.08C1481.31 1207.08 1489.66 1202.46 1495 1189.41C1498.88 1179.95 1498.17 1136.32 1493.62 1111.77L1515.28 1142.35L1503.9 1098.25Z" fill="#FF6440"/>
<path d="M1815.57 1381.2C1801 1357.5 1743.98 1360.45 1719.09 1362.96C1719.81 1370.68 1726.87 1377.68 1726.87 1377.68L1766.5 1382.38L1798.79 1388.59L1800.59 1483.93L1829.59 1530.69L1814.59 1568.32C1813.01 1575.71 1812.37 1583.27 1812.67 1590.82L1826.16 1611.54L1850.83 1536.32L1823.83 1485.79C1823.83 1485.79 1834.38 1411.75 1815.57 1381.2Z" fill="#FF6440"/>
<path d="M1796.18 1289.53C1787.59 1301.38 1746.86 1304.13 1722.88 1304.71C1723.94 1310.92 1728.33 1317.21 1728.33 1317.21L1762.77 1322.42C1770.21 1323.54 1777.81 1322.26 1784.47 1318.77L1802.04 1309.56L1844.04 1359.73C1855.4 1359.3 1854.37 1348.29 1854.37 1348.29C1827.32 1296 1796.18 1289.53 1796.18 1289.53Z" fill="#FF6440"/>
<path d="M1807.35 1235.47C1793.18 1245.02 1761.25 1250.88 1735.95 1254.19C1741.23 1263.75 1747.46 1267.19 1747.46 1267.19C1769.85 1272.54 1808.62 1253.85 1808.62 1253.85L1834.88 1263.98L1868.59 1310.21L1878.44 1321.21H1894.32L1859.06 1251.87L1807.35 1235.47Z" fill="#FF6440"/>
<path d="M1861.31 1208.74C1861.31 1208.74 1801.8 1197.39 1788.92 1200.46C1780.1 1202.56 1773.43 1213.3 1770.11 1219.86C1770.74 1220.36 1771.53 1220.61 1772.32 1220.56C1773.12 1220.51 1773.88 1220.17 1774.44 1219.6C1775.25 1218.81 1776.02 1218.04 1776.76 1217.36C1777.96 1216.27 1789.09 1204.82 1790.95 1205.16C1791.58 1205.28 1826.8 1208.85 1826.8 1208.85L1851.45 1215.41L1874.26 1227.98L1901.77 1269.46L1892.61 1231.13L1861.31 1208.74Z" fill="#FF6440"/>
<path d="M1337.01 1277.62L1273.68 1283.49L1143.49 1260.03L1091.89 1292.87L1273.68 1324.54L1318.24 1304.6L1340.53 1344.47L1483.41 1348.44L1353.43 1315.15L1337.01 1277.62Z" fill="#10405F"/>
<path d="M1237.18 1114.65L1186.89 1125.32L1114.36 1280L1267.36 1306.31L1321.85 1289.98L1335.01 1318.14L1489 1351C1386.52 1320.62 1196.26 1140.4 1196.26 1140.4L1237.18 1114.65Z" fill="#FE5A2C"/>
<path d="M1488.3 1231L1494.75 1282.33C1498.27 1308.71 1506.88 1316.8 1506.88 1316.8C1514.65 1322.49 1545.27 1302.33 1545.27 1302.33L1555.41 1280.04L1527.01 1244.8L1488.3 1231Z" fill="#10405F"/>
<path d="M1438.5 1277.77C1419.7 1287.31 1451.97 1339.5 1451.97 1339.5C1520.43 1375.13 1503.59 1308.63 1503.59 1308.63C1503.59 1308.63 1457.3 1268.23 1438.5 1277.77Z" fill="#FF6440"/>
<path d="M1917.93 1331.07C1908.25 1331.07 1896.45 1374.79 1896.45 1427.07C1896.45 1479.35 1891.14 1525.73 1900.83 1525.73C1910.52 1525.73 1918.37 1483.33 1918.37 1431.02C1918.37 1378.71 1927.62 1331.07 1917.93 1331.07Z" fill="#FFCAC0"/>
<path d="M1880 1349.84C1875.79 1348.34 1869.15 1356.1 1865.18 1367.19C1861.21 1378.28 1861.41 1388.49 1865.62 1390C1869.83 1391.51 1876.47 1383.74 1880.44 1372.65C1884.41 1361.56 1884.26 1351.35 1880 1349.84Z" fill="#FFCAC0"/>
<path d="M1482.19 718.6C1475.13 714.03 1468.11 709.6 1461.19 705.21C1412.27 674.27 1370.45 649.98 1370.45 649.98C1352.18 672.51 1335.31 696.138 1319.93 720.73C1276.52 789.92 1231.29 888.87 1274.48 962.46C1274.48 962.46 1308 954.82 1334.92 898.65C1342.18 883.627 1350.57 869.175 1360.01 855.42L1398.23 799.42L1403.52 778.26L1488.66 844.63C1491.84 847.107 1495.71 848.552 1499.74 848.77C1515.04 849.59 1555.13 850.77 1584.92 843.12L1587.82 815.48C1587.82 815.48 1536.77 756.68 1482.19 718.6Z" fill="#FF6440"/>
<path d="M1600.47 683.07C1584.07 680.18 1567.14 663.34 1567.14 663.34L1611.94 615.11C1611.94 615.11 1528 611.22 1507 612C1486 612.78 1425.52 568.62 1425.52 568.62C1425.52 568.62 1353.22 545.39 1317.73 561.84C1282.24 578.29 1248.38 636 1248.38 636L1218.59 619.09C1210.63 611.982 1200.36 607.988 1189.69 607.845C1179.02 607.702 1168.65 611.418 1160.5 618.31L1101.24 668.42L1061.35 795.87C1055.87 813.37 1054.84 831.961 1058.35 849.96L1075.87 939.59L1145.82 1013.49L1206.82 1060.92L1250.66 1112.87L1301.99 1115.63C1301.99 1115.63 1215.2 909.23 1209.99 893.13L1265.28 939.99L1309 926.7L1338.9 853.4L1391.98 776.92L1387.68 723.52L1415.15 773.74L1510.58 835.43C1510.58 835.43 1555.11 843.1 1607.58 813.22L1660.82 741.39L1683.41 659.05C1683.41 659.05 1616.88 686 1600.47 683.07Z" fill="#911A20"/>
<path d="M1210 893.09L1196.87 911.53C1194.02 915.533 1192 920.066 1190.92 924.863C1189.85 929.66 1189.75 934.623 1190.62 939.46L1195.28 965.27C1196.17 970.179 1198.32 974.77 1201.53 978.59L1230.74 1013.42L1262.08 1019.85L1265.29 939.95C1265.29 939.95 1246 890.59 1210 893.09Z" fill="#FFA992"/>
<path d="M1236.6 983.87L1248.04 959.34L1227.61 938.08L1236.6 983.87Z" fill="#FF6440"/>
<path d="M1581.44 845.86C1569.21 843.034 1556.51 842.889 1544.22 845.433C1531.93 847.977 1520.33 853.151 1510.23 860.6C1508.06 862.21 1510.18 865.89 1512.37 864.26C1521.99 857.111 1533.04 852.13 1544.77 849.66C1556.5 847.189 1568.62 847.288 1580.31 849.95C1583 850.56 1584.1 846.48 1581.44 845.86Z" fill="black"/>
<g opacity="0.65">
<path d="M1353.11 1073.11C1381.99 1073.11 1405.4 1049.7 1405.4 1020.82C1405.4 991.941 1381.99 968.53 1353.11 968.53C1324.23 968.53 1300.82 991.941 1300.82 1020.82C1300.82 1049.7 1324.23 1073.11 1353.11 1073.11Z" fill="#FE5A2C"/>
</g>
<g opacity="0.65">
<path d="M1590.03 1057.4C1614.99 1053.35 1631.94 1029.82 1627.89 1004.86C1623.84 979.899 1600.32 962.948 1575.36 967C1550.39 971.052 1533.44 994.573 1537.5 1019.54C1541.55 1044.5 1565.07 1061.45 1590.03 1057.4Z" fill="#FE5A2C"/>
</g>
<path d="M1454 880.17C1445.87 872.613 1436.03 867.155 1425.31 864.271C1414.6 861.387 1403.34 861.164 1392.52 863.622C1381.7 866.08 1371.64 871.145 1363.22 878.375C1354.8 885.605 1348.28 894.782 1344.22 905.108C1340.15 915.434 1338.68 926.596 1339.91 937.624C1341.14 948.652 1345.05 959.211 1351.3 968.384C1357.54 977.557 1365.93 985.065 1375.74 990.256C1385.55 995.447 1396.47 998.164 1407.57 998.17C1408.43 998.17 1409.29 998.17 1410.14 998.17C1423.61 997.679 1436.63 993.203 1447.55 985.31C1458.47 977.417 1466.81 966.461 1471.51 953.829C1476.2 941.196 1477.05 927.455 1473.93 914.343C1470.81 901.232 1463.88 889.339 1454 880.17ZM1451.14 970.49C1444.49 977.642 1436.19 983.046 1426.96 986.221C1417.72 989.397 1407.85 990.247 1398.21 988.695C1388.57 987.144 1379.47 983.24 1371.7 977.329C1363.93 971.418 1357.74 963.681 1353.67 954.806C1349.6 945.93 1347.79 936.188 1348.39 926.444C1348.98 916.699 1351.98 907.252 1357.1 898.94C1362.22 890.628 1369.31 883.707 1377.74 878.79C1386.18 873.873 1395.69 871.111 1405.45 870.75C1406.2 870.75 1406.94 870.75 1407.69 870.75C1419.24 870.762 1430.54 874.143 1440.2 880.479C1449.86 886.816 1457.46 895.833 1462.07 906.425C1466.69 917.017 1468.11 928.724 1466.17 940.113C1464.22 951.501 1459 962.075 1451.14 970.54V970.49Z" fill="white"/>
<path d="M1554.37 856.5C1536.55 857.182 1519.72 864.822 1507.47 877.779C1495.22 890.737 1488.54 907.979 1488.87 925.805C1489.19 943.632 1496.49 960.62 1509.2 973.125C1521.91 985.63 1539.01 992.654 1556.84 992.69C1557.69 992.69 1558.54 992.69 1559.39 992.69C1568.33 992.362 1577.12 990.276 1585.25 986.551C1593.38 982.827 1600.7 977.537 1606.79 970.984C1612.88 964.43 1617.62 956.741 1620.74 948.356C1623.86 939.972 1625.29 931.055 1624.97 922.115C1624.64 913.175 1622.55 904.388 1618.83 896.254C1615.1 888.121 1609.81 880.8 1603.26 874.711C1596.71 868.622 1589.02 863.883 1580.63 860.765C1572.25 857.647 1563.33 856.212 1554.39 856.54L1554.37 856.5ZM1600.37 964.98C1593.72 972.132 1585.42 977.535 1576.19 980.711C1566.95 983.886 1557.08 984.736 1547.44 983.185C1537.8 981.634 1528.7 977.73 1520.93 971.819C1513.16 965.907 1506.97 958.171 1502.9 949.295C1498.83 940.42 1497.02 930.678 1497.62 920.933C1498.21 911.189 1501.21 901.742 1506.33 893.43C1511.45 885.118 1518.54 878.197 1526.97 873.28C1535.41 868.362 1544.92 865.601 1554.68 865.24C1555.42 865.24 1556.16 865.24 1556.9 865.24C1568.45 865.245 1579.76 868.621 1589.42 874.955C1599.08 881.289 1606.69 890.305 1611.3 900.898C1615.92 911.49 1617.34 923.2 1615.4 934.589C1613.46 945.979 1608.23 956.555 1600.37 965.02V964.98Z" fill="white"/>
<path d="M1360.01 923.083L1281.03 930.981L1281.91 939.731L1360.89 931.833L1360.01 923.083Z" fill="white"/>
<path d="M1498.65 915.753L1476.76 916.628L1477.11 925.378L1499 924.503L1498.65 915.753Z" fill="white"/>
<path d="M1188.65 686.74C1162.36 686.74 1109.65 729.87 1109.65 783.57C1109.65 837.27 1105.18 886.46 1131.48 886.46C1157.78 886.46 1202.15 833.12 1202.15 779.46C1202.15 725.8 1214.94 686.74 1188.65 686.74Z" fill="#B21424"/>
<path d="M1128.93 911.06C1118.18 916.52 1118.54 938.78 1129.72 960.78C1140.9 982.78 1158.72 996.19 1169.42 990.78C1180.12 985.37 1179.81 963.06 1168.63 941.06C1157.45 919.06 1139.67 905.6 1128.93 911.06Z" fill="#B21424"/>
<path d="M1520.19 768C1496.19 762.14 1451.34 736.55 1448.48 748.26C1445.62 759.97 1484.8 796.85 1508.77 802.72C1532.74 808.59 1598.39 790.11 1601.25 778.4C1604.11 766.69 1544.16 773.85 1520.19 768Z" fill="#B21424"/>
<path d="M1191.66 1355.31C1191.66 1355.31 1293.83 1427.02 1319.37 1467.31C1344.91 1507.6 1483.45 1743 1483.45 1743L1390.09 1463.42C1390.09 1463.42 1218.19 1348.43 1191.66 1355.31Z" fill="#10405F"/>
<path d="M1002.08 1585.17L1021.78 2054.29L1066.89 2095.65C1123.89 2106.12 1388.13 2052.76 1388.13 2052.76C1079.68 2018.38 1002.08 1585.17 1002.08 1585.17Z" fill="#10405F"/>
<path d="M1020.56 1542.36C1020.56 1542.36 1187.01 1918.54 1312.45 1995.19C1312.45 1995.19 1399.12 2032.96 1432.45 2031.41C1465.78 2029.86 1533.11 2028.41 1596.67 1995.16C1660.23 1961.91 1674.16 1892.92 1674.16 1892.92L1675.71 1798.41L1488.24 1834.05L1020.56 1542.36Z" fill="#10405F"/>
<path d="M1531.05 1570.68L1483.45 1742.94L1454.37 1693.94L1429.37 1640.82L1330.03 1480.08C1318.22 1460.96 1303.43 1443.85 1286.21 1429.4L1207.86 1363.61C1184.79 1346.68 1145.99 1343.25 1117.68 1347.39L1099.62 1350.03C1084.98 1350.98 1070.71 1355.06 1057.78 1361.98C1044.84 1368.91 1033.54 1378.52 1024.62 1390.17C1018.29 1398.44 1013.67 1407.88 1011.02 1417.95C1008.37 1428.02 1007.74 1438.52 1009.17 1448.83L1022.64 1545.63L1103.06 1700.32C1109.82 1713.3 1117.96 1725.52 1127.34 1736.75L1301.34 1945.08L1371.9 1995.69L1453.41 2017.04L1554.72 1998.04C1566.35 1995.86 1577.27 1990.89 1586.54 1983.55C1617.9 1958.72 1643.42 1927.32 1661.32 1891.55L1685.81 1626.24C1685.81 1626.24 1680.81 1621.81 1671.99 1615.43C1646.73 1597.07 1590.1 1562.6 1531.05 1570.68Z" fill="#06BCF4"/>
<path d="M1680.34 1279.81L1648.34 1243.72L1626.34 1242.34L1610.28 1223.2L1583.56 1211L1552.83 1210C1552.83 1210 1538.83 1186.4 1529.65 1175.77C1520.47 1165.14 1505.02 1102.16 1505.02 1102.16L1499.75 1102.36C1496.23 1102.49 1492.85 1103.77 1490.13 1106C1487.4 1108.23 1485.48 1111.3 1484.66 1114.72L1479.02 1138.39C1478.36 1141.15 1478.42 1144.04 1479.21 1146.77L1495.76 1204.01L1555.41 1280.01L1555.01 1280.89L1545.27 1302.3C1545.27 1302.3 1520.7 1319.65 1510.73 1316.73C1500.76 1313.81 1468.02 1287.61 1468.02 1287.61C1456.02 1275.22 1451.5 1282.85 1449.83 1291.29C1449.1 1295.37 1448.78 1299.52 1448.88 1303.66L1450.73 1308.37C1455.92 1321.52 1464.43 1333.1 1475.43 1341.98L1483.43 1348.41L1564.27 1406.66L1573.27 1465.66C1579.21 1476.39 1588.06 1485.24 1598.79 1491.19C1636 1512.19 1688.46 1498.67 1688.46 1498.67L1699.65 1445.67L1690.12 1305.74L1680.34 1279.81Z" fill="#FFA992"/>
<path d="M1543.19 1371.41C1520.77 1365.47 1464.78 1307.19 1449.83 1291.31C1449.1 1295.39 1448.78 1299.54 1448.88 1303.68L1450.73 1308.39C1455.92 1321.54 1464.43 1333.12 1475.43 1342L1483.43 1348.43L1564.27 1406.68L1573.27 1465.68C1579.21 1476.41 1588.06 1485.26 1598.79 1491.21L1595.23 1411.15C1595.23 1411.15 1569.19 1378.29 1543.19 1371.41Z" fill="#FF8269"/>
<path d="M1557 1260.84C1486.62 1196.4 1484.1 1137.51 1489.78 1106.25C1487.21 1108.45 1485.4 1111.41 1484.62 1114.71L1478.98 1138.38C1478.32 1141.14 1478.38 1144.03 1479.17 1146.76L1495.72 1204L1555.37 1280L1554.97 1280.88C1565.38 1290.14 1572.2 1296.03 1572.2 1296.03C1576.41 1274.19 1557 1260.84 1557 1260.84Z" fill="#FF8269"/>
<path d="M1555.41 1280C1555.41 1280 1550.88 1302.66 1530.41 1311.42C1530.41 1311.42 1577.41 1322.12 1570.64 1279.62L1555.41 1280Z" fill="#FF8269"/>
<path d="M1552.83 1210L1591.45 1266.77C1588.68 1245.27 1552.83 1210 1552.83 1210Z" fill="#FF8269"/>
<path d="M1640 1268.14C1635.84 1251.51 1610.33 1223.2 1610.33 1223.2L1640 1268.14Z" fill="#FF8269"/>
<path d="M1668.86 1295.13C1660.48 1295.72 1641.86 1374.56 1644.97 1418.71C1648.08 1462.86 1669.97 1463.9 1678.32 1463.32C1686.67 1462.74 1691.01 1426.46 1687.92 1382.32C1684.83 1338.18 1677.25 1294.54 1668.86 1295.13Z" fill="#FFCAC0"/>
<path d="M1641.73 1279.94C1636.14 1277.94 1627.34 1288.24 1622.07 1302.94C1616.8 1317.64 1617.07 1331.19 1622.65 1333.19C1628.23 1335.19 1637.04 1324.9 1642.31 1310.19C1647.58 1295.48 1647.32 1281.94 1641.73 1279.94Z" fill="#FFCAC0"/>
<path d="M1368.24 1874.9L1408.17 1968.06C1408.17 1968.06 1411.5 1813.13 1483.45 1742.95C1483.45 1743 1389 1812.51 1368.24 1874.9Z" fill="#10405F"/>
<path d="M1333.85 1740.5C1397.57 1685.43 1454.37 1693.92 1454.37 1693.92C1381.58 1626.82 1333.85 1740.5 1333.85 1740.5Z" fill="#10405F"/>
<path d="M1013 1811.76L1018.13 2061.58L1070.05 2102.99L1241.17 2078.44C1032.29 2071 1013 1811.76 1013 1811.76Z" fill="#4CBFBC"/>
<path d="M1534.75 1971.65C1392.91 2016.59 1352.57 1945.39 1352.57 1945.39C1352.57 1945.39 1145.91 1638.53 1083.35 1524.87C1044.52 1454.32 1042.99 1401.15 1046.67 1369.63C1041.08 1374.37 1029.15 1384.23 1024.62 1390.15C1018.29 1398.42 1013.67 1407.86 1011.02 1417.93C1008.37 1428 1007.74 1438.5 1009.17 1448.81L1022.64 1545.61L1103.06 1700.3C1109.82 1713.28 1117.96 1725.5 1127.34 1736.73L1301.34 1945.06L1371.9 1995.67L1453.41 2017.02L1554.72 1998.02C1566.35 1995.84 1577.27 1990.87 1586.54 1983.53C1617.9 1958.7 1643.42 1927.3 1661.32 1891.53L1685.81 1626.22C1685.81 1626.22 1680.81 1621.79 1671.99 1615.41C1670.6 1683.73 1656.94 1933 1534.75 1971.65Z" fill="#0896C1"/>
<path d="M1558.71 1463.65L1546.1 1478.6L1536.56 1536.94L1531.05 1570.68L1569.29 1584.4L1685.86 1626.22L1703.94 1616.33L1704.08 1614.88L1714.57 1511.88C1714.57 1511.88 1648.32 1484.16 1598.7 1470.74C1582.73 1466.45 1568.48 1463.62 1558.71 1463.65Z" fill="white"/>
<path d="M1546.1 1478.6L1531.1 1570.68L1569.34 1584.4C1570.14 1540.8 1588.49 1493.79 1598.75 1470.76C1582.75 1466.45 1568.53 1463.62 1558.75 1463.65L1546.1 1478.6Z" fill="#4CBFBC"/>
<path d="M1538.71 1535.32L1536.56 1536.94L1531.05 1570.68L1569.29 1584.4L1685.86 1626.22L1703.94 1616.33L1704.08 1614.88C1617.13 1622.41 1538.71 1535.32 1538.71 1535.32Z" fill="#4CBFBC"/>
<path d="M1946 1559.35C1904.58 1602.23 1873.4 1608.66 1851.74 1602.98C1825.89 1596.19 1813.59 1572.14 1813.59 1572.14L1796.96 1659.14C1899.31 1822.25 1970.31 1650.82 1970.31 1650.82L1970.19 1650.36L1946 1559.35Z" fill="white"/>
<path d="M1832.31 1677.28C1829.31 1658.54 1842.08 1624.95 1851.73 1602.98C1825.88 1596.19 1813.58 1572.14 1813.58 1572.14L1796.95 1659.14C1899.3 1822.25 1970.3 1650.82 1970.3 1650.82L1970.18 1650.36C1903.78 1734.05 1836.72 1705.2 1832.31 1677.28Z" fill="#4CBFBC"/>
<path d="M1135.81 1387.73C1099.96 1412.36 1180.74 1459.79 1237.98 1543.12C1295.22 1626.45 1323.46 1678.43 1359.31 1653.8C1395.16 1629.17 1356.96 1564.72 1299.71 1481.39C1242.46 1398.06 1171.66 1363.1 1135.81 1387.73Z" fill="#9CECFF"/>
<path d="M1629.62 1699.71C1609.67 1692.05 1591.03 1737.23 1563.85 1808.04C1536.67 1878.85 1474.25 1937.74 1494.2 1945.4C1514.15 1953.06 1592.13 1898.53 1619.31 1827.71C1646.49 1756.89 1649.57 1707.37 1629.62 1699.71Z" fill="#9CECFF"/>
<path d="M1882.35 1873.36C1824.67 1889.63 1685.86 1626.22 1685.86 1626.22L1675.7 1798.41C1736.7 2050.29 1919.32 1914.77 1919.32 1914.77C2003.05 1869.42 1957.97 1700.66 1957.97 1700.66C1957.97 1700.66 1940 1857.1 1882.35 1873.36Z" fill="#04273A"/>
<path d="M674.3 904.446C678.2 869.73 680.31 840.633 663.326 812.288C644.343 780.61 606.965 762.891 563.528 789.142C543.513 801.242 525.97 820.925 519.504 838.457L544.303 859.241C549.005 845.616 561.117 831.481 574.714 823.266C598.75 809.284 619.34 816.158 632.081 837.423C643.321 856.174 643.616 878.138 639.851 910.5C635.95 946.924 643.884 975.625 659.644 996.763L666.888 1007.14L696.349 989.336L689.485 978.726C675.611 958.154 670.668 936.162 674.3 904.446Z" fill="white"/>
<path d="M738.878 1043.74C729.644 1028.36 714.126 1023.01 700.945 1030.96C687.763 1038.92 684.834 1055.41 694.068 1070.79C702.823 1085.31 718.562 1091.12 731.749 1083.15C745.692 1074.73 747.633 1058.26 738.878 1043.74Z" fill="white"/>
</svg>
