<svg width="327" height="86" viewBox="0 0 327 86" fill="none" xmlns="http://www.w3.org/2000/svg">
<path d="M36.064 69.624C35.9627 69.6747 35.8613 69.7 35.76 69.7C35.6587 69.7 35.456 69.7 35.152 69.7C34.4427 69.7 33.6067 69.5733 32.644 69.32C31.732 69.1173 30.82 68.8387 29.908 68.484C29.0467 68.18 28.2867 67.8253 27.628 67.42C27.02 67.0147 26.64 66.66 26.488 66.356C26.4373 65.6467 26.412 64.912 26.412 64.152C26.412 63.392 26.412 62.6573 26.412 61.948C26.412 56.2733 26.8173 50.3453 27.628 44.164C28.4893 37.9827 29.8827 31.2947 31.808 24.1C32.0107 23.3907 32.2133 22.504 32.416 21.44C32.6693 20.3253 32.9227 19.1347 33.176 17.868C31.96 18.8307 30.516 20.376 28.844 22.504C27.172 24.5813 25.3987 27.064 23.524 29.952C21.7 32.7893 19.8507 35.9307 17.976 39.376C16.152 42.7707 14.48 46.2413 12.96 49.788C11.44 53.284 10.1227 56.7547 9.008 60.2C7.944 63.6453 7.28533 66.8373 7.032 69.776C4.6 69.0667 2.90267 68.3573 1.94 67.648C1.028 66.9387 0.572 66.0773 0.572 65.064C0.572 64.152 0.850667 62.86 1.408 61.188C1.96533 59.516 2.75067 57.54 3.764 55.26C4.77733 52.98 6.01867 50.4467 7.488 47.66C8.95733 44.8227 10.5787 41.7827 12.352 38.54C14.3787 34.8413 16.3547 31.3707 18.28 28.128C20.256 24.8853 22.1813 21.9467 24.056 19.312C25.9307 16.6773 27.7547 14.3973 29.528 12.472C31.352 10.5467 33.1507 9.07733 34.924 8.064C35.6333 8.064 36.5707 8.24133 37.736 8.596C38.952 8.95066 40.1173 9.38133 41.232 9.888C42.3973 10.3947 43.4107 10.9267 44.272 11.484C45.184 11.9907 45.6907 12.4213 45.792 12.776C45.0827 14.1947 44.2467 16.3227 43.284 19.16C42.3213 21.9973 41.3333 25.2147 40.32 28.812C39.3573 32.4093 38.42 36.2347 37.508 40.288C36.6467 44.2907 35.9627 48.1413 35.456 51.84C36.6213 49.0533 37.964 46.1653 39.484 43.176C41.0547 40.136 42.7013 37.1467 44.424 34.208C46.1467 31.2187 47.8947 28.3307 49.668 25.544C51.492 22.7573 53.2653 20.224 54.988 17.944C56.7107 15.6133 58.3067 13.5867 59.776 11.864C61.296 10.1413 62.6387 8.87466 63.804 8.064C64.5133 8.064 65.4507 8.24133 66.616 8.596C67.832 8.95066 68.9973 9.38133 70.112 9.888C71.2773 10.3947 72.2907 10.9267 73.152 11.484C74.064 11.9907 74.5707 12.4213 74.672 12.776C73.0507 15.664 71.632 19.1853 70.416 23.34C69.2 27.4947 68.1613 31.852 67.3 36.412C66.4893 40.972 65.856 45.5067 65.4 50.016C64.9947 54.4747 64.792 58.4773 64.792 62.024C64.792 63.1893 64.792 64.4053 64.792 65.672C64.792 66.9387 64.8427 68.256 64.944 69.624C64.2347 69.624 63.3733 69.5227 62.36 69.32C61.3973 69.168 60.4347 68.94 59.472 68.636C58.56 68.332 57.724 67.9773 56.964 67.572C56.204 67.2173 55.672 66.812 55.368 66.356C55.3173 65.6467 55.292 64.912 55.292 64.152C55.292 63.392 55.292 62.6573 55.292 61.948C55.292 56.2733 55.6973 50.3453 56.508 44.164C57.3693 37.9827 58.7627 31.2947 60.688 24.1C60.8907 23.3907 61.1187 22.428 61.372 21.212C61.6253 19.996 61.8787 18.7293 62.132 17.412C60.7133 18.1213 59.092 19.4893 57.268 21.516C55.4947 23.492 53.6707 25.924 51.796 28.812C49.972 31.6493 48.148 34.816 46.324 38.312C44.5507 41.808 42.9293 45.38 41.46 49.028C40.0413 52.6253 38.8253 56.2227 37.812 59.82C36.8493 63.3667 36.2667 66.6347 36.064 69.624ZM100.283 33.296C100.79 33.296 101.373 33.3973 102.031 33.6C102.741 33.752 103.374 33.98 103.931 34.284C104.489 34.5373 104.945 34.816 105.299 35.12C105.705 35.424 105.907 35.7027 105.907 35.956C104.894 38.084 103.957 40.2373 103.095 42.416C102.234 44.544 101.499 46.596 100.891 48.572C100.283 50.548 99.8021 52.3973 99.4474 54.12C99.1434 55.8427 98.9914 57.3373 98.9914 58.604C98.9914 60.0227 99.1434 61.2133 99.4474 62.176C99.7514 63.088 100.258 63.7467 100.967 64.152C100.359 64.5573 99.5741 64.8867 98.6114 65.14C97.6487 65.3933 96.7874 65.52 96.0274 65.52C93.2914 65.52 91.9234 63.6453 91.9234 59.896C91.9234 57.008 92.8861 53.056 94.8114 48.04C93.7981 50.3707 92.6327 52.5747 91.3154 54.652C89.9981 56.6787 88.6554 58.4773 87.2874 60.048C85.9194 61.6187 84.5261 62.9107 83.1074 63.924C81.7394 64.8867 80.4727 65.4693 79.3074 65.672C77.4327 65.5707 75.9127 64.684 74.7474 63.012C73.5821 61.2893 72.9994 59.1107 72.9994 56.476C72.9994 53.6387 73.6074 50.6493 74.8234 47.508C76.0394 44.3667 77.5847 41.4533 79.4594 38.768C81.3847 36.0827 83.4621 33.8533 85.6914 32.08C87.9207 30.256 90.0741 29.2933 92.1514 29.192C92.6581 29.344 93.2154 29.648 93.8234 30.104C94.4821 30.56 95.0901 31.092 95.6474 31.7C96.2554 32.308 96.7621 32.9413 97.1674 33.6C97.5727 34.208 97.8007 34.74 97.8514 35.196C95.8247 35.5 93.7221 36.488 91.5434 38.16C89.4154 39.832 87.4647 41.8587 85.6914 44.24C83.9687 46.5707 82.5501 49.0787 81.4354 51.764C80.3207 54.4493 79.7634 56.9573 79.7634 59.288C79.7634 60.2507 80.1181 60.8587 80.8274 61.112C82.2967 60.808 83.9941 59.5667 85.9194 57.388C87.8447 55.1587 90.1754 51.7387 92.9114 47.128C93.4181 46.216 93.9754 45.2027 94.5834 44.088C95.2421 42.9733 95.9007 41.808 96.5594 40.592C97.2181 39.376 97.8514 38.16 98.4594 36.944C99.1181 35.6773 99.7261 34.4613 100.283 33.296ZM112.985 34.892C112.732 34.588 112.504 33.9547 112.301 32.992C112.098 31.9787 111.997 31.1173 111.997 30.408C113.314 30.5093 114.581 30.6107 115.797 30.712C117.013 30.7627 118.128 30.8133 119.141 30.864C119.901 29.344 120.712 27.8493 121.573 26.38C122.485 24.86 123.346 23.492 124.157 22.276C125.018 21.0093 125.804 19.9453 126.513 19.084C127.273 18.2227 127.856 17.6653 128.261 17.412C128.768 17.412 129.401 17.5133 130.161 17.716C130.972 17.868 131.782 18.096 132.593 18.4C133.404 18.6533 134.138 18.932 134.797 19.236C135.456 19.54 135.912 19.844 136.165 20.148C134.645 22.0733 133.328 23.872 132.213 25.544C131.149 27.1653 129.984 29.04 128.717 31.168C129.73 31.168 130.744 31.1427 131.757 31.092C132.821 31.0413 133.885 30.9653 134.949 30.864C135.202 31.1173 135.405 31.4467 135.557 31.852C135.709 32.2067 135.785 32.5867 135.785 32.992C133.302 33.904 130.288 34.4107 126.741 34.512C125.474 36.944 124.334 39.376 123.321 41.808C122.358 44.1893 121.522 46.4947 120.813 48.724C120.154 50.9533 119.622 53.056 119.217 55.032C118.862 57.008 118.685 58.7813 118.685 60.352C118.685 62.5813 119.521 63.8227 121.193 64.076C122.713 63.8733 124.157 63.4933 125.525 62.936C126.893 62.3787 128.109 61.6693 129.173 60.808C129.477 61.264 129.654 61.644 129.705 61.948C129.401 62.404 128.869 62.936 128.109 63.544C127.4 64.152 126.614 64.7347 125.753 65.292C124.892 65.9 124.056 66.4067 123.245 66.812C122.434 67.2173 121.826 67.4453 121.421 67.496C120.154 67.4453 118.888 67.1667 117.621 66.66C116.354 66.1533 115.189 65.52 114.125 64.76C113.112 64 112.276 63.164 111.617 62.252C110.958 61.2893 110.629 60.352 110.629 59.44C110.629 58.224 110.781 56.704 111.085 54.88C111.44 53.0053 111.921 50.9787 112.529 48.8C113.137 46.6213 113.846 44.3413 114.657 41.96C115.468 39.5787 116.354 37.2227 117.317 34.892H112.985ZM139.4 85.964C138.133 85.4573 137.373 84.4947 137.12 83.076C136.917 81.708 136.056 80.5933 134.536 79.732C134.941 77.148 135.397 74.5387 135.904 71.904C136.41 69.2693 137.044 66.28 137.804 62.936C138.614 59.5413 139.602 55.6147 140.768 51.156C141.984 46.6467 143.504 41.2 145.328 34.816C143.656 34.816 142.338 34.8413 141.376 34.892C140.413 34.9427 139.476 35.044 138.564 35.196C138.361 34.9933 138.184 34.7147 138.032 34.36C137.93 34.0053 137.88 33.676 137.88 33.372C138.386 33.1693 139.425 32.916 140.996 32.612C142.566 32.2573 144.289 31.9533 146.164 31.7C147.38 27.8493 148.773 24.404 150.344 21.364C151.914 18.2733 153.612 15.6387 155.436 13.46C157.26 11.2813 159.185 9.60933 161.212 8.444C163.238 7.27867 165.29 6.696 167.368 6.696C167.976 6.696 168.558 6.74667 169.116 6.848C169.673 6.89866 170.104 6.924 170.408 6.924C170.864 6.56933 171.472 6.26533 172.232 6.012C172.992 5.708 173.65 5.556 174.208 5.556C174.816 5.556 175.601 5.88533 176.564 6.544C176.158 7.25333 175.728 8.216 175.272 9.432C174.816 10.648 174.436 11.8387 174.132 13.004C172.865 16.7533 171.522 19.1853 170.104 20.3C169.546 20.3 169.242 19.5653 169.192 18.096C169.141 17.032 168.989 15.9933 168.736 14.98C168.533 14.524 168.381 14.1187 168.28 13.764C168.229 13.4093 168.204 12.9533 168.204 12.396C168.204 12.092 168.229 11.7373 168.28 11.332C168.33 10.876 168.432 10.1413 168.584 9.128C167.722 9.128 166.76 9.66 165.696 10.724C164.682 11.788 163.593 13.308 162.428 15.284C161.313 17.2093 160.173 19.5147 159.008 22.2C157.842 24.8853 156.728 27.8493 155.664 31.092L162.048 30.864C162.301 31.1173 162.504 31.7 162.656 32.612C162.858 33.4733 162.985 34.3853 163.036 35.348L154.676 34.892C152.75 40.6173 150.952 46.0893 149.28 51.308C147.608 56.5267 146.113 61.34 144.796 65.748C143.478 70.156 142.338 74.0827 141.376 77.528C140.464 81.024 139.805 83.836 139.4 85.964ZM188.107 32.536C187.905 35.6773 187.347 38.388 186.435 40.668C185.523 42.8973 184.206 44.8733 182.483 46.596C180.811 48.268 178.759 49.788 176.327 51.156C173.895 52.524 171.058 53.8413 167.815 55.108C167.815 55.412 167.79 55.7413 167.739 56.096C167.739 56.4 167.739 56.7293 167.739 57.084C167.739 57.7427 167.79 58.4267 167.891 59.136C167.993 59.8453 168.17 60.504 168.423 61.112C168.677 61.72 169.031 62.2267 169.487 62.632C169.943 62.9867 170.526 63.164 171.235 63.164C172.603 63.164 173.946 62.86 175.263 62.252C176.581 61.644 177.822 60.9093 178.987 60.048C180.203 59.136 181.318 58.1733 182.331 57.16C183.395 56.096 184.333 55.1333 185.143 54.272C185.65 54.728 186.081 55.1587 186.435 55.564C184.155 58.604 181.647 61.1373 178.911 63.164C176.226 65.14 173.667 66.4067 171.235 66.964C167.739 66.5587 165.003 65.292 163.027 63.164C161.102 60.9853 160.139 58.376 160.139 55.336C160.139 53.2587 160.418 51.156 160.975 49.028C161.583 46.8493 162.394 44.772 163.407 42.796C164.471 40.7693 165.687 38.8693 167.055 37.096C168.474 35.3227 169.969 33.7773 171.539 32.46C173.161 31.1427 174.807 30.104 176.479 29.344C178.202 28.584 179.899 28.204 181.571 28.204C183.902 28.508 186.081 29.952 188.107 32.536ZM182.863 35.044C181.495 35.2467 180.077 35.804 178.607 36.716C177.138 37.628 175.745 38.844 174.427 40.364C173.161 41.884 171.995 43.6573 170.931 45.684C169.867 47.7107 169.031 49.8893 168.423 52.22C172.477 50.1933 175.846 47.7107 178.531 44.772C181.217 41.7827 182.661 38.54 182.863 35.044ZM189.802 62.48C190.055 61.0107 190.486 59.0853 191.094 56.704C191.753 54.272 192.513 51.7133 193.374 49.028C194.235 46.292 195.147 43.556 196.11 40.82C197.073 38.084 198.01 35.6267 198.922 33.448C199.581 31.8773 200.163 30.6613 200.67 29.8C201.177 28.888 201.734 28.128 202.342 27.52C203.051 27.6213 203.786 27.7987 204.546 28.052C205.306 28.3053 206.041 28.6093 206.75 28.964C207.459 29.3187 208.093 29.6987 208.65 30.104C209.207 30.4587 209.638 30.8133 209.942 31.168C208.574 32.7893 207.358 34.6387 206.294 36.716C205.281 38.7933 204.242 41.4533 203.178 44.696C205.914 42.264 208.321 39.9333 210.398 37.704C212.526 35.4747 214.502 32.992 216.326 30.256C216.63 30.0027 217.162 29.876 217.922 29.876C218.631 29.876 219.315 30.0027 219.974 30.256C220.633 30.4587 221.089 30.7627 221.342 31.168C220.43 33.6 219.974 36.0067 219.974 38.388C219.974 40.6173 220.303 42.2893 220.962 43.404C220.911 43.708 220.557 44.2907 219.898 45.152C219.29 46.0133 218.606 46.824 217.846 47.584C216.478 46.8747 215.262 45.912 214.198 44.696C213.134 43.4293 212.349 42.0613 211.842 40.592C209.461 42.264 207.434 43.9107 205.762 45.532C204.09 47.1027 202.646 48.876 201.43 50.852C200.265 52.7773 199.251 55.0067 198.39 57.54C197.579 60.0733 196.794 63.088 196.034 66.584C195.578 66.5333 195.021 66.356 194.362 66.052C193.754 65.7987 193.121 65.4693 192.462 65.064C191.854 64.6587 191.297 64.228 190.79 63.772C190.283 63.316 189.954 62.8853 189.802 62.48ZM222.202 59.136C222.202 56.9067 222.734 53.7907 223.798 49.788C224.862 45.7347 226.357 41.0227 228.282 35.652C231.424 27.0893 234.362 19.9707 237.098 14.296C239.885 8.57066 242.596 4.112 245.23 0.919997C245.838 1.02133 246.573 1.27466 247.434 1.68C248.346 2.08533 249.233 2.54133 250.094 3.048C250.956 3.504 251.716 3.98533 252.374 4.492C253.084 4.99866 253.54 5.404 253.742 5.708C249.79 10.3693 246.32 15.3853 243.33 20.756C240.341 26.1267 237.605 32.2827 235.122 39.224C232.994 45.2027 231.373 50.5987 230.258 55.412C229.144 60.1747 228.586 64.152 228.586 67.344C228.586 68.2053 228.586 68.7373 228.586 68.94C228.586 69.1427 228.612 69.3453 228.662 69.548C227.953 69.4467 227.345 69.2693 226.838 69.016C226.332 68.7627 226.002 68.4587 225.85 68.104C225.749 67.8507 225.47 67.4707 225.014 66.964C224.558 66.508 224.153 66.1533 223.798 65.9C223.342 65.596 222.962 64.8107 222.658 63.544C222.354 62.2267 222.202 60.7573 222.202 59.136ZM240.315 58.908C240.315 58.452 240.341 57.8947 240.391 57.236C240.493 56.5267 240.645 55.6147 240.847 54.5C241.05 53.3347 241.303 51.9413 241.607 50.32C241.962 48.6987 242.393 46.748 242.899 44.468C243.001 43.9613 243.229 43.1507 243.583 42.036C243.938 40.9213 244.394 39.756 244.951 38.54C245.559 37.2733 246.269 36.0573 247.079 34.892C247.941 33.7267 248.954 32.8653 250.119 32.308C250.981 32.5107 252.121 33.0427 253.539 33.904C254.958 34.7147 256.174 35.8547 257.187 37.324C256.022 38.6413 255.034 39.9587 254.223 41.276C253.463 42.5933 252.754 43.9613 252.095 45.38C251.487 46.7987 250.905 48.268 250.347 49.788C249.841 51.308 249.258 52.904 248.599 54.576C248.042 55.9947 247.535 57.464 247.079 58.984C246.623 60.4533 246.37 61.7453 246.319 62.86C246.319 63.772 246.294 64.4053 246.243 64.76C246.243 65.1653 246.117 65.368 245.863 65.368C245.661 65.368 245.255 65.2413 244.647 64.988C244.039 64.7347 243.406 64.3547 242.747 63.848C242.139 63.2907 241.582 62.6067 241.075 61.796C240.569 60.9853 240.315 60.0227 240.315 58.908ZM254.831 25.924C254.831 25.62 254.907 25.164 255.059 24.556C254.806 24.3027 254.578 23.9227 254.375 23.416C254.223 22.9093 254.147 22.4533 254.147 22.048C254.147 21.592 254.198 20.984 254.299 20.224C254.451 19.4133 254.629 18.552 254.831 17.64C255.034 16.728 255.287 15.7907 255.591 14.828C255.895 13.8147 256.199 12.9027 256.503 12.092C257.111 12.092 257.846 12.2693 258.707 12.624C259.619 12.928 260.531 13.3587 261.443 13.916C262.355 14.4227 263.191 15.0053 263.951 15.664C264.711 16.272 265.294 16.8547 265.699 17.412C265.142 17.9693 264.407 18.7547 263.495 19.768C262.583 20.7307 261.697 21.7693 260.835 22.884C259.974 23.948 259.189 24.9613 258.479 25.924C257.77 26.8867 257.314 27.5707 257.111 27.976C256.503 27.8747 255.971 27.6213 255.515 27.216C255.059 26.76 254.831 26.3293 254.831 25.924ZM270.512 27.14C271.829 27.5453 273.071 28.4573 274.236 29.876C275.401 31.244 276.263 32.764 276.82 34.436C276.263 35.804 275.401 37.4507 274.236 39.376C273.071 41.3013 271.905 43.2773 270.74 45.304C269.575 47.28 268.511 49.18 267.548 51.004C266.636 52.7773 266.104 54.2467 265.952 55.412C266.763 54.5507 267.649 53.5627 268.612 52.448C269.625 51.2827 270.588 50.1427 271.5 49.028C272.463 47.8627 273.349 46.824 274.16 45.912C274.971 44.9493 275.604 44.24 276.06 43.784C277.023 42.7707 278.163 41.6053 279.48 40.288C280.797 38.92 282.165 37.6533 283.584 36.488C285.053 35.272 286.523 34.2587 287.992 33.448C289.461 32.5867 290.804 32.156 292.02 32.156C293.337 32.156 294.427 32.612 295.288 33.524C296.2 34.3853 296.909 35.2973 297.416 36.26C297.416 36.3613 297.213 36.5133 296.808 36.716C296.453 36.868 295.921 37.3493 295.212 38.16C294.503 39.072 293.692 40.3387 292.78 41.96C291.919 43.5307 291.057 45.2533 290.196 47.128C289.385 48.952 288.701 50.8267 288.144 52.752C287.587 54.6773 287.308 56.4253 287.308 57.996C287.308 59.2627 287.46 60.0733 287.764 60.428C288.119 60.7827 288.6 60.96 289.208 60.96C289.765 60.96 290.348 60.8333 290.956 60.58C291.564 60.3267 292.045 60.2 292.4 60.2C292.603 60.3013 292.755 60.5293 292.856 60.884C293.008 61.188 293.084 61.4667 293.084 61.72C292.679 62.0747 292.197 62.4293 291.64 62.784C291.083 63.1387 290.5 63.468 289.892 63.772C289.284 64.076 288.676 64.3293 288.068 64.532C287.511 64.7347 287.004 64.836 286.548 64.836C285.079 64.836 283.863 64.608 282.9 64.152C281.988 63.7467 281.253 63.1893 280.696 62.48C280.189 61.7707 279.835 60.9347 279.632 59.972C279.429 58.9587 279.328 57.8947 279.328 56.78C279.328 56.172 279.379 55.488 279.48 54.728C279.581 53.968 279.784 53.0813 280.088 52.068C280.392 51.004 280.823 49.7627 281.38 48.344C281.937 46.8747 282.647 45.1267 283.508 43.1C283.407 43.1 282.723 43.4547 281.456 44.164C280.189 44.8733 278.821 45.9627 277.352 47.432C274.971 49.712 272.817 51.9667 270.892 54.196C269.017 56.4253 267.092 58.908 265.116 61.644C264.001 63.2147 263.013 64.532 262.152 65.596C261.341 66.7107 260.632 67.4453 260.024 67.8C258.96 67.192 258.175 66.3307 257.668 65.216C257.161 64.152 256.781 63.0373 256.528 61.872C256.528 60.9093 256.655 59.6933 256.908 58.224C257.212 56.7547 257.592 55.1333 258.048 53.36C258.555 51.536 259.163 49.636 259.872 47.66C260.581 45.684 261.367 43.708 262.228 41.732C264.153 37.2733 265.901 33.7773 267.472 31.244C269.093 28.7107 270.107 27.3427 270.512 27.14ZM326.451 32.536C326.248 35.6773 325.691 38.388 324.779 40.668C323.867 42.8973 322.55 44.8733 320.827 46.596C319.155 48.268 317.103 49.788 314.671 51.156C312.239 52.524 309.402 53.8413 306.159 55.108C306.159 55.412 306.134 55.7413 306.083 56.096C306.083 56.4 306.083 56.7293 306.083 57.084C306.083 57.7427 306.134 58.4267 306.235 59.136C306.336 59.8453 306.514 60.504 306.767 61.112C307.02 61.72 307.375 62.2267 307.831 62.632C308.287 62.9867 308.87 63.164 309.579 63.164C310.947 63.164 312.29 62.86 313.607 62.252C314.924 61.644 316.166 60.9093 317.331 60.048C318.547 59.136 319.662 58.1733 320.675 57.16C321.739 56.096 322.676 55.1333 323.487 54.272C323.994 54.728 324.424 55.1587 324.779 55.564C322.499 58.604 319.991 61.1373 317.255 63.164C314.57 65.14 312.011 66.4067 309.579 66.964C306.083 66.5587 303.347 65.292 301.371 63.164C299.446 60.9853 298.483 58.376 298.483 55.336C298.483 53.2587 298.762 51.156 299.319 49.028C299.927 46.8493 300.738 44.772 301.751 42.796C302.815 40.7693 304.031 38.8693 305.399 37.096C306.818 35.3227 308.312 33.7773 309.883 32.46C311.504 31.1427 313.151 30.104 314.823 29.344C316.546 28.584 318.243 28.204 319.915 28.204C322.246 28.508 324.424 29.952 326.451 32.536ZM321.207 35.044C319.839 35.2467 318.42 35.804 316.951 36.716C315.482 37.628 314.088 38.844 312.771 40.364C311.504 41.884 310.339 43.6573 309.275 45.684C308.211 47.7107 307.375 49.8893 306.767 52.22C310.82 50.1933 314.19 47.7107 316.875 44.772C319.56 41.7827 321.004 38.54 321.207 35.044Z" fill="white"/>
</svg>
