<svg width="2864" height="2216" viewBox="0 0 2864 2216" fill="none" xmlns="http://www.w3.org/2000/svg">
<path fill-rule="evenodd" clip-rule="evenodd" d="M444.2 2096.96L476.4 2068.16L432.1 2026.56L401.9 2068.16L444.2 2096.96Z" fill="#418DDA"/>
<path fill-rule="evenodd" clip-rule="evenodd" d="M1471.3 685.557L1483.4 740.057C1483.4 740.057 1525.9 707.857 1559 703.157V672.657C1559 672.657 1519.3 664.957 1471.3 685.557Z" fill="#418DDA"/>
<path fill-rule="evenodd" clip-rule="evenodd" d="M64.2 1085.46L137.6 1102.06C137.6 1102.06 94.2 1162.96 97 1222.76H47.2C47.3 1222.76 33.7 1151.06 64.2 1085.46Z" fill="#418DDA"/>
<path fill-rule="evenodd" clip-rule="evenodd" d="M1835.7 2151.96L1871.4 2198.16L1919 2159.76L1871.4 2120.26L1835.7 2151.96Z" fill="#418DDA"/>
<path fill-rule="evenodd" clip-rule="evenodd" d="M2832.4 438.857L2798.5 466.857C2808.6 498.357 2820.4 512.357 2833.1 516.757L2863.7 487.557C2844.7 476.757 2835.9 459.457 2832.4 438.857Z" fill="#418DDA"/>
<path fill-rule="evenodd" clip-rule="evenodd" d="M1144.1 2026.56C1164.7 2048.66 1170.7 2059.76 1189.6 2068.16L1159.5 2096.96C1159.5 2096.96 1133.7 2072.16 1123 2047.26C1123.1 2047.26 1139.4 2029.76 1144.1 2026.56Z" fill="#779CDD"/>
<path fill-rule="evenodd" clip-rule="evenodd" d="M2546.6 1877.66L2586.1 1902.56C2619.2 1888.36 2653.4 1842.86 2650.1 1784.06L2603.3 1773.76C2603.2 1773.76 2620 1853.16 2546.6 1877.66Z" fill="#779CDD"/>
<path fill-rule="evenodd" clip-rule="evenodd" d="M795.3 477.957C795.3 477.957 787.1 544.357 829.8 561.557L857.2 538.857C857.2 538.857 822.3 514.857 829.8 471.857L795.3 477.957Z" fill="#779CDD"/>
<path fill-rule="evenodd" clip-rule="evenodd" d="M213.3 1636.96L182.8 1684.26L243.6 1703.46L270.1 1654.86L213.3 1636.96Z" fill="#779CDD"/>
<path fill-rule="evenodd" clip-rule="evenodd" d="M1992.6 187.057L2040.1 174.157L2047.4 213.657L2009.1 233.657L1992.6 187.057Z" fill="#779CDD"/>
<path fill-rule="evenodd" clip-rule="evenodd" d="M1482.5 165.357L1448.6 193.357C1458.7 224.857 1470.5 238.857 1483.2 243.257L1513.8 214.057C1494.8 203.357 1486 186.057 1482.5 165.357Z" fill="#779CDD"/>
<path fill-rule="evenodd" clip-rule="evenodd" d="M2228.1 244.357C2228.1 244.357 2282.6 268.457 2313.2 244.357C2343.8 220.257 2313.2 182.657 2313.2 182.657L2345.5 174.157C2345.5 174.157 2377.9 227.957 2353.5 260.557C2316.5 309.757 2239.5 295.957 2224.3 282.457L2228.1 244.357Z" fill="#4275CF"/>
<path fill-rule="evenodd" clip-rule="evenodd" d="M1218.6 243.457L1234.7 280.157L1274.6 259.457L1259.7 233.657L1218.6 243.457Z" fill="#4275CF"/>
<path fill-rule="evenodd" clip-rule="evenodd" d="M968.2 2171.76L973.4 2215.46L1012.4 2213.26L1004.3 2171.76H968.2Z" fill="#4275CF"/>
<path fill-rule="evenodd" clip-rule="evenodd" d="M0 1451.86L5.20001 1495.56L44.2 1493.36L36.1 1451.86H0Z" fill="#4275CF"/>
<path fill-rule="evenodd" clip-rule="evenodd" d="M2720.8 903.857L2776.3 924.157C2776.3 924.157 2817.6 893.557 2830.9 856.257L2776.3 832.957C2776.4 832.957 2771.2 872.257 2720.8 903.857Z" fill="#4275CF"/>
<path fill-rule="evenodd" clip-rule="evenodd" d="M727.4 342.958C732.7 330.258 741.9 318.058 751.8 312.558C755.3 310.558 758.7 309.358 762 308.658C764.7 297.958 770.4 287.158 779.2 277.858C784.4 272.358 789.9 269.058 795.3 267.258C800.6 256.158 808.9 247.358 818 244.258C840.5 236.558 854.4 248.358 867.6 260.558C869.8 262.658 870 266.058 867.9 268.358C865.8 270.558 862.4 270.758 860.1 268.658C849.7 259.058 839.2 248.658 821.5 254.758C816.5 256.458 812.1 260.558 808.6 265.858C817.6 266.658 825.9 270.558 832.4 274.958C836.3 277.558 842.9 283.358 846 290.258C848.5 295.758 849 301.858 845.6 307.958C842.9 312.958 838.3 316.058 833.2 317.658C826.6 319.758 819 319.458 814.4 318.758C809.1 317.858 803.4 314.458 798.8 309.158C792.9 302.458 789 292.758 790.4 282.458C789.3 283.358 788.2 284.358 787.1 285.558C780.4 292.558 775.9 300.658 773.4 308.658C784.8 310.558 794.7 318.258 802.7 324.858C805.2 326.958 808.7 332.258 810 338.558C811.3 345.058 810.5 352.358 804.8 358.258C800.4 362.758 796.1 364.358 792.1 364.458C788.2 364.558 784.4 363.158 781 360.858C777.5 358.558 774.3 355.258 771.6 352.858C764.7 346.558 760.7 336.958 760.1 325.958C760 324.258 760 322.458 760.1 320.658C759.1 321.058 758.1 321.558 757 322.158C749.8 326.158 743.1 334.458 738.7 343.558C750.5 345.658 762.9 352.458 771.8 363.858C774.2 366.858 775.7 371.558 775.6 376.758C775.6 383.958 772.6 392.058 766.1 397.258C761.6 400.858 757.2 402.258 753.2 402.358C744.5 402.558 736.9 395.858 732.1 389.358C727.2 382.758 723 374.758 722.5 364.458C722.4 361.358 722.7 358.058 723.4 354.558C719.5 355.558 716.1 357.558 713.8 360.658C710.8 364.558 709.8 370.158 711.1 377.258C712.7 385.658 717.4 395.858 726.2 407.958C728 410.458 727.5 413.858 725 415.658C722.5 417.458 719.1 416.958 717.3 414.458C696.2 385.558 696.6 365.158 704.9 354.158C710.3 347.558 718.2 343.758 727.4 342.958ZM735 354.058C734.1 357.558 733.7 360.958 733.8 364.158C734.1 371.958 737.5 377.958 741.2 382.958C745.1 388.158 751.5 395.258 759.5 388.858C763.3 385.858 764.8 381.058 764.8 376.858C764.8 374.458 764.4 372.158 763.3 370.758C755.7 360.858 745 355.258 735 354.058ZM771.3 319.258C771.1 321.358 771.1 323.358 771.2 325.358C771.6 333.158 774.2 340.158 779.1 344.658C781.4 346.758 784.1 349.558 787.1 351.558C788.6 352.558 790.2 353.358 791.9 353.358C793.6 353.358 795.2 352.358 797 350.458C799.8 347.558 800 343.858 799.3 340.658C798.6 337.258 797.1 334.358 795.7 333.258C791.5 329.758 786.6 325.758 781.2 322.858C778.2 321.058 774.8 319.758 771.3 319.258ZM803.2 276.958C802.7 278.458 802.2 279.958 801.9 281.458C799.9 289.258 802.9 296.758 807.3 301.858C810 304.958 813.3 307.258 816.4 307.858C819.2 308.358 823.5 308.558 827.6 307.758C830.9 307.058 834.3 305.758 836 302.658C838 299.058 836.7 295.558 834.8 292.658C832.3 288.758 828.6 285.658 826.2 284.158C820.2 279.858 811.9 275.958 803.2 276.958Z" fill="#213B69"/>
<path fill-rule="evenodd" clip-rule="evenodd" d="M2414.2 2145.56C2412.6 2132.16 2414.6 2117.26 2420.3 2107.66C2422.3 2104.26 2424.7 2101.56 2427.2 2099.36C2424.3 2088.96 2423.9 2076.86 2427 2064.56C2428.8 2057.36 2431.9 2051.76 2435.7 2047.66C2434.8 2035.56 2437.7 2024.06 2444 2016.96C2459.5 1999.36 2477.2 2002.76 2494.5 2006.76C2497.5 2007.46 2499.3 2010.46 2498.6 2013.36C2497.9 2016.36 2494.9 2018.16 2492 2017.46C2478.5 2014.26 2464.4 2010.46 2452.3 2024.26C2448.9 2028.06 2447.1 2033.66 2446.6 2039.86C2454.6 2036.16 2463.7 2035.56 2471.3 2036.16C2475.9 2036.56 2484.4 2038.26 2490.4 2042.66C2495.2 2046.16 2498.6 2051.16 2498.7 2058.06C2498.8 2063.66 2496.4 2068.56 2492.8 2072.46C2488.2 2077.56 2481.5 2080.96 2477.2 2082.46C2472.3 2084.26 2465.6 2084.16 2459.1 2081.86C2450.9 2078.96 2442.8 2072.66 2439 2063.26C2438.5 2064.56 2438.1 2065.86 2437.7 2067.26C2435.4 2076.46 2435.4 2085.46 2437.1 2093.56C2447.8 2089.66 2460 2091.46 2470 2093.26C2473.2 2093.86 2478.8 2096.66 2483 2101.46C2487.3 2106.36 2490.1 2113.16 2488.1 2120.86C2486.6 2126.86 2483.6 2130.36 2480.2 2132.46C2476.9 2134.46 2472.9 2135.06 2468.9 2134.86C2464.7 2134.56 2460.4 2133.36 2457 2132.56C2448 2130.56 2439.9 2124.26 2434.1 2115.16C2433.2 2113.76 2432.4 2112.26 2431.6 2110.76C2431 2111.56 2430.4 2112.46 2429.8 2113.36C2425.6 2120.26 2423.9 2130.56 2424.6 2140.36C2435.8 2136.46 2449.6 2136.26 2462.8 2141.66C2466.3 2143.16 2469.9 2146.46 2472.4 2150.86C2475.9 2157.06 2477.3 2165.46 2474.3 2173.06C2472.2 2178.36 2469.1 2181.76 2465.7 2183.76C2458.3 2188.16 2448.5 2186.06 2441.3 2182.86C2433.9 2179.56 2426.4 2174.76 2421 2166.16C2419.4 2163.56 2418.1 2160.66 2417 2157.36C2414.2 2160.16 2412.4 2163.46 2411.9 2167.06C2411.3 2171.86 2413.1 2177.06 2417.6 2182.46C2423 2188.86 2432 2195.26 2445.4 2201.36C2448.2 2202.56 2449.4 2205.86 2448.2 2208.66C2447 2211.46 2443.7 2212.66 2440.9 2211.46C2408.7 2196.96 2399.2 2179.26 2401 2165.76C2401.8 2157.86 2406.7 2150.66 2414.2 2145.56ZM2426.3 2151.46C2427.2 2154.86 2428.5 2157.96 2430.1 2160.56C2434.2 2167.06 2439.9 2170.56 2445.5 2172.96C2451.4 2175.56 2460.2 2178.46 2463.9 2169.16C2465.6 2164.76 2464.7 2159.96 2462.6 2156.36C2461.4 2154.26 2460 2152.56 2458.4 2151.86C2447.2 2147.26 2435.4 2147.76 2426.3 2151.46ZM2440.5 2104.06C2441.3 2105.86 2442.3 2107.66 2443.3 2109.26C2447.4 2115.76 2453 2120.46 2459.4 2121.86C2462.3 2122.56 2466 2123.66 2469.6 2123.86C2471.3 2123.96 2473.1 2123.96 2474.5 2123.06C2475.9 2122.26 2476.8 2120.66 2477.4 2118.16C2478.4 2114.36 2476.8 2111.06 2474.7 2108.66C2472.5 2106.16 2469.8 2104.36 2468.1 2104.06C2462.8 2103.16 2456.7 2102.06 2450.7 2102.16C2447.2 2102.36 2443.7 2102.86 2440.5 2104.06ZM2447.2 2052.36C2447.5 2053.86 2447.8 2055.36 2448.2 2056.76C2450.3 2064.36 2456.4 2069.36 2462.6 2071.56C2466.4 2072.96 2470.3 2073.26 2473.2 2072.26C2475.8 2071.36 2479.6 2069.46 2482.7 2066.76C2485.2 2064.56 2487.4 2061.86 2487.4 2058.36C2487.3 2054.36 2484.6 2052.06 2481.6 2050.46C2477.6 2048.36 2472.9 2047.56 2470.2 2047.26C2463.2 2046.66 2454.2 2047.36 2447.2 2052.36Z" fill="#213B69"/>
<path fill-rule="evenodd" clip-rule="evenodd" d="M140.7 1853.56C142.1 1848.76 143.9 1844.46 146.2 1840.76C152.8 1830.26 162 1824.36 171 1820.46C179.8 1816.56 191.4 1814.06 200.3 1819.26C204.4 1821.66 208 1825.66 210.5 1831.96C214.1 1841.06 212.4 1851.16 208.2 1858.66C205.2 1863.96 201 1867.86 196.9 1869.66C180.1 1876.66 162.4 1876.06 148.4 1870.66C147.3 1883.76 149.4 1897.86 155 1907.06C156.2 1908.96 157.4 1910.66 158.8 1912.16C160 1909.56 161.4 1907.16 162.8 1904.86C169.9 1893.76 179.7 1886.06 190.6 1883.66C194.8 1882.66 200.2 1881.16 205.3 1880.86C210.1 1880.56 214.7 1881.26 218.7 1883.66C222.7 1886.06 226.1 1890.26 227.9 1897.26C230.3 1906.46 226.9 1914.56 221.8 1920.36C216.8 1926.06 210.1 1929.46 206.4 1930.16C193.6 1932.46 177.9 1934.76 164.4 1929.26C161.8 1939.96 161.7 1952.06 164.8 1964.36C165.6 1967.56 166.6 1970.26 167.9 1972.76C172 1959.66 182.5 1950.96 193.4 1947.06C201.2 1944.26 209.2 1944.06 215.1 1946.26C220.3 1948.16 228.4 1952.26 234 1958.46C238.3 1963.16 241.1 1968.86 241.1 1975.56C241 1983.76 236.9 1989.66 231.3 1993.76C223.9 1999.16 213.7 2001.16 208.1 2001.66C198.1 2002.46 186.1 2001.46 175.8 1996.06C176.1 2005.16 178.5 2013.36 183.3 2018.76C198.9 2036.46 217 2031.76 234.4 2027.66C237.4 2026.96 240.3 2028.76 241 2031.76C241.7 2034.76 239.9 2037.66 236.9 2038.36C215.7 2043.26 194.1 2047.56 175.1 2026.06C167.3 2017.26 163.9 2002.96 165.1 1987.96C160.3 1982.86 156.4 1976.06 154.2 1966.96C150.3 1951.56 151 1936.36 154.7 1923.26C151.4 1920.56 148.4 1917.06 145.7 1912.66C138.5 1900.76 136.1 1881.96 138.3 1865.26C128.9 1859.06 122.7 1850.26 121.4 1840.26C119.3 1823.66 131.2 1802.26 170.6 1784.46C173.4 1783.26 176.6 1784.46 177.9 1787.26C179.2 1790.06 177.9 1793.26 175.1 1794.56C158.1 1802.26 146.6 1810.46 139.8 1818.56C133.8 1825.66 131.5 1832.66 132.3 1838.96C132.9 1844.66 136.1 1849.66 140.7 1853.56ZM176.6 1983.56C185.7 1990.46 197.6 1991.46 207.1 1990.76C210.7 1990.46 216.8 1989.36 222 1986.66C226.2 1984.46 230 1981.06 230.1 1975.56C230.2 1970.76 227.2 1966.96 223.7 1963.96C219.6 1960.46 214.7 1958.06 211.3 1956.76C207.4 1955.36 202.2 1955.76 197 1957.56C188.8 1960.46 180.8 1967.06 178 1977.06C177.5 1979.16 177 1981.36 176.6 1983.56ZM167.9 1918.86C172.5 1920.96 177.4 1921.66 182.4 1921.86C190.1 1922.06 197.8 1920.66 204.5 1919.46C206.8 1919.06 210.6 1916.66 213.6 1913.26C216.5 1909.96 218.7 1905.46 217.3 1900.16C216.4 1896.66 215 1894.36 213 1893.16C211 1891.96 208.5 1891.76 206 1891.96C201.5 1892.26 196.8 1893.66 193 1894.56C184.7 1896.46 177.4 1902.56 172 1910.96C170.5 1913.36 169.1 1916.06 167.9 1918.86ZM150.3 1859.56C162.1 1864.86 177.9 1865.66 192.7 1859.46C195 1858.56 197 1856.16 198.7 1853.26C201.4 1848.46 202.7 1841.96 200.4 1836.06C195.4 1823.36 183.4 1827.06 175.5 1830.46C168.3 1833.66 160.8 1838.16 155.6 1846.56C153.3 1850.26 151.5 1854.76 150.3 1859.56Z" fill="#213B69"/>
<path d="M235.4 1431.16C247.55 1431.16 257.4 1421.31 257.4 1409.16C257.4 1397.01 247.55 1387.16 235.4 1387.16C223.25 1387.16 213.4 1397.01 213.4 1409.16C213.4 1421.31 223.25 1431.16 235.4 1431.16Z" fill="#6083C3"/>
<path d="M676.4 601.657C683.304 601.657 688.9 596.061 688.9 589.157C688.9 582.254 683.304 576.657 676.4 576.657C669.497 576.657 663.9 582.254 663.9 589.157C663.9 596.061 669.497 601.657 676.4 601.657Z" fill="#6083C3"/>
<path d="M1528 591.357C1534.9 591.357 1540.5 585.761 1540.5 578.857C1540.5 571.954 1534.9 566.357 1528 566.357C1521.1 566.357 1515.5 571.954 1515.5 578.857C1515.5 585.761 1521.1 591.357 1528 591.357Z" fill="#6083C3"/>
<path d="M2637.8 1060.16C2644.7 1060.16 2650.3 1054.56 2650.3 1047.66C2650.3 1040.75 2644.7 1035.16 2637.8 1035.16C2630.9 1035.16 2625.3 1040.75 2625.3 1047.66C2625.3 1054.56 2630.9 1060.16 2637.8 1060.16Z" fill="#6083C3"/>
<path d="M2656.9 1659.96C2679.6 1659.96 2698 1641.56 2698 1618.86C2698 1596.16 2679.6 1577.76 2656.9 1577.76C2634.2 1577.76 2615.8 1596.16 2615.8 1618.86C2615.8 1641.56 2634.2 1659.96 2656.9 1659.96Z" fill="#6083C3"/>
<path d="M1208 1969.26C1220.15 1969.26 1230 1959.41 1230 1947.26C1230 1935.11 1220.15 1925.26 1208 1925.26C1195.85 1925.26 1186 1935.11 1186 1947.26C1186 1959.41 1195.85 1969.26 1208 1969.26Z" fill="#6083C3"/>
<path d="M1856.4 2054.46C1865.79 2054.46 1873.4 2046.85 1873.4 2037.46C1873.4 2028.07 1865.79 2020.46 1856.4 2020.46C1847.01 2020.46 1839.4 2028.07 1839.4 2037.46C1839.4 2046.85 1847.01 2054.46 1856.4 2054.46Z" fill="#6083C3"/>
<path d="M311.8 1782.16C321.189 1782.16 328.8 1774.55 328.8 1765.16C328.8 1755.77 321.189 1748.16 311.8 1748.16C302.411 1748.16 294.8 1755.77 294.8 1765.16C294.8 1774.55 302.411 1782.16 311.8 1782.16Z" fill="#6083C3"/>
<path d="M688.9 2121.96C695.804 2121.96 701.4 2116.36 701.4 2109.46C701.4 2102.55 695.804 2096.96 688.9 2096.96C681.997 2096.96 676.4 2102.55 676.4 2109.46C676.4 2116.36 681.997 2121.96 688.9 2121.96Z" fill="#6083C3"/>
<path d="M1890.4 331.157C1899.79 331.157 1907.4 323.546 1907.4 314.157C1907.4 304.768 1899.79 297.157 1890.4 297.157C1881.01 297.157 1873.4 304.768 1873.4 314.157C1873.4 323.546 1881.01 331.157 1890.4 331.157Z" fill="#6083C3"/>
<path d="M1511 867.457C1520.39 867.457 1528 859.846 1528 850.457C1528 841.068 1520.39 833.457 1511 833.457C1501.61 833.457 1494 841.068 1494 850.457C1494 859.846 1501.61 867.457 1511 867.457Z" fill="#6083C3"/>
<path d="M2466.5 532.058C2475.89 532.058 2483.5 524.446 2483.5 515.058C2483.5 505.669 2475.89 498.058 2466.5 498.058C2457.11 498.058 2449.5 505.669 2449.5 515.058C2449.5 524.446 2457.11 532.058 2466.5 532.058Z" fill="#6083C3"/>
<path d="M2804.3 238.657C2813.69 238.657 2821.3 231.046 2821.3 221.657C2821.3 212.268 2813.69 204.657 2804.3 204.657C2794.91 204.657 2787.3 212.268 2787.3 221.657C2787.3 231.046 2794.91 238.657 2804.3 238.657Z" fill="#6083C3"/>
<path d="M345.7 221.657C355.089 221.657 362.7 214.046 362.7 204.657C362.7 195.268 355.089 187.657 345.7 187.657C336.311 187.657 328.7 195.268 328.7 204.657C328.7 214.046 336.311 221.657 345.7 221.657Z" fill="#6083C3"/>
<path d="M274.4 2199.46C283.789 2199.46 291.4 2191.85 291.4 2182.46C291.4 2173.07 283.789 2165.46 274.4 2165.46C265.011 2165.46 257.4 2173.07 257.4 2182.46C257.4 2191.85 265.011 2199.46 274.4 2199.46Z" fill="#6083C3"/>
<path d="M22.6001 894.457C34.7504 894.457 44.6001 884.607 44.6001 872.457C44.6001 860.307 34.7504 850.457 22.6001 850.457C10.4498 850.457 0.600098 860.307 0.600098 872.457C0.600098 884.607 10.4498 894.457 22.6001 894.457Z" fill="#6083C3"/>
<path d="M2220.2 2109.36C2232.35 2109.36 2242.2 2099.51 2242.2 2087.36C2242.2 2075.21 2232.35 2065.36 2220.2 2065.36C2208.05 2065.36 2198.2 2075.21 2198.2 2087.36C2198.2 2099.51 2208.05 2109.36 2220.2 2109.36Z" fill="#6083C3"/>
<path fill-rule="evenodd" clip-rule="evenodd" d="M396.7 722.157C332 532.757 62.1 363.357 44.3 457.657C28 543.657 277.7 620.357 396.7 722.157Z" fill="#2E4C84"/>
<path fill-rule="evenodd" clip-rule="evenodd" d="M402 639.358C321.2 585.058 226 365.858 322.8 352.158C417.6 338.658 341.3 542.758 402 639.358Z" fill="#2E4C84"/>
<path fill-rule="evenodd" clip-rule="evenodd" d="M322.7 753.458C163.8 607.758 -0.70006 639.058 0.59994 698.058C1.99994 760.258 173.6 718.558 322.7 753.458Z" fill="#2E4C84"/>
<path fill-rule="evenodd" clip-rule="evenodd" d="M2449.6 1306.56C2568.1 1163.36 2799.9 1067.86 2821.3 1131.16C2856.4 1234.66 2561.5 1272.36 2449.6 1306.56Z" fill="#2E4C84"/>
<path fill-rule="evenodd" clip-rule="evenodd" d="M2449.6 1343.06C2555.4 1330.86 2756.2 1390.06 2716.4 1454.66C2678.2 1516.46 2534.6 1371.96 2449.6 1343.06Z" fill="#2E4C84"/>
<path fill-rule="evenodd" clip-rule="evenodd" d="M2585.2 1319.66C2660.8 1284.86 2801 1286.96 2797.2 1319.66C2791.6 1368.26 2648.8 1321.96 2585.2 1319.66Z" fill="#2E4C84"/>
<path fill-rule="evenodd" clip-rule="evenodd" d="M920.5 614.058C917.8 605.458 908.6 600.658 899.9 603.358L150.2 840.358C141.6 843.058 136.8 852.258 139.5 860.958L423.8 1760.16C426.5 1768.76 435.7 1773.56 444.4 1770.86L1194.1 1533.86C1202.7 1531.16 1207.5 1521.96 1204.8 1513.26L920.5 614.058Z" fill="white"/>
<path fill-rule="evenodd" clip-rule="evenodd" d="M899.8 651.357L1153 1452.36C1155.5 1460.36 1151.1 1468.86 1143.1 1471.36L450.2 1690.36C442.2 1692.86 433.7 1688.46 431.2 1680.46L178 879.457C175.5 871.457 179.9 862.957 187.9 860.457L880.8 641.457C888.7 638.957 897.2 643.357 899.8 651.357Z" fill="#8ED3FF"/>
<path fill-rule="evenodd" clip-rule="evenodd" d="M352.8 1432.46L1074.6 1204.36L1153 1452.46C1155.5 1460.46 1151.1 1468.96 1143.1 1471.46L450.2 1690.46C442.2 1692.96 433.7 1688.56 431.2 1680.56L352.8 1432.46Z" fill="#45BCA9"/>
<path fill-rule="evenodd" clip-rule="evenodd" d="M693.2 1613.56L653.5 1337.36L773.8 1299.36L900.1 1548.16L693.2 1613.56Z" fill="#3891CB"/>
<path fill-rule="evenodd" clip-rule="evenodd" d="M950.7 812.458L842.1 846.758C806.2 817.658 847.7 782.658 876.9 789.158C856.9 775.258 854.6 720.058 902.8 702.958C907 701.458 911.1 700.358 915 699.458L950.7 812.458ZM265.1 1029.16C236.7 1006.16 269.6 978.458 292.7 983.658C276.8 972.658 275.1 928.958 313.2 915.458C364.3 897.358 384.3 944.458 376.8 957.058C414.2 933.858 430.6 973.458 412 982.758L265.1 1029.16Z" fill="#F3FAFF"/>
<path fill-rule="evenodd" clip-rule="evenodd" d="M327.3 1351.96L415 1032.16C417.4 1023.46 424 1016.56 432.7 1013.76C441.3 1011.06 450.7 1012.86 457.7 1018.66L675.9 1199.06L750.8 925.958C753.2 917.258 759.8 910.358 768.5 907.558C777.1 904.858 786.6 906.658 793.5 912.458L1049.1 1123.76L1074.5 1204.26L352.8 1432.46L327.3 1351.96Z" fill="#3891CB"/>
<path fill-rule="evenodd" clip-rule="evenodd" d="M338.1 1312.66C338.1 1312.66 368.7 1386.66 408.9 1386.66C427.8 1386.66 1063.5 1169.36 1063.5 1169.36L1074.5 1204.26L352.8 1432.46L327.4 1351.96L338.1 1312.66Z" fill="#2F77A7"/>
<path fill-rule="evenodd" clip-rule="evenodd" d="M555.4 817.658C590.8 806.458 628.6 826.158 639.7 861.458C650.9 896.858 631.2 934.658 595.9 945.758C560.5 956.958 522.7 937.258 511.6 901.958C500.4 866.658 520 828.858 555.4 817.658Z" fill="white"/>
<path fill-rule="evenodd" clip-rule="evenodd" d="M1303.3 1294.96C1305.7 1286.96 1301.1 1278.66 1293.2 1276.26L601.7 1071.46C593.7 1069.06 585.4 1073.66 583 1081.56L337.3 1911.06C334.9 1919.06 339.5 1927.36 347.4 1929.76L1038.9 2134.56C1046.9 2136.96 1055.2 2132.36 1057.6 2124.46L1303.3 1294.96Z" fill="white"/>
<path fill-rule="evenodd" clip-rule="evenodd" d="M1268.4 1312.66L1049.5 2051.46C1047.3 2058.76 1039.6 2062.96 1032.2 2060.86L393.1 1871.56C385.8 1869.36 381.6 1861.66 383.7 1854.26L602.6 1115.46C604.8 1108.16 612.5 1103.96 619.9 1106.06L1259 1295.36C1266.3 1297.56 1270.5 1305.26 1268.4 1312.66Z" fill="#8ED5FF"/>
<path fill-rule="evenodd" clip-rule="evenodd" d="M431.2 1694.16C450.2 1691.36 469.4 1688.06 482.2 1688.36C541.9 1689.86 599.3 1718.46 659.4 1710.76C706.1 1704.76 747.1 1676.56 795.4 1679.36C835.5 1681.66 867.1 1706.36 902 1723.26C936.1 1739.76 974.6 1750.66 1012.3 1754.36C1045.8 1757.66 1078.3 1748.86 1111.6 1747.06C1120.2 1746.56 1129.8 1746.46 1139.8 1746.86L1049.5 2051.56C1047.3 2058.86 1039.6 2063.06 1032.2 2060.96L393.1 1871.66C385.8 1869.46 381.6 1861.76 383.7 1854.36L431.2 1694.16Z" fill="#45BCA9"/>
<path fill-rule="evenodd" clip-rule="evenodd" d="M1074.1 1558.16L1068.1 1863.26L912.9 1817.26L1074.1 1558.16ZM529.1 1694.36L526.3 1839.46L452.5 1817.56L529.1 1694.36ZM634.1 1668.36L631.9 1781.86L574.1 1764.76L634.1 1668.36ZM865.3 1542.96L856.2 2008.66L619.2 1938.46L865.3 1542.96Z" fill="#238273"/>
<path fill-rule="evenodd" clip-rule="evenodd" d="M761.6 1258.66C814.1 1274.26 844.1 1329.46 828.6 1381.96C813 1434.46 757.8 1464.46 705.3 1448.96C652.8 1433.36 622.8 1378.16 638.3 1325.66C653.9 1273.16 709.1 1243.16 761.6 1258.66Z" fill="#E9F6FF"/>
<path fill-rule="evenodd" clip-rule="evenodd" d="M2410.5 403.658C2410.6 395.058 2403.7 387.958 2395 387.858L1644.3 378.758C1635.7 378.658 1628.6 385.558 1628.5 394.258L1617.6 1294.76C1617.5 1303.36 1624.4 1310.46 1633.1 1310.56L2383.8 1319.66C2392.4 1319.76 2399.5 1312.86 2399.6 1304.16L2410.5 403.658Z" fill="white"/>
<path fill-rule="evenodd" clip-rule="evenodd" d="M2380.5 431.258L2370.8 1233.36C2370.7 1241.36 2364.1 1247.76 2356.2 1247.66L1662.4 1239.26C1654.4 1239.16 1648 1232.56 1648.1 1224.66L1657.8 422.558C1657.9 414.558 1664.5 408.158 1672.4 408.258L2366.2 416.658C2374.2 416.758 2380.6 423.258 2380.5 431.258Z" fill="#8ED3FF"/>
<path fill-rule="evenodd" clip-rule="evenodd" d="M1824.2 641.058C1822.5 638.058 1823.6 634.258 1826.5 632.558C1829.5 630.858 1833.3 631.858 1835 634.858C1835 634.858 1902.5 751.357 1949.3 929.557C1973.2 1020.46 1991.6 1127.36 1993.1 1243.06C1993.1 1249.36 1988 1254.56 1981.6 1254.56C1975.3 1254.56 1970.1 1249.46 1970.1 1243.06C1970.6 1129.16 1954.2 1023.66 1932.2 933.758C1888.9 757.258 1824.2 641.058 1824.2 641.058Z" fill="#368DA3"/>
<path fill-rule="evenodd" clip-rule="evenodd" d="M1928.9 888.158C1804.1 936.958 1704.3 800.158 1704.3 800.158C1871.9 782.158 1928.9 888.158 1928.9 888.158ZM1911 830.358C1911 830.358 1905.2 814.358 1906 790.858C1907 761.258 1918.3 719.658 1964.1 682.658C1964.2 682.658 1978.8 777.458 1911 830.358Z" fill="#40B5A2"/>
<path fill-rule="evenodd" clip-rule="evenodd" d="M1831.5 485.058C1912.4 486.058 1897.8 571.358 1871.3 597.258C1897.8 571.358 1983.5 558.858 1982.5 639.758C1981.5 720.658 1896.2 706.058 1870.3 679.558C1896.2 706.058 1908.7 791.758 1827.8 790.758C1746.9 789.758 1761.5 704.458 1788 678.558C1761.5 704.458 1675.8 716.958 1676.8 636.058C1677.8 555.158 1763.1 569.758 1789 596.258C1763.1 569.758 1750.5 484.158 1831.5 485.058Z" fill="#866EE6"/>
<path fill-rule="evenodd" clip-rule="evenodd" d="M1860.6 784.858C1860.6 784.858 1875.4 759.558 1875 731.058C1874.7 704.058 1860.6 668.458 1860.6 668.458C1860.6 668.458 1912.2 703.758 1964.7 687.358C1938 711.458 1888.9 698.558 1870.3 679.558C1891.9 701.758 1904.2 765.058 1860.6 784.858ZM1685.2 673.758C1685.2 673.758 1708.6 687.558 1736.5 687.258C1768.8 686.958 1793.6 673.758 1793.6 673.758C1793.6 673.758 1780.2 691.858 1777.7 713.058C1775.7 729.558 1769.1 757.058 1788.6 780.358C1753.6 756.558 1767.1 699.058 1788 678.658C1766.7 699.358 1707.3 711.558 1685.2 673.758Z" fill="#7259D9"/>
<path fill-rule="evenodd" clip-rule="evenodd" d="M1881.9 506.357C1902.1 533.657 1889.5 579.457 1871.3 597.257C1874 594.657 1877.3 592.057 1881.1 589.857C1870.5 599.357 1862.6 604.957 1862.6 604.957C1891.2 569.057 1881.9 506.357 1881.9 506.357Z" fill="#7259D9"/>
<path fill-rule="evenodd" clip-rule="evenodd" d="M1830 604.958C1848.2 605.158 1862.9 620.158 1862.6 638.358C1862.4 656.558 1847.4 671.258 1829.2 670.958C1811 670.758 1796.3 655.758 1796.6 637.558C1796.9 619.358 1811.8 604.758 1830 604.958Z" fill="#B9A8FB"/>
<path fill-rule="evenodd" clip-rule="evenodd" d="M1825.3 609.257C1839.4 609.457 1850.7 621.057 1850.5 635.157C1850.3 649.257 1838.7 660.557 1824.6 660.357C1810.5 660.157 1799.2 648.557 1799.4 634.457C1799.6 620.457 1811.2 609.057 1825.3 609.257Z" fill="#DCD3FD"/>
<path fill-rule="evenodd" clip-rule="evenodd" d="M2025.6 795.558C2024.3 792.358 2025.9 788.758 2029.1 787.458C2032.3 786.158 2035.9 787.758 2037.2 790.958C2037.2 790.958 2077.1 889.258 2102.6 1013.46C2117.6 1086.86 2127.5 1169.16 2121.5 1245.66C2120.9 1251.96 2115.3 1256.66 2109 1256.06C2102.7 1255.46 2098 1249.86 2098.6 1243.56C2106.2 1169.06 2098.2 1088.66 2085.2 1016.76C2062.8 893.558 2025.6 795.558 2025.6 795.558Z" fill="#368DA3"/>
<path fill-rule="evenodd" clip-rule="evenodd" d="M2087.1 679.858C2147.1 709.358 2105.9 767.858 2076.9 777.758C2105.9 767.858 2174.3 788.958 2144.8 849.058C2115.3 909.058 2056.8 867.858 2046.9 838.858C2056.8 867.858 2035.7 936.258 1975.6 906.758C1915.6 877.258 1956.8 818.758 1985.8 808.858C1956.8 818.758 1888.4 797.658 1917.9 737.558C1947.4 677.558 2005.9 718.758 2015.8 747.758C2006 718.758 2027.1 650.358 2087.1 679.858Z" fill="#D0EDFF"/>
<path fill-rule="evenodd" clip-rule="evenodd" d="M2076.9 675.657C2080.2 676.757 2083.5 678.157 2087.1 679.857C2147.1 709.357 2105.9 767.857 2076.9 777.757C2105.9 767.857 2174.3 788.957 2144.8 849.057C2144.5 849.557 2144.3 850.057 2144 850.557C2144.2 847.857 2143.8 844.757 2142.4 841.157C2137.6 828.557 2124.6 803.957 2112.3 788.557C2102.6 776.457 2061 781.757 2061 781.757C2061 781.757 2079 774.257 2080.2 766.057C2081.5 757.157 2072.3 748.057 2069 728.157C2063.7 697.357 2076.9 675.657 2076.9 675.657ZM2089.9 877.757C2069.8 871.757 2052 853.657 2046.9 838.857C2055 862.657 2042.2 913.057 2004.1 913.957C2042.3 896.157 2041.3 820.657 2041.3 820.657C2052.2 842.957 2072.8 863.357 2089.9 877.757ZM1957.2 893.957C1926.1 862.857 1960.6 817.457 1985.8 808.857C1963.1 816.557 1916.3 805.357 1911.2 771.357C1935.7 805.557 2004.1 805.157 2004.1 805.157C1989.1 811.457 1961.8 832.957 1953.3 856.957C1949.8 866.957 1951.4 881.557 1957.2 893.957Z" fill="#AED7FA"/>
<path fill-rule="evenodd" clip-rule="evenodd" d="M1913.4 748.757C1914.5 745.157 1916 741.457 1918 737.557C1943.2 686.357 1989.4 708.857 2008.6 734.557C2011.1 746.757 2007.6 757.357 2001.3 765.257C1983.1 787.557 1931 774.357 1913.4 748.757ZM2073.7 674.657C2035.2 679.657 2014.2 740.957 2014.2 740.957C2009.6 712.157 2027.8 661.857 2073.7 674.657ZM2097.6 879.457C2082.1 863.057 2064.7 828.857 2078.9 817.057C2094.6 803.957 2135 822.957 2138.6 859.557C2126.8 876.457 2111.9 881.357 2097.6 879.457Z" fill="#E0F3FF"/>
<path fill-rule="evenodd" clip-rule="evenodd" d="M2043.4 768.758C2056.9 775.358 2062.5 791.758 2055.9 805.358C2049.3 818.858 2032.9 824.458 2019.3 817.858C2005.8 811.258 2000.2 794.858 2006.8 781.258C2013.5 767.758 2029.9 762.158 2043.4 768.758Z" fill="#3F7CB1"/>
<path fill-rule="evenodd" clip-rule="evenodd" d="M2216.4 672.358C2217.7 669.158 2221.3 667.558 2224.5 668.858C2227.7 670.158 2229.3 673.758 2228 676.958C2228 676.958 2167.7 834.858 2139 1013.76C2126.7 1090.26 2120.2 1170.56 2126.9 1243.86C2127.4 1250.16 2122.7 1255.76 2116.4 1256.26C2110.1 1256.76 2104.5 1252.06 2104 1245.76C2098.6 1170.66 2106.6 1088.56 2120.6 1010.66C2152.7 830.558 2216.4 672.358 2216.4 672.358Z" fill="#368DA3"/>
<path fill-rule="evenodd" clip-rule="evenodd" d="M2153.7 897.258C2153.7 897.258 2173.9 826.258 2348.2 807.658C2348.2 807.658 2241 935.858 2153.7 897.258ZM2124.9 1049.26C2124.9 1049.26 2145.1 978.258 2319.4 959.658C2319.5 959.658 2212.2 1087.86 2124.9 1049.26ZM2168.2 841.558C2121.5 836.158 2094.8 726.758 2094.8 726.758C2176.3 768.558 2168.2 841.558 2168.2 841.558ZM2134.7 984.358C2071.9 991.858 2031.5 844.758 2031.5 844.758C2132.3 896.958 2134.7 984.358 2134.7 984.358Z" fill="#40B5A2"/>
<path fill-rule="evenodd" clip-rule="evenodd" d="M2159.1 535.058C2233 501.658 2255.9 585.358 2242.8 620.058C2255.9 585.358 2328.4 537.658 2361.8 611.558C2395.2 685.458 2311.5 708.358 2276.8 695.258C2311.5 708.358 2359.2 780.858 2285.3 814.258C2211.4 847.658 2188.5 763.958 2201.6 729.258C2188.5 763.958 2116 811.658 2082.6 737.758C2049.2 663.858 2132.9 640.958 2167.6 654.058C2132.9 640.858 2085.3 568.458 2159.1 535.058Z" fill="#EB69A2"/>
<path fill-rule="evenodd" clip-rule="evenodd" d="M2259.7 821.558C2206.2 827.158 2190.2 759.458 2201.6 729.158C2188.5 763.858 2116 811.558 2082.6 737.658C2079.4 730.458 2077.2 723.758 2076 717.558C2076 717.558 2087.9 760.058 2139.6 754.558C2190.7 749.058 2205.4 717.558 2205.4 717.558C2205.4 717.558 2220 812.458 2259.7 821.558ZM2167.3 653.858C2165 653.258 2162.6 652.558 2159.9 651.758C2162.6 652.358 2165.1 653.058 2167.3 653.858ZM2125.2 564.258C2123.6 573.758 2137.6 636.458 2180.4 657.458C2180.4 657.458 2175.2 656.058 2167.3 653.858C2141 643.758 2107.3 599.458 2125.2 564.258Z" fill="#CE4F87"/>
<path fill-rule="evenodd" clip-rule="evenodd" d="M2208.6 644.458C2225.2 636.958 2244.9 644.358 2252.4 660.958C2259.9 677.558 2252.5 697.258 2235.9 704.758C2219.3 712.258 2199.6 704.858 2192.1 688.258C2184.5 671.558 2191.9 651.958 2208.6 644.458Z" fill="#FEC5DE"/>
<path fill-rule="evenodd" clip-rule="evenodd" d="M2213.8 648.458C2227.2 642.458 2242.9 648.358 2249 661.758C2255 675.158 2249.1 690.858 2235.7 696.958C2222.3 703.058 2206.6 697.058 2200.5 683.658C2194.5 670.258 2200.4 654.458 2213.8 648.458Z" fill="#FFE1EE"/>
<path fill-rule="evenodd" clip-rule="evenodd" d="M2550.6 1503.06C2549.5 1501.76 2547.3 1499.36 2544.3 1496.16L2528.9 1510.36C2533.4 1515.16 2535.7 1517.96 2535.7 1517.96L2544.1 1510.66C2456.5 1613.56 2381.7 1681.26 2320.3 1692.26C2052.5 1462.46 1765.2 1692.16 1429.1 1469.76C1055.5 1222.56 964.3 579.957 964.3 579.957L1335.6 505.857C1335.6 505.857 1434.1 989.957 1585 1137.36C1709.5 1259.06 2068 1230.66 2255.8 1285.06C2430.7 1335.76 2556.7 1490.06 2556.7 1490.06C2554.7 1492.76 2552.7 1500.66 2550.6 1503.06ZM2183.8 1281.26C2176.9 1280.06 2169.9 1278.96 2162.8 1277.86L2159.7 1298.66C2166.6 1299.76 2173.5 1300.86 2180.2 1301.96L2183.8 1281.26ZM1807.6 1238.76C1800.7 1237.56 1793.9 1236.26 1787.1 1234.96L1783.1 1255.56C1790 1256.96 1797 1258.16 1804 1259.46L1807.6 1238.76ZM2363.7 1347.96C2357.6 1344.36 2351.4 1340.76 2345.2 1337.26L2335 1355.66C2341.1 1358.96 2347 1362.46 2352.9 1365.96L2363.7 1347.96ZM1582.3 1147.06C1580.2 1145.16 1578.2 1143.26 1576.1 1141.26C1573.4 1138.56 1570.6 1135.76 1567.9 1132.86L1552.6 1147.16C1555.5 1150.26 1558.5 1153.36 1561.5 1156.26C1563.7 1158.36 1565.9 1160.56 1568.2 1162.56L1582.3 1147.06ZM2057.7 1265.76C2050.7 1265.16 2043.7 1264.46 2036.7 1263.86L2034.9 1284.76C2041.9 1285.36 2048.9 1285.96 2055.8 1286.66L2057.7 1265.76ZM1932 1254.76C1925 1254.06 1918.1 1253.36 1911.1 1252.66L1908.9 1273.56C1915.9 1274.26 1922.9 1274.96 1929.9 1275.66L1932 1254.76ZM2417.1 1383.26C2411.4 1379.16 2405.6 1375.06 2399.7 1370.96L2387.8 1388.26C2393.6 1392.26 2399.2 1396.16 2404.7 1400.26L2417.1 1383.26ZM2306.9 1317.96C2300.4 1314.96 2293.8 1312.16 2287.1 1309.46L2279.3 1328.96C2285.7 1331.56 2292 1334.26 2298.2 1337.06L2306.9 1317.96ZM2246.4 1295.36C2239.7 1293.36 2232.7 1291.56 2225.6 1289.86L2220.7 1310.26C2227.5 1311.86 2234.1 1313.66 2240.6 1315.56L2246.4 1295.36ZM2120.7 1272.26C2113.8 1271.46 2106.8 1270.66 2099.7 1269.96L2097.5 1290.86C2104.5 1291.56 2111.4 1292.36 2118.3 1293.16L2120.7 1272.26ZM2467.3 1422.76C2462 1418.26 2456.6 1413.76 2450.9 1409.16L2437.7 1425.46C2443.2 1429.96 2448.6 1434.36 2453.7 1438.76L2467.3 1422.76ZM1994.7 1260.36C1987.7 1259.76 1980.8 1259.16 1973.8 1258.56L1972 1279.46C1979 1280.06 1986 1280.66 1993 1281.26L1994.7 1260.36ZM1687.4 1207.86C1680.9 1205.46 1674.6 1202.96 1668.3 1200.26L1660.1 1219.56C1666.6 1222.36 1673.3 1224.96 1680.1 1227.46L1687.4 1207.86ZM1869.6 1247.96C1862.7 1247.06 1855.8 1246.16 1848.9 1245.26L1846 1266.06C1853 1267.06 1860 1267.96 1867 1268.86L1869.6 1247.96ZM1746.6 1225.96C1739.9 1224.26 1733.2 1222.46 1726.6 1220.66L1720.8 1240.86C1727.6 1242.76 1734.5 1244.66 1741.4 1246.36L1746.6 1225.96ZM1631.6 1182.36C1625.7 1178.96 1619.9 1175.46 1614.2 1171.76L1602.7 1189.26C1608.7 1193.26 1614.9 1196.96 1621.3 1200.56L1631.6 1182.36ZM2514.6 1465.66C2509.9 1461.06 2504.7 1456.16 2499.2 1450.96L2484.9 1466.36C2490.3 1471.36 2495.3 1476.16 2500 1480.66L2514.6 1465.66ZM1405.8 821.157C1403.4 814.557 1401 807.957 1398.7 801.457L1378.9 808.457C1381.2 815.057 1383.6 821.657 1386 828.357L1405.8 821.157ZM1347.3 641.857C1345.3 634.957 1343.3 628.257 1341.5 621.757L1321.3 627.557C1323.2 634.157 1325.1 640.857 1327.2 647.857L1347.3 641.857ZM1330.1 581.257C1328.1 574.057 1326.3 567.257 1324.6 561.057L1304.3 566.457C1306 572.757 1307.8 579.557 1309.8 586.857L1330.1 581.257ZM1025.9 755.657C1027.7 762.557 1029.6 769.557 1031.5 776.657L1051.8 771.057C1049.9 763.957 1048 757.057 1046.2 750.257L1025.9 755.657ZM1062.9 880.657C1065.1 887.457 1067.5 894.357 1069.8 901.257L1089.7 894.457C1087.4 887.657 1085.1 880.857 1082.8 874.057L1062.9 880.657ZM1107.9 1002.96C1110.6 1009.66 1113.4 1016.36 1116.3 1023.06L1135.6 1014.86C1132.8 1008.26 1130 1001.66 1127.3 995.057L1107.9 1002.96ZM1542 1101.36C1538 1095.96 1534.1 1090.36 1530.1 1084.56L1512.7 1096.26C1516.8 1102.36 1520.9 1108.16 1525.1 1113.86L1542 1101.36ZM1478.6 994.457C1475.5 988.257 1472.5 982.057 1469.5 975.657L1450.5 984.657C1453.6 991.057 1456.7 997.457 1459.8 1003.76L1478.6 994.457ZM1402.8 1429.36C1408.6 1433.86 1414.5 1438.16 1420.5 1442.46L1432.7 1425.36C1426.9 1421.26 1421.2 1417.06 1415.6 1412.76L1402.8 1429.36ZM1452.2 937.757C1449.4 931.357 1446.7 924.957 1443.9 918.557L1424.6 926.757C1427.4 933.257 1430.2 939.757 1433 946.157L1452.2 937.757ZM1365.6 702.057C1363.5 695.257 1361.4 688.557 1359.4 682.057L1339.3 688.257C1341.3 694.857 1343.4 701.557 1345.6 708.457L1365.6 702.057ZM1515.2 1497.96C1521.9 1501.16 1528.6 1504.16 1535.3 1507.06L1543.6 1487.76C1537.2 1484.96 1530.7 1482.06 1524.3 1479.06L1515.2 1497.96ZM1162.3 1121.66C1165.6 1128.16 1169 1134.56 1172.4 1140.96L1190.9 1131.06C1187.5 1124.76 1184.2 1118.36 1181 1112.06L1162.3 1121.66ZM1576.3 1522.86C1583.3 1525.26 1590.3 1527.46 1597.3 1529.56L1603.4 1509.46C1596.7 1507.46 1590 1505.26 1583.2 1502.96L1576.3 1522.86ZM1352.7 1386.56C1358 1391.56 1363.4 1396.56 1368.9 1401.36L1382.8 1385.66C1377.5 1380.96 1372.3 1376.16 1367.1 1371.26L1352.7 1386.56ZM1639.9 1540.76C1647.1 1542.36 1654.3 1543.86 1661.4 1545.16L1665.2 1524.56C1658.3 1523.26 1651.3 1521.86 1644.4 1520.36L1639.9 1540.76ZM1307 1339.26C1311.8 1344.76 1316.8 1350.16 1321.7 1355.46L1337 1341.06C1332.2 1335.86 1327.4 1330.66 1322.7 1325.26L1307 1339.26ZM1010.2 692.457C1011.8 699.257 1013.5 706.357 1015.2 713.557L1035.6 708.557C1033.9 701.357 1032.2 694.357 1030.6 687.657L1010.2 692.457ZM1385 761.857C1382.7 755.157 1380.5 748.557 1378.4 741.957L1358.5 748.557C1360.7 755.157 1362.9 761.857 1365.2 768.557L1385 761.857ZM996.5 628.757C997.8 635.357 999.3 642.457 1000.9 650.057L1021.5 645.757C1019.9 638.257 1018.5 631.157 1017.2 624.657L996.5 628.757ZM1265.5 1288.46C1269.9 1294.26 1274.4 1300.06 1278.9 1305.76L1295.3 1292.66C1290.9 1287.06 1286.5 1281.46 1282.2 1275.76L1265.5 1288.46ZM1084.4 942.157C1086.9 948.957 1089.4 955.657 1092 962.557L1111.6 955.057C1109 948.357 1106.5 941.657 1104.1 934.957L1084.4 942.157ZM1227.8 1234.86C1231.8 1240.96 1235.9 1246.96 1240 1252.96L1257.3 1241.06C1253.3 1235.16 1249.3 1229.26 1245.4 1223.26L1227.8 1234.86ZM1193.5 1179.16C1197.1 1185.46 1200.8 1191.76 1204.6 1197.96L1222.6 1187.16C1218.9 1181.06 1215.3 1174.86 1211.7 1168.66L1193.5 1179.16ZM1043.5 818.457C1045.5 825.257 1047.6 832.257 1049.8 839.257L1069.9 833.057C1067.8 826.157 1065.7 819.257 1063.7 812.457L1043.5 818.457ZM1133.8 1062.86C1136.8 1069.46 1139.9 1076.06 1143 1082.56L1162 1073.56C1158.9 1067.06 1155.9 1060.56 1152.9 1054.06L1133.8 1062.86ZM1508.2 1049.46C1504.8 1043.56 1501.3 1037.56 1498 1031.36L1479.6 1041.46C1483.1 1047.76 1486.6 1053.96 1490.1 1059.96L1508.2 1049.46ZM1457.3 1466.66C1463.6 1470.56 1470 1474.26 1476.2 1477.76L1486.5 1459.46C1480.4 1456.06 1474.3 1452.46 1468.2 1448.66L1457.3 1466.66ZM1704.8 1551.66C1712.1 1552.56 1719.4 1553.26 1726.6 1553.96L1728.5 1533.06C1721.5 1532.46 1714.4 1531.66 1707.3 1530.86L1704.8 1551.66ZM1770.3 1556.76C1777.6 1557.06 1784.9 1557.26 1792.1 1557.46L1792.5 1536.46C1785.4 1536.26 1778.3 1536.06 1771.1 1535.76L1770.3 1556.76ZM1835.6 1557.66C1842.9 1557.56 1850.1 1557.56 1857.3 1557.36L1857 1536.36C1849.8 1536.46 1842.7 1536.56 1835.5 1536.66L1835.6 1557.66ZM1428.1 879.857C1425.5 873.357 1423 866.857 1420.5 860.357L1400.9 867.857C1403.4 874.457 1406 880.957 1408.6 887.557L1428.1 879.857ZM1965.2 1555.86C1972.4 1555.86 1979.5 1555.96 1986.6 1556.16L1987 1535.16C1979.7 1534.96 1972.5 1534.96 1965.2 1534.86V1555.86ZM2154.4 1579.96C2161.1 1582.06 2167.7 1584.26 2174.4 1586.66L2181.5 1566.86C2174.5 1564.36 2167.5 1561.96 2160.5 1559.86L2154.4 1579.96ZM1900.6 1556.56C1907.8 1556.46 1915 1556.26 1922.2 1556.16L1921.9 1535.16C1914.7 1535.26 1907.5 1535.46 1900.2 1535.56L1900.6 1556.56ZM2029.3 1557.96C2036.4 1558.46 2043.5 1559.06 2050.5 1559.76L2052.6 1538.86C2045.3 1538.16 2038 1537.56 2030.7 1537.06L2029.3 1557.96ZM2213.4 1602.86C2219.7 1605.86 2226 1608.96 2232.3 1612.36L2242.1 1593.86C2235.5 1590.36 2228.9 1587.06 2222.3 1583.96L2213.4 1602.86ZM2092.6 1565.36C2099.5 1566.56 2106.5 1567.86 2113.4 1569.36L2117.8 1548.86C2110.6 1547.36 2103.4 1545.96 2096.2 1544.66L2092.6 1565.36ZM2319.7 1671.66C2322.4 1673.86 2325.1 1676.16 2327.8 1678.56L2341.5 1662.66C2338.7 1660.26 2335.9 1657.86 2333.1 1655.56L2319.7 1671.66ZM2268.7 1633.76C2274.5 1637.56 2280.4 1641.56 2286.2 1645.66L2298.4 1628.56C2292.3 1624.26 2286.2 1620.06 2280.2 1616.16L2268.7 1633.76Z" fill="#1B2E5A"/>
<path fill-rule="evenodd" clip-rule="evenodd" d="M994.6 727.357C972.7 638.657 964.4 580.057 964.4 580.057L1335.7 505.957C1335.7 505.957 1351.1 581.757 1379.1 682.457C1376.8 683.257 1374.4 684.157 1372.1 684.957C1368.5 686.157 1365 687.357 1361.4 688.557C1360.7 686.357 1360 684.157 1359.4 682.057L1339.3 688.257C1340 690.457 1340.6 692.657 1341.3 694.857C1229.6 727.057 1110.8 727.757 994.6 727.357ZM1330.1 581.257C1328.1 574.057 1326.3 567.257 1324.6 561.057L1304.3 566.457C1306 572.757 1307.8 579.557 1309.8 586.857L1330.1 581.257ZM996.5 628.757C997.8 635.357 999.3 642.457 1000.9 650.057L1021.5 645.757C1019.9 638.257 1018.5 631.157 1017.2 624.657L996.5 628.757ZM1010.2 692.457C1011.8 699.257 1013.5 706.357 1015.2 713.557L1035.6 708.557C1033.9 701.357 1032.2 694.357 1030.6 687.657L1010.2 692.457ZM1347.3 641.857C1345.3 634.957 1343.3 628.257 1341.5 621.757L1321.3 627.557C1323.2 634.157 1325.1 640.857 1327.2 647.857L1347.3 641.857Z" fill="#1F3260"/>
<path fill-rule="evenodd" clip-rule="evenodd" d="M1119.8 1083.66C1079.2 998.757 1048.3 913.457 1025.1 837.857C1032.3 837.957 1040.5 838.057 1049.4 838.257C1049.5 838.557 1049.6 838.957 1049.7 839.257L1052.8 838.257C1159.5 839.957 1368.3 844.157 1431.7 850.657C1460.4 931.257 1494.7 1011.36 1533.6 1072.26C1460.8 1094.06 1274.9 1105.86 1119.8 1083.66ZM2231.4 1632.06C2243.5 1628.06 2416.7 1566.56 2529.3 1464.46C2547.1 1483.36 2556.9 1495.76 2556.9 1495.76C2554.8 1498.26 2552.7 1500.76 2550.7 1503.16C2549.6 1501.86 2547.4 1499.46 2544.4 1496.26L2529 1510.46C2533.5 1515.26 2535.8 1518.06 2535.8 1518.06L2544.2 1510.76C2456.6 1613.66 2381.8 1681.36 2320.4 1692.36C2290.9 1667.06 2261.3 1647.36 2231.4 1632.06ZM1084.4 942.157C1086.9 948.957 1089.4 955.657 1092 962.557L1111.6 955.057C1109 948.357 1106.5 941.657 1104.1 934.957L1084.4 942.157ZM1107.9 1002.96C1110.6 1009.66 1113.4 1016.36 1116.3 1023.06L1135.6 1014.86C1132.8 1008.26 1130 1001.66 1127.3 995.057L1107.9 1002.96ZM1062.9 880.657C1065.1 887.457 1067.5 894.357 1069.8 901.257L1089.7 894.457C1087.4 887.657 1085.1 880.857 1082.8 874.057L1062.9 880.657ZM1478.6 994.457C1475.5 988.257 1472.5 982.057 1469.5 975.657L1450.5 984.657C1453.6 991.057 1456.7 997.457 1459.8 1003.76L1478.6 994.457ZM1452.2 937.757C1449.4 931.357 1446.7 924.957 1443.9 918.557L1424.6 926.757C1427.4 933.257 1430.2 939.757 1433 946.157L1452.2 937.757ZM1133.8 1062.86C1136.8 1069.46 1139.9 1076.06 1143 1082.56L1162 1073.56C1158.9 1067.06 1155.9 1060.56 1152.9 1054.06L1133.8 1062.86ZM1508.2 1049.46C1504.8 1043.56 1501.3 1037.56 1498 1031.36L1479.6 1041.46C1483.1 1047.76 1486.6 1053.96 1490.1 1059.96L1508.2 1049.46ZM1428.1 879.857C1425.5 873.357 1423 866.857 1420.5 860.357L1400.9 867.857C1403.4 874.457 1406 880.957 1408.6 887.557L1428.1 879.857ZM2268.7 1633.76C2274.5 1637.56 2280.4 1641.56 2286.2 1645.66L2298.4 1628.56C2292.3 1624.26 2286.2 1620.06 2280.2 1616.16L2268.7 1633.76ZM2319.7 1671.66C2322.4 1673.86 2325.1 1676.16 2327.8 1678.56L2341.5 1662.66C2338.7 1660.26 2335.9 1657.86 2333.1 1655.56L2319.7 1671.66Z" fill="#19254D"/>
<path fill-rule="evenodd" clip-rule="evenodd" d="M2367 1426.26C2458.4 1484.46 2534.6 1576.16 2534.6 1576.16C2489.9 1622.46 2445.1 1640.76 2396.9 1657.86C2369.6 1631.56 2330.7 1596.16 2299.2 1577.56C2291.9 1573.26 2284.4 1569.06 2276.9 1565.16C2284.1 1558.96 2367 1427.06 2367 1426.26ZM2350.5 1416.06C2347 1423.76 2274.9 1533.26 2258.7 1557.36C2005.3 1437.76 1656.8 1498.06 1488 1405.36C1382.2 1347.16 1298.2 1239.56 1233.8 1112.16C1251.9 1102.66 1408.7 1030.06 1413.3 1025.96C1441.9 1083.06 1473.5 1132.86 1507.2 1165.76C1703.7 1357.86 2034.3 1293.56 2219.7 1355.56C2269 1371.96 2312.8 1393.46 2350.5 1416.06ZM1225.9 1086.86C1185.7 1004.76 1153.4 919.057 1128.5 842.557C1139.4 840.557 1310.8 799.157 1321.6 796.757C1344.2 865.057 1372 939.657 1403.7 1006.36C1402.7 1007.26 1230.6 1085.46 1225.9 1086.86ZM1314.7 776.157C1305.5 776.757 1125.4 820.457 1121.8 821.257C1080.7 690.857 1061.8 591.857 1061.8 591.857L1253.5 553.257C1253.5 553.257 1275.7 653.757 1314.7 776.157ZM2556.8 1490.26C2545.8 1503.46 2550.6 1522.46 2550.5 1559.76C2480.8 1484.86 2361.9 1371.16 2249.2 1337.46C2043 1275.86 1725.3 1309.26 1549 1165.26C1393.3 1038.16 1273.5 518.357 1273.5 518.357L1335.6 505.957C1335.6 505.957 1434.1 990.057 1585 1137.46C1709.5 1259.16 2068 1230.76 2255.8 1285.16C2430.8 1335.86 2556.8 1490.26 2556.8 1490.26ZM1746.6 1225.96C1739.9 1224.26 1733.2 1222.46 1726.6 1220.66L1720.8 1240.86C1727.6 1242.76 1734.5 1244.66 1741.4 1246.36L1746.6 1225.96ZM1687.4 1207.86C1680.9 1205.46 1674.6 1202.96 1668.3 1200.26L1660.1 1219.56C1666.6 1222.36 1673.3 1224.96 1680.1 1227.46L1687.4 1207.86ZM2514.6 1465.66C2509.9 1461.06 2504.7 1456.16 2499.2 1450.96L2484.9 1466.36C2490.3 1471.36 2495.3 1476.16 2500 1480.66L2514.6 1465.66ZM2363.8 1347.96C2357.7 1344.36 2351.5 1340.76 2345.3 1337.26L2335.1 1355.66C2341.2 1358.96 2347.1 1362.46 2353 1365.96L2363.8 1347.96ZM1807.6 1238.76C1800.7 1237.56 1793.9 1236.26 1787.1 1234.96L1783.1 1255.56C1790 1256.96 1797 1258.16 1804 1259.46L1807.6 1238.76ZM2551.6 1504.26C2551.6 1504.26 2549.1 1501.36 2544.3 1496.16L2528.9 1510.36C2533.4 1515.16 2535.7 1517.96 2535.7 1517.96L2551.6 1504.26ZM1869.6 1247.96C1862.7 1247.06 1855.8 1246.16 1848.9 1245.26L1846 1266.06C1853 1267.06 1860 1267.96 1867 1268.86L1869.6 1247.96ZM1631.6 1182.36C1625.7 1178.96 1619.9 1175.46 1614.2 1171.76L1602.7 1189.26C1608.7 1193.26 1614.9 1196.96 1621.3 1200.56L1631.6 1182.36ZM2417.1 1383.26C2411.4 1379.16 2405.6 1375.06 2399.7 1370.96L2387.8 1388.26C2393.6 1392.26 2399.2 1396.16 2404.7 1400.26L2417.1 1383.26ZM2183.8 1281.26C2176.9 1280.06 2169.9 1278.96 2162.8 1277.86L2159.7 1298.66C2166.6 1299.76 2173.5 1300.86 2180.2 1301.96L2183.8 1281.26ZM2120.7 1272.26C2113.8 1271.46 2106.8 1270.66 2099.7 1269.96L2097.5 1290.86C2104.5 1291.56 2111.4 1292.36 2118.3 1293.16L2120.7 1272.26ZM1582.3 1147.06C1580.2 1145.16 1578.2 1143.26 1576.1 1141.26C1573.4 1138.56 1570.6 1135.76 1567.9 1132.86L1552.6 1147.16C1555.5 1150.26 1558.5 1153.36 1561.5 1156.26C1563.7 1158.36 1565.9 1160.56 1568.2 1162.56L1582.3 1147.06ZM2467.3 1422.76C2462 1418.26 2456.6 1413.76 2450.9 1409.16L2437.7 1425.46C2443.2 1429.96 2448.6 1434.36 2453.7 1438.76L2467.3 1422.76ZM2246.4 1295.36C2239.7 1293.36 2232.7 1291.56 2225.6 1289.86L2220.7 1310.26C2227.5 1311.86 2234.1 1313.66 2240.6 1315.56L2246.4 1295.36ZM2306.9 1317.96C2300.4 1314.96 2293.8 1312.16 2287.1 1309.46L2279.3 1328.96C2285.7 1331.56 2292 1334.26 2298.2 1337.06L2306.9 1317.96ZM2057.7 1265.76C2050.7 1265.16 2043.7 1264.46 2036.7 1263.86L2034.9 1284.76C2041.9 1285.36 2048.9 1285.96 2055.8 1286.66L2057.7 1265.76ZM1932 1254.76C1925 1254.06 1918.1 1253.36 1911.1 1252.66L1908.9 1273.56C1915.9 1274.26 1922.9 1274.96 1929.9 1275.66L1932 1254.76ZM1508.2 1049.46C1504.8 1043.56 1501.3 1037.56 1498 1031.36L1479.6 1041.46C1483.1 1047.76 1486.6 1053.96 1490.1 1059.96L1508.2 1049.46ZM1452.2 937.757C1449.4 931.357 1446.7 924.957 1443.9 918.557L1424.6 926.757C1427.4 933.257 1430.2 939.757 1433 946.157L1452.2 937.757ZM1542 1101.36C1538 1095.96 1534.1 1090.36 1530.1 1084.56L1512.7 1096.26C1516.8 1102.36 1520.9 1108.16 1525.1 1113.86L1542 1101.36ZM1478.7 994.457C1475.6 988.257 1472.6 982.057 1469.6 975.657L1450.6 984.657C1453.7 991.057 1456.8 997.457 1459.9 1003.76L1478.7 994.457ZM1994.7 1260.36C1987.7 1259.76 1980.8 1259.16 1973.8 1258.56L1972 1279.46C1979 1280.06 1986 1280.66 1993 1281.26L1994.7 1260.36ZM1330.1 581.257C1328.1 574.057 1326.3 567.257 1324.6 561.057L1304.3 566.457C1306 572.757 1307.8 579.557 1309.8 586.857L1330.1 581.257ZM1385 761.857C1382.7 755.157 1380.5 748.557 1378.4 741.957L1358.5 748.557C1360.7 755.157 1362.9 761.857 1365.2 768.557L1385 761.857ZM1347.3 641.857C1345.3 634.957 1343.3 628.257 1341.5 621.757L1321.3 627.557C1323.2 634.157 1325.1 640.857 1327.2 647.857L1347.3 641.857ZM1365.6 702.057C1363.5 695.257 1361.4 688.557 1359.4 682.057L1339.3 688.257C1341.3 694.857 1343.4 701.557 1345.6 708.457L1365.6 702.057ZM1405.8 821.157C1403.4 814.557 1401 807.957 1398.7 801.457L1378.9 808.457C1381.2 815.057 1383.6 821.657 1386 828.357L1405.8 821.157ZM1428.1 879.857C1425.5 873.357 1423 866.857 1420.5 860.357L1400.9 867.857C1403.4 874.457 1406 880.957 1408.6 887.557L1428.1 879.857ZM2369 1676.26C2369 1676.26 2343.1 1688.26 2320.3 1692.36C2052.5 1462.56 1765.2 1692.26 1429.1 1469.86C1055.5 1222.66 964.3 580.057 964.3 580.057L1027.6 567.457C1027.6 567.457 1133.3 1170.76 1385.8 1363.86C1696.1 1601.06 1890.2 1471.86 2152.6 1547.26C2327.7 1597.46 2369 1676.26 2369 1676.26ZM1227.8 1234.86C1231.8 1240.96 1235.9 1246.96 1240 1252.96L1257.3 1241.06C1253.3 1235.16 1249.3 1229.26 1245.4 1223.26L1227.8 1234.86ZM1084.4 942.157C1086.9 948.957 1089.4 955.657 1092 962.557L1111.6 955.057C1109 948.357 1106.5 941.657 1104.1 934.957L1084.4 942.157ZM2092.6 1565.36C2099.5 1566.56 2106.5 1567.86 2113.4 1569.36L2117.8 1548.86C2110.6 1547.36 2103.4 1545.96 2096.2 1544.66L2092.6 1565.36ZM1704.8 1551.66C1712.1 1552.56 1719.4 1553.26 1726.6 1553.96L1728.5 1533.06C1721.5 1532.46 1714.4 1531.66 1707.3 1530.86L1704.8 1551.66ZM1770.3 1556.76C1777.6 1557.06 1784.9 1557.26 1792.1 1557.46L1792.5 1536.46C1785.4 1536.26 1778.3 1536.06 1771.1 1535.76L1770.3 1556.76ZM1639.9 1540.76C1647.1 1542.36 1654.3 1543.86 1661.4 1545.16L1665.2 1524.56C1658.3 1523.26 1651.3 1521.86 1644.4 1520.36L1639.9 1540.76ZM1352.7 1386.56C1358 1391.56 1363.4 1396.56 1368.9 1401.36L1382.8 1385.66C1377.5 1380.96 1372.3 1376.16 1367.1 1371.26L1352.7 1386.56ZM1835.6 1557.66C1842.9 1557.56 1850.1 1557.56 1857.3 1557.36L1857 1536.36C1849.8 1536.46 1842.7 1536.56 1835.5 1536.66L1835.6 1557.66ZM1457.3 1466.66C1463.6 1470.56 1470 1474.26 1476.2 1477.76L1486.5 1459.46C1480.4 1456.06 1474.3 1452.46 1468.2 1448.66L1457.3 1466.66ZM1193.5 1179.16C1197.1 1185.46 1200.8 1191.76 1204.6 1197.96L1222.6 1187.16C1218.9 1181.06 1215.3 1174.86 1211.7 1168.66L1193.5 1179.16ZM1307.1 1339.26C1311.9 1344.76 1316.9 1350.16 1321.8 1355.46L1337.1 1341.06C1332.3 1335.86 1327.5 1330.66 1322.8 1325.26L1307.1 1339.26ZM1010.2 692.457C1011.8 699.257 1013.5 706.357 1015.2 713.557L1035.6 708.557C1033.9 701.357 1032.2 694.357 1030.6 687.657L1010.2 692.457ZM1265.5 1288.46C1269.9 1294.26 1274.4 1300.06 1278.9 1305.76L1295.3 1292.66C1290.9 1287.06 1286.5 1281.46 1282.2 1275.76L1265.5 1288.46ZM1900.6 1556.56C1907.8 1556.46 1915 1556.26 1922.2 1556.16L1921.9 1535.16C1914.7 1535.26 1907.5 1535.46 1900.2 1535.56L1900.6 1556.56ZM1107.9 1002.96C1110.6 1009.66 1113.4 1016.36 1116.3 1023.06L1135.6 1014.86C1132.8 1008.26 1130 1001.66 1127.3 995.057L1107.9 1002.96ZM996.5 628.757C997.8 635.357 999.3 642.457 1000.9 650.057L1021.5 645.757C1019.9 638.257 1018.5 631.157 1017.2 624.657L996.5 628.757ZM1025.9 755.657C1027.7 762.557 1029.6 769.557 1031.5 776.657L1051.8 771.057C1049.9 763.957 1048 757.057 1046.2 750.257L1025.9 755.657ZM1162.3 1121.66C1165.6 1128.16 1169 1134.56 1172.4 1140.96L1190.9 1131.06C1187.5 1124.76 1184.2 1118.36 1181 1112.06L1162.3 1121.66ZM1965.2 1555.86C1972.4 1555.86 1979.5 1555.96 1986.6 1556.16L1987 1535.16C1979.7 1534.96 1972.5 1534.96 1965.2 1534.86V1555.86ZM1062.9 880.657C1065.1 887.457 1067.5 894.357 1069.8 901.257L1089.7 894.457C1087.4 887.657 1085.1 880.857 1082.8 874.057L1062.9 880.657ZM1402.8 1429.36C1408.6 1433.86 1414.5 1438.16 1420.5 1442.46L1432.7 1425.36C1426.9 1421.26 1421.2 1417.06 1415.6 1412.76L1402.8 1429.36ZM1576.3 1522.86C1583.3 1525.26 1590.3 1527.46 1597.3 1529.56L1603.4 1509.46C1596.7 1507.46 1590 1505.26 1583.2 1502.96L1576.3 1522.86ZM1515.2 1497.96C1521.9 1501.16 1528.6 1504.16 1535.3 1507.06L1543.6 1487.76C1537.2 1484.96 1530.7 1482.06 1524.3 1479.06L1515.2 1497.96ZM1043.5 818.457C1045.5 825.257 1047.6 832.257 1049.8 839.257L1069.9 833.057C1067.8 826.157 1065.7 819.257 1063.7 812.457L1043.5 818.457ZM2029.3 1557.96C2036.4 1558.46 2043.5 1559.06 2050.5 1559.76L2052.6 1538.86C2045.3 1538.16 2038 1537.56 2030.7 1537.06L2029.3 1557.96ZM1133.8 1062.86C1136.8 1069.46 1139.9 1076.06 1143 1082.56L1162 1073.56C1158.9 1067.06 1155.9 1060.56 1152.9 1054.06L1133.8 1062.86ZM2154.4 1579.96C2161.1 1582.06 2167.7 1584.26 2174.4 1586.66L2181.5 1566.86C2174.5 1564.36 2167.5 1561.96 2160.5 1559.86L2154.4 1579.96ZM2268.7 1633.76C2274.5 1637.56 2280.4 1641.56 2286.2 1645.66L2298.4 1628.56C2292.3 1624.26 2286.2 1620.06 2280.2 1616.16L2268.7 1633.76ZM2213.4 1602.86C2219.7 1605.86 2226 1608.96 2232.3 1612.36L2242.1 1593.86C2235.5 1590.36 2228.9 1587.06 2222.3 1583.96L2213.4 1602.86ZM2319.7 1671.66C2322.4 1673.86 2325.1 1676.16 2327.8 1678.56L2341.5 1662.66C2338.7 1660.26 2335.9 1657.86 2333.1 1655.56L2319.7 1671.66Z" fill="#304C8D"/>
<path fill-rule="evenodd" clip-rule="evenodd" d="M994.6 727.357C972.7 638.657 964.4 580.057 964.4 580.057L1027.7 567.457C1027.7 567.457 1039.1 632.757 1063.5 727.257C1040.4 727.457 1017.5 727.457 994.6 727.357ZM1273.6 518.357L1335.7 505.957C1335.7 505.957 1351.1 581.757 1379.1 682.457C1376.8 683.257 1374.4 684.157 1372.1 684.957C1368.5 686.157 1365 687.357 1361.4 688.557C1360.7 686.357 1360 684.157 1359.4 682.057L1339.3 688.257C1340 690.457 1340.6 692.657 1341.3 694.857C1335.1 696.657 1329 698.357 1322.7 699.957C1291.6 596.557 1273.6 518.357 1273.6 518.357ZM1094.1 726.757C1072.1 645.857 1061.8 591.857 1061.8 591.857L1253.5 553.257C1253.5 553.257 1267.8 617.857 1293.6 706.557C1228.3 720.457 1161.2 725.157 1094.1 726.757ZM1330.1 581.257C1328.1 574.057 1326.3 567.257 1324.6 561.057L1304.3 566.457C1306 572.757 1307.8 579.557 1309.8 586.857L1330.1 581.257ZM1347.3 641.857C1345.3 634.957 1343.3 628.257 1341.5 621.757L1321.3 627.557C1323.2 634.157 1325.1 640.857 1327.2 647.857L1347.3 641.857ZM1010.2 692.457C1011.8 699.257 1013.5 706.357 1015.2 713.557L1035.6 708.557C1033.9 701.357 1032.2 694.357 1030.6 687.657L1010.2 692.457ZM996.5 628.757C997.8 635.357 999.3 642.457 1000.9 650.057L1021.5 645.757C1019.9 638.257 1018.5 631.157 1017.2 624.657L996.5 628.757Z" fill="#587CD0"/>
<path fill-rule="evenodd" clip-rule="evenodd" d="M1431.8 850.657C1460.5 931.257 1494.8 1011.36 1533.7 1072.26C1519.8 1076.36 1501.9 1080.16 1480.9 1083.46C1439.7 1018.46 1402.5 932.157 1371.3 846.657C1396.8 847.957 1417.8 849.257 1431.8 850.657ZM2531.2 1461.96C2549 1480.86 2556.9 1490.26 2556.9 1490.26C2554.8 1492.76 2552.7 1500.66 2550.7 1503.16C2549.6 1501.86 2547.4 1499.46 2544.4 1496.26L2529 1510.46C2533.5 1515.26 2535.8 1518.06 2535.8 1518.06L2544.2 1510.76C2537.7 1518.36 2531.3 1525.76 2525 1532.96C2513.8 1521.56 2501.9 1509.56 2489.2 1497.46C2503.1 1486.96 2518.5 1473.46 2531.2 1461.96ZM2320.3 1692.26C2290.9 1667.06 2261.3 1647.36 2231.4 1631.96C2235.6 1630.56 2259.6 1622.06 2293.8 1607.36C2343.7 1638.56 2363.3 1666.86 2367.9 1674.26C2351.2 1683.56 2335.4 1689.66 2320.3 1692.26ZM1119.8 1083.66C1079.2 998.757 1048.3 913.457 1025.1 837.857C1032.3 837.957 1040.5 838.057 1049.4 838.257C1049.5 838.557 1049.6 838.957 1049.7 839.257L1052.8 838.257C1065.5 838.457 1079.6 838.657 1094.7 838.957C1119.2 919.157 1150.6 1007.86 1189.7 1091.36C1166.1 1089.46 1142.6 1086.96 1119.8 1083.66ZM1338.2 845.257C1357.3 899.357 1379.4 955.157 1403.8 1006.26C1402.7 1007.26 1230.6 1085.36 1226 1086.86C1185.8 1004.76 1153.5 919.057 1128.6 842.557C1130 842.257 1134.3 841.357 1140.7 839.857C1205.1 841.157 1278.8 842.957 1338.2 845.257ZM1268.7 1095.26C1320.6 1070.66 1409.9 1028.96 1413.3 1025.96C1424.3 1047.86 1435.7 1068.76 1447.5 1087.96C1396.6 1093.66 1333.8 1096.66 1268.7 1095.26ZM2471.8 1510.06C2487.1 1524.66 2500.3 1538.16 2510.5 1549.16C2469.1 1594.96 2430.8 1631.66 2395.7 1656.66C2375.3 1637.06 2348.8 1612.76 2323.7 1594.06C2367.9 1573.56 2421.8 1545.16 2471.8 1510.06ZM1478.7 994.457C1475.6 988.257 1472.6 982.057 1469.6 975.657L1450.6 984.657C1453.7 991.057 1456.8 997.457 1459.9 1003.76L1478.7 994.457ZM1428.1 879.857C1425.5 873.357 1423 866.857 1420.5 860.357L1400.9 867.857C1403.4 874.457 1406 880.957 1408.6 887.557L1428.1 879.857ZM1508.2 1049.46C1504.8 1043.56 1501.3 1037.56 1498 1031.36L1479.6 1041.46C1483.1 1047.76 1486.6 1053.96 1490.1 1059.96L1508.2 1049.46ZM1452.2 937.757C1449.4 931.357 1446.7 924.957 1443.9 918.557L1424.6 926.757C1427.4 933.257 1430.2 939.757 1433 946.157L1452.2 937.757ZM2319.7 1671.66C2322.4 1673.86 2325.1 1676.16 2327.8 1678.56L2341.5 1662.66C2338.7 1660.26 2335.9 1657.86 2333.1 1655.56L2319.7 1671.66ZM2268.7 1633.76C2274.5 1637.56 2280.4 1641.56 2286.2 1645.66L2298.4 1628.56C2292.3 1624.26 2286.2 1620.06 2280.2 1616.16L2268.7 1633.76ZM1084.4 942.157C1086.9 948.957 1089.4 955.657 1092 962.557L1111.6 955.057C1109 948.357 1106.5 941.657 1104.1 934.957L1084.4 942.157ZM1107.9 1002.96C1110.6 1009.66 1113.4 1016.36 1116.3 1023.06L1135.6 1014.86C1132.8 1008.26 1130 1001.66 1127.3 995.057L1107.9 1002.96ZM1133.8 1062.86C1136.8 1069.46 1139.9 1076.06 1143 1082.56L1162 1073.56C1158.9 1067.06 1155.9 1060.56 1152.9 1054.06L1133.8 1062.86ZM1062.9 880.657C1065.1 887.457 1067.5 894.357 1069.8 901.257L1089.7 894.457C1087.4 887.657 1085.1 880.857 1082.8 874.057L1062.9 880.657Z" fill="#22386D"/>
<path fill-rule="evenodd" clip-rule="evenodd" d="M2020.7 929.457C2012.1 897.257 1984.8 873.557 1951.8 869.357C1869.1 858.857 1712.9 839.057 1630.2 828.557C1597.2 824.357 1564.9 840.557 1548.5 869.557C1534.5 894.257 1520.4 919.257 1520.4 919.257L2035.6 984.658C2035.5 984.558 2028.1 956.857 2020.7 929.457Z" fill="#DC8720"/>
<path fill-rule="evenodd" clip-rule="evenodd" d="M1953.3 869.558L1996.5 889.858C1996.5 889.858 1634.7 834.358 1602.8 839.858C1560.6 847.158 1528.4 904.758 1528.4 904.758L1548.4 869.458C1564.8 840.458 1597.1 824.258 1630.1 828.458L1951.7 869.258C1952.3 869.458 1952.8 869.458 1953.3 869.558Z" fill="#FAB958"/>
<path fill-rule="evenodd" clip-rule="evenodd" d="M1528.5 904.857L2030.7 966.357L2035.6 984.557L1520.4 919.157L1528.5 904.857Z" fill="#975816"/>
<path fill-rule="evenodd" clip-rule="evenodd" d="M1962.8 935.858C1964.1 925.258 1961.2 914.558 1954.7 906.058C1948.1 897.558 1938.5 892.058 1927.9 890.758C1858.7 881.958 1717.4 864.058 1648.1 855.258C1637.5 853.958 1626.8 856.858 1618.3 863.358C1609.8 869.958 1604.3 879.558 1603 890.158C1602.5 894.058 1603.6 898.058 1606 901.258C1608.4 904.358 1612 906.458 1616 906.958C1674.4 914.358 1887.6 941.458 1946.1 948.858C1950 949.358 1954 948.258 1957.2 945.858C1960.4 943.458 1962.3 939.758 1962.8 935.858Z" fill="#FEF1DE"/>
<path fill-rule="evenodd" clip-rule="evenodd" d="M1648.9 172.858C1648.9 172.858 1529.1 330.858 1405 388.458C1280.9 446.058 1150.3 368.758 1116.5 321.258C1075.1 263.058 1017.8 111.758 914.4 75.6581C909.3 73.4581 819.6 119.458 795.5 151.458C795.5 151.458 895 183.058 947.8 283.358C1004.2 390.558 1072.4 485.558 1188.4 530.758C1347.8 592.858 1500.7 495.758 1584.4 408.958C1668.2 322.158 1812.6 106.858 1812.6 106.858C1785.5 110.958 1767.4 112.558 1738.1 124.758C1716.9 133.458 1689.7 147.858 1648.9 172.858Z" fill="#C77F1A"/>
<path fill-rule="evenodd" clip-rule="evenodd" d="M934.3 84.2578C934.3 84.2578 857 125.858 866.6 153.158C876.2 180.458 925.7 195.758 964.4 268.958C1003.1 342.258 1059.2 429.258 1136.6 473.058C1214 516.858 1282.3 558.658 1475.7 495.358C1394.5 543.658 1292.9 571.258 1188.4 530.658C1072.4 485.458 1004.2 390.558 947.8 283.258C895 182.858 795.5 151.358 795.5 151.358C819.6 119.358 909.3 73.4578 914.4 75.5578C921.2 77.9578 927.9 80.8578 934.3 84.2578ZM1574.9 418.658C1640.6 353.558 1762.3 179.258 1765.8 144.558C1728.4 159.058 1632.4 193.558 1632.4 193.558C1643 180.658 1649 172.858 1649 172.858C1689.8 147.858 1717 133.458 1738.3 124.658C1767.6 112.558 1785.7 110.958 1812.8 106.758C1812.8 106.758 1668.4 322.158 1584.6 408.858C1581.4 412.158 1578.2 415.358 1574.9 418.658Z" fill="#854511"/>
<path fill-rule="evenodd" clip-rule="evenodd" d="M952.9 95.3574C1032.6 149.957 1080.6 270.757 1116.5 321.257C1150.3 368.757 1280.9 446.057 1405 388.457C1493 347.657 1578.8 256.357 1621.3 206.657C1601.7 257.257 1484.7 390.157 1366.4 423.257C1279.2 447.557 1178.8 397.757 1146 372.157C1113.1 346.557 1085.9 317.957 1061.4 258.557C1028.9 180.057 952.9 95.3574 952.9 95.3574Z" fill="#F3AE3F"/>
<path fill-rule="evenodd" clip-rule="evenodd" d="M2261.7 1327.56C2253.4 1327.36 2246.9 1320.46 2247.1 1312.16C2247.3 1303.86 2254.2 1297.36 2262.5 1297.56C2278.2 1297.96 2292.1 1286.46 2294.3 1270.56C2296.6 1254.36 2286 1239.26 2270.3 1235.66C2262.2 1233.76 2257.2 1225.76 2259 1217.66C2260.9 1209.56 2268.9 1204.56 2277 1206.36C2307.7 1213.46 2328.4 1242.96 2324 1274.66C2319.7 1305.86 2292.5 1328.36 2261.7 1327.56Z" fill="#195080"/>
<path fill-rule="evenodd" clip-rule="evenodd" d="M791.2 1006.16C799.5 1006.36 806 1013.26 805.8 1021.56C805.6 1029.86 798.7 1036.36 790.4 1036.16C774.7 1035.76 760.8 1047.26 758.6 1063.16C756.3 1079.36 766.9 1094.46 782.6 1098.06C790.7 1099.96 795.7 1107.96 793.9 1116.06C792 1124.16 784 1129.16 775.9 1127.36C745.2 1120.26 724.5 1090.76 728.9 1059.06C733.2 1027.76 760.4 1005.36 791.2 1006.16Z" fill="#195080"/>
<path fill-rule="evenodd" clip-rule="evenodd" d="M2290.5 1284.86C2280.5 1282.66 2274.2 1272.86 2276.4 1262.86C2278.6 1252.86 2288.4 1246.56 2298.4 1248.76C2298.4 1248.76 2337.3 1255.56 2370.8 1210.06C2376.9 1201.86 2388.4 1200.06 2396.7 1206.16C2405 1212.26 2406.7 1223.76 2400.6 1232.06C2350.7 1299.66 2290.5 1284.86 2290.5 1284.86Z" fill="#B96E13"/>
<path fill-rule="evenodd" clip-rule="evenodd" d="M672.7 1007.46C667.1 998.957 669.4 987.457 678 981.857C686.5 976.257 698 978.557 703.6 987.157C703.6 987.157 725.9 1020.76 765.9 1038.66C775.2 1042.86 779.4 1053.76 775.3 1063.06C771.1 1072.36 760.2 1076.56 750.9 1072.46C700.5 1049.86 672.7 1007.46 672.7 1007.46Z" fill="#B96E13"/>
<path fill-rule="evenodd" clip-rule="evenodd" d="M2385.6 1222.06L2330.8 1112.66C2330.8 1112.66 2537.8 631.358 2565.5 439.858C2593.3 248.358 2508.9 160.658 2366 101.758C2227.1 44.4577 1833.4 57.7577 1648.9 172.958C1648.9 172.958 1785.4 57.9577 1967.6 24.8577C2147.8 -7.8423 2415.2 -29.4423 2582.4 101.758C2711.6 203.058 2771.4 355.858 2754.7 514.358C2738 671.758 2515 1222.16 2515 1222.16H2385.6V1222.06Z" fill="#FCBD40"/>
<path fill-rule="evenodd" clip-rule="evenodd" d="M2646.2 879.158C2687.2 759.658 2757.8 519.158 2724.4 362.158C2694.8 222.758 2581.9 65.0577 2363.9 21.2577C2226 -6.44231 2035.9 16.2577 1920.2 35.4577C1935.6 31.3577 1951.5 27.7577 1967.7 24.8577C2147.9 -7.8423 2415.3 -29.4423 2582.5 101.758C2711.7 203.058 2771.5 355.858 2754.8 514.358C2747.3 585.058 2698.1 735.258 2646.2 879.158Z" fill="#FFE19A"/>
<path fill-rule="evenodd" clip-rule="evenodd" d="M2460.5 1222.06H2385.6L2358.3 1167.66C2358.3 1167.66 2587.2 694.058 2615 468.558C2638.6 276.558 2530.7 128.758 2385.6 75.6579C2269 33.0579 1876.5 26.0579 1691.9 141.258C1713.1 126.958 1750.1 104.958 1784 87.558C1838.4 62.258 1893.7 52.758 1970.7 39.658C2113.5 15.358 2371.7 -13.742 2552.1 118.458C2684.5 215.458 2724.6 347.558 2707.8 505.958C2691.2 663.358 2460.5 1222.06 2460.5 1222.06Z" fill="#FEF0D3"/>
<path fill-rule="evenodd" clip-rule="evenodd" d="M914.4 75.6581C914.4 75.6581 741.4 33.6581 573.8 204.658C422.1 359.358 397 647.058 460 830.858C513 985.458 591.6 1055.56 591.6 1055.56L712.1 1021.26L751 916.758C751 916.758 658 842.958 633.9 753.258C595.3 609.158 595.9 389.858 743.2 204.758C804 128.258 885.5 93.6581 914.4 75.6581Z" fill="#FCBD40"/>
<path fill-rule="evenodd" clip-rule="evenodd" d="M709.4 1021.86L638.1 1042.86C614.3 1014.56 536.1 910.758 503.1 814.658C445.3 646.058 457.4 388.058 585.9 236.258C671.8 134.858 771.6 90.4579 796.3 77.9579C838 69.6579 856 69.3579 876.6 71.2579C876.6 71.2579 798.2 106.558 723.2 173.658C534.3 342.658 525 636.158 585.9 771.858C615.6 837.958 698.8 933.958 732.3 966.758C732.3 966.858 709.4 1021.86 709.4 1021.86Z" fill="#FEF0D3"/>
<path fill-rule="evenodd" clip-rule="evenodd" d="M2294.2 1053.16C2296.8 1032.66 2282.2 1013.86 2261.7 1011.16L854.3 832.558C833.8 829.958 815 844.558 812.3 865.058L703.6 1721.36C701 1741.86 715.6 1760.66 736.1 1763.36L2143.5 1941.96C2164 1944.56 2182.9 1929.96 2185.5 1909.46L2294.2 1053.16Z" fill="#E7F0FF"/>
<path fill-rule="evenodd" clip-rule="evenodd" d="M1244.5 1827.96L1244.4 1781.76C1245.6 1782.16 1248.1 1759.76 1244.6 1758.46L1244.4 1759.06V1735.96C1509.6 1787.56 1574.9 1643.06 1717.3 1610.36C1859.6 1577.66 1994.8 1621.26 2183.3 1636.16C2195.7 1637.16 2208 1637.26 2220.1 1636.66L2185.5 1909.56C2182.9 1930.06 2164.1 1944.66 2143.5 1942.06L1244.5 1827.96ZM1513 1739.86C1506.4 1743.26 1499.7 1746.66 1492.9 1749.76L1502.1 1769.76C1509.3 1766.46 1516.3 1762.96 1523.2 1759.36L1513 1739.86ZM1831 1611.76C1823.2 1611.76 1815.3 1611.96 1807.6 1612.26L1808.6 1634.26C1816.1 1633.96 1823.6 1633.76 1831.1 1633.76L1831 1611.76ZM1969.8 1622.96C1962.1 1621.96 1954.5 1620.96 1946.9 1619.96L1944.2 1641.76C1951.7 1642.66 1959.3 1643.66 1966.9 1644.66L1969.8 1622.96ZM1629 1667.26C1622.6 1671.36 1616.2 1675.56 1609.6 1679.86L1621.7 1698.26C1628.2 1693.96 1634.5 1689.86 1640.8 1685.86L1629 1667.26ZM1386.4 1779.46C1379.2 1780.06 1371.8 1780.46 1364.3 1780.56L1364.6 1802.56C1372.7 1802.46 1380.6 1802.06 1388.4 1801.36L1386.4 1779.46ZM1760.7 1616.66C1752.9 1617.76 1745.2 1619.06 1737.5 1620.66L1741.8 1642.26C1749.1 1640.76 1756.5 1639.56 1763.8 1638.46L1760.7 1616.66ZM2038.1 1632.56C2030.4 1631.46 2022.9 1630.36 2015.4 1629.26L2012.3 1651.06C2019.8 1652.16 2027.4 1653.26 2035.1 1654.36L2038.1 1632.56ZM1900.8 1615.06C1893 1614.36 1885.3 1613.76 1877.6 1613.26L1876.2 1635.26C1883.7 1635.76 1891.2 1636.36 1898.8 1636.96L1900.8 1615.06ZM2174.3 1649.06C2166.6 1648.36 2159.1 1647.66 2151.6 1646.96L2149.4 1668.86C2157 1669.66 2164.7 1670.36 2172.4 1670.96L2174.3 1649.06ZM2106.2 1641.76C2098.6 1640.86 2091 1639.86 2083.5 1638.86L2080.6 1660.66C2088.2 1661.66 2095.8 1662.66 2103.5 1663.56L2106.2 1641.76ZM1691.3 1633.56C1684.1 1636.46 1676.8 1639.86 1669.5 1643.56L1679.5 1663.16C1686.2 1659.76 1692.8 1656.66 1699.4 1653.96L1691.3 1633.56ZM1320.1 1777.76C1312.9 1776.76 1305.6 1775.56 1298.2 1773.96L1293.7 1795.46C1301.6 1797.06 1309.4 1798.46 1317.1 1799.46L1320.1 1777.76ZM1451.4 1766.06C1444.4 1768.26 1437.3 1770.36 1430 1772.16L1435.3 1793.56C1443.1 1791.66 1450.7 1789.46 1458.1 1787.06L1451.4 1766.06ZM1571.3 1705.16C1565 1709.26 1558.6 1713.36 1552.1 1717.36L1563.7 1736.06C1570.3 1731.96 1576.9 1727.76 1583.3 1723.66L1571.3 1705.16Z" fill="#B6CEF2"/>
<path fill-rule="evenodd" clip-rule="evenodd" d="M814 1085.86L737.4 1635.06L714.9 1632.36L784.7 1082.16L814 1085.86Z" fill="#F5F6FF"/>
<path fill-rule="evenodd" clip-rule="evenodd" d="M1125.6 1229.56C1165 1234.56 1192.9 1270.56 1187.9 1309.96C1182.9 1349.36 1146.9 1377.26 1107.5 1372.26C1068.1 1367.26 1040.2 1331.26 1045.2 1291.86C1050.2 1252.46 1086.2 1224.56 1125.6 1229.56Z" fill="#195080"/>
<path fill-rule="evenodd" clip-rule="evenodd" d="M1122.4 1254.36C1148.1 1257.66 1166.3 1281.16 1163.1 1306.86C1159.8 1332.56 1136.3 1350.76 1110.6 1347.56C1084.9 1344.26 1066.7 1320.76 1069.9 1295.06C1073.2 1269.36 1096.7 1251.06 1122.4 1254.36Z" fill="#FEF1DE"/>
<path fill-rule="evenodd" clip-rule="evenodd" d="M2294.2 1053.16L2269.1 1250.96L787.2 1062.86L812.3 865.058C814.9 844.558 833.7 829.958 854.3 832.558L2261.7 1011.16C2282.2 1013.86 2296.8 1032.66 2294.2 1053.16ZM2196.8 1820.26L2185.5 1909.56C2182.9 1930.06 2164.1 1944.66 2143.5 1942.06L736.1 1763.46C715.6 1760.86 701 1742.06 703.6 1721.46L714.9 1632.16L2196.8 1820.26Z" fill="#F9B043"/>
<path fill-rule="evenodd" clip-rule="evenodd" d="M2143.5 1942.06L736.1 1763.46C722.9 1761.76 712.1 1753.36 706.8 1742.06L1244.5 1810.46V1781.76C1245.7 1782.16 1248.2 1759.76 1244.7 1758.46L1244.5 1759.06V1735.96C1342.8 1755.06 1413.7 1747.26 1471.2 1728.16L2196.9 1820.26L2185.6 1909.56C2182.9 1930.06 2164.1 1944.66 2143.5 1942.06ZM1513 1739.86C1506.4 1743.26 1499.7 1746.66 1492.9 1749.76L1502.1 1769.76C1509.3 1766.46 1516.3 1762.96 1523.2 1759.36L1513 1739.86ZM1320.1 1777.76C1312.9 1776.76 1305.6 1775.56 1298.2 1773.96L1293.7 1795.46C1301.6 1797.06 1309.4 1798.46 1317.1 1799.46L1320.1 1777.76ZM1386.4 1779.46C1379.2 1780.06 1371.8 1780.46 1364.3 1780.56L1364.6 1802.56C1372.7 1802.46 1380.6 1802.06 1388.4 1801.36L1386.4 1779.46ZM1451.4 1766.06C1444.4 1768.26 1437.3 1770.36 1430 1772.16L1435.3 1793.56C1443.1 1791.66 1450.7 1789.46 1458.1 1787.06L1451.4 1766.06ZM2265 1011.86C2283.7 1015.96 2296.6 1033.86 2294.1 1053.26L2269 1251.06L2234 1246.66L2261.6 1011.36L2265 1011.86Z" fill="#DC8720"/>
<path fill-rule="evenodd" clip-rule="evenodd" d="M703.6 1721.46L714.9 1632.16L719.2 1632.66L703.6 1721.46ZM818.7 1066.96L787.1 1062.96L812.2 865.157C814.8 844.657 833.6 830.057 854.2 832.657L1577.2 924.457L1592.6 928.457C1592.6 928.457 1018.6 879.357 882.8 867.657C866.6 866.257 852.1 877.457 849.3 893.457C839.5 948.857 818.7 1066.96 818.7 1066.96Z" fill="#FBD085"/>
<path fill-rule="evenodd" clip-rule="evenodd" d="M1261 957.858C1263 942.158 1251.8 927.758 1236.1 925.758L961 890.858C945.3 888.858 930.9 900.058 928.9 915.758L918 1001.46C916 1017.16 927.2 1031.56 942.9 1033.56L1218 1068.46C1233.7 1070.46 1248.1 1059.26 1250.1 1043.56L1261 957.858Z" fill="#FEF1DE"/>
<path fill-rule="evenodd" clip-rule="evenodd" d="M2269.5 1247.56L2266.6 1270.16L784.7 1082.06L787.6 1059.46L2269.5 1247.56ZM2196.8 1820.36L2193.9 1842.96L712 1654.86L714.9 1632.26L2196.8 1820.36Z" fill="#195080"/>
<path fill-rule="evenodd" clip-rule="evenodd" d="M1775.1 981.457C2021 1012.66 2195.2 1237.56 2164 1483.46C2132.8 1729.36 1907.9 1903.56 1662 1872.36C1416.1 1841.16 1241.9 1616.26 1273.1 1370.36C1304.3 1124.46 1529.2 950.157 1775.1 981.457Z" fill="#C4D8FA"/>
<path fill-rule="evenodd" clip-rule="evenodd" d="M1979 1792.56C1890.3 1855.76 1778.5 1887.16 1662 1872.36C1545.5 1857.56 1445.1 1799.36 1375 1715.96L1979 1792.56ZM2123.3 1232.46L1375.2 1137.56C1470.2 1025.16 1618.4 961.558 1775.1 981.458C1931.8 1001.26 2059.4 1099.86 2123.3 1232.46Z" fill="#DC8720"/>
<path fill-rule="evenodd" clip-rule="evenodd" d="M1398.8 1742.06C1390.6 1733.66 1382.7 1725.06 1375.2 1716.06L1978.9 1792.66C1969.4 1799.46 1959.6 1805.86 1949.5 1811.86L1398.8 1742.06ZM2132.7 1253.16L1361 1155.26C1366.4 1148.16 1372 1141.16 1377.9 1134.46L2121.6 1228.86C2125.5 1236.76 2129.2 1244.86 2132.7 1253.16Z" fill="#133E63"/>
<path fill-rule="evenodd" clip-rule="evenodd" d="M1769.6 1025.16C1991.3 1053.26 2148.5 1256.16 2120.4 1477.86C2092.3 1699.56 1889.4 1856.76 1667.7 1828.66C1446 1800.56 1288.8 1597.66 1316.9 1375.96C1345 1154.26 1547.8 997.058 1769.6 1025.16Z" fill="#B3E5FE"/>
<path fill-rule="evenodd" clip-rule="evenodd" d="M1909.1 1069.46C2053.1 1146.26 2142.1 1306.46 2120.3 1477.86C2092.2 1699.56 1889.3 1856.76 1667.6 1828.66C1493.6 1806.56 1359.4 1676.96 1323.3 1515.06C1376.1 1637.86 1456.6 1744.86 1663.9 1775.66C1866.8 1805.86 2031.7 1644.06 2059 1549.96C2101.6 1403.36 2078.5 1197.26 1900 1070.76L1909.1 1069.46Z" fill="#7FC4F5"/>
<path fill-rule="evenodd" clip-rule="evenodd" d="M1754.4 1144.56C1910.2 1164.36 2020.7 1306.86 2000.9 1462.76C1981.1 1618.56 1838.6 1729.06 1682.7 1709.26C1526.9 1689.46 1416.4 1546.96 1436.2 1391.06C1456 1235.26 1598.6 1124.76 1754.4 1144.56ZM1753.6 1150.46C1601.1 1131.06 1461.5 1239.26 1442.1 1391.76C1422.7 1544.26 1530.9 1683.86 1683.4 1703.26C1835.9 1722.66 1975.5 1614.46 1994.9 1461.96C2014.3 1309.46 1906.2 1169.86 1753.6 1150.46Z" fill="#63A7E7"/>
<path fill-rule="evenodd" clip-rule="evenodd" d="M1746.7 1204.86C1869.2 1220.36 1956.1 1332.46 1940.5 1455.06C1925 1577.56 1812.9 1664.46 1690.3 1648.86C1567.8 1633.36 1480.9 1521.26 1496.5 1398.66C1512.1 1276.16 1624.2 1189.36 1746.7 1204.86Z" fill="#77ACE4"/>
<path fill-rule="evenodd" clip-rule="evenodd" d="M1734.8 1298.76C1805.5 1307.76 1855.6 1372.46 1846.6 1443.06C1837.6 1513.76 1772.9 1563.86 1702.3 1554.86C1631.6 1545.86 1581.5 1481.16 1590.5 1410.56C1599.4 1339.96 1664.1 1289.86 1734.8 1298.76Z" fill="#558ACB"/>
<path fill-rule="evenodd" clip-rule="evenodd" d="M1724.6 1379.36C1750.8 1382.66 1769.4 1406.66 1766.1 1432.86C1762.8 1459.06 1738.8 1477.66 1712.6 1474.36C1686.4 1471.06 1667.8 1447.06 1671.1 1420.86C1674.4 1394.66 1698.4 1376.06 1724.6 1379.36Z" fill="#22427E"/>
<path fill-rule="evenodd" clip-rule="evenodd" d="M1772.4 1002.96C2006.4 1032.66 2172.3 1246.76 2142.6 1480.76C2112.9 1714.76 1898.8 1880.56 1664.8 1850.86C1430.8 1821.16 1264.9 1607.06 1294.6 1373.06C1324.3 1139.06 1538.4 973.258 1772.4 1002.96ZM1768.9 1030.56C1987.7 1058.36 2142.7 1258.46 2115 1477.26C2087.2 1696.06 1887.1 1851.06 1668.3 1823.36C1449.5 1795.56 1294.5 1595.46 1322.2 1376.66C1349.9 1157.86 1550.1 1002.76 1768.9 1030.56Z" fill="#2A4074"/>
<path fill-rule="evenodd" clip-rule="evenodd" d="M1609.2 1436.16C1636.5 1439.66 1655.8 1464.56 1652.3 1491.86C1648.8 1519.16 1623.9 1538.46 1596.6 1534.96C1569.3 1531.46 1550 1506.56 1553.5 1479.26C1556.9 1451.96 1581.9 1432.66 1609.2 1436.16Z" fill="#B7D7FD"/>
<path fill-rule="evenodd" clip-rule="evenodd" d="M1847.3 1331.06C1864.6 1333.26 1876.9 1349.16 1874.7 1366.46C1872.5 1383.76 1856.6 1396.06 1839.3 1393.86C1822 1391.66 1809.7 1375.76 1811.9 1358.46C1814.1 1341.16 1830 1328.86 1847.3 1331.06Z" fill="#B7D7FD"/>
<path fill-rule="evenodd" clip-rule="evenodd" d="M2005.1 1498.96C2007.6 1489.06 2017.6 1483.06 2027.5 1485.56C2037.4 1488.06 2043.4 1498.06 2040.9 1507.96C2016.5 1605.26 1950.1 1683.56 1864.2 1725.66C1855 1730.16 1843.9 1726.36 1839.5 1717.16C1835 1707.96 1838.8 1696.86 1848 1692.46C1924.4 1655.06 1983.4 1585.46 2005.1 1498.96ZM1472.4 1590.06C1477.9 1598.66 1475.3 1610.16 1466.7 1615.56C1458.1 1621.06 1446.6 1618.46 1441.2 1609.86C1433.1 1597.06 1425.9 1583.96 1420.2 1571.96C1415.8 1562.76 1419.8 1551.66 1429 1547.36C1438.2 1542.96 1449.3 1546.96 1453.6 1556.16C1458.7 1566.96 1465.2 1578.66 1472.4 1590.06ZM1436.2 1513.76C1439.2 1523.56 1433.7 1533.86 1424 1536.86C1414.2 1539.86 1403.9 1534.36 1400.9 1524.66C1387.4 1480.76 1382.7 1433.46 1388.9 1384.96C1409.8 1220.06 1548.5 1098.66 1709.8 1094.46C1720 1094.16 1728.5 1102.26 1728.8 1112.46C1729.1 1122.66 1721 1131.16 1710.8 1131.46C1567.5 1135.16 1444.3 1243.06 1425.7 1389.66C1420 1432.76 1424.1 1474.86 1436.2 1513.76Z" fill="#ECF4FE"/>
<path fill-rule="evenodd" clip-rule="evenodd" d="M2553.6 1520.36L2546.2 1513.66C2546.2 1513.66 2543.6 1516.56 2538.6 1521.56L2552.1 1535.06L2523.8 1803.46L2514.2 1798.16C2514.2 1798.16 2512.5 1801.16 2508.7 1806.56L2522.4 1816.26L2521.7 1822.46C2521.7 1822.46 2494.1 1896.46 2360.9 1964.96C2227.7 2033.46 2072.1 2010.06 1921.7 1986.66C1771.3 1963.26 1739.9 2041.36 1604.7 2102.46C1469.4 2163.56 1269.7 2120.56 1269.7 2120.56L1269.2 1798.96C1270.4 1799.36 1272.9 1776.96 1269.4 1775.66L1269.2 1776.26V1753.16C1534.4 1804.76 1599.8 1660.26 1742.1 1627.56C1884.4 1594.86 2019.6 1638.46 2208.1 1653.36C2396.6 1668.16 2556.9 1490.46 2556.9 1490.46L2553.6 1520.36ZM1327.1 2113.46C1334.2 2114.16 1341.8 2114.76 1349.8 2115.26L1351.3 2093.26C1343.5 2092.76 1336.1 2092.16 1329.2 2091.46L1327.1 2113.46ZM1834 1962.36C1840.8 1961.56 1847.9 1960.96 1855.4 1960.76L1854.8 1938.76C1846.6 1938.96 1838.8 1939.56 1831.3 1940.46L1834 1962.36ZM1270.3 2105.76C1270.3 2105.76 1274.4 2106.56 1281.8 2107.76L1285.3 2086.06C1278.4 2084.96 1274.6 2084.26 1274.6 2084.26L1270.3 2105.76ZM1772.8 1980.16C1779.2 1977.16 1785.8 1974.46 1792.6 1972.06L1785.3 1951.36C1777.8 1953.96 1770.6 1956.96 1763.5 1960.26L1772.8 1980.16ZM1395.4 2117.06C1402.8 2117.16 1410.5 2117.06 1418.2 2116.86L1417.7 2094.86C1410.2 2095.06 1402.8 2095.06 1395.6 2095.06L1395.4 2117.06ZM1716 2013.36C1722.3 2009.26 1728.5 2005.16 1734.7 2001.36L1723 1982.66C1716.7 1986.56 1710.4 1990.66 1703.9 1994.96L1716 2013.36ZM1658.7 2049.86C1665.4 2045.86 1671.9 2041.86 1678.1 2037.96L1666.4 2019.36C1660.3 2023.16 1654 2027.06 1647.5 2030.96L1658.7 2049.86ZM1463.9 2114.26C1471.4 2113.56 1479 2112.66 1486.7 2111.66L1483.7 2089.86C1476.4 2090.86 1469.1 2091.66 1461.8 2092.36L1463.9 2114.26ZM1597.8 2081.66C1598.4 2081.36 1599 2081.16 1599.5 2080.86C1606.1 2077.86 1612.4 2074.86 1618.5 2071.86L1608.7 2052.16C1602.8 2055.06 1596.7 2057.96 1590.4 2060.86C1589.9 2061.06 1589.3 2061.36 1588.8 2061.56L1597.8 2081.66ZM1531.9 2103.36C1539.4 2101.56 1546.8 2099.66 1554.2 2097.46L1548 2076.36C1541 2078.46 1533.9 2080.26 1526.9 2081.96L1531.9 2103.36ZM2331 1652.06C2324 1654.26 2316.8 1656.36 2309.5 1658.16L2314.8 1679.46C2322.5 1677.56 2330.1 1675.36 2337.6 1673.06L2331 1652.06ZM1964.7 1973.66C1972.1 1974.86 1979.5 1976.06 1986.9 1977.36L1990.4 1955.66C1983 1954.46 1975.6 1953.26 1968.2 1952.06L1964.7 1973.66ZM2393.1 1626.76C2386.5 1630.06 2379.7 1633.26 2372.8 1636.26L2381.6 1656.36C2388.9 1653.16 2396 1649.86 2402.9 1646.36L2393.1 1626.76ZM2199.1 1666.06C2191.4 1665.36 2183.9 1664.66 2176.4 1663.96L2174.2 1685.86C2181.8 1686.66 2189.5 1687.36 2197.2 1687.96L2199.1 1666.06ZM2131 1658.86C2123.4 1657.96 2115.8 1656.96 2108.3 1655.96L2105.4 1677.76C2113 1678.76 2120.6 1679.76 2128.3 1680.66L2131 1658.86ZM2062.9 1649.66C2055.2 1648.56 2047.7 1647.46 2040.2 1646.36L2037.1 1668.16C2044.6 1669.26 2052.2 1670.36 2059.9 1671.46L2062.9 1649.66ZM1925.6 1632.06C1917.8 1631.36 1910.1 1630.76 1902.4 1630.26L1901 1652.26C1908.5 1652.76 1916 1653.36 1923.6 1653.96L1925.6 1632.06ZM1994.5 1640.06C1986.8 1639.06 1979.2 1638.06 1971.6 1637.06L1968.9 1658.86C1976.4 1659.76 1984 1660.76 1991.6 1661.76L1994.5 1640.06ZM1898.5 1963.16C1902.4 1963.66 1906.4 1964.16 1910.5 1964.86C1913.8 1965.36 1917.1 1965.86 1920.4 1966.46L1923.9 1944.76C1920.6 1944.26 1917.3 1943.66 1913.9 1943.16C1909.6 1942.46 1905.4 1941.86 1901.3 1941.36L1898.5 1963.16ZM2031.5 1984.26C2039 1985.36 2046.4 1986.46 2053.9 1987.46L2056.8 1965.66C2049.4 1964.66 2042.1 1963.66 2034.7 1962.56L2031.5 1984.26ZM2367.3 1949.26C2374.2 1945.56 2380.8 1941.76 2387.2 1938.06L2376.1 1919.06C2369.9 1922.66 2363.5 1926.26 2356.8 1929.86L2367.3 1949.26ZM2479.9 1870.86C2486 1865.26 2491.6 1859.86 2496.5 1854.86L2480.8 1839.46C2476.1 1844.26 2470.9 1849.36 2465.1 1854.66L2479.9 1870.86ZM2265.8 1666.06C2258.5 1666.86 2251.1 1667.46 2243.7 1667.66L2244.5 1689.66C2252.5 1689.36 2260.4 1688.76 2268.2 1687.86L2265.8 1666.06ZM2099 1992.66C2106.6 1993.36 2114.1 1993.96 2121.7 1994.56L2123.2 1972.66C2115.8 1972.16 2108.5 1971.56 2101.1 1970.86L2099 1992.66ZM2167.3 1996.26C2175 1996.26 2182.6 1996.16 2190.2 1995.86L2189.4 1973.86C2182.1 1974.16 2174.7 1974.26 2167.4 1974.26L2167.3 1996.26ZM2236.1 1992.06C2243.7 1991.06 2251.3 1989.86 2258.9 1988.36L2254.8 1966.76C2247.6 1968.16 2240.4 1969.26 2233.2 1970.26L2236.1 1992.06ZM2303.7 1976.96C2311 1974.56 2318.3 1971.96 2325.5 1969.06L2317.3 1948.66C2310.5 1951.36 2303.7 1953.86 2296.8 1956.06L2303.7 1976.96ZM2425.9 1913.56C2432.5 1909.06 2438.7 1904.56 2444.5 1900.16L2431.3 1882.56C2425.7 1886.76 2419.7 1891.06 2413.4 1895.46L2425.9 1913.56ZM2505.4 1551.96C2500 1556.46 2494.2 1561.26 2487.9 1566.26L2501.5 1583.56C2508 1578.46 2514.1 1573.46 2519.6 1568.76L2505.4 1551.96ZM2451.4 1592.66C2445.3 1596.76 2439 1600.86 2432.4 1604.86L2443.9 1623.66C2450.7 1619.46 2457.3 1615.26 2463.6 1611.06L2451.4 1592.66ZM1411.1 1796.56C1403.9 1797.16 1396.5 1797.56 1389 1797.66L1389.3 1819.66C1397.4 1819.56 1405.3 1819.16 1413.1 1818.46L1411.1 1796.56ZM1855.7 1628.76C1847.9 1628.76 1840 1628.96 1832.3 1629.26L1833.3 1651.26C1840.8 1650.96 1848.3 1650.76 1855.8 1650.76L1855.7 1628.76ZM1537.8 1756.86C1531.2 1760.26 1524.5 1763.66 1517.7 1766.76L1526.9 1786.76C1534.1 1783.46 1541.1 1779.96 1548 1776.36L1537.8 1756.86ZM1653.8 1684.36C1647.4 1688.46 1641 1692.66 1634.4 1696.96L1646.5 1715.36C1653 1711.06 1659.3 1706.96 1665.6 1702.96L1653.8 1684.36ZM1785.5 1633.66C1777.7 1634.76 1770 1636.06 1762.3 1637.66L1766.6 1659.26C1773.9 1657.76 1781.3 1656.56 1788.6 1655.46L1785.5 1633.66ZM1716.1 1650.56C1708.9 1653.46 1701.6 1656.86 1694.3 1660.56L1704.3 1680.16C1711 1676.76 1717.6 1673.66 1724.2 1670.96L1716.1 1650.56ZM1476.1 1783.16C1469.1 1785.36 1462 1787.46 1454.7 1789.26L1460 1810.66C1467.8 1808.76 1475.4 1806.56 1482.8 1804.16L1476.1 1783.16ZM1344.9 1794.86C1337.7 1793.86 1330.4 1792.66 1323 1791.06L1318.5 1812.56C1326.4 1814.16 1334.2 1815.56 1341.9 1816.56L1344.9 1794.86ZM1596.1 1722.26C1589.8 1726.36 1583.4 1730.46 1576.9 1734.46L1588.5 1753.16C1595.1 1749.06 1601.7 1744.86 1608.1 1740.76L1596.1 1722.26Z" fill="#203565"/>
<path fill-rule="evenodd" clip-rule="evenodd" d="M1744.3 2020.46C1737.3 2004.06 1731.5 1987.26 1726.1 1971.06C1707 1913.66 1681.4 1860.16 1657.4 1804.76C1639 1762.36 1630.8 1719.46 1633.2 1675.16C1667.5 1654.96 1701.7 1636.66 1742.1 1627.36C1782.8 1618.06 1822.9 1614.86 1863.8 1615.56C1894.3 1686.76 1895 1765.56 1907.1 1841.86C1912.4 1875.26 1919.7 1909.86 1923.9 1944.56C1920.6 1944.06 1917.3 1943.56 1914 1942.96C1909.7 1942.26 1905.5 1941.66 1901.4 1941.16L1898.7 1962.96C1902.6 1963.46 1906.6 1963.96 1910.7 1964.66C1914 1965.16 1917.3 1965.66 1920.6 1966.26L1924 1944.76C1925.7 1958.96 1926.8 1973.16 1927.1 1987.26C1925.4 1986.96 1923.7 1986.76 1922 1986.46C1838.9 1973.66 1792.2 1991.56 1744.3 2020.46ZM2471 1889.16C2469.8 1884.66 2468.8 1880.16 2467.9 1875.66C2453.9 1800.66 2479.3 1714.16 2442.3 1644.46C2436.7 1633.96 2425.6 1615.36 2412.4 1602.06C2499.2 1554.06 2556.9 1490.06 2556.9 1490.06L2553.7 1520.16L2546.3 1513.46C2546.3 1513.46 2543.7 1516.36 2538.7 1521.36L2552.2 1534.86L2523.9 1803.26L2514.3 1797.96C2514.3 1797.96 2512.6 1800.96 2508.8 1806.36L2522.5 1816.06L2521.8 1822.26C2521.8 1822.46 2511.1 1851.06 2471 1889.16ZM1834 1962.36C1840.8 1961.56 1847.9 1960.96 1855.4 1960.76L1854.8 1938.76C1846.6 1938.96 1838.8 1939.56 1831.3 1940.46L1834 1962.36ZM1772.8 1980.16C1779.2 1977.16 1785.8 1974.46 1792.6 1972.06L1785.3 1951.36C1777.8 1953.96 1770.6 1956.96 1763.5 1960.26L1772.8 1980.16ZM1855.7 1628.86C1847.9 1628.86 1840 1629.06 1832.3 1629.36L1833.3 1651.36C1840.8 1651.06 1848.3 1650.86 1855.8 1650.86L1855.7 1628.86ZM1653.8 1684.36C1647.4 1688.46 1641 1692.66 1634.4 1696.96L1646.5 1715.36C1653 1711.06 1659.3 1706.96 1665.6 1702.96L1653.8 1684.36ZM1785.5 1633.66C1777.7 1634.76 1770 1636.06 1762.3 1637.66L1766.6 1659.26C1773.9 1657.76 1781.3 1656.56 1788.6 1655.46L1785.5 1633.66ZM1716.1 1650.56C1708.9 1653.46 1701.6 1656.86 1694.3 1660.56L1704.3 1680.16C1711 1676.76 1717.6 1673.66 1724.2 1670.96L1716.1 1650.56ZM2505.4 1551.96C2500 1556.46 2494.2 1561.26 2487.9 1566.26L2501.5 1583.56C2508 1578.46 2514.1 1573.46 2519.6 1568.76L2505.4 1551.96ZM2451.4 1592.66C2445.3 1596.76 2439 1600.86 2432.4 1604.86L2443.9 1623.66C2450.7 1619.46 2457.3 1615.26 2463.6 1611.06L2451.4 1592.66ZM2479.9 1870.86C2486 1865.26 2491.6 1859.86 2496.5 1854.86L2480.8 1839.46C2476.1 1844.26 2470.9 1849.36 2465.1 1854.66L2479.9 1870.86Z" fill="#19254D"/>
<path fill-rule="evenodd" clip-rule="evenodd" d="M1451.5 2134.56C1354.8 2138.76 1269.7 2120.46 1269.7 2120.46L1269.2 1798.86C1270.4 1799.26 1271.7 1799.76 1272.9 1800.16L1280 1779.36C1276.5 1778.16 1273 1776.96 1269.5 1775.66L1269.3 1776.26V1753.16C1333.1 1765.56 1385.4 1766.66 1429.9 1760.56C1433.7 1781.86 1438.6 1803.86 1440.4 1822.86C1447.5 1898.06 1448.7 1974.36 1450.5 2049.86C1450.9 2075.86 1453.7 2105.86 1451.5 2134.56ZM2111 1971.66C2086.4 1930.16 2075.5 1881.06 2072.3 1823.66C2069.3 1770.26 2068.3 1716.36 2070.2 1662.86C2070.5 1654.56 2071.2 1646.16 2072 1637.76C2114.5 1643.56 2159.5 1649.36 2208 1653.16C2249.3 1656.46 2289.3 1650.36 2326.6 1639.06C2330.8 1649.16 2334 1659.66 2336.7 1670.36L2330.9 1652.06C2323.9 1654.26 2316.7 1656.36 2309.4 1658.16L2314.7 1679.46C2322.3 1677.56 2329.9 1675.46 2337.3 1673.06C2341.8 1691.36 2344.8 1710.16 2348.4 1728.06C2360.6 1789.66 2385.5 1864.66 2384.7 1933.86L2376 1919.06C2369.8 1922.66 2363.4 1926.26 2356.7 1929.86L2367.1 1949.26C2373.1 1946.06 2378.9 1942.76 2384.5 1939.56C2384.4 1943.96 2384.1 1948.26 2383.7 1952.56C2376.4 1956.66 2368.8 1960.86 2360.8 1964.96C2291.9 2000.36 2216.9 2011.26 2139.8 2010.16C2133.3 2003.26 2127.3 1995.96 2121.8 1988.56L2122.9 1972.66C2119.1 1972.26 2115.1 1971.96 2111 1971.66ZM2167.3 1996.26C2175 1996.26 2182.6 1996.16 2190.2 1995.86L2189.4 1973.86C2182.1 1974.16 2174.7 1974.26 2167.4 1974.26L2167.3 1996.26ZM2303.7 1976.96C2311 1974.56 2318.3 1971.96 2325.5 1969.06L2317.3 1948.66C2310.5 1951.36 2303.7 1953.86 2296.8 1956.06L2303.7 1976.96ZM2199.1 1666.06C2191.4 1665.36 2183.9 1664.66 2176.4 1663.96L2174.2 1685.86C2181.8 1686.66 2189.5 1687.36 2197.2 1687.96L2199.1 1666.06ZM2236.1 1992.06C2243.7 1991.06 2251.3 1989.86 2258.9 1988.36L2254.8 1966.76C2247.6 1968.16 2240.4 1969.26 2233.2 1970.26L2236.1 1992.06ZM2265.8 1666.06C2258.5 1666.86 2251.1 1667.46 2243.7 1667.66L2244.5 1689.66C2252.5 1689.36 2260.4 1688.76 2268.2 1687.86L2265.8 1666.06ZM2131 1658.86C2123.4 1657.96 2115.8 1656.96 2108.3 1655.96L2105.4 1677.76C2113 1678.76 2120.6 1679.76 2128.3 1680.66L2131 1658.86ZM1327.1 2113.46C1334.2 2114.16 1341.8 2114.76 1349.8 2115.26L1351.3 2093.26C1343.5 2092.76 1336.1 2092.16 1329.2 2091.46L1327.1 2113.46ZM1395.4 2117.06C1402.8 2117.16 1410.5 2117.06 1418.2 2116.86L1417.7 2094.86C1410.2 2095.06 1402.8 2095.06 1395.6 2095.06L1395.4 2117.06ZM1411.2 1796.56C1404 1797.16 1396.6 1797.56 1389.1 1797.66L1389.4 1819.66C1397.5 1819.56 1405.4 1819.16 1413.2 1818.46L1411.2 1796.56ZM1270.3 2105.76C1270.3 2105.76 1274.4 2106.56 1281.8 2107.76L1285.3 2086.06C1278.4 2084.96 1274.6 2084.26 1274.6 2084.26L1270.3 2105.76ZM1344.9 1794.86C1337.7 1793.86 1330.4 1792.66 1323 1791.06L1318.5 1812.56C1326.4 1814.16 1334.2 1815.56 1341.9 1816.56L1344.9 1794.86Z" fill="#2A427A"/>
<path fill-rule="evenodd" clip-rule="evenodd" d="M1532.4 1824.26C1534.3 1849.06 1578.4 2003.86 1581.3 2017.46C1580.9 2017.66 1580.5 2017.86 1580 2018.06C1485.7 2060.66 1367.6 2056.46 1310.2 2046.76C1307.4 2049.06 1304 1855.56 1303.8 1854.06C1408.6 1867.76 1478.8 1846.06 1532.4 1824.26ZM2376.4 1878.36C2376.6 1876.46 2342.8 1707.96 2344.5 1706.36C2437.1 1678.46 2506.4 1626.46 2534.3 1600.36C2533.7 1603.26 2522.3 1744.06 2522.3 1758.66C2498.5 1789.96 2442.7 1839.86 2376.4 1878.36ZM2356 1889.46C2349.2 1892.96 2342.3 1896.26 2335.2 1899.36C2271.4 1927.36 2202.1 1934.26 2123.1 1931.26C2122.4 1932.16 2114.6 1718.06 2118.4 1718.76C2150.8 1722.86 2185.3 1726.66 2220.8 1725.76C2258.6 1724.86 2293.2 1719.66 2324.4 1711.76C2323.9 1730.16 2355.1 1884.56 2356 1889.46ZM2095.6 1929.96C2043.3 1926.66 1986.7 1919.86 1924.7 1912.56C1892 1908.66 1864.1 1907.86 1839.5 1909.56C1836.6 1909.76 1805.2 1693.46 1802.8 1691.56C1886.9 1673.26 1979.3 1701.26 2089.4 1715.26C2086.6 1752.46 2095.9 1926.66 2095.6 1929.96ZM1811.8 1912.56C1732.3 1925.16 1686.7 1966.26 1601.8 2007.86C1600.8 2007.16 1584.5 1943.56 1571.2 1889.46C1561.5 1849.86 1553.4 1815.36 1554.2 1814.46C1633.9 1775.36 1698.4 1727.06 1771.8 1700.36C1771.8 1703.36 1812.2 1909.56 1811.8 1912.56ZM1269.3 1825.76L1269.2 1752.96C1534.4 1804.56 1599.7 1660.06 1742.1 1627.36C1884.5 1594.66 2019.6 1638.26 2208.1 1653.16C2396.6 1667.96 2556.9 1490.26 2556.9 1490.26L2549.3 1562.16C2520.2 1594.46 2369.2 1709.66 2224.4 1704.46C2074.7 1699.16 2010.5 1668.06 1858.3 1665.56C1709.3 1663.06 1640.1 1749.86 1535.9 1800.96C1526 1805.86 1515.7 1810.36 1505 1814.56C1445.9 1837.26 1338.5 1842.86 1269.3 1825.76ZM2199.1 1666.06C2191.4 1665.36 2183.9 1664.66 2176.4 1663.96L2174.2 1685.86C2181.8 1686.66 2189.5 1687.36 2197.2 1687.96L2199.1 1666.06ZM1653.8 1684.36C1647.4 1688.46 1641 1692.66 1634.4 1696.96L1646.5 1715.36C1653 1711.06 1659.3 1706.96 1665.6 1702.96L1653.8 1684.36ZM1344.9 1794.86C1337.7 1793.86 1330.4 1792.66 1323 1791.06L1318.5 1812.56C1326.4 1814.16 1334.2 1815.56 1341.9 1816.56L1344.9 1794.86ZM2393.1 1626.76C2386.5 1630.06 2379.7 1633.26 2372.8 1636.26L2381.6 1656.36C2388.9 1653.16 2396 1649.86 2402.9 1646.36L2393.1 1626.76ZM2331 1652.06C2324 1654.26 2316.8 1656.36 2309.5 1658.16L2314.8 1679.46C2322.5 1677.56 2330.1 1675.36 2337.6 1673.06L2331 1652.06ZM1476.1 1783.16C1469.1 1785.36 1462 1787.46 1454.7 1789.26L1460 1810.66C1467.8 1808.76 1475.4 1806.56 1482.8 1804.16L1476.1 1783.16ZM1411.2 1796.56C1404 1797.16 1396.6 1797.56 1389.1 1797.66L1389.4 1819.66C1397.5 1819.56 1405.4 1819.16 1413.2 1818.46L1411.2 1796.56ZM1537.8 1756.86C1531.2 1760.26 1524.5 1763.66 1517.7 1766.76L1526.9 1786.76C1534.1 1783.46 1541.1 1779.96 1548 1776.36L1537.8 1756.86ZM2131 1658.86C2123.4 1657.96 2115.8 1656.96 2108.3 1655.96L2105.4 1677.76C2113 1678.76 2120.6 1679.76 2128.3 1680.66L2131 1658.86ZM1994.5 1640.06C1986.8 1639.06 1979.2 1638.06 1971.6 1637.06L1968.9 1658.86C1976.4 1659.76 1984 1660.76 1991.6 1661.76L1994.5 1640.06ZM2062.9 1649.66C2055.2 1648.56 2047.7 1647.46 2040.2 1646.36L2037.1 1668.16C2044.6 1669.26 2052.2 1670.36 2059.9 1671.46L2062.9 1649.66ZM1596.1 1722.26C1589.8 1726.36 1583.4 1730.46 1576.9 1734.46L1588.5 1753.16C1595.1 1749.06 1601.7 1744.86 1608.1 1740.76L1596.1 1722.26ZM1785.5 1633.66C1777.7 1634.76 1770 1636.06 1762.3 1637.66L1766.6 1659.26C1773.9 1657.76 1781.3 1656.56 1788.6 1655.46L1785.5 1633.66ZM1855.7 1628.76C1847.9 1628.76 1840 1628.96 1832.3 1629.26L1833.3 1651.26C1840.8 1650.96 1848.3 1650.76 1855.8 1650.76L1855.7 1628.76ZM2505.4 1551.96C2500 1556.46 2494.2 1561.26 2487.9 1566.26L2501.5 1583.56C2508 1578.46 2514.1 1573.46 2519.6 1568.76L2505.4 1551.96ZM2265.8 1666.06C2258.5 1666.86 2251.1 1667.46 2243.7 1667.66L2244.5 1689.66C2252.5 1689.36 2260.4 1688.76 2268.2 1687.86L2265.8 1666.06ZM1925.6 1632.06C1917.8 1631.36 1910.1 1630.76 1902.4 1630.26L1901 1652.26C1908.5 1652.76 1916 1653.36 1923.6 1653.96L1925.6 1632.06ZM1716.1 1650.56C1708.9 1653.46 1701.6 1656.86 1694.3 1660.56L1704.3 1680.16C1711 1676.76 1717.6 1673.66 1724.2 1670.96L1716.1 1650.56ZM2451.4 1592.66C2445.3 1596.76 2439 1600.86 2432.4 1604.86L2443.9 1623.66C2450.7 1619.46 2457.3 1615.26 2463.6 1611.06L2451.4 1592.66ZM2522.5 1816.16L2521.8 1822.36C2521.8 1822.36 2494.2 1896.36 2361 1964.86C2227.8 2033.36 2072.2 2009.96 1921.8 1986.56C1771.4 1963.16 1740 2041.26 1604.8 2102.36C1469.5 2163.46 1269.8 2120.46 1269.8 2120.46L1269.7 2060.46C1559.8 2119.56 1666.6 1971.06 1794.1 1938.06C1915.6 1906.66 2134.8 1998.56 2288.4 1943.46C2460.1 1881.96 2527.2 1772.56 2527.2 1772.56L2523.9 1803.36L2514.3 1798.06C2514.3 1798.06 2512.6 1801.06 2508.8 1806.46L2522.5 1816.16ZM1463.9 2114.26C1471.4 2113.56 1479 2112.66 1486.7 2111.66L1483.7 2089.86C1476.4 2090.86 1469.1 2091.66 1461.8 2092.36L1463.9 2114.26ZM2479.9 1870.86C2486 1865.26 2491.6 1859.86 2496.5 1854.86L2480.8 1839.46C2476.1 1844.26 2470.9 1849.36 2465.1 1854.66L2479.9 1870.86ZM1716 2013.36C1722.3 2009.26 1728.5 2005.16 1734.7 2001.36L1723 1982.66C1716.7 1986.56 1710.4 1990.66 1703.9 1994.96L1716 2013.36ZM1772.8 1980.16C1779.2 1977.16 1785.8 1974.46 1792.6 1972.06L1785.3 1951.36C1777.8 1953.96 1770.6 1956.96 1763.5 1960.26L1772.8 1980.16ZM1597.8 2081.66C1598.4 2081.36 1599 2081.16 1599.5 2080.86C1606.1 2077.86 1612.4 2074.86 1618.5 2071.86L1608.7 2052.16C1602.8 2055.06 1596.7 2057.96 1590.4 2060.86C1589.9 2061.06 1589.3 2061.36 1588.8 2061.56L1597.8 2081.66ZM1658.7 2049.86C1665.4 2045.86 1671.9 2041.86 1678.1 2037.96L1666.4 2019.36C1660.3 2023.16 1654 2027.06 1647.5 2030.96L1658.7 2049.86ZM2367.3 1949.26C2374.2 1945.56 2380.8 1941.76 2387.2 1938.06L2376.1 1919.06C2369.9 1922.66 2363.5 1926.26 2356.8 1929.86L2367.3 1949.26ZM2425.9 1913.56C2432.5 1909.06 2438.7 1904.56 2444.5 1900.16L2431.3 1882.56C2425.7 1886.76 2419.7 1891.06 2413.4 1895.46L2425.9 1913.56ZM1327.1 2113.46C1334.2 2114.16 1341.8 2114.76 1349.8 2115.26L1351.3 2093.26C1343.5 2092.76 1336.1 2092.16 1329.2 2091.46L1327.1 2113.46ZM1964.7 1973.66C1972.1 1974.86 1979.5 1976.06 1986.9 1977.36L1990.4 1955.66C1983 1954.46 1975.6 1953.26 1968.2 1952.06L1964.7 1973.66ZM2031.5 1984.26C2039 1985.36 2046.4 1986.46 2053.9 1987.46L2056.8 1965.66C2049.4 1964.66 2042.1 1963.66 2034.7 1962.56L2031.5 1984.26ZM1834 1962.36C1840.8 1961.56 1847.9 1960.96 1855.4 1960.76L1854.8 1938.76C1846.6 1938.96 1838.8 1939.56 1831.3 1940.46L1834 1962.36ZM2099 1992.66C2106.6 1993.36 2114.1 1993.96 2121.7 1994.56L2123.2 1972.66C2115.8 1972.16 2108.5 1971.56 2101.1 1970.86L2099 1992.66ZM2167.3 1996.26C2175 1996.26 2182.6 1996.16 2190.2 1995.86L2189.4 1973.86C2182.1 1974.16 2174.7 1974.26 2167.4 1974.26L2167.3 1996.26ZM2236.1 1992.06C2243.7 1991.06 2251.3 1989.86 2258.9 1988.36L2254.8 1966.76C2247.6 1968.16 2240.4 1969.26 2233.2 1970.26L2236.1 1992.06ZM1395.4 2117.06C1402.8 2117.16 1410.5 2117.06 1418.2 2116.86L1417.7 2094.86C1410.2 2095.06 1402.8 2095.06 1395.6 2095.06L1395.4 2117.06ZM1898.6 1963.16C1902.5 1963.66 1906.5 1964.16 1910.6 1964.86C1913.9 1965.36 1917.2 1965.86 1920.5 1966.46L1924 1944.76C1920.7 1944.26 1917.4 1943.66 1914 1943.16C1909.7 1942.46 1905.5 1941.86 1901.4 1941.36L1898.6 1963.16ZM2303.7 1976.96C2311 1974.56 2318.3 1971.96 2325.5 1969.06L2317.3 1948.66C2310.5 1951.36 2303.7 1953.86 2296.8 1956.06L2303.7 1976.96ZM1531.9 2103.36C1539.4 2101.56 1546.8 2099.66 1554.2 2097.46L1548 2076.36C1541 2078.46 1533.9 2080.26 1526.9 2081.96L1531.9 2103.36Z" fill="#4162AE"/>
<path fill-rule="evenodd" clip-rule="evenodd" d="M1633.2 1675.16C1667.5 1654.96 1701.7 1636.66 1742.1 1627.36C1782.8 1618.06 1822.9 1614.86 1863.8 1615.56C1870.8 1632.06 1876.3 1648.96 1880.7 1666.06C1873.5 1665.76 1866 1665.56 1858.3 1665.46C1761.4 1663.86 1698.3 1699.96 1637.3 1739.46C1633.4 1718.36 1632 1696.96 1633.2 1675.16ZM2412.3 1602.16C2499.1 1554.16 2556.8 1490.16 2556.8 1490.16L2549.2 1562.06C2535.5 1577.26 2494.9 1610.76 2440.6 1641.46C2434.7 1630.76 2424.4 1614.26 2412.3 1602.16ZM2527 1772.86L2521.8 1822.46C2521.8 1822.46 2511.1 1851.06 2471 1889.26C2469.8 1884.76 2468.8 1880.26 2467.9 1875.76C2465.9 1864.86 2464.7 1853.66 2464 1842.26C2505.7 1805.86 2525.1 1775.96 2527 1772.86ZM1926.9 1987.36C1925.2 1987.06 1923.5 1986.86 1921.8 1986.56C1838.9 1973.66 1792.2 1991.56 1744.3 2020.46C1737.3 2004.06 1731.5 1987.26 1726.1 1971.06C1725.5 1969.36 1725 1967.66 1724.4 1965.96C1747.8 1954.06 1770.6 1944.06 1794.1 1937.96C1829.9 1928.66 1874.2 1930.16 1922.7 1935.36C1923.1 1938.46 1923.5 1941.46 1923.9 1944.56C1920.6 1944.06 1917.3 1943.56 1914 1942.96C1909.7 1942.26 1905.5 1941.66 1901.4 1941.16L1898.7 1962.96C1902.6 1963.46 1906.6 1963.96 1910.7 1964.66C1914 1965.16 1917.3 1965.66 1920.6 1966.26L1924 1944.76C1925.5 1959.06 1926.7 1973.26 1926.9 1987.36ZM2449.7 1660.86C2489.1 1638.46 2518.4 1615.16 2534.3 1600.26C2533.7 1603.16 2522.3 1743.96 2522.3 1758.56C2510.1 1774.66 2489.4 1795.76 2463.2 1817.56C2462.8 1764.46 2468.6 1709.36 2449.7 1660.86ZM1643.3 1765.56C1686.4 1740.46 1727.5 1716.46 1771.8 1700.36C1771.7 1703.26 1812.2 1909.46 1811.8 1912.46C1775.4 1918.26 1746.1 1929.96 1716.9 1945.06C1699.2 1897.26 1677.7 1851.76 1657.4 1804.76C1651.7 1791.76 1647 1778.66 1643.3 1765.56ZM1919.1 1911.86C1888.8 1908.56 1862.7 1907.86 1839.5 1909.46C1836.6 1909.66 1805.2 1693.36 1802.8 1691.46C1829.4 1685.66 1856.7 1684.56 1885.3 1686.06C1895.9 1737.06 1898.9 1790.06 1907.1 1841.86C1910.7 1864.76 1915.2 1888.16 1919.1 1911.86ZM1653.8 1684.36C1647.4 1688.46 1641 1692.66 1634.4 1696.96L1646.5 1715.36C1653 1711.06 1659.3 1706.96 1665.6 1702.96L1653.8 1684.36ZM1855.7 1628.76C1847.9 1628.76 1840 1628.96 1832.3 1629.26L1833.3 1651.26C1840.8 1650.96 1848.3 1650.76 1855.8 1650.76L1855.7 1628.76ZM1785.5 1633.66C1777.7 1634.76 1770 1636.06 1762.3 1637.66L1766.6 1659.26C1773.9 1657.76 1781.3 1656.56 1788.6 1655.46L1785.5 1633.66ZM1716.1 1650.56C1708.9 1653.46 1701.6 1656.86 1694.3 1660.56L1704.3 1680.16C1711 1676.76 1717.6 1673.66 1724.2 1670.96L1716.1 1650.56ZM2479.9 1870.86C2486 1865.26 2491.6 1859.86 2496.5 1854.86L2480.8 1839.46C2476.1 1844.26 2470.9 1849.36 2465.1 1854.66L2479.9 1870.86ZM2505.4 1551.96C2500 1556.46 2494.2 1561.26 2487.9 1566.26L2501.5 1583.56C2508 1578.46 2514.1 1573.46 2519.6 1568.76L2505.4 1551.96ZM2451.4 1592.66C2445.3 1596.76 2439 1600.86 2432.4 1604.86L2443.9 1623.66C2450.7 1619.46 2457.3 1615.26 2463.6 1611.06L2451.4 1592.66ZM1834 1962.36C1840.8 1961.56 1847.9 1960.96 1855.4 1960.76L1854.8 1938.76C1846.6 1938.96 1838.8 1939.56 1831.3 1940.46L1834 1962.36ZM1772.8 1980.16C1779.2 1977.16 1785.8 1974.46 1792.6 1972.06L1785.3 1951.36C1777.8 1953.96 1770.6 1956.96 1763.5 1960.26L1772.8 1980.16Z" fill="#304C8D"/>
<path fill-rule="evenodd" clip-rule="evenodd" d="M1269.3 1825.76L1269.2 1752.96C1333 1765.36 1385.3 1766.46 1429.8 1760.36C1433.6 1781.66 1438.5 1803.66 1440.3 1822.66C1440.5 1825.16 1440.8 1827.66 1441 1830.06C1384.7 1838.56 1317.7 1837.76 1269.3 1825.76ZM2072.1 1637.76C2114.6 1643.56 2159.6 1649.36 2208.1 1653.16C2249.4 1656.46 2289.4 1650.36 2326.7 1639.06C2330.9 1649.16 2334.1 1659.66 2336.8 1670.36L2331 1652.06C2324 1654.26 2316.8 1656.36 2309.5 1658.16L2314.8 1679.46C2322.4 1677.56 2330 1675.46 2337.4 1673.06C2338.5 1677.46 2339.5 1681.86 2340.4 1686.26C2302.9 1698.36 2263.4 1705.76 2224.3 1704.36C2162.1 1702.16 2114.6 1695.46 2069.5 1688.26C2069.7 1679.76 2069.9 1671.26 2070.2 1662.76C2070.5 1654.56 2071.2 1646.16 2072.1 1637.76ZM2383.9 1952.46C2376.6 1956.56 2369 1960.76 2361 1964.86C2292.1 2000.26 2217.1 2011.16 2140 2010.06C2133.5 2003.16 2127.5 1995.86 2122 1988.46L2123.1 1972.56C2119 1972.26 2115 1971.96 2110.9 1971.66C2108.3 1967.26 2105.9 1962.86 2103.6 1958.36C2168.6 1964.06 2232.7 1963.46 2288.3 1943.46C2324.5 1930.46 2356 1915.46 2383.2 1899.66C2384.3 1911.16 2384.8 1922.56 2384.7 1933.86L2376 1919.06C2369.8 1922.66 2363.4 1926.26 2356.7 1929.86L2367.1 1949.26C2373.1 1946.06 2378.9 1942.76 2384.5 1939.56C2384.5 1943.86 2384.3 1948.16 2383.9 1952.46ZM1451.5 2134.56C1354.8 2138.76 1269.7 2120.46 1269.7 2120.46L1269.6 2060.46C1339.9 2074.76 1399.4 2076.86 1451.1 2071.46C1452 2091.76 1453.1 2113.46 1451.5 2134.56ZM2380.4 1875.96C2379.1 1876.76 2377.7 1877.56 2376.4 1878.36C2376.6 1876.56 2344.5 1716.26 2344.5 1706.76C2345.9 1713.96 2347.2 1721.06 2348.5 1728.06C2357.3 1772.76 2372.9 1824.56 2380.4 1875.96ZM2069.2 1712.36C2075.9 1713.36 2082.6 1714.26 2089.4 1715.06C2086.6 1752.36 2095.9 1926.66 2095.5 1929.86C2094.1 1929.76 2092.8 1929.66 2091.4 1929.56C2080.2 1897.96 2074.5 1862.66 2072.3 1823.56C2070.2 1786.76 2069.1 1749.56 2069.2 1712.36ZM1450.3 2050.56C1394.4 2056.06 1342.7 2052.26 1310.3 2046.76C1307.5 2049.06 1304.1 1855.56 1303.9 1854.06C1358.8 1861.26 1404.2 1858.66 1442.7 1851.46C1447.7 1917.26 1448.8 1983.86 1450.3 2049.66C1450.3 2050.06 1450.3 2050.26 1450.3 2050.56ZM2167.3 1996.26C2175 1996.26 2182.6 1996.16 2190.2 1995.86L2189.4 1973.86C2182.1 1974.16 2174.7 1974.26 2167.4 1974.26L2167.3 1996.26ZM2236.1 1992.06C2243.7 1991.06 2251.3 1989.86 2258.9 1988.36L2254.8 1966.76C2247.6 1968.16 2240.4 1969.26 2233.2 1970.26L2236.1 1992.06ZM2303.7 1976.96C2311 1974.56 2318.3 1971.96 2325.5 1969.06L2317.3 1948.66C2310.5 1951.36 2303.7 1953.86 2296.8 1956.06L2303.7 1976.96ZM2199.1 1666.06C2191.4 1665.36 2183.9 1664.66 2176.4 1663.96L2174.2 1685.86C2181.8 1686.66 2189.5 1687.36 2197.2 1687.96L2199.1 1666.06ZM2131 1658.86C2123.4 1657.96 2115.8 1656.96 2108.3 1655.96L2105.4 1677.76C2113 1678.76 2120.6 1679.76 2128.3 1680.66L2131 1658.86ZM2265.8 1666.06C2258.5 1666.86 2251.1 1667.46 2243.7 1667.66L2244.5 1689.66C2252.5 1689.36 2260.4 1688.76 2268.2 1687.86L2265.8 1666.06ZM1395.4 2117.06C1402.8 2117.16 1410.5 2117.06 1418.2 2116.86L1417.7 2094.86C1410.2 2095.06 1402.8 2095.06 1395.6 2095.06L1395.4 2117.06ZM1327.1 2113.46C1334.2 2114.16 1341.8 2114.76 1349.8 2115.26L1351.3 2093.26C1343.5 2092.76 1336.1 2092.16 1329.2 2091.46L1327.1 2113.46ZM2356 1889.46C2349.2 1892.96 2342.3 1896.26 2335.2 1899.36C2271.4 1927.36 2202.1 1934.26 2123.1 1931.26C2122.4 1932.16 2114.6 1718.06 2118.4 1718.76C2150.8 1722.86 2185.3 1726.66 2220.8 1725.76C2258.6 1724.86 2293.2 1719.66 2324.4 1711.76C2323.9 1730.16 2355.1 1884.56 2356 1889.46ZM1411.2 1796.56C1404 1797.16 1396.6 1797.56 1389.1 1797.66L1389.4 1819.66C1397.5 1819.56 1405.4 1819.16 1413.2 1818.46L1411.2 1796.56ZM1344.9 1794.86C1337.7 1793.86 1330.4 1792.66 1323 1791.06L1318.5 1812.56C1326.4 1814.16 1334.2 1815.56 1341.9 1816.56L1344.9 1794.86Z" fill="#587CD0"/>
</svg>
