<svg width="364" height="259" viewBox="0 0 364 259" fill="none" xmlns="http://www.w3.org/2000/svg">
<path d="M73.5032 63.1764L189.794 7.04781C205.182 -0.380166 223.172 -1.38839 238.92 4.2948L273.079 16.6222C291.123 23.1343 303.938 37.5897 307.115 55.0205L308.636 63.3643C310.313 72.5607 314.71 81.0893 321.371 88.0598L334.127 101.414C351.101 119.182 352.171 145.524 336.729 165.454L323.609 182.388C311.674 197.791 291.871 206.682 271.48 205.795L172.656 201.479C170.529 201.385 168.399 201.398 166.274 201.517L112.535 204.515C85.2546 206.038 61.1919 190.228 54.7142 166.529L42.9692 123.544C36.5239 99.9727 49.2046 74.9036 73.5032 63.1764Z" fill="#E0E7FF"/>
<path d="M211.256 67.5851C214.985 65.7244 217.245 60.7058 220.295 57.9131C225.003 53.5871 232.073 51.3817 239.024 51.6383C246.706 51.9432 251.086 56.1694 257.254 58.3458C268.268 62.5709 274.593 46.5993 286.155 52.0903C293.209 55.6647 296.585 63.7198 304.082 65.3464C310.91 66.9141 315.564 61.2459 322.175 61.2191C326.505 61.2105 330.626 64.1911 333.051 67.5851C333.055 67.5851 211.731 68.1746 211.256 67.5851Z" fill="white"/>
<path d="M357.646 118.079C354.646 116.582 352.828 112.545 350.374 110.299C346.587 106.818 340.897 105.044 335.306 105.252C329.126 105.497 325.602 108.897 320.64 110.649C311.779 114.047 306.694 101.2 297.389 105.615C291.714 108.491 288.998 114.971 282.966 116.28C277.473 117.542 273.729 112.982 268.412 112.96C264.928 112.953 261.613 115.351 259.658 118.081C259.655 118.079 357.261 118.553 357.646 118.079Z" fill="white"/>
<path d="M23.8108 104.797C27.5413 102.936 29.7996 97.9176 32.8505 95.1249C37.5577 90.7989 44.6288 88.5935 51.5803 88.8501C59.2609 89.155 63.6419 93.3812 69.8094 95.5576C80.8231 99.7827 87.1479 83.8111 98.7097 89.3021C105.765 92.8765 109.141 100.932 116.638 102.558C123.466 104.126 128.119 98.4577 134.731 98.4309C139.061 98.4223 143.182 101.403 145.608 104.797C145.611 104.797 24.2857 105.386 23.8108 104.797Z" fill="white"/>
<path d="M357.905 232.989H87.3676C86.6538 232.989 86.0753 233.566 86.0753 234.278V239.418C86.0753 240.129 86.6538 240.706 87.3676 240.706H357.905C358.618 240.706 359.197 240.129 359.197 239.418V234.278C359.197 233.566 358.618 232.989 357.905 232.989Z" fill="#F86045"/>
<path d="M309.623 235.929H339.847L342.058 188.891L307.779 187.788L309.623 235.929Z" fill="#8DC7AE"/>
<path d="M310.913 174.559H340.215L348.693 191.28H310.544L310.913 174.559Z" fill="#6DA090"/>
<path d="M331.553 202.764H321.417V235.838H331.553V202.764Z" fill="#7FB9A0"/>
<path d="M251.954 132.831L252.993 139.286L254.489 148.555L264.627 143.079L263.898 132.637L263.783 131.005L251.954 132.831Z" fill="#7FB9A0"/>
<path d="M251.954 132.831L252.993 139.286L263.898 132.637L263.783 131.005L251.954 132.831Z" fill="#6DA090"/>
<path d="M250.308 135.144L265.214 132.954L264.455 127.815L249.549 130.004L250.308 135.144Z" fill="#7FB9A0"/>
<path d="M249.359 156.736L253.229 237.399H311.466L315.52 156.368L281.059 131.012C281.059 131.012 248.806 151.404 249.359 156.736Z" fill="#C0DED3"/>
<path d="M325.13 158.436L281.577 127.336L281.51 127.431L281.442 127.336L237.889 158.436L240.787 162.47L281.51 133.391L322.231 162.47L325.13 158.436Z" fill="#6DA090"/>
<path d="M282.164 198.813H261.338V237.399H282.164V198.813Z" fill="#6DA090"/>
<path d="M280.37 201.018H263.181V235.011H280.37V201.018Z" fill="#7FB9A0"/>
<path d="M276.726 219.208C277.388 219.208 277.924 218.673 277.924 218.014C277.924 217.355 277.388 216.82 276.726 216.82C276.065 216.82 275.529 217.355 275.529 218.014C275.529 218.673 276.065 219.208 276.726 219.208Z" fill="white"/>
<path d="M291.009 147.181H274.976V166.475H291.009V147.181Z" fill="white"/>
<path d="M282.209 149.133H276.957V155.954H282.209V149.133Z" fill="#8DC7AE"/>
<path d="M282.279 157.47H276.819V164.43H282.279V157.47Z" fill="#8DC7AE"/>
<path d="M289.396 149.133H283.798V164.429H289.396V149.133Z" fill="#8DC7AE"/>
<path d="M279.099 175.869H262.167V192.75H279.099V175.869Z" fill="white"/>
<path d="M276.647 178.21H271.567V190.199H276.647V178.21Z" fill="#8DC7AE"/>
<path d="M269.838 178.21H264.62V190.199H269.838V178.21Z" fill="#8DC7AE"/>
<path d="M302.689 175.869H285.757V192.75H302.689V175.869Z" fill="white"/>
<path d="M300.235 178.21H295.156V190.199H300.235V178.21Z" fill="#8DC7AE"/>
<path d="M293.428 178.21H288.21V190.199H293.428V178.21Z" fill="#8DC7AE"/>
<path d="M261.522 167.025L260.669 167.08L259.798 167.132C259.213 167.167 258.613 167.194 258.011 167.225C257.409 167.256 256.797 167.274 256.181 167.295L254.333 167.333L254.025 167.341V167.025L254.011 165.005V164.682H254.334C254.932 164.682 255.531 164.682 256.131 164.692C256.731 164.702 257.329 164.715 257.927 164.724C258.526 164.734 259.125 164.761 259.725 164.778C260.325 164.795 260.922 164.827 261.521 164.862L261.672 164.87L261.664 165.005C261.644 165.358 261.623 165.708 261.595 166.045L261.522 167.025ZM261.522 167.025C261.501 166.667 261.474 166.32 261.449 165.984C261.424 165.648 261.399 165.325 261.38 165.005L261.522 165.146C260.923 165.181 260.325 165.205 259.726 165.23C259.127 165.255 258.527 165.274 257.928 165.284C257.33 165.293 256.731 165.311 256.132 165.316C255.533 165.321 254.934 165.325 254.335 165.326L254.658 165.004L254.645 167.024L254.335 166.715L256.08 166.755L257.846 166.825L259.654 166.918L261.522 167.025Z" fill="#99BFAF"/>
<path d="M264.103 170.425L263.25 170.48L262.377 170.531C261.793 170.566 261.193 170.593 260.592 170.624C259.991 170.656 259.377 170.674 258.761 170.694L256.913 170.733L256.605 170.739V170.425L256.592 168.403V168.081H256.915C257.514 168.081 258.113 168.081 258.711 168.09C259.31 168.1 259.91 168.112 260.509 168.123C261.108 168.133 261.706 168.159 262.305 168.176C262.904 168.194 263.504 168.226 264.103 168.26L264.252 168.269L264.245 168.402C264.225 168.755 264.205 169.106 264.176 169.443L264.103 170.425ZM264.103 170.425C264.08 170.065 264.054 169.719 264.028 169.383C264.002 169.047 263.98 168.724 263.96 168.403L264.103 168.546C263.504 168.58 262.905 168.605 262.305 168.629C261.705 168.654 261.108 168.674 260.509 168.683C259.91 168.693 259.311 168.71 258.711 168.715C258.112 168.721 257.514 168.724 256.915 168.725L257.238 168.403L257.224 170.425L256.915 170.116L258.661 170.155L260.426 170.225L262.233 170.318L264.103 170.425Z" fill="#99BFAF"/>
<path d="M294.51 202.855L293.658 202.91L292.786 202.962C292.202 202.998 291.602 203.024 291 203.055C290.398 203.086 289.785 203.105 289.169 203.125L287.32 203.165L287.013 203.171V202.855L286.999 200.835V200.512H287.322C287.921 200.512 288.521 200.512 289.119 200.522C289.718 200.532 290.317 200.545 290.916 200.554C291.514 200.564 292.114 200.591 292.713 200.608C293.312 200.625 293.911 200.657 294.509 200.692L294.66 200.7L294.653 200.835C294.632 201.188 294.612 201.538 294.584 201.875L294.51 202.855ZM294.51 202.855C294.489 202.497 294.462 202.15 294.437 201.815C294.412 201.48 294.388 201.155 294.368 200.835L294.51 200.976C293.912 201.011 293.313 201.035 292.714 201.06C292.115 201.085 291.516 201.104 290.917 201.114C290.318 201.123 289.719 201.141 289.12 201.146C288.522 201.151 287.922 201.155 287.323 201.156L287.646 200.833L287.633 202.854L287.323 202.546L289.069 202.585L290.834 202.655L292.642 202.748L294.51 202.855Z" fill="#99BFAF"/>
<path d="M297.091 206.255L296.238 206.31L295.367 206.361C294.782 206.397 294.182 206.423 293.58 206.454C292.978 206.486 292.365 206.504 291.749 206.524L289.901 206.563L289.593 206.57V206.255L289.585 204.231V203.909H289.908C290.506 203.909 291.105 203.909 291.704 203.918C292.303 203.928 292.903 203.941 293.501 203.951C294.1 203.96 294.699 203.987 295.298 204.004C295.896 204.021 296.496 204.054 297.095 204.088L297.245 204.097L297.231 204.231C297.211 204.584 297.191 204.934 297.162 205.271L297.091 206.255ZM297.091 206.255C297.068 205.896 297.042 205.549 297.016 205.213C296.991 204.877 296.968 204.554 296.949 204.234L297.091 204.376C296.492 204.41 295.893 204.435 295.293 204.459C294.694 204.484 294.096 204.504 293.497 204.513C292.898 204.523 292.3 204.54 291.7 204.545C291.1 204.551 290.502 204.554 289.903 204.555L290.226 204.233L290.214 206.254L289.908 205.949L291.653 205.988L293.418 206.058L295.226 206.152L297.091 206.255Z" fill="#99BFAF"/>
<path d="M303.356 212.594C303.04 212.629 302.71 212.665 302.367 212.701C302.023 212.738 301.676 212.767 301.318 212.793C300.603 212.847 299.861 212.886 299.118 212.9L298.824 212.906L298.814 212.596C298.806 212.351 298.804 212.107 298.8 211.861L298.794 211.126V210.804H299.118C299.471 210.804 299.824 210.804 300.177 210.814C300.53 210.823 300.884 210.829 301.237 210.842C301.59 210.855 301.943 210.87 302.297 210.89C302.65 210.91 303.003 210.936 303.356 210.964L303.533 210.978L303.519 211.126L303.482 211.517C303.469 211.646 303.459 211.774 303.441 211.896L303.356 212.594ZM303.356 212.594C303.33 212.322 303.301 212.067 303.271 211.824C303.255 211.702 303.244 211.584 303.23 211.468L303.194 211.124L303.356 211.286C303.003 211.314 302.65 211.341 302.297 211.359C301.943 211.377 301.59 211.397 301.237 211.409C300.884 211.42 300.53 211.432 300.177 211.437C299.824 211.441 299.471 211.444 299.118 211.446L299.441 211.124V211.858C299.435 212.104 299.434 212.349 299.427 212.594L299.122 212.29C299.793 212.307 300.464 212.345 301.162 212.397C301.509 212.423 301.867 212.457 302.232 212.489L303.356 212.594Z" fill="#99BFAF"/>
<path d="M292.668 217.923C292.261 217.961 291.84 217.999 291.406 218.03C290.972 218.061 290.53 218.097 290.08 218.126C289.18 218.182 288.249 218.219 287.323 218.233H287.016L287.011 217.917C287.003 217.488 287.002 217.058 287 216.629V216.307H287.323C288.213 216.307 289.104 216.322 289.996 216.351C290.887 216.381 291.777 216.426 292.668 216.5L292.805 216.512L292.797 216.629C292.781 216.859 292.758 217.084 292.734 217.299L292.668 217.923ZM292.668 217.923C292.648 217.689 292.624 217.464 292.601 217.252C292.578 217.039 292.555 216.835 292.539 216.637L292.668 216.764C291.777 216.839 290.887 216.885 289.996 216.915C289.105 216.945 288.214 216.958 287.323 216.959L287.646 216.637C287.646 217.066 287.646 217.495 287.635 217.925L287.323 217.614C288.177 217.626 289.03 217.664 289.908 217.721C290.348 217.751 290.794 217.78 291.254 217.817L292.668 217.923Z" fill="#99BFAF"/>
<path d="M308.885 157.103L308.194 157.158C307.96 157.177 307.723 157.194 307.483 157.209C307.006 157.244 306.514 157.275 306.02 157.303C305.028 157.36 304.007 157.396 302.988 157.41H302.683L302.678 157.097C302.671 156.546 302.666 155.995 302.665 155.443V155.121H302.988C303.479 155.121 303.971 155.121 304.462 155.132C304.953 155.143 305.446 155.148 305.937 155.162C306.428 155.176 306.92 155.194 307.411 155.217C307.902 155.239 308.394 155.265 308.885 155.301L309.037 155.312L309.027 155.443C309.008 155.735 308.988 156.024 308.96 156.302L308.885 157.103ZM308.885 157.103C308.864 156.806 308.837 156.52 308.812 156.244C308.787 155.968 308.764 155.707 308.743 155.448L308.885 155.589C308.394 155.625 307.902 155.65 307.411 155.673C306.92 155.696 306.429 155.715 305.937 155.728C305.444 155.741 304.953 155.752 304.462 155.759C303.971 155.765 303.479 155.767 302.988 155.77L303.311 155.448C303.311 155.998 303.311 156.55 303.298 157.101L302.988 156.792C303.935 156.808 304.88 156.844 305.854 156.899C306.34 156.927 306.834 156.958 307.339 156.993L308.885 157.103Z" fill="#99BFAF"/>
<path d="M353.945 140.658H352.286V236.021H353.945V140.658Z" fill="#116D96"/>
<path d="M363.067 140.107H355.051V144.241H363.067V140.107Z" fill="#8AC4AC"/>
<path d="M235.076 140.658H233.418V236.021H235.076V140.658Z" fill="#116D96"/>
<path d="M244.199 140.107H236.182V144.241H244.199V140.107Z" fill="#8AC4AC"/>
<path d="M221.191 125.84L219.162 138.442L216.243 156.535L196.451 145.846L197.876 125.462L198.101 122.277L221.191 125.84Z" fill="#6DA090"/>
<path d="M221.191 125.84L219.162 138.442L197.876 125.462L198.101 122.277L221.191 125.84Z" fill="#7FB9A0"/>
<path d="M225.908 120.344L196.81 116.07L195.328 126.102L224.426 130.376L225.908 120.344Z" fill="#6DA090"/>
<path d="M219.542 162.29V212.992L90.622 213.266V160.92L155.495 121.455L219.542 162.29Z" fill="#C0DED3"/>
<path d="M113.744 173.667L110.21 173.766L106.621 173.855C105.418 173.886 104.204 173.901 102.992 173.924C101.779 173.947 100.56 173.953 99.3418 173.965H99.0478V173.664C99.036 172.698 99.0338 171.731 99.0317 170.765L99.0231 167.866V167.544H99.3461L102.947 167.554C104.147 167.554 105.347 167.571 106.548 167.579C107.748 167.588 108.948 167.605 110.148 167.624C111.347 167.644 112.548 167.666 113.748 167.691H113.926V167.862C113.907 168.849 113.872 169.83 113.844 170.798L113.744 173.667ZM113.744 173.667L113.65 170.732C113.622 169.765 113.586 168.818 113.569 167.874L113.744 168.049C112.544 168.073 111.343 168.1 110.143 168.115C108.944 168.13 107.743 168.152 106.543 168.16C105.344 168.169 104.143 168.185 102.943 168.186L99.3418 168.196L99.6649 167.874L99.6563 170.773C99.6563 171.739 99.6563 172.705 99.6401 173.672L99.3418 173.374C100.526 173.387 101.711 173.394 102.896 173.416C104.08 173.439 105.265 173.454 106.468 173.485L110.079 173.574L113.744 173.667Z" fill="#99BFAF"/>
<path d="M180.697 156.287L177.164 156.385L173.574 156.474C172.371 156.505 171.158 156.52 169.945 156.543C168.732 156.565 167.513 156.572 166.295 156.585H166V156.285C165.989 155.319 165.986 154.352 165.984 153.386L165.975 150.487V150.165H166.298L169.899 150.174C171.099 150.174 172.299 150.192 173.499 150.201C174.698 150.211 175.899 150.227 177.1 150.245C178.301 150.264 179.499 150.287 180.7 150.312H180.878V150.483C180.86 151.469 180.825 152.45 180.797 153.418L180.697 156.287ZM180.697 156.287L180.603 153.351C180.575 152.384 180.54 151.437 180.521 150.493L180.697 150.667C179.496 150.693 178.296 150.719 177.097 150.734C175.897 150.749 174.696 150.77 173.496 150.779C172.295 150.788 171.096 150.805 169.895 150.805L166.295 150.814L166.618 150.492L166.61 153.391C166.61 154.358 166.604 155.324 166.594 156.29L166.295 155.993C167.48 156.005 168.664 156.011 169.849 156.034C171.034 156.056 172.218 156.071 173.42 156.104L177.031 156.192L180.697 156.287Z" fill="#99BFAF"/>
<path d="M202.09 196.339L204.662 196.24L207.176 196.152C208.009 196.121 208.83 196.106 209.653 196.083C210.476 196.061 211.291 196.054 212.109 196.042L211.811 196.339C211.8 195.667 211.797 194.996 211.795 194.324L211.787 192.308L212.11 192.63L209.606 192.62C208.771 192.62 207.936 192.603 207.101 192.594C206.266 192.584 205.432 192.568 204.596 192.55C203.76 192.532 202.927 192.508 202.092 192.483L202.267 192.308C202.248 192.959 202.214 193.616 202.186 194.285L202.137 195.301L202.09 196.339ZM202.09 196.339L201.996 194.362C201.968 193.688 201.933 193.002 201.914 192.308V192.14H202.094C202.929 192.114 203.764 192.088 204.598 192.073C205.433 192.058 206.268 192.037 207.103 192.028C207.938 192.019 208.773 192.002 209.608 192.002L212.112 191.991H212.435V192.314L212.426 194.329C212.426 195.001 212.426 195.672 212.41 196.344V196.646H212.116C211.264 196.633 210.411 196.627 209.563 196.605C208.714 196.584 207.868 196.567 207.03 196.535L205.776 196.494L204.536 196.447L202.09 196.339Z" fill="#99BFAF"/>
<path d="M111.387 185.507L116.449 185.383C117.281 185.362 118.107 185.352 118.933 185.337C119.759 185.322 120.582 185.317 121.41 185.309L121.211 185.507C121.197 184.164 121.2 182.823 121.195 181.477L121.41 181.691L118.905 181.685C118.071 181.685 117.236 181.673 116.4 181.668C115.565 181.662 114.731 181.65 113.896 181.638C113.062 181.625 112.226 181.61 111.392 181.594L111.508 181.477C111.497 182.135 111.47 182.797 111.451 183.467L111.387 185.507ZM111.387 185.507L111.328 183.517C111.309 182.843 111.283 182.163 111.271 181.477V181.363H111.389C112.224 181.346 113.06 181.328 113.894 181.319C114.729 181.309 115.564 181.294 116.398 181.289C117.233 181.283 118.068 181.271 118.903 181.271L121.408 181.264H121.623V181.479C121.617 182.822 121.623 184.163 121.606 185.509V185.709H121.409C120.563 185.701 119.715 185.696 118.872 185.681C118.029 185.666 117.184 185.655 116.348 185.635C115.511 185.615 114.676 185.597 113.851 185.574L111.387 185.507Z" fill="#DD7F3A"/>
<path d="M171.513 166.114L169.076 166.213L167.835 166.26L166.582 166.301C165.745 166.332 164.896 166.348 164.049 166.37C163.201 166.393 162.347 166.398 161.495 166.411H161.201V166.109C161.191 165.438 161.187 164.766 161.185 164.094L161.177 162.08V161.758H161.5L164.004 161.767C164.839 161.767 165.674 161.785 166.508 161.794C167.343 161.804 168.178 161.819 169.013 161.838C169.849 161.858 170.683 161.88 171.517 161.905H171.697V162.074C171.679 162.767 171.643 163.453 171.616 164.128L171.513 166.114ZM171.513 166.114L171.468 165.075L171.419 164.06C171.391 163.391 171.357 162.735 171.338 162.084L171.513 162.258C170.678 162.283 169.844 162.31 169.009 162.325C168.175 162.34 167.339 162.361 166.504 162.37C165.67 162.378 164.835 162.394 163.999 162.395L161.495 162.405L161.819 162.083L161.809 164.097C161.809 164.769 161.809 165.442 161.794 166.113L161.495 165.815C162.313 165.828 163.129 165.835 163.951 165.857C164.772 165.88 165.594 165.895 166.428 165.926L168.942 166.014L171.513 166.114Z" fill="#99BFAF"/>
<path d="M107.004 201.377L104.567 201.476L103.326 201.523L102.073 201.564C101.235 201.595 100.388 201.61 99.54 201.633C98.6925 201.657 97.8385 201.661 96.9866 201.674H96.6926V201.372C96.6808 200.701 96.6786 200.029 96.6765 199.357L96.6678 197.342V197.02H96.9909L99.4948 197.029C100.329 197.029 101.165 197.046 102 197.055C102.834 197.064 103.669 197.081 104.505 197.1C105.34 197.12 106.174 197.142 107.008 197.167H107.188V197.335C107.17 198.029 107.134 198.715 107.106 199.389L107.004 201.377ZM107.004 201.377L106.959 200.339L106.91 199.323C106.882 198.654 106.848 197.997 106.83 197.346L107.004 197.521C106.17 197.546 105.335 197.573 104.5 197.588C103.666 197.603 102.83 197.624 101.995 197.632C101.161 197.639 100.325 197.657 99.4905 197.659L96.9866 197.668L97.3097 197.346L97.3011 199.361C97.3011 200.034 97.3011 200.706 97.2849 201.377L96.9877 201.079C97.8051 201.092 98.6214 201.099 99.4431 201.121C100.265 201.144 101.086 201.159 101.92 201.19L104.435 201.278L107.004 201.377Z" fill="#99BFAF"/>
<path d="M219.266 214.636H91.9962V237.384H219.266V214.636Z" fill="#8DC7AE"/>
<mask id="mask0_3121_735" style="mask-type:luminance" maskUnits="userSpaceOnUse" x="91" y="214" width="129" height="24">
<path d="M219.266 214.636H91.9962V237.384H219.266V214.636Z" fill="white"/>
</mask>
<g mask="url(#mask0_3121_735)">
<path d="M101.617 210.526H99.4183V241.221H101.617V210.526Z" fill="#DAEDE6"/>
<path d="M115.361 210.526H113.162V241.221H115.361V210.526Z" fill="#DAEDE6"/>
<path d="M129.106 210.526H126.907V241.221H129.106V210.526Z" fill="#DAEDE6"/>
<path d="M142.85 210.526H140.65V241.221H142.85V210.526Z" fill="white"/>
<path d="M143.065 241.435H140.431V210.311H143.061L143.065 241.435ZM140.866 241.006H142.634V210.741H140.861L140.866 241.006Z" fill="black"/>
<path d="M156.594 210.526H154.395V241.221H156.594V210.526Z" fill="white"/>
<path d="M156.81 241.435H154.18V210.311H156.81V241.435ZM154.611 241.006H156.379V210.741H154.611V241.006Z" fill="black"/>
<path d="M170.338 210.526H168.139V241.221H170.338V210.526Z" fill="white"/>
<path d="M170.553 241.435H167.924V210.311H170.553V241.435ZM168.354 241.006H170.123V210.741H168.354V241.006Z" fill="black"/>
<path d="M184.082 210.526H181.883V241.221H184.082V210.526Z" fill="#DAEDE6"/>
<path d="M197.826 210.526H195.627V241.221H197.826V210.526Z" fill="#DAEDE6"/>
<path d="M211.57 210.526H209.371V241.221H211.57V210.526Z" fill="#DAEDE6"/>
</g>
<path d="M172.78 219.345H134.644V225.344H172.78V219.345Z" fill="#8F5733"/>
<mask id="mask1_3121_735" style="mask-type:luminance" maskUnits="userSpaceOnUse" x="134" y="219" width="39" height="7">
<path d="M172.78 219.345H134.644V225.344H172.78V219.345Z" fill="white"/>
</mask>
<g mask="url(#mask1_3121_735)">
<path d="M130.798 225.812C131.177 225.812 167.558 223.672 167.558 223.672L176.023 225.56L130.798 225.812Z" fill="#6D3B20"/>
</g>
<path d="M172.78 219.345H167.219V225.344H172.78V219.345Z" fill="#6D3B20"/>
<path d="M174.347 225.046H132.219V231.463H174.347V225.046Z" fill="#8F5733"/>
<path d="M174.348 225.046H168.205V231.463H174.348V225.046Z" fill="#6D3B20"/>
<path d="M176.191 231.269H129.85V238.266H176.191V231.269Z" fill="#8F5733"/>
<mask id="mask2_3121_735" style="mask-type:luminance" maskUnits="userSpaceOnUse" x="129" y="231" width="48" height="8">
<path d="M176.191 231.269H129.85V238.266H176.191V231.269Z" fill="white"/>
</mask>
<g mask="url(#mask2_3121_735)">
<path d="M123.344 230.849L173.623 233.621L179.181 230.346L123.344 230.849Z" fill="#6D3B20"/>
</g>
<path d="M176.191 231.269H169.433V238.266H176.191V231.269Z" fill="#6D3B20"/>
<path d="M221.056 211.347H88.8322C88.7578 211.347 88.6976 211.408 88.6976 211.482V215.872C88.6976 215.946 88.7578 216.006 88.8322 216.006H221.056C221.13 216.006 221.19 215.946 221.19 215.872V211.482C221.19 211.408 221.13 211.347 221.056 211.347Z" fill="#DAEDE6"/>
<path d="M171.162 169.69H139.551V219.296H171.162V169.69Z" fill="#6DA090"/>
<path d="M167.919 172.979H142.245V216.007H167.919V172.979Z" fill="#7FB9A0"/>
<path d="M162.503 196.548C163.49 196.548 164.29 195.751 164.29 194.767C164.29 193.783 163.49 192.986 162.503 192.986C161.517 192.986 160.717 193.783 160.717 194.767C160.717 195.751 161.517 196.548 162.503 196.548Z" fill="white"/>
<path d="M128.556 167.772H100.335V207.785H128.556V167.772Z" fill="white"/>
<path d="M125.074 171.609H103.633V179.648H125.074V171.609Z" fill="#8DC7AE"/>
<path d="M125.074 184.947H103.633V203.948H125.074V184.947Z" fill="#8DC7AE"/>
<mask id="mask3_3121_735" style="mask-type:luminance" maskUnits="userSpaceOnUse" x="103" y="184" width="23" height="20">
<path d="M125.074 184.947H103.633V203.948H125.074V184.947Z" fill="white"/>
</mask>
<g mask="url(#mask3_3121_735)">
<g opacity="0.58">
<g opacity="0.53">
<path d="M112.84 179.41L107.84 176.296L94.0088 198.374L99.0086 201.487L112.84 179.41Z" fill="white"/>
</g>
<g opacity="0.53">
<path d="M100.644 203.957L101.64 203.927L116.988 179.429L115.993 179.459L100.644 203.957Z" fill="white"/>
</g>
</g>
</g>
<path d="M209.187 167.772H180.966V207.785H209.187V167.772Z" fill="white"/>
<path d="M205.705 171.609H184.265V179.648H205.705V171.609Z" fill="#8DC7AE"/>
<path d="M205.705 184.947H184.265V203.948H205.705V184.947Z" fill="#8DC7AE"/>
<mask id="mask4_3121_735" style="mask-type:luminance" maskUnits="userSpaceOnUse" x="184" y="184" width="22" height="20">
<path d="M205.705 184.947H184.265V203.948H205.705V184.947Z" fill="white"/>
</mask>
<g mask="url(#mask4_3121_735)">
<g opacity="0.38">
<path d="M199.815 181.434L196.819 179.332L179.813 203.439L182.809 205.541L199.815 181.434Z" fill="white"/>
<path d="M204.832 182.642L203.386 181.628L184.2 208.825L185.646 209.839L204.832 182.642Z" fill="white"/>
</g>
</g>
<path d="M151.92 152.15V137.076L129.655 152.424L151.92 152.15Z" fill="white"/>
<path d="M155.495 151.876V135.432L183.258 152.15L155.495 151.876Z" fill="white"/>
<g opacity="0.38">
<path d="M219.542 162.29V173.894L160.168 141.187L90.622 176.263V160.92L155.495 121.455L219.542 162.29Z" fill="#A06122"/>
</g>
<path d="M230.812 162.29L224.451 170.112L222.566 172.43L155.495 128.855L85.3989 172.157L82.7163 168.896L76.6037 161.468L148.898 117.344H164.566L230.812 162.29Z" fill="#7FB9A0"/>
<path d="M225 169.564L222.566 172.43L155.495 128.855L85.3989 172.157L83.2666 169.443L155.495 125.566L225 169.564Z" fill="#6DA090"/>
<path d="M79.9939 258.346C123.658 258.346 159.055 255.384 159.055 251.731C159.055 248.078 123.658 245.116 79.9939 245.116C36.3295 245.116 0.932617 248.078 0.932617 251.731C0.932617 255.384 36.3295 258.346 79.9939 258.346Z" fill="#F7E97F"/>
<path d="M217.383 45.458L202.446 53.833C191.755 54.8101 178.978 58.902 166.376 65.966C153.774 73.03 143.63 81.7905 137.239 90.3899L122.029 98.9174L132.319 116.956C140.56 128.122 166.727 125.975 192.177 111.709C218.583 96.9041 234.215 74.6653 227.09 62.0298L217.383 45.458Z" fill="#116D96"/>
<path d="M218.59 47.0385C219.882 49.3298 220.477 51.9153 220.439 54.6984C220.248 67.7977 205.987 85.294 184.264 97.4742C162.708 109.559 140.481 112.663 129.075 106.219C126.547 104.792 124.552 102.89 123.208 100.514C115.826 87.4275 131.194 64.845 157.533 50.0782C183.873 35.3113 211.208 33.9552 218.59 47.0385Z" fill="white"/>
<path d="M216.677 47.3208C217.882 49.4586 218.414 51.8831 218.333 54.5029C217.948 66.8378 203.985 83.5287 182.939 95.3278C162.055 107.031 140.667 110.3 129.814 104.408C127.41 103.104 125.52 101.345 124.269 99.1288C117.385 86.9217 132.486 65.4269 158.004 51.1186C183.522 36.8102 209.785 35.1202 216.677 47.3208Z" fill="#0B546D"/>
<g opacity="0.72">
<path d="M218.33 54.503C217.945 66.8379 203.982 83.5288 182.936 95.3279C162.052 107.031 140.663 110.3 129.811 104.408C130.197 92.0734 144.159 75.3836 165.205 63.5834C186.092 51.8756 207.478 48.6115 218.33 54.503Z" fill="white"/>
</g>
<mask id="mask5_3121_735" style="mask-type:luminance" maskUnits="userSpaceOnUse" x="129" y="51" width="90" height="57">
<path d="M218.33 54.503C217.945 66.8379 203.982 83.5288 182.936 95.3279C162.052 107.031 140.663 110.3 129.811 104.408C130.197 92.0734 144.159 75.3836 165.205 63.5834C186.092 51.8756 207.478 48.6115 218.33 54.503Z" fill="white"/>
</mask>
<g mask="url(#mask5_3121_735)">
<g opacity="0.46">
<path d="M197.174 43.6767L183.075 35.7401L142.21 107.901L156.308 115.837L197.174 43.6767Z" fill="white"/>
<path d="M205.79 47.8961L202.58 46.0891L161.443 118.73L164.653 120.537L205.79 47.8961Z" fill="white"/>
</g>
</g>
<path d="M59.7369 147.584L120.609 111.124L125.96 123.351L67.3185 160.922L59.7369 147.584Z" fill="#116D96"/>
<path d="M66.8167 161.128C68.4118 160.328 68.1797 156.656 66.2983 152.927C64.417 149.197 61.5987 146.822 60.0036 147.622C58.4085 148.422 58.6406 152.094 60.5219 155.824C62.4033 159.553 65.2216 161.928 66.8167 161.128Z" fill="#0B546D"/>
<path d="M141.149 241.55C141.149 241.55 143.654 253.248 149.291 253.768C154.927 254.287 173.091 244.67 174.342 240.251C175.593 235.831 154.718 237.39 154.718 237.39L141.149 241.55Z" fill="#AF915F"/>
<mask id="mask6_3121_735" style="mask-type:luminance" maskUnits="userSpaceOnUse" x="141" y="237" width="34" height="17">
<path d="M141.149 241.55C141.149 241.55 143.654 253.248 149.291 253.768C154.927 254.287 173.091 244.67 174.342 240.251C175.593 235.831 154.718 237.39 154.718 237.39L141.149 241.55Z" fill="white"/>
</mask>
<g mask="url(#mask6_3121_735)">
<path d="M143.468 250.332C150.648 252.849 158.707 250.395 165.197 246.431C167.074 245.285 168.906 243.985 170.238 242.237C171.57 240.489 172.357 238.226 171.925 236.074C175.225 237.415 176.226 241.951 174.76 245.191C173.294 248.43 170.11 250.546 166.898 252.091C162.023 254.438 156.74 255.877 151.391 256.701C146.457 257.461 140.965 257.574 136.985 254.571L143.468 250.332Z" fill="#93754A"/>
</g>
<path d="M77.9552 221.032C82.2909 225.994 82.1079 232.793 79.8646 234.74C77.6214 236.688 72.3606 235.707 68.0249 230.742C63.6892 225.777 60.5392 221.091 62.7814 219.146C65.0235 217.2 73.6195 216.07 77.9552 221.032Z" fill="#686868"/>
<path d="M105.258 137.249L91.7054 185.895L62.4906 219.226C62.4906 219.226 75.9435 217.824 80.1597 234.44C102.146 213.717 111.884 200.308 114.594 193.702C117.305 187.095 120.919 172.081 120.919 172.081L139.291 246.251C139.291 246.251 153.748 248.654 161.578 238.744C157.061 192.801 138.086 132.745 138.086 132.745L105.258 137.249Z" fill="#FFBA5F"/>
<mask id="mask7_3121_735" style="mask-type:luminance" maskUnits="userSpaceOnUse" x="62" y="132" width="100" height="115">
<path d="M105.258 137.249L91.7054 185.895L62.4906 219.226C62.4906 219.226 75.9435 217.824 80.1597 234.44C102.146 213.717 111.884 200.308 114.594 193.702C117.305 187.095 120.919 172.081 120.919 172.081L139.291 246.251C139.291 246.251 153.748 248.654 161.578 238.744C157.061 192.801 138.086 132.745 138.086 132.745L105.258 137.249Z" fill="white"/>
</mask>
<g mask="url(#mask7_3121_735)">
<path d="M71.8027 228.959C72.7246 227.852 109.768 193.494 109.768 193.494L117.507 158.031C117.507 158.031 118.244 165.38 120.092 168.875C121.94 172.37 121.384 178.981 121.384 178.981L111.432 232.634L84.3414 242.372L71.8027 228.959Z" fill="#F7A543"/>
<path d="M132.988 233.92C132.988 233.92 148.837 246.966 163.396 234.472C177.955 221.978 172.61 242.74 172.61 242.74C172.61 242.74 147.733 257.256 145.889 256.521C144.044 255.785 131.146 251.927 131.146 251.927L132.988 233.92Z" fill="#F7A543"/>
</g>
<path d="M162.185 118.631C162.185 118.631 167.154 111.875 168.509 111.275C169.865 110.674 168.057 115.629 168.057 115.629C168.057 115.629 176.34 116.229 178.448 116.829C180.557 117.429 175.433 119.682 175.433 119.682C175.433 119.682 178.294 119.832 177.24 120.733C176.186 121.634 174.379 123.285 174.379 123.285C174.379 123.285 175.584 123.285 175.132 124.186C174.681 125.087 169.109 127.039 163.386 126.441C157.664 125.843 162.185 118.631 162.185 118.631Z" fill="#F3B293"/>
<mask id="mask8_3121_735" style="mask-type:luminance" maskUnits="userSpaceOnUse" x="160" y="111" width="19" height="16">
<path d="M162.185 118.631C162.185 118.631 167.154 111.875 168.509 111.275C169.865 110.674 168.057 115.629 168.057 115.629C168.057 115.629 176.34 116.229 178.448 116.829C180.557 117.429 175.433 119.682 175.433 119.682C175.433 119.682 178.294 119.832 177.24 120.733C176.186 121.634 174.379 123.285 174.379 123.285C174.379 123.285 175.584 123.285 175.132 124.186C174.681 125.087 169.109 127.039 163.386 126.441C157.664 125.843 162.185 118.631 162.185 118.631Z" fill="white"/>
</mask>
<g mask="url(#mask8_3121_735)">
<path d="M179.523 114.897C179.194 114.246 178.564 113.801 177.924 113.447C176.936 112.9 175.871 112.506 174.764 112.278C173.389 111.995 171.833 111.908 170.873 110.887C170.194 110.166 169.904 109.048 169.007 108.619L168.712 109.345C168.47 111.49 167.85 113.576 166.881 115.506C166.8 115.666 166.715 115.846 166.767 116.017C166.85 116.291 167.205 116.352 167.493 116.363C170.666 116.47 173.885 116.273 176.982 116.975C177.728 117.145 178.585 117.344 179.197 116.887C179.789 116.45 179.857 115.55 179.523 114.897Z" fill="#EC6A64"/>
<path d="M177.771 118.709L172.788 120.749C172.611 120.821 172.401 120.945 172.421 121.135C174.421 121.207 176.409 120.792 178.214 119.928C178.444 119.834 178.651 119.692 178.821 119.51C178.978 119.319 179.049 119.037 178.929 118.82L177.771 118.709Z" fill="#EC6A64"/>
<path d="M172.516 123.708C172.192 123.847 171.847 123.995 171.671 124.297C172.707 124.406 173.752 124.238 174.7 123.809C175.649 123.38 176.464 122.706 177.063 121.857L176.466 121.275C175.272 122.27 173.942 123.09 172.516 123.708Z" fill="#EC6A64"/>
<path d="M179.255 117.511L173.835 118.427C173.566 118.472 173.251 118.553 173.156 118.808C173.279 118.978 173.52 119.001 173.729 118.999C174.66 118.989 175.576 118.784 176.483 118.577L179.048 117.997C179.238 117.954 179.46 117.881 179.508 117.694L179.255 117.511Z" fill="#EC6A64"/>
</g>
<path d="M107.592 58.8214C107.592 58.8214 106.327 55.7839 112.173 53.8018C118.02 51.8197 119.622 55.1267 126.18 53.9875C132.737 52.8483 138.601 65.7308 128.777 70.308C118.954 74.8853 111.56 79.5796 111.56 79.5796C111.56 79.5796 109.083 82.2435 107.026 81.3416C104.969 80.4396 107.349 76.9125 107.349 76.9125C107.349 76.9125 91.714 64.8933 107.592 58.8214Z" fill="#912330"/>
<mask id="mask9_3121_735" style="mask-type:luminance" maskUnits="userSpaceOnUse" x="100" y="53" width="35" height="29">
<path d="M107.592 58.8214C107.592 58.8214 106.327 55.7839 112.173 53.8018C118.02 51.8197 119.622 55.1267 126.18 53.9875C132.737 52.8483 138.601 65.7308 128.777 70.308C118.954 74.8853 111.56 79.5796 111.56 79.5796C111.56 79.5796 109.083 82.2435 107.026 81.3416C104.969 80.4396 107.349 76.9125 107.349 76.9125C107.349 76.9125 91.714 64.8933 107.592 58.8214Z" fill="white"/>
</mask>
<g mask="url(#mask9_3121_735)">
<path d="M136.877 59.3077C136.622 57.724 136.153 56.0501 134.913 55.029C134.152 54.4019 133.172 54.0895 132.192 53.966C130.28 53.7244 128.227 54.2076 126.808 55.5068C125.515 56.6879 124.725 58.5207 123.086 59.1574C120.838 60.0271 118.432 58.1578 116.023 58.2501C114.285 58.3167 112.645 59.5236 112.07 61.1599C111.773 62.0081 111.747 62.924 111.736 63.8216C111.711 66.3771 111.801 69.026 110.788 71.3742C109.712 73.8781 107.493 75.7281 105.125 77.0896L98.4857 81.8365C98.2143 82.2574 97.9365 82.6955 97.8708 83.1926C97.8051 83.6897 98.014 84.2588 98.4781 84.4488C98.7689 84.568 99.0995 84.5197 99.4086 84.4585C100.343 84.2532 101.266 83.9966 102.172 83.6897L107.704 81.9256C111.187 80.8165 114.675 79.7041 118.033 78.2621C123.271 76.008 128.136 72.9741 132.462 69.2643C134.478 67.5356 136.469 65.4891 136.954 62.8811C137.173 61.7064 137.064 60.491 136.877 59.3077Z" fill="#701928"/>
<path d="M102.5 62.6299C104.353 60.4341 107.404 59.3131 110.242 59.7856C110.021 58.3167 109.812 56.7545 110.418 55.3962C111.286 53.4399 113.513 52.5337 115.533 51.8122L118.193 50.863C113.844 49.5305 108.953 50.7427 105.283 53.4249C101.613 56.107 99.0726 60.1099 97.4928 64.365C97.3076 64.8653 97.132 65.385 97.1579 65.9176L101.018 70.7214C100.063 68.0146 100.648 64.8256 102.5 62.6299Z" fill="#701928"/>
</g>
<path d="M129.775 71.1681C129.775 71.1681 133.157 74.3098 131.367 75.289C130.049 76.0106 129.687 75.2493 129.393 74.6104C129.099 73.9716 128.664 70.6881 129.775 71.1681Z" fill="#EC6A64"/>
<path d="M106.049 74.0811C106.836 72.0411 109.397 71.1145 111.768 72.0228C112.488 72.2956 113.137 72.726 113.668 73.2823C114.708 73.4251 115.708 73.3704 115.772 72.652C115.91 71.1241 116.327 66.6177 118.166 67.1825C120.006 67.7473 126.948 67.7441 128.114 64.3844C128.114 64.3844 136.934 87.2428 118.762 83.1111L119.153 86.605L108.991 86.5041L109.782 79.7783L109.802 79.6817C109.499 79.6231 109.202 79.5379 108.915 79.4272C106.544 78.5199 105.261 76.1255 106.049 74.0811Z" fill="#F3B293"/>
<mask id="mask10_3121_735" style="mask-type:luminance" maskUnits="userSpaceOnUse" x="105" y="64" width="26" height="23">
<path d="M106.049 74.0811C106.836 72.0411 109.397 71.1145 111.768 72.0228C112.488 72.2956 113.137 72.726 113.668 73.2823C114.708 73.4251 115.708 73.3704 115.772 72.652C115.91 71.1241 116.327 66.6177 118.166 67.1825C120.006 67.7473 126.948 67.7441 128.114 64.3844C128.114 64.3844 136.934 87.2428 118.762 83.1111L119.153 86.605L108.991 86.5041L109.782 79.7783L109.802 79.6817C109.499 79.6231 109.202 79.5379 108.915 79.4272C106.544 78.5199 105.261 76.1255 106.049 74.0811Z" fill="white"/>
</mask>
<g mask="url(#mask10_3121_735)">
<path d="M115.113 73.2372C116.002 72.7413 116.666 71.9242 116.968 70.9545C117.183 70.2404 117.239 69.3965 117.822 68.9284C118.079 68.7432 118.372 68.6157 118.683 68.5547C120.335 68.1381 122.069 68.2766 123.773 68.2326C125.477 68.1886 127.273 67.9212 128.596 66.8507C129.743 65.923 130.381 64.5164 130.871 63.1271C131.064 62.5838 131.24 61.9975 131.098 61.4381C130.93 60.7842 130.359 60.3139 129.78 59.9639C127.882 58.8225 125.564 58.4886 123.367 58.7828C121.17 59.077 119.085 59.9521 117.184 61.087C115.157 62.2964 113.319 63.7955 111.729 65.5365C110.975 66.3611 110.238 67.3564 110.317 68.4699L115.113 73.2372Z" fill="#EC6A64"/>
<path d="M119.604 83.5599C118.844 83.1465 117.946 82.9919 117.306 82.7245C116.696 82.4711 116.143 82.046 115.486 81.9729C115.394 81.9531 115.298 81.9689 115.217 82.017C115.099 82.1061 115.109 82.2822 115.142 82.426C115.55 84.3255 117.214 85.8909 119.141 86.1841C119.335 86.2141 119.554 86.2259 119.711 86.1078C119.817 86.0111 119.892 85.8852 119.926 85.746C120.183 84.958 120.145 84.1039 119.818 83.3419L119.604 83.5599Z" fill="#EC6A64"/>
</g>
<path d="M112.646 76.9372C112.698 76.8305 112.711 76.7089 112.683 76.5937C112.654 76.4801 112.601 76.3744 112.526 76.2844C112.376 76.1106 112.183 75.9788 111.967 75.9022C111.765 75.8263 111.55 75.7958 111.336 75.8131C111.244 75.8204 111.154 75.8448 111.071 75.885C111.004 75.9127 110.95 75.9625 110.916 76.026C110.882 76.0895 110.872 76.1626 110.886 76.2329C110.9 76.3236 110.931 76.411 110.977 76.4906C111.084 76.677 111.231 76.8376 111.408 76.9609C111.593 77.0961 111.811 77.1804 112.04 77.2057C112.157 77.2169 112.274 77.2019 112.384 77.1617C112.495 77.1195 112.588 77.0401 112.646 76.9372ZM112.646 76.9372C112.587 77.0418 112.497 77.1252 112.388 77.1756C112.277 77.2264 112.159 77.2566 112.038 77.2647C111.788 77.2818 111.538 77.2429 111.305 77.1509C111.057 77.0591 110.837 76.9035 110.668 76.7C110.576 76.5857 110.511 76.4526 110.477 76.3102C110.436 76.1467 110.457 75.9738 110.537 75.825C110.616 75.6763 110.749 75.5626 110.908 75.506C111.045 75.4529 111.192 75.4316 111.339 75.4437C111.603 75.4683 111.855 75.5612 112.072 75.7132C112.279 75.8528 112.452 76.0361 112.579 76.2501C112.641 76.3543 112.683 76.4689 112.703 76.5883C112.722 76.7077 112.702 76.83 112.646 76.9372Z" fill="#E55757"/>
<path d="M125.202 67.6904C125.087 67.6528 124.969 67.623 124.85 67.6013C124.728 67.5784 124.605 67.563 124.482 67.5551C124.24 67.5388 123.998 67.5576 123.762 67.6109C123.536 67.6623 123.323 67.7579 123.134 67.8923C122.948 68.0253 122.786 68.1899 122.657 68.3787L122.638 68.4044C122.612 68.4385 122.579 68.4671 122.542 68.4885C122.505 68.51 122.463 68.524 122.421 68.5296C122.378 68.5352 122.335 68.5324 122.293 68.5214C122.252 68.5103 122.213 68.4912 122.179 68.4651C122.144 68.439 122.116 68.4065 122.094 68.3693C122.073 68.3322 122.059 68.2912 122.053 68.2487C122.047 68.2062 122.05 68.1629 122.061 68.1215C122.072 68.0801 122.092 68.0412 122.118 68.0071C122.121 68.0017 122.125 67.9966 122.13 67.9921C122.32 67.7534 122.55 67.5496 122.81 67.3898C123.069 67.2321 123.357 67.127 123.657 67.0805C123.946 67.0353 124.241 67.0324 124.531 67.0719C124.673 67.0912 124.814 67.1191 124.952 67.1557C125.093 67.1916 125.232 67.2375 125.367 67.2931C125.393 67.304 125.417 67.32 125.436 67.34C125.456 67.3601 125.472 67.3838 125.483 67.41C125.494 67.4361 125.499 67.4641 125.499 67.4923C125.499 67.5205 125.493 67.5484 125.482 67.5744C125.461 67.6241 125.422 67.6641 125.373 67.6864C125.323 67.7087 125.267 67.7116 125.216 67.6947L125.202 67.6904Z" fill="#470E0E"/>
<path d="M125.357 72.2086C125.949 72.2086 126.429 71.7303 126.429 71.1402C126.429 70.5502 125.949 70.0719 125.357 70.0719C124.765 70.0719 124.286 70.5502 124.286 71.1402C124.286 71.7303 124.765 72.2086 125.357 72.2086Z" fill="#470E0E"/>
<path d="M120.12 76.7579C121.397 76.7579 122.432 75.7258 122.432 74.4526C122.432 73.1794 121.397 72.1473 120.12 72.1473C118.843 72.1473 117.808 73.1794 117.808 74.4526C117.808 75.7258 118.843 76.7579 120.12 76.7579Z" fill="#DB4949"/>
<path d="M127.319 78.8817C127.027 78.883 126.737 78.8291 126.465 78.7228C125.425 78.318 124.989 77.2819 124.972 77.2379C124.961 77.2118 124.955 77.1838 124.955 77.1556C124.955 77.1274 124.961 77.0995 124.972 77.0735C124.983 77.0475 124.999 77.0239 125.019 77.004C125.039 76.9841 125.063 76.9684 125.089 76.9576C125.115 76.9469 125.143 76.9414 125.171 76.9415C125.2 76.9416 125.228 76.9472 125.254 76.9581C125.28 76.969 125.304 76.9849 125.324 77.0049C125.343 77.0249 125.359 77.0486 125.37 77.0747C125.37 77.0876 125.76 77.9895 126.626 78.3245C127.179 78.5392 127.819 78.4812 128.526 78.1516C128.578 78.1274 128.638 78.1247 128.691 78.1442C128.745 78.1636 128.789 78.2035 128.813 78.2552C128.838 78.3069 128.84 78.3661 128.821 78.4198C128.801 78.4734 128.761 78.5172 128.71 78.5414C128.277 78.7547 127.802 78.8709 127.319 78.8817Z" fill="#470E0E"/>
<path d="M163.692 128.141C157.871 133.744 154.657 141.551 140 136.146C138.297 137.362 136.513 138.46 134.66 139.432C126.717 143.602 115.667 146.519 103.458 143.156C100.395 140.102 99.2084 128.201 98.9154 124.646C98.8648 124.002 98.8401 123.636 98.8401 123.636L94.7359 126.27H94.7262L86.1905 131.746C86.1905 131.746 82.4213 102.62 103.909 89.2056C103.909 89.2056 107.02 83.9991 115.655 85.6022C124.29 87.2052 124.385 89.5041 124.385 89.5041C124.385 89.5041 144.347 89.2893 150.701 118.106C150.747 118.313 150.792 118.52 150.837 118.731C151.981 117.937 153.295 117.379 154.629 116.986C158.679 115.791 162.884 116.127 162.884 116.127C162.884 116.127 169.508 122.535 163.692 128.141Z" fill="#D64E37"/>
<g opacity="0.5">
<path d="M98.9089 124.646L99.4366 123.937L97.6296 111.927L94.7197 126.274L98.9089 124.646Z" fill="black"/>
</g>
<g opacity="0.5">
<path d="M139.994 136.146C138.291 137.362 136.506 138.46 134.653 139.432C132.189 128.777 128.724 113.374 130.759 119.733C133.771 129.141 139.994 136.146 139.994 136.146Z" fill="black"/>
</g>
<g opacity="0.5">
<path d="M154.628 116.986C153.971 121.031 150.697 126.09 150.944 123.213C151.254 119.625 150.538 118.559 150.538 118.559C150.538 118.559 150.595 118.388 150.7 118.103C150.746 118.31 150.791 118.517 150.836 118.727C151.98 117.937 153.294 117.379 154.628 116.986Z" fill="black"/>
</g>
<path d="M67.7115 219.827C67.7115 219.827 58.2744 222.429 58.2744 227.235C58.2744 232.041 56.1658 249.461 60.9851 250.057C65.8043 250.653 79.9594 250.057 79.0558 247.355C78.1523 244.652 72.1291 244.052 72.1291 244.052L73.0326 232.341L78.3031 228.837C78.3031 228.837 76.7469 220.727 67.7115 219.827Z" fill="#AF915F"/>
<mask id="mask11_3121_735" style="mask-type:luminance" maskUnits="userSpaceOnUse" x="57" y="219" width="23" height="32">
<path d="M67.7115 219.827C67.7115 219.827 58.2744 222.429 58.2744 227.235C58.2744 232.041 56.1658 249.461 60.9851 250.057C65.8043 250.653 79.9594 250.057 79.0558 247.355C78.1523 244.652 72.1291 244.052 72.1291 244.052L73.0326 232.341L78.3031 228.837C78.3031 228.837 76.7469 220.727 67.7115 219.827Z" fill="white"/>
</mask>
<g mask="url(#mask11_3121_735)">
<path d="M57.7693 224.479C59.4924 223.932 61.3932 223.628 63.0721 224.286C65.5759 225.266 66.8639 228.125 67.0147 230.802C67.1655 233.479 66.4493 236.12 66.179 238.788C65.9087 241.457 66.179 244.389 67.9635 246.395C69.511 248.132 71.9567 248.856 74.2872 248.828C76.6176 248.8 78.8835 248.112 81.1116 247.432C81.495 248.69 80.8392 250.084 79.829 250.931C78.8189 251.778 77.5201 252.186 76.245 252.528C72.2901 253.59 68.2287 254.209 64.1361 254.373C60.7976 254.505 57.0446 254.159 54.8293 251.658C53.901 250.61 53.3507 249.288 52.8758 247.973C50.653 241.816 49.8992 234.444 53.7567 229.145L57.7693 224.479Z" fill="#93754A"/>
</g>
</svg>
