<svg width="570" height="570" viewBox="0 0 570 570" fill="none" xmlns="http://www.w3.org/2000/svg">
<path d="M285 543C426.385 543 541 428.385 541 287C541 145.615 426.385 31 285 31C143.615 31 29 145.615 29 287C29 428.385 143.615 543 285 543Z" fill="#F7BB38"/>
<path d="M389.19 128.89H181.6C167.845 128.89 154.471 133.411 143.538 141.757C132.604 150.103 124.717 161.811 121.09 175.08L105.88 230.71H464.88L449.67 175.08C446.046 161.815 438.164 150.11 427.236 141.764C416.308 133.418 402.94 128.895 389.19 128.89Z" fill="#3586CB"/>
<path d="M438.35 229.45H132.42L145.42 182.05C148.51 170.744 155.23 160.766 164.547 153.654C173.863 146.542 185.259 142.69 196.98 142.69H373.88C377.378 142.677 380.868 143.012 384.3 143.69C394.043 145.62 403.054 150.23 410.32 157.001C417.586 163.773 422.819 172.437 425.43 182.02L438.35 229.45Z" fill="#3E436D"/>
<path d="M310.66 142.689L223.88 229.449H157.65L244.43 142.689H310.66Z" fill="#4F4F74"/>
<path d="M384.26 143.719L298.54 229.449H261.13L347.9 142.689H373.84C377.339 142.687 380.829 143.032 384.26 143.719Z" fill="#4F4F74"/>
<path d="M509.5 329.169H61.2798L68.9998 267.749C71.7398 245.959 92.9998 229.449 118.41 229.449H452.41C477.78 229.449 499.08 245.959 501.82 267.749L509.5 329.169Z" fill="#366FCA"/>
<path d="M185.65 276.22L105.88 230.71H464.88L381.75 276.71C371.546 282.35 360.079 285.309 348.42 285.31H219.78C207.807 285.297 196.043 282.164 185.65 276.22Z" fill="#3586CB"/>
<path d="M193.66 309.31H89.3501C86.1675 309.31 83.1153 308.046 80.8648 305.795C78.6144 303.545 77.3501 300.493 77.3501 297.31V277C77.3501 273.817 78.6144 270.765 80.8648 268.515C83.1153 266.264 86.1675 265 89.3501 265H169.85C174.113 264.999 178.297 266.153 181.956 268.34C185.615 270.527 188.613 273.665 190.63 277.42L201.1 296.88C201.79 298.166 202.135 299.609 202.1 301.068C202.066 302.527 201.654 303.952 200.905 305.205C200.155 306.457 199.094 307.493 197.824 308.213C196.554 308.932 195.12 309.31 193.66 309.31Z" fill="white"/>
<path d="M193.66 309.29H89.3501C86.1675 309.29 83.1153 308.026 80.8648 305.775C78.6144 303.525 77.3501 300.473 77.3501 297.29V277C77.3472 274.737 77.9841 272.52 79.1873 270.604C80.3905 268.687 82.1109 267.15 84.1501 266.17C84.0647 266.709 84.0146 267.254 84.0001 267.8V288.08C84.0001 291.263 85.2644 294.315 87.5148 296.565C89.7653 298.816 92.8175 300.08 96.0001 300.08H200.3C200.877 300.074 201.453 300.017 202.02 299.91C202.149 301.087 202.029 302.279 201.668 303.407C201.308 304.535 200.714 305.575 199.926 306.459C199.138 307.343 198.173 308.052 197.094 308.54C196.014 309.027 194.845 309.283 193.66 309.29Z" fill="#DEDEE0"/>
<path d="M114.29 271.47H93.89C88.439 271.47 84.02 275.889 84.02 281.34V292.54C84.02 297.991 88.439 302.41 93.89 302.41H114.29C119.741 302.41 124.16 297.991 124.16 292.54V281.34C124.16 275.889 119.741 271.47 114.29 271.47Z" fill="#E88032"/>
<path d="M374.29 309.31H478.6C481.783 309.31 484.835 308.046 487.085 305.795C489.336 303.545 490.6 300.493 490.6 297.31V277C490.6 273.817 489.336 270.765 487.085 268.515C484.835 266.264 481.783 265 478.6 265H398.1C393.837 265 389.654 266.154 385.995 268.341C382.337 270.528 379.339 273.665 377.32 277.42L366.86 296.88C366.171 298.165 365.826 299.607 365.86 301.066C365.893 302.524 366.305 303.948 367.053 305.2C367.801 306.452 368.861 307.489 370.13 308.209C371.398 308.929 372.832 309.309 374.29 309.31Z" fill="white"/>
<path d="M490.62 276.999V297.299C490.62 300.482 489.356 303.534 487.105 305.785C484.855 308.035 481.803 309.299 478.62 309.299H374.29C372.477 309.303 370.711 308.721 369.255 307.639C367.799 306.558 366.731 305.036 366.21 303.299C366.671 303.388 367.14 303.432 367.61 303.429H471.91C475.093 303.429 478.145 302.165 480.395 299.915C482.646 297.664 483.91 294.612 483.91 291.429V271.169C483.911 269.264 483.459 267.385 482.59 265.689C484.935 266.511 486.966 268.041 488.405 270.067C489.843 272.093 490.617 274.515 490.62 276.999Z" fill="#DEDEE0"/>
<path d="M453.66 302.42H474.06C479.511 302.42 483.93 298.001 483.93 292.55V281.35C483.93 275.899 479.511 271.48 474.06 271.48H453.66C448.209 271.48 443.79 275.899 443.79 281.35V292.55C443.79 298.001 448.209 302.42 453.66 302.42Z" fill="#E88032"/>
<path d="M340.71 321.439H230.07C227.808 321.44 225.626 320.603 223.944 319.091C222.262 317.579 221.199 315.498 220.96 313.249L216.64 272.609C216.504 271.333 216.638 270.042 217.033 268.82C217.428 267.598 218.076 266.473 218.934 265.518C219.792 264.563 220.842 263.799 222.014 263.275C223.186 262.752 224.456 262.481 225.74 262.479H345C346.284 262.479 347.555 262.749 348.728 263.272C349.901 263.795 350.951 264.559 351.809 265.515C352.668 266.47 353.315 267.596 353.71 268.818C354.105 270.041 354.237 271.332 354.1 272.609L349.78 313.249C349.541 315.492 348.484 317.567 346.81 319.078C345.137 320.589 342.965 321.43 340.71 321.439Z" fill="#4F4F74"/>
<path d="M507.02 327.71H62.9699C54.658 327.71 47.9199 334.448 47.9199 342.76V361.79C47.9199 370.102 54.658 376.84 62.9699 376.84H507.02C515.332 376.84 522.07 370.102 522.07 361.79V342.76C522.07 334.448 515.332 327.71 507.02 327.71Z" fill="#FC715A"/>
<path d="M90.71 376.84H157.61V403.6C157.61 408.7 155.584 413.591 151.978 417.198C148.371 420.804 143.48 422.83 138.38 422.83H109.95C107.424 422.831 104.922 422.335 102.588 421.369C100.254 420.403 98.1326 418.987 96.3458 417.201C94.5591 415.415 93.1417 413.295 92.1747 410.961C91.2077 408.627 90.71 406.126 90.71 403.6V376.84Z" fill="#27273D"/>
<path d="M410.34 376.84H477.24V403.6C477.24 406.126 476.742 408.627 475.775 410.961C474.808 413.295 473.391 415.415 471.604 417.201C469.817 418.987 467.696 420.403 465.362 421.369C463.028 422.335 460.526 422.831 458 422.83H429.57C427.045 422.83 424.544 422.332 422.211 421.366C419.878 420.4 417.758 418.983 415.972 417.198C414.187 415.412 412.77 413.292 411.804 410.959C410.837 408.626 410.34 406.125 410.34 403.6V376.84Z" fill="#27273D"/>
<path d="M225.57 340H345.21C347.597 340 349.886 340.948 351.574 342.636C353.262 344.324 354.21 346.613 354.21 349V376.82H216.59V349C216.59 346.617 217.535 344.33 219.219 342.643C220.902 340.956 223.186 340.005 225.57 340Z" fill="white"/>
<path d="M334.25 271.47H236.54C232.116 271.47 228.53 275.056 228.53 279.48V279.49C228.53 283.914 232.116 287.5 236.54 287.5H334.25C338.674 287.5 342.26 283.914 342.26 279.49V279.48C342.26 275.056 338.674 271.47 334.25 271.47Z" fill="white"/>
<path d="M334.25 296.979H236.54C232.116 296.979 228.53 300.566 228.53 304.989V304.999C228.53 309.423 232.116 313.009 236.54 313.009H334.25C338.674 313.009 342.26 309.423 342.26 304.999V304.989C342.26 300.566 338.674 296.979 334.25 296.979Z" fill="white"/>
<path d="M502 422.829C478.97 459.607 446.971 489.929 409.008 510.948C371.045 531.968 328.363 542.995 284.97 542.995C241.576 542.995 198.895 531.968 160.932 510.948C122.969 489.929 90.9701 459.607 67.9399 422.829H502Z" fill="#A65C3B"/>
<path d="M502 422.829C485.209 449.598 463.633 473.045 438.35 491.999H131.65C106.367 473.045 84.7906 449.598 68 422.829H502Z" fill="#9E4830"/>
<path d="M320.82 43C321.642 43 322.456 43.162 323.216 43.4766C323.975 43.7912 324.665 44.2527 325.246 44.834C325.827 45.4153 326.289 46.1049 326.604 46.8643C326.918 47.6237 327.08 48.4378 327.08 49.2598V127.08H243V49.2598C243 48.4378 243.162 47.6237 243.477 46.8643C243.791 46.1048 244.253 45.4153 244.834 44.834C245.415 44.2527 246.105 43.7912 246.864 43.4766C247.624 43.162 248.438 43 249.26 43H320.82Z" fill="#0CA85F" stroke="white" stroke-width="4"/>
<path d="M264.25 115.98V105.52V64.5196L264.25 54.0996H280.4V64.5596V100.56H298.63H298.74L310.69 100.663V115.98H264.25Z" fill="white"/>
</svg>
