<svg width="3043" height="558" viewBox="0 0 3043 558" fill="none" xmlns="http://www.w3.org/2000/svg">
<path d="M364.514 0C406.441 0 438.57 13.2161 460.9 39.6484C483.231 66.0807 494.396 104.134 494.396 153.809V478.174H493.996C493.634 516.247 462.659 547 424.5 547C386.116 547 355 515.884 355 477.5C355 474.323 355.214 471.196 355.627 468.133V174.658C355.627 159.619 354.374 149.707 351.867 144.922C349.589 139.909 344.803 137.402 337.512 137.402C323.84 137.402 317.004 149.023 317.004 172.266V388.174H316.998C316.999 388.282 317 388.391 317 388.5C317 426.332 285.884 457 247.5 457C209.116 457 178 426.332 178 388.5C178 386.599 178.08 384.716 178.234 382.854V174.658C178.234 159.847 176.981 149.935 174.475 144.922C171.968 139.909 167.069 137.402 159.777 137.402C146.105 137.402 139.27 149.821 139.27 174.658V478.174H138.996C138.634 516.247 107.659 547 69.5 547C31.1162 547 0 515.884 0 477.5C0 474.668 0.17076 471.875 0.5 469.132V141.846C0.5 100.146 13.1465 66.0807 38.4395 39.6484C63.7324 13.2161 96.5449 0 136.877 0C184.729 0 221.529 21.9889 247.277 65.9668C263 42.2689 279.862 25.4069 297.863 15.3809C315.865 5.12695 338.081 0 364.514 0Z" fill="white"/>
<path d="M687.734 192C742.878 192 786.286 208.178 817.959 240.535C849.86 272.664 865.811 316.642 865.811 372.469V483.607H865.78C864.929 518.211 836.655 546 801.9 546C767.146 546 738.871 518.211 738.02 483.607H737.979V381.697C737.979 363.696 733.535 349.34 724.648 338.631C715.99 327.921 704.255 322.566 689.443 322.566C675.999 322.566 664.378 327.465 654.58 337.264C644.782 347.062 639.883 358.683 639.883 372.127C639.883 386.255 644.326 397.876 653.213 406.99C662.1 416.105 673.379 420.662 687.051 420.662C698.216 420.662 708.584 417.7 718.154 411.775V544.051C707.673 545.874 698.102 546.785 689.443 546.785C638.174 546.785 595.449 529.923 561.27 496.199C527.09 462.475 510 420.206 510 369.393C510 319.946 527.204 278.019 561.611 243.611C596.247 209.204 638.288 192 687.734 192Z" fill="white"/>
<path d="M944.9 22C979.891 22.0002 1008.31 50.124 1008.79 85H1008.83V215.566H1066.25V215.612C1103.23 216.276 1133 246.236 1133 283.1C1133 320.379 1102.56 350.6 1065 350.6C1064.4 350.6 1063.81 350.591 1063.21 350.576H1008.83C1008.83 377.692 1013.05 396.377 1021.48 406.631C1030.14 416.885 1038.86 422.012 1061.65 422.012V422.035C1097.93 423.169 1127 452.939 1127 489.5C1127 526.779 1096.78 557 1059.5 557C1057.26 557 1055.04 556.888 1052.85 556.675C1024.32 556.507 997.342 549.788 971.918 536.514C946.397 523.07 925.889 504.84 910.395 481.826C890.798 452.432 881 413.467 881 364.932V85H881.006C881.487 50.1239 909.91 22 944.9 22Z" fill="white"/>
<path d="M1212.9 557C1247.89 557 1276.31 528.876 1276.79 494H1276.83V363.434H1334.25V363.388C1371.23 362.724 1401 332.764 1401 295.9C1401 258.621 1370.56 228.4 1333 228.4C1332.4 228.4 1331.81 228.409 1331.21 228.424H1276.83C1276.83 201.308 1281.05 182.623 1289.48 172.369C1298.14 162.115 1306.86 156.988 1329.65 156.988V156.965C1365.93 155.831 1395 126.061 1395 89.5C1395 52.2208 1364.78 22 1327.5 22C1325.26 22 1323.04 22.1115 1320.85 22.3252C1292.32 22.4927 1265.34 29.212 1239.92 42.4863C1214.4 55.9303 1193.89 74.1595 1178.39 97.1738C1158.8 126.568 1149 165.533 1149 214.068V494H1149.01C1149.49 528.876 1177.91 557 1212.9 557Z" fill="white"/>
<path d="M1581.13 202C1630.57 202 1672.04 218.862 1705.54 252.586C1739.26 286.082 1756.13 327.439 1756.13 376.658C1756.13 381.671 1755.67 389.646 1754.76 400.584H1560.96C1558 390.786 1556.52 381.785 1556.52 373.582C1556.52 362.189 1558.57 351.023 1562.67 340.086H1627.61C1623.05 314.793 1608.81 302.146 1584.89 302.146C1568.94 302.146 1555.95 308.982 1545.92 322.654C1535.9 336.098 1530.88 353.416 1530.88 374.607C1530.88 396.71 1535.67 414.598 1545.24 428.27C1555.04 441.941 1567.8 448.777 1583.52 448.777C1595.56 448.777 1605.92 444.751 1617.01 433.571C1627.46 421.579 1642.84 414 1660 414C1691.48 414 1717 439.52 1717 471C1717 490.949 1706.75 508.504 1691.23 518.688C1657.8 544.313 1620.76 557.127 1580.1 557.127C1529.52 557.127 1487.02 540.151 1452.61 506.199C1418.2 472.247 1401 430.206 1401 380.076C1401 330.174 1418.32 288.019 1452.95 253.611C1487.82 219.204 1530.54 202 1581.13 202Z" fill="white"/>
<path d="M2867.13 202C2916.57 202 2958.04 218.862 2991.54 252.586C3025.26 286.082 3042.13 327.439 3042.13 376.658C3042.13 381.671 3041.67 389.646 3040.76 400.584H2846.96C2844 390.786 2842.52 381.785 2842.52 373.582C2842.52 362.189 2844.57 351.023 2848.67 340.086H2913.61C2909.05 314.793 2894.81 302.146 2870.89 302.146C2854.94 302.146 2841.95 308.982 2831.92 322.654C2821.9 336.098 2816.88 353.416 2816.88 374.607C2816.88 396.71 2821.67 414.598 2831.24 428.27C2841.04 441.941 2853.8 448.777 2869.52 448.777C2881.56 448.777 2891.92 444.751 2903.01 433.571C2913.46 421.579 2928.84 414 2946 414C2977.48 414 3003 439.52 3003 471C3003 490.949 2992.75 508.504 2977.23 518.688C2943.8 544.313 2906.76 557.127 2866.1 557.127C2815.52 557.127 2773.02 540.151 2738.61 506.199C2704.2 472.247 2687 430.206 2687 380.076C2687 330.174 2704.32 288.019 2738.95 253.611C2773.82 219.204 2816.54 202 2867.13 202Z" fill="white"/>
<path d="M1920 212.061C1929.94 212.061 1939.78 211.323 1958.5 214.992L1961 215.502C1988.6 221.729 2009 243.692 2009 269.83C2009 295.328 1986.06 323.845 1953.5 324.25C1939 324.25 1942.5 323.831 1934.7 323.378C1911.45 323.378 1899.83 338.259 1899.83 368.02V499.517C1899.94 500.805 1900 502.106 1900 503.417C1900 533.01 1871.35 557 1836 557C1800.65 557 1772 533.01 1772 503.417V347.416C1772 306.208 1785.44 273.395 1812.33 248.976C1839.22 224.366 1875.11 212.061 1920 212.061Z" fill="white"/>
<path d="M2089 22C2124.35 22 2153 47.6354 2153 79.2578C2153 80.6588 2152.94 82.048 2152.83 83.4238V495.576C2152.94 496.952 2153 498.342 2153 499.743C2153 531.365 2124.35 557 2089 557C2053.65 557 2025 531.365 2025 499.743C2025 499.609 2025 499.475 2025 499.342H2025V81.9414H2025.07C2025.02 81.052 2025 80.1574 2025 79.2578C2025 47.6354 2053.65 22 2089 22Z" fill="white"/>
<path d="M2315 184C2315 219.346 2286.35 248 2251 248C2215.65 248 2187 219.346 2187 184C2187 148.654 2215.65 120 2251 120C2286.35 120 2315 148.654 2315 184Z" fill="white"/>
<path d="M2187 248C2203.56 264.039 2226.13 273.912 2251 273.912C2275.79 273.912 2298.29 264.106 2314.83 248.162V507.387C2314.94 508.491 2315 509.605 2315 510.729C2315 536.097 2286.35 556.662 2251 556.662C2215.65 556.662 2187 536.097 2187 510.729C2187 510.622 2187 510.515 2187 510.408H2187V248Z" fill="white"/>
<path d="M2501.1 202C2549.86 202 2588.94 219.66 2618.34 254.979C2641.35 282.55 2652.86 320.945 2652.86 370.164V488.871C2652.95 490.29 2653 491.721 2653 493.164C2653 528.51 2624.35 557.164 2589 557.164C2553.65 557.164 2525 528.51 2525 493.164C2525 492.561 2525.01 491.959 2525.03 491.359V357.518C2525.03 337.921 2516.94 328.123 2500.76 328.123C2484.81 328.123 2476.83 337.921 2476.83 357.518V488.506C2476.94 490.044 2477 491.598 2477 493.164C2477 528.51 2448.35 557.164 2413 557.164C2377.97 557.164 2349.51 529.022 2349.01 494.113H2349V359.91C2349 315.477 2363.7 278.107 2393.09 247.801C2422.49 217.267 2458.49 202 2501.1 202Z" fill="white"/>
</svg>
