<?xml version="1.0" encoding="UTF-8" standalone="no"?>
<!-- Created with Inkscape (http://www.inkscape.org/) -->

<svg
   version="1.1"
   id="svg2"
   width="302.66666"
   height="182.66667"
   viewBox="0 0 302.66666 182.66667"
   sodipodi:docname="LOGO_matfer_eps.eps"
   xmlns:inkscape="http://www.inkscape.org/namespaces/inkscape"
   xmlns:sodipodi="http://sodipodi.sourceforge.net/DTD/sodipodi-0.dtd"
   xmlns="http://www.w3.org/2000/svg"
   xmlns:svg="http://www.w3.org/2000/svg">
  <defs
     id="defs6" />
  <sodipodi:namedview
     id="namedview4"
     pagecolor="#ffffff"
     bordercolor="#000000"
     borderopacity="0.25"
     inkscape:showpageshadow="2"
     inkscape:pageopacity="0.0"
     inkscape:pagecheckerboard="0"
     inkscape:deskcolor="#d1d1d1" />
  <g
     id="g8"
     inkscape:groupmode="layer"
     inkscape:label="ink_ext_XXXXXX"
     transform="matrix(1.3333333,0,0,-1.3333333,0,182.66667)">
    <g
       id="g10"
       transform="scale(0.1)">
      <path
         d="m 987.559,973.645 -6.141,-6.141 6.141,6.141"
         style="fill:#c36404;fill-opacity:1;fill-rule:evenodd;stroke:none"
         id="path12" />
      <path
         d="m 987.559,973.645 -6.141,-6.141 6.141,6.141"
         style="fill:#c34404;fill-opacity:1;fill-rule:evenodd;stroke:none"
         id="path14" />
      <path
         d="m 1114.36,284.25 h 7.37 z m 510.46,47.297 c 48.37,0 105.65,-7.524 105.65,-74.32 0,-82.77 -66.49,-103.809 -127.15,-103.809 -44.23,0 -75.56,10.746 -75.56,65.723 0,53.898 29.49,112.406 97.06,112.406 z m -971.773,3.687 c 52.519,0 78.629,-78.316 78.629,-111.793 0,-63.878 -55.133,-106.878 -111.797,-106.878 -47.762,0 -60.199,38.851 -60.199,72.48 0,27.027 29.636,146.191 93.367,146.191 z m 524.583,751.826 c 13.36,0 30.63,5.07 37.54,-6.76 26.42,-45.6 20.51,-98.066 25.11,-147.359 2.31,-24.414 1.23,-28.925 1.23,-31.996 0,-16.89 -13.83,-137.386 -16.09,-150.242 0,0 0.12,-1.476 -2.95,-1.476 -3.07,0 -43.61,2.457 -46.68,2.457 -145.28,0 -245.556,-33.168 -264.751,-33.168 -13.516,0 -17.199,19.347 -17.199,22.726 0,77.703 139.88,279.388 207.91,322.078 37.32,23.34 44.25,23.74 75.88,23.74 z m 218.22,242.01 h 84.46 c 224.67,0 470.42,-97.79 653.78,-378.961 8.45,-12.898 112.36,-204.875 112.36,-251.863 0,-3.07 9.83,-48.523 9.83,-51.594 0,-0.308 8.6,-68.488 8.6,-83.539 0,-3.07 -1.23,-3.683 -1.23,-51.617 -1.69,-23.668 -4.29,-91.965 -17.2,-127.742 -21.07,-58.422 -56.78,-106.535 -85.57,-122.934 -67.61,-38.511 -141.7,-72.39 -212.35,-73.004 l -91.79,1.336 C 1819.81,85.3359 1690.13,24.4297 1606.79,18.3242 c -1.45,1.3672 -2.23,1.1914 -47.73,-0.039 -118.91,15.0546 -170.12,89.9878 -170.04,178.5898 v 31.57 h -166.39 c -3.08,-0.09 -38.16,-2.543 -56.58,-4.996 l -74.91,-12.281 c -40.06,-9.211 -85.29,-27.957 -128.097,-31.914 -1.453,1.371 -2.223,1.191 -31.68,-0.035 -14.41,-1.84 -42.281,15.304 -43.043,33.164 C 882.32,77.0703 724.148,2.31641 625.406,2.31641 549.699,2.31641 412.563,24 419.793,153.613 l -85.547,1.035 c -3.07,0 -50.441,7.832 -75.016,10.75 C 97.9883,184.594 0.699219,268.895 0.699219,405.871 c 0,289.918 333.628781,240.125 483.202781,298.32 57.434,22.422 133.301,72.227 175.379,141.789 28.41,46.836 70.391,94.676 111.391,142.586 64.039,75.094 152.012,166.884 227.871,216.024 96.907,62.8 193.987,85.45 291.347,110.18 21.96,5.53 76.01,14.3 105.96,14.3"
         style="fill:#040404;fill-opacity:1;fill-rule:evenodd;stroke:none"
         id="path16" />
      <path
         d="m 1186.52,1137.26 c 30.87,0 77.53,-9.05 90.43,-55.73 12.59,-45.46 57,-263.675 57,-342.909 0,-51.289 -55.29,-49.754 -82.32,-49.754 l -86,3.684 c -120.08,0 -201.935,-40.539 -280.716,-40.539 -40.848,0 -65.723,16.738 -65.723,60.195 0,38.547 28,97.766 42.59,129.859 64.805,143.27 189.909,295.194 324.739,295.194 z m 217.45,104.42 c 90.91,0 230.21,-24.2 309.3,-74.11 272.28,-171.679 425.36,-436.32 425.36,-662.359 0,-46.684 -2.67,-95.469 -23.86,-140.309 -7.02,-14.871 -16.02,-29.394 -26.45,-43.32 -52.14,-69.578 -139.88,-132.48 -230.49,-131.172 31.04,90.11 -9.17,190.719 -87.54,240.371 -44.85,28.41 -98.22,43.106 -144.57,43.106 -37.48,0 -71.26,-6.074 -101.28,-20.278 -67.32,-31.839 -142.19,-147.945 -135.45,-223.218 -87.89,26.836 -174.29,51.668 -266.1,54.925 -10.73,0.379 -21.83,0.614 -33.43,0.614 -49.29,0 -179.409,-11.766 -200.964,-60.188 -8.648,133.09 -93.723,216.203 -201.375,216.203 -50.023,0 -97.281,-18.175 -140.437,-52.89 C 473,329.785 425.75,254.242 420.141,160.875 l -0.422,-5.105 -5.121,0.003 c -92.008,12.856 -175.457,19.891 -254.446,75.368 -44.234,31.07 -76.8512,74.121 -76.8512,130.336 0,56.511 28.7462,113.878 107.2192,153.8 37.621,19.043 79.285,20.489 118.136,25.399 55.285,7.066 114.914,16.59 170.813,19.66 89.066,4.918 201.457,129.633 256.281,214.246 80.465,123.922 168.203,284.438 319.62,373.348 111.03,65.11 233.42,93.75 348.6,93.75"
         style="fill:#ef2c30;fill-opacity:1;fill-rule:evenodd;stroke:none"
         id="path18" />
      <path
         d="m 1687.55,1367.92 -7.37,-7.37 7.37,7.37"
         style="fill:#c36404;fill-opacity:1;fill-rule:evenodd;stroke:none"
         id="path20" />
      <path
         d="m 1674.04,1354.41 -6.15,-6.14 6.15,6.14"
         style="fill:#c36404;fill-opacity:1;fill-rule:evenodd;stroke:none"
         id="path22" />
      <path
         d="m 1686.32,1366.69 -6.14,-6.14 6.14,6.14"
         style="fill:#c34404;fill-opacity:1;fill-rule:evenodd;stroke:none"
         id="path24" />
      <path
         d="m 1674.04,1354.41 -6.15,-6.14 6.15,6.14"
         style="fill:#c34404;fill-opacity:1;fill-rule:evenodd;stroke:none"
         id="path26" />
    </g>
  </g>
</svg>
