<svg width="315" height="94" viewBox="0 0 315 94" fill="none" xmlns="http://www.w3.org/2000/svg">
<path d="M11.667 1H303.333C309.314 1 314 5.68594 314 11.667V81.667C314 87.6479 309.314 92.333 303.333 92.333H11.667C5.68606 92.333 1.00017 87.6479 1 81.667V11.667C1 5.87301 5.3971 1.29439 11.1094 1.01367L11.667 1Z" fill="white" stroke="#3B93F6" stroke-width="2"/>
<path d="M149.962 50.8668C144.362 50.8668 139.929 55.0668 139.929 60.9001C139.929 66.5001 144.362 70.9335 149.962 70.9335C155.562 70.9335 159.996 66.7335 159.996 60.9001C159.996 54.8335 155.562 50.8668 149.962 50.8668ZM149.962 66.7335C146.929 66.7335 144.362 64.1668 144.362 60.6668C144.362 57.1668 146.929 54.6001 149.962 54.6001C152.996 54.6001 155.562 56.9335 155.562 60.6668C155.562 64.1668 152.996 66.7335 149.962 66.7335ZM128.262 50.8668C122.662 50.8668 118.229 55.0668 118.229 60.9001C118.229 66.5001 122.662 70.9335 128.262 70.9335C133.862 70.9335 138.296 66.7335 138.296 60.9001C138.296 54.8335 133.862 50.8668 128.262 50.8668ZM128.262 66.7335C125.229 66.7335 122.662 64.1668 122.662 60.6668C122.662 57.1668 125.229 54.6001 128.262 54.6001C131.296 54.6001 133.862 56.9335 133.862 60.6668C133.862 64.1668 131.296 66.7335 128.262 66.7335ZM102.362 53.9001V58.1001H112.396C112.162 60.4335 111.229 62.3001 110.062 63.4668C108.662 64.8668 106.329 66.5001 102.362 66.5001C96.0624 66.5001 91.3957 61.6001 91.3957 55.3001C91.3957 49.0001 96.2957 44.1001 102.362 44.1001C105.629 44.1001 108.196 45.5001 110.062 47.1335L113.096 44.1001C110.529 41.7668 107.262 39.9001 102.596 39.9001C94.1957 39.9001 86.9624 46.9001 86.9624 55.3001C86.9624 63.7001 94.1957 70.7001 102.596 70.7001C107.262 70.7001 110.529 69.3001 113.329 66.2668C116.129 63.4668 117.062 59.5001 117.062 56.4668C117.062 55.5335 117.062 54.6001 116.829 53.9001H102.362ZM208.296 57.1668C207.362 54.8335 205.029 50.8668 199.896 50.8668C194.762 50.8668 190.562 54.8335 190.562 60.9001C190.562 66.5001 194.762 70.9335 200.362 70.9335C204.796 70.9335 207.596 68.1335 208.529 66.5001L205.262 64.1668C204.096 65.8001 202.696 66.9668 200.362 66.9668C198.029 66.9668 196.629 66.0335 195.462 63.9335L208.762 58.3335L208.296 57.1668ZM194.762 60.4335C194.762 56.7001 197.796 54.6001 199.896 54.6001C201.529 54.6001 203.162 55.5335 203.629 56.7001L194.762 60.4335ZM183.796 70.0001H188.229V40.8335H183.796V70.0001ZM176.796 52.9668C175.629 51.8001 173.762 50.6335 171.429 50.6335C166.529 50.6335 161.862 55.0668 161.862 60.6668C161.862 66.2668 166.296 70.4668 171.429 70.4668C173.762 70.4668 175.629 69.3001 176.562 68.1335H176.796V69.5335C176.796 73.2668 174.696 75.3668 171.429 75.3668C168.862 75.3668 166.996 73.5001 166.529 71.8668L162.796 73.5001C163.962 76.0668 166.762 79.3335 171.662 79.3335C176.796 79.3335 180.996 76.3001 180.996 69.0668V51.3335H176.796V52.9668ZM171.662 66.7335C168.629 66.7335 166.062 64.1668 166.062 60.6668C166.062 57.1668 168.629 54.6001 171.662 54.6001C174.696 54.6001 177.029 57.1668 177.029 60.6668C177.029 64.1668 174.696 66.7335 171.662 66.7335ZM228.596 40.8335H218.096V70.0001H222.529V59.0335H228.596C233.496 59.0335 238.162 55.5335 238.162 49.9335C238.162 44.3335 233.496 40.8335 228.596 40.8335ZM228.829 54.8335H222.529V44.8001H228.829C232.096 44.8001 233.962 47.6001 233.962 49.7001C233.729 52.2668 231.862 54.8335 228.829 54.8335ZM255.662 50.6335C252.396 50.6335 249.129 52.0335 247.962 55.0668L251.929 56.7001C252.862 55.0668 254.262 54.6001 255.896 54.6001C258.229 54.6001 260.329 56.0001 260.562 58.3335V58.5668C259.862 58.1001 257.996 57.4001 256.129 57.4001C251.929 57.4001 247.729 59.7335 247.729 63.9335C247.729 67.9001 251.229 70.4668 254.962 70.4668C257.996 70.4668 259.396 69.0668 260.562 67.6668H260.796V70.0001H264.996V58.8001C264.529 53.6668 260.562 50.6335 255.662 50.6335ZM255.196 66.7335C253.796 66.7335 251.696 66.0335 251.696 64.1668C251.696 61.8335 254.262 61.1335 256.362 61.1335C258.229 61.1335 259.162 61.6001 260.329 62.0668C259.862 64.8668 257.529 66.7335 255.196 66.7335ZM279.696 51.3335L274.796 63.9335H274.562L269.429 51.3335H264.762L272.462 69.0668L268.029 78.8668H272.462L284.362 51.3335H279.696ZM240.496 70.0001H244.929V40.8335H240.496V70.0001Z" fill="#6E6E6E"/>
<path d="M91.4609 31H89.0312L89.0469 29.4453H91.4609C92.1641 29.4453 92.7526 29.2917 93.2266 28.9844C93.7057 28.6771 94.0651 28.237 94.3047 27.6641C94.5495 27.0911 94.6719 26.4089 94.6719 25.6172V25C94.6719 24.3854 94.6016 23.8411 94.4609 23.3672C94.3255 22.8932 94.1224 22.4948 93.8516 22.1719C93.5859 21.849 93.2578 21.6042 92.8672 21.4375C92.4818 21.2708 92.0365 21.1875 91.5312 21.1875H88.9844V19.625H91.5312C92.2865 19.625 92.9766 19.7526 93.6016 20.0078C94.2266 20.2578 94.7656 20.6198 95.2188 21.0938C95.6771 21.5677 96.0286 22.1354 96.2734 22.7969C96.5182 23.4583 96.6406 24.1979 96.6406 25.0156V25.6172C96.6406 26.4349 96.5182 27.1745 96.2734 27.8359C96.0286 28.4974 95.6771 29.0651 95.2188 29.5391C94.7604 30.0078 94.2135 30.3698 93.5781 30.625C92.9479 30.875 92.2422 31 91.4609 31ZM90.1172 19.625V31H88.1562V19.625H90.1172Z" fill="#C426B4"/>
<path d="M102.148 31.1562C101.523 31.1562 100.958 31.0547 100.453 30.8516C99.9531 30.6432 99.526 30.3542 99.1719 29.9844C98.8229 29.6146 98.5547 29.1797 98.3672 28.6797C98.1797 28.1797 98.0859 27.6406 98.0859 27.0625V26.75C98.0859 26.0885 98.1823 25.4896 98.375 24.9531C98.5677 24.4167 98.8359 23.9583 99.1797 23.5781C99.5234 23.1927 99.9297 22.8984 100.398 22.6953C100.867 22.4922 101.375 22.3906 101.922 22.3906C102.526 22.3906 103.055 22.4922 103.508 22.6953C103.961 22.8984 104.336 23.1849 104.633 23.5547C104.935 23.9193 105.159 24.3542 105.305 24.8594C105.456 25.3646 105.531 25.9219 105.531 26.5312V27.3359H99V25.9844H103.672V25.8359C103.661 25.4974 103.594 25.1797 103.469 24.8828C103.349 24.5859 103.164 24.3464 102.914 24.1641C102.664 23.9818 102.331 23.8906 101.914 23.8906C101.602 23.8906 101.323 23.9583 101.078 24.0938C100.839 24.224 100.638 24.4141 100.477 24.6641C100.315 24.9141 100.19 25.2161 100.102 25.5703C100.018 25.9193 99.9766 26.3125 99.9766 26.75V27.0625C99.9766 27.4323 100.026 27.776 100.125 28.0938C100.229 28.4062 100.38 28.6797 100.578 28.9141C100.776 29.1484 101.016 29.3333 101.297 29.4688C101.578 29.599 101.898 29.6641 102.258 29.6641C102.711 29.6641 103.115 29.5729 103.469 29.3906C103.823 29.2083 104.13 28.9505 104.391 28.6172L105.383 29.5781C105.201 29.8438 104.964 30.099 104.672 30.3438C104.38 30.5833 104.023 30.7786 103.602 30.9297C103.185 31.0807 102.701 31.1562 102.148 31.1562Z" fill="#C426B4"/>
<path d="M111.742 28.7109C111.742 28.5234 111.695 28.3542 111.602 28.2031C111.508 28.0469 111.328 27.9062 111.062 27.7812C110.802 27.6562 110.417 27.5417 109.906 27.4375C109.458 27.3385 109.047 27.2214 108.672 27.0859C108.302 26.9453 107.984 26.776 107.719 26.5781C107.453 26.3802 107.247 26.1458 107.102 25.875C106.956 25.6042 106.883 25.2917 106.883 24.9375C106.883 24.5938 106.958 24.2682 107.109 23.9609C107.26 23.6536 107.477 23.3828 107.758 23.1484C108.039 22.9141 108.38 22.7292 108.781 22.5938C109.188 22.4583 109.641 22.3906 110.141 22.3906C110.849 22.3906 111.456 22.5104 111.961 22.75C112.471 22.9844 112.862 23.3047 113.133 23.7109C113.404 24.112 113.539 24.5651 113.539 25.0703H111.656C111.656 24.8464 111.599 24.638 111.484 24.4453C111.375 24.2474 111.208 24.0885 110.984 23.9688C110.76 23.8438 110.479 23.7812 110.141 23.7812C109.818 23.7812 109.549 23.8333 109.336 23.9375C109.128 24.0365 108.971 24.1667 108.867 24.3281C108.768 24.4896 108.719 24.6667 108.719 24.8594C108.719 25 108.745 25.1276 108.797 25.2422C108.854 25.3516 108.948 25.4531 109.078 25.5469C109.208 25.6354 109.385 25.7188 109.609 25.7969C109.839 25.875 110.125 25.9505 110.469 26.0234C111.115 26.1589 111.669 26.3333 112.133 26.5469C112.602 26.7552 112.961 27.026 113.211 27.3594C113.461 27.6875 113.586 28.1042 113.586 28.6094C113.586 28.9844 113.505 29.3281 113.344 29.6406C113.188 29.9479 112.958 30.2161 112.656 30.4453C112.354 30.6693 111.992 30.8438 111.57 30.9688C111.154 31.0938 110.685 31.1562 110.164 31.1562C109.398 31.1562 108.75 31.0208 108.219 30.75C107.688 30.474 107.284 30.1224 107.008 29.6953C106.737 29.263 106.602 28.8151 106.602 28.3516H108.422C108.443 28.7005 108.539 28.9792 108.711 29.1875C108.888 29.3906 109.107 29.5391 109.367 29.6328C109.633 29.7214 109.906 29.7656 110.188 29.7656C110.526 29.7656 110.81 29.7214 111.039 29.6328C111.268 29.5391 111.443 29.4141 111.562 29.2578C111.682 29.0964 111.742 28.9141 111.742 28.7109Z" fill="#C426B4"/>
<path d="M118.688 29.6562C118.995 29.6562 119.271 29.5964 119.516 29.4766C119.766 29.3516 119.966 29.1797 120.117 28.9609C120.273 28.7422 120.359 28.4896 120.375 28.2031H122.148C122.138 28.75 121.977 29.2474 121.664 29.6953C121.352 30.1432 120.938 30.5 120.422 30.7656C119.906 31.026 119.336 31.1562 118.711 31.1562C118.065 31.1562 117.503 31.0469 117.023 30.8281C116.544 30.6042 116.146 30.2969 115.828 29.9062C115.51 29.5156 115.271 29.0651 115.109 28.5547C114.953 28.0443 114.875 27.4974 114.875 26.9141V26.6406C114.875 26.0573 114.953 25.5104 115.109 25C115.271 24.4844 115.51 24.0312 115.828 23.6406C116.146 23.25 116.544 22.9453 117.023 22.7266C117.503 22.5026 118.062 22.3906 118.703 22.3906C119.38 22.3906 119.974 22.526 120.484 22.7969C120.995 23.0625 121.396 23.4349 121.688 23.9141C121.984 24.388 122.138 24.9401 122.148 25.5703H120.375C120.359 25.2578 120.281 24.9766 120.141 24.7266C120.005 24.4714 119.812 24.2682 119.562 24.1172C119.318 23.9661 119.023 23.8906 118.68 23.8906C118.299 23.8906 117.984 23.9688 117.734 24.125C117.484 24.276 117.289 24.4844 117.148 24.75C117.008 25.0104 116.906 25.3047 116.844 25.6328C116.786 25.9557 116.758 26.2917 116.758 26.6406V26.9141C116.758 27.263 116.786 27.6016 116.844 27.9297C116.901 28.2578 117 28.5521 117.141 28.8125C117.286 29.0677 117.484 29.2734 117.734 29.4297C117.984 29.5807 118.302 29.6562 118.688 29.6562Z" fill="#C426B4"/>
<path d="M128.359 29.3047V25.2734C128.359 24.9714 128.305 24.7109 128.195 24.4922C128.086 24.2734 127.919 24.1042 127.695 23.9844C127.477 23.8646 127.201 23.8047 126.867 23.8047C126.56 23.8047 126.294 23.8568 126.07 23.9609C125.846 24.0651 125.672 24.2057 125.547 24.3828C125.422 24.5599 125.359 24.7604 125.359 24.9844H123.484C123.484 24.651 123.565 24.3281 123.727 24.0156C123.888 23.7031 124.122 23.4245 124.43 23.1797C124.737 22.9349 125.104 22.7422 125.531 22.6016C125.958 22.4609 126.438 22.3906 126.969 22.3906C127.604 22.3906 128.167 22.4974 128.656 22.7109C129.151 22.9245 129.539 23.2474 129.82 23.6797C130.107 24.1068 130.25 24.6432 130.25 25.2891V29.0469C130.25 29.4323 130.276 29.7786 130.328 30.0859C130.385 30.388 130.466 30.651 130.57 30.875V31H128.641C128.552 30.7969 128.482 30.5391 128.43 30.2266C128.383 29.9089 128.359 29.6016 128.359 29.3047ZM128.633 25.8594L128.648 27.0234H127.297C126.948 27.0234 126.641 27.0573 126.375 27.125C126.109 27.1875 125.888 27.2812 125.711 27.4062C125.534 27.5312 125.401 27.6823 125.312 27.8594C125.224 28.0365 125.18 28.237 125.18 28.4609C125.18 28.6849 125.232 28.8906 125.336 29.0781C125.44 29.2604 125.591 29.4036 125.789 29.5078C125.992 29.612 126.237 29.6641 126.523 29.6641C126.909 29.6641 127.245 29.5859 127.531 29.4297C127.823 29.2682 128.052 29.0729 128.219 28.8438C128.385 28.6094 128.474 28.388 128.484 28.1797L129.094 29.0156C129.031 29.2292 128.924 29.4583 128.773 29.7031C128.622 29.9479 128.424 30.1823 128.18 30.4062C127.94 30.625 127.651 30.8047 127.312 30.9453C126.979 31.0859 126.594 31.1562 126.156 31.1562C125.604 31.1562 125.112 31.0469 124.68 30.8281C124.247 30.6042 123.909 30.3047 123.664 29.9297C123.419 29.5495 123.297 29.1198 123.297 28.6406C123.297 28.1927 123.38 27.7969 123.547 27.4531C123.719 27.1042 123.969 26.8125 124.297 26.5781C124.63 26.3438 125.036 26.1667 125.516 26.0469C125.995 25.9219 126.542 25.8594 127.156 25.8594H128.633Z" fill="#C426B4"/>
<path d="M134.109 24.1562V31H132.227V22.5469H134.023L134.109 24.1562ZM136.695 22.4922L136.68 24.2422C136.565 24.2214 136.44 24.2057 136.305 24.1953C136.174 24.1849 136.044 24.1797 135.914 24.1797C135.591 24.1797 135.307 24.2266 135.062 24.3203C134.818 24.4089 134.612 24.5391 134.445 24.7109C134.284 24.8776 134.159 25.0807 134.07 25.3203C133.982 25.5599 133.93 25.8281 133.914 26.125L133.484 26.1562C133.484 25.625 133.536 25.1328 133.641 24.6797C133.745 24.2266 133.901 23.8281 134.109 23.4844C134.323 23.1406 134.589 22.8724 134.906 22.6797C135.229 22.487 135.602 22.3906 136.023 22.3906C136.138 22.3906 136.26 22.401 136.391 22.4219C136.526 22.4427 136.628 22.4661 136.695 22.4922Z" fill="#C426B4"/>
<path d="M143.133 22.5469H144.844V30.7656C144.844 31.526 144.682 32.1719 144.359 32.7031C144.036 33.2344 143.586 33.638 143.008 33.9141C142.43 34.1953 141.76 34.3359 141 34.3359C140.677 34.3359 140.318 34.2891 139.922 34.1953C139.531 34.1016 139.151 33.9505 138.781 33.7422C138.417 33.5391 138.112 33.2708 137.867 32.9375L138.75 31.8281C139.052 32.1875 139.385 32.4505 139.75 32.6172C140.115 32.7839 140.497 32.8672 140.898 32.8672C141.331 32.8672 141.698 32.7865 142 32.625C142.307 32.4688 142.544 32.237 142.711 31.9297C142.878 31.6224 142.961 31.2474 142.961 30.8047V24.4609L143.133 22.5469ZM137.391 26.8672V26.7031C137.391 26.0625 137.469 25.4792 137.625 24.9531C137.781 24.4219 138.005 23.9661 138.297 23.5859C138.589 23.2005 138.943 22.9062 139.359 22.7031C139.776 22.4948 140.247 22.3906 140.773 22.3906C141.32 22.3906 141.786 22.4896 142.172 22.6875C142.562 22.8854 142.888 23.1693 143.148 23.5391C143.409 23.9036 143.612 24.3411 143.758 24.8516C143.909 25.3568 144.021 25.9193 144.094 26.5391V27.0625C144.026 27.6667 143.911 28.2188 143.75 28.7188C143.589 29.2188 143.375 29.651 143.109 30.0156C142.844 30.3802 142.516 30.6615 142.125 30.8594C141.74 31.0573 141.284 31.1562 140.758 31.1562C140.242 31.1562 139.776 31.0495 139.359 30.8359C138.948 30.6224 138.594 30.3229 138.297 29.9375C138.005 29.5521 137.781 29.099 137.625 28.5781C137.469 28.0521 137.391 27.4818 137.391 26.8672ZM139.273 26.7031V26.8672C139.273 27.2526 139.31 27.612 139.383 27.9453C139.461 28.2786 139.578 28.5729 139.734 28.8281C139.896 29.0781 140.099 29.276 140.344 29.4219C140.594 29.5625 140.888 29.6328 141.227 29.6328C141.669 29.6328 142.031 29.5391 142.312 29.3516C142.599 29.1641 142.818 28.9115 142.969 28.5938C143.125 28.2708 143.234 27.9115 143.297 27.5156V26.1016C143.266 25.7943 143.201 25.5078 143.102 25.2422C143.008 24.9766 142.88 24.7448 142.719 24.5469C142.557 24.3438 142.354 24.1875 142.109 24.0781C141.865 23.9635 141.576 23.9062 141.242 23.9062C140.904 23.9062 140.609 23.9792 140.359 24.125C140.109 24.2708 139.904 24.4714 139.742 24.7266C139.586 24.9818 139.469 25.2786 139.391 25.6172C139.312 25.9557 139.273 26.3177 139.273 26.7031Z" fill="#C426B4"/>
<path d="M151.562 29.3047V25.2734C151.562 24.9714 151.508 24.7109 151.398 24.4922C151.289 24.2734 151.122 24.1042 150.898 23.9844C150.68 23.8646 150.404 23.8047 150.07 23.8047C149.763 23.8047 149.497 23.8568 149.273 23.9609C149.049 24.0651 148.875 24.2057 148.75 24.3828C148.625 24.5599 148.562 24.7604 148.562 24.9844H146.688C146.688 24.651 146.768 24.3281 146.93 24.0156C147.091 23.7031 147.326 23.4245 147.633 23.1797C147.94 22.9349 148.307 22.7422 148.734 22.6016C149.161 22.4609 149.641 22.3906 150.172 22.3906C150.807 22.3906 151.37 22.4974 151.859 22.7109C152.354 22.9245 152.742 23.2474 153.023 23.6797C153.31 24.1068 153.453 24.6432 153.453 25.2891V29.0469C153.453 29.4323 153.479 29.7786 153.531 30.0859C153.589 30.388 153.669 30.651 153.773 30.875V31H151.844C151.755 30.7969 151.685 30.5391 151.633 30.2266C151.586 29.9089 151.562 29.6016 151.562 29.3047ZM151.836 25.8594L151.852 27.0234H150.5C150.151 27.0234 149.844 27.0573 149.578 27.125C149.312 27.1875 149.091 27.2812 148.914 27.4062C148.737 27.5312 148.604 27.6823 148.516 27.8594C148.427 28.0365 148.383 28.237 148.383 28.4609C148.383 28.6849 148.435 28.8906 148.539 29.0781C148.643 29.2604 148.794 29.4036 148.992 29.5078C149.195 29.612 149.44 29.6641 149.727 29.6641C150.112 29.6641 150.448 29.5859 150.734 29.4297C151.026 29.2682 151.255 29.0729 151.422 28.8438C151.589 28.6094 151.677 28.388 151.688 28.1797L152.297 29.0156C152.234 29.2292 152.128 29.4583 151.977 29.7031C151.826 29.9479 151.628 30.1823 151.383 30.4062C151.143 30.625 150.854 30.8047 150.516 30.9453C150.182 31.0859 149.797 31.1562 149.359 31.1562C148.807 31.1562 148.315 31.0469 147.883 30.8281C147.451 30.6042 147.112 30.3047 146.867 29.9297C146.622 29.5495 146.5 29.1198 146.5 28.6406C146.5 28.1927 146.583 27.7969 146.75 27.4531C146.922 27.1042 147.172 26.8125 147.5 26.5781C147.833 26.3438 148.24 26.1667 148.719 26.0469C149.198 25.9219 149.745 25.8594 150.359 25.8594H151.836Z" fill="#C426B4"/>
<path d="M164.172 29.3047V25.2734C164.172 24.9714 164.117 24.7109 164.008 24.4922C163.898 24.2734 163.732 24.1042 163.508 23.9844C163.289 23.8646 163.013 23.8047 162.68 23.8047C162.372 23.8047 162.107 23.8568 161.883 23.9609C161.659 24.0651 161.484 24.2057 161.359 24.3828C161.234 24.5599 161.172 24.7604 161.172 24.9844H159.297C159.297 24.651 159.378 24.3281 159.539 24.0156C159.701 23.7031 159.935 23.4245 160.242 23.1797C160.549 22.9349 160.917 22.7422 161.344 22.6016C161.771 22.4609 162.25 22.3906 162.781 22.3906C163.417 22.3906 163.979 22.4974 164.469 22.7109C164.964 22.9245 165.352 23.2474 165.633 23.6797C165.919 24.1068 166.062 24.6432 166.062 25.2891V29.0469C166.062 29.4323 166.089 29.7786 166.141 30.0859C166.198 30.388 166.279 30.651 166.383 30.875V31H164.453C164.365 30.7969 164.294 30.5391 164.242 30.2266C164.195 29.9089 164.172 29.6016 164.172 29.3047ZM164.445 25.8594L164.461 27.0234H163.109C162.76 27.0234 162.453 27.0573 162.188 27.125C161.922 27.1875 161.701 27.2812 161.523 27.4062C161.346 27.5312 161.214 27.6823 161.125 27.8594C161.036 28.0365 160.992 28.237 160.992 28.4609C160.992 28.6849 161.044 28.8906 161.148 29.0781C161.253 29.2604 161.404 29.4036 161.602 29.5078C161.805 29.612 162.049 29.6641 162.336 29.6641C162.721 29.6641 163.057 29.5859 163.344 29.4297C163.635 29.2682 163.865 29.0729 164.031 28.8438C164.198 28.6094 164.286 28.388 164.297 28.1797L164.906 29.0156C164.844 29.2292 164.737 29.4583 164.586 29.7031C164.435 29.9479 164.237 30.1823 163.992 30.4062C163.753 30.625 163.464 30.8047 163.125 30.9453C162.792 31.0859 162.406 31.1562 161.969 31.1562C161.417 31.1562 160.924 31.0469 160.492 30.8281C160.06 30.6042 159.721 30.3047 159.477 29.9297C159.232 29.5495 159.109 29.1198 159.109 28.6406C159.109 28.1927 159.193 27.7969 159.359 27.4531C159.531 27.1042 159.781 26.8125 160.109 26.5781C160.443 26.3438 160.849 26.1667 161.328 26.0469C161.807 25.9219 162.354 25.8594 162.969 25.8594H164.445Z" fill="#C426B4"/>
<path d="M173.18 34.25V24.2266L173.398 22.5469H175.078V34.25H173.18ZM167.688 26.8594V26.6953C167.688 26.0547 167.76 25.4714 167.906 24.9453C168.052 24.4141 168.268 23.9583 168.555 23.5781C168.841 23.1979 169.19 22.9062 169.602 22.7031C170.013 22.4948 170.487 22.3906 171.023 22.3906C171.544 22.3906 171.997 22.4896 172.383 22.6875C172.773 22.8854 173.102 23.1693 173.367 23.5391C173.638 23.9036 173.854 24.3385 174.016 24.8438C174.177 25.349 174.294 25.9115 174.367 26.5312V27.0547C174.299 27.6589 174.185 28.2109 174.023 28.7109C173.862 29.2109 173.646 29.6432 173.375 30.0078C173.104 30.3724 172.773 30.6562 172.383 30.8594C171.992 31.0573 171.534 31.1562 171.008 31.1562C170.482 31.1562 170.013 31.0495 169.602 30.8359C169.19 30.6224 168.841 30.3229 168.555 29.9375C168.273 29.5469 168.057 29.0911 167.906 28.5703C167.76 28.0443 167.688 27.474 167.688 26.8594ZM169.57 26.6953V26.8594C169.57 27.2448 169.604 27.6068 169.672 27.9453C169.745 28.2786 169.859 28.5755 170.016 28.8359C170.172 29.0911 170.37 29.2917 170.609 29.4375C170.849 29.5833 171.138 29.6562 171.477 29.6562C171.919 29.6562 172.281 29.5599 172.562 29.3672C172.849 29.1745 173.068 28.9167 173.219 28.5938C173.375 28.2656 173.484 27.9036 173.547 27.5078V26.0938C173.51 25.7865 173.445 25.5 173.352 25.2344C173.258 24.9635 173.128 24.7292 172.961 24.5312C172.799 24.3281 172.596 24.1719 172.352 24.0625C172.112 23.9479 171.826 23.8906 171.492 23.8906C171.154 23.8906 170.862 23.9635 170.617 24.1094C170.372 24.2552 170.172 24.4583 170.016 24.7188C169.865 24.974 169.753 25.2708 169.68 25.6094C169.607 25.9479 169.57 26.3099 169.57 26.6953Z" fill="#C426B4"/>
<path d="M182.18 29.0078V22.5469H184.07V31H182.289L182.18 29.0078ZM182.445 27.25L183.078 27.2344C183.078 27.8021 183.016 28.3255 182.891 28.8047C182.766 29.2786 182.573 29.6927 182.312 30.0469C182.052 30.3958 181.719 30.6693 181.312 30.8672C180.906 31.0599 180.419 31.1562 179.852 31.1562C179.44 31.1562 179.062 31.0964 178.719 30.9766C178.375 30.8568 178.078 30.6719 177.828 30.4219C177.583 30.1719 177.393 29.8464 177.258 29.4453C177.122 29.0443 177.055 28.5651 177.055 28.0078V22.5469H178.938V28.0234C178.938 28.3307 178.974 28.5885 179.047 28.7969C179.12 29 179.219 29.1641 179.344 29.2891C179.469 29.4141 179.615 29.5026 179.781 29.5547C179.948 29.6068 180.125 29.6328 180.312 29.6328C180.849 29.6328 181.271 29.5286 181.578 29.3203C181.891 29.1068 182.112 28.8203 182.242 28.4609C182.378 28.1016 182.445 27.6979 182.445 27.25Z" fill="#C426B4"/>
<path d="M188.039 22.5469V31H186.156V22.5469H188.039ZM186.172 21.4219L187.695 19.0703H189.82L187.695 21.4219H186.172Z" fill="#C426B4"/>
<path d="M196.188 19V31H194.297V19H196.188Z" fill="#C426B4"/>
<path d="M203.016 29.3047V25.2734C203.016 24.9714 202.961 24.7109 202.852 24.4922C202.742 24.2734 202.576 24.1042 202.352 23.9844C202.133 23.8646 201.857 23.8047 201.523 23.8047C201.216 23.8047 200.951 23.8568 200.727 23.9609C200.503 24.0651 200.328 24.2057 200.203 24.3828C200.078 24.5599 200.016 24.7604 200.016 24.9844H198.141C198.141 24.651 198.221 24.3281 198.383 24.0156C198.544 23.7031 198.779 23.4245 199.086 23.1797C199.393 22.9349 199.76 22.7422 200.188 22.6016C200.615 22.4609 201.094 22.3906 201.625 22.3906C202.26 22.3906 202.823 22.4974 203.312 22.7109C203.807 22.9245 204.195 23.2474 204.477 23.6797C204.763 24.1068 204.906 24.6432 204.906 25.2891V29.0469C204.906 29.4323 204.932 29.7786 204.984 30.0859C205.042 30.388 205.122 30.651 205.227 30.875V31H203.297C203.208 30.7969 203.138 30.5391 203.086 30.2266C203.039 29.9089 203.016 29.6016 203.016 29.3047ZM203.289 25.8594L203.305 27.0234H201.953C201.604 27.0234 201.297 27.0573 201.031 27.125C200.766 27.1875 200.544 27.2812 200.367 27.4062C200.19 27.5312 200.057 27.6823 199.969 27.8594C199.88 28.0365 199.836 28.237 199.836 28.4609C199.836 28.6849 199.888 28.8906 199.992 29.0781C200.096 29.2604 200.247 29.4036 200.445 29.5078C200.648 29.612 200.893 29.6641 201.18 29.6641C201.565 29.6641 201.901 29.5859 202.188 29.4297C202.479 29.2682 202.708 29.0729 202.875 28.8438C203.042 28.6094 203.13 28.388 203.141 28.1797L203.75 29.0156C203.688 29.2292 203.581 29.4583 203.43 29.7031C203.279 29.9479 203.081 30.1823 202.836 30.4062C202.596 30.625 202.307 30.8047 201.969 30.9453C201.635 31.0859 201.25 31.1562 200.812 31.1562C200.26 31.1562 199.768 31.0469 199.336 30.8281C198.904 30.6042 198.565 30.3047 198.32 29.9297C198.076 29.5495 197.953 29.1198 197.953 28.6406C197.953 28.1927 198.036 27.7969 198.203 27.4531C198.375 27.1042 198.625 26.8125 198.953 26.5781C199.286 26.3438 199.693 26.1667 200.172 26.0469C200.651 25.9219 201.198 25.8594 201.812 25.8594H203.289Z" fill="#C426B4"/>
<path d="M215.625 29.3047V25.2734C215.625 24.9714 215.57 24.7109 215.461 24.4922C215.352 24.2734 215.185 24.1042 214.961 23.9844C214.742 23.8646 214.466 23.8047 214.133 23.8047C213.826 23.8047 213.56 23.8568 213.336 23.9609C213.112 24.0651 212.938 24.2057 212.812 24.3828C212.688 24.5599 212.625 24.7604 212.625 24.9844H210.75C210.75 24.651 210.831 24.3281 210.992 24.0156C211.154 23.7031 211.388 23.4245 211.695 23.1797C212.003 22.9349 212.37 22.7422 212.797 22.6016C213.224 22.4609 213.703 22.3906 214.234 22.3906C214.87 22.3906 215.432 22.4974 215.922 22.7109C216.417 22.9245 216.805 23.2474 217.086 23.6797C217.372 24.1068 217.516 24.6432 217.516 25.2891V29.0469C217.516 29.4323 217.542 29.7786 217.594 30.0859C217.651 30.388 217.732 30.651 217.836 30.875V31H215.906C215.818 30.7969 215.747 30.5391 215.695 30.2266C215.648 29.9089 215.625 29.6016 215.625 29.3047ZM215.898 25.8594L215.914 27.0234H214.562C214.214 27.0234 213.906 27.0573 213.641 27.125C213.375 27.1875 213.154 27.2812 212.977 27.4062C212.799 27.5312 212.667 27.6823 212.578 27.8594C212.49 28.0365 212.445 28.237 212.445 28.4609C212.445 28.6849 212.497 28.8906 212.602 29.0781C212.706 29.2604 212.857 29.4036 213.055 29.5078C213.258 29.612 213.503 29.6641 213.789 29.6641C214.174 29.6641 214.51 29.5859 214.797 29.4297C215.089 29.2682 215.318 29.0729 215.484 28.8438C215.651 28.6094 215.74 28.388 215.75 28.1797L216.359 29.0156C216.297 29.2292 216.19 29.4583 216.039 29.7031C215.888 29.9479 215.69 30.1823 215.445 30.4062C215.206 30.625 214.917 30.8047 214.578 30.9453C214.245 31.0859 213.859 31.1562 213.422 31.1562C212.87 31.1562 212.378 31.0469 211.945 30.8281C211.513 30.6042 211.174 30.3047 210.93 29.9297C210.685 29.5495 210.562 29.1198 210.562 28.6406C210.562 28.1927 210.646 27.7969 210.812 27.4531C210.984 27.1042 211.234 26.8125 211.562 26.5781C211.896 26.3438 212.302 26.1667 212.781 26.0469C213.26 25.9219 213.807 25.8594 214.422 25.8594H215.898Z" fill="#C426B4"/>
<path d="M221.375 24.1719V34.25H219.492V22.5469H221.227L221.375 24.1719ZM226.883 26.6953V26.8594C226.883 27.474 226.81 28.0443 226.664 28.5703C226.523 29.0911 226.312 29.5469 226.031 29.9375C225.755 30.3229 225.414 30.6224 225.008 30.8359C224.602 31.0495 224.133 31.1562 223.602 31.1562C223.076 31.1562 222.615 31.0599 222.219 30.8672C221.828 30.6693 221.497 30.3906 221.227 30.0312C220.956 29.6719 220.737 29.25 220.57 28.7656C220.409 28.276 220.294 27.7396 220.227 27.1562V26.5234C220.294 25.9036 220.409 25.3411 220.57 24.8359C220.737 24.3307 220.956 23.8958 221.227 23.5312C221.497 23.1667 221.828 22.8854 222.219 22.6875C222.609 22.4896 223.065 22.3906 223.586 22.3906C224.117 22.3906 224.589 22.4948 225 22.7031C225.411 22.9062 225.758 23.1979 226.039 23.5781C226.32 23.9531 226.531 24.4062 226.672 24.9375C226.812 25.4635 226.883 26.0495 226.883 26.6953ZM225 26.8594V26.6953C225 26.3047 224.964 25.9427 224.891 25.6094C224.818 25.2708 224.703 24.974 224.547 24.7188C224.391 24.4635 224.19 24.2656 223.945 24.125C223.706 23.9792 223.417 23.9062 223.078 23.9062C222.745 23.9062 222.458 23.9635 222.219 24.0781C221.979 24.1875 221.779 24.3411 221.617 24.5391C221.456 24.737 221.331 24.9688 221.242 25.2344C221.154 25.4948 221.091 25.7786 221.055 26.0859V27.6016C221.117 27.9766 221.224 28.3203 221.375 28.6328C221.526 28.9453 221.74 29.1953 222.016 29.3828C222.297 29.5651 222.656 29.6562 223.094 29.6562C223.432 29.6562 223.721 29.5833 223.961 29.4375C224.201 29.2917 224.396 29.0911 224.547 28.8359C224.703 28.5755 224.818 28.276 224.891 27.9375C224.964 27.599 225 27.2396 225 26.8594Z" fill="#C426B4"/>
<path d="M230.5 19V31H228.609V19H230.5Z" fill="#C426B4"/>
<path d="M234.578 22.5469V31H232.688V22.5469H234.578ZM232.562 20.3281C232.562 20.0417 232.656 19.8047 232.844 19.6172C233.036 19.4245 233.302 19.3281 233.641 19.3281C233.974 19.3281 234.237 19.4245 234.43 19.6172C234.622 19.8047 234.719 20.0417 234.719 20.3281C234.719 20.6094 234.622 20.8438 234.43 21.0312C234.237 21.2188 233.974 21.3125 233.641 21.3125C233.302 21.3125 233.036 21.2188 232.844 21.0312C232.656 20.8438 232.562 20.6094 232.562 20.3281Z" fill="#C426B4"/>
<path d="M240.094 29.6562C240.401 29.6562 240.677 29.5964 240.922 29.4766C241.172 29.3516 241.372 29.1797 241.523 28.9609C241.68 28.7422 241.766 28.4896 241.781 28.2031H243.555C243.544 28.75 243.383 29.2474 243.07 29.6953C242.758 30.1432 242.344 30.5 241.828 30.7656C241.312 31.026 240.742 31.1562 240.117 31.1562C239.471 31.1562 238.909 31.0469 238.43 30.8281C237.951 30.6042 237.552 30.2969 237.234 29.9062C236.917 29.5156 236.677 29.0651 236.516 28.5547C236.359 28.0443 236.281 27.4974 236.281 26.9141V26.6406C236.281 26.0573 236.359 25.5104 236.516 25C236.677 24.4844 236.917 24.0312 237.234 23.6406C237.552 23.25 237.951 22.9453 238.43 22.7266C238.909 22.5026 239.469 22.3906 240.109 22.3906C240.786 22.3906 241.38 22.526 241.891 22.7969C242.401 23.0625 242.802 23.4349 243.094 23.9141C243.391 24.388 243.544 24.9401 243.555 25.5703H241.781C241.766 25.2578 241.688 24.9766 241.547 24.7266C241.411 24.4714 241.219 24.2682 240.969 24.1172C240.724 23.9661 240.43 23.8906 240.086 23.8906C239.706 23.8906 239.391 23.9688 239.141 24.125C238.891 24.276 238.695 24.4844 238.555 24.75C238.414 25.0104 238.312 25.3047 238.25 25.6328C238.193 25.9557 238.164 26.2917 238.164 26.6406V26.9141C238.164 27.263 238.193 27.6016 238.25 27.9297C238.307 28.2578 238.406 28.5521 238.547 28.8125C238.693 29.0677 238.891 29.2734 239.141 29.4297C239.391 29.5807 239.708 29.6562 240.094 29.6562Z" fill="#C426B4"/>
<path d="M249.766 29.3047V25.2734C249.766 24.9714 249.711 24.7109 249.602 24.4922C249.492 24.2734 249.326 24.1042 249.102 23.9844C248.883 23.8646 248.607 23.8047 248.273 23.8047C247.966 23.8047 247.701 23.8568 247.477 23.9609C247.253 24.0651 247.078 24.2057 246.953 24.3828C246.828 24.5599 246.766 24.7604 246.766 24.9844H244.891C244.891 24.651 244.971 24.3281 245.133 24.0156C245.294 23.7031 245.529 23.4245 245.836 23.1797C246.143 22.9349 246.51 22.7422 246.938 22.6016C247.365 22.4609 247.844 22.3906 248.375 22.3906C249.01 22.3906 249.573 22.4974 250.062 22.7109C250.557 22.9245 250.945 23.2474 251.227 23.6797C251.513 24.1068 251.656 24.6432 251.656 25.2891V29.0469C251.656 29.4323 251.682 29.7786 251.734 30.0859C251.792 30.388 251.872 30.651 251.977 30.875V31H250.047C249.958 30.7969 249.888 30.5391 249.836 30.2266C249.789 29.9089 249.766 29.6016 249.766 29.3047ZM250.039 25.8594L250.055 27.0234H248.703C248.354 27.0234 248.047 27.0573 247.781 27.125C247.516 27.1875 247.294 27.2812 247.117 27.4062C246.94 27.5312 246.807 27.6823 246.719 27.8594C246.63 28.0365 246.586 28.237 246.586 28.4609C246.586 28.6849 246.638 28.8906 246.742 29.0781C246.846 29.2604 246.997 29.4036 247.195 29.5078C247.398 29.612 247.643 29.6641 247.93 29.6641C248.315 29.6641 248.651 29.5859 248.938 29.4297C249.229 29.2682 249.458 29.0729 249.625 28.8438C249.792 28.6094 249.88 28.388 249.891 28.1797L250.5 29.0156C250.438 29.2292 250.331 29.4583 250.18 29.7031C250.029 29.9479 249.831 30.1823 249.586 30.4062C249.346 30.625 249.057 30.8047 248.719 30.9453C248.385 31.0859 248 31.1562 247.562 31.1562C247.01 31.1562 246.518 31.0469 246.086 30.8281C245.654 30.6042 245.315 30.3047 245.07 29.9297C244.826 29.5495 244.703 29.1198 244.703 28.6406C244.703 28.1927 244.786 27.7969 244.953 27.4531C245.125 27.1042 245.375 26.8125 245.703 26.5781C246.036 26.3438 246.443 26.1667 246.922 26.0469C247.401 25.9219 247.948 25.8594 248.562 25.8594H250.039Z" fill="#C426B4"/>
<path d="M257.078 29.6562C257.385 29.6562 257.661 29.5964 257.906 29.4766C258.156 29.3516 258.357 29.1797 258.508 28.9609C258.664 28.7422 258.75 28.4896 258.766 28.2031H260.539C260.529 28.75 260.367 29.2474 260.055 29.6953C259.742 30.1432 259.328 30.5 258.812 30.7656C258.297 31.026 257.727 31.1562 257.102 31.1562C256.456 31.1562 255.893 31.0469 255.414 30.8281C254.935 30.6042 254.536 30.2969 254.219 29.9062C253.901 29.5156 253.661 29.0651 253.5 28.5547C253.344 28.0443 253.266 27.4974 253.266 26.9141V26.6406C253.266 26.0573 253.344 25.5104 253.5 25C253.661 24.4844 253.901 24.0312 254.219 23.6406C254.536 23.25 254.935 22.9453 255.414 22.7266C255.893 22.5026 256.453 22.3906 257.094 22.3906C257.771 22.3906 258.365 22.526 258.875 22.7969C259.385 23.0625 259.786 23.4349 260.078 23.9141C260.375 24.388 260.529 24.9401 260.539 25.5703H258.766C258.75 25.2578 258.672 24.9766 258.531 24.7266C258.396 24.4714 258.203 24.2682 257.953 24.1172C257.708 23.9661 257.414 23.8906 257.07 23.8906C256.69 23.8906 256.375 23.9688 256.125 24.125C255.875 24.276 255.68 24.4844 255.539 24.75C255.398 25.0104 255.297 25.3047 255.234 25.6328C255.177 25.9557 255.148 26.2917 255.148 26.6406V26.9141C255.148 27.263 255.177 27.6016 255.234 27.9297C255.292 28.2578 255.391 28.5521 255.531 28.8125C255.677 29.0677 255.875 29.2734 256.125 29.4297C256.375 29.5807 256.693 29.6562 257.078 29.6562Z" fill="#C426B4"/>
<path d="M264 22.5469V31H262.109V22.5469H264ZM261.984 20.3281C261.984 20.0417 262.078 19.8047 262.266 19.6172C262.458 19.4245 262.724 19.3281 263.062 19.3281C263.396 19.3281 263.659 19.4245 263.852 19.6172C264.044 19.8047 264.141 20.0417 264.141 20.3281C264.141 20.6094 264.044 20.8438 263.852 21.0312C263.659 21.2188 263.396 21.3125 263.062 21.3125C262.724 21.3125 262.458 21.2188 262.266 21.0312C262.078 20.8438 261.984 20.6094 261.984 20.3281Z" fill="#C426B4"/>
<path d="M265.703 26.8672V26.6875C265.703 26.0781 265.792 25.513 265.969 24.9922C266.146 24.4661 266.401 24.0104 266.734 23.625C267.073 23.2344 267.484 22.9323 267.969 22.7188C268.458 22.5 269.01 22.3906 269.625 22.3906C270.245 22.3906 270.797 22.5 271.281 22.7188C271.771 22.9323 272.185 23.2344 272.523 23.625C272.862 24.0104 273.12 24.4661 273.297 24.9922C273.474 25.513 273.562 26.0781 273.562 26.6875V26.8672C273.562 27.4766 273.474 28.0417 273.297 28.5625C273.12 29.0833 272.862 29.5391 272.523 29.9297C272.185 30.3151 271.773 30.6172 271.289 30.8359C270.805 31.0495 270.255 31.1562 269.641 31.1562C269.021 31.1562 268.466 31.0495 267.977 30.8359C267.492 30.6172 267.081 30.3151 266.742 29.9297C266.404 29.5391 266.146 29.0833 265.969 28.5625C265.792 28.0417 265.703 27.4766 265.703 26.8672ZM267.586 26.6875V26.8672C267.586 27.2474 267.625 27.6068 267.703 27.9453C267.781 28.2839 267.904 28.5807 268.07 28.8359C268.237 29.0911 268.451 29.2917 268.711 29.4375C268.971 29.5833 269.281 29.6562 269.641 29.6562C269.99 29.6562 270.292 29.5833 270.547 29.4375C270.807 29.2917 271.021 29.0911 271.188 28.8359C271.354 28.5807 271.477 28.2839 271.555 27.9453C271.638 27.6068 271.68 27.2474 271.68 26.8672V26.6875C271.68 26.3125 271.638 25.9583 271.555 25.625C271.477 25.2865 271.352 24.987 271.18 24.7266C271.013 24.4661 270.799 24.263 270.539 24.1172C270.284 23.9661 269.979 23.8906 269.625 23.8906C269.271 23.8906 268.964 23.9661 268.703 24.1172C268.448 24.263 268.237 24.4661 268.07 24.7266C267.904 24.987 267.781 25.2865 267.703 25.625C267.625 25.9583 267.586 26.3125 267.586 26.6875ZM268.641 21.3516L270.164 19H272.289L270.164 21.3516H268.641Z" fill="#C426B4"/>
<path d="M277.008 24.3516V31H275.125V22.5469H276.898L277.008 24.3516ZM276.672 26.4609L276.062 26.4531C276.068 25.8542 276.151 25.3047 276.312 24.8047C276.479 24.3047 276.708 23.875 277 23.5156C277.297 23.1562 277.651 22.8802 278.062 22.6875C278.474 22.4896 278.932 22.3906 279.438 22.3906C279.844 22.3906 280.211 22.4479 280.539 22.5625C280.872 22.6719 281.156 22.8516 281.391 23.1016C281.63 23.3516 281.812 23.6771 281.938 24.0781C282.062 24.474 282.125 24.9609 282.125 25.5391V31H280.234V25.5312C280.234 25.125 280.174 24.8047 280.055 24.5703C279.94 24.3307 279.771 24.1615 279.547 24.0625C279.328 23.9583 279.055 23.9062 278.727 23.9062C278.404 23.9062 278.115 23.974 277.859 24.1094C277.604 24.2448 277.388 24.4297 277.211 24.6641C277.039 24.8984 276.906 25.1693 276.812 25.4766C276.719 25.7839 276.672 26.112 276.672 26.4609Z" fill="#C426B4"/>
<g clip-path="url(#clip0_4801_570)">
<path d="M42.0234 44.5249L14.2483 73.5327C14.5672 74.6299 15.1316 75.6406 15.8991 76.4888C16.6665 77.337 17.617 78.0006 18.679 78.4297C19.741 78.8587 20.8868 79.0419 22.0302 78.9656C23.1735 78.8893 24.2845 78.5554 25.2797 77.9891L56.5318 60.2461L42.0234 44.5249Z" fill="#EA4335"/>
<path d="M70.109 39.5938L56.594 31.8777L41.3818 45.185L56.6561 60.2047L70.0676 52.571C70.9242 52.1272 71.6843 51.5191 72.3044 50.7815C72.9244 50.0439 73.3922 49.1914 73.6806 48.2731C73.9691 47.3548 74.0727 46.3886 73.9855 45.4302C73.8982 44.4719 73.6218 43.5401 73.1721 42.6886C72.4705 41.3711 71.3892 40.2932 70.0676 39.5938H70.109Z" fill="#FBBC04"/>
<path d="M14.2484 18.488C14.0831 19.1073 13.9996 19.7454 14 20.3861V71.6346C13.9996 72.2754 14.0831 72.9135 14.2484 73.5327L42.9755 45.2677L14.2484 18.488Z" fill="#4285F4"/>
<path d="M42.2304 46.0103L56.5939 31.8778L25.3832 14.0522C24.2086 13.3676 22.8734 13.0046 21.5129 13C19.8695 12.9968 18.2701 13.5293 16.9586 14.5163C15.647 15.5034 14.6952 16.8909 14.2483 18.4673L42.2304 46.0103Z" fill="#34A853"/>
</g>
<defs>
<clipPath id="clip0_4801_570">
<rect width="60" height="66" fill="white" transform="translate(14 13)"/>
</clipPath>
</defs>
</svg>
