<svg width="22" height="22" viewBox="0 0 22 22" fill="none" xmlns="http://www.w3.org/2000/svg">
<path fill-rule="evenodd" clip-rule="evenodd" d="M12.2222 7.94444H18.3333V5.5H12.2222V7.94444ZM12.2222 16.5H18.3333V14.0556H12.2222V16.5ZM19.5556 22H2.44444C1.1 22 0 20.9 0 19.5556V2.44444C0 1.1 1.1 0 2.44444 0H19.5556C20.9 0 22 1.1 22 2.44444V19.5556C22 20.9 20.9 22 19.5556 22ZM3.66667 9.77778H9.77778V3.66667H3.66667V9.77778ZM4.88889 4.88889H8.55556V8.55556H4.88889V4.88889ZM3.66667 18.3333H9.77778V12.2222H3.66667V18.3333ZM4.88889 13.4444H8.55556V17.1111H4.88889V13.4444Z" fill="#606060"/>
</svg>
