<svg width="393" height="852" viewBox="0 0 393 852" fill="none" xmlns="http://www.w3.org/2000/svg">
<g clip-path="url(#clip0_2921_57)">
<rect width="393" height="852" fill="url(#paint0_linear_2921_57)"/>
<path opacity="0.1" fill-rule="evenodd" clip-rule="evenodd" d="M83.8097 429.632C139.559 429.632 184.753 384.438 184.753 328.689C184.753 272.939 139.559 227.745 83.8097 227.745C28.0602 227.745 -17.1337 272.939 -17.1337 328.689C-17.1337 384.438 28.0602 429.632 83.8097 429.632Z" fill="white"/>
<path opacity="0.2" fill-rule="evenodd" clip-rule="evenodd" d="M83.8098 504.498C180.907 504.498 259.62 425.786 259.62 328.689C259.62 231.592 180.907 152.879 83.8098 152.879C-13.2873 152.879 -92 231.592 -92 328.689C-92 425.786 -13.2873 504.498 83.8098 504.498Z" stroke="#FCFCFC"/>
<path opacity="0.2" fill-rule="evenodd" clip-rule="evenodd" d="M346.263 78.8537C350.908 78.8537 354.674 75.0875 354.674 70.4417C354.674 65.7959 350.908 62.0298 346.263 62.0298C341.617 62.0298 337.851 65.7959 337.851 70.4417C337.851 75.0875 341.617 78.8537 346.263 78.8537Z" fill="#C4D0FB"/>
<path opacity="0.2" fill-rule="evenodd" clip-rule="evenodd" d="M112.831 82.2186C124.213 82.2186 133.44 72.9915 133.44 61.6093C133.44 50.2271 124.213 41 112.831 41C101.449 41 92.2217 50.2271 92.2217 61.6093C92.2217 72.9915 101.449 82.2186 112.831 82.2186Z" fill="#C4D0FB"/>
<path opacity="0.1" fill-rule="evenodd" clip-rule="evenodd" d="M388.743 286.629C418.708 286.629 443 262.337 443 232.372C443 202.406 418.708 178.115 388.743 178.115C358.778 178.115 334.486 202.406 334.486 232.372C334.486 262.337 358.778 286.629 388.743 286.629Z" fill="#C4D0FB"/>
<path fill-rule="evenodd" clip-rule="evenodd" d="M207.465 240.363C210.717 240.363 213.354 237.727 213.354 234.475C213.354 231.223 210.717 228.586 207.465 228.586C204.213 228.586 201.577 231.223 201.577 234.475C201.577 237.727 204.213 240.363 207.465 240.363Z" fill="#70AAFF"/>
<path opacity="0.1" fill-rule="evenodd" clip-rule="evenodd" d="M267.19 885.632C211.441 885.632 166.247 840.438 166.247 784.689C166.247 728.939 211.441 683.745 267.19 683.745C322.94 683.745 368.134 728.939 368.134 784.689C368.134 840.438 322.94 885.632 267.19 885.632Z" fill="white"/>
<path opacity="0.2" fill-rule="evenodd" clip-rule="evenodd" d="M267.19 960.498C170.093 960.498 91.3805 881.786 91.3805 784.689C91.3805 687.592 170.093 608.879 267.19 608.879C364.287 608.879 443 687.592 443 784.689C443 881.786 364.287 960.498 267.19 960.498Z" stroke="white"/>
<path opacity="0.2" fill-rule="evenodd" clip-rule="evenodd" d="M4.73746 534.854C0.0916728 534.854 -3.67449 531.088 -3.67449 526.442C-3.67449 521.796 0.0916728 518.03 4.73746 518.03C9.38326 518.03 13.1494 521.796 13.1494 526.442C13.1494 531.088 9.38326 534.854 4.73746 534.854Z" fill="white"/>
<path opacity="0.2" fill-rule="evenodd" clip-rule="evenodd" d="M238.169 538.219C226.787 538.219 217.56 528.991 217.56 517.609C217.56 506.227 226.787 497 238.169 497C249.551 497 258.778 506.227 258.778 517.609C258.778 528.991 249.551 538.219 238.169 538.219Z" fill="#D7E7FF"/>
<path opacity="0.1" fill-rule="evenodd" clip-rule="evenodd" d="M-37.7429 742.629C-67.7083 742.629 -92 718.337 -92 688.372C-92 658.406 -67.7083 634.115 -37.7429 634.115C-7.77756 634.115 16.5142 658.406 16.5142 688.372C16.5142 718.337 -7.77756 742.629 -37.7429 742.629Z" fill="white"/>
<path fill-rule="evenodd" clip-rule="evenodd" d="M143.535 696.363C140.283 696.363 137.646 693.727 137.646 690.475C137.646 687.223 140.283 684.586 143.535 684.586C146.787 684.586 149.423 687.223 149.423 690.475C149.423 693.727 146.787 696.363 143.535 696.363Z" fill="#BCD7FF"/>
</g>
<defs>
<linearGradient id="paint0_linear_2921_57" x1="196.5" y1="0" x2="196.5" y2="852" gradientUnits="userSpaceOnUse">
<stop stop-color="#0E6CF3"/>
<stop offset="1" stop-color="#B0D5FF"/>
</linearGradient>
<clipPath id="clip0_2921_57">
<rect width="393" height="852" fill="white"/>
</clipPath>
</defs>
</svg>
