<svg width="24" height="24" viewBox="0 0 24 24" fill="none" xmlns="http://www.w3.org/2000/svg">
<path fill-rule="evenodd" clip-rule="evenodd" d="M14.3723 18.4568L14.3607 18.4683L11.5836 15.6912L12.8101 14.4646L14.3723 16.0268L17.2536 13.157L18.4801 14.3836L14.3839 18.4799L14.3723 18.4568ZM12.0001 0.428467C5.63585 0.428467 0.428711 5.63561 0.428711 11.9999C0.428711 18.3642 5.63585 23.5713 12.0001 23.5713C18.3644 23.5713 23.5716 18.3642 23.5716 11.9999C23.5716 5.63561 18.3644 0.428467 12.0001 0.428467ZM6.60785 5.38104L8.23943 7.01261L9.871 5.38104L11.0976 6.60761L9.466 8.23918L11.0976 9.87075L9.871 11.0973L8.23943 9.46575L6.60785 11.0973L5.38128 9.87075L7.01285 8.23918L5.38128 6.60761L6.60785 5.38104ZM12.0001 21.257C9.45442 21.257 7.14014 20.2156 5.40443 18.5956L18.5959 5.40418C20.2159 7.1399 21.2573 9.45418 21.2573 11.9999C21.2573 17.0913 17.0916 21.257 12.0001 21.257Z" fill="white"/>
</svg>
