<svg width="814" height="522" viewBox="0 0 814 522" fill="none" xmlns="http://www.w3.org/2000/svg">
<path d="M749.485 2.73785e-05C681.059 62.3603 499.813 -75.1461 461.827 93.2674C485.583 112.253 550.547 124.374 550.547 124.374L796.738 52.801C796.738 52.801 737.426 37.1864 749.485 2.73785e-05Z" fill="#FAF0C5"/>
<path d="M0.67273 92.4531C0.67273 92.4531 -1.82055 166.013 2.79278 425.44C20.1128 446.56 56.4595 485.866 56.4595 485.866L89.7661 151.64L0.67273 92.4531Z" fill="#ECDFAA"/>
<path d="M464.743 98.3856C463.78 76.2258 426.753 8.0118 349.886 36.9185C282.54 62.2386 71.9141 112.092 0.686523 92.4518C21.6376 114.772 69.0869 168.812 71.4556 173.626C72.4794 175.732 456.934 135.132 456.934 135.132L479.627 114.558C479.627 114.558 465.721 120.532 464.743 98.3856Z" fill="#FAF0C5"/>
<path d="M509.422 79.1438C522.448 -13.8162 648.273 55.3168 728.43 30.6914C676.83 61.371 527.81 -0.00338879 509.422 79.1438Z" fill="#CBBE86"/>
<path d="M546.58 94.5042C546.58 67.4511 567.628 47.65 638.359 51.5036C715.364 55.6912 737.71 49.9032 737.71 49.9032C737.71 49.9032 734.219 62.6379 639.927 57.064C557.643 52.2103 546.58 94.5042 546.58 94.5042Z" fill="#CBBE86"/>
<path d="M426.99 82.5709C416.967 55.7306 376.773 53.4913 306.707 78.2509C236.641 102.985 192.468 110.904 135.4 116.998C294.351 108.277 380.857 34.0106 426.99 82.5709Z" fill="#CBBE86"/>
<path d="M405.147 109.559C392.62 98.8521 379.886 85.3988 269.294 116.505C186.186 139.878 118.245 138.438 118.245 138.438C118.245 138.438 163.357 149.438 264.609 122.745C371.688 94.5055 405.147 109.559 405.147 109.559Z" fill="#CBBE86"/>
<path d="M549.608 119.147C538.359 88.6001 436.442 59.2128 402.02 133.133C437.935 175.92 538.296 141.079 549.608 119.147Z" fill="#D980C6"/>
<path d="M539.937 126.904C525.397 100.731 444.024 81.6111 414.943 140.691C431.769 164.865 465.889 152.931 478.52 151.744C517.446 148.104 539.937 126.904 539.937 126.904Z" fill="#8D1A7F"/>
<path d="M812.995 60.9863C803.067 81.4267 651.007 398.133 637.579 411.773C554.67 440.973 482.712 466.466 433.885 483.387C393.617 492.573 354.459 494.6 305.996 497.28C240.31 497.374 155.149 497.013 39.0938 494.76C41.2249 455.053 40.8264 169.412 40.8264 169.412L393.86 141.906C393.86 141.906 400.08 164.2 460.014 163.519C519.999 162.826 560.682 120.414 560.682 120.414L812.995 60.9863Z" fill="#B341A7"/>
<path d="M802.438 47.6933C802.438 47.6933 566.536 107.334 545.702 112.707C526.481 161.147 420.213 157.613 402.519 132.054C393.481 133.573 110.95 160.267 45.8115 164.613C36.3921 165.986 41.1104 182.36 50.7727 182.013C86.7852 181.2 374.573 154.733 374.573 154.733C402.745 183.96 540.411 197.679 561.731 133.573C561.731 133.573 779.61 72.4267 810.557 63.7862C816.299 62.1868 812.552 45.6672 802.438 47.6933Z" fill="#D980C6"/>
<path d="M561.736 133.576C542.746 174.029 448.302 456.188 432.943 484.428C405.13 535.482 337.268 527.082 306.029 498.042C334.964 349.936 374.569 154.736 374.569 154.736C414.932 192.096 538.342 196.283 561.736 133.576Z" fill="#A92E98"/>
<path d="M523.724 198.185C509.805 227.839 434.284 446.865 423.024 467.573C396.01 497.293 340.971 483.36 334.983 472.813C357.223 367.066 394.486 205.678 394.486 205.678C409.307 217.425 492.262 222.545 523.724 198.185Z" fill="#9B248A"/>
</svg>
