<svg width="24" height="24" viewBox="0 0 24 24" fill="none" xmlns="http://www.w3.org/2000/svg">
<path fill-rule="evenodd" clip-rule="evenodd" d="M12.8571 8.35714H19.2857V5.78571H12.8571V8.35714ZM12.8571 17.3571H19.2857V14.7857H12.8571V17.3571ZM20.5714 23.1429H2.57143C1.15714 23.1429 0 21.9857 0 20.5714V2.57143C0 1.15714 1.15714 0 2.57143 0H20.5714C21.9857 0 23.1429 1.15714 23.1429 2.57143V20.5714C23.1429 21.9857 21.9857 23.1429 20.5714 23.1429ZM3.85714 10.2857H10.2857V3.85714H3.85714V10.2857ZM5.14286 5.14286H9V9H5.14286V5.14286ZM3.85714 19.2857H10.2857V12.8571H3.85714V19.2857ZM5.14286 14.1429H9V18H5.14286V14.1429Z" fill="white"/>
</svg>
