<svg width="30" height="30" viewBox="0 0 30 30" fill="none" xmlns="http://www.w3.org/2000/svg">
<circle cx="15" cy="15" r="15" fill="#E5EFFF"/>
<path d="M24.0733 10.6996H13.2167C12.957 10.6996 12.7446 10.4872 12.7446 10.2276V9.28355C12.7446 9.02394 12.957 8.81152 13.2167 8.81152H24.0733C24.333 8.81152 24.5454 9.02394 24.5454 9.28355V10.2276C24.5454 10.4872 24.333 10.6996 24.0733 10.6996Z" fill="#786BFF"/>
<path d="M6.96745 11.5226L5.31346 9.86857C5.15202 9.70713 5.15202 9.44516 5.31346 9.28372L5.8983 8.69888C6.05974 8.53744 6.32171 8.53744 6.48315 8.69888L7.26011 9.47584L9.69153 7.04442C9.85297 6.88298 10.1149 6.88298 10.2764 7.04442L10.8612 7.62926C11.0227 7.79069 11.0227 8.05267 10.8612 8.2141L7.55229 11.5226C7.39086 11.6845 7.12888 11.6845 6.96745 11.5226Z" fill="#43BD51"/>
<path d="M24.0733 16.3639H13.2167C12.957 16.3639 12.7446 16.1515 12.7446 15.8919V14.9479C12.7446 14.6882 12.957 14.4758 13.2167 14.4758H24.0733C24.333 14.4758 24.5454 14.6882 24.5454 14.9479V15.8919C24.5454 16.1515 24.333 16.3639 24.0733 16.3639Z" fill="#786BFF"/>
<path d="M6.96745 17.1864L5.31346 15.5324C5.15202 15.371 5.15202 15.109 5.31346 14.9475L5.8983 14.3627C6.05974 14.2013 6.32171 14.2013 6.48315 14.3627L7.26011 15.1397L9.69153 12.7082C9.85297 12.5468 10.1149 12.5468 10.2764 12.7082L10.8612 13.2931C11.0227 13.4545 11.0227 13.7165 10.8612 13.8779L7.55229 17.1864C7.39086 17.3483 7.12888 17.3483 6.96745 17.1864Z" fill="#43BD51"/>
<path d="M24.0733 22.0283H13.2167C12.957 22.0283 12.7446 21.8158 12.7446 21.5562V20.6122C12.7446 20.3525 12.957 20.1401 13.2167 20.1401H24.0733C24.333 20.1401 24.5454 20.3525 24.5454 20.6122V21.5562C24.5454 21.8158 24.333 22.0283 24.0733 22.0283Z" fill="#786BFF"/>
<path d="M8.024 19.668C7.24185 19.668 6.60791 20.3019 6.60791 21.0841C6.60791 21.8662 7.24185 22.5001 8.024 22.5001C8.80615 22.5001 9.44009 21.8662 9.44009 21.0841C9.44009 20.3019 8.80615 19.668 8.024 19.668Z" fill="#FF9D00"/>
</svg>
