<svg width="96" height="86" viewBox="0 0 96 86" fill="none" xmlns="http://www.w3.org/2000/svg">
<path d="M95.6898 39.2022V72.754C95.6898 74.2295 94.4782 75.441 93.0028 75.441H87.1489L87.2808 83.2622C87.3168 85.4934 84.7857 86.8009 82.9864 85.4574L69.4313 75.429H41.4934C40.018 75.429 38.8064 74.2175 38.8064 72.742V39.1902C38.8064 37.7147 40.018 36.5151 41.4934 36.5151H93.0028C94.4782 36.5151 95.6898 37.7147 95.6898 39.1902V39.2022Z" fill="#4CBAFF"/>
<path d="M52.2167 59.8101C54.3168 59.8101 56.0193 58.1076 56.0193 56.0075C56.0193 53.9073 54.3168 52.2048 52.2167 52.2048C50.1166 52.2048 48.4141 53.9073 48.4141 56.0075C48.4141 58.1076 50.1166 59.8101 52.2167 59.8101Z" fill="white"/>
<path d="M67.5953 59.8101C69.6955 59.8101 71.398 58.1076 71.398 56.0075C71.398 53.9073 69.6955 52.2048 67.5953 52.2048C65.4952 52.2048 63.7927 53.9073 63.7927 56.0075C63.7927 58.1076 65.4952 59.8101 67.5953 59.8101Z" fill="white"/>
<path d="M83.5018 59.8101C85.602 59.8101 87.3045 58.1076 87.3045 56.0075C87.3045 53.9073 85.602 52.2048 83.5018 52.2048C81.4017 52.2048 79.6992 53.9073 79.6992 56.0075C79.6992 58.1076 81.4017 59.8101 83.5018 59.8101Z" fill="white"/>
<path d="M53.5726 4.21047V36.5268H41.481C40.0055 36.5268 38.7939 37.7263 38.7939 39.2018V56.9794H30.313L9.33262 72.2258V56.9794H4.21047C1.88332 56.9794 0 55.096 0 52.7689V4.21047C0 1.88332 1.88332 0 4.21047 0H49.3621C51.6893 0 53.5726 1.88332 53.5726 4.21047Z" fill="#FF5555"/>
<path d="M26.5 44C25.1906 44 24.1209 43.5734 23.2725 42.7387C22.4242 41.904 22 40.8282 22 39.5112C22 38.1942 22.4242 37.1184 23.2725 36.2837C24.1209 35.449 25.1906 35.0224 26.5 35.0224C27.8094 35.0224 28.8791 35.449 29.7275 36.2837C30.5758 37.1184 31 38.1942 31 39.5112C31 40.8282 30.5758 41.904 29.7275 42.7387C28.8791 43.5734 27.8094 44 26.5 44ZM28.3074 32.5739H24.6189C24.5635 32.1473 24.4529 31.4239 24.3053 30.4223C24.1578 29.4206 23.9918 28.252 23.8258 26.9536C23.6598 25.6552 23.4939 24.3011 23.3094 22.91C23.125 21.5188 22.959 20.2204 22.8115 18.9962C22.6639 17.772 22.5348 16.7518 22.4426 15.9171C22.3504 15.0824 22.3135 14.5816 22.3135 14.4332C22.3135 13.0606 22.7377 11.9847 23.5676 11.1871C24.3975 10.3895 25.375 10 26.5 10C27.625 10 28.6393 10.3895 29.4508 11.1871C30.2623 11.9847 30.6865 13.0606 30.6865 14.4332C30.6865 14.5816 30.6496 15.0824 30.5574 15.9171C30.4652 16.7518 30.3361 17.7905 30.1885 18.9962C30.041 20.2204 29.875 21.5188 29.6906 22.91C29.5061 24.3011 29.3217 25.6367 29.1373 26.9536C28.9529 28.2706 28.8053 29.4206 28.6578 30.4223C28.5102 31.4239 28.418 32.1473 28.3258 32.5739H28.3074Z" fill="white"/>
</svg>
