<svg width="8" height="15" viewBox="0 0 8 15" fill="none" xmlns="http://www.w3.org/2000/svg">
<path d="M5.76172 1.81641C5.76172 2.33724 5.58268 2.77018 5.22461 3.11523C4.87305 3.45378 4.45312 3.62305 3.96484 3.62305C3.47005 3.62305 3.04362 3.44727 2.68555 3.0957C2.33398 2.73763 2.1582 2.3112 2.1582 1.81641C2.1582 1.32812 2.33398 0.908203 2.68555 0.556641C3.04362 0.198568 3.47005 0.0195312 3.96484 0.0195312C4.45312 0.0195312 4.87305 0.198568 5.22461 0.556641C5.58268 0.908203 5.76172 1.32812 5.76172 1.81641ZM7.08008 12.6367V15H0.742188V12.6367H2.30469V7.13867H0.742188V4.73633H5.55664V12.6367H7.08008Z" fill="#0E6CF3"/>
</svg>
