<svg width="18" height="18" viewBox="0 0 18 18" fill="none" xmlns="http://www.w3.org/2000/svg">
<path fill-rule="evenodd" clip-rule="evenodd" d="M10.845 14.022L10.836 14.031L8.676 11.871L9.63 10.917L10.845 12.132L13.086 9.9L14.04 10.854L10.854 14.04L10.845 14.022ZM9 0C4.05 0 0 4.05 0 9C0 13.95 4.05 18 9 18C13.95 18 18 13.95 18 9C18 4.05 13.95 0 9 0ZM4.806 3.852L6.075 5.121L7.344 3.852L8.298 4.806L7.029 6.075L8.298 7.344L7.344 8.298L6.075 7.029L4.806 8.298L3.852 7.344L5.121 6.075L3.852 4.806L4.806 3.852ZM9 16.2C7.02 16.2 5.22 15.39 3.87 14.13L14.13 3.87C15.39 5.22 16.2 7.02 16.2 9C16.2 12.96 12.96 16.2 9 16.2Z" fill="#A0C0CB"/>
</svg>
