<svg width="730" height="373" viewBox="0 0 730 373" fill="none" xmlns="http://www.w3.org/2000/svg">
<path d="M695.467 71.2132L359.113 -3.77345e-05C359.113 -3.77345e-05 60.114 96.5466 10.958 119C98.3007 129.573 401.822 186.12 401.822 186.12L695.467 71.2132Z" fill="#66CBB0"/>
<path d="M695.467 71.2134C736.137 86.6267 743.818 203.253 699.509 238.653C655.207 274.027 392.914 366.587 392.914 366.587C392.914 366.587 461.229 283.787 396.219 183.64C528.318 131.36 621.113 96.92 695.467 71.2134Z" fill="#3BB39A"/>
<path d="M678.876 106.28C708.402 117.466 713.98 202.133 681.812 227.84C649.648 253.52 459.224 320.719 459.224 320.719C459.224 320.719 495.832 263.626 461.622 187.893C557.526 149.946 624.896 124.933 678.876 106.28Z" fill="#66CBB0"/>
<path d="M548.8 232.493C548.8 249.68 540.121 263.627 529.416 263.627C518.709 263.627 510.03 249.68 510.03 232.493C510.03 215.293 518.709 201.36 529.416 201.36C540.121 201.36 548.8 215.293 548.8 232.493Z" fill="#3BB39A"/>
<path d="M681.338 175.386C681.338 192.586 672.659 206.52 661.953 206.52C651.247 206.52 642.567 192.586 642.567 175.386C642.567 158.186 651.247 144.253 661.953 144.253C672.659 144.253 681.338 158.186 681.338 175.386Z" fill="#3BB39A"/>
<path d="M71.1073 240.68C71.1073 240.68 8.50467 283.466 4.49707 286.72C35.9887 297.226 391.991 354.653 391.991 354.653L419.071 322.64L71.1073 240.68Z" fill="#3BB39A"/>
<path d="M33.8447 129.8C45.8341 148.853 74.9927 217.48 37.5167 276.253C172.887 298.746 406.473 332.653 406.473 332.653C406.473 332.653 466.163 265.08 401.822 186.12C315.835 172.853 33.8447 129.8 33.8447 129.8Z" fill="#FAF0C5"/>
<path d="M392.914 366.586C395.09 366.413 397.077 365.667 398.918 364.227C442.018 330.493 446.706 270.4 437.574 229.16C430.473 197.04 415.846 175.546 398.435 171.92C366.018 165.013 30.3821 120.333 16.1794 118.453C9.91677 117.586 4.18144 122.16 3.44344 128.693C2.69558 135.293 7.20344 141.213 13.4101 142.093C16.9221 142.533 362.495 188.6 394.079 195.28C399.558 196.466 409.807 209.426 415.321 234.413C422.617 267.453 419.733 314.653 388.641 342.146C255.326 321.946 15.4408 284.84 13.0234 284.467C6.75412 283.48 1.00077 288.013 0.111705 294.52C-0.763761 301.066 3.60238 307.147 9.85278 308.133C12.3554 308.507 258.041 346.467 390.437 366.533C391.289 366.573 392.099 366.653 392.914 366.586Z" fill="#96DBC0"/>
<path d="M365.598 215.24C365.598 215.24 175.731 179.333 83.9941 177.16C168.055 194.587 365.598 215.24 365.598 215.24Z" fill="#BCAD75"/>
<path d="M387.645 263.627C387.645 263.627 305.448 238.04 111.361 228.467C195.403 245.853 387.645 263.627 387.645 263.627Z" fill="#BCAD75"/>
<path d="M343.914 296.813C343.914 296.813 154.085 260.907 62.3154 258.787C146.335 276.173 343.914 296.813 343.914 296.813Z" fill="#BCAD75"/>
<path d="M258.631 249.987C258.631 249.987 225.609 298.653 222.937 357.667C233.551 340.84 244.449 329.387 261.578 315.84C261.578 315.84 284.65 351.493 293.373 372.627C299.127 319.427 322.673 268.32 328.901 258.08C294.642 254.213 258.631 249.987 258.631 249.987Z" fill="#F03C1F"/>
</svg>
