<svg width="821" height="704" viewBox="0 0 821 704" fill="none" xmlns="http://www.w3.org/2000/svg">
<path d="M20.6294 481.2L310.669 304.067C310.669 304.067 702.469 320.334 750.803 359C698.216 396.414 495.509 544.813 495.509 544.813L20.6294 481.2Z" fill="#5FC2EA"/>
<path d="M495.51 544.813C495.51 544.813 716.683 368.974 750.803 359C790.616 400.16 782.776 493.053 745.11 521.16C711.203 546.48 518.19 697.853 488.483 703.64C519.763 636.28 525.363 571.013 495.51 544.813Z" fill="#4197D4"/>
<path d="M726.59 372.014C715.776 378.854 702.523 387.934 687.856 398.36C719.856 435.214 721.07 513.414 699.816 555.76C720.803 539.707 737.243 527.04 745.11 521.16C746.176 520.374 747.203 519.534 748.203 518.654C763.43 472.974 758.456 403.387 726.59 372.014Z" fill="#237AB9"/>
<path d="M614.136 620.534C625.696 571.414 616.696 504.067 580.576 479.534C580.576 479.534 598.31 465.427 625.056 444.534C596.15 466.307 567.27 488.587 544.136 506.614C577.736 536.334 583.67 606.707 568.87 653.574C583.336 643.227 598.71 631.974 614.136 620.534Z" fill="#237AB9"/>
<path d="M67.5443 572.573C33.4176 588.48 -7.44894 625.907 27.7297 633.413C62.9217 640.88 486.63 692.333 486.63 692.333L514.336 653.04L67.5443 572.573Z" fill="#5FC2EA"/>
<path d="M45.1523 488.387C45.1523 488.387 85.6696 550.12 46.2203 596.907C158.18 616.56 502.616 669.88 502.616 669.88C502.616 669.88 545.256 603.454 497.283 549.187C419.456 534.214 45.1523 488.387 45.1523 488.387Z" fill="#FAF0C5"/>
<path d="M486.629 703.547C489.696 703.547 492.683 702.6 495.029 700.8C529.349 674.6 537.029 626.747 533.176 593.707C529.776 564.574 518.349 543.187 501.789 535.027C500.669 534.48 499.456 534.094 498.189 533.84C477.549 529.96 76.0814 478.467 35.1654 473.52C28.152 472.654 21.7094 476.947 20.7481 483.107C19.7774 489.24 24.6707 494.907 31.6707 495.76C70.2694 500.427 453.403 549.574 490.643 555.427C497.349 560 505.149 574.014 507.723 595.987C511.003 624.254 504.243 660.454 482.189 680.547C353.056 666.547 33.8134 611.707 30.5548 611.16C23.6321 609.96 16.8974 613.92 15.5307 620C14.1721 626.08 18.6908 631.987 25.6294 633.187C28.9468 633.76 359.203 690.48 485.136 703.48C485.643 703.534 486.136 703.547 486.629 703.547Z" fill="#8ACFEC"/>
<path d="M459.656 581.974C459.656 581.974 248.731 541.654 146.051 536.374C239.383 555.694 459.656 581.974 459.656 581.974Z" fill="#D7C291"/>
<path d="M392.843 599.427C392.843 599.427 181.901 559.107 79.2241 553.84C172.556 573.16 392.843 599.427 392.843 599.427Z" fill="#D7C291"/>
<path d="M432.656 639.347C432.656 639.347 221.721 599.027 119.025 593.761C212.372 613.081 432.656 639.347 432.656 639.347Z" fill="#D7C291"/>
<path d="M618.03 495.414C669.843 455.667 758.15 396.654 773.136 381.334C778.563 372.654 736.19 367.934 697.443 357.44C666.75 349.12 562.47 470.947 562.47 470.947L618.03 495.414Z" fill="#E62B20"/>
<path d="M739.043 277.227C729.363 291.627 710.563 321.853 737.67 376.387C692.51 416.733 600.203 480.6 600.203 480.6C600.203 480.6 572.656 401.733 606.443 356.173C656.336 320.427 739.043 277.227 739.043 277.227Z" fill="#FAF0C5"/>
<path d="M625.296 368.307L19.2734 287.027L199.487 193.747C199.487 193.747 760.816 233.227 773.856 253.147C779.749 262.147 625.296 368.307 625.296 368.307Z" fill="#E62B20"/>
<path d="M19.2735 287.027C-7.28254 295.867 -5.55187 421.52 19.2735 427.094C91.2201 443.267 607.629 514.974 607.629 514.974C607.629 514.974 574.749 424.894 625.549 365.614C417.429 332.64 19.2735 287.027 19.2735 287.027Z" fill="#F0401E"/>
<path d="M108.595 365.774C108.595 386.96 94.4017 404.134 76.8937 404.134C59.3857 404.134 45.1924 386.96 45.1924 365.774C45.1924 344.6 59.3857 327.427 76.8937 327.427C94.4017 327.427 108.595 344.6 108.595 365.774Z" fill="#E62B20"/>
<path d="M543.163 429.16C543.163 450.333 528.976 467.507 511.469 467.507C493.949 467.507 479.763 450.333 479.763 429.16C479.763 407.973 493.949 390.8 511.469 390.8C528.976 390.8 543.163 407.973 543.163 429.16Z" fill="#E62B20"/>
<path d="M619.923 448.494C619.923 448.494 688.43 393.48 725.323 374.134C695.363 399.227 619.923 448.494 619.923 448.494Z" fill="#D7C291"/>
<path d="M616.069 399.534C616.069 399.534 684.603 344.52 721.483 325.187C691.523 350.267 616.069 399.534 616.069 399.534Z" fill="#D7C291"/>
<path d="M608.216 432.147C608.216 432.147 666.642 385.24 698.082 368.734C672.536 390.147 608.216 432.147 608.216 432.147Z" fill="#D7C291"/>
<path d="M786.31 66.8134L431.43 0.000140089C431.43 0.000140089 105.119 88.7601 52.6377 108.173C144.936 118.467 473.176 165.773 473.176 165.773L786.31 66.8134Z" fill="#FAB40A"/>
<path d="M786.309 66.8138C829.069 81.0138 835.096 184.681 787.469 215.627C739.843 246.587 460.336 326 460.336 326C460.336 326 534.269 253.12 467.283 163.454C608.189 118.507 707.083 88.8805 786.309 66.8138Z" fill="#F89A0F"/>
<path d="M761.816 104.253C794.496 130.733 776.75 190.853 762.55 199.307C732.136 219.08 555.123 274.867 555.123 274.867C555.123 274.867 595.323 233.227 558.03 165.987C648.03 137.28 711.203 118.347 761.816 104.253Z" fill="#FCD31D"/>
<path d="M121.875 210.72C121.875 210.72 87.791 228.533 72.0724 234.693C56.351 240.88 29.3071 258.307 55.0191 264.88C88.6231 273.453 459.59 315.387 459.59 315.387L488.883 287.2L121.875 210.72Z" fill="#F6951A"/>
<path d="M84.5322 111.747C96.8656 128.787 126.463 190.08 85.7162 241.934C228.638 263.347 475.363 295.92 475.363 295.92C475.363 295.92 539.83 236.56 473.176 165.774C382.39 153.027 84.5322 111.747 84.5322 111.747Z" fill="#FAF0C5"/>
<path d="M460.336 326C462.63 325.867 464.83 325.173 466.696 323.987C513.03 294.48 519.123 241.133 510.27 204.387C503.336 175.707 488.216 156.507 469.83 153.067C435.656 146.667 81.0962 103.293 66.0176 101.453C59.3896 100.64 53.2895 104.694 52.3655 110.494C51.4415 116.307 56.0642 121.667 62.6749 122.467C66.3695 122.92 431.456 167.574 464.763 173.827C470.59 174.92 481.203 186.493 486.603 208.787C493.683 238.213 489.75 280.133 456.323 304.2C315.416 284.827 62.1576 249.32 59.5789 248.947C52.9616 248.027 46.7722 251.96 45.7282 257.747C44.6682 263.533 49.1575 268.987 55.7522 269.907C58.3682 270.267 317.883 306.667 457.723 325.88C458.59 326 459.47 326.04 460.336 326Z" fill="#FDDA28"/>
<path d="M434.256 191.253C434.256 191.253 233.892 157.32 136.718 154.36C225.416 170.787 434.256 191.253 434.256 191.253Z" fill="#D7C291"/>
<path d="M481.003 242.454C481.003 242.454 394.47 218.827 189.027 208.214C277.723 224.627 481.003 242.454 481.003 242.454Z" fill="#D7C291"/>
<path d="M409.776 263.48C409.776 263.48 209.403 229.56 112.229 226.6C200.932 243.013 409.776 263.48 409.776 263.48Z" fill="#D7C291"/>
<path d="M307.963 226.147C307.963 226.147 267.611 282.774 267.643 350.174C283.923 331.587 300.509 300.027 326.883 275.774C326.883 275.774 346.096 341.84 362.123 366.654C367.483 305.987 393.576 247.161 403.123 235.827C351.229 228.467 307.963 226.147 307.963 226.147Z" fill="#5F53AE"/>
<path d="M609.976 515C603.79 515 597.896 511.827 593.616 505.734C588.856 498.947 585.67 487.894 584.15 472.88C582.843 460.054 582.843 444.8 584.136 429.907C586.056 408.054 592.216 369.267 612.043 355.04C618.31 350.547 756.71 256.72 762.603 252.72C768.23 248.907 775.883 250.387 779.71 256.014C783.523 261.64 782.043 269.294 776.416 273.107C726.63 306.854 631.203 371.6 626.403 375.04C620.216 379.48 612.51 397.147 609.216 426.587C607.563 441.44 607.323 456.734 608.563 469.627C609.43 478.574 610.83 484.374 612.03 487.814C645.016 464.067 758.43 374.24 759.63 373.294C764.963 369.067 772.71 369.96 776.923 375.294C781.15 380.627 780.256 388.36 774.923 392.587C769.763 396.68 648.323 492.867 621.75 511.094C617.936 513.72 613.896 515 609.976 515Z" fill="#F25924"/>
</svg>
