<svg width="491" height="442" viewBox="0 0 491 442" fill="none" xmlns="http://www.w3.org/2000/svg">
<path d="M29.8057 374.94L241.858 31.3276C256.552 7.51481 291.648 8.9088 304.407 33.804L486.759 389.586C499.239 413.923 481.019 442.738 453.68 441.885L59.2765 429.7C31.6589 428.847 15.2917 398.442 29.8057 374.924V374.94Z" fill="#1B2864"/>
<path d="M6.28816 361.46L218.34 17.8469C233.035 -5.9659 268.131 -4.57191 280.89 20.3233L463.241 376.105C475.722 400.442 457.501 429.241 430.163 428.405L35.759 416.219C8.14136 415.366 -8.22584 384.961 6.28816 361.443V361.46Z" fill="#FCB830"/>
<path d="M243.055 303.896C256.027 303.896 266.753 293.842 267.606 280.903L276.823 140.88C277.757 126.677 266.491 114.656 252.272 114.656H233.133C218.865 114.656 207.582 126.759 208.582 141.011L218.504 281.034C219.423 293.924 230.132 303.896 243.055 303.896Z" fill="#1B2864"/>
<path d="M283.793 352.604C283.793 373.382 266.95 390.242 246.155 390.242C225.359 390.242 208.517 373.382 208.517 352.604C208.517 331.825 225.359 314.966 246.155 314.966C266.95 314.966 283.793 331.825 283.793 352.604Z" fill="#1B2864"/>
<path d="M441.446 359.18L277.495 39.2652C272.231 28.9988 262.538 22.3404 251.271 21.1268C250.435 21.012 249.599 20.9464 248.779 20.9136C236.479 20.4052 225.179 26.3912 218.668 36.9036L28.0182 345.88C21.6058 356.261 21.245 368.856 27.0014 379.614C27.067 379.729 27.149 379.877 27.231 380.008C33.053 390.537 43.6802 397.015 55.7178 397.392L410.319 408.331C410.712 408.364 411.057 408.364 411.417 408.364C423.078 408.364 433.656 402.542 439.921 392.636C446.382 382.402 446.973 369.889 441.446 359.164V359.18ZM437.444 391.045C431.524 400.377 421.389 405.756 410.45 405.379L55.8162 394.44C44.697 394.079 34.8898 388.011 29.6254 378.237C29.363 377.696 29.0842 377.204 28.8546 376.662C24.4266 367.2 24.9842 356.408 30.5438 347.438L221.194 38.4944C226.901 29.2448 236.626 23.8656 247.385 23.8656H248.664C259.931 24.3084 269.705 30.5897 274.855 40.6101L438.805 360.525C443.824 370.332 443.315 381.746 437.444 391.062V391.045Z" fill="white"/>
<path d="M91.0253 116.441L44.4241 194.244L47.2379 195.93L93.8392 118.126L91.0253 116.441Z" fill="#1B2864"/>
<path d="M64.6921 116.446L38.3621 159.802L41.1656 161.505L67.4956 118.148L64.6921 116.446Z" fill="#1B2864"/>
</svg>
