<svg width="1982" height="1576" viewBox="0 0 1982 1576" fill="none" xmlns="http://www.w3.org/2000/svg">
<path d="M1981.26 2.27979L1789.91 781.75L1714.81 667.84L1103.17 1261.58L32.5701 1264.54C33.3201 1264.54 67.3001 1234.91 123.78 1185.18C194.91 1122.56 301.74 1028.07 422.85 920.82C802.01 584.97 1320.87 123.94 1320.87 123.94L1246.56 2.27979H1981.27H1981.26Z" fill="#F7F5DA"/>
<path d="M1767.55 1268.88H3.31C1.48 1268.88 0 1267.4 0 1265.57C0 1263.74 1.48 1262.26 3.31 1262.26H1767.55C1769.38 1262.26 1770.86 1263.74 1770.86 1265.57C1770.86 1267.4 1769.38 1268.88 1767.55 1268.88Z" fill="#DDD9A6"/>
<path d="M1685.54 1265.57C1640.09 1347.4 1624.93 1348.77 1250.45 1348.77H207.09C114.73 1348.77 83.93 1280.68 78.24 1265.57H1685.55H1685.54Z" fill="url(#paint0_linear_4403_517)"/>
<path d="M108.67 1167.15C111.48 1167.38 303.68 986.68 303.68 986.68L262.42 936.76L423.76 914.07L389.95 1075.77L354.19 1033.45L153.77 1214.2L108.66 1167.14L108.67 1167.15Z" fill="#F7F5DA"/>
<path d="M422.84 920.81L389.97 1078.05L354.21 1035.73L153.79 1216.47L123.78 1185.16C194.91 1122.54 301.74 1028.05 422.85 920.8L422.84 920.81Z" fill="url(#paint1_linear_4403_517)"/>
<path d="M1177.2 939.91C1181.05 939.91 1422.33 672.38 1422.33 672.38L1360.57 609.08L1577.6 560.07L1549.76 783.95L1496.34 730.37L1243.88 998.89L1177.2 939.9V939.91Z" fill="#FFDCA4"/>
<path d="M444.46 1090.26C444.46 1090.26 345.53 1160.06 335.29 1243.15C325.05 1326.24 533.14 1360.45 682.95 1355.89C832.76 1351.33 1237.52 1310.91 1274 1212.11C1310.48 1113.31 869.19 1104.23 869.19 1104.23C869.19 1104.23 436.05 1087.26 440.26 1088.76L444.47 1090.26H444.46Z" fill="#02734A"/>
<path style="mix-blend-mode:multiply" d="M444.46 1090.26C444.46 1090.26 345.53 1160.06 335.29 1243.15C325.05 1326.24 533.14 1360.45 682.95 1355.89C832.76 1351.33 1237.52 1310.91 1274 1212.11C1310.48 1113.31 869.19 1104.23 869.19 1104.23C869.19 1104.23 436.05 1087.26 440.26 1088.76L444.47 1090.26H444.46Z" fill="url(#paint2_linear_4403_517)"/>
<path d="M621.6 1348.77C614.43 1352.67 459.25 1446.9 411.04 1492.75C362.83 1538.6 429.16 1604.93 515.98 1561.03C569.32 1534.06 650.27 1491.52 704.77 1462.72C753.2 1437.13 754.61 1367.04 706.27 1341.29C685.63 1330.3 658.06 1328.96 621.6 1348.78V1348.77Z" fill="#F2B33D"/>
<path d="M505.8 1510.02C504.85 1510.02 503.97 1509.4 503.68 1508.43C498.45 1490.63 483.52 1475.93 465.63 1470.98C464.46 1470.66 463.77 1469.44 464.09 1468.27C464.41 1467.1 465.63 1466.41 466.8 1466.73C486.12 1472.07 502.26 1487.95 507.9 1507.19C508.24 1508.36 507.57 1509.59 506.4 1509.93C506.19 1509.99 505.98 1510.02 505.78 1510.02H505.8Z" fill="#C47B06"/>
<path d="M525.59 1496.42C524.64 1496.42 523.76 1495.8 523.47 1494.83C518.24 1477.03 503.31 1462.33 485.42 1457.38C484.25 1457.06 483.56 1455.84 483.88 1454.67C484.21 1453.5 485.41 1452.81 486.59 1453.13C505.91 1458.47 522.05 1474.35 527.69 1493.59C528.03 1494.76 527.36 1495.99 526.19 1496.33C525.98 1496.39 525.77 1496.42 525.57 1496.42H525.59Z" fill="#C47B06"/>
<path d="M545.38 1482.81C544.43 1482.81 543.55 1482.19 543.26 1481.22C538.03 1463.42 523.1 1448.72 505.21 1443.77C504.04 1443.45 503.35 1442.23 503.67 1441.06C504 1439.89 505.21 1439.2 506.38 1439.52C525.7 1444.86 541.84 1460.74 547.48 1479.98C547.82 1481.15 547.15 1482.38 545.98 1482.72C545.77 1482.78 545.56 1482.81 545.36 1482.81H545.38Z" fill="#C47B06"/>
<path d="M565.16 1469.2C564.21 1469.2 563.33 1468.58 563.04 1467.61C557.81 1449.81 542.88 1435.11 524.99 1430.16C523.82 1429.84 523.13 1428.62 523.45 1427.45C523.77 1426.28 524.98 1425.59 526.16 1425.91C545.48 1431.25 561.62 1447.13 567.26 1466.37C567.6 1467.54 566.93 1468.77 565.76 1469.11C565.55 1469.17 565.34 1469.2 565.14 1469.2H565.16Z" fill="#C47B06"/>
<path d="M584.95 1455.6C584 1455.6 583.12 1454.98 582.83 1454.01C577.6 1436.21 562.67 1421.51 544.78 1416.56C543.61 1416.24 542.92 1415.02 543.24 1413.85C543.56 1412.68 544.78 1411.99 545.95 1412.31C565.27 1417.65 581.41 1433.53 587.05 1452.77C587.39 1453.94 586.72 1455.17 585.55 1455.51C585.34 1455.57 585.13 1455.6 584.93 1455.6H584.95Z" fill="#C47B06"/>
<path d="M561.16 1308.17L679.49 1447.31C679.49 1447.31 1121.06 1339.92 1260.55 1273.54C1400.04 1207.16 1401.09 1106.12 1324.04 1083.06C1173 1037.84 561.16 1308.17 561.16 1308.17Z" fill="#02734A"/>
<path style="mix-blend-mode:multiply" d="M561.16 1308.17L679.49 1447.31C679.49 1447.31 1121.06 1339.92 1260.55 1273.54C1400.04 1207.16 1401.09 1106.12 1324.04 1083.06C1173 1037.84 561.16 1308.17 561.16 1308.17Z" fill="url(#paint3_linear_4403_517)"/>
<path d="M1192.75 1256.63L1313.67 1262.63C1313.67 1262.63 1365.62 1259.25 1356.89 1310.33C1348.16 1361.4 1325.46 1402.44 1325.46 1402.44L1186.64 1399.38C1186.64 1399.38 1211.09 1282.39 1192.75 1256.64V1256.63Z" fill="#F07384"/>
<path d="M1266.39 1260.28C1266.39 1260.28 1375.3 1338.15 1287.32 1402.43C1287.32 1402.43 1278.71 1425.49 1347 1429.18C1415.29 1432.87 1530.33 1450.71 1577.09 1463.02C1623.85 1475.32 1648.45 1477.78 1667.53 1440.26C1667.53 1440.26 1509.42 1285.84 1479.28 1270.46C1459.99 1260.62 1441.71 1254.05 1431.04 1250.6C1427 1249.29 1426.04 1244.01 1429.35 1241.34L1449.75 1224.94L1380.23 1165.26L1266.4 1260.28H1266.39Z" fill="#F2B33D"/>
<path d="M1352.54 1415.35C1352.43 1415.35 1352.32 1415.35 1352.22 1415.33C1351.6 1415.24 1351.05 1414.89 1350.71 1414.37C1350.4 1413.9 1319.98 1367.21 1361.08 1336.27C1377.83 1323.66 1385.68 1328.58 1388.87 1332.63C1398.93 1345.42 1388.47 1386.48 1353.95 1414.85C1353.55 1415.18 1353.06 1415.35 1352.55 1415.35H1352.54ZM1379.5 1332.61C1374.26 1332.61 1367.84 1336.69 1363.73 1339.79C1330.26 1364.99 1347.8 1400.72 1353.08 1409.81C1384.52 1382.77 1393.08 1345.13 1385.39 1335.36C1383.84 1333.39 1381.78 1332.62 1379.49 1332.62L1379.5 1332.61Z" fill="#C47B06"/>
<path d="M1306.64 1494.67C1304.18 1494.67 1301.93 1494.1 1299.97 1492.93C1296.1 1490.64 1291.68 1484.98 1292.59 1470.99C1295.95 1419.34 1351.67 1411.03 1352.24 1410.95C1352.84 1410.86 1353.44 1411.03 1353.91 1411.4C1354.38 1411.77 1354.68 1412.32 1354.74 1412.92C1358.04 1446.65 1339.6 1477.72 1320.57 1489.83C1315.54 1493.03 1310.79 1494.66 1306.65 1494.66L1306.64 1494.67ZM1350.54 1415.73C1340.23 1417.77 1299.78 1428.48 1297 1471.28C1296.39 1480.58 1298.2 1486.75 1302.22 1489.13C1305.92 1491.32 1311.74 1490.22 1318.2 1486.11C1335.68 1474.98 1352.62 1446.77 1350.55 1415.72L1350.54 1415.73Z" fill="#C47B06"/>
<path d="M1387.4 1434.18C1386.72 1434.18 1386.05 1433.87 1385.62 1433.28C1385.46 1433.06 1369.63 1410.49 1405.63 1382.15C1406.59 1381.4 1407.98 1381.56 1408.73 1382.52C1409.48 1383.48 1409.32 1384.86 1408.36 1385.62C1375.87 1411.2 1388.63 1429.91 1389.19 1430.69C1389.9 1431.68 1389.67 1433.05 1388.69 1433.77C1388.3 1434.05 1387.84 1434.19 1387.4 1434.19V1434.18Z" fill="#C47B06"/>
<path d="M1413.65 1437.09C1412.97 1437.09 1412.3 1436.78 1411.87 1436.19C1411.71 1435.97 1395.88 1413.4 1431.88 1385.06C1432.84 1384.31 1434.23 1384.47 1434.98 1385.43C1435.73 1386.39 1435.57 1387.77 1434.61 1388.53C1402.12 1414.11 1414.88 1432.82 1415.44 1433.6C1416.15 1434.59 1415.92 1435.96 1414.94 1436.68C1414.55 1436.96 1414.09 1437.1 1413.65 1437.1V1437.09Z" fill="#C47B06"/>
<path d="M1439.89 1440.01C1439.21 1440.01 1438.54 1439.7 1438.11 1439.11C1437.95 1438.89 1422.12 1416.32 1458.12 1387.98C1459.08 1387.23 1460.47 1387.39 1461.22 1388.35C1461.97 1389.31 1461.81 1390.69 1460.85 1391.45C1428.36 1417.03 1441.12 1435.74 1441.68 1436.52C1442.39 1437.51 1442.16 1438.88 1441.18 1439.6C1440.79 1439.88 1440.33 1440.02 1439.89 1440.02V1440.01Z" fill="#C47B06"/>
<path d="M1466.13 1442.92C1465.45 1442.92 1464.78 1442.61 1464.35 1442.02C1464.19 1441.8 1448.36 1419.23 1484.36 1390.89C1485.32 1390.14 1486.7 1390.3 1487.46 1391.26C1488.21 1392.22 1488.05 1393.6 1487.09 1394.36C1454.6 1419.94 1467.36 1438.65 1467.92 1439.43C1468.63 1440.42 1468.4 1441.79 1467.42 1442.51C1467.03 1442.79 1466.57 1442.93 1466.13 1442.93V1442.92Z" fill="#C47B06"/>
<path d="M1492.38 1445.84C1491.7 1445.84 1491.03 1445.53 1490.6 1444.94C1490.44 1444.72 1474.61 1422.15 1510.61 1393.81C1511.57 1393.06 1512.96 1393.22 1513.71 1394.18C1514.46 1395.14 1514.3 1396.52 1513.34 1397.28C1480.85 1422.86 1493.61 1441.57 1494.17 1442.35C1494.88 1443.34 1494.65 1444.71 1493.67 1445.43C1493.28 1445.71 1492.82 1445.85 1492.38 1445.85V1445.84Z" fill="#C47B06"/>
<path d="M484.14 1160.69C484.14 1160.69 332.16 1144.17 332.16 1273.02C332.16 1401.87 432.93 1447.3 643.55 1447.3H1177.47C1177.47 1447.3 1222.55 1374.62 1216.77 1239.16L669.98 1180.52L484.14 1160.7V1160.69Z" fill="#02734A"/>
<path d="M1152.11 1369.62C1151.95 1369.62 1151.79 1369.61 1151.62 1369.58C1151.18 1369.52 1102.99 1363.24 766 1367.04C588.58 1369.04 480.95 1341.31 421.87 1317.7C357.39 1291.92 335.37 1265.83 334.47 1264.73C333.31 1263.32 333.51 1261.23 334.92 1260.07C336.33 1258.91 338.41 1259.11 339.58 1260.51C339.8 1260.77 361.84 1286.7 425.1 1311.85C483.57 1335.1 590.18 1362.41 765.93 1360.41C1104.67 1356.59 1150.79 1362.76 1152.59 1363.02C1154.4 1363.29 1155.65 1364.97 1155.38 1366.78C1155.14 1368.43 1153.73 1369.61 1152.11 1369.61V1369.62Z" fill="#025937"/>
<path d="M1140.82 1431.98C1140.17 1431.98 1139.52 1431.79 1138.95 1431.4C1137.44 1430.36 1137.06 1428.3 1138.1 1426.8C1192.55 1347.72 1164.1 1270.84 1163.81 1270.07C1163.16 1268.36 1164.01 1266.45 1165.71 1265.8C1167.41 1265.15 1169.33 1266 1169.98 1267.7C1170.29 1268.5 1200.04 1348.5 1143.54 1430.55C1142.9 1431.48 1141.86 1431.98 1140.81 1431.98H1140.82Z" fill="#025937"/>
<path d="M1320.86 121.66L1252.73 443.43L1195.14 385.84C1195.14 385.84 1003.5 620.26 1003.5 622.29C1003.81 621.85 867.55 482.63 828.65 442.92C822.16 436.3 818.39 432.44 818.39 432.44L871.06 384.05L892.64 364.59L1034.29 235.5L981.21 181L968.35 167.81L1306.82 110.22L1320.87 121.65L1320.86 121.66Z" fill="#EE8C28"/>
<path d="M1320.86 121.66L1252.73 443.43L1195.14 385.84C1195.14 385.84 1003.5 620.26 1003.5 622.29C1003.81 621.85 867.55 482.63 828.65 442.92L828.58 442.83L1046.1 247.53L1034.27 235.51L981.19 181.01L1320.85 121.66H1320.86Z" fill="#F2B33D"/>
<path d="M1098.77 504C1098.77 504 1134.2 410.18 1139.54 406.74C1144.88 403.31 1144.88 412.84 1144.88 412.84C1144.88 412.84 1148.69 392.63 1154.79 391.1C1160.89 389.57 1160.51 400.25 1160.51 400.25C1160.51 400.25 1159.75 380.42 1168.14 379.66C1176.53 378.9 1177.48 391.48 1177.48 391.48C1177.48 391.48 1180.73 373.56 1189.12 373.18C1197.51 372.8 1167.77 533.72 1167.77 533.72L1098.78 503.99L1098.77 504Z" fill="#F07384"/>
<path d="M1138.8 450C1138.74 450 1138.68 450 1138.61 449.98C1138.01 449.88 1137.6 449.31 1137.71 448.71L1144.05 411.4C1144.15 410.8 1144.72 410.39 1145.32 410.5C1145.92 410.6 1146.33 411.17 1146.22 411.77L1139.88 449.08C1139.79 449.62 1139.32 450 1138.79 450H1138.8Z" fill="#231F20"/>
<path d="M1155.14 439.74C1155.05 439.74 1154.96 439.73 1154.87 439.71C1154.28 439.56 1153.92 438.96 1154.07 438.37C1154.27 437.34 1157.99 409.47 1159.4 398.83C1159.48 398.23 1160.03 397.8 1160.64 397.88C1161.24 397.96 1161.67 398.51 1161.59 399.12C1160.73 405.63 1156.41 438.13 1156.21 438.91C1156.09 439.41 1155.63 439.74 1155.14 439.74Z" fill="#231F20"/>
<path d="M1172.05 435.37C1172.05 435.37 1171.96 435.37 1171.91 435.37C1171.31 435.29 1170.88 434.74 1170.95 434.14L1176.38 391.36C1176.46 390.76 1177.02 390.33 1177.61 390.4C1178.21 390.48 1178.64 391.03 1178.57 391.63L1173.14 434.41C1173.07 434.97 1172.59 435.37 1172.05 435.37Z" fill="#231F20"/>
<path d="M985.74 337.51C985.74 337.51 993.77 348.94 973.89 349.78C973.89 349.78 977.27 358.25 959.06 357.41C959.06 357.41 967.95 368.82 945.95 368.82C923.95 368.82 892.62 364.61 892.62 364.61L871.04 384.07L842.98 385.92L819.42 387.46L775.01 390.39C775.01 390.39 779.25 341.32 775.01 313.81L818.39 312.42L842.57 311.65L867.68 310.85C867.68 310.85 898.57 300.68 924.8 304.5C951.03 308.32 989.11 321 996.31 325.66C1003.5 330.32 998.43 338.79 985.74 337.51Z" fill="#F07384"/>
<path d="M842.99 385.91L819.43 387.45C824.86 358.57 820.05 322.61 818.39 312.41L842.57 311.64C844.45 324.26 848.51 358.55 842.99 385.91Z" fill="#142126"/>
<path d="M959.07 358.51C958.97 358.51 958.88 358.5 958.78 358.47C958.46 358.38 926.9 349.73 925.03 349.3C924.44 349.16 924.07 348.57 924.2 347.98C924.34 347.39 924.93 347.02 925.52 347.15C927.43 347.59 958.05 355.99 959.35 356.34C959.94 356.5 960.28 357.11 960.12 357.7C959.99 358.19 959.54 358.51 959.06 358.51H959.07Z" fill="#231F20"/>
<path d="M973.9 350.88C973.78 350.88 973.65 350.86 973.53 350.81L937.12 337.79C936.55 337.59 936.25 336.95 936.45 336.38C936.65 335.81 937.29 335.51 937.86 335.71L974.27 348.73C974.84 348.94 975.14 349.57 974.94 350.14C974.78 350.59 974.35 350.87 973.9 350.87V350.88Z" fill="#231F20"/>
<path d="M985.74 338.61C985.63 338.61 985.52 338.59 985.41 338.56L939.94 324.14C939.36 323.96 939.04 323.34 939.22 322.76C939.4 322.18 940.02 321.86 940.61 322.04L986.08 336.46C986.66 336.64 986.98 337.26 986.8 337.84C986.65 338.31 986.22 338.61 985.75 338.61H985.74Z" fill="#231F20"/>
<path d="M832.09 368.21C842.799 368.21 851.48 359.528 851.48 348.82C851.48 338.111 842.799 329.43 832.09 329.43C821.381 329.43 812.7 338.111 812.7 348.82C812.7 359.528 821.381 368.21 832.09 368.21Z" fill="#231F20"/>
<path d="M832.09 363.76C840.341 363.76 847.03 357.071 847.03 348.82C847.03 340.569 840.341 333.88 832.09 333.88C823.839 333.88 817.15 340.569 817.15 348.82C817.15 357.071 823.839 363.76 832.09 363.76Z" fill="white"/>
<path d="M1177.47 529.32C1177.47 529.32 1125.4 706.66 1081.58 750.5C1078.45 753.65 1075.34 756.13 1072.29 757.78C1029.62 781.06 841.88 823.51 819.75 828.45C818.34 828.78 817.61 828.94 817.61 828.94L869.17 1104.22C869.17 1104.22 790.21 1103.62 699.99 1101.93C699.26 1101.91 698.51 1101.91 697.78 1101.89C582.59 1099.68 450.01 1095.67 440.24 1088.76C422.7 1076.41 454.85 1031.73 454.85 1031.73C469.65 928.67 411.03 719.62 411.03 590.53C411.03 461.44 443 370.23 484.46 345.36C525.92 320.49 783.53 304.5 783.53 304.5C803.06 356.02 778.79 409.32 778.79 409.32C778.79 409.32 624.81 428.27 604.09 430.63C583.35 432.99 564.99 441.29 559.08 471.49C553.14 501.69 551.38 659.82 552.57 660.39C553.74 660.99 634.91 670.61 634.91 670.61L735.69 673.7L1002.17 675.31L1096.01 503.11L1177.47 529.32Z" fill="#DDD9A6"/>
<path style="mix-blend-mode:multiply" d="M1177.47 529.32C1177.47 529.32 1125.4 706.66 1081.58 750.5C1078.45 753.65 1075.34 756.13 1072.29 757.78C1029.62 781.06 841.88 823.51 819.75 828.45C818.34 828.78 817.61 828.94 817.61 828.94L869.17 1104.22C869.17 1104.22 790.21 1103.62 699.99 1101.93C699.26 1101.91 698.51 1101.91 697.78 1101.89C582.59 1099.68 450.01 1095.67 440.24 1088.76C422.7 1076.41 454.85 1031.73 454.85 1031.73C469.65 928.67 411.03 719.62 411.03 590.53C411.03 461.44 443 370.23 484.46 345.36C525.92 320.49 783.53 304.5 783.53 304.5C803.06 356.02 778.79 409.32 778.79 409.32C778.79 409.32 624.81 428.27 604.09 430.63C583.35 432.99 564.99 441.29 559.08 471.49C553.14 501.69 551.38 659.82 552.57 660.39C553.74 660.99 634.91 670.61 634.91 670.61L735.69 673.7L1002.17 675.31L1096.01 503.11L1177.47 529.32Z" fill="url(#paint4_linear_4403_517)"/>
<path style="mix-blend-mode:multiply" d="M1081.59 750.51C1078.46 753.66 1075.35 756.14 1072.3 757.79C1029.63 781.07 841.89 823.52 819.76 828.46L807.74 765.43L1081.59 750.52V750.51Z" fill="url(#paint5_linear_4403_517)"/>
<path d="M700 1101.93C699.27 1101.91 698.52 1101.91 697.79 1101.89C698.25 1084.77 695.89 1064.18 693.16 1040.36C689.45 1007.95 685.26 971.21 687.11 932.87C690.27 867.5 683.01 700.57 682.94 698.89C682.92 698.29 683.38 697.77 684 697.74C684.6 697.74 685.13 698.18 685.15 698.8C685.22 700.48 692.47 867.5 689.32 932.98C687.47 971.15 691.66 1007.77 695.37 1040.1C698.11 1064.02 700.47 1084.67 700 1101.94V1101.93Z" fill="#B5B07F"/>
<path d="M716.43 1071.04C719.611 1071.04 722.19 1067.06 722.19 1062.14C722.19 1057.22 719.611 1053.24 716.43 1053.24C713.249 1053.24 710.67 1057.22 710.67 1062.14C710.67 1067.06 713.249 1071.04 716.43 1071.04Z" fill="#B5B07F"/>
<path d="M710.67 997.31C713.851 997.31 716.43 993.325 716.43 988.41C716.43 983.495 713.851 979.51 710.67 979.51C707.489 979.51 704.91 983.495 704.91 988.41C704.91 993.325 707.489 997.31 710.67 997.31Z" fill="#B5B07F"/>
<path d="M705.82 927.48C709.001 927.48 711.58 923.496 711.58 918.58C711.58 913.665 709.001 909.68 705.82 909.68C702.639 909.68 700.06 913.665 700.06 918.58C700.06 923.496 702.639 927.48 705.82 927.48Z" fill="#B5B07F"/>
<path d="M704.91 856.03C708.091 856.03 710.67 852.046 710.67 847.13C710.67 842.215 708.091 838.23 704.91 838.23C701.729 838.23 699.15 842.215 699.15 847.13C699.15 852.046 701.729 856.03 704.91 856.03Z" fill="#B5B07F"/>
<path d="M700.06 783.23C703.241 783.23 705.82 779.246 705.82 774.33C705.82 769.415 703.241 765.43 700.06 765.43C696.879 765.43 694.3 769.415 694.3 774.33C694.3 779.246 696.879 783.23 700.06 783.23Z" fill="#B5B07F"/>
<path d="M659.1 657.46L634.91 670.61C634.91 670.61 637.42 695.74 656.45 729.38L684.05 698.83L707.57 729.38C707.57 729.38 731.36 700.77 735.71 673.7L713.14 653.2L659.1 657.46Z" fill="#EFE9B9"/>
<path d="M659.09 636.39C659.09 636.39 628.25 598.36 615.39 587.27C602.54 576.18 618.03 571.07 618.03 571.07C618.03 571.07 602.01 566.49 615.04 544.66C628.07 522.83 636.87 510.15 651.84 510.68C666.81 511.21 663.28 486.21 674.73 483.92C686.17 481.63 693.04 503.99 692.34 510.86C691.64 517.73 701.56 518.91 695.63 529.32C689.7 539.73 676.85 562.62 672.1 573.71C667.35 584.8 671.57 586.21 669.81 597.3C668.05 608.39 667.52 616.84 667.52 616.84L659.1 636.38L659.09 636.39Z" fill="#F2B33D"/>
<path d="M735.59 597.92C734.57 600.63 725.04 608.16 718.23 613.3C715.32 615.51 712.89 617.25 711.83 618.02C711.61 618.15 711.43 618.29 711.26 618.42C711.26 618.42 713.25 646.44 713.42 664.38C713.46 669.41 713.38 673.65 713.07 676.25C711.66 688.23 690.35 696.55 683.66 696.35C676.95 696.15 659.1 682.76 659.1 669.35V610.71C659.1 610.71 644.89 618.43 631.9 605.24C618.9 592.05 636.42 571.95 656.46 594.47L662.95 589L658.49 580.48C658.49 580.48 677.16 563.03 669.26 550.63C661.34 538.25 695.63 529.34 695.63 529.34C696.05 530.13 707.81 548.4 711.47 552.46C715.11 556.52 732.56 563.63 728.92 568.1C725.48 572.27 722.41 575.05 722.06 575.38C722.04 575.38 722.02 575.38 722.02 575.4C722.02 575.4 723.56 577.25 725.62 579.92C727.45 582.28 729.68 585.3 731.58 588.24C734.25 592.32 736.26 596.23 735.62 597.93L735.59 597.92Z" fill="#F07384"/>
<path d="M711.25 618.42C711.25 618.42 713.24 646.44 713.41 664.38L684.04 624.67L713.67 604.66L718.22 613.31C715.31 615.52 712.88 617.26 711.82 618.03C711.6 618.16 711.42 618.3 711.25 618.43V618.42Z" fill="#CC425F"/>
<path d="M735.59 597.92C734.13 601.78 715.4 615.44 711.83 618.02C711.61 618.15 711.43 618.29 711.26 618.42C705.63 622.52 689.35 630.07 684.06 624.66C678.74 619.23 656.46 594.45 656.46 594.45L662.95 588.98L681.18 607.02C685.32 611.11 691.9 611.48 696.39 607.78C698.13 606.35 699.75 604.89 700.78 603.67C704.07 599.79 700.43 589.66 702.3 586.13C704.18 582.6 721.49 576 722 575.38C722 575.38 723.54 577.23 725.6 579.9C720.83 582.33 713.86 586.06 711.83 588C708.65 591.07 712.91 598.02 719.13 595.44C722.84 593.9 727.98 590.63 731.55 588.23C734.22 592.31 736.23 596.22 735.59 597.92Z" fill="#F2B33D"/>
<path d="M690.86 558.04C685.66 551.99 692.4 542.19 699.91 544.88C700.49 545.1 700.79 545.75 700.57 546.34C700.41 546.76 700.04 547.02 699.63 547.07C697.16 547.56 695.17 548.81 694 550.51C692.81 552.23 692.37 554.61 692.83 557.1C693.06 558.19 691.56 558.89 690.87 558.04H690.86Z" fill="#142126"/>
<path d="M701.266 557.329C702.208 556.785 702.303 555.185 701.477 553.755C700.651 552.325 699.218 551.606 698.276 552.15C697.334 552.694 697.239 554.295 698.065 555.725C698.891 557.155 700.324 557.873 701.266 557.329Z" fill="#142126"/>
<path d="M645.44 606.76C645.26 606.76 645.08 606.76 644.89 606.75C641.68 606.63 638.78 605.34 636.94 603.2C634.77 600.68 634.27 597.03 635.73 594.34C637.2 591.61 640.55 590.08 643.88 590.64C646.62 591.09 649.23 592.83 651.23 595.53C651.59 596.02 651.49 596.71 651 597.07C650.51 597.43 649.82 597.33 649.46 596.84C647.8 594.6 645.69 593.17 643.52 592.81C641.16 592.42 638.69 593.5 637.67 595.38C636.66 597.26 637.05 599.94 638.61 601.76C640.05 603.43 642.36 604.44 644.97 604.54C647.1 604.62 649.44 604.14 652.34 603.03C652.91 602.81 653.55 603.1 653.76 603.67C653.98 604.24 653.69 604.88 653.12 605.1C650.17 606.23 647.71 606.76 645.42 606.76H645.44Z" fill="#CC425F"/>
<path d="M792.17 781.45H730.35V797.49H792.17V781.45Z" fill="#EFE9B9"/>
<path d="M503.07 754.54C502.46 754.54 501.85 754.29 501.41 753.79C500.6 752.88 500.69 751.48 501.61 750.68C557.1 701.83 550.47 661.21 550.4 660.8C550.18 659.6 550.98 658.45 552.18 658.24C553.38 658.02 554.53 658.82 554.74 660.02C555.06 661.77 561.86 703.52 504.52 754C504.1 754.37 503.58 754.55 503.06 754.55L503.07 754.54Z" fill="#B5B07F"/>
<path d="M817.62 831.14C816.58 831.14 815.66 830.4 815.45 829.35L797.98 737.95C797.75 736.75 798.54 735.6 799.73 735.37C800.93 735.14 802.08 735.93 802.31 737.12L819.78 828.52C820.01 829.72 819.22 830.87 818.03 831.1C817.89 831.13 817.75 831.14 817.61 831.14H817.62Z" fill="#B5B07F"/>
<path d="M658.2 1033.93H454.86C453.64 1033.93 452.65 1032.94 452.65 1031.72C452.65 1030.5 453.64 1029.51 454.86 1029.51H658.2C659.42 1029.51 660.41 1030.5 660.41 1031.72C660.41 1032.94 659.42 1033.93 658.2 1033.93Z" fill="#B5B07F"/>
<path d="M808.89 253.86C795.05 253.86 787.94 246.27 781.66 239.58C775.53 233.04 770.24 227.39 759.26 227.39C748.28 227.39 742.99 233.04 736.86 239.58C730.59 246.28 723.47 253.86 709.63 253.86C695.79 253.86 688.68 246.27 682.41 239.58C676.28 233.04 670.99 227.39 660.02 227.39C649.05 227.39 643.76 233.04 637.63 239.58C631.36 246.28 624.25 253.86 610.41 253.86C596.57 253.86 589.46 246.27 583.19 239.58C577.06 233.04 571.77 227.39 560.8 227.39C549.83 227.39 544.54 233.04 538.41 239.58C532.14 246.28 525.03 253.86 511.19 253.86C497.35 253.86 490.24 246.27 483.97 239.58C477.84 233.04 472.55 227.39 461.58 227.39C450.61 227.39 445.32 233.04 439.19 239.58C432.92 246.28 425.81 253.86 411.97 253.86C398.13 253.86 391.03 246.27 384.75 239.58C378.62 233.04 373.33 227.39 362.36 227.39V220.77C376.2 220.77 383.3 228.36 389.58 235.06C395.71 241.6 401 247.25 411.97 247.25C422.94 247.25 428.23 241.6 434.36 235.06C440.63 228.36 447.74 220.78 461.58 220.78C475.42 220.78 482.53 228.37 488.8 235.07C494.93 241.61 500.22 247.26 511.19 247.26C522.16 247.26 527.45 241.61 533.58 235.07C539.85 228.37 546.96 220.79 560.8 220.79C574.64 220.79 581.75 228.38 588.02 235.07C594.15 241.61 599.44 247.26 610.41 247.26C621.38 247.26 626.67 241.61 632.8 235.07C639.07 228.37 646.18 220.79 660.02 220.79C673.86 220.79 680.97 228.38 687.24 235.07C693.37 241.61 698.66 247.26 709.63 247.26C720.6 247.26 725.9 241.61 732.03 235.07C738.31 228.37 745.42 220.79 759.26 220.79C773.1 220.79 780.21 228.38 786.49 235.07C792.62 241.61 797.92 247.26 808.89 247.26V253.88V253.86Z" fill="#EE8C28"/>
<path d="M1981.26 0L1789.9 779.48L1714.8 665.56L1320.86 121.66L1246.55 0H1981.26Z" fill="#F7F5DA"/>
<path d="M1981.26 0L1789.9 779.48L1714.8 665.56L1320.86 121.66L1246.55 0H1981.26Z" fill="url(#paint6_linear_4403_517)"/>
<defs>
<linearGradient id="paint0_linear_4403_517" x1="881.89" y1="1205.12" x2="881.89" y2="1323.56" gradientUnits="userSpaceOnUse">
<stop offset="0.71" stop-color="white" stop-opacity="0"/>
<stop offset="1" stop-color="#DDD9A6"/>
</linearGradient>
<linearGradient id="paint1_linear_4403_517" x1="8.72005" y1="705.63" x2="297.34" y2="1084.54" gradientUnits="userSpaceOnUse">
<stop offset="0.71" stop-color="white" stop-opacity="0"/>
<stop offset="1" stop-color="#DDD9A6"/>
</linearGradient>
<linearGradient id="paint2_linear_4403_517" x1="771.18" y1="935.44" x2="800.89" y2="1186.22" gradientUnits="userSpaceOnUse">
<stop offset="0.71" stop-color="white" stop-opacity="0"/>
<stop offset="1" stop-color="#142126"/>
</linearGradient>
<linearGradient id="paint3_linear_4403_517" x1="989.41" y1="1027.8" x2="969.76" y2="1214.43" gradientUnits="userSpaceOnUse">
<stop offset="0.71" stop-color="white" stop-opacity="0"/>
<stop offset="1" stop-color="#142126"/>
</linearGradient>
<linearGradient id="paint4_linear_4403_517" x1="742.21" y1="664.6" x2="373.42" y2="999.49" gradientUnits="userSpaceOnUse">
<stop offset="0.71" stop-color="white" stop-opacity="0"/>
<stop offset="1" stop-color="#142126"/>
</linearGradient>
<linearGradient id="paint5_linear_4403_517" x1="944.66" y1="672.17" x2="944.66" y2="822.46" gradientUnits="userSpaceOnUse">
<stop offset="0.71" stop-color="white" stop-opacity="0"/>
<stop offset="1" stop-color="#142126"/>
</linearGradient>
<linearGradient id="paint6_linear_4403_517" x1="2308.59" y1="-208.76" x2="1486.76" y2="413.57" gradientUnits="userSpaceOnUse">
<stop offset="0.71" stop-color="white" stop-opacity="0"/>
<stop offset="1" stop-color="#DDD9A6"/>
</linearGradient>
</defs>
</svg>
