<svg width="357" height="385" viewBox="0 0 357 385" fill="none" xmlns="http://www.w3.org/2000/svg">
<path d="M326.624 74.2294C414.836 160.834 293.449 384.27 172.23 335.73C172.23 335.73 172.497 392.058 160.696 383.185C148.898 374.313 70.6498 349.373 6.47224 216.043C-33.7331 132.52 125.064 -123.658 326.624 74.2294Z" fill="#FF65EC"/>
<path d="M105.867 123.634C48.0483 196.416 142.84 196.798 144.21 213.351C145.579 229.904 143.855 254.248 149.065 252.447C154.274 250.644 192.852 262.598 202.273 253.512C211.695 244.424 201.221 225.825 212.185 221.991C223.149 218.158 269.294 219.666 275.418 172.194C281.542 124.723 163.686 50.8515 105.867 123.634Z" fill="#FFEA00"/>
<path d="M165.882 234.573C166.186 234.719 166.527 234.807 166.886 234.823C168.3 234.879 169.494 233.776 169.549 232.362C170.058 219.441 169.271 209.102 167.706 200.917C172.333 201.613 176.927 201.084 181.28 199.32C181.009 216.216 182.984 234.643 183.359 237.99C183.518 239.397 184.787 240.415 186.196 240.252C187.603 240.091 188.613 238.823 188.457 237.415C187.144 225.775 186.1 209.645 186.469 196.553C186.535 196.506 186.602 196.463 186.667 196.418C194.951 190.755 200.374 180.912 198.758 174.478C197.996 171.437 195.709 169.488 192.487 169.151C190.45 168.928 188.563 169.627 187.034 171.161C183.537 174.677 181.984 183.463 181.469 193.575C177.894 195.462 172.734 197 166.484 195.485C162.55 180.557 155.848 174.444 151.014 173.313C147.677 172.525 144.696 173.833 143.424 176.648C141.68 180.505 143.329 187.632 153.725 195.012C156.512 196.983 159.363 198.494 162.236 199.524C163.981 207.461 164.983 218.092 164.426 232.158C164.385 233.213 164.987 234.143 165.882 234.573ZM150.857 178.676C153.523 179.955 157.528 184.079 160.524 193.2C159.279 192.544 157.998 191.762 156.692 190.833C148.652 185.124 147.427 180.237 148.097 178.763C148.388 178.112 149.205 178.153 149.836 178.304C150.147 178.376 150.489 178.499 150.857 178.676ZM192.879 174.484C193.42 174.743 193.648 175.175 193.787 175.721C194.502 178.565 192.091 184.83 186.817 189.742C187.387 182.46 188.581 176.871 190.671 174.775C191.171 174.271 191.54 174.198 191.939 174.239C192.33 174.284 192.636 174.367 192.879 174.484Z" fill="#261D2A"/>
<path d="M161.454 311.899C163.492 312.877 165.323 312.501 166.406 312.083C168.955 311.101 171.156 308.427 172.9 305.223C176.102 308.677 180.681 310.939 185.156 309.223C193.757 305.913 191.147 278.132 189.627 266.341C189.448 264.934 188.163 263.945 186.757 264.124C185.352 264.304 184.361 265.589 184.541 266.994C186.915 285.43 186.332 303.274 183.315 304.435C180.685 305.447 177.319 303.012 175.357 300.09C175.318 300.033 175.281 299.975 175.243 299.916C176.561 296.232 177.297 292.622 177.309 290.49C177.326 288.25 176.568 286.768 175.132 286.236C174.155 285.845 172.624 285.767 170.871 287.627C167.87 290.812 167.46 295.577 169.61 300.292C168.292 303.407 166.594 306.232 164.804 307.183C164.36 307.417 163.813 307.716 162.657 306.452C155.917 299.11 158.161 275.451 159.595 266.953C159.828 265.56 158.898 264.24 157.495 263.999C156.1 263.763 154.778 264.703 154.541 266.099C153.967 269.479 149.234 299.415 158.883 309.922C159.75 310.869 160.618 311.498 161.454 311.899Z" fill="#261D2A"/>
<path d="M206.642 234.075C206.642 234.075 145.687 222.003 142.706 227.73C139.726 233.458 133.615 265.725 139.627 274.492C145.639 283.26 202.289 282.631 206.26 280.368C210.233 278.106 211.582 238.973 206.642 234.075Z" fill="#403955"/>
<path d="M139.051 246.395C139.356 246.542 139.691 246.63 140.046 246.646L207.349 249.607C208.762 249.669 209.96 248.571 210.023 247.157C210.084 245.74 208.981 244.546 207.574 244.483L140.271 241.522C138.858 241.46 137.66 242.558 137.597 243.972C137.552 245.028 138.156 245.966 139.051 246.395Z" fill="white"/>
<path d="M141.909 263.158C142.188 263.292 142.493 263.377 142.82 263.403L202.356 268.072C203.767 268.183 205 267.128 205.112 265.714C205.223 264.303 204.164 263.072 202.754 262.959L143.217 258.29C141.806 258.179 140.574 259.234 140.462 260.648C140.377 261.732 140.984 262.714 141.909 263.158Z" fill="white"/>
<path d="M107.856 153.283C108.152 153.425 108.479 153.512 108.827 153.531C110.238 153.61 111.447 152.526 111.527 151.112C113.621 113.062 152.532 112.986 154.185 113.004C155.599 113.018 156.76 111.881 156.774 110.467C156.787 109.053 155.652 107.895 154.242 107.878C153.787 107.872 108.775 107.846 106.406 150.833C106.345 151.899 106.947 152.847 107.856 153.283Z" fill="#261D2A"/>
<path d="M109.041 180.089C110.274 180.681 111.767 180.198 112.413 178.977C113.077 177.727 112.6 176.173 111.348 175.512C108.883 174.203 108.806 167.764 109.535 163.824C109.792 162.436 108.863 161.096 107.48 160.836C106.088 160.577 104.751 161.493 104.493 162.885C104.237 164.264 102.173 176.454 108.946 180.041C108.98 180.06 109.011 180.075 109.041 180.089Z" fill="#261D2A"/>
<path d="M90.5922 236.465C93.9215 238.063 105.002 233.448 123.531 222.743C124.759 222.037 125.177 220.468 124.47 219.243C123.757 218.017 122.193 217.595 120.97 218.304C110.748 224.205 98.47 230.4 93.8781 231.561C94.3148 226.486 96.9858 213.935 98.8153 206.188C99.0171 205.338 98.7718 204.444 98.1631 203.818C97.5589 203.182 96.6748 202.912 95.8155 203.086C84.2515 205.409 70.532 207.291 66.5716 206.645C67.5007 202.972 74.3777 189.949 80.8049 179.165C81.2268 178.455 81.2806 177.586 80.9521 176.83C80.6247 176.072 79.9633 175.519 79.1428 175.346C63.6012 171.987 49.3303 167.172 46.8098 164.524C51.2432 159.729 66.3372 150.728 71.9556 147.568C72.6753 147.164 73.1543 146.438 73.243 145.618C73.3339 144.799 73.0255 143.982 72.4133 143.43C63.118 135.045 55.3693 125.586 55.8364 123.184C59.4553 120.831 79.3951 118.887 91.0723 118.271C91.8682 118.229 92.596 117.82 93.0493 117.166C93.5002 116.511 93.6191 115.682 93.3784 114.925C88.0167 98.3005 85.1181 81.792 87.1711 79.5963C90.1822 77.7587 111.076 82.7076 128.678 88.5053C129.369 88.7354 130.127 88.6575 130.761 88.2935C131.395 87.9295 131.839 87.3119 131.988 86.5961C134.692 73.7031 138.719 58.8101 140.948 55.2609C143.951 57.3149 153.848 68.5393 161.76 78.5297C162.251 79.1344 162.984 79.5008 163.766 79.501C164.548 79.5047 165.289 79.1483 165.773 78.5384C173.759 68.5433 183.975 57.5527 187.306 56.1012C190.076 58.8887 198.755 72.0563 206.101 84.0695C206.495 84.7179 207.165 85.1615 207.913 85.2677C208.666 85.3762 209.432 85.1482 209.998 84.6412C223.393 72.649 237.608 63.2089 240.423 64.4436C243.446 68.9127 247.64 89.5985 249.694 102.396C249.826 103.223 250.354 103.932 251.108 104.297C251.706 104.796 252.744 104.635 253.476 104.225C264.349 98.1424 276.121 93.8949 278.026 95.2884C279.387 99.7786 275.66 116.884 272.976 126.588C272.773 127.325 272.907 128.112 273.346 128.741C273.783 129.373 274.476 129.763 275.243 129.829C289.323 130.962 305.648 134.488 307.481 138.217C309.254 141.846 301.171 155.53 292.664 166.126C291.797 167.206 291.944 168.776 292.996 169.678C301.732 177.171 311.144 187.315 311.113 190.643C309.867 192.869 295.444 195.885 280.288 196.891C279.4 196.95 278.603 197.466 278.19 198.255C277.776 199.044 277.799 199.99 278.253 200.757C286.087 213.955 291.621 227.574 290.096 229.904C287.344 231.77 271.541 228.369 258.553 223.973C257.774 223.709 256.916 223.838 256.246 224.315C255.575 224.792 255.174 225.561 255.167 226.386C255.042 243.633 252.556 259.873 249.843 261.137C245.091 259.745 231.906 242.213 224.2 230.201C223.432 229.004 221.846 228.665 220.659 229.425C219.466 230.192 219.122 231.775 219.884 232.966C223.161 238.074 240.001 263.655 248.607 266.057C250.135 266.479 251.693 266.169 252.996 265.185C258.771 260.82 259.992 240.141 260.241 229.919C269.344 232.808 287.527 237.86 293.07 234.059C299.166 229.879 291.309 213.292 284.727 201.697C299.921 200.425 316.173 197.478 316.236 190.688C316.299 184.249 304.139 172.676 298.183 167.398C303.87 160.064 315.713 143.376 312.086 135.957C308.571 128.808 288.416 125.951 278.707 124.99C280.6 117.674 284.807 99.9309 282.853 93.6744C282.39 92.1884 281.328 91.0717 279.844 90.4843C274.213 88.241 261.162 94.3471 254.164 98.0217C252.621 89.0749 248.544 67.2744 244.558 61.4632C243.981 60.6139 242.867 59.5508 240.884 59.3194C233.312 58.4078 215.906 72.7048 208.88 78.7976C203.854 70.6687 193.257 53.9254 189.783 51.4913C188.124 50.3468 184.299 47.6221 163.783 72.8425C151.493 57.5382 143.602 49.8153 140.381 49.8558C138.505 49.8792 134.652 49.93 127.567 82.7577C114.648 78.6118 89.962 71.4742 84.2308 75.4023C78.3038 79.466 83.288 99.6856 87.5052 113.35C78.551 113.927 58.013 115.61 52.7812 119.199C51.5555 120.04 50.8234 121.348 50.7217 122.879C50.3296 128.751 60.598 139.358 66.3988 144.849C60.1348 148.501 46.6334 156.677 42.4778 161.699C41.4817 162.903 41.1923 164.414 41.6863 165.842C43.7056 171.677 63.2756 176.975 74.6033 179.588C64.9646 196.035 60.5935 205.9 61.6055 208.93C62.2057 210.761 63.4714 214.479 92.934 208.879C91.2822 216.165 88.3205 230.012 88.7458 233.848C88.872 234.983 89.5317 235.933 90.551 236.448C90.5639 236.451 90.5781 236.458 90.5922 236.465Z" fill="white"/>
</svg>
