<svg width="608" height="590" viewBox="0 0 608 590" fill="none" xmlns="http://www.w3.org/2000/svg">
<path d="M600.676 323.894C600.233 325.89 599.751 327.887 599.24 329.878C598.637 332.222 597.985 334.566 597.291 336.904C591.909 354.992 584.064 371.826 574.096 387.262C572.988 388.988 571.849 390.691 570.688 392.378C508.111 483.107 370.727 523.04 233.488 482.224C115.707 447.196 30.3349 362.303 6.71146 269.283C6.24839 267.464 5.80933 265.638 5.39479 263.81C-2.27241 230.079 -1.78548 195.388 8.22546 161.719C9.54692 157.274 11.0172 152.91 12.6375 148.618C13.2984 146.848 13.988 145.092 14.7016 143.347C62.3733 27.0002 217.295 -29.6131 372.024 16.4003C391.371 22.1469 409.844 29.2537 427.315 37.5203C428.791 38.2137 430.256 38.907 431.713 39.627C494.083 70.107 543.249 115.48 573.117 167.052C573.937 168.466 574.743 169.883 575.529 171.306C602.191 219.344 612.187 272.499 600.676 323.894Z" fill="#D2F2FF"/>
<path d="M573.117 167.052C558.02 176.34 540.264 181.698 521.275 181.698C466.539 181.698 422.005 137.166 422.005 82.4271C422.005 67.1071 425.492 52.5871 431.713 39.6271C430.256 38.9071 428.791 38.2138 427.315 37.5205C420.68 51.3605 417.184 66.6271 417.184 82.4271C417.184 110.234 428.009 136.374 447.669 156.034C467.333 175.694 493.471 186.521 521.275 186.521C540.723 186.521 559.355 181.22 575.529 171.306C574.743 169.883 573.937 168.466 573.117 167.052Z" fill="white"/>
<path d="M24.775 142.562C21.3516 142.562 17.9854 142.831 14.7016 143.347C13.988 145.093 13.2984 146.849 12.6374 148.618C16.5578 147.807 20.6182 147.383 24.775 147.383C57.764 147.383 84.5986 174.219 84.5986 207.207C84.5986 240.191 57.764 267.031 24.775 267.031C17.9953 267.031 11.4754 265.898 5.39478 263.81C5.80931 265.638 6.24838 267.465 6.71144 269.283C12.4448 270.957 18.5062 271.853 24.775 271.853C60.42 271.853 89.4213 242.853 89.4213 207.207C89.4213 171.557 60.42 142.562 24.775 142.562Z" fill="white"/>
<path d="M569.245 309.457C546.379 309.457 527.771 328.061 527.771 350.931C527.771 373.803 546.379 392.407 569.245 392.407C569.728 392.407 570.211 392.398 570.688 392.378C571.849 390.691 572.988 388.989 574.096 387.262C572.511 387.474 570.889 387.585 569.245 387.585C549.036 387.585 532.592 371.142 532.592 350.931C532.592 330.722 549.036 314.279 569.245 314.279C581.629 314.279 592.599 320.451 599.24 329.878C599.751 327.887 600.233 325.89 600.676 323.894C593.063 315.059 581.797 309.457 569.245 309.457Z" fill="white"/>
<path d="M272.847 434.066C276.96 434.075 280.775 433.911 284.236 433.207C285.679 432.918 287.043 432.311 288.196 431.447L310.083 457.216L310.103 457.246C310.16 457.318 310.219 457.395 310.281 457.468C311.323 458.692 314.852 460.452 319.767 462.468C314.433 465.453 309.611 469.267 305.531 474.032C295.747 456.223 274.887 451.098 274.887 451.098C283.248 447.158 281.295 437.278 272.827 434.119V434.114L272.847 434.066Z" fill="#FEE0AA"/>
<path d="M344.976 219.827L344.961 219.894C343.081 219.451 341.539 219.171 340.371 219.001C336.663 218.461 333.62 220.525 332.549 223.452L331.783 223.115C333.351 219.466 334.647 215.732 335.732 212.034C336.412 214.055 337.999 215.979 340.511 217.319C341.987 218.095 343.476 218.95 344.976 219.827Z" fill="#FEE0AA"/>
<path d="M501.976 424.469C498.963 433.887 493.788 441.207 487.697 446.883L479.583 441.356C479.583 441.356 477.937 455.721 451.223 459.897C449.323 460.197 447.288 460.437 445.119 460.625C439.196 461.132 432.253 461.185 424.117 460.601C422.425 460.481 420.684 460.332 418.885 460.153C410.596 459.329 401.173 457.887 390.473 455.664C390.449 455.659 390.431 455.655 390.405 455.649C387.055 454.955 383.505 454.352 379.831 453.875C377.927 453.629 375.988 453.421 374.02 453.248C373.187 453.176 372.347 453.113 371.508 453.055H371.503C371.161 450.803 370.804 448.508 370.437 446.217C370.177 444.563 369.907 442.915 369.632 441.28C368.427 434.08 367.139 427.208 365.891 421.985V421.981C364.988 418.215 364.111 415.307 363.291 413.745C363.108 413.397 362.929 413.113 362.751 412.905L362.747 412.901L355.831 404.761L330.148 374.527L325.437 368.976L306.144 346.264L305.945 346.027L302.937 342.483L223.597 249.092L220.593 245.557L220.477 245.423L209.368 232.34L209.18 232.119L205.461 227.744L195.847 216.421L195.856 216.412C200.235 214.884 204.477 213.692 208.495 212.776C210.201 212.381 211.865 212.039 213.481 211.74C229.071 208.841 240.167 209.912 240.441 209.941C241.82 214.484 243.484 218.973 245.491 223.26C245.36 225.632 245.327 228.029 245.38 230.44C245.413 232.119 245.491 233.801 245.611 235.484C247.54 263.023 260.135 290.124 272.653 290.124C284.835 290.124 288.543 270.613 289.488 263.573C290.428 270.619 294.145 290.119 306.321 290.119C309.148 290.119 311.983 288.735 314.693 286.276C315.971 285.113 317.225 283.715 318.435 282.115C326.763 271.085 333.225 250.297 333.601 230.184C334.503 231.481 335.853 232.725 337.739 233.811C341.437 235.937 341.677 236.299 345.184 238.667C352.34 243.499 358.608 252.588 361.348 260.405C362.351 263.269 363.287 266.708 364.179 270.619C364.684 272.832 365.176 275.199 365.659 277.701C366.744 283.353 367.785 289.685 368.827 296.499C369.073 298.091 369.319 299.715 369.56 301.36C376.547 348.183 384.263 414.024 408.34 437.46C412.824 441.824 418.399 444.92 424.552 446.767C426.085 447.235 427.652 447.62 429.248 447.924C431.24 448.311 433.28 448.576 435.344 448.715C437.321 448.855 439.321 448.884 441.337 448.801C454.16 448.291 467.44 443.353 477.611 434.133C497.057 416.508 501.316 398.551 490.847 369.299C491.407 369.723 513.877 387.18 501.976 424.469Z" fill="#FEE0AA"/>
<path d="M309.823 249.883C306.457 251.827 302.724 253.34 298.592 254.32C290.9 256.147 282.795 255.621 275.364 252.935C271.761 251.633 268.468 249.945 265.464 247.929C256.528 241.955 250.1 233.136 245.491 223.26C243.484 218.973 241.82 214.484 240.441 209.941C239.684 207.439 239.015 204.916 238.416 202.404C234.675 186.597 233.98 171.108 233.96 162.023C233.96 160.924 233.965 159.92 233.98 159.024C239.603 160.143 248.904 158.363 264.235 150.011C275.995 162.395 297.565 144.683 306.9 135.839V135.844C306.9 135.844 323.845 171.493 341.163 174.484L341.065 175.043C341.065 175.043 341.22 187.368 338.119 202.384C337.965 203.141 337.801 203.923 337.623 204.695C335.491 206.585 334.84 209.387 335.732 212.029V212.033C334.647 215.732 333.351 219.465 331.783 223.115C327.159 233.892 320.22 243.904 309.823 249.883Z" fill="#EFBC83"/>
<path d="M195.847 216.422L209.368 232.341C204.473 226.578 188.753 231.882 174.267 244.183C159.969 256.335 152.211 270.773 156.724 276.685L138.979 255.795L133.467 249.31H133.461C128.572 243.553 136.345 228.893 150.831 216.591C165.312 204.285 181.032 198.986 185.927 204.743L185.932 204.753L195.847 216.422Z" fill="#F05751"/>
<path d="M513.834 433.743C513.834 433.747 513.835 433.747 513.829 433.752C511.08 440.735 506.846 447.13 500.867 452.751C500.236 453.35 499.584 453.934 498.914 454.512L487.697 446.883C493.788 441.207 498.962 433.887 501.976 424.47C513.877 387.18 491.407 369.723 490.847 369.299C490.283 367.727 489.68 366.116 489.029 364.478C485.065 354.447 478.058 340.198 470.458 324.762C469.754 323.33 469.045 321.888 468.332 320.442C458.432 300.308 447.91 278.682 441.993 262.04C454.554 277.051 469.006 295.882 481.912 316.135C482.813 317.548 483.7 318.966 484.583 320.388C508.607 359.134 526.188 402.375 513.834 433.743Z" fill="#FEE0AA"/>
<path d="M289.203 261.109C289.223 261.301 289.3 262.199 289.488 263.573C288.543 270.613 284.835 290.124 272.653 290.124C258.273 290.124 243.793 254.368 245.491 223.26C250.1 233.136 256.528 241.955 265.464 247.929L265.459 247.935C269.032 253.124 273.768 257.333 280.071 259.609C283.001 260.671 286.108 261.181 289.203 261.109Z" fill="white"/>
<path d="M333.601 230.18V230.185C333.051 259.441 319.636 290.119 306.321 290.119C294.145 290.119 290.428 270.619 289.488 263.574C289.676 262.151 289.753 261.239 289.768 261.095C291.291 261.023 292.811 260.815 294.305 260.458C301.095 258.843 306.105 254.894 309.823 249.883C320.22 243.905 327.159 233.893 331.783 223.115L332.549 223.452C331.812 225.474 332.015 227.908 333.601 230.18Z" fill="white"/>
<path d="M231.569 364.791H231.564C231.564 364.791 205.891 379.705 180.507 379.705C177.888 379.705 175.024 379.571 171.991 379.32C171.576 379.285 171.161 379.252 170.741 379.213C169.195 379.073 167.603 378.909 165.983 378.721C158.812 377.887 151.057 376.604 143.588 375.177C141.959 374.868 140.339 374.551 138.747 374.232C121.276 370.721 106.559 366.816 106.559 366.816C103.627 369.936 99.4987 374.613 95.184 380.38C93.3987 382.763 91.5813 385.332 89.8067 388.057V388.063C84.468 396.255 79.492 405.836 76.8347 415.935C76.8347 415.939 76.8347 415.939 76.8347 415.939C76.1507 418.528 75.62 421.147 75.2773 423.784C75.2773 423.784 75.2773 423.784 75.2773 423.789C74.0667 433.029 75.1187 442.495 79.8387 451.551C81.416 454.569 83.4027 457.231 85.756 459.56C87.3373 461.137 89.0787 462.564 90.9733 463.847C91.06 463.909 91.1467 463.968 91.2347 464.025H90.984C89.3 464.025 87.68 463.972 86.1227 463.861C50.8677 461.445 47.4391 432.132 58.5493 395.407V395.401C59.1133 393.521 59.7213 391.625 60.3627 389.711C70.5707 359.249 89.8267 324.535 108.801 296.084C109.789 294.599 110.779 293.133 111.763 291.687C115.22 286.619 118.648 281.772 121.995 277.22C122.983 275.879 123.963 274.563 124.932 273.271L125.264 272.827C129.643 267.025 133.843 261.779 137.729 257.236C138.144 256.749 138.564 256.268 138.979 255.795L153.735 273.164L156.724 276.684L156.753 276.723L157.399 277.485H157.404L167.955 289.903L168.027 289.993L169.479 291.705H169.484L173.181 296.06L180.488 304.663L184.036 308.839L231.569 364.791Z" fill="#FEE0AA"/>
<path d="M305.531 588.16H4.43506V575.133H278.985C284.284 582.92 294.189 588.16 305.531 588.16Z" fill="#4D1111"/>
<path d="M606.699 575.133V588.16H305.531C316.887 588.16 326.801 582.907 332.096 575.107L332.14 575.133H598.42H606.699Z" fill="#4D1111"/>
<path d="M274.92 563.307V563.293C274.896 562.907 274.887 562.507 274.887 562.107H281.903H285.721C285.721 570.36 294.792 577.32 305.531 577.32C316.265 577.32 325.34 570.36 325.34 562.107H329.227H336.176C336.176 562.52 336.167 562.92 336.143 563.32C335.911 567.6 334.469 571.613 332.096 575.107C326.801 582.907 316.887 588.16 305.531 588.16C294.189 588.16 284.284 582.92 278.985 575.133H278.995C278.989 575.133 278.98 575.12 278.976 575.12C276.593 571.613 275.147 567.587 274.92 563.307Z" fill="#E77725"/>
<path d="M598.409 540.694C598.409 540.694 598.415 540.707 598.409 540.707C582.897 557.773 559.128 556.547 532.341 548.827C532.288 548.814 532.236 548.8 532.183 548.773C529.525 548.013 526.84 547.174 524.124 546.294C521.203 545.347 518.251 544.333 515.276 543.267C478.315 530.107 437.939 509.813 406.431 510.067C359.756 510.467 342.055 546.067 336.215 563.307C336.209 563.32 336.205 563.333 336.205 563.333L336.143 563.32C336.167 562.92 336.176 562.52 336.176 562.107H329.227C329.227 562.107 342.735 500.226 404.352 499.706C467.359 499.175 564.284 580.88 600.035 523.333L603.661 533.694C602.036 536.307 600.285 538.64 598.409 540.694Z" fill="#FFEDE9"/>
<path d="M78.7066 548.854C51.9478 556.547 28.213 557.747 12.7145 540.694C10.8437 538.641 9.09317 536.307 7.4729 533.694L11.0994 523.334C45.0812 578.054 134.377 506.881 197.24 500.197C197.297 500.193 197.356 500.183 197.413 500.178C200.611 499.845 203.735 499.681 206.783 499.706C268.396 500.226 281.903 562.107 281.903 562.107H274.887C274.887 562.507 274.896 562.907 274.92 563.294C269.065 546.041 251.364 510.467 204.7 510.067C173.192 509.814 132.82 530.107 95.8533 543.267C92.8826 544.334 89.9266 545.347 87.0053 546.294C84.208 547.214 81.44 548.067 78.7066 548.854Z" fill="#FFEDE9"/>
<path d="M487.697 446.883L498.915 454.512L600.035 523.334C564.284 580.88 467.359 499.175 404.352 499.706C319.057 497.303 305.733 576.094 305.536 577.307V493.625L305.531 474.036V474.033C309.611 469.267 314.433 465.454 319.767 462.468C324.584 464.44 330.736 466.659 337.179 468.853C355.132 474.973 375.361 480.918 375.361 480.918C375.361 480.918 373.736 467.807 371.503 453.055H371.508C378.172 453.514 384.581 454.439 390.405 455.65C475.908 473.439 479.583 441.356 479.583 441.356L487.697 446.883Z" fill="white"/>
<path d="M598.42 575.134H332.14C384.117 527.574 434.037 545.747 500.679 562.107C567.317 578.467 595.82 562.107 595.82 562.107H595.897C596.124 566.347 596.852 570.827 598.42 575.134Z" fill="#F8D6CD"/>
<path d="M595.897 562.107H595.82C595.82 562.107 567.317 578.467 500.679 562.107C434.037 545.747 384.117 527.574 332.14 575.134L332.096 575.107C334.469 571.614 335.911 567.6 336.143 563.32L336.205 563.334C336.205 563.334 336.209 563.32 336.215 563.307C336.803 561.96 363.768 502.947 532.183 548.774C532.236 548.8 532.288 548.814 532.341 548.827C559.128 556.547 582.897 557.774 598.409 540.707C598.247 541.24 595.304 550.854 595.897 562.107Z" fill="#D6AEA5"/>
<path d="M565.811 185.199C563.82 196.12 557.345 205.434 548.057 210.746C540.915 214.826 528.896 218.404 512.183 212.267C505.717 209.894 496.783 207.844 490.947 211.554C485.401 215.08 484.511 222.635 484.508 222.71C484.192 226.34 480.993 229.027 477.365 228.716C475.379 228.54 473.677 227.51 472.592 226.016C471.693 224.776 471.219 223.218 471.363 221.575C471.412 221.006 472.695 207.523 483.867 200.42C492.204 195.116 503.264 194.936 516.729 199.884C526.187 203.354 534.759 203.148 541.507 199.29C547.415 195.915 551.541 189.916 552.832 182.828C554.507 173.643 549.473 164.224 540.857 160.442C529.811 155.59 521.425 164.351 521.345 164.439C518.853 167.096 514.676 167.235 512.02 164.743C509.361 162.255 509.221 158.078 511.715 155.422C512.319 154.778 526.669 139.798 546.164 148.364C560.308 154.575 568.568 170.067 565.811 185.199Z" fill="#F1BD1B"/>
<path d="M524.124 546.294C526.84 547.174 529.525 548.014 532.183 548.774C363.768 502.947 336.803 561.96 336.215 563.307C342.055 546.067 359.756 510.467 406.431 510.067C437.939 509.814 478.315 530.107 515.276 543.267C518.251 544.334 521.203 545.347 524.124 546.294Z" fill="#F8D6CD"/>
<path d="M479.16 242.3C483.308 248.016 482.035 256.016 476.315 260.162C470.6 264.308 462.6 263.035 458.455 257.316C454.308 251.6 455.58 243.6 461.3 239.456C467.017 235.304 475.016 236.582 479.16 242.3Z" fill="#F1BD1B"/>
<path d="M490.847 369.299C501.316 398.551 497.057 416.508 477.609 434.134C457.487 452.375 425.188 453.856 408.34 437.46C375.385 405.383 373.085 293.876 361.348 260.406C358.608 252.588 352.34 243.499 345.184 238.667C341.677 236.299 341.437 235.938 337.739 233.811C335.853 232.726 334.503 231.482 333.601 230.184V230.18C332.015 227.908 331.812 225.474 332.549 223.452C333.62 220.526 336.663 218.462 340.371 219.002C341.539 219.171 343.081 219.451 344.961 219.894L344.976 219.827C343.476 218.95 341.987 218.095 340.511 217.319C337.999 215.979 336.412 214.055 335.732 212.034V212.03C334.84 209.387 335.491 206.586 337.623 204.695C339.667 202.891 343.076 201.927 347.797 202.756C348.955 202.887 350.42 203.123 352.176 203.508C351.655 203.219 351.139 202.944 350.623 202.67C348.048 201.29 346.443 199.386 345.781 197.403C344.653 194.043 346.244 190.464 350.449 188.854C352.383 188.111 354.872 187.788 357.9 188.092C360.528 188.358 364.796 189.24 370.413 191.135C369.473 190.59 368.532 190.055 367.597 189.563C358.661 184.779 363.827 173.727 374.879 174.986C374.932 174.995 374.985 175 375.043 175.004C388.159 176.528 400.537 182.031 410.417 190.798C427.523 205.982 430.304 217.704 438.656 251.238C439.472 254.507 440.605 258.134 441.988 262.04H441.993C452.931 292.795 479.587 340.598 489.029 364.478C489.68 366.116 490.283 367.727 490.847 369.299Z" fill="#EFBC83"/>
<path d="M305.536 577.307C305.733 576.094 319.057 497.303 404.352 499.706C342.735 500.226 329.227 562.107 329.227 562.107H325.34C325.34 570.36 316.265 577.32 305.531 577.32H305.536V577.307Z" fill="#F8D6CD"/>
<path d="M371.503 453.055C373.736 467.807 375.361 480.917 375.361 480.917C375.361 480.917 355.132 474.972 337.179 468.852V468.848C340.457 463.655 345.376 458.041 351.511 452.833C357.64 447.625 363.976 443.682 369.632 441.28C370.283 445.176 370.915 449.174 371.503 453.055Z" fill="#3877E5"/>
<path d="M352.253 171.166C348.651 174.252 344.899 175.13 341.163 174.484C323.845 171.494 306.9 135.844 306.9 135.844V135.839C297.565 144.683 275.995 162.395 264.235 150.011C248.904 158.363 239.603 160.143 233.98 159.024C233.965 159.92 233.96 160.924 233.96 162.023C233.96 162.023 228.608 161.695 225.464 167.684C207.043 157.858 218.94 140.743 218.94 140.743C198.845 131.33 193.633 110.398 214.272 95.7605C220.361 91.4538 227.152 89.6271 233.271 89.4404C235.368 98.9338 249.064 106.058 251.561 99.7872C253.717 94.3738 244.661 89.0804 233.271 89.4404C232.779 87.2271 232.915 84.8938 233.96 82.5738C242.645 63.3071 284.849 84.5872 284.849 84.5872C298.553 56.4805 328.788 99.7872 328.788 99.7872L329.309 100.494C334.936 98.4938 344.195 97.3337 351.665 106.67C355.831 111.878 356.092 118.06 354.293 123.394C343.037 120.244 330.76 128.495 335.732 133.626C341.509 139.591 351.12 132.82 354.293 123.394C358.763 124.638 363.069 127.684 366.073 133.428C376.972 154.264 364 172.579 352.513 180.024C352.615 179.326 352.701 178.602 352.784 177.859C353.024 175.627 352.841 173.342 352.257 171.171L352.253 171.166Z" fill="#F05751"/>
<path d="M319.767 462.468C314.852 460.452 311.323 458.692 310.281 457.468C310.219 457.395 310.16 457.318 310.103 457.246L310.083 457.217C307.528 453.827 308.96 447.674 313.324 440.759C316.597 435.566 321.521 429.949 327.645 424.745C342.136 412.439 357.852 407.134 362.747 412.902L362.751 412.906C364.809 415.342 367.361 427.73 369.632 441.281C363.976 443.682 357.64 447.626 351.511 452.834C345.376 458.042 340.457 463.655 337.179 468.849V468.853C330.736 466.659 324.584 464.44 319.767 462.468Z" fill="white"/>
<path d="M305.945 346.027L362.747 412.901C357.852 407.133 342.136 412.439 327.645 424.744C321.521 429.948 316.597 435.565 313.324 440.759L292.005 415.673C294.421 414.805 296.451 413.021 297.449 410.64C299.692 405.296 297.011 398.237 279.693 395.917C281.521 395.685 283.267 395.377 284.931 394.948C287.907 394.181 290.437 392.055 291.469 389.156C293.428 383.66 290.317 376.696 272.572 375.399C266.939 374.993 261.852 374.897 257.367 374.989V374.897L171.176 273.435L171.167 273.429C174.44 268.231 179.369 262.608 185.497 257.4C199.984 245.099 215.704 239.795 220.593 245.557L305.945 346.027Z" fill="#F1BD1B"/>
<path d="M484.675 35.9602C484.391 47.0669 479.433 57.2668 471.069 63.9468C464.648 69.0801 453.323 74.4668 435.86 70.9735C429.105 69.6268 419.965 68.9734 414.767 73.5468C409.836 77.8801 410.119 85.4935 410.124 85.5602C410.377 89.2002 407.631 92.3468 403.997 92.6002C402.007 92.7335 400.168 91.9735 398.861 90.6668C397.787 89.5735 397.076 88.1068 396.961 86.4668C396.923 85.8935 396.116 72.3735 406.06 63.6401C413.48 57.1068 424.376 55.2268 438.443 58.0401C448.327 60.0135 456.76 58.4801 462.837 53.6401C468.149 49.3868 471.303 42.8269 471.489 35.6269C471.724 26.2935 465.301 17.7602 456.207 15.3602C444.545 12.2535 437.611 22.2135 437.54 22.3068C435.491 25.3201 431.387 26.0935 428.377 24.0401C425.365 22.0001 424.585 17.8934 426.639 14.8801C427.132 14.1468 439 -2.85317 459.585 2.60017C474.515 6.56017 485.071 20.5869 484.675 35.9602Z" fill="#3877E5"/>
<path d="M352.257 171.171C352.841 173.342 353.024 175.627 352.784 177.859C352.701 178.602 352.615 179.326 352.513 180.024C352.027 183.472 351.308 186.39 350.449 188.854C346.244 190.464 344.653 194.043 345.781 197.403C342.353 201.45 338.876 202.255 338.119 202.384C341.22 187.368 341.065 175.043 341.065 175.043L341.163 174.484C344.899 175.13 348.651 174.252 352.253 171.166L352.257 171.171Z" fill="#EFBC83"/>
<path d="M335.732 133.626C330.76 128.495 343.037 120.244 354.293 123.394C351.12 132.82 341.509 139.591 335.732 133.626Z" fill="#F05751"/>
<path d="M407.865 105.741C412.844 110.749 412.815 118.848 407.807 123.827C402.795 128.804 394.699 128.781 389.721 123.768C384.739 118.76 384.768 110.66 389.776 105.681C394.788 100.707 402.884 100.733 407.865 105.741Z" fill="#3877E5"/>
<path d="M292.005 415.674L313.324 440.759C308.96 447.674 307.528 453.827 310.083 457.216L288.196 431.447C289.453 430.507 290.467 429.263 291.084 427.787C292.579 424.204 291.875 419.86 286.049 416.687C287.621 416.562 289.14 416.363 290.601 416.07C291.079 415.974 291.552 415.843 292.005 415.674Z" fill="#E77725"/>
<path d="M305.536 493.624V577.32H305.531C305.415 576.414 294.219 488.923 197.413 500.178C197.356 500.183 197.297 500.192 197.24 500.196C134.377 506.88 45.0811 578.054 11.0993 523.334L11.075 523.294L94.9279 466.23C128.017 483.859 194.925 467.715 223.231 456.098C226.033 454.946 228.912 454.006 231.863 453.311C237.481 451.995 247.173 450.582 261.283 452.41C267.34 453.195 271.809 452.55 274.887 451.098C274.887 451.098 295.747 456.223 305.531 474.032V474.036L305.536 493.624Z" fill="white"/>
<path d="M305.531 577.32C294.792 577.32 285.721 570.36 285.721 562.107H281.903C281.903 562.107 268.396 500.226 206.783 499.706C203.735 499.68 200.611 499.844 197.413 500.178C294.219 488.923 305.415 576.414 305.531 577.32Z" fill="#F8D6CD"/>
<path d="M289.203 261.11C286.108 261.182 283.001 260.671 280.071 259.61C273.768 257.334 269.032 253.124 265.459 247.935L265.464 247.929C268.468 249.945 271.761 251.633 275.364 252.935C282.795 255.621 290.9 256.147 298.592 254.32C302.724 253.34 306.457 251.827 309.823 249.883C306.105 254.894 301.095 258.843 294.305 260.457C292.811 260.815 291.291 261.023 289.768 261.095C289.579 261.099 289.391 261.11 289.203 261.11Z" fill="#EFBC83"/>
<path d="M241.319 376.267C245.133 375.703 250.553 375.13 257.367 374.99C261.852 374.898 266.939 374.994 272.572 375.399C290.317 376.696 293.428 383.66 291.469 389.156C290.437 392.055 287.907 394.182 284.931 394.948C283.267 395.378 281.521 395.686 279.693 395.918C297.011 398.238 299.692 405.296 297.449 410.64C296.451 413.022 294.421 414.806 292.005 415.674C291.552 415.843 291.079 415.974 290.601 416.07C289.14 416.363 287.621 416.562 286.049 416.687C291.875 419.86 292.579 424.204 291.084 427.787C290.467 429.263 289.453 430.507 288.196 431.447C287.043 432.311 285.679 432.918 284.236 433.207C280.775 433.911 276.96 434.075 272.847 434.066L272.827 434.114V434.119C281.295 437.278 283.248 447.158 274.887 451.098C271.809 452.55 267.34 453.195 261.283 452.41C247.173 450.582 237.481 451.995 231.863 453.311C228.912 454.006 226.033 454.946 223.231 456.098C194.925 467.715 128.017 483.859 94.9279 466.23C93.6453 465.55 92.4106 464.816 91.2346 464.026C86.4173 460.804 82.5253 456.702 79.8386 451.551C62.5186 418.322 94.5759 379.575 106.559 366.816C106.559 366.816 145.623 377.183 171.991 379.32C175.024 379.571 177.888 379.706 180.507 379.706C205.891 379.706 231.564 364.791 231.564 364.791H231.569L241.319 376.267Z" fill="#EFBC83"/>
<path d="M278.976 575.12C278.976 575.12 278.98 575.134 278.985 575.134H12.71C14.2818 570.827 15.01 566.347 15.237 562.107H15.3089C15.3089 562.107 43.8132 578.467 110.455 562.107C177.083 545.747 226.997 527.587 278.976 575.12Z" fill="#F8D6CD"/>
<path d="M274.92 563.307C275.147 567.587 276.593 571.613 278.976 575.12C226.997 527.587 177.083 545.747 110.455 562.107C43.8131 578.467 15.3089 562.107 15.3089 562.107H15.237C15.8298 550.773 12.8402 541.093 12.7146 540.693C28.2131 557.747 51.9479 556.547 78.7067 548.853C247.173 502.933 274.279 561.853 274.92 563.293V563.307Z" fill="#D6AEA5"/>
<path d="M274.92 563.294C274.279 561.854 247.173 502.934 78.7065 548.854C81.4399 548.067 84.2079 547.214 87.0052 546.294C89.9265 545.347 92.8825 544.334 95.8532 543.267C132.82 530.107 173.192 509.814 204.7 510.067C251.364 510.467 269.065 546.041 274.92 563.294Z" fill="#F8D6CD"/>
<path d="M261.025 176.604C264.436 176.604 267.201 181.046 267.201 186.522C267.201 191.995 264.436 196.435 261.025 196.435C257.613 196.435 254.848 191.995 254.848 186.522C254.848 181.046 257.613 176.604 261.025 176.604Z" fill="#4D1111"/>
<path d="M308.432 176.604C311.843 176.604 314.608 181.046 314.608 186.522C314.608 191.995 311.843 196.435 308.432 196.435C305.02 196.435 302.255 191.995 302.255 186.522C302.255 181.046 305.02 176.604 308.432 176.604Z" fill="#4D1111"/>
<path d="M257.367 374.898V374.99C250.553 375.13 245.133 375.703 241.319 376.267L231.569 364.791L168.027 289.994L167.955 289.903C165.371 286.522 166.803 280.359 171.167 273.43L171.176 273.435L257.367 374.898Z" fill="#E77725"/>
<path d="M233.271 89.4404C244.661 89.0804 253.717 94.3738 251.561 99.7871C249.064 106.058 235.368 98.9337 233.271 89.4404Z" fill="#F05751"/>
<path d="M225.464 167.684C228.608 161.695 233.96 162.023 233.96 162.023C233.98 171.108 234.675 186.598 238.416 202.404C238.117 202.366 226.081 200.779 223.603 177.855C223.352 175.55 223.559 173.202 224.185 170.968C224.537 169.706 224.977 168.615 225.464 167.684Z" fill="#EFBC83"/>
<path d="M209.368 232.34L220.593 245.558C215.704 239.795 199.984 245.099 185.497 257.4C179.369 262.608 174.44 268.231 171.167 273.43C166.803 280.359 165.371 286.521 167.955 289.903L156.753 276.723L156.724 276.684C152.211 270.772 159.969 256.335 174.267 244.183C188.753 231.882 204.473 226.578 209.368 232.34Z" fill="white"/>
<path d="M125.793 69.027C136.115 73.1203 143.971 81.2937 147.356 91.4537C149.949 99.2537 151.099 111.743 141.795 126.92C138.196 132.796 134.428 141.152 136.919 147.607C139.285 153.736 146.523 156.091 146.596 156.111C150.093 157.134 152.1 160.798 151.076 164.295C150.52 166.206 149.171 167.671 147.487 168.443C146.097 169.079 144.48 169.242 142.899 168.779C142.348 168.618 129.379 164.703 124.615 152.358C121.053 143.138 123.051 132.262 130.544 120.03C135.811 111.438 137.291 102.999 134.837 95.6136C132.688 89.1602 127.616 83.9469 120.923 81.2802C112.243 77.8269 102.024 80.9202 96.6186 88.6136C89.6919 98.4936 96.6293 108.44 96.7013 108.54C98.8186 111.506 98.1319 115.623 95.1666 117.74C92.2079 119.86 88.0839 119.171 85.9666 116.206C85.4533 115.491 73.5853 98.4803 85.8186 81.0403C94.6866 68.4003 111.501 63.347 125.793 69.027Z" fill="#F1BD1B"/>
<path d="M164.748 165.203C171.171 162.26 178.76 165.086 181.7 171.503C184.643 177.926 181.824 185.518 175.403 188.46C168.98 191.403 161.389 188.579 158.448 182.156C155.507 175.738 158.325 168.146 164.748 165.203Z" fill="#F1BD1B"/>
<path d="M297.015 303.488C297.015 310.991 293.645 317.074 289.488 317.074C285.331 317.074 281.96 310.991 281.96 303.488C281.96 295.986 285.331 289.903 289.488 289.903C293.645 289.903 297.015 295.986 297.015 303.488Z" fill="#4D1111"/>
<path d="M481.912 316.135C477.143 317.384 472.615 318.816 468.332 320.441C469.045 321.888 469.755 323.329 470.459 324.761C474.784 323.136 479.485 321.671 484.583 320.388C483.7 318.966 482.813 317.548 481.912 316.135ZM441.337 448.801C439.321 448.884 437.321 448.855 435.344 448.715C438.411 453.128 441.704 457.129 445.119 460.625C447.288 460.437 449.323 460.197 451.223 459.897C447.809 456.735 444.477 453.003 441.337 448.801ZM173.181 296.06L169.484 291.706H169.479C161.676 292.964 154.168 295.294 146.988 298.694C138.964 302.494 131.451 307.624 124.637 313.912C124.401 313.463 124.16 313.009 123.924 312.556C119.839 304.86 115.591 297.743 111.763 291.687C110.779 293.134 109.789 294.599 108.801 296.084C112.688 302.333 116.945 309.611 120.996 317.447C115.427 323.141 110.388 329.647 105.985 336.86C95.7626 353.618 90.116 372.694 89.8066 388.058C91.5813 385.332 93.3986 382.763 95.184 380.38C96.7506 367.983 101.544 353.391 110.099 339.372C112.977 334.656 117.341 328.392 123.331 322.071C131.635 338.944 138.544 357.832 138.747 374.232C140.339 374.551 141.959 374.868 143.588 375.178C143.661 359.694 138.096 340.69 126.957 318.444C137.759 308.188 152.957 298.563 173.181 296.06ZM184.036 308.839L180.488 304.663C173.977 320.504 169.368 337.343 167.232 353.584C166.069 362.393 165.66 370.818 165.983 378.722C167.603 378.91 169.195 379.074 170.741 379.214C169.772 356.944 174.985 331.715 184.036 308.839ZM245.38 230.44C236.873 233.42 228.497 238.464 220.477 245.423L220.593 245.557L223.597 249.092C230.729 242.891 238.123 238.32 245.611 235.484C245.491 233.801 245.413 232.119 245.38 230.44ZM500.867 452.751C506.847 447.129 511.08 440.735 513.829 433.752C509.677 440.98 505.289 447.399 500.867 452.751ZM356.328 303.438C360.615 302.078 365.047 301.311 369.56 301.36C369.319 299.715 369.073 298.091 368.827 296.499C365.172 296.523 361.464 297.02 357.707 297.979C359.177 292.68 360.948 287.703 363.016 283.103C363.851 281.241 364.733 279.443 365.659 277.701C365.176 275.199 364.684 272.832 364.179 270.619C362.143 273.903 360.292 277.403 358.619 281.126C356.043 286.855 353.912 293.056 352.224 299.706C343.776 302.855 335.129 308.314 326.416 316.043C324.521 304.258 321.945 293.128 318.748 283.088C318.643 282.76 318.541 282.438 318.435 282.115C317.225 283.715 315.971 285.114 314.693 286.276C317.856 296.556 320.359 307.956 322.153 320.003C315.609 326.357 309.128 333.972 302.937 342.483L305.945 346.027L306.144 346.264C311.579 338.712 317.244 331.869 322.983 325.991C324.743 339.825 325.587 354.384 325.437 368.976L330.148 374.527C330.64 356.622 329.637 338.631 327.279 321.782C333.924 315.571 342.005 309.403 350.897 305.492C349.041 314.452 347.941 324.154 347.615 334.531C347.045 352.547 348.892 372.505 352.952 392.243C353.825 396.481 354.789 400.663 355.831 404.761L362.747 412.901L362.751 412.906C362.929 413.114 363.108 413.397 363.291 413.745C361.16 406.569 359.264 399.023 357.673 391.273C351.024 358.936 350.652 328.118 356.328 303.438ZM379.831 453.875C374.792 445.234 370.013 434.298 365.891 421.986C367.139 427.208 368.427 434.08 369.632 441.28C369.907 442.915 370.177 444.563 370.437 446.217C371.609 448.672 372.805 451.02 374.02 453.248L379.976 454.122C379.928 454.039 379.879 453.958 379.831 453.875ZM390.473 455.664C401.173 457.887 410.596 459.329 418.885 460.153C418.939 460.057 418.992 459.956 419.045 459.859L390.473 455.664ZM424.552 446.767C424.272 447.635 423.977 448.488 423.679 449.328C422.271 453.253 420.719 456.783 419.045 459.859L424.117 460.601C425.584 457.704 426.959 454.478 428.221 450.952C428.579 449.959 428.92 448.952 429.248 447.924C427.652 447.62 426.085 447.235 424.552 446.767Z" fill="white"/>
<path d="M65.436 396.863C69.7653 403.247 73.5707 409.621 76.8347 415.935C76.8347 415.939 76.8347 415.939 76.8347 415.939C76.1507 418.528 75.62 421.147 75.2773 423.784C71.1013 414.778 66.2026 406.575 61.448 399.568C60.488 398.149 59.5186 396.762 58.5493 395.407V395.401C59.1133 393.521 59.7213 391.626 60.3626 389.711C62.0653 392.007 63.7573 394.394 65.436 396.863Z" fill="white"/>
<path d="M90.9841 464.025C89.3001 464.025 87.6801 463.972 86.1228 463.861C86.0361 462.42 85.9148 460.988 85.7561 459.56C87.3374 461.137 89.0788 462.564 90.9734 463.847C90.9841 463.905 90.9841 463.963 90.9841 464.025Z" fill="white"/>
<path d="M156.753 276.723L157.399 277.486C152.225 278.407 146.771 278.874 141.091 278.874C140.599 278.874 140.101 278.87 139.605 278.864C132.488 278.763 126.34 277.978 121.995 277.22L124.932 273.271L125.264 272.827C132.237 273.864 142.629 274.703 153.735 273.164L156.724 276.684L156.753 276.723Z" fill="white"/>
<path d="M213.481 211.74C212.617 219.118 211.18 225.912 209.18 232.119L205.461 227.745C206.788 223.091 207.8 218.101 208.495 212.777L213.481 211.74Z" fill="white"/>
<path d="M308.433 370.027C307.22 370.027 306.015 369.521 305.156 368.535L218.979 269.413C217.407 267.604 217.597 264.863 219.407 263.291C221.215 261.719 223.956 261.909 225.529 263.719L311.707 362.84C313.28 364.648 313.088 367.39 311.279 368.963C310.457 369.678 309.443 370.027 308.433 370.027Z" fill="white"/>
<path d="M510.252 257.287C510.252 255.46 511.733 253.979 513.559 253.979C515.385 253.979 516.865 255.46 516.865 257.287C516.865 259.112 515.385 260.594 513.559 260.594C511.733 260.594 510.252 259.112 510.252 257.287Z" fill="#4D1111"/>
<path d="M536.419 257.287C536.419 255.46 537.9 253.979 539.725 253.979C541.552 253.979 543.033 255.46 543.033 257.287C543.033 259.112 541.552 260.594 539.725 260.594C537.9 260.594 536.419 259.112 536.419 257.287Z" fill="#4D1111"/>
<path d="M523.336 257.287C523.336 255.46 524.816 253.979 526.643 253.979C528.469 253.979 529.949 255.46 529.949 257.287C529.949 259.112 528.469 260.594 526.643 260.594C524.816 260.594 523.336 259.112 523.336 257.287Z" fill="#4D1111"/>
<path d="M513.559 280.274C515.385 280.274 516.865 281.755 516.865 283.58C516.865 285.407 515.385 286.887 513.559 286.887C511.733 286.887 510.252 285.407 510.252 283.58C510.252 281.755 511.733 280.274 513.559 280.274Z" fill="#4D1111"/>
<path d="M513.559 267.191C515.385 267.191 516.865 268.671 516.865 270.498C516.865 272.323 515.385 273.804 513.559 273.804C511.733 273.804 510.252 272.323 510.252 270.498C510.252 268.671 511.733 267.191 513.559 267.191Z" fill="#4D1111"/>
<path d="M526.643 280.274C528.469 280.274 529.949 281.755 529.949 283.58C529.949 285.407 528.469 286.887 526.643 286.887C524.816 286.887 523.336 285.407 523.336 283.58C523.336 281.755 524.816 280.274 526.643 280.274Z" fill="#4D1111"/>
<path d="M526.643 267.191C528.469 267.191 529.949 268.671 529.949 270.498C529.949 272.323 528.469 273.804 526.643 273.804C524.816 273.804 523.336 272.323 523.336 270.498C523.336 268.671 524.816 267.191 526.643 267.191Z" fill="#4D1111"/>
<path d="M539.725 280.274C541.552 280.274 543.033 281.755 543.033 283.58C543.033 285.407 541.552 286.887 539.725 286.887C537.9 286.887 536.419 285.407 536.419 283.58C536.419 281.755 537.9 280.274 539.725 280.274Z" fill="#4D1111"/>
<path d="M539.725 267.191C541.552 267.191 543.033 268.671 543.033 270.498C543.033 272.323 541.552 273.804 539.725 273.804C537.9 273.804 536.419 272.323 536.419 270.498C536.419 268.671 537.9 267.191 539.725 267.191Z" fill="#4D1111"/>
<path d="M172.801 67.0137C172.555 67.0137 172.307 66.9204 172.119 66.7337L165.504 60.1204C165.127 59.7338 165.127 59.1203 165.504 58.747C165.881 58.3737 166.491 58.3737 166.868 58.747L173.483 65.3604C173.86 65.7471 173.86 66.3471 173.483 66.7337C173.295 66.9204 173.048 67.0137 172.801 67.0137Z" fill="#4D1111"/>
<path d="M188.884 83.0938C188.637 83.0938 188.391 83.0003 188.203 82.8137L181.588 76.2004C181.211 75.8271 181.211 75.2138 181.588 74.8271C181.964 74.4538 182.575 74.4538 182.952 74.8271L189.567 81.4538C189.943 81.8271 189.943 82.4403 189.567 82.8137C189.379 83.0003 189.132 83.0938 188.884 83.0938Z" fill="#4D1111"/>
<path d="M182.269 67.0137C182.023 67.0137 181.776 66.9204 181.588 66.7337C181.211 66.3471 181.211 65.7471 181.588 65.3604L188.203 58.747C188.579 58.3737 189.189 58.3737 189.567 58.747C189.943 59.1203 189.943 59.7338 189.567 60.1204L182.952 66.7337C182.763 66.9204 182.516 67.0137 182.269 67.0137Z" fill="#4D1111"/>
<path d="M166.185 83.0938C165.939 83.0938 165.692 83.0003 165.504 82.8137C165.127 82.4403 165.127 81.8271 165.504 81.4538L172.119 74.8271C172.496 74.4538 173.107 74.4538 173.483 74.8271C173.86 75.2138 173.86 75.8271 173.483 76.2004L166.868 82.8137C166.68 83.0003 166.433 83.0938 166.185 83.0938Z" fill="#4D1111"/>
<path d="M133.463 250.273C133.189 250.273 132.917 250.159 132.727 249.933C130.088 246.827 130.551 241.505 134.029 234.952C137.367 228.663 143.112 221.881 150.207 215.856C165.324 203.009 181.336 197.853 186.661 204.117C187.007 204.524 186.957 205.132 186.552 205.477C186.145 205.823 185.537 205.773 185.192 205.367C180.721 200.108 165.272 205.584 151.456 217.326C144.543 223.196 138.959 229.777 135.732 235.856C132.695 241.58 132.135 246.257 134.197 248.685C134.541 249.091 134.492 249.7 134.087 250.044C133.904 250.199 133.683 250.273 133.463 250.273Z" fill="#4D1111"/>
<path d="M156.903 277.871C156.641 277.871 156.381 277.766 156.192 277.559C156.12 277.48 156.053 277.396 155.989 277.312C155.664 276.89 155.743 276.284 156.165 275.959C156.588 275.635 157.193 275.714 157.517 276.136C157.549 276.176 157.579 276.218 157.613 276.255C157.973 276.647 157.947 277.258 157.555 277.618C157.369 277.787 157.136 277.871 156.903 277.871Z" fill="#4D1111"/>
<path d="M167.956 290.867C167.665 290.867 167.379 290.737 167.188 290.489C164.433 286.886 165.587 280.481 170.351 272.917C173.816 267.414 178.839 261.794 184.873 256.666C191.971 250.639 199.592 246.067 206.336 243.791C213.367 241.419 218.691 241.825 221.329 244.934C221.673 245.341 221.624 245.949 221.217 246.294C220.811 246.638 220.203 246.589 219.859 246.182C217.796 243.753 213.093 243.547 206.952 245.619C200.435 247.819 193.037 252.264 186.123 258.136C180.235 263.139 175.345 268.605 171.983 273.945C167.736 280.687 166.516 286.434 168.721 289.317C169.044 289.741 168.964 290.346 168.54 290.668C168.365 290.802 168.16 290.867 167.956 290.867Z" fill="#4D1111"/>
<path d="M168.133 291.088C167.868 291.088 167.603 290.979 167.412 290.764C167.359 290.704 167.312 290.646 167.265 290.584C166.939 290.164 167.016 289.558 167.436 289.232C167.857 288.906 168.463 288.982 168.789 289.403C168.811 289.43 168.831 289.456 168.855 289.483C169.208 289.882 169.172 290.491 168.773 290.844C168.591 291.008 168.361 291.088 168.133 291.088Z" fill="#4D1111"/>
<path d="M310.084 458.182C309.792 458.182 309.503 458.05 309.313 457.798C306.587 454.18 307.751 447.783 312.508 440.244C315.976 434.743 320.995 429.13 327.021 424.01C334.121 417.98 341.744 413.407 348.485 411.131C355.516 408.759 360.841 409.167 363.481 412.278C363.825 412.683 363.776 413.292 363.371 413.636C362.964 413.982 362.355 413.931 362.011 413.526C359.947 411.094 355.243 410.887 349.103 412.959C342.587 415.158 335.188 419.604 328.269 425.479C322.391 430.475 317.504 435.936 314.14 441.274C309.897 447.995 308.668 453.739 310.853 456.636C311.173 457.062 311.089 457.667 310.664 457.987C310.489 458.118 310.287 458.182 310.084 458.182Z" fill="#4D1111"/>
<path d="M375.361 481.882C375.269 481.882 375.179 481.87 375.089 481.843C374.887 481.784 354.635 475.822 336.868 469.766C329.675 467.317 323.799 465.162 319.401 463.361C312.003 460.326 310.233 458.901 309.547 458.093C309.499 458.038 309.448 457.974 309.397 457.91L309.349 457.85C309.017 457.434 309.084 456.827 309.5 456.494C309.915 456.161 310.521 456.227 310.855 456.643L310.916 456.719C310.947 456.758 310.977 456.798 311.009 456.837C311.5 457.413 313.329 458.786 320.132 461.576C324.493 463.362 330.333 465.503 337.489 467.94C352.509 473.059 369.312 478.112 374.219 479.574C373.732 475.748 372.327 464.939 370.549 453.201C369.925 449.082 369.297 445.125 368.681 441.439C365.039 419.707 362.94 414.625 362.015 413.529C361.671 413.122 361.721 412.514 362.128 412.17C362.535 411.826 363.143 411.877 363.487 412.283C364.185 413.109 366.309 415.621 370.583 441.121C371.201 444.817 371.831 448.783 372.456 452.911C374.665 467.506 376.301 480.669 376.317 480.799C376.357 481.122 376.233 481.443 375.985 481.654C375.808 481.803 375.587 481.882 375.361 481.882Z" fill="#4D1111"/>
<path d="M241.368 377.29C241.091 377.29 240.816 377.171 240.625 376.942L240.577 376.884L156.017 277.348C156.005 277.334 155.993 277.318 155.981 277.302L155.969 277.287L132.732 249.934C132.387 249.528 132.436 248.919 132.843 248.575C133.248 248.229 133.857 248.279 134.201 248.684L157.459 276.06C157.472 276.075 157.484 276.091 157.496 276.106L157.507 276.122L168.784 289.396L242.109 375.708C242.449 376.118 242.393 376.726 241.984 377.067C241.804 377.216 241.585 377.29 241.368 377.29Z" fill="#4D1111"/>
<path d="M310.291 458.427C310.021 458.427 309.752 458.315 309.561 458.095L309.373 457.877C309.352 457.852 309.332 457.827 309.313 457.8L287.46 432.072C287.116 431.665 287.165 431.057 287.571 430.712C287.977 430.368 288.585 430.417 288.931 430.823L310.819 456.592C310.836 456.613 310.853 456.635 310.869 456.657L311.02 456.831C311.368 457.233 311.324 457.843 310.923 458.192C310.74 458.349 310.515 458.427 310.291 458.427Z" fill="#4D1111"/>
<path d="M305.947 346.992C305.673 346.992 305.401 346.876 305.211 346.652L219.859 246.182L185.197 205.376C184.852 204.971 184.901 204.363 185.307 204.018C185.713 203.672 186.323 203.723 186.667 204.128L306.681 345.403C307.025 345.81 306.976 346.418 306.571 346.763C306.389 346.916 306.167 346.992 305.947 346.992Z" fill="#4D1111"/>
<path d="M362.747 413.87C362.501 413.87 362.256 413.776 362.069 413.588L362.064 413.583C362.045 413.564 362.028 413.546 362.011 413.526L305.211 346.652C304.865 346.246 304.916 345.638 305.321 345.292C305.727 344.948 306.336 344.998 306.681 345.403L363.476 412.271C363.804 412.65 363.791 413.226 363.431 413.586C363.241 413.775 362.995 413.87 362.747 413.87Z" fill="#4D1111"/>
<path d="M279.812 574.64C285.112 582.387 294.961 587.2 305.531 587.2C316.137 587.2 326.011 582.36 331.299 574.56C333.623 571.133 334.965 567.227 335.179 563.267C335.183 563.2 335.187 563.133 335.189 563.067H326.267C325.601 571.413 316.376 578.293 305.531 578.293C294.685 578.293 285.461 571.413 284.796 563.067H275.873C275.876 563.133 275.879 563.187 275.883 563.24C275.884 563.253 275.884 563.267 275.884 563.28C276.099 567.24 277.443 571.147 279.773 574.573C279.787 574.587 279.8 574.613 279.812 574.64ZM305.531 589.12C294.313 589.12 283.836 583.973 278.188 575.68C278.175 575.653 278.163 575.64 278.151 575.613C275.635 571.907 274.184 567.667 273.957 563.36C273.956 563.347 273.956 563.333 273.956 563.333C273.933 562.947 273.921 562.547 273.921 562.107C273.921 561.573 274.353 561.147 274.887 561.147H285.721C286.255 561.147 286.687 561.573 286.687 562.107C286.687 569.827 295.316 576.36 305.531 576.36C315.747 576.36 324.376 569.827 324.376 562.107C324.376 561.573 324.808 561.147 325.34 561.147H336.176C336.708 561.147 337.14 561.573 337.14 562.107C337.14 562.573 337.129 562.987 337.105 563.387C336.872 567.693 335.416 571.933 332.895 575.64C327.253 583.96 316.768 589.12 305.531 589.12Z" fill="#4D1111"/>
<path d="M274.931 564.294C274.576 564.294 274.236 564.094 274.067 563.761C274.055 563.734 274.04 563.707 274.028 563.667C273.836 563.214 274.033 562.667 274.488 562.441C274.965 562.201 275.544 562.401 275.783 562.867C275.796 562.894 275.809 562.934 275.821 562.961C276.013 563.427 275.816 563.961 275.361 564.187C275.223 564.267 275.075 564.294 274.931 564.294Z" fill="#4D1111"/>
<path d="M274.92 564.267C274.388 564.267 273.956 563.84 273.956 563.307V563.294C273.956 562.774 274.388 562.334 274.92 562.334C275.452 562.334 275.884 562.774 275.884 563.294C275.884 563.827 275.452 564.267 274.92 564.267Z" fill="#4D1111"/>
<path d="M274.92 564.267C274.476 564.267 274.101 563.96 273.989 563.56C268.651 547.854 251.237 511.44 204.691 511.027C181.349 510.84 152.583 522.227 124.76 533.24C115.32 536.974 105.557 540.84 96.1773 544.174C93.1759 545.254 90.1906 546.267 87.3039 547.214C84.4373 548.147 81.6346 549.014 78.9719 549.774C63.9559 554.094 51.6697 555.814 41.4135 555.014C29.1171 554.067 19.4958 549.587 12.001 541.347C10.0739 539.227 8.27447 536.814 6.65354 534.2C6.49994 533.96 6.46661 533.654 6.56301 533.374L10.189 523.014C10.3119 522.667 10.6245 522.414 10.9937 522.374C11.363 522.334 11.7229 522.507 11.9187 522.827C21.8745 538.854 37.0207 545.04 59.5839 542.28C79.7066 539.827 103.445 530.334 126.403 521.16C150.548 511.52 175.513 501.539 197.137 499.238C197.668 499.182 198.143 499.566 198.199 500.095C198.255 500.624 197.872 501.099 197.341 501.156C175.983 503.427 151.141 513.36 127.119 522.96C104.047 532.174 80.1893 541.707 59.8173 544.2C37.5338 546.92 21.6593 540.8 11.3593 525.507L8.53634 533.574C10.0317 535.947 11.6759 538.12 13.4286 540.04C26.6729 554.614 46.7229 557.054 78.4399 547.92C81.0799 547.16 83.8613 546.307 86.7066 545.374C89.5746 544.44 92.5426 543.427 95.5293 542.36C104.88 539.027 114.625 535.174 124.049 531.44C152.045 520.36 180.985 508.907 204.708 509.107C225.263 509.28 242.452 516.214 255.799 529.68C266.781 540.774 272.756 553.92 275.833 562.987C275.867 563.08 275.884 563.187 275.884 563.294C275.884 563.827 275.452 564.267 274.92 564.267Z" fill="#4D1111"/>
<path d="M281.901 563.067C281.459 563.067 281.059 562.76 280.96 562.32C280.927 562.16 277.479 546.8 266.623 531.6C256.647 517.64 238.165 500.935 206.775 500.67C203.833 500.646 200.716 500.803 197.513 501.136C196.983 501.191 196.509 500.807 196.455 500.278C196.399 499.748 196.784 499.274 197.313 499.219C200.588 498.878 203.777 498.718 206.791 498.74C221.017 498.862 233.873 502.26 245.004 508.84C253.907 514.107 261.721 521.414 268.232 530.547C279.297 546.054 282.811 561.747 282.845 561.907C282.959 562.427 282.628 562.934 282.108 563.054C282.039 563.067 281.969 563.067 281.901 563.067Z" fill="#4D1111"/>
<path d="M12.7099 576.094C12.6005 576.094 12.4886 576.08 12.3798 576.04C11.8792 575.854 11.6213 575.307 11.8036 574.8C13.1948 570.987 14.0255 566.694 14.274 562.054C14.8412 551.227 12.1213 542.04 11.7959 540.987C11.7636 540.88 11.7459 540.774 11.7459 540.68C11.7459 540.147 12.1771 539.72 12.7099 539.72C13.1443 539.72 13.512 540 13.6323 540.4C13.6339 540.4 13.635 540.4 13.636 540.414C13.9604 541.454 16.786 550.96 16.2 562.16C15.9418 566.987 15.0724 571.467 13.6161 575.467C13.4735 575.854 13.1036 576.094 12.7099 576.094Z" fill="#4D1111"/>
<path d="M4.43484 589.12C3.90257 589.12 3.4707 588.693 3.4707 588.16V575.133C3.4707 574.6 3.90257 574.173 4.43484 574.173H276.483C229.881 532.92 184.421 544.427 127.067 558.947C121.753 560.28 116.26 561.68 110.685 563.04C76.1146 571.533 51.9488 571.08 37.7644 569.2C22.2978 567.147 15.1264 563.12 14.8291 562.947C14.3671 562.68 14.2078 562.093 14.4728 561.627C14.7374 561.173 15.3259 561.013 15.7879 561.267C15.8587 561.307 23.0291 565.32 38.1806 567.307C52.1796 569.133 76.0426 569.56 110.225 561.173C115.793 559.8 121.284 558.413 126.593 557.067C185.267 542.227 231.611 530.493 279.627 574.4C279.64 574.413 279.653 574.427 279.667 574.44C279.671 574.44 279.673 574.453 279.677 574.453C279.952 574.733 280.035 575.147 279.885 575.507C279.736 575.867 279.385 576.093 278.995 576.093H5.39937V588.16C5.39937 588.693 4.96764 589.12 4.43484 589.12Z" fill="#4D1111"/>
<path d="M329.228 563.067C329.16 563.067 329.091 563.067 329.021 563.054C328.501 562.934 328.172 562.427 328.285 561.907C328.319 561.747 331.832 546.054 342.897 530.547C349.409 521.414 357.224 514.107 366.128 508.84C377.259 502.26 390.116 498.862 404.344 498.74C428.108 498.54 456.9 510.04 484.733 521.16C507.689 530.334 531.427 539.827 551.549 542.28C574.1 545.04 589.243 538.867 599.201 522.854C599.368 522.56 599.679 522.374 600.035 522.374C600.568 522.374 601 522.8 601 523.334C601 523.52 600.949 523.694 600.855 523.854C590.595 540.36 574.391 547.014 551.315 544.2C530.944 541.707 507.088 532.174 484.017 522.96C456.357 511.907 427.761 500.46 404.36 500.67C372.967 500.935 354.484 517.64 344.508 531.6C333.651 546.8 330.203 562.16 330.169 562.32C330.071 562.76 329.672 563.067 329.228 563.067Z" fill="#4D1111"/>
<path d="M598.409 541.667C598.177 541.667 597.945 541.574 597.76 541.414C597.367 541.054 597.339 540.44 597.697 540.054C599.439 538.134 601.087 535.96 602.597 533.574L599.125 523.654C598.949 523.16 599.213 522.6 599.716 522.427C600.22 522.254 600.769 522.52 600.945 523.014L604.572 533.374C604.668 533.654 604.635 533.96 604.48 534.2C602.841 536.84 601.039 539.24 599.123 541.347C598.932 541.56 598.672 541.667 598.409 541.667Z" fill="#4D1111"/>
<path d="M564.709 555.2C555.497 555.2 544.76 553.4 532.075 549.747C531.563 549.6 531.268 549.067 531.415 548.56C531.563 548.04 532.096 547.747 532.609 547.894C564.371 557.054 584.445 554.627 597.696 540.054C598.055 539.654 598.664 539.627 599.059 539.987C599.453 540.347 599.481 540.96 599.124 541.347C591.623 549.6 581.991 554.08 569.677 555.014C568.072 555.147 566.416 555.2 564.709 555.2Z" fill="#4D1111"/>
<path d="M336.204 564.294C336.059 564.294 335.912 564.267 335.773 564.187C335.321 563.961 335.124 563.427 335.309 562.974C338.384 553.907 344.349 540.787 355.324 529.694C368.671 516.214 385.863 509.281 406.421 509.107C430.145 508.921 459.093 520.361 487.095 531.454C496.515 535.174 506.256 539.027 515.6 542.361C518.644 543.441 521.613 544.467 524.424 545.374C527.331 546.321 529.956 547.134 532.449 547.854C532.961 548.001 533.257 548.534 533.109 549.054C532.961 549.561 532.427 549.854 531.915 549.707C529.4 548.987 526.755 548.161 523.827 547.214C520.997 546.294 518.012 545.267 514.952 544.174C505.577 540.841 495.82 536.974 486.384 533.241C458.556 522.227 429.783 510.841 406.439 511.027C359.816 511.441 342.436 547.934 337.128 563.614C337.113 563.654 337.087 563.721 337.068 563.761C336.899 564.094 336.557 564.294 336.204 564.294Z" fill="#4D1111"/>
<path d="M532.343 549.787C532.259 549.787 532.173 549.774 532.088 549.76L531.928 549.707C531.415 549.574 531.112 549.04 531.252 548.52C531.392 548.014 531.923 547.707 532.437 547.854L532.596 547.894C533.109 548.027 533.412 548.56 533.272 549.08C533.155 549.507 532.767 549.787 532.343 549.787Z" fill="#4D1111"/>
<path d="M532.743 549.894C532.655 549.894 532.565 549.894 532.476 549.867L532.312 549.814C532.229 549.8 532.148 549.774 532.067 549.747C531.556 549.6 531.265 549.054 531.417 548.547C531.568 548.04 532.105 547.747 532.616 547.894C532.681 547.92 532.748 547.934 532.815 547.96L533.007 548.014C533.519 548.16 533.816 548.694 533.669 549.2C533.548 549.627 533.161 549.894 532.743 549.894Z" fill="#4D1111"/>
<path d="M598.42 576.094C598.025 576.094 597.656 575.854 597.513 575.467C596.06 571.467 595.193 566.987 594.935 562.16C594.369 551.427 596.921 542.294 597.472 540.467C597.491 540.4 597.516 540.334 597.549 540.267C597.705 539.934 598.036 539.72 598.42 539.72C598.952 539.72 599.384 540.147 599.384 540.68C599.384 540.76 599.372 540.84 599.349 540.934C599.341 540.96 599.331 541 599.317 541.04C598.936 542.307 596.304 551.507 596.861 562.054C597.109 566.694 597.939 570.987 599.327 574.8C599.508 575.307 599.249 575.854 598.749 576.04C598.64 576.08 598.529 576.094 598.42 576.094Z" fill="#4D1111"/>
<path d="M606.7 589.12C606.167 589.12 605.735 588.693 605.735 588.16V576.093H332.14C331.741 576.093 331.385 575.853 331.241 575.48C331.097 575.107 331.195 574.693 331.489 574.427C379.501 530.493 425.849 542.227 484.528 557.067C489.841 558.413 495.336 559.8 500.909 561.173C535.089 569.56 558.952 569.133 572.949 567.307C588.1 565.32 595.271 561.307 595.341 561.267C595.804 561.013 596.393 561.173 596.657 561.627C596.921 562.093 596.763 562.68 596.3 562.947C596.003 563.12 588.832 567.147 573.365 569.2C559.181 571.08 535.017 571.533 500.449 563.04C494.869 561.68 489.372 560.28 484.055 558.933C426.701 544.427 381.245 532.92 334.653 574.173H606.7C607.232 574.173 607.664 574.6 607.664 575.133V588.16C607.664 588.693 607.232 589.12 606.7 589.12Z" fill="#4D1111"/>
<path d="M305.537 578.267C305.485 578.267 305.433 578.267 305.38 578.254C304.855 578.174 304.499 577.68 304.584 577.147C304.721 576.307 308.115 556.307 322.249 536.587C330.457 525.147 340.635 516.134 352.501 509.8C367.287 501.907 384.74 498.19 404.379 498.742C404.911 498.756 405.331 499.2 405.316 499.732C405.301 500.264 404.861 500.686 404.324 500.67C369.241 499.682 342.149 512.147 323.816 537.72C309.943 557.067 306.623 576.64 306.488 577.467C306.411 577.934 306.001 578.267 305.537 578.267Z" fill="#4D1111"/>
<path d="M305.531 578.28C304.999 578.28 304.567 577.854 304.567 577.32C304.567 576.787 304.999 576.347 305.531 576.347C306.064 576.347 306.497 576.787 306.497 577.32C306.497 577.707 306.265 578.054 305.929 578.2C305.808 578.254 305.673 578.28 305.531 578.28Z" fill="#4D1111"/>
<path d="M305.529 578.28C305.052 578.28 304.637 577.92 304.575 577.44C304.457 576.534 301.541 554.88 286.936 534.734C267.413 507.814 237.331 496.508 197.525 501.136L197.445 501.144C197.404 501.15 197.361 501.155 197.32 501.158C195.48 501.374 193.548 501.635 191.608 501.931C191.081 502.012 190.589 501.65 190.509 501.124C190.429 500.598 190.791 500.106 191.317 500.024C193.279 499.726 195.233 499.46 197.128 499.239L197.208 499.23C197.249 499.226 197.292 499.22 197.333 499.216C219.563 496.631 239.148 499.071 255.513 506.467C268.653 512.414 279.751 521.547 288.497 533.6C303.388 554.134 306.368 576.267 306.488 577.2C306.556 577.72 306.183 578.2 305.653 578.267C305.612 578.28 305.571 578.28 305.529 578.28Z" fill="#4D1111"/>
<path d="M600.034 524.307C599.848 524.307 599.659 524.254 599.492 524.134L498.372 455.31L480.196 442.942C479.52 445.109 477.58 449.312 472.151 453.236C462.149 460.464 439.815 466.915 390.209 456.594C384.072 455.319 377.757 454.452 371.441 454.018C370.911 453.98 370.509 453.52 370.545 452.99C370.583 452.458 371.043 452.058 371.575 452.094C377.976 452.534 384.379 453.412 390.603 454.706C439.385 464.855 461.203 458.699 470.916 451.748C477.865 446.775 478.617 441.298 478.625 441.243C478.665 440.91 478.879 440.619 479.184 440.481C479.491 440.342 479.847 440.371 480.125 440.561L600.577 522.547C601.019 522.841 601.132 523.441 600.832 523.881C600.645 524.161 600.342 524.307 600.034 524.307Z" fill="#4D1111"/>
<path d="M305.531 474.996C305.309 474.996 305.085 474.92 304.904 474.764C304.499 474.417 304.452 473.809 304.799 473.404C308.787 468.747 313.649 464.792 319.253 461.649C319.403 461.555 319.581 461.499 319.771 461.499C320.304 461.499 320.736 461.931 320.736 462.463C320.736 462.729 320.627 462.971 320.453 463.145C320.389 463.209 320.317 463.264 320.237 463.309C314.815 466.344 310.113 470.163 306.264 474.659C306.073 474.881 305.803 474.996 305.531 474.996Z" fill="#4D1111"/>
<path d="M11.0182 524.307C10.7062 524.307 10.4004 524.147 10.2144 523.867C9.91923 523.427 10.0395 522.827 10.4832 522.534L10.5411 522.494L94.3852 465.433C94.4212 465.409 94.4586 465.386 94.4959 465.367C94.9732 465.128 95.5572 465.319 95.7946 465.797C96.0226 466.25 95.8626 466.795 95.4346 467.051L11.5515 524.147C11.3874 524.254 11.2015 524.307 11.0182 524.307Z" fill="#4D1111"/>
<path d="M352.175 204.472C352.016 204.472 351.856 204.433 351.708 204.351C351.192 204.065 350.681 203.792 350.169 203.52C347.527 202.106 345.644 200.041 344.867 197.708C343.509 193.667 345.664 189.655 350.104 187.954C352.313 187.104 354.968 186.828 357.996 187.132C359.899 187.324 364.081 187.98 370.721 190.22C377.769 192.558 385.307 195.976 393.117 200.383C393.581 200.644 393.745 201.232 393.484 201.696C393.221 202.16 392.633 202.324 392.169 202.063C384.467 197.717 377.045 194.348 370.109 192.05C363.644 189.87 359.624 189.235 357.803 189.051C355.079 188.777 352.721 189.015 350.795 189.754C347.316 191.087 345.669 194.037 346.696 197.096C347.317 198.961 348.873 200.639 351.079 201.819C351.597 202.096 352.119 202.374 352.644 202.666C353.109 202.924 353.277 203.511 353.019 203.976C352.843 204.294 352.513 204.472 352.175 204.472Z" fill="#4D1111"/>
<path d="M382.555 216.847C382.395 216.847 382.232 216.807 382.083 216.723C367.741 208.649 357.06 205.568 351.969 204.451C350.395 204.104 348.956 203.857 347.689 203.715C347.669 203.712 347.649 203.709 347.631 203.705C343.635 203.004 340.308 203.612 338.26 205.417C336.457 207.016 335.853 209.373 336.647 211.72C336.816 212.225 336.545 212.772 336.041 212.943C335.536 213.113 334.989 212.843 334.819 212.337C333.785 209.277 334.615 206.073 336.983 203.973C339.475 201.775 343.363 201.004 347.935 201.801C349.26 201.951 350.756 202.209 352.383 202.567C357.579 203.708 368.468 206.847 383.028 215.041C383.493 215.303 383.657 215.891 383.396 216.355C383.219 216.669 382.892 216.847 382.555 216.847Z" fill="#4D1111"/>
<path d="M344.976 220.791C344.811 220.791 344.643 220.748 344.489 220.659C343.175 219.89 341.62 218.992 340.063 218.172C337.481 216.795 335.62 214.726 334.819 212.342C334.648 211.836 334.92 211.29 335.424 211.12C335.929 210.95 336.476 211.222 336.647 211.727C337.291 213.642 338.825 215.326 340.965 216.468C342.552 217.303 344.129 218.214 345.464 218.994C345.923 219.263 346.077 219.854 345.809 220.314C345.629 220.62 345.307 220.791 344.976 220.791Z" fill="#4D1111"/>
<path d="M370.895 231.491C370.735 231.491 370.572 231.451 370.423 231.367C359.153 225.019 350.236 222.134 344.74 220.833C343.133 220.454 341.575 220.151 340.233 219.957C337.228 219.519 334.44 221.093 333.456 223.785C332.759 225.691 333.092 227.767 334.392 229.627C334.696 230.065 334.589 230.666 334.153 230.971C333.716 231.275 333.115 231.169 332.811 230.733C331.164 228.375 330.739 225.602 331.644 223.122C332.945 219.563 336.591 217.477 340.511 218.049C341.925 218.253 343.499 218.558 345.184 218.955C350.801 220.286 359.904 223.227 371.369 229.687C371.833 229.949 371.997 230.537 371.736 231.001C371.559 231.315 371.232 231.491 370.895 231.491Z" fill="#4D1111"/>
<path d="M439.099 449.775C427.107 449.776 415.677 445.947 407.667 438.152C385.355 416.434 377.047 359.374 370.372 313.524C367.104 291.072 364.28 271.683 360.437 260.724C357.529 252.423 351.183 243.88 344.644 239.466C343.597 238.759 342.841 238.231 342.196 237.78C340.665 236.711 339.821 236.122 337.257 234.647C335.345 233.547 333.848 232.231 332.809 230.735C332.505 230.298 332.613 229.696 333.051 229.392C333.488 229.088 334.088 229.196 334.393 229.634C335.268 230.894 336.556 232.018 338.22 232.975C340.856 234.491 341.776 235.134 343.301 236.199C343.939 236.644 344.688 237.168 345.724 237.867C352.579 242.496 359.223 251.426 362.257 260.087C366.163 271.22 368.997 290.696 372.281 313.247C378.913 358.807 387.168 415.507 409.012 436.77C425.52 452.834 457.273 451.268 476.963 433.419C496.42 415.784 500.059 397.899 489.939 369.624C489.331 367.93 488.74 366.363 488.132 364.832C484.125 354.698 476.912 340.047 469.275 324.536C459.013 303.695 447.381 280.072 441.085 262.363C440.907 261.862 441.168 261.31 441.671 261.131C442.172 260.952 442.724 261.215 442.903 261.716C449.161 279.32 460.767 302.89 471.005 323.684C478.66 339.231 485.889 353.915 489.925 364.123C490.54 365.671 491.139 367.258 491.755 368.974C502.187 398.122 498.403 416.591 478.257 434.848C467.356 444.731 452.857 449.774 439.099 449.775Z" fill="#4D1111"/>
<path d="M441.988 263.004C441.592 263.004 441.22 262.758 441.08 262.362C439.637 258.294 438.508 254.63 437.721 251.471L437.468 250.455C429.252 217.464 426.484 206.351 409.777 191.519C400.015 182.856 387.964 177.476 374.931 175.963C374.881 175.959 374.813 175.952 374.744 175.94C368.899 175.284 365.216 178.251 364.269 181.288C363.365 184.184 364.78 186.96 368.052 188.712C369.044 189.234 370.047 189.808 370.897 190.3C371.357 190.567 371.515 191.158 371.248 191.618C370.98 192.079 370.391 192.236 369.929 191.97C369.097 191.487 368.115 190.924 367.148 190.416C362.252 187.795 361.5 183.686 362.428 180.714C363.605 176.939 368.039 173.236 374.988 174.027C375.009 174.03 375.031 174.032 375.052 174.036C375.075 174.04 375.097 174.042 375.123 174.043C388.581 175.607 400.997 181.15 411.059 190.076C428.212 205.304 431.241 217.472 439.34 249.99L439.592 251.006C440.364 254.103 441.477 257.707 442.897 261.718C443.076 262.22 442.813 262.771 442.311 262.948C442.204 262.987 442.096 263.004 441.988 263.004Z" fill="#4D1111"/>
<path d="M295.333 224.21C295.064 224.21 294.796 224.098 294.605 223.879C294.256 223.478 294.297 222.87 294.697 222.519C294.78 222.447 303.009 215.387 310.707 220.342C311.155 220.63 311.284 221.227 310.995 221.675C310.707 222.123 310.111 222.253 309.663 221.965C303.195 217.799 296.259 223.719 295.967 223.973C295.784 224.131 295.557 224.21 295.333 224.21Z" fill="#4D1111"/>
<path d="M282.331 215.544C282.175 215.544 282.016 215.507 281.869 215.427C280.991 214.946 273.289 210.607 273.425 206.318C273.477 204.675 274.584 203.338 276.715 202.34C284.373 198.762 283.157 187.778 283.144 187.667C283.081 187.139 283.457 186.659 283.987 186.595C284.513 186.534 284.995 186.907 285.059 187.436C285.12 187.943 286.463 199.915 277.532 204.088C276.113 204.751 275.38 205.522 275.353 206.379C275.277 208.727 279.877 212.136 282.795 213.734C283.261 213.99 283.433 214.576 283.177 215.043C283.003 215.363 282.672 215.544 282.331 215.544Z" fill="#4D1111"/>
<path d="M90.9921 464.991C73.0734 464.991 61.1627 458.881 55.5894 446.829C44.6861 423.246 60.2921 382.103 75.3054 351.741C95.2094 311.485 120.977 275.335 136.996 256.61C137.413 256.122 137.836 255.635 138.253 255.159C138.605 254.759 139.215 254.719 139.615 255.07C140.015 255.422 140.055 256.031 139.703 256.431C139.292 256.901 138.875 257.379 138.464 257.862C122.516 276.505 96.8601 312.499 77.0334 352.595C62.2081 382.581 46.7569 423.129 57.3401 446.019C62.5934 457.381 73.9881 463.105 91.2307 463.062L91.2441 464.99H91.2347C91.1534 464.991 91.0721 464.991 90.9921 464.991Z" fill="#4D1111"/>
<path d="M498.911 455.478C498.664 455.478 498.417 455.384 498.229 455.196C497.853 454.819 497.851 454.211 498.228 453.835C498.244 453.817 498.267 453.796 498.285 453.78C520.639 434.555 522.928 403.447 505.092 361.319C488.433 321.974 458.001 282.682 441.307 262.722C440.931 262.344 440.925 261.73 441.301 261.354C441.644 261.011 442.175 260.975 442.552 261.254C442.619 261.302 442.68 261.358 442.733 261.42C459.485 281.444 490.095 320.95 506.868 360.567C525.068 403.552 522.607 435.403 499.549 455.238C499.367 455.398 499.139 455.478 498.911 455.478Z" fill="#4D1111"/>
<path d="M195.856 217.378C195.457 217.378 195.084 217.129 194.945 216.731C194.769 216.227 195.035 215.678 195.537 215.502C219.681 207.074 239.848 208.915 240.525 208.981C241.019 209.023 241.408 209.437 241.408 209.942C241.408 210.507 240.903 210.959 240.341 210.901C240.143 210.881 220.209 208.933 196.173 217.323C196.068 217.361 195.961 217.378 195.856 217.378Z" fill="#4D1111"/>
<path d="M130.756 372.342C130.275 372.342 129.859 371.983 129.799 371.494C128.692 362.336 125.267 356.291 119.617 353.522C107.165 347.419 87.7001 358.904 87.5054 359.022C87.0481 359.295 86.4561 359.146 86.1827 358.688C85.9094 358.232 86.0574 357.64 86.5147 357.367C87.3467 356.868 107.067 345.227 120.463 351.788C126.737 354.862 130.523 361.414 131.715 371.262C131.779 371.791 131.401 372.271 130.872 372.335C130.833 372.34 130.795 372.342 130.756 372.342Z" fill="#4D1111"/>
<path d="M487.695 447.848C487.443 447.848 487.191 447.751 487.001 447.555C486.636 447.178 486.639 446.578 487.011 446.206C493.637 440.03 498.353 432.628 501.057 424.176C505.861 409.125 505.568 395.047 500.209 383.464C496.085 374.551 490.5 370.247 490.264 370.067C490.229 370.042 490.196 370.012 490.165 369.981C489.788 369.604 489.784 368.989 490.16 368.612C490.521 368.252 491.092 368.232 491.471 368.563C492.059 369.018 497.773 373.607 501.96 382.655C505.84 391.043 509.152 405.156 502.895 424.763C500.088 433.534 495.196 441.214 488.356 447.588C488.169 447.762 487.932 447.848 487.695 447.848Z" fill="#4D1111"/>
<path d="M407.461 451.546C407.231 451.546 407 451.465 406.815 451.297C395.716 441.251 391.933 430.341 390.716 422.957C389.392 414.931 390.695 409.342 390.751 409.109C390.875 408.59 391.396 408.271 391.913 408.395C392.431 408.519 392.751 409.039 392.627 409.557C392.575 409.779 387.724 431.417 408.109 449.867C408.504 450.225 408.535 450.834 408.177 451.229C407.987 451.439 407.724 451.546 407.461 451.546Z" fill="#4D1111"/>
<path d="M180.507 380.67C177.925 380.67 175.035 380.539 171.912 380.281C145.761 378.163 106.703 367.853 106.312 367.749C105.797 367.611 105.491 367.083 105.627 366.569C105.764 366.054 106.291 365.747 106.807 365.885C107.196 365.987 146.091 376.254 172.069 378.359C175.14 378.613 177.979 378.742 180.507 378.742C205.329 378.742 230.825 364.105 231.08 363.957C231.54 363.689 232.131 363.846 232.397 364.306C232.665 364.767 232.509 365.358 232.048 365.625C231.789 365.775 205.857 380.67 180.507 380.67Z" fill="#4D1111"/>
<path d="M279.693 396.882C279.215 396.882 278.799 396.526 278.737 396.039C278.671 395.511 279.044 395.029 279.573 394.961C281.488 394.718 283.163 394.409 284.689 394.015C287.465 393.299 289.66 391.363 290.561 388.834C291.095 387.334 291.428 385.081 289.979 382.859C288.348 380.358 283.992 377.202 272.501 376.362C267.355 375.991 262.271 375.855 257.387 375.954C251.719 376.07 246.361 376.497 241.46 377.222C237.36 377.826 235.117 378.427 235.095 378.433C234.581 378.573 234.052 378.269 233.912 377.754C233.773 377.241 234.076 376.711 234.591 376.571C234.685 376.546 236.951 375.937 241.179 375.314C246.159 374.577 251.599 374.143 257.348 374.026C262.289 373.925 267.435 374.063 272.641 374.438C282.5 375.158 288.876 377.636 291.595 381.804C293.083 384.087 293.353 386.742 292.379 389.481C291.263 392.614 288.568 395.007 285.172 395.882C283.564 396.297 281.812 396.622 279.815 396.875C279.773 396.879 279.733 396.882 279.693 396.882Z" fill="#4D1111"/>
<path d="M286.048 417.651C285.551 417.651 285.128 417.268 285.088 416.763C285.045 416.232 285.443 415.768 285.973 415.726C287.591 415.596 289.043 415.399 290.411 415.124C290.856 415.034 291.28 414.915 291.668 414.77C293.92 413.962 295.699 412.322 296.56 410.267C297.173 408.806 297.628 406.584 296.316 404.292C294.853 401.739 290.767 398.382 279.609 396.879C279.588 396.878 279.568 396.876 279.551 396.874L279.439 396.859C279.375 396.85 279.309 396.84 279.248 396.835C269.944 395.647 259.189 395.496 247.245 396.383C246.712 396.424 246.251 396.023 246.212 395.492C246.172 394.962 246.571 394.499 247.101 394.459C259.176 393.563 270.06 393.718 279.455 394.918C279.509 394.922 279.608 394.935 279.705 394.948L279.761 394.956C279.783 394.958 279.804 394.959 279.821 394.962C289.432 396.248 295.545 399.066 297.989 403.334C299.337 405.688 299.459 408.343 298.339 411.012C297.269 413.564 295.08 415.594 292.331 416.582C291.857 416.758 291.337 416.904 290.792 417.015C289.348 417.306 287.821 417.512 286.127 417.648C286.1 417.65 286.075 417.651 286.048 417.651Z" fill="#4D1111"/>
<path d="M273.167 435.031C273.06 435.031 272.952 435.031 272.844 435.03C272.312 435.029 271.881 434.597 271.881 434.063C271.883 433.531 272.315 433.102 272.847 433.102C272.957 433.105 273.061 433.102 273.168 433.102C277.893 433.102 281.16 432.849 284.044 432.262C285.344 432.002 286.579 431.453 287.617 430.675C288.772 429.813 289.663 428.686 290.195 427.415C291.131 425.173 291.776 420.905 285.588 417.534C282.553 415.874 278.263 414.678 272.835 413.979C263.559 412.793 252.776 412.642 240.788 413.531C240.259 413.571 239.795 413.171 239.755 412.641C239.715 412.109 240.113 411.646 240.645 411.607C252.763 410.709 263.676 410.863 273.08 412.066C278.748 412.795 283.267 414.066 286.512 415.841C294.308 420.087 292.929 425.87 291.973 428.159C291.309 429.747 290.203 431.153 288.772 432.221C287.507 433.169 286.004 433.837 284.427 434.154C281.411 434.766 278.029 435.031 273.167 435.031Z" fill="#4D1111"/>
<path d="M134.555 474.987C120.296 474.987 105.677 473.05 94.4746 467.08C93.144 466.375 91.872 465.616 90.696 464.825C85.5813 461.405 81.64 457.09 78.984 451.996C71.3973 437.442 72.1893 420.315 81.3386 401.092C88.756 385.511 99.8826 372.515 105.856 366.156C108.452 363.396 110.089 361.86 110.157 361.796C110.547 361.432 111.157 361.452 111.521 361.842C111.885 362.23 111.865 362.84 111.476 363.204C111.46 363.219 109.809 364.768 107.261 367.476C101.367 373.753 90.3853 386.576 83.0813 401.922C74.2053 420.568 73.4026 437.115 80.6946 451.106C83.1986 455.907 86.9253 459.984 91.7706 463.224C92.892 463.978 94.1053 464.703 95.38 465.378C128.815 483.191 196.927 465.851 222.865 455.206C225.761 454.015 228.715 453.062 231.641 452.372C240.349 450.331 250.364 450.023 261.407 451.452C266.777 452.15 271.296 451.725 274.475 450.225C277.656 448.727 279.409 446.171 279.287 443.214C279.141 439.723 276.473 436.508 272.491 435.023C272.464 435.012 272.437 435.001 272.412 434.989C271.813 434.775 271.192 434.596 270.565 434.458C259.913 432.36 251.245 431.115 244.088 430.655C243.556 430.62 243.153 430.162 243.187 429.63C243.221 429.099 243.681 428.696 244.212 428.73C251.455 429.196 260.204 430.452 270.959 432.57C271.72 432.736 272.452 432.95 273.159 433.208C273.191 433.22 273.223 433.233 273.253 433.248C277.916 435.021 281.036 438.892 281.213 443.133C281.371 446.903 279.215 450.124 275.297 451.97C271.735 453.651 266.977 454.12 261.159 453.366C250.347 451.966 240.564 452.263 232.083 454.25C229.256 454.915 226.401 455.837 223.599 456.989C210.767 462.256 186.673 469.632 161.003 473.087C153.047 474.157 143.876 474.985 134.555 474.987Z" fill="#4D1111"/>
<path d="M305.536 578.28C305.003 578.28 304.572 577.854 304.572 577.32L304.567 474.282C295.059 457.236 274.86 452.084 274.656 452.034C274.139 451.907 273.823 451.384 273.949 450.867C274.077 450.35 274.599 450.032 275.116 450.162C275.985 450.375 296.501 455.595 306.376 473.567C306.455 473.71 306.496 473.87 306.496 474.032L306.5 493.624V577.307C306.5 577.84 306.068 578.28 305.536 578.28Z" fill="#4D1111"/>
<path d="M171.992 380.284C171.932 380.284 171.871 380.279 171.809 380.267C171.287 380.167 170.944 379.662 171.044 379.139C174.483 361.135 165.833 332.675 165.745 332.39C165.589 331.88 165.875 331.34 166.384 331.184C166.893 331.028 167.432 331.314 167.589 331.823C167.953 333.006 176.468 361.023 172.939 379.5C172.849 379.963 172.445 380.284 171.992 380.284Z" fill="#4D1111"/>
<path d="M337.624 205.659C337.552 205.659 337.479 205.651 337.405 205.635C336.887 205.515 336.563 204.996 336.683 204.478C336.86 203.714 337.021 202.942 337.175 202.193C340.216 187.459 340.103 175.178 340.101 175.055C340.095 174.523 340.521 174.086 341.053 174.079C341.592 174.075 342.023 174.499 342.029 175.031C342.032 175.155 342.149 187.634 339.064 202.58C338.908 203.343 338.743 204.132 338.563 204.912C338.459 205.358 338.063 205.659 337.624 205.659Z" fill="#4D1111"/>
<path d="M289.333 256.368C284.513 256.368 279.683 255.522 275.036 253.843C271.452 252.547 268.051 250.827 264.927 248.731C256.621 243.178 249.787 234.744 244.616 223.668C242.697 219.568 240.983 215.044 239.519 210.222C238.793 207.822 238.107 205.267 237.479 202.627C233.812 187.14 233.017 172 232.996 162.026C232.996 160.918 233.001 159.909 233.016 159.008C233.024 158.481 233.453 158.055 233.98 158.055C233.983 158.055 233.985 158.055 233.988 158.055C234.517 158.059 234.944 158.484 234.944 159.015V159.024C234.929 159.932 234.925 160.93 234.925 162.023C234.945 171.894 235.731 186.876 239.355 202.182C239.973 204.783 240.651 207.3 241.364 209.662C242.801 214.396 244.484 218.834 246.364 222.851C251.384 233.606 257.991 241.772 266 247.128C268.996 249.139 272.256 250.787 275.692 252.028C283.053 254.69 290.895 255.158 298.369 253.382C302.269 252.458 305.96 250.999 309.34 249.048C318.385 243.847 325.637 234.993 330.896 222.735C332.343 219.367 333.656 215.683 334.8 211.784C334.911 211.372 335.285 211.067 335.732 211.067C336.265 211.067 336.696 211.496 336.696 212.029C336.696 212.121 336.684 212.218 336.657 212.306C335.489 216.286 334.148 220.051 332.669 223.496C327.241 236.145 319.716 245.305 310.304 250.719C306.763 252.764 302.896 254.291 298.815 255.257C295.696 255.999 292.517 256.368 289.333 256.368Z" fill="#4D1111"/>
<path d="M288.6 262.08C285.596 262.08 282.613 261.555 279.741 260.516C273.745 258.351 268.672 254.302 264.664 248.482C264.363 248.043 264.473 247.443 264.912 247.14C265.351 246.839 265.951 246.949 266.253 247.388C270.028 252.869 274.787 256.676 280.397 258.703C283.236 259.729 286.191 260.217 289.18 260.145C289.317 260.144 289.432 260.14 289.547 260.136L289.743 260.131C291.212 260.06 292.679 259.855 294.081 259.52C300.029 258.104 305.06 254.675 309.035 249.326C309.069 249.276 309.109 249.228 309.151 249.187C309.527 248.811 310.137 248.81 310.515 249.187C310.849 249.523 310.887 250.044 310.624 250.42C310.615 250.432 310.607 250.445 310.597 250.457C306.343 256.191 300.936 259.872 294.528 261.396C293.009 261.759 291.423 261.981 289.813 262.057L289.612 262.064C289.476 262.07 289.34 262.073 289.203 262.073C289.001 262.079 288.8 262.08 288.6 262.08Z" fill="#4D1111"/>
<path d="M251.561 170.48C251.327 170.48 251.091 170.395 250.905 170.222C250.516 169.859 250.493 169.251 250.855 168.862C251.14 168.554 257.997 161.354 270.748 164.914C271.261 165.056 271.56 165.588 271.417 166.102C271.275 166.615 270.743 166.915 270.229 166.771C258.656 163.541 252.523 169.902 252.267 170.175C252.077 170.378 251.82 170.48 251.561 170.48Z" fill="#4D1111"/>
<path d="M319.072 170.481C318.813 170.481 318.556 170.377 318.365 170.173C318.101 169.892 311.968 163.543 300.399 166.771C299.887 166.915 299.355 166.615 299.211 166.101C299.068 165.588 299.368 165.056 299.88 164.913C312.636 161.353 319.493 168.553 319.779 168.861C320.141 169.252 320.119 169.861 319.728 170.224C319.541 170.396 319.307 170.481 319.072 170.481Z" fill="#4D1111"/>
<path d="M238.421 203.368C238.38 203.368 238.333 203.366 238.293 203.36C237.759 203.292 225.179 201.401 222.644 177.957C222.38 175.536 222.587 173.096 223.257 170.708C223.608 169.449 224.063 168.282 224.609 167.238C228.005 160.77 233.775 161.046 234.02 161.06C234.551 161.094 234.956 161.551 234.923 162.083C234.891 162.612 234.433 163.016 233.905 162.987C233.692 162.975 229.108 162.816 226.317 168.132C225.835 169.056 225.429 170.098 225.115 171.227C224.519 173.35 224.328 175.604 224.561 177.75C226.919 199.555 237.92 201.363 238.529 201.446C239.009 201.502 239.383 201.91 239.383 202.404C239.383 202.936 238.953 203.368 238.421 203.368Z" fill="#4D1111"/>
<path d="M337.961 203.379C337.548 203.379 337.176 203.099 337.052 202.679C336.904 202.174 337.209 201.636 337.711 201.479C337.711 201.479 337.804 201.45 337.985 201.43C338.669 201.306 341.852 200.548 345.045 196.78C345.391 196.374 345.999 196.323 346.405 196.668C346.812 197.012 346.861 197.62 346.517 198.027C342.935 202.255 339.309 203.159 338.283 203.335C338.259 203.339 338.235 203.343 338.211 203.344C338.127 203.368 338.044 203.379 337.961 203.379Z" fill="#4D1111"/>
<path d="M350.444 189.838C349.912 189.838 349.48 189.406 349.48 188.874C349.48 188.792 349.492 188.706 349.512 188.626C349.52 188.595 349.528 188.566 349.539 188.536C350.429 185.979 351.109 183.07 351.559 179.89C351.647 179.281 351.731 178.603 351.825 177.754C352.051 175.665 351.879 173.474 351.327 171.422C351.188 170.907 351.493 170.378 352.008 170.24C352.521 170.102 353.051 170.407 353.189 170.921C353.803 173.202 353.993 175.636 353.743 177.963C353.645 178.836 353.559 179.535 353.468 180.163C353.004 183.447 352.3 186.465 351.375 189.131C351.261 189.538 350.888 189.838 350.444 189.838Z" fill="#4D1111"/>
<path d="M274.213 155.206C270.276 155.206 266.601 153.904 263.535 150.675C261.609 148.639 260.004 145.912 258.763 142.568C258.577 142.07 258.832 141.514 259.332 141.33C259.831 141.143 260.387 141.399 260.572 141.898C261.721 144.996 263.189 147.503 264.935 149.348C276.177 161.187 297.564 143.355 306.237 135.139C308.977 132.544 310.677 130.696 310.693 130.679C311.053 130.286 311.664 130.259 312.056 130.619C312.449 130.979 312.475 131.59 312.115 131.982C312.045 132.059 310.357 133.894 307.564 136.539C300.712 143.031 286.248 155.206 274.213 155.206Z" fill="#4D1111"/>
<path d="M237.243 160.288C236.009 160.288 234.859 160.181 233.792 159.969C223.183 157.865 224.564 146.239 224.58 146.121C224.648 145.593 225.132 145.22 225.66 145.288C226.188 145.357 226.56 145.84 226.493 146.368C226.44 146.78 225.341 156.327 234.168 158.077C240.605 159.359 250.565 156.36 263.772 149.164C263.784 149.159 263.795 149.152 263.807 149.147C263.941 149.079 264.092 149.041 264.244 149.041C264.776 149.041 265.208 149.473 265.208 150.007C265.208 150.384 264.991 150.711 264.675 150.869C253.177 157.131 243.976 160.288 237.243 160.288Z" fill="#4D1111"/>
<path d="M343.435 175.647C342.633 175.647 341.821 175.576 340.997 175.434C323.392 172.395 306.731 137.732 306.029 136.258C305.801 135.776 306.005 135.202 306.487 134.972C306.968 134.744 307.543 134.948 307.772 135.43C307.939 135.782 324.701 170.663 341.327 173.534C345.067 174.18 348.436 173.167 351.625 170.434C353.373 168.942 355.064 166.908 356.649 164.388C356.933 163.938 357.528 163.802 357.98 164.086C358.431 164.37 358.565 164.966 358.281 165.416C356.592 168.1 354.775 170.282 352.879 171.9C349.971 174.392 346.801 175.647 343.435 175.647Z" fill="#4D1111"/>
<path d="M225.468 168.649C225.311 168.649 225.149 168.609 225.009 168.535C219.319 165.499 215.831 161.464 214.644 156.544C213.025 149.828 216.169 143.491 217.551 141.143C207.465 136.107 201.017 127.932 200.228 119.105C199.437 110.273 204.227 101.707 213.713 94.9734C220.907 89.88 228.303 88.6267 233.24 88.4667C233.773 88.4534 234.219 88.8667 234.235 89.4001C234.252 89.9334 233.833 90.3867 233.301 90.4001C228.628 90.5467 221.631 91.7334 214.829 96.5467C205.925 102.865 201.421 110.813 202.149 118.933C202.903 127.351 209.332 135.177 219.348 139.869C219.605 139.989 219.796 140.217 219.871 140.492C219.944 140.765 219.893 141.059 219.732 141.292C219.681 141.365 214.717 148.652 216.523 156.104C217.576 160.453 220.728 164.059 225.893 166.82C226.211 166.977 226.431 167.305 226.431 167.684C226.431 168.217 226.001 168.649 225.468 168.649Z" fill="#4D1111"/>
<path d="M234.535 90.3872C236.428 96.0406 242.725 100.814 247.193 101.174C248.979 101.307 250.148 100.734 250.665 99.4272C251.127 98.2672 250.947 97.0939 250.133 95.9339C248.173 93.1339 242.259 90.4272 234.535 90.3872ZM247.703 103.119C247.485 103.119 247.264 103.11 247.037 103.093C241.511 102.645 233.881 96.6672 232.329 89.6405C232.267 89.3605 232.333 89.0672 232.509 88.8405C232.687 88.6138 232.955 88.4805 233.241 88.4672C241.32 88.2272 248.916 90.8272 251.712 94.8272C252.907 96.5339 253.164 98.3605 252.457 100.147C251.687 102.08 250.011 103.119 247.703 103.119Z" fill="#4D1111"/>
<path d="M328.789 100.747C328.485 100.747 328.185 100.6 327.997 100.334C327.82 100.08 310.147 75.0138 296.344 76.0938C292.009 76.4405 288.433 79.4271 285.716 85.0137C285.603 85.2404 285.401 85.4138 285.157 85.4938C284.912 85.5738 284.645 85.5604 284.415 85.4404C284.136 85.3071 256.417 71.4805 241.937 76.6005C238.599 77.7871 236.211 79.9338 234.84 82.9738C233.943 84.9604 233.731 87.0671 234.212 89.2271C234.328 89.7471 234.001 90.2538 233.481 90.3738C232.961 90.4938 232.445 90.1604 232.329 89.6404C231.756 87.0671 232.008 84.5604 233.081 82.1738C234.677 78.6404 237.44 76.1472 241.296 74.7872C255.237 69.8538 279.46 80.9071 284.419 83.2938C287.411 77.6138 291.369 74.5471 296.195 74.1738C311.095 73.0138 328.832 98.1605 329.579 99.2271C329.884 99.6671 329.777 100.267 329.34 100.574C329.172 100.694 328.98 100.747 328.789 100.747Z" fill="#4D1111"/>
<path d="M352.515 180.99C352.199 180.99 351.889 180.834 351.704 180.55C351.415 180.102 351.541 179.504 351.989 179.215C363.079 172.027 375.755 154.019 365.219 133.875C362.64 128.944 358.772 125.64 354.035 124.322C353.521 124.179 353.221 123.647 353.364 123.135C353.507 122.622 354.04 122.322 354.551 122.464C359.816 123.928 364.095 127.566 366.928 132.98C371.908 142.502 372.479 152.575 368.58 162.112C365.569 169.479 359.76 176.476 353.039 180.834C352.876 180.939 352.695 180.99 352.515 180.99Z" fill="#4D1111"/>
<path d="M349.135 123.66C343.096 123.66 337.745 126.528 336.104 129.284C335.287 130.656 335.395 131.892 336.425 132.955C338.076 134.659 340.104 135.255 342.452 134.724C346.595 133.787 350.915 129.387 353.019 124.07C351.712 123.787 350.408 123.66 349.135 123.66ZM340.84 136.84C338.647 136.84 336.669 135.979 335.04 134.296C333.4 132.606 333.184 130.419 334.447 128.298C337.208 123.66 346.392 120.18 354.552 122.464C354.807 122.535 355.021 122.708 355.145 122.942C355.269 123.176 355.291 123.45 355.207 123.7C353.037 130.148 347.967 135.455 342.877 136.606C342.181 136.763 341.501 136.84 340.84 136.84Z" fill="#4D1111"/>
<path d="M354.293 124.357C354.191 124.357 354.087 124.341 353.984 124.307C353.48 124.136 353.209 123.589 353.379 123.084C354.507 119.74 355.685 113.24 350.912 107.272C343.997 98.6268 335.523 99.3068 329.632 101.4C326.703 102.436 324.776 103.724 324.756 103.736C324.315 104.033 323.716 103.918 323.417 103.476C323.12 103.035 323.236 102.436 323.677 102.133C323.763 102.08 325.811 100.707 328.987 99.5734C334.293 97.6934 344.392 96.0401 352.417 106.067C356.381 111.02 357.371 117.283 355.207 123.701C355.071 124.104 354.696 124.357 354.293 124.357Z" fill="#4D1111"/>
<path d="M505.497 520.187C505.049 520.187 504.6 520.12 504.145 519.987C501.527 519.214 499.352 516.16 497.095 510.12C495.747 506.52 494.019 504.28 491.812 503.294C488.125 501.643 483.148 503.574 477.88 505.627C467.607 509.627 454.821 514.6 444.567 495.654C433.895 475.939 418.967 483.084 405.796 489.39C397.185 493.511 389.751 497.071 385.084 492.079C380.42 487.09 374.808 489.83 368.867 492.731C364.372 494.926 360.127 496.999 356.261 495.638C353.98 494.834 352.161 492.93 350.699 489.818C349.531 487.331 348.143 486.082 346.509 486.084C340.153 486.12 330.844 503.494 327.793 510.187C327.572 510.667 327 510.88 326.516 510.667C326.031 510.44 325.817 509.867 326.039 509.387C327.213 506.814 337.767 484.206 346.499 484.155C348.915 484.134 350.929 485.771 352.445 488.998C353.676 491.618 355.133 493.195 356.903 493.818C360.005 494.911 363.899 493.01 368.021 490.998C374.037 488.06 380.856 484.731 386.493 490.762C390.193 494.72 397.037 491.444 404.963 487.65C418.219 481.304 434.717 473.406 446.264 494.735C455.708 512.174 466.624 507.934 477.181 503.827C482.836 501.631 488.177 499.554 492.6 501.535C495.303 502.747 497.364 505.334 498.901 509.454C500.872 514.72 502.768 517.56 504.699 518.147C506.559 518.694 508.715 517.12 511.209 515.294C515.963 511.814 522.473 507.04 531.813 514.574C532.228 514.907 532.293 515.507 531.959 515.92C531.625 516.347 531.017 516.4 530.603 516.067C522.417 509.48 517.068 513.4 512.349 516.854C510.016 518.56 507.789 520.187 505.497 520.187Z" fill="#4D1111"/>
<path d="M466.287 486.292C465.803 486.292 465.328 486.236 464.864 486.115C462.88 485.602 461.332 484.027 460.132 481.304C458.885 478.48 457.389 476.799 455.556 476.164C452.613 475.144 449.148 476.986 446.092 478.611C443.356 480.066 440.995 481.32 439.231 480.307C438.08 479.647 437.501 478.216 437.407 475.806C437.296 472.954 436.408 471.075 434.695 470.062C428.928 466.651 414.961 473.635 410.372 475.93C405.244 478.493 401.189 479.123 398.321 477.802C395.784 476.634 395.192 474.359 395.168 474.263C395.039 473.747 395.353 473.223 395.871 473.095C396.384 472.966 396.904 473.277 397.037 473.789C397.055 473.851 397.465 475.304 399.169 476.068C400.759 476.782 403.844 477.038 409.509 474.204C422.811 467.554 431.125 465.71 435.677 468.402C437.967 469.755 439.197 472.222 439.335 475.73C439.419 477.878 439.907 478.471 440.191 478.635C441.031 479.118 443.143 477.994 445.187 476.908C448.423 475.188 452.449 473.047 456.187 474.342C458.555 475.162 460.423 477.184 461.896 480.526C462.844 482.674 463.973 483.892 465.349 484.248C468.343 485.026 472.595 481.808 477.096 478.402C484.104 473.098 492.827 466.496 500.189 473.867C500.567 474.243 500.565 474.854 500.189 475.231C499.812 475.607 499.201 475.607 498.825 475.23C492.652 469.049 485.335 474.586 478.259 479.94C473.957 483.195 469.864 486.292 466.287 486.292Z" fill="#4D1111"/>
<path d="M69.3719 524.76C67.4746 524.76 65.7893 524.414 64.3199 523.72C59.9906 521.68 59.3026 517.4 59.2759 517.227C59.1959 516.694 59.5599 516.214 60.0866 516.134C60.6106 516.054 61.1026 516.414 61.1826 516.934C61.2079 517.094 61.7813 520.414 65.1719 522C68.3599 523.48 74.7613 523.694 87.1559 516.254C94.6079 511.787 101.388 506.614 107.371 502.042C117.279 494.478 124.439 489.014 128.935 491.078C131.332 492.179 132.591 495.16 132.896 500.46C133.071 503.507 133.799 505.347 135.059 505.947C137.976 507.307 144.292 502.667 149.864 498.567C156.003 494.052 161.799 489.786 165.76 490.71C167.063 491.014 168.075 491.846 168.767 493.18C169.168 493.954 169.675 494.388 170.36 494.546C173.328 495.226 179.272 490.784 185.021 486.49C192.925 480.586 201.884 473.895 208.797 475.32C211.468 475.87 213.652 477.591 215.291 480.434C220.905 490.18 226.831 489.215 232.561 488.28C237.196 487.526 241.987 486.744 244.777 493.243C245.315 494.495 245.963 495.219 246.759 495.456C248.653 496.022 251.711 493.998 254.947 491.854C259.769 488.659 265.237 485.038 270.896 486.574C274.852 487.647 278.196 491.068 281.121 497.034C281.356 497.512 281.157 498.09 280.68 498.324C280.201 498.559 279.623 498.362 279.389 497.883C276.723 492.446 273.78 489.355 270.392 488.435C265.575 487.128 260.495 490.494 256.012 493.462C252.232 495.966 248.967 498.128 246.207 497.304C244.829 496.892 243.781 495.814 243.004 494.004C240.809 488.891 237.48 489.434 232.872 490.184C227.092 491.127 219.899 492.298 213.619 481.396C212.249 479.019 210.544 477.65 208.408 477.208C202.344 475.959 193.755 482.375 186.176 488.035C179.516 493.01 173.764 497.307 169.928 496.426C168.684 496.14 167.717 495.347 167.055 494.067C166.621 493.234 166.071 492.763 165.321 492.588C162.228 491.867 156.267 496.252 151.007 500.12C144.419 504.974 138.195 509.547 134.239 507.68C132.261 506.76 131.192 504.427 130.969 500.572C130.717 496.184 129.761 493.58 128.129 492.83C124.688 491.25 117.205 496.96 108.541 503.574C102.519 508.174 95.6933 513.387 88.1493 517.907C80.5439 522.467 74.2559 524.76 69.3719 524.76Z" fill="#4D1111"/>
<path d="M247.724 481.225C246.928 481.225 246.223 481.039 245.625 480.613C244.187 479.585 243.732 477.455 244.192 473.91C244.593 470.823 244.145 468.894 242.859 468.174C239.216 466.137 228.659 472.817 222.86 477.505C222.447 477.841 221.839 477.777 221.504 477.362C221.169 476.947 221.233 476.341 221.648 476.006C223.285 474.681 237.828 463.15 243.8 466.491C245.843 467.633 246.619 470.213 246.105 474.159C245.669 477.506 246.213 478.662 246.747 479.043C248.085 480.001 251.776 478.175 255.344 476.41C261.585 473.322 269.352 469.479 273.452 475.549C273.749 475.99 273.633 476.589 273.192 476.887C272.751 477.186 272.152 477.07 271.853 476.627C268.697 471.955 262.057 475.241 256.2 478.138C252.916 479.763 249.963 481.225 247.724 481.225Z" fill="#4D1111"/>
</svg>
