<svg width="393" height="270" viewBox="0 0 393 270" fill="none" xmlns="http://www.w3.org/2000/svg">
<path d="M76.998 201.687C76.998 201.687 41.9344 159.456 59.8591 108.266C77.7837 57.0764 135.822 32.4671 171.705 37.1614C207.588 41.8556 239.367 73.8468 274.338 79.1902C309.31 84.5336 358.951 113.649 340.837 163.967C322.722 214.285 289.144 217.76 235.681 217.249C182.219 216.739 103.604 236.599 76.998 201.687Z" fill="#C5E7E9"/>
<path d="M333.97 34.498C333.97 34.498 344.512 39.302 344.279 69.7665L318.866 71.7849C318.866 71.7849 316.584 32.1752 333.97 34.498Z" fill="#8BD1EA"/>
<path d="M331.829 36.0411C319.313 42.378 321.511 124.456 321.511 124.456C321.511 124.456 320.927 178.713 320.97 181.157C321.013 183.601 323.401 210.889 309.61 209.906C295.819 208.923 201.693 208.934 201.693 208.934L197.11 209.422C197.11 209.422 200.259 170.619 200.3 151.041C200.341 131.463 200.327 47.0829 215.684 39.0637L333.585 34.3794L331.829 36.0411Z" fill="#F0FAFF"/>
<path d="M174.762 178.591L299.274 176.706C299.274 176.706 294.266 202.194 310.764 210.274L185.055 209.294C185.055 209.294 172.331 203.456 174.762 178.591Z" fill="#8BD1EA"/>
<path d="M235.425 96.3855L217.496 96.3121C217.079 96.3104 216.68 96.1431 216.386 95.8471C216.093 95.551 215.929 95.1505 215.931 94.7336L216.013 74.5022C216.015 74.0858 216.182 73.6872 216.478 73.3938C216.773 73.1003 217.173 72.936 217.589 72.9369L235.518 73.0103C235.725 73.011 235.929 73.0525 236.12 73.1322C236.31 73.212 236.483 73.3285 236.628 73.4751C236.774 73.6217 236.889 73.7955 236.967 73.9866C237.045 74.1777 237.085 74.3823 237.084 74.5888L237.004 94.8193C237.003 95.0258 236.962 95.2302 236.882 95.4208C236.802 95.6113 236.686 95.7842 236.539 95.9297C236.392 96.0752 236.219 96.1903 236.027 96.2685C235.836 96.3467 235.632 96.3865 235.425 96.3855Z" fill="#8BCEB7"/>
<path d="M222.772 83.0409C222.772 83.0409 223.583 83.429 224.344 84.5386L224.583 84.7319C224.583 84.7319 229.578 79.3652 230.344 79.1285C231.11 78.8917 231.972 78.7498 232.684 79.8594C233.396 80.9691 233.633 81.6906 233.2 82.4104C232.766 83.1302 226.572 89.4055 226.572 89.4055C226.572 89.4055 224.7 91.1296 223.27 89.967C221.841 88.8044 219.939 86.0089 219.939 86.0089C219.939 86.0089 219.13 84.948 220.522 83.7991C221.914 82.6502 222.772 83.0409 222.772 83.0409Z" fill="white"/>
<path d="M297.939 81.6389L244.534 81.963C244.308 81.9527 244.516 81.7551 244.526 81.5298L244.473 78.5072C244.484 78.2819 244.241 78.1156 244.467 78.126L297.872 77.7993C298.096 77.8097 297.89 78.0073 297.879 78.2326L297.932 81.2552C297.922 81.483 298.164 81.6493 297.939 81.6389Z" fill="#394B94"/>
<path d="M298.042 87.4834L244.636 87.8075C244.411 87.7972 244.618 87.5995 244.628 87.3743L244.575 84.3517C244.586 84.1264 244.343 83.9601 244.569 83.9705L297.974 83.6464C298.199 83.6567 297.992 83.8543 297.981 84.0796L298.034 87.1022C298.024 87.3275 298.266 87.4937 298.042 87.4834Z" fill="#394B94"/>
<path d="M298.145 93.3918L244.744 93.7158C244.519 93.7055 244.726 93.5079 244.736 93.2834L244.684 90.2608C244.694 90.0364 244.452 89.8693 244.677 89.8805L298.082 89.5555C298.307 89.5667 298.1 89.7643 298.09 89.9888L298.142 93.0114C298.128 93.2359 298.37 93.4021 298.145 93.3918Z" fill="#394B94"/>
<path d="M235.271 133.248L217.342 133.174C216.926 133.172 216.527 133.005 216.233 132.709C215.939 132.414 215.775 132.013 215.777 131.597L215.86 111.364C215.862 110.947 216.029 110.548 216.325 110.255C216.621 109.961 217.021 109.797 217.438 109.799L235.367 109.872C235.574 109.873 235.778 109.915 235.969 109.994C236.159 110.074 236.332 110.191 236.477 110.337C236.623 110.484 236.738 110.658 236.816 110.849C236.894 111.04 236.934 111.244 236.933 111.451L236.85 131.682C236.849 131.889 236.808 132.093 236.728 132.283C236.648 132.474 236.532 132.647 236.385 132.792C236.239 132.937 236.065 133.053 235.874 133.131C235.683 133.209 235.478 133.249 235.271 133.248Z" fill="#FCCA53"/>
<path d="M222.622 119.777C222.622 119.777 223.434 120.165 224.194 121.274L224.432 121.468C224.432 121.468 229.427 116.101 230.194 115.864C230.961 115.626 231.821 115.486 232.534 116.595C233.247 117.703 233.483 118.426 233.05 119.146C232.617 119.867 226.422 126.142 226.422 126.142C226.422 126.142 224.55 127.865 223.119 126.703C221.689 125.541 219.788 122.746 219.788 122.746C219.788 122.746 218.979 121.684 220.371 120.535C221.763 119.386 222.622 119.777 222.622 119.777Z" fill="white"/>
<path d="M298.52 117.871L244.371 118.092C244.145 118.084 244.356 117.889 244.363 117.664L244.31 114.636C244.317 114.411 244.078 114.242 244.304 114.249L298.452 114.029C298.677 114.036 298.467 114.231 298.46 114.456L298.512 117.484C298.505 117.709 298.749 117.879 298.52 117.871Z" fill="#394B94"/>
<path d="M298.622 123.71L244.473 123.93C244.248 123.923 244.459 123.728 244.466 123.503L244.413 120.474C244.42 120.249 244.181 120.079 244.406 120.087L298.555 119.866C298.78 119.874 298.569 120.069 298.562 120.294L298.615 123.322C298.608 123.548 298.851 123.717 298.622 123.71Z" fill="#394B94"/>
<path d="M298.726 129.612L244.576 129.833C244.351 129.826 244.562 129.63 244.569 129.405L244.516 126.378C244.523 126.152 244.284 125.983 244.509 125.99L298.658 125.769C298.883 125.777 298.673 125.972 298.665 126.197L298.718 129.225C298.711 129.45 298.954 129.619 298.726 129.612Z" fill="#394B94"/>
<path d="M235.113 172.881L217.182 172.807C216.766 172.805 216.367 172.638 216.073 172.342C215.78 172.046 215.616 171.646 215.617 171.229L215.701 150.997C215.702 150.58 215.87 150.181 216.165 149.887C216.461 149.594 216.862 149.43 217.278 149.431L235.208 149.505C235.414 149.506 235.618 149.548 235.809 149.627C235.999 149.707 236.172 149.824 236.317 149.97C236.462 150.117 236.578 150.29 236.656 150.481C236.734 150.672 236.774 150.877 236.773 151.083L236.692 171.315C236.691 171.522 236.649 171.726 236.57 171.917C236.49 172.107 236.373 172.28 236.227 172.425C236.08 172.571 235.906 172.686 235.715 172.764C235.524 172.842 235.319 172.882 235.113 172.881Z" fill="#F05F6A"/>
<path d="M222.362 159.889C222.362 159.889 223.174 160.278 223.934 161.387L224.172 161.58C224.172 161.58 229.168 156.214 229.934 155.976C230.7 155.739 231.561 155.598 232.274 156.708C232.988 157.818 233.223 158.539 232.789 159.259C232.356 159.979 226.161 166.254 226.161 166.254C226.161 166.254 224.29 167.978 222.86 166.816C221.429 165.653 219.528 162.858 219.528 162.858C219.528 162.858 218.72 161.797 220.111 160.648C221.503 159.499 222.362 159.889 222.362 159.889Z" fill="white"/>
<path d="M298.133 156.334L244.207 157.149C243.981 157.143 244.193 156.949 244.199 156.723L244.146 153.695C244.152 153.47 243.914 153.299 244.14 153.305L298.066 152.491C298.291 152.496 298.08 152.69 298.073 152.916L298.126 155.944C298.12 156.169 298.358 156.34 298.133 156.334Z" fill="#394B94"/>
<path d="M298.235 162.169L244.308 162.984C244.083 162.978 244.296 162.784 244.301 162.559L244.248 159.531C244.254 159.306 244.016 159.135 244.241 159.141L298.168 158.326C298.393 158.332 298.181 158.526 298.175 158.751L298.228 161.78C298.223 162.005 298.46 162.175 298.235 162.169Z" fill="#394B94"/>
<path d="M298.339 168.068L244.412 168.883C244.187 168.877 244.399 168.683 244.405 168.458L244.352 165.429C244.358 165.204 244.12 165.034 244.345 165.039L298.272 164.224C298.497 164.231 298.285 164.424 298.279 164.649L298.332 167.679C298.326 167.904 298.564 168.073 298.339 168.068Z" fill="#394B94"/>
<path d="M247.492 46.7638C248.177 46.7518 248.671 47.7491 248.972 49.7556L248.988 50.6792C248.997 51.1958 248.22 51.5965 246.658 51.8814C244.497 52.535 243.419 52.9721 243.423 53.1926C243.428 53.315 243.398 53.4362 243.335 53.5418C243.37 55.5082 244.131 59.0109 245.619 64.0499L245.621 64.2103C245.631 64.7432 244.553 65.2379 242.389 65.6945C241.655 65.9828 241.044 66.1312 240.555 66.1397C239.895 66.1513 239.369 64.8788 238.976 62.3224C238.558 60.8336 238.15 58.3261 237.753 54.8C237.748 54.5061 237.467 54.235 236.911 53.9866C235.596 54.1159 234.311 54.1918 233.056 54.2143C232.389 54.2259 232.046 53.7022 232.028 52.6432L231.988 50.3871C231.963 48.9363 232.173 48.207 232.617 48.1992C232.922 48.1458 233.23 48.1123 233.539 48.0991L234.301 48.0859C238.727 48.0119 243.139 47.5697 247.492 46.7638Z" fill="#394B94"/>
<path d="M261.855 51.7074L258.839 51.8004C258.055 51.7788 257.529 51.9881 257.261 52.4284C257.293 53.2022 257.499 53.7586 257.878 54.0974C259.339 54.1609 260.684 54.2214 261.913 54.2789C262.422 54.3675 262.736 54.7223 262.855 55.3434L262.876 56.5046C262.905 57.181 262.534 57.6015 261.763 57.7662L259.021 58.2416C258.274 58.2899 257.804 58.3602 257.609 58.4526C257.415 58.5451 257.285 58.7811 257.221 59.1607C257.156 59.5468 257.23 59.9434 257.43 60.28C257.637 60.6459 258.02 60.7705 258.578 60.6538L263.073 60.362C263.791 60.2336 264.309 60.329 264.627 60.6482C264.944 60.9674 265.098 61.4922 265.089 62.2225C265.091 62.9168 264.863 63.5923 264.441 64.1436C264.019 64.6936 263.413 65.0622 262.624 65.2495C261.835 65.4369 260.534 65.5819 258.72 65.6847C256.906 65.7875 255.548 65.758 254.646 65.5962C253.744 65.4345 253.052 65.215 252.571 64.9379C252.101 64.6721 251.713 64.2816 251.451 63.8093C251.184 63.3336 250.914 62.3025 250.641 60.716C250.368 59.1294 250.174 57.1922 250.059 54.9041C249.943 52.6144 249.961 51.0519 250.111 50.2167C250.261 49.3815 250.558 48.7845 251.003 48.4257C251.476 48.0495 252.008 47.7537 252.577 47.5499C253.183 47.326 254.022 47.109 255.095 46.8987C256.331 46.668 257.579 46.5102 258.833 46.4262C260.25 46.3219 261.241 46.3248 261.804 46.4348C262.313 46.5204 262.79 46.7376 263.19 47.0648C263.551 47.3743 263.822 47.8391 264.002 48.4591C264.181 49.0913 264.176 49.7613 263.989 50.3911C263.801 51.0696 263.089 51.5084 261.855 51.7074Z" fill="#394B94"/>
<path d="M274.027 46.3006C276.874 46.2509 279.166 47.2837 280.904 49.3989L280.907 49.5853C280.479 51.071 279.905 51.8198 279.182 51.8318C279.084 51.8336 278.494 51.4432 277.413 50.6609C276.356 50.2527 275.431 50.0555 274.637 50.0693C274.19 50.0772 273.831 50.3595 273.56 50.9163C273.572 51.6014 274.815 52.4386 277.289 53.4279C280.442 55.0375 282.037 56.9134 282.073 59.0555L282.075 59.1496C282.111 61.2049 281.069 62.972 278.95 64.4508C277.655 65.1487 276.21 65.5232 274.739 65.5422C270.735 65.6121 267.546 64.1636 265.173 61.1966L265.071 60.7314L265.069 60.6474C265.053 59.7221 265.714 58.7893 267.051 57.8488L267.318 57.8441C268.885 59.473 270.377 60.2748 271.792 60.2495L272.339 60.24C273.014 60.1039 273.347 59.7902 273.338 59.2987C273.326 58.6136 272.297 57.8303 270.252 56.9488C268.144 55.4739 267.077 54.0504 267.054 52.6785L267.049 52.3981C267.005 49.9246 268.508 48.0291 271.556 46.7116C272.352 46.4402 273.187 46.3013 274.027 46.3006Z" fill="#394B94"/>
<path d="M298.126 45.8797C298.811 45.8678 299.304 46.865 299.606 48.8716L299.622 49.7951C299.631 50.3118 298.854 50.7125 297.291 50.9974C295.131 51.651 294.053 52.088 294.056 52.3086C294.062 52.431 294.031 52.5522 293.969 52.6578C294.004 54.6242 294.765 58.1269 296.252 63.1659L296.255 63.3263C296.265 63.8592 295.187 64.3539 293.023 64.8105C292.289 65.0988 291.678 65.2472 291.188 65.2557C290.53 65.2672 290.004 63.9947 289.61 61.4383C289.192 59.9495 288.784 57.4421 288.387 53.916C288.382 53.6221 288.101 53.351 287.545 53.1025C286.23 53.2319 284.945 53.3078 283.69 53.3302C283.023 53.3419 282.68 52.8182 282.662 51.7592L282.622 49.5031C282.597 48.0523 282.808 47.3229 283.256 47.3151C283.561 47.2616 283.869 47.2282 284.178 47.215L284.939 47.2017C289.364 47.1276 293.775 46.6854 298.126 45.8797Z" fill="#394B94"/>
<path d="M104.855 93.6036C107.608 123.151 133.797 144.871 163.35 142.119C192.903 139.367 214.63 113.184 211.882 83.6374C209.134 54.0908 182.94 32.3712 153.387 35.1236C123.834 37.876 102.103 64.0587 104.855 93.6036Z" fill="#D4601C"/>
<path d="M148.049 67.8349C179.489 67.2861 205.317 86.479 205.74 110.704C205.76 111.874 205.72 113.045 205.621 114.211C210.7 104.869 212.878 94.224 211.876 83.6375C209.122 54.0927 182.934 32.3713 153.381 35.1237C127.022 37.5777 106.908 58.6753 104.816 84.17C115.093 74.4631 130.6 68.1394 148.049 67.8349Z" fill="#F5851F"/>
<path d="M152.985 36.8431C182.539 34.0907 208.724 55.8121 211.479 85.3543C211.979 90.6752 211.681 96.0407 210.596 101.274C211.996 95.5058 212.429 89.5455 211.878 83.6357C209.124 54.0909 182.936 32.3696 153.383 35.122C129.294 37.365 110.411 55.1757 105.739 77.6843C110.997 55.9969 129.515 39.0274 152.985 36.8431Z" fill="#D4601C"/>
<path d="M165.63 137.799C136.077 140.551 109.887 118.83 107.135 89.2838C106.235 79.749 107.914 70.1475 111.995 61.4833C106.297 71.1726 103.799 82.4114 104.855 93.6019C107.608 123.149 133.797 144.87 163.35 142.117C183.004 140.287 199.184 128.088 207.018 111.435C198.563 125.849 183.54 136.13 165.63 137.799Z" fill="#D4601C"/>
<path d="M111.048 93.0286C113.482 119.154 136.64 138.362 162.777 135.928C188.914 133.494 208.122 110.343 205.689 84.2151C203.256 58.0871 180.096 38.8804 153.96 41.3145C127.823 43.7486 108.615 66.9015 111.048 93.0286Z" fill="#D4601C"/>
<path d="M112.179 92.9231C114.556 118.425 137.159 137.174 162.667 134.798C188.176 132.422 206.931 109.823 204.554 84.3187C202.177 58.8147 179.573 40.0677 154.067 42.443C128.56 44.8182 109.803 67.4207 112.179 92.9231Z" fill="white"/>
<path d="M152.178 48.6836C177.686 46.3067 200.292 65.0611 202.668 90.5585C203.123 95.4383 202.802 100.36 201.714 105.139C204.249 98.5093 205.221 91.3848 204.554 84.3189C202.177 58.8165 179.573 40.0679 154.064 42.4432C133.574 44.3521 117.454 59.3144 113.132 78.3483C119.239 62.3614 133.986 50.3777 152.178 48.6836Z" fill="#F7D1B2"/>
<path d="M163.487 131.015C137.98 133.392 115.376 114.638 112.999 89.1402C112.616 85.0092 112.787 80.8455 113.509 76.76C112.118 82.0274 111.667 87.4991 112.179 92.9231C114.556 118.425 137.159 137.174 162.667 134.798C183.941 132.817 200.505 116.766 204.045 96.7014C199.208 114.972 183.409 129.161 163.487 131.015Z" fill="#F7D1B2"/>
<g opacity="0.7">
<path d="M159.803 128.668L158.329 128.694L158.478 133.935L159.837 133.911L159.803 128.668Z" fill="#F5851F"/>
<path d="M158.256 43.3073L156.897 43.331L156.93 48.5729L158.404 48.5472L158.256 43.3073Z" fill="#F5851F"/>
<path d="M118.31 90.0572L118.285 88.5828L113.042 88.7314L113.066 90.0916L118.31 90.0572Z" fill="#D4601C"/>
<path d="M203.691 88.5098L203.667 87.1497L198.423 87.1841L198.449 88.6584L203.691 88.5098Z" fill="#D4601C"/>
<path d="M129.025 61.3188L130.05 60.2586L126.238 56.6583L125.294 57.6356L129.025 61.3188Z" fill="#F5851F"/>
<path d="M190.494 120.583L191.439 119.606L187.707 115.922L186.682 116.983L190.494 120.583Z" fill="#D4601C"/>
<path d="M126.396 120.742L127.374 121.686L131.058 117.954L129.998 116.931L126.396 120.742Z" fill="#F5851F"/>
<path d="M190.337 56.4994L189.359 55.5557L185.674 59.286L186.735 60.3106L190.337 56.4994Z" fill="#F5851F"/>
</g>
<path d="M162.245 62.9537L157.67 54.466L153.801 63.1011L156.898 86.0864L160.029 86.1594L162.245 62.9537Z" fill="#D4601C"/>
<path d="M132.039 103.12L127.669 111.425L136.802 110.302L157.941 91.0268L156.509 88.3684L132.039 103.12Z" fill="#D4601C"/>
<path d="M153.06 88.714C153.078 89.7639 153.407 90.7849 154.005 91.648C154.603 92.511 155.443 93.1773 156.42 93.5626C157.397 93.9478 158.466 94.0347 159.492 93.8123C160.518 93.5898 161.455 93.068 162.185 92.3129C162.914 91.5578 163.404 90.6032 163.591 89.57C163.778 88.5368 163.654 87.4713 163.235 86.5084C162.817 85.5454 162.122 84.7283 161.239 84.1603C160.356 83.5923 159.324 83.299 158.274 83.3175C157.577 83.3295 156.89 83.4785 156.251 83.7562C155.612 84.0339 155.034 84.4347 154.549 84.9358C154.065 85.437 153.684 86.0285 153.429 86.6768C153.173 87.3251 153.048 88.0173 153.06 88.714Z" fill="#F5851F"/>
<path d="M154.104 88.6959C154.118 89.5393 154.382 90.3595 154.863 91.0528C155.343 91.7461 156.018 92.2814 156.803 92.5909C157.588 92.9003 158.447 92.9701 159.271 92.7914C160.095 92.6126 160.848 92.1934 161.434 91.5867C162.02 90.9801 162.413 90.2132 162.564 89.3832C162.714 88.5531 162.614 87.6972 162.278 86.9236C161.942 86.15 161.383 85.4936 160.674 85.0374C159.964 84.5811 159.136 84.3455 158.292 84.3604C157.732 84.37 157.18 84.4897 156.667 84.7128C156.153 84.9358 155.689 85.2579 155.3 85.6605C154.911 86.0631 154.605 86.5384 154.4 87.0592C154.195 87.58 154.094 88.1362 154.104 88.6959Z" fill="#D4601C"/>
<path d="M155.32 88.6737C155.33 89.2763 155.519 89.8624 155.862 90.3578C156.205 90.8532 156.688 91.2358 157.248 91.457C157.809 91.6782 158.422 91.7282 159.012 91.6006C159.601 91.4731 160.138 91.1737 160.557 90.7403C160.976 90.307 161.257 89.7592 161.364 89.1661C161.472 88.5731 161.401 87.9616 161.161 87.4088C160.921 86.8561 160.522 86.387 160.015 86.061C159.508 85.7349 158.916 85.5664 158.313 85.577C157.914 85.5837 157.519 85.6692 157.152 85.8285C156.785 85.9878 156.453 86.2178 156.175 86.5054C155.898 86.7929 155.679 87.1324 155.532 87.5045C155.386 87.8765 155.314 88.2739 155.32 88.6737Z" fill="white"/>
<path d="M65.0478 203.491L323.271 199.536L351.645 223.974L44.2988 232.07L65.0478 203.491Z" fill="#1E657E"/>
<path d="M44.2988 232.07L45.017 238.429L352.049 229.732L351.645 223.974L44.2988 232.07Z" fill="#0C4959"/>
<path d="M180.888 200.699C180.888 200.699 176.659 201.309 170.737 202.144C160.091 203.65 143.976 205.887 137.159 206.632C126.554 207.786 122.863 205.589 120.06 197.235C117.258 188.881 114.474 157.832 115.812 148.842C116.956 141.155 121.66 136.784 126.309 136.703C126.309 136.703 133.608 136.253 136.391 143.635C139.174 151.017 142.109 185.865 142.109 185.865L169.895 187.749L180.009 188.434C180.009 188.434 182.456 195.503 180.888 200.699Z" fill="#293D7F"/>
<path d="M180.888 200.699C180.888 200.699 176.659 201.309 170.737 202.144C170.75 202.073 170.763 201.998 170.781 201.923C172.397 194.625 169.789 187.887 169.789 187.887L169.895 187.75L180.009 188.435C180.009 188.435 182.456 195.503 180.888 200.699Z" fill="#979797"/>
<path d="M179.628 188.444C179.628 188.444 188.781 184.891 190.519 184.618C192.258 184.345 196.498 184.756 197.258 185.469C198.018 186.183 198.296 187.875 198.296 187.875C198.296 187.875 199.334 190.28 199.107 191.496C199.107 191.496 200.13 193.013 199.664 194.878C199.664 194.878 200.358 196.643 200.048 197.619C199.737 198.594 195.529 200.282 194.707 200.781C193.885 201.28 186.007 201.741 184.428 201.607C182.848 201.473 180.511 200.707 180.511 200.707C180.511 200.707 181.993 195.673 179.628 188.444Z" fill="#F4AC89"/>
<path d="M121.705 140.337C117.344 138.724 115.589 133.509 118.098 129.619L124.231 115.313L136.354 121.736L130.25 139.48C128.857 143.236 125.474 141.728 121.705 140.337Z" fill="#FABA97"/>
<path d="M131.33 136.627L124.906 124.871L132.629 132.306L131.33 136.627Z" fill="#F5927E"/>
<path d="M150.612 110.917L143.696 129.599C143.546 130.004 143.3 130.368 142.979 130.659C142.659 130.949 142.273 131.158 141.854 131.269L135.434 132.95C134.991 133.068 134.526 133.072 134.081 132.96C133.637 132.849 133.228 132.626 132.893 132.314L124.869 124.868C124.477 124.504 124.201 124.033 124.077 123.513C123.952 122.993 123.984 122.448 124.169 121.946L130.947 103.642L150.612 110.917Z" fill="#FABA97"/>
<path d="M148.536 116.525L148.449 124.999L145.415 124.954L148.536 116.525Z" fill="#FABA97"/>
<path d="M127.644 116.509C127.305 117.437 126.699 118.243 125.902 118.827C125.105 119.41 124.153 119.743 123.166 119.784C122.179 119.826 121.203 119.573 120.359 119.059C119.516 118.544 118.845 117.791 118.43 116.895C118.016 115.999 117.876 114.999 118.03 114.024C118.184 113.048 118.624 112.14 119.294 111.415C119.965 110.69 120.835 110.18 121.796 109.95C122.756 109.72 123.763 109.78 124.689 110.123C125.927 110.579 126.934 111.507 127.488 112.705C128.042 113.902 128.098 115.27 127.644 116.509Z" fill="#FABA97"/>
<path d="M125.34 117.354C125.398 117.375 125.46 117.379 125.519 117.364C125.578 117.349 125.631 117.317 125.672 117.271C125.712 117.226 125.738 117.169 125.745 117.108C125.753 117.048 125.742 116.986 125.714 116.932L123.598 112.913C123.581 112.875 123.557 112.842 123.526 112.814C123.496 112.787 123.461 112.766 123.422 112.753C123.383 112.739 123.342 112.734 123.301 112.737C123.26 112.74 123.221 112.751 123.184 112.77C123.148 112.789 123.116 112.815 123.09 112.847C123.064 112.878 123.044 112.915 123.033 112.954C123.022 112.994 123.018 113.035 123.023 113.076C123.028 113.116 123.042 113.155 123.062 113.191L125.178 117.21C125.212 117.277 125.27 117.328 125.34 117.354Z" fill="#F5927E"/>
<path d="M144.449 112.798C144.033 113.862 140.213 113.245 140.394 112.197C140.695 110.463 145.109 111.113 144.449 112.798Z" fill="#831D19"/>
<path d="M140.671 121.841C140.404 122.575 139.925 123.212 139.295 123.673C138.665 124.134 137.912 124.398 137.132 124.431C136.352 124.463 135.58 124.264 134.913 123.857C134.247 123.451 133.716 122.856 133.388 122.147C133.061 121.439 132.95 120.649 133.072 119.878C133.193 119.107 133.541 118.389 134.071 117.816C134.601 117.243 135.289 116.839 136.048 116.657C136.807 116.476 137.603 116.523 138.335 116.794C139.314 117.154 140.109 117.888 140.547 118.835C140.985 119.781 141.03 120.862 140.671 121.841Z" fill="#F5927E"/>
<path d="M145.311 125.237C145.349 125.251 145.389 125.258 145.429 125.256L148.466 125.119C148.543 125.115 148.615 125.083 148.669 125.027C148.723 124.972 148.753 124.898 148.754 124.821L148.84 116.349C148.841 116.269 148.809 116.192 148.753 116.134C148.697 116.077 148.62 116.044 148.54 116.043C148.5 116.043 148.461 116.05 148.424 116.065C148.388 116.079 148.354 116.101 148.326 116.129C148.298 116.157 148.275 116.189 148.259 116.226C148.244 116.262 148.236 116.301 148.235 116.341L148.152 124.529L145.4 124.653C145.331 124.656 145.265 124.683 145.213 124.73C145.161 124.776 145.127 124.839 145.117 124.908C145.106 124.976 145.12 125.047 145.155 125.106C145.19 125.166 145.245 125.212 145.311 125.236L145.311 125.237Z" fill="#F5927E"/>
<path d="M143.532 116.992C143.24 117.728 142.654 118.183 142.223 118.016C141.793 117.849 141.68 117.11 141.972 116.374C142.264 115.638 142.85 115.183 143.281 115.351C143.713 115.519 143.824 116.256 143.532 116.992Z" fill="black"/>
<path d="M142.123 128.427C142.123 128.427 136.488 132.124 138.937 126.142L142.123 128.427Z" fill="white"/>
<path d="M134.104 92.6614C134.104 92.6614 139.844 87.9503 148.182 93.269C148.182 93.269 152.778 96.4861 153.103 101.262C153.103 101.262 152.949 102.093 155.076 102.54C157.203 102.988 157.343 102.474 157.343 102.474C157.343 102.474 156.912 106.082 152.304 105.877C152.304 105.877 157.553 108.249 161.404 105.221C161.404 105.221 161.111 115.456 153.51 114.634C145.909 113.812 134.291 107.259 133.341 105.003C133.341 105.003 131.782 114.248 128.372 114.227C128.372 114.227 126.38 109.786 122.636 109.939C122.636 109.939 120.418 110.12 119.497 111.286C119.497 111.286 117.652 104.948 122.731 96.9518C127.809 88.9557 131.669 92.1227 131.669 92.1227C131.669 92.1227 131.898 88.9339 138.312 87.7503C138.316 87.7527 133.711 89.612 134.104 92.6614Z" fill="#5A1E14"/>
<path d="M133.277 102.425C133.277 102.425 129.895 107.289 128.19 109.289C128.19 109.289 127.03 110.218 126.147 110.997C126.147 110.997 128.513 113.671 128.516 114.254C128.516 114.255 132.845 112.697 133.277 102.425Z" fill="#831D19"/>
<path d="M152.307 105.876C152.307 105.876 147.326 105.512 144.643 102.999C144.643 102.999 147.144 109.323 157.08 107.768C157.08 107.768 159.927 107.313 161.403 105.221C161.406 105.221 157.117 108.626 152.307 105.876Z" fill="#831D19"/>
<path d="M150.618 202.591L143.715 210.67C143.715 210.67 157.814 211.717 163.342 212.165C170.937 212.78 188.349 213.708 188.349 213.708L192.247 201.251L150.618 202.591Z" fill="white"/>
<path d="M112.15 130.51C112.15 130.51 101.37 132.745 93.9088 142.892C86.4481 153.038 78.221 203.238 78.0642 213.258L133.833 212.285C133.833 212.285 133.159 192.909 133.842 174.803C134.526 156.697 131.533 139.012 131.533 139.012L128.115 138.311L112.15 130.51Z" fill="#00BBF1"/>
<path d="M163.901 203.683C163.901 203.683 159.671 204.294 153.75 205.129C143.103 206.635 126.988 208.872 120.171 209.616C109.566 210.771 105.875 208.574 103.073 200.219C100.271 191.865 97.4871 160.817 98.8243 151.827C99.9684 144.14 104.673 139.769 109.322 139.687C109.322 139.687 116.621 139.238 119.404 146.62C122.186 154.003 125.122 188.85 125.122 188.85L152.908 190.733L163.021 191.419C163.021 191.419 165.469 198.485 163.901 203.683Z" fill="#FABA97"/>
<path d="M163.901 203.683C163.901 203.683 159.671 204.294 153.75 205.129C153.761 205.058 153.776 204.983 153.793 204.908C155.409 197.61 152.802 190.872 152.802 190.872L152.908 190.734L163.021 191.42C163.021 191.42 165.469 198.485 163.901 203.683Z" fill="#00BBF1"/>
<path d="M163.021 191.42C163.021 191.42 172.174 187.867 173.912 187.594C175.65 187.321 179.892 187.732 180.652 188.445C181.412 189.158 181.69 190.851 181.69 190.851C181.69 190.851 182.728 193.256 182.5 194.472C182.5 194.472 183.524 195.988 183.057 197.854C183.057 197.854 183.752 199.619 183.441 200.594C183.13 201.569 178.921 203.258 178.1 203.757C177.279 204.256 169.401 204.717 167.821 204.583C166.241 204.449 163.904 203.682 163.904 203.682C163.904 203.682 165.389 198.649 163.021 191.42Z" fill="#FABA97"/>
<path d="M178.724 195.392C178.602 195.395 178.484 195.353 178.391 195.274C178.298 195.195 178.237 195.085 178.221 194.964C178.214 194.9 178.22 194.835 178.238 194.773C178.257 194.711 178.287 194.654 178.328 194.604C178.368 194.554 178.418 194.512 178.475 194.482C178.532 194.451 178.594 194.432 178.658 194.425L182.442 193.99C182.572 193.973 182.703 194.009 182.806 194.088C182.91 194.168 182.978 194.285 182.996 194.414C183.002 194.478 182.996 194.543 182.978 194.605C182.96 194.667 182.929 194.724 182.889 194.774C182.848 194.824 182.798 194.866 182.742 194.896C182.685 194.927 182.623 194.946 182.559 194.953L178.774 195.388L178.724 195.392Z" fill="#F5927E"/>
<path d="M177.708 191.276C177.588 191.28 177.471 191.239 177.379 191.162C177.286 191.085 177.225 190.977 177.206 190.859C177.198 190.795 177.203 190.73 177.22 190.667C177.237 190.605 177.266 190.547 177.306 190.496C177.345 190.445 177.395 190.403 177.451 190.371C177.507 190.34 177.569 190.319 177.633 190.312L181.556 189.784C181.685 189.765 181.817 189.798 181.922 189.876C182.027 189.953 182.097 190.069 182.117 190.198C182.125 190.262 182.121 190.327 182.104 190.389C182.087 190.451 182.057 190.509 182.018 190.56C181.978 190.611 181.929 190.653 181.873 190.685C181.817 190.716 181.755 190.737 181.691 190.744L177.768 191.272C177.748 191.275 177.728 191.276 177.708 191.276Z" fill="#F5927E"/>
<path d="M129.448 147.705C130.895 146.833 131.288 150.887 129.702 150.914C128.116 150.942 128.667 148.178 129.448 147.705Z" fill="#E9E9E9"/>
<path d="M130.199 172.488C131.646 171.616 132.038 175.67 130.453 175.698C128.868 175.725 129.413 172.958 130.199 172.488Z" fill="#E9E9E9"/>
<path d="M130.541 159.063C131.989 158.191 132.381 162.245 130.795 162.273C129.209 162.301 129.756 159.536 130.541 159.063Z" fill="#E9E9E9"/>
<path d="M112.15 130.51L118.181 127.242C118.181 127.242 121.281 136.894 130.53 138.671L125.455 144.484C125.455 144.484 122.091 143.292 118.315 140.935C114.539 138.578 112.15 130.51 112.15 130.51Z" fill="white"/>
<path d="M182.594 200.309L184.887 206.583L180.06 202.17C180.06 202.17 179.652 200.468 180.424 199.795C181.196 199.122 182.594 200.309 182.594 200.309Z" fill="#FFEBC2"/>
<path d="M180.511 201.153C180.969 200.843 181.473 201.22 181.473 201.22C181.473 201.22 181.319 200.543 181.669 200.339C182.019 200.135 182.592 200.305 182.592 200.305L170.182 182.2C169.959 181.915 169.637 181.724 169.28 181.667C168.922 181.611 168.556 181.692 168.257 181.894C167.957 182.097 167.745 182.406 167.664 182.758C167.583 183.111 167.639 183.481 167.821 183.794L180.061 202.167C180.061 202.167 180.054 201.463 180.511 201.153Z" fill="black"/>
<path d="M183.682 203.289C183.182 203.496 182.688 203.81 182.375 204.288L184.886 206.583L183.682 203.289Z" fill="black"/>
<path d="M163.901 203.683C163.901 203.683 159.671 204.294 153.75 205.129C143.103 206.635 126.988 208.872 120.171 209.616C109.566 210.771 105.875 208.574 103.073 200.219C100.271 191.865 97.4871 160.817 98.8243 151.827C99.9684 144.14 104.673 139.769 109.322 139.687C109.322 139.687 116.621 139.238 119.404 146.62C122.186 154.003 125.122 188.85 125.122 188.85L152.908 190.733L163.021 191.419C163.021 191.419 165.469 198.485 163.901 203.683Z" fill="#394B94"/>
<path d="M121.266 196.186C121.134 196.189 121.007 196.14 120.911 196.051C120.864 196.007 120.827 195.955 120.801 195.896C120.774 195.838 120.76 195.775 120.759 195.711C120.758 195.647 120.77 195.583 120.794 195.524C120.818 195.464 120.854 195.411 120.899 195.365C121.515 194.744 122.506 192.979 123.349 191.343C120.856 192.899 117.479 193.322 117.285 193.345C117.155 193.362 117.024 193.328 116.92 193.249C116.816 193.17 116.748 193.053 116.73 192.924C116.722 192.86 116.728 192.795 116.746 192.733C116.764 192.671 116.794 192.614 116.834 192.563C116.874 192.513 116.924 192.472 116.98 192.441C117.037 192.41 117.099 192.39 117.163 192.384C117.223 192.376 123.208 191.62 124.674 188.641L125.577 189.045C125.471 189.274 122.966 194.675 121.617 196.036C121.524 196.13 121.398 196.184 121.266 196.186Z" fill="#9C9C9C"/>
<path d="M163.901 203.683C163.901 203.683 159.671 204.294 153.75 205.129C153.761 205.058 153.776 204.983 153.793 204.908C155.409 197.61 152.802 190.872 152.802 190.872L152.908 190.734L163.021 191.42C163.021 191.42 165.469 198.485 163.901 203.683Z" fill="#00BBF1"/>
<path d="M163.021 191.42C163.021 191.42 172.174 187.867 173.912 187.594C175.65 187.321 179.892 187.732 180.652 188.445C181.412 189.158 181.69 190.851 181.69 190.851C181.69 190.851 182.728 193.256 182.5 194.472C182.5 194.472 183.524 195.988 183.057 197.854C183.057 197.854 183.752 199.619 183.441 200.594C183.13 201.569 178.921 203.258 178.1 203.757C177.279 204.256 169.401 204.717 167.821 204.583C166.241 204.449 163.904 203.682 163.904 203.682C163.904 203.682 165.389 198.649 163.021 191.42Z" fill="#FABA97"/>
<path d="M178.724 195.392C178.602 195.395 178.484 195.353 178.391 195.274C178.298 195.195 178.237 195.085 178.221 194.964C178.214 194.9 178.22 194.835 178.238 194.773C178.257 194.711 178.287 194.654 178.328 194.604C178.368 194.554 178.418 194.512 178.475 194.482C178.532 194.451 178.594 194.432 178.658 194.425L182.442 193.99C182.572 193.973 182.703 194.009 182.806 194.088C182.91 194.168 182.978 194.285 182.996 194.414C183.002 194.478 182.996 194.543 182.978 194.605C182.96 194.667 182.929 194.724 182.889 194.774C182.848 194.824 182.798 194.866 182.742 194.896C182.685 194.927 182.623 194.946 182.559 194.953L178.774 195.388L178.724 195.392Z" fill="#F5927E"/>
<path d="M177.708 191.276C177.588 191.28 177.471 191.239 177.379 191.162C177.286 191.085 177.225 190.977 177.206 190.859C177.198 190.795 177.203 190.73 177.22 190.667C177.237 190.605 177.266 190.547 177.306 190.496C177.345 190.445 177.395 190.403 177.451 190.371C177.507 190.34 177.569 190.319 177.633 190.312L181.556 189.784C181.685 189.765 181.817 189.798 181.922 189.876C182.027 189.953 182.097 190.069 182.117 190.198C182.125 190.262 182.121 190.327 182.104 190.389C182.087 190.451 182.057 190.509 182.018 190.56C181.978 190.611 181.929 190.653 181.873 190.685C181.817 190.716 181.755 190.737 181.691 190.744L177.768 191.272C177.748 191.275 177.728 191.276 177.708 191.276Z" fill="#F5927E"/>
<path d="M131.887 135.602C131.887 135.602 133.148 135.664 133.458 137.379C133.807 139.312 134.67 144.296 134.67 144.296L130.576 138.867C130.576 138.867 130.931 137.881 131.887 135.602Z" fill="white"/>
<path d="M135.271 223.327L71.7032 218.081L61.3158 173.049L124.709 176.88L135.271 223.327Z" fill="#737373"/>
<path d="M154.118 206.368L135.436 219.967L133.039 204.945L154.118 206.368Z" fill="#102E5B"/>
<path d="M99.7469 197.56C100.17 199.778 98.9348 201.605 96.9869 201.639C95.039 201.673 93.1176 199.903 92.6933 197.683C92.2691 195.463 93.5054 193.637 95.4533 193.603C97.4012 193.569 99.321 195.342 99.7469 197.56Z" fill="white"/>
<path d="M61.3157 173.049L63.4765 171.98L126.994 175.199L136.717 218.911L154.19 206.217L154.484 210.242L135.271 223.328L124.493 177.333L61.3157 173.049Z" fill="#4F4F4F"/>
<path d="M136.397 219.016L126.459 175.865C126.418 175.685 126.45 175.495 126.548 175.338C126.646 175.181 126.803 175.07 126.983 175.028C127.164 174.987 127.353 175.019 127.51 175.117C127.667 175.215 127.779 175.372 127.82 175.552L137.298 216.709L152.885 206.063C153.038 205.961 153.225 205.923 153.406 205.958C153.586 205.993 153.745 206.098 153.849 206.249C153.953 206.401 153.993 206.588 153.96 206.769C153.927 206.949 153.824 207.11 153.673 207.215L136.397 219.016Z" fill="#2E2E2E"/>
<path d="M189.245 190.989L207.096 187.755L213.352 191.369L194.557 195.246L189.245 190.989Z" fill="#B7274D"/>
<path d="M186.675 169.398C186.23 169.553 185.82 169.796 185.471 170.112C185.122 170.429 184.839 170.813 184.641 171.24C184.443 171.668 184.333 172.131 184.317 172.603C184.301 173.074 184.38 173.543 184.55 173.983L194.749 200.468L200.768 198.402L191.149 171.533C190.835 170.659 190.189 169.944 189.351 169.544C188.514 169.144 187.552 169.092 186.675 169.398ZM187.999 173.061C187.813 173.138 187.608 173.157 187.411 173.117C187.214 173.077 187.034 172.98 186.892 172.837C186.75 172.695 186.654 172.513 186.616 172.316C186.577 172.119 186.598 171.914 186.676 171.729C186.753 171.544 186.884 171.385 187.052 171.274C187.219 171.163 187.416 171.104 187.617 171.105C187.818 171.106 188.014 171.167 188.181 171.279C188.348 171.391 188.477 171.55 188.554 171.737C188.656 171.985 188.655 172.265 188.551 172.513C188.448 172.762 188.25 172.959 188.001 173.061L187.999 173.061Z" fill="#FCCA53"/>
<path d="M191.926 175.288L189.906 176.006L190.034 176.365L192.054 175.646L191.926 175.288Z" fill="#606060"/>
<path d="M193.092 178.554L191.072 179.272L191.199 179.63L193.219 178.912L193.092 178.554Z" fill="#606060"/>
<path d="M194.256 181.827L192.236 182.545L192.363 182.904L194.383 182.185L194.256 181.827Z" fill="#606060"/>
<path d="M195.42 185.098L193.4 185.816L193.527 186.175L195.547 185.456L195.42 185.098Z" fill="#606060"/>
<path d="M196.585 188.367L194.566 189.085L194.693 189.444L196.713 188.725L196.585 188.367Z" fill="#606060"/>
<path d="M197.75 191.638L195.73 192.357L195.858 192.715L197.878 191.997L197.75 191.638Z" fill="#606060"/>
<path d="M199.599 195.032L197.574 195.754L197.702 196.113L199.727 195.391L199.599 195.032Z" fill="#606060"/>
<path d="M205.647 179.817L206.337 173.362L208.655 179.278C208.655 179.278 208.281 180.938 207.321 181.193C206.36 181.449 205.647 179.817 205.647 179.817Z" fill="#FFEBC2"/>
<path d="M207.825 179.972C207.293 180.046 207.017 179.498 207.017 179.498C207.017 179.498 206.86 180.154 206.468 180.18C206.077 180.205 205.647 179.813 205.647 179.813L208.716 200.925C208.767 201.288 208.96 201.617 209.253 201.838C209.398 201.947 209.564 202.027 209.74 202.073C209.916 202.118 210.099 202.129 210.279 202.104C210.459 202.079 210.632 202.018 210.789 201.926C210.946 201.834 211.083 201.712 211.192 201.567C211.302 201.421 211.382 201.256 211.427 201.08C211.473 200.904 211.483 200.721 211.458 200.541L208.651 179.274C208.651 179.274 208.357 179.895 207.825 179.972Z" fill="#8BCEB7"/>
<path d="M205.975 176.751C206.501 176.784 207.066 176.719 207.543 176.439L206.337 173.362L205.975 176.751Z" fill="#8BCEB7"/>
<path d="M197.242 183.274L195.987 176.906L199.954 181.869C199.954 181.869 200.09 183.565 199.247 184.094C198.405 184.623 197.242 183.274 197.242 183.274Z" fill="#FFEBC2"/>
<path d="M199.367 182.778C198.882 183.006 198.455 182.564 198.455 182.564C198.455 182.564 198.502 183.235 198.133 183.381C197.764 183.527 197.241 183.274 197.241 183.274L206.428 202.527C206.583 202.859 206.865 203.116 207.21 203.241C207.555 203.366 207.936 203.348 208.268 203.192C208.601 203.037 208.858 202.755 208.983 202.41C209.107 202.065 209.09 201.684 208.934 201.352L199.954 181.869C199.954 181.869 199.854 182.549 199.367 182.778Z" fill="#F5851F"/>
<path d="M196.646 180.249C197.157 180.126 197.678 179.895 198.051 179.487L195.99 176.906L196.646 180.249Z" fill="#F5851F"/>
<path d="M189.245 190.989L194.557 195.246L196.521 219.422L192.267 213.218L189.245 190.989Z" fill="#D43A5C"/>
<path d="M209.499 182.95L213.735 178.031L212.279 184.216C212.279 184.216 211.029 185.369 210.092 185.034C209.156 184.7 209.499 182.95 209.499 182.95Z" fill="#FFEBC2"/>
<path d="M211.203 184.315C210.722 184.071 210.807 183.466 210.807 183.466C210.807 183.466 210.305 183.918 209.966 183.718C209.627 183.518 209.499 182.95 209.499 182.95L200.022 202.062C199.862 202.389 199.838 202.766 199.954 203.112C200.07 203.457 200.318 203.742 200.643 203.906C200.968 204.07 201.345 204.099 201.691 203.987C202.038 203.875 202.326 203.631 202.494 203.307L212.28 184.216C212.28 184.216 211.682 184.556 211.203 184.315Z" fill="#394B94"/>
<path d="M211.511 180.614C211.924 180.942 212.428 181.208 212.978 181.248L213.735 178.031L211.511 180.614Z" fill="#394B94"/>
<path d="M194.557 195.246L213.352 191.369L210.643 216.272L196.55 219.774L194.557 195.246Z" fill="#F05F6A"/>
<path d="M311.46 168.74C311.46 168.74 299.122 165.113 301.117 147.571C303.112 130.029 312.692 122.173 317.865 125.502C323.038 128.831 326.545 153.96 321.829 162.155C317.114 170.349 311.46 168.74 311.46 168.74Z" fill="#266357"/>
<path d="M313.806 142.012C313.806 142.012 308.689 185.655 311.132 193.939L314.963 193.659C314.963 193.659 310.745 171.742 313.806 142.012Z" fill="#45A391"/>
<path d="M309.488 136.43C309.875 136.637 313.036 149.285 313.036 149.285L309.488 136.43Z" fill="#45A391"/>
<path d="M307.399 182.185C307.399 182.185 313.005 175.543 306.195 168.905C299.386 162.266 291.56 162.882 289.796 166.433C288.031 169.985 294.287 182.128 299.549 183.667C304.812 185.206 307.399 182.185 307.399 182.185Z" fill="#45A391"/>
<path d="M297.405 171.781C297.405 171.781 314.432 188.236 315.783 192.771L313.585 194.237C313.585 194.237 308.769 183.167 297.405 171.781Z" fill="#266357"/>
<path d="M297.962 167.623C297.816 167.871 300.195 174.555 300.195 174.555L297.962 167.623Z" fill="#266357"/>
<path d="M305.314 171.59C305.314 171.59 295.422 173.286 291.297 160.84C287.172 148.393 291.484 139.911 296.202 140.412C300.919 140.912 311.341 156.609 310.586 163.695C309.831 170.78 305.314 171.59 305.314 171.59Z" fill="#82C4B7"/>
<path d="M296.586 147.283C296.586 147.283 308.687 183.876 313.038 188.619L315.665 187.145C315.665 187.145 304.255 168.186 296.586 147.283Z" fill="#266357"/>
<path d="M293.713 150.554C294.053 150.564 300.288 157.999 300.288 157.999L293.713 150.554Z" fill="#266357"/>
<path d="M314.392 181.275C314.392 181.275 306.565 169.254 324.203 154.246C341.842 139.238 335.27 164.285 335.27 164.285C335.27 164.285 328.957 187.179 314.392 181.275Z" fill="#82C4B7"/>
<path d="M311.247 187.068C311.247 187.068 318.338 169.413 329.149 159.459C329.149 159.459 316.309 175.017 313.583 188.315L311.247 187.068Z" fill="#266357"/>
<path d="M312.74 182.717L301.262 182.917C300.478 182.931 299.916 183.934 300.115 184.966L304.715 208.743C304.859 209.483 305.357 209.999 305.92 209.989L319.707 209.748C320.27 209.739 320.75 209.206 320.867 208.462L324.635 184.538C324.798 183.5 324.201 182.517 323.417 182.531L312.74 182.717Z" fill="#F5851F"/>
<path d="M321.616 203.708C321.444 203.496 321.335 203.377 321.335 203.377C321.335 203.377 317.013 203.669 311.361 202.04C305.709 200.411 303.672 182.926 303.672 182.926L303.57 182.884L301.262 182.924C300.478 182.938 299.916 183.941 300.115 184.972L304.716 208.75C304.859 209.49 305.357 210.006 305.92 209.996L319.707 209.755C320.27 209.745 320.75 209.213 320.867 208.468L321.616 203.708Z" fill="#D4601C"/>
</svg>
