<svg width="393" height="308" viewBox="0 0 393 308" fill="none" xmlns="http://www.w3.org/2000/svg">
<path d="M260.711 71.9357C147.657 36.6815 83.3779 150.997 83.3779 150.997C-23.9303 185.73 36.7059 253.579 93.2859 258.418C149.866 263.257 261.008 260.837 334.899 234.923C408.79 209.009 373.764 107.19 260.711 71.9357Z" fill="#FFEA76"/>
<path d="M301.28 37.5581C288.481 33.6094 277.171 35.7457 267.467 41.416C267.614 41.4562 267.761 41.4976 267.909 41.5404C292.213 48.4171 287.134 117.553 267.909 140.715C295.115 141.439 316.515 147.592 316.515 147.592C316.515 147.592 351.701 53.122 301.28 37.5581Z" fill="#232063"/>
<path d="M253.109 185.219L318.877 185.219L319.205 170.885L253.435 171.815C253.435 171.815 258.792 179.356 253.109 185.219Z" fill="white"/>
<path d="M253.351 171.769C254.585 172.915 254.736 174.204 254.736 174.204C308.112 170.917 318.328 179.078 319.207 179.778L318.317 170.203L253.351 171.769Z" fill="#CECECE"/>
<path d="M319.698 169.223C319.693 169.217 319.688 169.211 319.682 169.205C319.629 169.148 319.576 169.092 319.517 169.036C318.864 168.403 317.925 167.969 316.57 167.969L252.119 167.969L252.119 171.769L315.911 171.769C315.911 171.769 318.327 171.503 318.327 174.815L318.327 180.95C318.327 184.265 315.911 183.993 315.911 183.993L252.119 183.993L252.119 187.8L316.568 187.8C318.592 187.8 319.695 186.831 320.292 185.683C325.725 176.903 321.005 170.692 319.786 169.323C319.758 169.287 319.728 169.258 319.698 169.223Z" fill="#393939"/>
<path d="M241.602 165.659L303.905 165.659L304.217 152.08L241.91 152.961C241.91 152.961 246.982 160.105 241.602 165.659Z" fill="white"/>
<path d="M241.831 152.922C242.997 154.008 243.142 155.227 243.142 155.227C293.703 152.115 303.383 159.847 304.215 160.508L303.367 151.433L241.831 152.922Z" fill="#CECECE"/>
<path d="M304.681 150.506L304.665 150.489C304.617 150.435 304.566 150.38 304.511 150.327C303.892 149.729 303.001 149.316 301.72 149.316L240.661 149.316L240.661 152.922L301.093 152.922C301.093 152.922 303.383 152.668 303.383 155.807L303.383 161.615C303.383 164.752 301.093 164.5 301.093 164.5L240.661 164.5L240.661 168.104L301.717 168.104C303.633 168.104 304.678 167.185 305.244 166.101C310.388 157.783 305.921 151.895 304.764 150.602C304.739 150.568 304.71 150.538 304.681 150.506Z" fill="#FF4E02"/>
<path d="M250.573 146.735L316.343 146.735L316.67 132.402L250.901 133.331C250.901 133.331 256.258 140.871 250.573 146.735Z" fill="white"/>
<path d="M250.817 133.29C252.05 134.435 252.202 135.721 252.202 135.721C305.573 132.437 315.793 140.597 316.67 141.298L315.779 131.722L250.817 133.29Z" fill="#CECECE"/>
<path d="M317.165 130.739L317.147 130.72C317.096 130.665 317.04 130.607 316.984 130.551C316.332 129.918 315.391 129.482 314.039 129.482L249.583 129.482L249.583 133.29L313.376 133.29C313.376 133.29 315.794 133.021 315.794 136.335L315.794 142.466C315.794 145.777 313.376 145.508 313.376 145.508L249.583 145.508L249.583 149.316L314.036 149.316C316.057 149.316 317.161 148.344 317.758 147.199C323.19 138.419 318.47 132.208 317.253 130.837C317.226 130.801 317.195 130.773 317.165 130.739Z" fill="#F22D65"/>
<path d="M287.484 149.316L260.212 149.316L260.212 152.923L287.484 152.923L287.484 149.316Z" fill="#FF9C02"/>
<path d="M287.709 164.5L260.439 164.5L260.439 168.105L287.709 168.105L287.709 164.5Z" fill="#FF9C02"/>
<path d="M317.165 130.739L317.147 130.72C317.096 130.665 317.04 130.607 316.984 130.551C316.332 129.918 315.391 129.482 314.039 129.482L302.266 129.482L302.266 133.29L313.383 133.29C313.383 133.29 315.801 133.021 315.801 136.335L315.801 142.466C315.801 145.777 313.383 145.508 313.383 145.508L302.259 145.508L302.259 149.316L314.032 149.316C316.053 149.316 317.157 148.344 317.754 147.199C323.186 138.419 318.466 132.208 317.249 130.837C317.226 130.801 317.195 130.773 317.165 130.739Z" fill="#AE2D65"/>
<path d="M294.213 139.723C291.323 140.864 290.197 146.14 290.197 146.14L293.776 143.539L296.371 147.161C296.206 141.856 299.608 139.452 299.608 139.452C299.608 139.452 296.608 139.217 294.213 139.723Z" fill="#CC1F3D"/>
<path d="M319.699 169.222L319.681 169.204C319.629 169.148 319.575 169.091 319.518 169.034C318.866 168.401 317.926 167.966 316.573 167.966L304.8 167.966L304.8 171.769L315.917 171.769C315.917 171.769 318.333 171.501 318.333 174.815L318.333 180.95C318.333 184.262 315.917 183.993 315.917 183.993L304.794 183.993L304.794 187.8L316.567 187.8C318.588 187.8 319.692 186.83 320.289 185.683C325.722 176.903 321.001 170.692 319.784 169.321C319.758 169.287 319.728 169.256 319.699 169.222Z" fill="#616161"/>
<path d="M282.977 106.786C282.977 106.786 277.338 101.909 270.57 106.036C263.802 110.163 264.704 129.073 281.848 129.147C295.476 129.207 300.197 119.167 297.866 111.514C295.536 103.86 287.64 103.334 282.977 106.786Z" fill="#CC1F3D"/>
<path d="M274.893 98.0437C274.45 98.5718 274.42 99.3596 274.42 99.3596C282.448 102.441 283.097 109.133 283.097 109.133C282.832 99.716 274.893 98.0437 274.893 98.0437Z" fill="#5D1F14"/>
<path d="M281.571 104.986C292.347 99.4642 289.256 91.084 289.256 91.084C277.751 97.476 281.571 104.986 281.571 104.986Z" fill="#008284"/>
<path d="M281.57 104.986C281.57 104.986 284.677 94.0287 289.255 91.084C289.257 91.084 277.878 95.0722 281.57 104.986Z" fill="#129B9B"/>
<path d="M269.455 123.595C273.971 129.709 280.963 129.411 280.963 129.411C292.959 130.81 296.205 123.531 296.205 123.531C300.723 114.891 297.062 109.529 297.062 109.529C291.457 125.287 269.455 123.595 269.455 123.595Z" fill="#B7082E"/>
<path d="M286.475 219.232C279.468 217.733 273.603 217.443 268.89 217.21C262.569 216.897 258.393 216.691 256.317 213.854C255.823 213.174 255.652 212.559 255.805 211.973C256.201 210.455 258.649 209.319 261.246 208.116C264.301 206.7 267.461 205.236 267.659 202.899C267.667 202.772 267.646 202.644 267.598 202.526C267.55 202.408 267.476 202.302 267.381 202.217C265.685 200.521 255.084 200.087 235.868 200.933C221.592 201.558 207.625 202.687 207.487 202.697L207.517 203.078C207.657 203.067 221.617 201.939 235.886 201.314C259.679 200.273 265.999 201.38 267.11 202.491C267.165 202.538 267.208 202.596 267.237 202.662C267.267 202.728 267.28 202.8 267.278 202.872C267.099 204.989 264.041 206.405 261.085 207.776C258.405 209.016 255.873 210.189 255.435 211.882C255.256 212.573 255.449 213.317 256.01 214.084C258.193 217.067 262.44 217.277 268.871 217.595C273.57 217.828 279.418 218.117 286.394 219.609C287.984 219.948 288.826 220.406 288.827 220.932C288.827 221.657 287.409 223.033 280.636 225.473C276.224 227.061 270.069 228.908 262.342 230.96C249.184 234.458 235.846 237.377 235.713 237.409L235.795 237.782C235.928 237.753 249.27 234.829 262.44 231.33C270.178 229.274 276.343 227.424 280.765 225.832C283.398 224.884 285.436 224.018 286.825 223.255C288.43 222.375 289.211 221.615 289.209 220.932C289.208 220.179 288.313 219.625 286.475 219.232Z" fill="black"/>
<path d="M214.515 228.933C202.063 230.887 193.062 239.39 194.408 247.921L239.492 240.842C238.146 232.31 226.96 226.977 214.515 228.933Z" fill="#232063"/>
<path d="M152.031 205.516L214.334 209.352L214.334 206.106L152.031 202.27L152.031 205.516Z" fill="#949494"/>
<path d="M214.334 209.352L242.692 206.794L242.692 203.549L214.334 206.106L214.334 209.352Z" fill="#171717"/>
<path d="M214.287 206.063L214.287 209.404L242.697 206.838L242.74 206.838L242.74 203.497L214.33 206.059L214.287 206.063ZM214.381 206.15L242.645 203.601L242.645 206.752L214.381 209.301L214.381 206.15Z" fill="black"/>
<path d="M152.031 202.27L214.334 206.106L242.692 203.549L179.134 199.661L152.031 202.27Z" fill="#686868"/>
<path d="M193.566 202.729L205.921 203.549L205.921 191.362L193.566 191.362L193.566 202.729Z" fill="#535353"/>
<path d="M205.922 203.549L208.595 202.729L208.595 191.362L205.922 191.362L205.922 203.549Z" fill="#171717"/>
<path d="M205.874 203.613L208.644 202.764L208.644 191.315L205.874 191.315L205.874 203.613ZM205.973 191.409L208.551 191.409L208.551 202.694L205.973 203.483L205.973 191.409Z" fill="black"/>
<path d="M143.618 189.941L249.495 197.286L249.495 89.4089L143.618 100.622L143.618 189.941Z" fill="#232063"/>
<path d="M147.608 186.228L245.505 193.018L245.505 93.8345L147.608 104.204L147.608 186.228Z" fill="#2055BB"/>
<path d="M201.929 99.6123L191.472 100.72L191.471 100.72L184.453 101.463L164.33 103.595L148.766 105.242L148.766 185.148L152.024 185.375L186.22 187.747L193.015 188.219L198.758 188.616L244.347 191.779L244.347 95.1196L222.212 97.4642L201.929 99.6123Z" fill="#DEF8F7"/>
<path d="M252.452 89.408L249.495 89.408L249.495 197.286L252.452 197.286L252.452 89.408Z" fill="#35357C"/>
<path d="M193.197 61.1904C171.186 79.5767 162.231 107.79 161.294 135.647C161.205 138.319 160.395 161.962 162.353 162.433C162.361 162.433 223.537 177.157 224.016 177.271C221.353 176.636 222.816 111.798 233.331 86.1542C240.249 69.2833 251.669 50.6434 267.467 41.4153C241.582 34.2987 213.191 44.4903 193.197 61.1904Z" fill="#61BFFF"/>
<path d="M175.396 129.982L172.008 127.171L171.296 128.017L175.788 131.743L180.26 123.537L179.229 122.947L175.396 129.982Z" fill="white"/>
<path d="M175.707 119.251C171.39 118.948 167.875 122.137 167.869 126.359C167.863 130.581 171.37 134.264 175.685 134.567C180 134.871 183.517 131.682 183.522 127.46C183.527 123.238 180.022 119.558 175.707 119.251ZM175.687 133.434C172.01 133.177 169.023 130.039 169.028 126.441C169.033 122.843 172.027 120.123 175.705 120.385C179.382 120.646 182.369 123.781 182.364 127.378C182.359 130.975 179.364 133.697 175.687 133.438L175.687 133.434Z" fill="white"/>
<path d="M173.606 143.338C169.291 143.034 165.775 146.224 165.77 150.446C165.765 154.668 169.27 158.35 173.586 158.655C177.901 158.959 181.417 155.768 181.423 151.547C181.429 147.326 177.923 143.641 173.606 143.338ZM173.588 157.521C169.91 157.264 166.924 154.126 166.929 150.528C166.933 146.93 169.928 144.21 173.605 144.472C177.283 144.733 180.269 147.868 180.264 151.465C180.26 155.062 177.265 157.78 173.588 157.521Z" fill="white"/>
<path d="M177.188 146.73L175.649 146.622L174.384 148.654C174.087 149.136 173.857 149.52 173.609 150.002C173.371 149.524 173.115 149.058 172.829 148.546L171.61 146.339L170.061 146.229L172.768 150.886L169.94 155.259L171.477 155.366L172.592 153.456C173.041 152.748 173.292 152.307 173.524 151.864C173.801 152.381 174.102 152.893 174.514 153.578L175.692 155.662L177.243 155.772L174.374 150.935L177.188 146.73Z" fill="white"/>
<path d="M179.387 97.2145C175.072 96.9115 171.556 100.1 171.55 104.322C171.544 108.544 175.051 112.228 179.365 112.531C183.68 112.834 187.197 109.645 187.203 105.423C187.208 101.201 183.703 97.5176 179.387 97.2145ZM179.368 111.397C175.691 111.14 172.704 108.002 172.709 104.404C172.714 100.806 175.709 98.0862 179.386 98.3478C183.063 98.6094 186.05 101.744 186.045 105.341C186.04 108.938 183.044 111.656 179.368 111.397Z" fill="white"/>
<path d="M182.968 100.606L181.43 100.498L180.166 102.53C179.869 103.013 179.638 103.396 179.391 103.878C179.153 103.4 178.896 102.934 178.61 102.422L177.396 100.215L175.846 100.106L178.553 104.761L175.726 109.135L177.263 109.243L178.378 107.333C178.827 106.624 179.077 106.184 179.31 105.74C179.587 106.258 179.887 106.769 180.299 107.454L181.477 109.538L183.029 109.648L180.16 104.811L182.968 100.606Z" fill="white"/>
<path d="M191.247 104.733L191.215 105.027L221.975 108.345L222.007 108.051L191.247 104.733Z" fill="white"/>
<path d="M190.77 107.273L190.738 107.567L213.107 109.98L213.139 109.686L190.77 107.273Z" fill="white"/>
<path d="M186.07 128.873L186.022 129.166L216.782 134.208L216.83 133.916L186.07 128.873Z" fill="white"/>
<path d="M186.577 126.353L186.529 126.645L207.721 130.119L207.769 129.827L186.577 126.353Z" fill="white"/>
<path d="M185.438 131.573L185.39 131.865L214.793 136.685L214.841 136.393L185.438 131.573Z" fill="white"/>
<path d="M184.293 153.002L184.226 153.29L214.987 160.399L215.054 160.11L184.293 153.002Z" fill="white"/>
<path d="M184.294 150.84L184.227 151.129L210.261 157.145L210.328 156.857L184.294 150.84Z" fill="white"/>
<path d="M197.554 84.078L193.189 83.5735C192.475 83.4913 191.984 83.7489 191.715 84.3465C191.59 84.6242 191.586 84.849 191.705 85.0207C191.828 85.2014 192.056 85.311 192.388 85.3495L193.521 85.4798L190.939 91.1985C190.794 91.5223 190.777 91.7908 190.89 91.9882C191.003 92.1857 191.209 92.2992 191.525 92.3357C191.825 92.3744 192.13 92.3145 192.394 92.1649C192.675 91.9956 192.893 91.74 193.017 91.4364L195.599 85.7197L196.755 85.8529C197.062 85.9005 197.377 85.8494 197.653 85.7068C197.908 85.577 198.11 85.3613 198.222 85.0977C198.489 84.4995 198.267 84.1596 197.554 84.078Z" fill="#232063"/>
<path d="M203.275 84.7386L200.016 84.3624C199.738 84.3371 199.458 84.3959 199.214 84.5312C198.926 84.6766 198.701 84.9225 198.583 85.2223L197.487 87.6517L195.638 91.7455C195.518 92.0088 195.51 92.2451 195.613 92.4543C195.726 92.6587 195.948 92.7791 196.28 92.8176L199.464 93.1849C199.828 93.2276 200.13 93.1714 200.37 93.016C200.617 92.8664 200.811 92.6444 200.926 92.3803C200.978 92.2837 201.007 92.1763 201.009 92.0668C201.012 91.9572 200.989 91.8486 200.942 91.7495C200.851 91.5652 200.626 91.452 200.265 91.4099L198.072 91.1532L198.784 89.5738L200.819 89.8077C201.111 89.8423 201.406 89.7758 201.655 89.6192C201.897 89.4848 202.09 89.2774 202.206 89.0269C202.258 88.9256 202.288 88.8142 202.293 88.7004C202.298 88.5866 202.278 88.473 202.235 88.3674C202.13 88.17 201.928 88.0584 201.625 88.0229L199.592 87.7889L200.284 86.2618L202.474 86.5145C202.768 86.5585 203.068 86.5011 203.325 86.3516C203.551 86.2031 203.729 85.9935 203.84 85.7474C203.969 85.4621 203.979 85.2321 203.871 85.0564C203.762 84.8807 203.573 84.7731 203.275 84.7386Z" fill="#232063"/>
<path d="M209.091 85.3307C208.759 85.212 208.415 85.1328 208.064 85.0948C207.537 85.034 207.004 85.0483 206.481 85.1372C205.101 85.4275 204.134 86.1412 203.582 87.2784C203.384 87.7134 203.283 88.0754 203.28 88.3643C203.265 88.6466 203.348 88.9253 203.514 89.1541C203.667 89.3411 203.851 89.5001 204.059 89.624C204.32 89.7794 204.59 89.9204 204.867 90.0465C205.148 90.1781 205.321 90.2587 205.386 90.2883C205.63 90.3972 205.853 90.5464 206.046 90.7296C206.187 90.8928 206.201 91.0975 206.09 91.3436C206.034 91.4651 205.954 91.5737 205.854 91.6625C205.754 91.7514 205.637 91.8186 205.51 91.8599C205.237 91.9633 204.943 92.0025 204.652 91.9744C204.588 91.9557 204.521 91.9442 204.454 91.9399C204.247 91.9021 204.046 91.8318 203.861 91.7316L203.69 91.6447L203.415 91.5016C203.324 91.4542 203.269 91.4256 203.247 91.4157C203.065 91.312 202.866 91.2414 202.66 91.2074C202.364 91.1753 202.068 91.2565 201.831 91.4344C201.578 91.6148 201.365 91.8449 201.204 92.1107C201.072 92.4924 201.16 92.8066 201.466 93.0534C201.993 93.4865 202.74 93.7592 203.706 93.8718C204.27 93.9415 204.842 93.9168 205.398 93.7987C205.94 93.6789 206.457 93.4672 206.927 93.1729C207.577 92.7479 208.089 92.1431 208.4 91.4325C208.609 90.9369 208.691 90.5091 208.643 90.1491C208.587 89.8262 208.431 89.5291 208.196 89.3002C207.949 89.0844 207.676 88.9016 207.382 88.7562C206.972 88.543 206.658 88.387 206.441 88.2883C206.126 88.1382 205.917 88.0066 205.815 87.8934C205.725 87.7947 205.727 87.641 205.821 87.4324C205.944 87.2322 206.135 87.0819 206.359 87.0079C206.591 86.9291 206.838 86.9035 207.081 86.9329C207.362 86.9761 207.636 87.0568 207.896 87.1728C208.132 87.2775 208.373 87.3684 208.619 87.4453C208.904 87.4634 209.187 87.4011 209.437 87.2656C209.673 87.1287 209.859 86.9215 209.971 86.6733C210.11 86.3653 210.085 86.0928 209.897 85.8559C209.679 85.6134 209.401 85.4322 209.091 85.3307Z" fill="#232063"/>
<path d="M216.401 86.2538L212.036 85.7493C211.323 85.667 210.831 85.9247 210.562 86.5223C210.437 86.7993 210.434 87.0241 210.552 87.1965C210.675 87.3772 210.904 87.4867 211.235 87.5252L212.367 87.6556L209.785 93.3753C209.64 93.6991 209.623 93.9623 209.735 94.165C209.847 94.3677 210.059 94.4835 210.37 94.5125C210.671 94.5512 210.976 94.4912 211.239 94.3417C211.52 94.1723 211.739 93.9168 211.862 93.6132L214.443 87.8944L215.6 88.0277C215.907 88.0753 216.221 88.0242 216.497 87.8816C216.753 87.7518 216.954 87.5361 217.066 87.2725C217.337 86.6763 217.115 86.3367 216.401 86.2538Z" fill="#232063"/>
<path d="M131.555 55.3621C130.147 55.3621 128.769 55.7789 127.598 56.5599C126.427 57.3409 125.514 58.451 124.975 59.7498C124.435 61.0485 124.294 62.4776 124.569 63.8564C124.844 65.2352 125.522 66.5016 126.519 67.4956C127.515 68.4897 128.784 69.1666 130.166 69.4409C131.548 69.7151 132.98 69.5744 134.281 69.0364C135.583 68.4984 136.695 67.5874 137.478 66.4186C138.261 65.2497 138.679 63.8755 138.679 62.4698C138.679 60.5847 137.928 58.7768 136.592 57.4439C135.256 56.1109 133.445 55.3621 131.555 55.3621ZM131.555 67.529C130.553 67.529 129.573 67.2324 128.739 66.6766C127.905 66.1208 127.256 65.3308 126.872 64.4065C126.488 63.4822 126.388 62.4651 126.584 61.4839C126.779 60.5027 127.262 59.6014 127.971 58.894C128.68 58.1866 129.583 57.7048 130.566 57.5096C131.55 57.3145 132.569 57.4146 133.495 57.7975C134.422 58.1803 135.213 58.8287 135.77 59.6605C136.327 60.4923 136.625 61.4703 136.625 62.4707C136.623 63.8118 136.089 65.0975 135.138 66.0458C134.188 66.994 132.899 67.5275 131.555 67.529Z" fill="#CC1F3D"/>
<path d="M134.098 69.9822L129.012 69.9822L129.012 73.8894L134.098 73.8894L134.098 69.9822Z" fill="#B2092D"/>
<path d="M133.533 68.4519L129.578 68.4519C128.976 68.4519 128.488 68.9387 128.488 69.5393C128.488 70.1398 128.976 70.6267 129.578 70.6267L133.533 70.6267C134.135 70.6267 134.624 70.1398 134.624 69.5393C134.624 68.9387 134.135 68.4519 133.533 68.4519Z" fill="#840F2C"/>
<path d="M115.125 74.685L111.407 77.2588L113.393 80.1147L117.111 77.541L115.125 74.685Z" fill="#B2092D"/>
<path d="M113.936 73.8627L111.044 75.8637C110.833 76.0099 110.688 76.2339 110.642 76.4864C110.597 76.739 110.653 76.9993 110.8 77.2102C110.946 77.4211 111.171 77.5653 111.424 77.611C111.677 77.6567 111.938 77.6002 112.149 77.454L115.042 75.453C115.253 75.3067 115.398 75.0825 115.443 74.8299C115.489 74.5773 115.432 74.3169 115.286 74.106C115.139 73.8951 114.915 73.751 114.661 73.7054C114.408 73.6597 114.147 73.7163 113.936 73.8627Z" fill="#840F2C"/>
<path d="M131.556 128.488C147.281 128.488 160.029 115.926 160.029 100.43C160.029 84.9334 147.281 72.3711 131.556 72.3711C115.83 72.3711 103.082 84.9334 103.082 100.43C103.082 115.926 115.83 128.488 131.556 128.488Z" fill="#CC1F3D"/>
<path d="M131.555 123.24C144.34 123.24 154.704 113.028 154.704 100.43C154.704 87.8316 144.34 77.6189 131.555 77.6189C118.771 77.6189 108.407 87.8316 108.407 100.43C108.407 113.028 118.771 123.24 131.555 123.24Z" fill="white"/>
<path d="M131.555 77.5488C118.753 77.5488 108.337 87.8155 108.337 100.43C108.337 113.044 118.753 123.311 131.555 123.311C144.358 123.311 154.773 113.044 154.773 100.43C154.773 87.8155 144.357 77.5488 131.555 77.5488ZM131.555 123.17C118.83 123.17 108.478 112.969 108.478 100.43C108.478 87.8905 118.828 77.691 131.555 77.691C144.283 77.691 154.632 87.8925 154.632 100.432C154.632 112.971 144.28 123.17 131.555 123.17Z" fill="black"/>
<path d="M131.556 77.6199C118.793 77.6199 108.406 87.851 108.406 100.43C108.406 101.038 108.43 101.639 108.478 102.232C109.414 90.4927 119.405 81.2221 131.554 81.2221C143.702 81.2221 153.693 90.4927 154.629 102.232C154.677 101.64 154.701 101.039 154.701 100.43C154.703 87.851 144.318 77.6199 131.556 77.6199Z" fill="#D3D3D3"/>
<path d="M129.776 101.818L133.367 101.818L131.556 83.3269L129.776 101.818Z" fill="#232063"/>
<path d="M208.721 226.793C207.564 226.482 206.386 226.258 205.195 226.124C196.708 225.093 179.066 231.738 179.066 231.738L182.19 234.729C179.479 236.054 177.746 237.008 177.746 237.008L185.726 240.789C185.726 240.789 223.328 231.566 222.283 229.561C221.273 227.626 213.887 227.15 208.721 226.793Z" fill="#FBC5A9"/>
<path d="M216.095 228.532L182.569 239.588C176.885 241.479 181.305 247.694 181.305 247.694C181.563 247.608 200.025 255.456 206.335 238.113C210.354 232.772 221.175 234.29 224.189 233.602C227.204 232.914 224.276 228.444 216.095 228.532Z" fill="#FBC5A9"/>
<path d="M167.963 157.335C164.798 154.966 158.483 162.413 157.363 162.687C157.325 160.99 156.165 158.923 152.687 159.41C151.901 159.663 151.1 159.867 150.288 160.022C150.288 160.022 148.847 158.363 146.194 158.442C143.542 158.521 136.562 161.06 134.323 171.061C132.083 181.061 152.367 187.179 152.367 187.179C152.367 187.179 159.433 183.881 163.009 174.459C163.885 171.578 161.887 170.708 160.411 170.695C161.296 169.023 170.79 159.448 167.963 157.335Z" fill="#FBC5A9"/>
<path d="M149.293 160.981C148.99 161.322 148.705 161.675 148.437 162.041C148.17 162.408 147.919 162.787 147.684 163.178C147.446 163.572 147.24 163.985 147.07 164.413C147.425 164.12 147.756 163.799 148.059 163.452C148.362 163.111 148.647 162.758 148.914 162.391C149.181 162.024 149.432 161.646 149.666 161.255C149.907 160.862 150.115 160.449 150.288 160.022C149.931 160.314 149.598 160.635 149.293 160.981Z" fill="#F7A18A"/>
<path d="M155.899 164.147C155.437 164.656 154.993 165.178 154.567 165.713C154.141 166.248 153.73 166.796 153.334 167.358C152.935 167.92 152.568 168.504 152.235 169.108C152.75 168.649 153.239 168.161 153.699 167.648C154.161 167.139 154.605 166.617 155.031 166.082C155.457 165.547 155.868 164.999 156.263 164.437C156.662 163.874 157.029 163.29 157.363 162.687C156.848 163.147 156.36 163.634 155.899 164.147Z" fill="#F7A18A"/>
<path d="M159.398 171.705C159.09 172.062 158.801 172.433 158.528 172.816C158.256 173.198 158 173.591 157.763 174C157.52 174.41 157.311 174.839 157.137 175.283C157.499 174.974 157.836 174.635 158.144 174.272C158.452 173.914 158.741 173.544 159.012 173.161C159.284 172.779 159.54 172.385 159.777 171.976C160.02 171.566 160.23 171.137 160.404 170.693C160.042 171.003 159.706 171.342 159.398 171.705Z" fill="#F7A18A"/>
<path d="M132.011 169.122C132.011 169.122 119.718 197.713 103.197 209.701C86.6751 221.688 47.9364 209.799 36.1804 228.414C36.1804 228.414 27.9513 244.89 51.3901 257.627C74.829 270.365 115.433 245.35 126.331 233.348C137.229 221.347 159.583 187.064 158.89 186.247C158.198 185.431 132.011 169.122 132.011 169.122Z" fill="#E0175A"/>
<path d="M101.196 259.348C100.943 254.437 100.702 249.524 100.389 244.617C99.9043 236.997 99.3057 229.343 98.1789 221.776C97.7674 219.006 97.2885 216.248 96.7108 213.508C95.1872 206.233 93.074 197.163 87.1461 192.077C82.706 188.267 76.321 187.214 70.6047 188.143C69.9715 188.247 69.3483 188.374 68.7349 188.524C62.054 190.163 56.498 195.18 52.0065 200.151C48.9466 203.538 46.2131 207.199 43.5578 210.905C43.351 211.192 43.1472 211.48 42.9434 211.769C25.5681 236.383 17.2024 252.224 17.2024 252.224C17.2024 252.224 71.9017 278.766 101.932 271.061C101.979 271.049 101.971 270.517 101.932 269.686C101.788 266.742 101.233 260.052 101.196 259.348Z" fill="#F22D65"/>
<path d="M100.389 244.617C99.9043 236.997 99.3058 229.342 98.1789 221.776C87.4597 213.84 76.6554 206.869 66.0697 210.209C66.0697 210.209 49.1237 217.486 58.7764 242.316C64.5758 257.23 83.9199 265.735 101.93 269.684C101.788 266.742 101.238 260.052 101.196 259.348C100.943 254.437 100.703 249.524 100.389 244.617Z" fill="#E0195B"/>
<path d="M131.32 234.885C110.94 233.387 89.0614 199.354 68.0404 205.989C68.0404 205.989 51.0944 213.266 60.7471 238.096C70.3999 262.925 117.591 269.988 133.68 267.847C149.768 265.707 189.022 253.935 189.022 252.864C189.022 251.793 179.584 222.471 179.584 222.471C179.584 222.471 151.698 236.383 131.32 234.885Z" fill="#F22D65"/>
<path d="M76.3102 182.097L73.7696 183.468C74.3553 185.679 74.2415 187.739 72.346 191.768C72.3322 192.818 74.6056 195.878 79.1386 195.634C84.2613 195.36 85.1626 191.397 85.0251 190.205C83.6539 188.349 84.9133 184.232 85.2229 182.314C82.9742 182.551 76.3102 182.097 76.3102 182.097Z" fill="#C4C4C4"/>
<path d="M76.3142 182.041L76.2983 182.041L73.7043 183.442L73.7162 183.484C74.2781 185.609 74.2257 187.642 72.2956 191.744L72.2906 191.756L72.2906 191.767C72.2847 192.199 72.6477 192.988 73.4718 193.777C74.2435 194.517 75.9066 195.705 78.6262 195.705C78.7944 195.705 78.9665 195.705 79.1416 195.691C81.1954 195.581 82.7803 194.882 83.8527 193.618C84.9004 192.379 85.1606 190.899 85.0805 190.207L85.0805 190.192L85.0716 190.18C83.9705 188.69 84.5769 185.754 85.0271 183.609C85.126 183.116 85.219 182.69 85.2764 182.326L85.2872 182.254L85.215 182.262C82.999 182.492 76.3864 182.046 76.3142 182.041ZM84.9212 183.582C84.4721 185.741 83.8577 188.695 84.9756 190.229C85.0488 190.909 84.7886 192.338 83.7716 193.54C82.72 194.784 81.1618 195.47 79.1406 195.579C76.1578 195.74 74.3603 194.467 73.5549 193.695C72.7635 192.94 72.4093 192.177 72.4073 191.779C74.3345 187.682 74.3969 185.63 73.8409 183.497L76.328 182.154C76.6931 182.179 82.9198 182.59 85.1567 182.38C85.0924 182.727 85.0122 183.122 84.9163 183.582L84.9212 183.582Z" fill="black"/>
<path d="M96.4774 164.774C95.9613 161.963 95.2287 159.195 94.286 156.497C85.5642 140.578 60.1893 156.292 67.5745 169.16C61.4981 166.593 59.9746 172.281 61.7247 176.123C63.4233 180.094 68.1552 178.528 68.1552 178.528C68.1552 178.528 69.6481 181.786 74.2494 184.254C76.4922 185.453 79.1238 185.948 81.6515 185.964C84.6709 185.984 87.6972 185.261 90.3288 183.768C93.6509 181.885 95.7324 178.536 96.8117 174.982C96.9463 174.54 98.9784 169.481 99.3632 169.768C97.529 168.397 96.7662 166.331 96.4774 164.774Z" fill="#FBC5A9"/>
<path d="M94.6902 166.653C95.3859 166.547 95.8548 165.838 95.7374 165.069C95.62 164.3 94.9608 163.762 94.2651 163.868C93.5694 163.974 93.1005 164.683 93.2179 165.452C93.3353 166.221 93.9945 166.759 94.6902 166.653Z" fill="#252525"/>
<path d="M95.2437 164.109C95.1072 163.993 94.9477 163.908 94.7758 163.859C94.6038 163.81 94.4234 163.798 94.2465 163.824C93.5213 163.934 93.0296 164.673 93.1513 165.472C93.2631 166.202 93.8498 166.734 94.5057 166.734C94.5666 166.733 94.6275 166.729 94.6877 166.72C95.4139 166.609 95.9046 165.87 95.7829 165.072C95.7295 164.695 95.5373 164.352 95.2437 164.109ZM94.6709 166.608C94.0071 166.707 93.3749 166.192 93.2631 165.454C93.1513 164.717 93.5995 164.036 94.2633 163.935C94.4247 163.912 94.5892 163.923 94.746 163.968C94.9027 164.013 95.0481 164.09 95.1725 164.196C95.441 164.421 95.6171 164.737 95.6671 165.084C95.7839 165.825 95.3357 166.508 94.6709 166.608Z" fill="black"/>
<path d="M94.7402 160.528C93.6434 160.526 92.5772 160.889 91.7119 161.562C91.6962 161.578 91.6837 161.596 91.6752 161.616C91.6667 161.637 91.6624 161.659 91.6624 161.681C91.6624 161.703 91.6667 161.725 91.6752 161.745C91.6837 161.766 91.6962 161.784 91.7119 161.8C91.744 161.831 91.7867 161.848 91.8311 161.848C91.8756 161.848 91.9183 161.831 91.9503 161.8C92.7502 161.187 93.7319 160.858 94.7402 160.865C94.7827 160.862 94.8224 160.843 94.8514 160.811C94.8803 160.78 94.8964 160.739 94.8964 160.697C94.8964 160.654 94.8803 160.613 94.8514 160.582C94.8224 160.551 94.7827 160.532 94.7402 160.528Z" fill="black"/>
<path d="M96.5467 166.959C96.3904 166.809 96.151 167.047 96.3083 167.197C97.2224 168.075 98.1477 168.942 99.0843 169.798C99.112 169.764 99.1387 169.729 99.1644 169.692C99.1733 169.76 99.1822 169.828 99.1901 169.897L99.0843 169.798C98.8716 170.061 98.5896 170.258 98.3126 170.452C97.9891 170.681 97.6765 170.915 97.4381 171.235C97.3085 171.41 97.6013 171.578 97.7289 171.405C97.9594 171.096 98.2908 170.88 98.6005 170.659C98.9102 170.437 99.2307 170.191 99.4553 169.862C99.474 169.83 99.4815 169.793 99.4767 169.756C99.4718 169.719 99.4549 169.685 99.4286 169.659C98.4571 168.77 97.4964 167.87 96.5467 166.959Z" fill="black"/>
<path d="M99.1648 169.696C99.139 169.733 99.1121 169.769 99.0842 169.802L99.1907 169.902C99.1828 169.829 99.1738 169.761 99.1648 169.696Z" fill="black"/>
<path d="M88.6538 151.308C87.2826 147.241 82.6269 146.119 78.7863 146.229C68.9921 146.509 63.4331 154.054 63.4084 158.675C60.5394 160.03 57.4775 165.932 57.7782 172.024C58.0196 176.917 54.1474 181.655 50.7432 184.752C48.907 186.421 46.7701 187.352 44.8192 188.815C38.1442 193.82 30.4236 206.426 36.8888 214.284C40.3138 218.446 45.7066 219.927 50.8965 219.85C54.7074 219.793 58.3065 218.086 61.964 217.22C63.5766 216.838 65.2713 216.52 66.9353 216.684C69.005 216.889 70.858 217.88 72.9701 217.793C78.3916 217.571 82.8534 212.146 85.0695 207.658C86.8186 204.115 85.762 199.834 85.4583 196.089C85.2235 193.194 85.0332 190.294 84.8875 187.391C84.7549 184.747 84.4917 182.069 85.2199 179.481C85.9628 176.758 87.8228 171.898 88.9387 166.993C89.9943 162.353 90.2713 157.068 88.9822 152.399C88.8807 152.03 88.7712 151.667 88.6538 151.308Z" fill="#5D1F14"/>
<path d="M84.092 145.806C56.408 145.504 80.9598 162.24 84.5976 162.219C88.2353 162.198 96.9244 158.207 98.9426 156.875C97.1263 144.952 84.092 145.806 84.092 145.806Z" fill="#5D1F14"/>
<path d="M96.9008 172.528C96.888 172.535 95.6147 173.175 94.7243 172.694C94.2297 172.429 93.9408 171.863 93.8528 171.016C93.8507 170.997 93.8449 170.978 93.8356 170.961C93.8263 170.943 93.8137 170.928 93.7985 170.916C93.7832 170.904 93.7658 170.894 93.747 170.889C93.7282 170.883 93.7085 170.881 93.689 170.883C93.6695 170.885 93.6506 170.891 93.6334 170.9C93.6162 170.91 93.6009 170.922 93.5886 170.938C93.5762 170.953 93.567 170.97 93.5614 170.989C93.5558 171.008 93.554 171.027 93.556 171.047C93.6549 172.001 94.0002 172.646 94.5819 172.961C94.8671 173.108 95.1847 173.182 95.5059 173.176C96.0359 173.159 96.5562 173.03 97.0324 172.797C97.0668 172.779 97.0926 172.748 97.1045 172.711C97.1163 172.674 97.1132 172.634 97.0957 172.6C97.0792 172.564 97.0494 172.537 97.0129 172.524C96.9764 172.511 96.9362 172.512 96.9008 172.528Z" fill="black"/>
<path d="M84.4898 167.704C82.1857 169.382 83.8755 174.695 85.8333 175.448C87.7912 176.2 88.9378 167.826 88.9378 167.826C88.9378 167.826 86.794 166.03 84.4898 167.704Z" fill="#FBC5A9"/>
<path d="M322.168 251.186C336.143 251.186 347.472 249.086 347.472 246.495C347.472 243.904 336.143 241.804 322.168 241.804C308.193 241.804 296.864 243.904 296.864 246.495C296.864 249.086 308.193 251.186 322.168 251.186Z" fill="#CAECEF"/>
<path d="M311.513 183.094C301.947 176.445 283.799 185.732 288.759 198.114C293.718 210.496 311.513 214.008 311.513 214.008C311.513 214.008 321.747 190.207 311.513 183.094Z" fill="#068480"/>
<path d="M308.323 206.088C302.392 193.212 296.791 182.931 296.736 182.83C296.695 182.755 296.626 182.699 296.544 182.675C296.462 182.651 296.374 182.66 296.299 182.701C296.225 182.742 296.169 182.811 296.145 182.892C296.121 182.974 296.13 183.062 296.171 183.137C296.226 183.235 301.816 193.502 307.738 206.357C313.2 218.213 320.068 234.76 321.771 246.262C321.783 246.338 321.822 246.407 321.88 246.457C321.938 246.507 322.013 246.535 322.09 246.535C322.106 246.536 322.122 246.536 322.137 246.535C322.222 246.523 322.298 246.477 322.348 246.409C322.399 246.341 322.421 246.255 322.409 246.171C320.693 234.591 313.802 217.983 308.323 206.088Z" fill="white"/>
<path d="M332.11 186.38C321.472 192.876 330.276 217.237 330.276 217.237C330.276 217.237 348.239 214.786 353.929 202.717C359.619 190.649 342.052 180.31 332.11 186.38Z" fill="#34E2DE"/>
<path d="M347.339 186.902C347.27 186.852 347.184 186.831 347.099 186.845C347.015 186.858 346.939 186.905 346.889 186.974C346.831 187.054 340.963 195.167 335.136 206.331C331.712 212.891 328.971 219.207 326.988 225.105C324.506 232.489 323.211 239.236 323.141 245.158C323.14 245.2 323.148 245.242 323.163 245.282C323.179 245.321 323.202 245.357 323.232 245.387C323.261 245.417 323.296 245.441 323.335 245.458C323.374 245.475 323.416 245.484 323.458 245.484C323.543 245.484 323.624 245.45 323.684 245.391C323.744 245.331 323.779 245.251 323.78 245.166C323.938 231.895 330.349 216.888 335.698 206.637C341.504 195.512 347.348 187.431 347.406 187.35C347.457 187.282 347.478 187.196 347.465 187.112C347.453 187.028 347.407 186.953 347.339 186.902Z" fill="white"/>
<path d="M308.123 170.722C308.139 184.058 323.358 193.889 323.358 193.889C323.358 193.889 341.696 175.564 334.829 165.175C328.412 155.464 308.107 157.385 308.123 170.722Z" fill="#00B6BE"/>
<path d="M321.201 159.469C321.196 159.427 321.183 159.387 321.162 159.35C321.142 159.313 321.114 159.281 321.081 159.255C321.047 159.229 321.009 159.209 320.969 159.198C320.928 159.187 320.885 159.184 320.843 159.189C320.801 159.194 320.761 159.207 320.724 159.228C320.687 159.248 320.655 159.276 320.629 159.309C320.603 159.342 320.583 159.38 320.572 159.421C320.561 159.462 320.557 159.504 320.562 159.546C320.576 159.661 321.96 171.258 322.69 185.389C323.364 198.42 323.604 216.329 320.919 227.641C320.909 227.682 320.907 227.724 320.914 227.766C320.92 227.808 320.935 227.847 320.957 227.883C320.979 227.919 321.008 227.951 321.043 227.975C321.077 228 321.116 228.018 321.157 228.028C321.182 228.033 321.207 228.036 321.232 228.036C321.305 228.036 321.375 228.012 321.432 227.967C321.488 227.922 321.528 227.859 321.545 227.789C324.248 216.402 324.009 198.428 323.333 185.354C322.602 171.204 321.215 159.584 321.201 159.469Z" fill="white"/>
<path d="M340.574 219.148L304.715 219.148C304.33 219.148 303.96 219.298 303.684 219.566C303.409 219.834 303.249 220.198 303.239 220.582C303.239 220.6 303.239 220.618 303.239 220.637L303.239 238.98C303.239 241.051 304.063 243.037 305.53 244.501C306.998 245.965 308.988 246.788 311.063 246.788L334.227 246.788C335.254 246.788 336.272 246.586 337.221 246.194C338.17 245.801 339.033 245.226 339.759 244.501C340.486 243.776 341.062 242.915 341.455 241.968C341.848 241.021 342.051 240.006 342.05 238.98L342.05 220.582C342.04 220.199 341.88 219.834 341.604 219.566C341.328 219.298 340.959 219.148 340.574 219.148Z" fill="#4B6BFE"/>
</svg>
