<svg width="294" height="294" viewBox="0 0 294 294" fill="none" xmlns="http://www.w3.org/2000/svg">
<g clip-path="url(#clip0_2949_1046)">
<path d="M147 288.185C226.58 288.185 291.092 223.672 291.092 144.092C291.092 64.5123 226.58 0 147 0C67.4201 0 2.90771 64.5123 2.90771 144.092C2.90771 223.672 67.4201 288.185 147 288.185Z" fill="#EDF3FF"/>
<path d="M175.297 73.5588C161.585 77.272 147.512 79.4152 133.773 83.0079C121.157 86.3066 109.109 91.0841 98.2312 98.3459C88.4881 104.849 79.7298 112.931 72.6944 122.313C65.7854 131.524 60.5228 142.114 58.2884 153.459C56.0069 165.057 57.1624 176.982 61.4489 187.986C65.7766 199.1 72.9355 208.958 81.5879 217.107C90.552 225.551 101.092 232.145 112.408 236.949C124.947 242.274 138.318 245.463 151.827 247.036C165.737 248.656 179.857 248.612 193.781 247.195C207.264 245.822 220.912 242.873 232.613 235.759C242.306 229.867 250.485 221.473 256.012 211.559C261.337 202.007 264.168 190.997 263.377 180.04C262.483 167.692 256.744 155.314 245.349 149.484C240.289 146.897 234.665 145.627 229.055 144.954C222.243 144.136 215.331 144.104 208.481 144.045C200.684 143.978 192.887 144.069 185.094 144.039C177.661 144.013 170.129 144.083 162.732 143.275C155.891 142.528 149.184 140.485 144.222 135.499C139.773 131.033 137.007 124.935 136.34 118.685C135.628 112.04 137.327 105.164 141.981 100.225C146.635 95.2854 153.374 92.6805 160.018 91.4428C167.248 90.0963 174.759 89.7581 182.101 89.62C189.448 89.4788 196.818 89.8023 204.095 90.8636C218.074 92.901 231.722 97.7902 242.865 106.646C248.183 110.87 253.299 115.962 257.021 121.666C260.51 127.014 263.689 134.881 259.649 140.788C256.741 145.036 251.132 145.856 246.904 148.247C246.657 148.385 246.878 148.767 247.128 148.629C251.255 146.297 256.591 145.465 259.643 141.543C263.506 136.584 261.88 129.792 259.27 124.659C256.209 118.641 251.323 113.519 246.354 109.027C241.386 104.535 235.859 100.907 229.902 98.0254C217.219 91.8955 203.039 89.5377 189.051 89.1937C181.727 89.0143 174.38 89.3436 167.089 90.0463C160.386 90.6931 153.556 91.8779 147.641 95.2706C142.358 98.2988 138.274 102.965 136.634 108.892C134.999 114.798 135.646 121.254 137.998 126.879C140.206 132.159 143.975 136.836 148.964 139.712C154.717 143.028 161.5 143.792 168.015 144.113C183.571 144.88 199.161 144.233 214.726 144.58C226.806 144.851 240.318 145.265 250.229 153.139C260.405 161.224 263.888 175.374 262.904 187.837C262.013 199.114 257.491 209.948 250.667 218.918C243.37 228.511 233.465 235.979 222.255 240.398C208.819 245.696 194.063 247.222 179.734 247.692C165.675 248.154 151.522 247.198 137.739 244.326C124.535 241.574 111.594 237.049 99.9247 230.228C89.3524 224.049 79.7768 215.966 72.3181 206.226C64.9181 196.562 59.5732 185.12 58.0267 172.981C56.5332 161.259 58.7059 149.373 63.5157 138.633C68.3873 127.755 75.7491 118.079 84.3956 109.921C93.1186 101.689 103.256 94.8679 114.254 90.061C127.384 84.3191 141.52 81.5085 155.479 78.5979C162.159 77.2044 168.832 75.7755 175.418 73.9909C175.691 73.9174 175.577 73.4911 175.3 73.5646L175.297 73.5588Z" fill="#BAC4FF"/>
<path d="M227.903 166.96C241.761 166.96 252.996 155.725 252.996 141.867C252.996 128.008 241.761 116.774 227.903 116.774C214.045 116.774 202.81 128.008 202.81 141.867C202.81 155.725 214.045 166.96 227.903 166.96Z" fill="#FF5AF4"/>
<path d="M99.9981 143.884L74.4672 161.471C74.4672 161.471 65.6736 151.916 57.1388 141.144C52.2819 135.002 48.945 129.695 46.6283 126L59.1439 112.537C61.3312 114.707 64.3065 117.274 67.1995 119.684C73.9027 125.273 99.9952 143.884 99.9952 143.884H99.9981Z" fill="#FFD6C7"/>
<path d="M164.046 130.995C154.55 146.909 122.278 173.736 119.34 176.529C116.406 179.325 108.548 185.629 101.795 184.006C95.0414 182.38 79.5329 167.263 78.598 165.916C77.663 164.569 71.3215 158.784 70.9187 156.576C70.5159 154.365 87.171 138.856 88.7468 137.451C90.3256 136.046 90.2521 136.91 93.1804 138.033C96.1057 139.159 102.906 141.773 102.906 141.773C102.906 141.773 104.411 140.955 106.649 138.336C106.854 138.092 107.178 137.642 107.598 137.019C107.598 137.019 129.913 110.556 140.17 104.617C144.151 102.312 148.814 101.524 153.38 101.812C156.817 102.03 161.465 102.118 163.746 105.064C166.586 108.733 168.286 113.149 168.012 117.809C167.759 122.107 166.645 126.646 164.052 130.998L164.046 130.995Z" fill="#FF5AF4"/>
<path d="M64.7652 154.988C64.7652 154.988 66.4851 151.222 67.3465 150.319C68.2079 149.417 84.1809 130.66 85.6186 130.642C87.0562 130.627 98.1136 134.981 98.1165 135.96C98.1165 136.942 93.5507 149.564 92.3835 150.837C91.2193 152.11 80.1031 166.475 76.8427 166.204C73.5822 165.934 63.3304 157.866 64.7622 154.985L64.7652 154.988Z" fill="white"/>
<path d="M103.556 142.511C104.585 143.551 105.355 144.833 106.09 146.092C106.825 147.35 107.486 148.661 108.071 149.999C109.23 152.657 110.071 155.461 110.585 158.313C110.879 159.942 111.058 161.588 111.132 163.243C111.155 163.808 112.037 163.811 112.014 163.243C111.749 157.24 110.062 151.328 107.107 146.092C106.275 144.616 105.378 143.099 104.179 141.884C103.779 141.479 103.156 142.105 103.556 142.508V142.511Z" fill="#C426B4"/>
<path d="M104.435 143.19C105.602 143.757 106.428 144.786 107.242 145.765C108.139 146.844 108.995 147.958 109.809 149.102C111.414 151.36 112.852 153.73 114.119 156.193C114.378 156.699 115.139 156.252 114.88 155.749C112.846 151.792 110.359 148.076 107.48 144.683C106.734 143.804 105.934 142.94 104.882 142.428C104.373 142.181 103.926 142.943 104.438 143.19H104.435Z" fill="#C426B4"/>
<path d="M25.4074 85.5511L42.4888 77.0075C43.9118 76.296 45.6493 76.8017 46.4549 78.1599L65.7001 110.585C66.5704 112.052 66.0235 113.937 64.5006 114.728L46.8136 123.906C45.3641 124.659 43.5707 124.133 42.774 122.719L24.1344 89.6583C23.3024 88.1824 23.8786 86.3184 25.4074 85.554V85.5511Z" fill="#121863"/>
<path d="M45.6611 118.726C45.5817 118.711 45.4377 118.661 45.3465 118.503L27.7359 87.415C27.6566 87.2768 27.6713 87.1445 27.6977 87.0622C27.7242 86.977 27.7859 86.8623 27.93 86.7888L44.0382 78.7714C44.1323 78.7244 44.2352 78.7097 44.3381 78.7303C44.4146 78.745 44.5557 78.7949 44.6468 78.9478L62.8278 109.439C62.9101 109.577 62.8983 109.709 62.8748 109.794C62.8513 109.88 62.7896 109.997 62.6455 110.071L45.9639 118.685C45.8669 118.735 45.764 118.75 45.6582 118.729L45.6611 118.726Z" fill="white"/>
<path d="M42.1213 102.794C41.6303 102.985 41.0776 102.874 40.6395 102.488C40.2015 102.103 39.9722 101.533 40.0251 100.96L40.9541 90.6903C41.007 90.114 41.3304 89.6583 41.8185 89.4643C42.3065 89.2702 42.8622 89.3849 43.3002 89.77L51.1177 96.6055C51.5558 96.9877 51.7851 97.561 51.7322 98.1343C51.6792 98.7106 51.3558 99.1663 50.8678 99.3603L42.1213 102.791V102.794Z" fill="#FF685D"/>
<path d="M44.7203 98.2048C44.6556 98.0461 44.6556 97.8961 44.7144 97.755C44.7762 97.6139 44.882 97.5139 45.0319 97.4551C45.1819 97.3963 45.3318 97.3963 45.4729 97.4581C45.6141 97.5198 45.717 97.6315 45.7816 97.7874C45.8463 97.9432 45.8463 98.0961 45.7875 98.2372C45.7258 98.3783 45.6199 98.4783 45.47 98.5371C45.3201 98.5959 45.1701 98.5959 45.029 98.5341C44.8879 98.4724 44.785 98.3636 44.7203 98.2048ZM45.2466 96.8466L44.4704 97.1523L43.0621 94.0065L44.0823 93.6067L45.2466 96.8495V96.8466Z" fill="white"/>
<path d="M46.6284 126C46.6284 126 39.1961 122.11 36.6941 120.716C34.1922 119.323 31.7491 116.168 31.6491 115.918C31.5491 115.668 28.4004 102.388 28.6356 101.245C28.8708 100.101 30.8141 99.078 32.0078 97.4933C33.2014 95.9086 34.8625 94.6062 35.2241 94.865C35.5858 95.1237 36.062 95.9263 35.7916 97.0611C35.5211 98.196 32.0519 103.7 32.0519 103.7C32.0519 103.7 37.7349 99.5631 38.9109 100.586C40.0869 101.609 39.1432 103.312 39.1432 103.312C39.1432 103.312 41.0453 103.506 40.7778 105.128C40.5103 106.751 36.7823 112.09 36.7823 112.09C36.7823 112.09 41.4422 107.716 42.236 108.618C43.0298 109.521 41.7304 111.023 41.4452 111.611C41.16 112.199 38.6963 115.239 38.6963 115.239C38.6963 115.239 42.6035 123.556 44.2029 123.997C45.8023 124.438 50.0623 122.216 50.0623 122.216L46.6255 126H46.6284Z" fill="#FFD6C7"/>
<path d="M39.3901 102.771C37.2086 104.026 35.2506 105.655 33.6248 107.578C33.2602 108.01 33.8806 108.636 34.2481 108.201C35.8268 106.331 37.7143 104.755 39.8341 103.532C40.325 103.25 39.8811 102.486 39.3901 102.771Z" fill="#F47382"/>
<path d="M201.084 32.3401C201.084 32.3401 212.392 47.9956 209.243 58.2033C206.094 68.4109 199.794 70.5572 208.387 77.2898C216.981 84.0224 199.794 113.525 166.995 94.3329C134.196 75.1406 145.368 33.7924 201.081 32.3401H201.084Z" fill="#121863"/>
<path d="M210.927 35.2888C210.369 33.8424 209.728 32.4341 208.984 31.0758C207.79 28.8796 206.347 26.8099 204.618 24.9195C203.818 24.0375 202.957 23.1996 202.028 22.4058C201.69 22.1147 201.334 21.8266 200.976 21.5443C200.787 21.4003 200.599 21.2562 200.405 21.1122C199.106 20.1508 197.827 19.2952 196.574 18.5426C196.539 18.5191 196.504 18.4985 196.471 18.4779C195.754 18.0487 195.046 17.6547 194.346 17.2902C193.878 17.0461 193.408 16.8168 192.946 16.6022C191.238 15.7996 189.583 15.1822 187.987 14.7177C186.493 14.2825 185.052 13.9827 183.671 13.7916C178.138 13.0272 173.519 14.0209 170.179 15.2851C170.085 15.3233 169.985 15.3615 169.891 15.3968C166.328 16.7904 164.311 18.4573 164.311 18.4573C164.311 18.4573 151.331 19.4246 146.603 31.1581C145.853 33.0192 145.313 35.1536 145.06 37.6026C144.366 44.4205 145.245 49.8066 146.594 53.852V53.8579C147.523 56.6479 148.676 58.8059 149.693 60.3582C149.755 60.4523 149.814 60.5464 149.878 60.6346C149.861 60.6875 149.843 60.7434 149.822 60.7992C149.822 60.7992 149.908 60.9286 150.066 61.1667C150.246 61.4401 150.528 61.8488 150.899 62.3751C151.084 62.6397 151.295 62.9307 151.525 63.2541C153.497 65.9883 157.067 70.6512 161.668 75.3728C161.953 75.6668 162.247 75.9608 162.547 76.2577C163.27 76.9869 164.011 77.7042 164.778 78.4186C165.055 78.6774 165.34 78.9361 165.619 79.1889C165.816 79.3683 166.016 79.5447 166.213 79.7181C167.298 80.6795 168.427 81.6203 169.579 82.517C169.897 82.7669 170.22 83.0109 170.541 83.2549C171.164 83.7165 171.79 84.1693 172.428 84.6015C174.08 85.7304 175.78 86.7594 177.517 87.6414C178.49 88.1353 179.472 88.5852 180.472 88.9791C181.254 89.2908 182.042 89.5671 182.833 89.8111C182.85 89.817 182.862 89.82 182.877 89.8259C183.638 90.0552 184.412 90.2551 185.185 90.4138C185.876 90.5579 186.567 90.6696 187.26 90.749C194.328 84.0488 204.98 84.3898 212.433 69.4928C220.268 53.8255 211.019 35.4829 210.919 35.283L210.927 35.2888Z" fill="#121863"/>
<path d="M205.144 75.7403C201.602 77.8071 197.298 74.676 197.298 74.676C197.298 74.676 197.039 78.3245 194.36 81.6115C194.36 81.6115 194.352 81.6232 194.349 81.6291C194.34 81.6379 194.328 81.6497 194.313 81.6703C194.272 81.7173 194.234 81.7702 194.193 81.8173C193.961 82.0877 193.743 82.3435 193.54 82.5817C193.508 82.6199 193.481 82.6552 193.449 82.6904C192.426 83.8929 191.764 84.7073 191.318 85.6892C190.239 87.4062 189.195 89.4936 188.789 91.5575C188.395 93.5743 188.054 95.7146 187.79 97.5404C187.416 100.119 188.863 102.606 191.238 103.473C200.605 106.884 221.644 116.75 203.921 131.809C199.585 135.493 166.842 136.716 160.695 137.342C147.947 138.639 127.825 113.575 146.447 102.768C146.447 102.768 162.038 98.9192 163.041 97.2611C164.04 95.6029 164.314 92.6776 164.314 92.6776L163.067 92.3219C161.818 91.9691 155.473 90.6843 152.78 80.8765C150.084 71.0686 152.465 46.2315 152.465 46.2315C156.864 44.1617 164.275 32.2959 164.467 31.8843C164.661 31.4727 165.784 30.4231 166.986 30.3085C168.194 30.1909 171.534 37.8966 178.955 45.2878C186.375 52.6819 196.918 58.4413 196.918 58.4413C196.918 58.4413 197.43 64.2096 197.292 65.2445C197.156 66.2823 197.847 65.5091 198.279 65.2327C198.709 64.9534 199.414 62.6073 200.105 61.8341C200.796 61.0609 207.702 60.0907 209.09 64.5977C210.478 69.1047 208.678 73.6793 205.141 75.7462L205.144 75.7403Z" fill="#FFD6C7"/>
<path d="M164.314 92.6688C164.314 92.6688 170.029 93.7037 175.924 92.4718C181.818 91.24 187.584 86.8417 187.475 87.3239C187.366 87.806 179.66 98.6017 170.858 101.324C162.056 104.047 164.314 92.6688 164.314 92.6688Z" fill="#F47382"/>
<path d="M200.987 66.5822C200.987 66.5822 202.257 62.9219 204.798 64.5683C207.338 66.2147 206.023 70.2395 204.277 71.9741C202.531 73.7087 201.061 72.9825 201.464 71.9624C201.866 70.9422 202.778 70.9334 202.631 70.1219C202.484 69.3105 202.128 69.581 201.681 69.7015C201.237 69.822 200.035 68.208 200.987 66.5822Z" fill="#F47382"/>
<path d="M175.538 63.0584C176.788 62.9548 177.679 61.4121 177.53 59.6127C177.381 57.8133 176.247 56.4386 174.998 56.5422C173.749 56.6458 172.857 58.1884 173.006 59.9878C173.156 61.7872 174.289 63.162 175.538 63.0584Z" fill="#121863"/>
<path d="M176.345 59.0482C176.73 59.0162 177.005 58.5364 176.958 57.9765C176.912 57.4166 176.562 56.9887 176.177 57.0207C175.791 57.0527 175.517 57.5325 175.563 58.0924C175.61 58.6522 175.96 59.0802 176.345 59.0482Z" fill="white"/>
<path d="M158.581 63.5114C159.634 63.4226 160.376 62.0219 160.238 60.3829C160.099 58.7439 159.134 57.4872 158.08 57.576C157.027 57.6648 156.285 59.0655 156.423 60.7045C156.562 62.3435 157.527 63.6002 158.581 63.5114Z" fill="#121863"/>
<path d="M159.237 59.8542C159.562 59.8267 159.791 59.3913 159.748 58.8817C159.705 58.372 159.406 57.9811 159.081 58.0086C158.756 58.0361 158.527 58.4715 158.57 58.9812C158.613 59.4908 158.912 59.8817 159.237 59.8542Z" fill="white"/>
<path d="M154.765 56.0128C155.226 56.0363 155.673 55.8952 156.099 55.7276C156.526 55.5601 156.943 55.3866 157.361 55.2043C158.193 54.8398 159.013 54.4252 159.748 53.8754C160.312 53.455 159.707 52.526 159.139 52.9493C158.478 53.4433 157.752 53.8196 157.002 54.1459C156.626 54.3105 156.243 54.4664 155.864 54.6192C155.485 54.7721 155.112 54.9133 154.688 54.8927C154.397 54.878 154.168 55.2131 154.185 55.4895C154.206 55.8217 154.468 55.9952 154.762 56.0099L154.765 56.0128Z" fill="#121863"/>
<path d="M172.184 52.3027C174.163 53.9491 176.612 54.8605 179.146 54.9134C179.843 54.9281 179.763 53.8109 179.072 53.7962C176.835 53.7492 174.636 52.9113 172.895 51.4589C172.355 51.0062 171.64 51.8499 172.184 52.3027Z" fill="#121863"/>
<path d="M175.777 110.035C176.829 108.368 178.767 108.189 180.519 108.077C182.486 107.951 184.426 107.586 186.317 107.007C187.078 106.775 187.378 108.01 186.619 108.242C184.858 108.78 183.05 109.13 181.219 109.295C179.769 109.427 177.738 109.253 176.823 110.7C176.391 111.385 175.339 110.723 175.774 110.035H175.777Z" fill="#F47382"/>
<path d="M163.526 102.597C163.543 102.653 163.561 102.706 163.582 102.762C163.599 102.812 163.608 102.829 163.582 102.771C163.62 102.868 163.661 102.965 163.708 103.059C163.793 103.238 163.89 103.412 163.993 103.579C164.043 103.658 164.096 103.738 164.149 103.814C164.214 103.908 164.128 103.791 164.173 103.844C164.202 103.882 164.228 103.92 164.258 103.958C164.381 104.117 164.511 104.27 164.643 104.417C165.181 105.011 165.79 105.525 166.398 106.034C166.651 106.243 166.607 106.725 166.381 106.934C166.104 107.186 165.781 107.139 165.51 106.916C164.193 105.816 162.876 104.629 162.332 102.912C162.232 102.594 162.467 102.203 162.776 102.139C163.123 102.065 163.417 102.259 163.523 102.6L163.526 102.597Z" fill="#F47382"/>
<path d="M165.266 62.6574C165.451 64.3567 164.655 65.9649 163.399 67.0233C163.008 67.3526 162.153 67.8876 162.553 68.5021C163.017 69.2195 164.049 69.4223 164.722 69.8692C165.387 70.3102 164.749 71.4009 164.081 70.9541C163.279 70.4219 162.291 70.1926 161.671 69.3929C161.053 68.5962 161.103 67.6377 161.732 66.8704C162.264 66.2207 163.014 65.8296 163.476 65.1035C163.946 64.3596 164.137 63.5159 164.04 62.6339C164.002 62.2928 164.367 62.0047 164.666 62.0106C165.034 62.0194 165.231 62.3163 165.269 62.6603L165.266 62.6574Z" fill="#F47382"/>
<path d="M161.727 79.527C162.056 82.2818 164.99 84.1958 168.283 83.8018C170.014 83.596 171.502 82.7904 172.475 81.6732C173.348 80.6648 173.807 79.4094 173.651 78.1011C173.495 76.7958 172.757 75.6815 171.673 74.9142C170.464 74.0498 168.827 73.6147 167.089 73.8234C165.319 74.0351 163.811 74.8701 162.841 76.0255C162.406 76.54 162.079 77.1251 161.891 77.7395C161.712 78.3099 161.65 78.9126 161.724 79.5241L161.727 79.527Z" fill="#C94B5D"/>
<path d="M162.844 76.0255C164.161 75.9961 165.563 75.8991 167.01 75.7256C168.662 75.5286 170.235 75.2493 171.672 74.9142C170.464 74.0498 168.827 73.6147 167.089 73.8234C165.319 74.0351 163.811 74.8701 162.841 76.0255H162.844Z" fill="white"/>
<path d="M161.726 79.5269C162.056 82.2817 164.99 84.1956 168.283 83.8017C170.014 83.5959 171.502 82.7903 172.475 81.6731C170.079 78.986 166.16 77.416 161.894 77.7423C161.715 78.3127 161.653 78.9154 161.726 79.5269Z" fill="#F47382"/>
<path d="M114.457 228.641C114.457 228.641 107.801 246.069 106.728 262.624C105.655 279.179 104.582 282.449 106.728 283.975C108.874 285.5 141.296 294.215 177.153 293.997C213.009 293.779 221.814 291.818 222.887 286.153C223.96 280.488 216.875 252.046 208.716 238.602C200.558 225.157 114.457 228.641 114.457 228.641Z" fill="#121863"/>
<path d="M208.264 195.786C208.837 193.143 215.646 181.151 220.23 173.266C224.966 162.25 223.34 143.334 222.684 137.33C222.179 132.7 221.35 119.505 222.296 113.663C222.567 111.999 221.57 110.382 219.903 109.78C210.686 106.443 188.116 99.1808 188.116 99.1808C188.116 99.1808 187.931 120.011 168.374 118.461C148.817 116.912 163.044 97.2551 163.044 97.2551C163.044 97.2551 151.93 100.818 147.473 102.153C147.473 102.153 139.647 106.078 136.051 110.544C132.456 115.007 119.094 144.583 119.094 144.583C119.094 144.583 111.976 154.909 113.067 165.578C114.154 176.247 121.563 192.658 121.563 193.89C121.563 195.122 116.336 214.202 114.592 224.254C112.849 234.306 109.365 244.361 109.8 246.413C110.235 248.465 158.889 255.783 181.254 255.509C203.619 255.236 214.949 255.236 216.111 251.405C217.272 247.574 207.396 199.799 208.267 195.786H208.264Z" fill="#FF5AF4"/>
<path d="M198.965 109.494L195.069 114.088L195.742 114.659L199.638 110.064L198.965 109.494Z" fill="#C426B4"/>
<path d="M170.299 128.275C166.216 128.275 162.338 127.202 159.225 125.117C155.688 122.748 153.106 119.117 150.828 115.912L151.548 115.401C153.891 118.696 156.314 122.104 159.715 124.382C164.446 127.549 171.04 128.266 177.358 126.302C182.542 124.688 187.584 121.425 192.77 116.324L193.387 116.953C188.098 122.154 182.941 125.488 177.62 127.143C175.186 127.902 172.707 128.272 170.299 128.272V128.275Z" fill="#C426B4"/>
<path d="M148.167 177.843C139.718 177.843 131.268 175.774 123.836 171.661L124.262 170.89C138.11 178.552 155.544 178.996 169.762 172.049L170.15 172.843C163.311 176.182 155.741 177.843 148.17 177.843H148.167Z" fill="#C426B4"/>
<path d="M120.718 174.87L120.157 175.551L127.564 181.652L128.125 180.971L120.718 174.87Z" fill="#C426B4"/>
<path d="M131.547 193.187C127.981 190.9 124.765 188.116 121.987 184.914L122.654 184.338C125.376 187.475 128.528 190.203 132.024 192.446L131.547 193.19V193.187Z" fill="#C426B4"/>
<path d="M195.175 233.401L194.781 232.613C199.432 230.287 204.036 227.726 208.47 225.001L208.931 225.754C204.477 228.491 199.85 231.063 195.175 233.404V233.401Z" fill="#C426B4"/>
<path d="M130.709 242.091L130.704 241.209C149.373 241.086 170.535 240.947 189.148 233.653L189.468 234.474C170.702 241.829 149.455 241.968 130.709 242.091Z" fill="#C426B4"/>
<path d="M183.494 239.995L183.374 239.122C186.361 238.704 189.324 238.005 192.182 237.037L192.464 237.872C189.557 238.857 186.537 239.572 183.494 239.995Z" fill="#C426B4"/>
<path d="M151.187 234.735H139.206V235.617H151.187V234.735Z" fill="#C426B4"/>
<path d="M122.319 171.276C122.319 171.276 136.31 189.171 166.625 187.596C196.939 186.02 193.787 171.858 190.206 171.276C186.625 170.693 157.028 190.133 122.319 171.276Z" fill="#C95CC2"/>
<path d="M133.635 244.382C133.635 244.382 191.5 254.91 203.169 245.669C214.838 236.429 133.635 244.382 133.635 244.382Z" fill="#C95CC2"/>
<path d="M190.353 39.1666C200.417 39.1666 208.575 31.0083 208.575 20.9445C208.575 10.8807 200.417 2.72241 190.353 2.72241C180.289 2.72241 172.131 10.8807 172.131 20.9445C172.131 31.0083 180.289 39.1666 190.353 39.1666Z" fill="#121863"/>
<path d="M241.03 120.396C241.03 120.396 248.809 125.861 250.279 129.857C251.752 133.852 250.911 142.681 250.279 144.783C249.647 146.885 237.875 156.767 232.83 155.926C227.785 155.085 218.704 152.563 216.202 141.84C213.7 131.118 213.908 129.436 213.908 129.436L241.027 120.396H241.03Z" fill="white"/>
<path d="M250.985 137.192C250.188 140.179 241.477 147.241 239.598 147.691C237.72 148.141 226.333 145.877 218.812 135.925C211.286 125.973 207.479 112.082 202.228 99.1398C200.279 94.327 198.656 90.8078 197.389 88.2824C194.819 85.0454 191.673 80.3885 191.438 76.787C191.044 70.6306 193.126 60.4964 192.92 58.5942C192.723 56.695 188.569 51.2001 187.528 48.1425C186.487 45.0908 187.825 44.4117 188.419 44.6822C189.013 44.9526 193.093 48.6218 193.093 48.6218L197.774 56.5598C197.774 56.5598 196.809 49.2333 196.58 48.6923C196.36 48.1455 191.235 38.8463 191.829 37.0176C192.423 35.183 194.945 35.5241 194.945 35.5241C194.945 35.5241 195.613 32.2636 197.544 32.4047C199.476 32.537 205.268 41.4305 205.268 41.4305L207.42 49.98C207.42 49.98 208.09 40.5485 207.42 38.5111C206.753 36.4737 206.344 34.5039 206.753 33.4543C207.158 32.4018 207.979 31.8608 208.387 32.2636C208.793 32.6723 213.262 42.2155 214.155 45.1143C215.046 48.0132 213.435 59.6879 211.8 64.3655C211.556 65.0711 211.307 65.7737 211.068 66.4499C211.068 66.4499 211.068 66.4558 211.063 66.4646C210.986 66.8409 210.898 72.8826 211.283 74.0263C211.677 75.2023 214.202 79.3212 217.669 84.3869C221.135 89.4525 239.098 107.237 243.652 114.928C248.207 122.622 251.77 134.199 250.979 137.186L250.985 137.192Z" fill="#FFD6C7"/>
<path d="M202.975 54.9045C202.766 54.9045 202.581 54.7545 202.542 54.5429C202.531 54.4723 201.275 47.5956 200.69 44.9202C200.126 42.3389 195.113 36.1385 195.063 36.0767C194.91 35.8886 194.94 35.6093 195.128 35.4564C195.316 35.3035 195.595 35.3329 195.748 35.5211C195.96 35.7827 200.943 41.945 201.555 44.7321C202.143 47.4222 203.401 54.3165 203.413 54.3841C203.457 54.6222 203.298 54.8545 203.057 54.8957C203.03 54.9015 203.004 54.9015 202.978 54.9015L202.975 54.9045Z" fill="#F47382"/>
<path d="M192.926 81.1381C192.77 81.1381 192.617 81.0558 192.538 80.9088C189.333 75.017 192.108 60.4435 192.461 58.6706L188.198 50.6474C188.083 50.4328 188.166 50.1652 188.38 50.0506C188.595 49.9359 188.863 50.0182 188.977 50.2328L193.39 58.5354L193.358 58.6912C193.325 58.85 190.124 74.6231 193.314 80.4884C193.431 80.703 193.352 80.9705 193.137 81.0852C193.07 81.1205 192.999 81.1381 192.926 81.1381Z" fill="#F47382"/>
<path d="M210.248 128.875C210.23 134.476 210.766 140.073 211.827 145.571C212.888 151.069 214.496 156.517 216.61 161.73C217.795 164.649 219.133 167.501 220.626 170.276C220.897 170.776 221.658 170.332 221.388 169.832C218.756 164.949 216.61 159.816 214.973 154.518C213.338 149.223 212.203 143.769 211.615 138.259C211.283 135.143 211.121 132.012 211.13 128.878C211.13 128.311 210.251 128.311 210.248 128.878V128.875Z" fill="#C426B4"/>
<path d="M221.144 169.844C217.436 169.844 213.735 169.523 210.084 168.868C209.528 168.768 209.29 169.617 209.848 169.717C213.576 170.385 217.357 170.726 221.144 170.723C221.711 170.723 221.711 169.841 221.144 169.841V169.844Z" fill="#C426B4"/>
<path d="M210.545 173.857C211.454 173.857 212.359 173.857 213.268 173.857C213.497 173.857 213.72 173.654 213.709 173.416C213.697 173.178 213.514 172.975 213.268 172.975C212.359 172.975 211.454 172.975 210.545 172.975C210.316 172.975 210.092 173.178 210.104 173.416C210.116 173.654 210.298 173.857 210.545 173.857Z" fill="#C426B4"/>
<path d="M206.958 194.355C202.992 196.36 198.879 198.056 194.669 199.482C190.447 200.911 186.14 202.069 181.786 203.019C177.432 203.968 173.019 204.718 168.594 205.324C164.17 205.929 159.668 206.394 155.188 206.782C150.719 207.17 146.241 207.479 141.767 207.776C141.202 207.814 140.638 207.849 140.07 207.887C139.503 207.926 139.503 208.808 140.07 208.769C144.586 208.472 149.102 208.17 153.615 207.796C158.128 207.423 162.65 206.979 167.151 206.397C171.622 205.818 176.077 205.109 180.492 204.195C184.908 203.28 189.183 202.187 193.428 200.82C197.674 199.452 201.857 197.812 205.885 195.869C206.394 195.622 206.902 195.372 207.405 195.116C207.908 194.86 207.467 194.099 206.961 194.355H206.958Z" fill="#C426B4"/>
<path d="M127.681 121.86C128.496 125.923 126.388 130.007 124.688 133.564C122.91 137.283 120.919 140.902 118.732 144.395C117.665 146.097 116.515 147.75 115.504 149.487C114.492 151.225 113.722 152.998 113.219 154.912C112.69 156.92 112.402 159.004 112.243 161.074C112.084 163.144 112.105 165.352 112.387 167.474C112.996 172.043 114.936 176.247 116.974 180.331C117.227 180.839 117.988 180.393 117.735 179.887C115.918 176.247 114.163 172.513 113.431 168.48C112.699 164.446 112.949 159.995 113.872 155.944C114.328 153.944 115.06 152.066 116.065 150.278C117.071 148.491 118.15 146.959 119.199 145.304C121.393 141.84 123.389 138.254 125.179 134.567C126.17 132.523 127.17 130.451 127.893 128.293C128.616 126.135 128.984 123.871 128.534 121.625C128.422 121.069 127.572 121.304 127.684 121.86H127.681Z" fill="#C426B4"/>
<path d="M83.79 97.4403C89.0443 97.4403 93.3038 93.1808 93.3038 87.9264C93.3038 82.6721 89.0443 78.4126 83.79 78.4126C78.5356 78.4126 74.2761 82.6721 74.2761 87.9264C74.2761 93.1808 78.5356 97.4403 83.79 97.4403Z" fill="#BAD6FF"/>
<path d="M83.79 62.5574C75.6138 62.5574 67.8934 66.5352 63.1364 73.1943C61.7782 75.0935 62.2192 77.7337 64.1184 79.0919C64.8622 79.6241 65.7207 79.8799 66.5733 79.8799C67.8934 79.8799 69.1928 79.2654 70.016 78.11C73.1912 73.6676 78.3392 71.0128 83.79 71.0128C89.2407 71.0128 94.3887 73.6647 97.5639 78.11C98.9221 80.0092 101.562 80.4502 103.461 79.0919C105.361 77.7337 105.802 75.0935 104.443 73.1943C99.6865 66.5323 91.9661 62.5574 83.79 62.5574Z" fill="#BAD6FF"/>
<path d="M83.79 46.7019C72.1123 46.7019 60.9344 51.6882 53.1228 60.3817C51.5617 62.1193 51.7057 64.7917 53.4433 66.3529C54.2518 67.0791 55.2602 67.4348 56.2686 67.4348C57.427 67.4348 58.5795 66.9615 59.4144 66.0324C65.6266 59.1205 74.5113 55.1574 83.7929 55.1574C93.0745 55.1574 101.962 59.1205 108.171 66.0324C109.733 67.77 112.405 67.9111 114.143 66.3499C115.88 64.7888 116.021 62.1163 114.46 60.3788C106.648 51.6852 95.4676 46.699 83.79 46.699V46.7019Z" fill="#BAD6FF"/>
<path d="M124.521 47.9455C113.699 36.9205 99.2309 30.8464 83.79 30.8464C68.3491 30.8464 53.8814 36.9175 43.0592 47.9455C41.4246 49.6125 41.4481 52.2879 43.1151 53.9254C43.9383 54.7339 45.0085 55.1367 46.0757 55.1367C47.1694 55.1367 48.266 54.7134 49.0921 53.8696C58.312 44.4763 70.6364 39.3048 83.79 39.3048C96.9436 39.3048 109.268 44.4763 118.488 53.8696C120.123 55.5366 122.801 55.5601 124.468 53.9254C126.135 52.2908 126.158 49.6125 124.524 47.9455H124.521Z" fill="#BAD6FF"/>
<path d="M83.7753 74.2791C85.0983 74.2791 86.1625 74.6701 86.971 75.4492C87.7766 76.2283 88.1823 77.2249 88.1823 78.4421C88.1823 79.6593 87.7795 80.6265 86.971 81.4056C86.1655 82.1847 85.0983 82.5757 83.7753 82.5757C82.4523 82.5757 81.4144 82.1847 80.6059 81.4056C79.8004 80.6265 79.3947 79.6387 79.3947 78.4421C79.3947 77.2455 79.7974 76.2518 80.6059 75.4639C81.4115 74.676 82.4699 74.282 83.7753 74.282V74.2791ZM87.0387 69.9808H80.5119L79.5858 42.5388H87.9618L87.0387 69.9808Z" fill="#FF0000"/>
<path d="M224.154 63.169L240.272 42.98L250.073 54.7664L224.154 63.169Z" fill="#BAD6FF"/>
<path d="M225.651 65.9089L250.073 66.7674V76.3959L225.651 65.9089Z" fill="#BAD6FF"/>
<path d="M223.49 68.1904L230.47 81.0382L236.45 76.396L223.49 68.1904Z" fill="#BAD6FF"/>
<path d="M42.4742 224.052H40.3221V215.099H42.4742V224.052Z" fill="#F08000"/>
<path d="M51.4501 224.052H49.3038L46.1316 218.48V224.052H43.9736V215.099H46.1316L49.298 220.671V215.099H51.4501V224.052Z" fill="#F08000"/>
<path d="M59.6644 216.766H56.9773V224.052H54.8193V216.766H52.1821V215.099H59.6644V216.766Z" fill="#F08000"/>
<path d="M66.1265 220.25H62.7338V222.391H66.7439V224.052H60.5758V215.099H66.7557V216.766H62.7338V218.654H66.1265V220.253V220.25Z" fill="#F08000"/>
<path d="M70.9451 220.885H69.778V224.052H67.62V215.099H71.1421C72.2035 215.099 73.0325 215.335 73.6323 215.805C74.2321 216.275 74.529 216.94 74.529 217.801C74.529 218.425 74.4026 218.939 74.1497 219.348C73.8969 219.756 73.5029 220.089 72.9649 220.341L74.8348 223.955V224.046H72.5239L70.9451 220.879V220.885ZM69.778 219.224H71.1421C71.5508 219.224 71.8595 219.115 72.0682 218.901C72.274 218.686 72.3799 218.383 72.3799 217.998C72.3799 217.613 72.274 217.307 72.0653 217.09C71.8565 216.869 71.5478 216.76 71.1421 216.76H69.778V219.227V219.224Z" fill="#F08000"/>
<path d="M83.3108 224.052H81.1646L77.9923 218.48V224.052H75.8344V215.099H77.9923L81.1587 220.671V215.099H83.3108V224.052Z" fill="#F08000"/>
<path d="M90.2258 220.25H86.833V222.391H90.8432V224.052H84.675V215.099H90.8549V216.766H86.833V218.654H90.2258V220.253V220.25Z" fill="#F08000"/>
<path d="M98.8722 216.766H96.185V224.052H94.0271V216.766H91.3899V215.099H98.8722V216.766Z" fill="#F08000"/>
<path d="M67.4584 210.763H61.6754L53.123 195.748V210.763H47.3047V186.631H53.123L61.6578 201.646V186.631H67.4584V210.763Z" fill="#F08000"/>
<path d="M91.5722 199.197C91.5722 201.552 91.1371 203.633 90.2639 205.444C89.3908 207.255 88.1501 208.652 86.5419 209.628C84.9337 210.607 83.1021 211.095 81.047 211.095C78.992 211.095 77.1692 210.622 75.5786 209.678C73.9881 208.734 72.7474 207.382 71.8566 205.627C70.9658 203.871 70.5013 201.855 70.4572 199.579V198.221C70.4572 195.857 70.8893 193.77 71.7566 191.964C72.6239 190.156 73.8676 188.763 75.4846 187.781C77.1016 186.796 78.9449 186.305 81.0118 186.305C83.0786 186.305 84.8779 186.79 86.4802 187.763C88.0825 188.736 89.329 190.118 90.2169 191.914C91.1048 193.711 91.5575 195.769 91.5664 198.088V199.2L91.5722 199.197ZM85.657 198.185C85.657 195.789 85.2571 193.967 84.4545 192.726C83.6519 191.482 82.5082 190.862 81.0147 190.862C78.0982 190.862 76.5577 193.049 76.3901 197.424L76.3724 199.197C76.3724 201.561 76.7635 203.38 77.5484 204.651C78.3334 205.921 79.4977 206.556 81.0441 206.556C82.5905 206.556 83.646 205.932 84.4427 204.683C85.2395 203.433 85.6423 201.64 85.654 199.297V198.185H85.657Z" fill="#F08000"/>
<path d="M224.384 213.053C222.726 213.053 221.241 212.197 220.412 210.76C219.583 209.325 219.583 207.611 220.412 206.176L235.215 180.537C236.044 179.102 237.529 178.243 239.187 178.243C240.845 178.243 242.33 179.099 243.159 180.537L257.962 206.176C258.791 207.611 258.791 209.325 257.962 210.76C257.132 212.195 255.648 213.053 253.99 213.053H224.384Z" fill="#FF0000"/>
<path d="M237.385 203.81C237.385 203.336 237.555 202.945 237.899 202.64C238.243 202.334 238.669 202.184 239.184 202.184C239.698 202.184 240.125 202.337 240.469 202.64C240.813 202.945 240.983 203.333 240.983 203.81C240.983 204.286 240.813 204.674 240.469 204.98C240.125 205.286 239.698 205.436 239.184 205.436C238.669 205.436 238.243 205.283 237.899 204.98C237.555 204.674 237.385 204.286 237.385 203.81ZM240.521 200.826H237.893L237.479 191.25H240.933L240.519 200.826H240.521Z" fill="white"/>
</g>
<defs>
<clipPath id="clip0_2949_1046">
<rect width="294" height="294" fill="white"/>
</clipPath>
</defs>
</svg>
