<svg width="2610" height="2610" viewBox="0 0 2610 2610" fill="none" xmlns="http://www.w3.org/2000/svg">
<circle cx="1305" cy="1305" r="1305" fill="white"/>
<path d="M1695.65 1081.73C1697 1069.63 1690.16 989.858 1690.88 986.599C1672.09 986.506 1667.84 1013.86 1664.67 1048.38C1661.51 1082.9 1694.32 1093.84 1695.65 1081.73Z" fill="#E27960"/>
<path d="M1647.55 1101.96C1667.09 1101.96 1701.36 1092.2 1693.24 1079.96C1679.81 1066.53 1642.01 1077.93 1642.01 1077.93L1647.55 1101.96Z" fill="#E27960"/>
<path d="M1647.55 1101.96C1658.99 1101.96 1678.19 1093.05 1690.88 1078.01L1661.48 1071.04L1647.55 1101.96Z" fill="#FFAD94"/>
<path d="M1594.53 949.747C1605.48 941.827 1618.2 958.307 1618.2 958.307L1667.31 1035.73L1690.88 1078.01C1690.88 1078.01 1664.67 1092.32 1646.39 1056.44C1615.69 996.211 1594.53 949.747 1594.53 949.747Z" fill="#FFAD94"/>
<path d="M1508.72 545.4C1508.72 545.4 1526.28 517.027 1545.68 505.094C1549.69 502.627 1554.49 501.747 1559.15 502.56L1570.21 504.507L1545.39 530.747L1508.72 545.4Z" fill="#CE5F49"/>
<path d="M1848.47 1405.01C1837.56 1364.51 1711.61 1399.06 1591.18 1457.89C1481.59 1511.42 1376.61 1585.06 1367.07 1640.55L1819.72 1632.91L1848.47 1405.01Z" fill="#2E353D"/>
<path d="M1848.48 1405.01L1935.39 1546.93C1980.26 1637.76 1977.7 1730.48 1956.95 1804.88L1367.07 1640.54C1390.41 1556.76 1818.52 1597.62 1848.48 1405.01Z" fill="#0B61DD"/>
<path d="M1734.69 1074.36C1760.14 1026.64 2112.84 1021.78 2070.83 1049.51L1881.76 1112.99L1734.69 1074.36Z" fill="#2E353D"/>
<path d="M2321.01 824.929L1549.54 609.989C1535.57 606.089 1527.39 591.603 1531.28 577.631L1547.83 518.225C1551.73 504.253 1566.21 496.073 1580.19 499.972L2351.68 714.908C2365.65 718.802 2373.83 733.29 2369.93 747.269L2353.37 806.673C2349.49 820.649 2335 828.824 2321.01 824.929Z" fill="#84B8FF"/>
<path d="M1861.75 1518.72L1864.9 1526.56L1867.84 1534.48L1870.54 1542.44C1871.38 1545.13 1872.24 1547.79 1873.03 1550.48C1873.78 1553.17 1874.59 1555.86 1875.29 1558.55C1875.56 1559.61 1875.83 1560.68 1876.12 1561.73L1896.02 1567.28C1895.3 1565.35 1894.59 1563.4 1893.83 1561.47C1892.77 1558.72 1891.6 1556.03 1890.49 1553.31C1889.36 1550.6 1888.13 1547.93 1886.95 1545.24C1885.74 1542.57 1884.45 1539.95 1883.2 1537.29L1879.25 1529.47L1875.08 1521.76L1870.72 1514.19L1870.52 1513.84L1828.83 1455.39L1861.95 1519.08L1861.75 1518.72Z" fill="white"/>
<path d="M1917.3 1665.17C1916.85 1659.23 1916.23 1653.29 1915.48 1647.39C1914.75 1641.48 1913.85 1635.59 1912.83 1629.73C1911.81 1623.88 1910.65 1618.05 1909.35 1612.27C1909.01 1610.76 1908.64 1609.25 1908.28 1607.75L1883.53 1600.85C1884.18 1605.91 1884.7 1610.95 1885.12 1616.01C1885.56 1621.52 1885.88 1627.04 1886.04 1632.55C1886.22 1638.07 1886.28 1643.57 1886.18 1649.08C1886.11 1654.59 1885.89 1660.08 1885.55 1665.57C1885.23 1671.05 1884.76 1676.52 1884.19 1681.97C1883.61 1687.43 1882.92 1692.87 1882.1 1698.28C1881.3 1703.69 1880.37 1709.08 1879.34 1714.45C1877.27 1725.19 1874.75 1735.81 1871.86 1746.32C1870.41 1751.57 1868.85 1756.79 1867.2 1761.97L1864.65 1769.72L1861.97 1777.43L1861.82 1777.83C1861.46 1778.85 1861.19 1779.92 1860.98 1781.01C1858.36 1794.23 1866.94 1807.07 1880.18 1809.68C1893.39 1812.29 1906.22 1803.69 1908.83 1790.48L1910.58 1781.61L1912.17 1772.72C1913.16 1766.77 1914.07 1760.83 1914.85 1754.87C1916.39 1742.93 1917.48 1730.96 1918.06 1718.99C1918.36 1713 1918.54 1707 1918.59 1701.01C1918.63 1695.03 1918.56 1689.04 1918.34 1683.07C1918.13 1677.09 1917.79 1671.13 1917.3 1665.17Z" fill="white"/>
<path d="M2031.84 1862.82L1260.37 1647.87C1246.4 1643.98 1231.9 1652.15 1228.01 1666.12L1211.46 1725.54C1207.57 1739.51 1215.75 1754 1229.72 1757.9L2001.18 1972.83C2015.17 1976.72 2029.66 1968.55 2033.55 1954.58L2050.11 1895.18C2054 1881.19 2045.83 1866.71 2031.84 1862.82Z" fill="#84B8FF"/>
<path d="M2022.78 1860.28L2025.3 1851.2C2029.21 1837.23 2021.04 1822.75 2007.05 1818.86L1304.34 1623.07C1290.36 1619.17 1275.87 1627.35 1271.97 1641.32L1269.45 1650.4L2022.78 1860.28Z" fill="#84B8FF"/>
<path d="M2311.96 822.399L2309.43 831.473C2305.54 845.451 2291.06 853.624 2277.06 849.73L1574.34 653.943C1560.37 650.051 1552.2 635.572 1556.09 621.579L1558.6 612.515L2311.96 822.399Z" fill="#84B8FF"/>
<path d="M1300.38 1619.44L2012.34 1817.79C2036.32 1729.53 2026.84 1636.12 1985.64 1554.48L1843.39 1322.21C1829.21 1299.04 1825.9 1270.95 1834.32 1245.12L1834.62 1244.15C1842.2 1220.9 1858.33 1201.89 1880.04 1190.62L2121.76 1065.1C2195.69 1026.61 2253.66 949.518 2281.03 853.363L1569.07 655.003C1545 743.566 1554.44 837.076 1595.69 918.606L1737.7 1150.86C1750.53 1171.82 1754.48 1196.53 1748.84 1220.45L1748.66 1221.22C1742.42 1247.68 1724.98 1269.98 1700.79 1282.4L1488.33 1391.48C1396.94 1437.8 1328.56 1520.79 1300.38 1619.44ZM2014.03 1823.23C2013.82 1823.23 2013.59 1823.19 2013.38 1823.13L1296.7 1623.47C1295.42 1623.11 1294.66 1621.76 1295.03 1620.47C1309.39 1568.91 1333.83 1522.15 1367.65 1481.48C1400.38 1442.15 1440.23 1410.4 1486.11 1387.15L1698.56 1278.07C1721.48 1266.31 1738.02 1245.18 1743.93 1220.11L1744.1 1219.33C1749.45 1196.67 1745.69 1173.26 1733.55 1153.4L1591.5 921.061C1591.45 921.005 1591.44 920.949 1591.4 920.889C1549.19 837.534 1539.81 741.811 1565.02 651.358C1565.2 650.731 1565.62 650.201 1566.18 649.896C1566.74 649.575 1567.4 649.495 1568.02 649.672L2284.69 849.332C2285.31 849.505 2285.83 849.918 2286.15 850.479C2286.47 851.042 2286.55 851.705 2286.37 852.329C2273 900.306 2252.56 943.353 2225.58 980.273C2197.22 1019.11 2163.03 1049.1 2124.01 1069.42L1882.27 1194.94C1861.7 1205.62 1846.43 1223.63 1839.25 1245.66L1838.94 1246.63C1830.96 1271.1 1834.09 1297.72 1847.53 1319.67L1989.83 1552.03C1989.87 1552.08 1989.89 1552.15 1989.92 1552.2C2032.09 1635.67 2041.5 1731.28 2016.37 1821.44C2016.07 1822.52 2015.1 1823.23 2014.03 1823.23Z" fill="#84B8FF"/>
<path d="M1792.97 1178.47C1786.47 1149.06 1734.68 1074.37 1734.68 1074.37C1767.42 1040.64 1914.17 1103.88 2070.8 1049.52C2070.8 1049.52 1879.95 1148.42 1840.93 1169.56C1821.66 1180 1810.24 1192.25 1802.82 1207.13C1800.58 1211.62 1793.81 1209.76 1794.12 1204.75C1794.69 1195.22 1794.65 1186.08 1792.97 1178.47Z" fill="#0B61DD"/>
<path d="M2309.43 831.473L2311.96 822.399L1558.6 612.515L2280.08 850.367C2293.07 852.403 2305.81 844.447 2309.43 831.473Z" fill="#2E353D"/>
<path d="M1545.59 1833.88C1545.27 1833.88 1544.95 1833.83 1544.64 1833.69C1514.25 1820.8 1485.12 1799.96 1456.96 1779.81C1424.03 1756.27 1392.93 1734.01 1362.32 1725.8C1328.36 1716.67 1299.93 1726.39 1272.88 1756.37C1271.99 1757.37 1270.44 1757.44 1269.44 1756.55C1268.45 1755.64 1268.37 1754.11 1269.27 1753.11C1331.53 1684.11 1393.83 1728.68 1459.79 1775.85C1487.75 1795.85 1516.65 1816.52 1546.53 1829.21C1547.77 1829.73 1548.35 1831.16 1547.83 1832.4C1547.44 1833.33 1546.53 1833.88 1545.59 1833.88Z" fill="white"/>
<path d="M1621.91 1855.21C1621.57 1855.21 1621.25 1855.15 1620.93 1855.01C1595.04 1843.84 1564.76 1819.99 1532.69 1794.72C1442.69 1723.79 1330.67 1635.52 1213.24 1733.85C1212.21 1734.72 1210.68 1734.59 1209.81 1733.55C1208.96 1732.52 1209.09 1730.99 1210.12 1730.12C1263.69 1685.27 1320.75 1674.13 1384.56 1696.12C1439.44 1715.04 1490.59 1755.33 1535.71 1790.89C1567.51 1815.96 1597.55 1839.63 1622.87 1850.55C1624.09 1851.08 1624.67 1852.51 1624.13 1853.75C1623.73 1854.67 1622.84 1855.21 1621.91 1855.21Z" fill="white"/>
<path d="M1995.88 1855.21C1995.65 1855.21 1995.43 1855.19 1995.2 1855.12C1984.48 1852.12 1962.35 1851.75 1934.31 1851.27C1893.09 1850.55 1836.65 1849.59 1787.88 1838.84C1729.47 1825.97 1694.11 1802.32 1679.79 1766.53C1679.29 1765.29 1679.89 1763.88 1681.15 1763.37C1682.41 1762.88 1683.82 1763.49 1684.31 1764.73C1697.97 1798.91 1732.2 1821.59 1788.93 1834.09C1837.23 1844.72 1891.1 1845.65 1934.39 1846.4C1962.78 1846.88 1985.19 1847.27 1996.52 1850.44C1997.82 1850.8 1998.56 1852.13 1998.2 1853.43C1997.9 1854.51 1996.92 1855.21 1995.88 1855.21Z" fill="white"/>
<path d="M1214.84 1713.39L1211.46 1725.53C1207.58 1739.51 1215.74 1754 1229.72 1757.89L2001.19 1972.83C2001.81 1973 2002.42 1973.12 2003.04 1973.24L1214.84 1713.39Z" fill="#0B61DD"/>
<path d="M1761.76 1340.21C1769.6 1340.21 1769.6 1328.05 1761.76 1328.05C1753.92 1328.05 1753.92 1340.21 1761.76 1340.21Z" fill="#0B61DD"/>
<path d="M1769.25 1302.51C1777.09 1302.51 1777.09 1290.35 1769.25 1290.35C1761.41 1290.35 1761.41 1302.51 1769.25 1302.51Z" fill="#0B61DD"/>
<path d="M1742 1314.4C1749.85 1314.4 1749.85 1302.24 1742 1302.24C1734.16 1302.24 1734.16 1314.4 1742 1314.4Z" fill="#0B61DD"/>
<path d="M1799.65 1336.77C1807.51 1336.77 1807.51 1324.61 1799.65 1324.61C1791.81 1324.61 1791.81 1336.77 1799.65 1336.77Z" fill="#0B61DD"/>
<path d="M1820.95 1391.49C1828.79 1391.49 1828.79 1379.33 1820.95 1379.33C1813.11 1379.33 1813.11 1391.49 1820.95 1391.49Z" fill="#0B61DD"/>
<path d="M1790.69 1376.95C1798.53 1376.95 1798.53 1364.78 1790.69 1364.78C1782.85 1364.78 1782.85 1376.95 1790.69 1376.95Z" fill="#0B61DD"/>
<path d="M1651.43 1508.47C1659.27 1508.47 1659.27 1496.29 1651.43 1496.29C1643.59 1496.29 1643.59 1508.47 1651.43 1508.47Z" fill="#0B61DD"/>
<path d="M1769.25 1434.67C1777.09 1434.67 1777.09 1422.51 1769.25 1422.51C1761.41 1422.51 1761.41 1434.67 1769.25 1434.67Z" fill="#0B61DD"/>
<path d="M1799.73 1222.89C1807.57 1222.89 1807.57 1210.73 1799.73 1210.73C1791.89 1210.73 1791.89 1222.89 1799.73 1222.89Z" fill="#0B61DD"/>
<path d="M1797.85 1257.38C1805.69 1257.38 1805.69 1245.22 1797.85 1245.22C1790.01 1245.22 1790.01 1257.38 1797.85 1257.38Z" fill="#0B61DD"/>
<path d="M1792.52 1293.98C1800.36 1293.98 1800.36 1281.82 1792.52 1281.82C1784.67 1281.82 1784.67 1293.98 1792.52 1293.98Z" fill="#0B61DD"/>
<path d="M1726.52 1335.72C1734.36 1335.72 1734.36 1323.56 1726.52 1323.56C1718.68 1323.56 1718.68 1335.72 1726.52 1335.72Z" fill="#0B61DD"/>
<path d="M1785.29 1269.7C1793.15 1269.7 1793.15 1257.54 1785.29 1257.54C1777.45 1257.54 1777.45 1269.7 1785.29 1269.7Z" fill="#0B61DD"/>
<path d="M1776.03 1282.96C1783.87 1282.96 1783.87 1270.8 1776.03 1270.8C1768.19 1270.8 1768.19 1282.96 1776.03 1282.96Z" fill="#0B61DD"/>
<path d="M1790.69 1237.65C1798.53 1237.65 1798.53 1225.49 1790.69 1225.49C1782.85 1225.49 1782.85 1237.65 1790.69 1237.65Z" fill="#0B61DD"/>
<path d="M1752.84 1503.17C1760.68 1503.17 1760.68 1491.01 1752.84 1491.01C1745 1491.01 1745 1503.17 1752.84 1503.17Z" fill="#0B61DD"/>
<path d="M1705 1390.48C1712.84 1390.48 1712.84 1378.32 1705 1378.32C1697.16 1378.32 1697.16 1390.48 1705 1390.48Z" fill="#0B61DD"/>
<path d="M1818.51 1448.04C1826.35 1448.04 1826.35 1435.88 1818.51 1435.88C1810.67 1435.88 1810.67 1448.04 1818.51 1448.04Z" fill="#0B61DD"/>
<path d="M1649.83 1047.88C1654.73 1046.99 1656.09 1037.25 1655.47 1032.25L1648.03 975.267C1647.11 964.454 1641.64 949.947 1628.43 954.534L1638.71 1040.69C1641.2 1045.82 1646.19 1056.03 1646.19 1056.03C1646.19 1056.03 1649.65 1047.91 1649.83 1047.88Z" fill="#FFAD94"/>
<path d="M1666.04 1044.51L1668.92 1014.21C1670 1006.4 1666.92 995.099 1656.83 996.237L1649.19 1056.03L1658.95 1049.88L1666.04 1044.51Z" fill="#FFAD94"/>
<path d="M1644.45 1048.54C1638.97 1045.34 1635.97 1048.99 1637.55 1052.95C1650.43 1065.82 1644.45 1048.54 1644.45 1048.54Z" fill="#FFAD94"/>
<path d="M2358.68 718.033C2304.5 727.756 2259.66 722.383 2194.48 671.12L2182.66 667.831C2218.48 697.378 2249.46 714.622 2279.49 722.139C2292.65 725.438 2305.55 726.84 2318.46 726.84C2333.25 726.84 2348.11 724.992 2363.55 722.056C2362.1 720.54 2360.48 719.178 2358.68 718.033Z" fill="white"/>
<path d="M2370.89 739.582C2323.63 751.086 2261.24 746.59 2199.33 727.163C2132.81 706.283 2070.73 670.124 2018.83 622.184L2008.74 619.366C2062.49 670.98 2127.75 709.79 2197.88 731.806C2237.72 744.311 2277.8 750.7 2314.08 750.7C2334.32 750.7 2353.37 748.682 2370.52 744.654C2370.82 742.954 2370.92 741.258 2370.89 739.582Z" fill="white"/>
<path d="M1986.44 692.186C1942.08 656.072 1896.21 618.732 1843.64 602.975C1784.93 585.354 1726.97 598.333 1666.57 642.591L1672.54 644.261C1730.51 602.782 1786.11 590.794 1842.24 607.631C1893.89 623.123 1939.37 660.152 1983.37 695.955C2008.86 716.724 2033.46 736.724 2058.19 751.699L2078.56 757.375C2048.11 742.371 2017.97 717.862 1986.44 692.186Z" fill="white"/>
<path d="M1927.92 694.912C1896.8 674.427 1867.4 655.081 1839.94 646.113C1819.74 639.508 1795.04 642.085 1778.46 652.519C1770.91 657.259 1765.89 663.11 1763.68 669.659L1768.38 670.968C1770.73 664.335 1776.35 659.594 1781.04 656.633C1796.48 646.925 1819.53 644.562 1838.43 650.74C1865.28 659.509 1894.41 678.684 1925.25 698.983C1939.83 708.564 1954.62 718.301 1969.33 726.956L1989.41 732.55C1969.17 722.059 1948.31 708.336 1927.92 694.912Z" fill="white"/>
<path d="M1773.43 553.814C1759.65 556.28 1742.24 561.294 1722.41 567C1666.68 583.054 1591.21 604.774 1530.61 588.574C1530.89 590.44 1531.39 592.24 1532.04 593.987C1546.79 597.64 1562.31 599.187 1578.15 599.187C1628.28 599.187 1681.61 583.814 1723.76 571.68C1748.69 564.494 1770.99 558.08 1785.41 557.147L1773.43 553.814Z" fill="white"/>
<path d="M1696.65 532.427C1687.65 533.427 1677.27 534.974 1665.85 536.667C1627.07 542.454 1579.44 549.547 1541.04 542.587L1539.73 547.267C1551.52 549.44 1564.09 550.347 1577.01 550.347C1607.15 550.347 1639.07 545.587 1666.57 541.48C1683.59 538.947 1699.03 536.64 1710.2 536.187L1696.65 532.427Z" fill="white"/>
<path d="M1488.47 603.2C1488.47 603.2 1491.77 558.4 1501.12 550.587C1510.47 542.774 1580.72 504.387 1583.04 501.974C1593.51 517.587 1573.07 536.254 1546.04 557.974C1519.03 579.694 1567.41 608.467 1520.56 638.387C1510.81 644.614 1488.47 603.2 1488.47 603.2Z" fill="#E27960"/>
<path d="M2050.55 1882.96C2050.18 1881.17 2049.66 1879.43 2048.94 1877.76C2033.09 1875.59 2012.66 1879.52 1987.66 1884.35C1953.34 1890.96 1910.61 1899.2 1859.2 1895.85C1745.4 1888.43 1628.57 1790.39 1572.44 1743.28C1566.21 1738.05 1561.2 1733.85 1557.13 1730.55L1544.62 1727.05C1549.54 1730.41 1558.54 1737.97 1569.31 1747C1595.74 1769.19 1639.98 1806.32 1691.06 1838.07C1752.72 1876.39 1809.18 1897.47 1858.87 1900.71C1867.2 1901.25 1875.27 1901.49 1883.13 1901.49C1924.46 1901.49 1959.51 1894.73 1988.59 1889.12C2014.46 1884.13 2035.28 1880.13 2050.55 1882.96Z" fill="white"/>
<path d="M2022.79 1862.71C2022.57 1862.71 2022.34 1862.68 2022.14 1862.63L1268.8 1652.74C1267.5 1652.38 1266.75 1651.04 1267.11 1649.75C1267.47 1648.45 1268.8 1647.7 1270.1 1648.05L2023.44 1857.93C2024.72 1858.29 2025.49 1859.64 2025.13 1860.93C2024.82 1862.01 2023.86 1862.71 2022.79 1862.71Z" fill="#0B61DD"/>
<path d="M1277.43 921.734C1289.73 923.574 1302.25 913.854 1305.79 888.707C1308.09 872.347 1246.15 881.947 1246.15 881.947C1246.15 881.947 1265.12 919.88 1277.43 921.734Z" fill="#2E353D"/>
<path d="M1096.19 830.734L1352.89 773.787L1498.67 589.44L1534.67 619.974L1409.64 831.694C1406.44 837.12 1401.84 841.227 1396.57 843.827L1389.6 847.267L1144.68 968.374C1108.29 986.375 1064.21 971.467 1046.21 935.08C1028.23 898.694 1043.13 854.601 1079.52 836.601C1084.83 833.987 1090.67 832.001 1096.19 830.734Z" fill="#E27960"/>
<path d="M1298.32 785.894L1096.19 830.734C1090.67 832.001 1084.83 833.987 1079.52 836.601C1073.79 839.441 1068.57 842.934 1063.95 846.947L1147.17 959.56C1147.17 959.56 1156.31 958.294 1169.91 955.907L1283.85 921.374C1251.08 908.067 1298.32 785.894 1298.32 785.894Z" fill="#E5BC0E"/>
<path d="M1100.28 1467.51C1097.27 1472.71 1094.43 1490.13 1116.32 1487.69C1138.21 1485.27 1116.32 1464.59 1116.32 1464.59L1100.28 1467.51Z" fill="#ABBD43"/>
<path d="M1107.56 1487.93C1107.56 1487.93 1074.87 1512.81 1096.65 1521.79C1115.99 1502.47 1107.56 1487.93 1107.56 1487.93Z" fill="#ABBD43"/>
<path d="M989.428 1762.81L945.037 1882.07C940.903 1894.87 946.472 1909.16 958.803 1915.57C972.557 1922.73 989.507 1917.39 996.66 1903.63L1065.49 1771.29L989.428 1762.81Z" fill="#FFAD94"/>
<path d="M967.388 1822.03C971.148 1825.61 1000.28 1838.71 1030.11 1839.33L1048.12 1804.71L964.656 1821.16L967.388 1822.03Z" fill="#CE5F49"/>
<path d="M948.114 1872.52L945.037 1882.07C943.586 1886.56 943.354 1891.23 944.165 1895.68L993.484 1908.45C994.682 1906.99 995.75 1905.37 996.66 1903.63L1010.75 1876.56C985.784 1881.21 958.558 1875.25 948.114 1872.52Z" fill="white"/>
<path d="M905.723 1943.16L891.952 1967.27C891.952 1967.27 891.952 1970.56 923.384 1972.97C942.356 1974.43 1075.29 1972.97 1079.85 1972.97C1084.41 1972.97 1153.11 1967.77 1156.32 1943.16H905.723Z" fill="white"/>
<path d="M1156.32 1943.16C1156.32 1921.64 1050.09 1932.47 1024.39 1853.19C1024.39 1853.19 1013.81 1852.47 1011.11 1871C1010.19 1877.32 972.169 1899.69 964.057 1897.92C955.945 1896.15 954.293 1864.61 945.018 1863.97C931.324 1863.03 903.522 1913.23 905.722 1943.16C1021.89 1938.36 1105.96 1970.31 1156.32 1943.16Z" fill="#FA6142"/>
<path d="M941.782 1871.8C941.146 1871.8 940.51 1871.55 940.033 1871.05C925.644 1856.16 919.821 1842.92 924.457 1835.63C926.649 1832.19 930.974 1830.96 935.476 1832.51C944.346 1835.55 952.426 1847.8 950.48 1868.31C950.353 1869.64 949.173 1870.61 947.829 1870.49C946.492 1870.37 945.51 1869.19 945.637 1867.84C947.58 1847.39 938.806 1838.79 933.897 1837.11C931.528 1836.29 929.533 1836.72 928.561 1838.24C926.576 1841.36 927.496 1851.07 943.532 1867.67C944.466 1868.64 944.44 1870.17 943.473 1871.11C943.001 1871.57 942.392 1871.8 941.782 1871.8Z" fill="#FA6142"/>
<path d="M1073.17 1908.68C1110.09 1928.55 1156.32 1928.97 1156.32 1943.16C1128.28 1958.28 1081.53 1956.2 1031.49 1949.11C1038.27 1917.85 1073.17 1908.68 1073.17 1908.68Z" fill="#D83A21"/>
<path d="M1024.39 1853.19C1024.39 1853.19 1013.81 1852.47 1011.11 1871C1011.08 1871.19 1011 1871.37 1010.95 1871.57V1871.67C1013.79 1881.23 1048.59 1908.31 1051.73 1909.88C1055.16 1906.45 1059.61 1904.37 1064.52 1903.71C1049.23 1892.87 1031.97 1876.57 1024.39 1853.19Z" fill="#D83A21"/>
<path d="M1042.31 1909.43C1041.73 1909.43 1041.16 1909.23 1040.69 1908.81C1039.69 1907.92 1039.6 1906.39 1040.49 1905.37C1040.79 1905.04 1047.81 1897.2 1056.52 1896.03C1057.85 1895.84 1059.08 1896.77 1059.27 1898.11C1059.44 1899.44 1058.51 1900.67 1057.17 1900.84C1050.24 1901.79 1044.19 1908.53 1044.13 1908.6C1043.65 1909.15 1042.99 1909.43 1042.31 1909.43Z" fill="white"/>
<path d="M1030.96 1899.69C1030.39 1899.69 1029.8 1899.49 1029.35 1899.08C1028.35 1898.19 1028.25 1896.65 1029.15 1895.64C1029.45 1895.31 1036.73 1887.24 1046.11 1886.03C1047.44 1885.87 1048.67 1886.79 1048.84 1888.12C1049.01 1889.45 1048.07 1890.68 1046.73 1890.85C1039.17 1891.83 1032.84 1898.81 1032.77 1898.88C1032.29 1899.41 1031.63 1899.69 1030.96 1899.69Z" fill="white"/>
<path d="M1021.33 1890.12C1020.81 1890.12 1020.28 1889.95 1019.84 1889.6C1018.77 1888.79 1018.59 1887.25 1019.41 1886.19C1019.72 1885.8 1027.12 1876.41 1037.13 1875.48C1038.47 1875.37 1039.65 1876.33 1039.77 1877.68C1039.91 1879.01 1038.92 1880.2 1037.59 1880.32C1029.64 1881.07 1023.32 1889.09 1023.25 1889.17C1022.77 1889.8 1022.05 1890.12 1021.33 1890.12Z" fill="white"/>
<path d="M1020.05 1885.61C982.353 1888.64 967.327 1902.88 966.033 1914.68C965.325 1921.15 968.899 1926.57 974.925 1928.19C985.623 1931.07 1003.61 1921.91 1019.11 1886.71C1019.31 1886.24 1019.65 1885.87 1020.05 1885.61ZM978.86 1933.56C977.036 1933.56 975.3 1933.32 973.667 1932.89C965.359 1930.67 960.232 1922.96 961.199 1914.15C962.772 1899.8 980.748 1882.35 1026.23 1880.36C1027.56 1880.31 1028.71 1881.35 1028.77 1882.69C1028.83 1884.03 1027.79 1885.16 1026.44 1885.23C1025.03 1885.28 1023.65 1885.36 1022.29 1885.45C1022.31 1885.45 1022.31 1885.45 1022.31 1885.45C1023.55 1886 1024.09 1887.44 1023.56 1888.67C1008.92 1921.93 991.74 1933.56 978.86 1933.56Z" fill="white"/>
<path d="M1053.61 1952.75C1028.15 1952.75 1011.12 1937.25 1005.49 1920.76C1000.12 1905.01 1005.25 1890 1018.25 1883.39C1019.45 1882.79 1020.92 1883.25 1021.52 1884.45C1022.13 1885.65 1021.65 1887.12 1020.45 1887.72C1009.53 1893.28 1005.47 1905.63 1010.09 1919.19C1015.15 1933.99 1030.56 1947.87 1053.68 1947.87C1057.45 1947.87 1061.41 1947.51 1065.57 1946.71C1066.89 1946.45 1068.16 1947.33 1068.41 1948.65C1068.67 1949.97 1067.8 1951.24 1066.48 1951.49C1061.99 1952.35 1057.69 1952.75 1053.61 1952.75Z" fill="white"/>
<path d="M1064.52 1810.35L1253.97 1468.19C1265.31 1446.33 1261.93 1418.71 1243.67 1400.27L1232.49 1388.99L951.585 1173.09C943.924 1165.43 934.691 1158.31 924.713 1152.85C868.157 1121.87 797.203 1142.61 766.231 1199.17C735.259 1255.72 755.997 1326.68 812.553 1357.65L1112.07 1473.96L964.656 1821.16C984.531 1828.4 1050.28 1819.77 1064.52 1810.35Z" fill="#ABBD43"/>
<path d="M1016.72 1834.23C1000.73 1834.23 985.484 1831.44 976.012 1826.03C974.935 1825.4 974.495 1824.07 974.993 1822.93L1122.77 1485.88C1123.6 1483.27 1122.68 1480.47 1120.51 1479.04C1115.77 1475.93 1112.84 1472.03 1112.01 1467.73C1111.31 1464.07 1112.11 1460.19 1114.41 1456.17C1099.13 1445.65 1072.05 1429.03 1040.91 1409.91C979.935 1372.48 904.057 1325.9 873.109 1298.24C872.108 1297.35 872.021 1295.81 872.916 1294.81C873.811 1293.81 875.351 1293.72 876.351 1294.62C906.975 1321.98 982.645 1368.43 1043.45 1405.76C1076.01 1425.75 1104.13 1443.01 1119.12 1453.52C1120.21 1454.28 1120.48 1455.8 1119.72 1456.89C1117.2 1460.52 1116.21 1463.85 1116.79 1466.81C1117.52 1470.57 1120.67 1473.32 1123.17 1474.97C1127.21 1477.63 1128.93 1482.79 1127.36 1487.52C1127.33 1487.59 1127.31 1487.65 1127.28 1487.72L980.356 1822.81C1002.44 1833.64 1053.17 1831.25 1071.03 1814.17C1071.99 1813.25 1073.53 1813.28 1074.45 1814.25C1075.39 1815.23 1075.36 1816.76 1074.39 1817.69C1062.75 1828.84 1039 1834.23 1016.72 1834.23Z" fill="#6F8137"/>
<path d="M848.782 1377.49L1083.44 1462.85C1028.01 1427.78 966.114 1357.64 958.626 1296.43L848.782 1377.49Z" fill="#2E353D"/>
<path d="M694.781 1287.6L711.807 1199.55L739.781 1205.24L694.781 1287.6Z" fill="#6F8137"/>
<path d="M394.794 1663.31C394.794 1663.31 296.422 1753.05 284.28 1766.03C274.689 1776.35 274.102 1792.55 283.52 1803.47C293.625 1815.17 311.313 1816.48 323.026 1806.37C336.481 1794.77 434.522 1724.11 434.522 1724.11L394.794 1663.31Z" fill="#FFAD94"/>
<path d="M332.248 1798.52C332.818 1796.55 331.762 1794.45 328.489 1792.27C305.805 1777.12 307.696 1747.21 309.298 1738.87L308.777 1742.53C300.494 1751.63 292.682 1757.05 284.28 1766.03C274.689 1776.35 274.102 1792.55 283.52 1803.47C287.713 1808.32 293.217 1811.36 299.053 1812.57C308.752 1810.45 318.572 1807.79 325.022 1804.68C327.42 1802.61 329.84 1800.57 332.248 1798.52Z" fill="white"/>
<path d="M405.728 1745.52L350.206 1693.37C347.57 1708.91 341.772 1751.07 359.035 1779.07C359.036 1779.07 405.728 1745.52 405.728 1745.52Z" fill="#CE5F49"/>
<path d="M401.229 1970.39C401.229 1970.39 411.382 1968.01 409.729 1956.45C409.684 1956.13 408.844 1953.15 408.844 1953.15L370.772 1941.57L249.023 1786.2C249.023 1786.2 230.641 1786.35 224.409 1793.6C207.448 1813.36 242.809 1856.2 252.569 1870.99C262.331 1885.77 277.017 1929.45 293.565 1948.97C305.424 1962.96 319.708 1972.63 337.462 1972.56L401.229 1970.39Z" fill="white"/>
<path d="M349.667 1791.72C349.667 1791.72 347.357 1864.03 365.407 1912.63C378.163 1946.97 385.911 1954.77 383.049 1959.05C383.049 1959.05 381.724 1949.41 360.136 1962.03C359.663 1961.91 331.253 1961.29 312.215 1939.44C293.079 1917.47 278.479 1887.89 272.519 1865.99C267.861 1848.87 240.349 1807.03 243.447 1793.11C246.816 1777.96 259.424 1773.07 267.427 1768.84C291.676 1756.05 296.713 1742.61 296.713 1742.61C300.019 1762.61 292.908 1777.29 295.097 1781.83C297.287 1786.35 328.489 1792.27 328.489 1792.27C337.819 1786.36 349.667 1791.72 349.667 1791.72Z" fill="#FA6142"/>
<path d="M358.162 1887.61H358.166C360.114 1896.31 362.492 1904.77 365.408 1912.63C378.163 1946.97 409.898 1940.63 409.73 1956.45C409.73 1956.45 409.127 1947.25 387.539 1959.87C387.539 1959.87 342.203 1972.63 312.215 1939.44C297.508 1923.16 284.392 1899.28 277.018 1879.72C322.152 1866.52 321.487 1896.07 358.162 1887.61Z" fill="#D83A21"/>
<path d="M349.667 1791.72C349.667 1791.72 348.413 1831.27 355.055 1871.52L355.049 1871.53C346.197 1873.01 338.643 1867.59 338.643 1867.59L328.489 1792.27C337.819 1786.36 349.667 1791.72 349.667 1791.72Z" fill="#D83A21"/>
<path d="M353.125 1860.65C352.697 1860.65 352.265 1860.55 351.872 1860.31C348.581 1858.32 343.303 1857.88 336.185 1859C334.859 1859.2 333.615 1858.29 333.407 1856.97C333.199 1855.64 334.105 1854.4 335.433 1854.19C343.712 1852.91 350.087 1853.55 354.384 1856.15C355.533 1856.84 355.904 1858.33 355.211 1859.48C354.753 1860.24 353.949 1860.65 353.125 1860.65Z" fill="white"/>
<path d="M351.864 1840.79C351.437 1840.79 351.003 1840.68 350.609 1840.44C349.751 1839.92 341.937 1836.96 332.688 1839C331.379 1839.29 330.077 1838.47 329.787 1837.16C329.496 1835.84 330.324 1834.55 331.636 1834.25C342.545 1831.84 351.495 1835.29 353.124 1836.28C354.275 1836.97 354.644 1838.47 353.949 1839.61C353.493 1840.37 352.689 1840.79 351.864 1840.79Z" fill="white"/>
<path d="M350.203 1821.55C349.776 1821.55 349.343 1821.43 348.95 1821.2C348.891 1821.16 342.595 1817.75 331.722 1819.93C330.408 1820.19 329.123 1819.35 328.86 1818.03C328.596 1816.71 329.451 1815.43 330.768 1815.16C341.219 1813.07 348.874 1815.47 351.462 1817.03C352.612 1817.72 352.983 1819.21 352.29 1820.37C351.832 1821.12 351.028 1821.55 350.203 1821.55Z" fill="white"/>
<path d="M289.557 1759.39C288.826 1759.39 288.105 1759.05 287.626 1758.43C273.953 1740.63 274.968 1724.27 282.037 1715.96C285.633 1711.73 290.5 1710.37 294.434 1712.49C302.2 1716.68 303.173 1731.76 297.037 1752.85C296.662 1754.15 295.314 1754.88 294.022 1754.51C292.733 1754.13 291.992 1752.79 292.366 1751.49C299.234 1727.89 295.448 1718.57 292.128 1716.77C289.905 1715.59 287.372 1717.2 285.742 1719.12C280.129 1725.71 279.53 1739.91 291.484 1755.47C292.302 1756.53 292.102 1758.05 291.037 1758.88C290.594 1759.21 290.074 1759.39 289.557 1759.39Z" fill="#FA6142"/>
<path d="M333.524 1818.4C333.342 1818.88 333.004 1819.32 332.529 1819.61C295.192 1842.83 289.356 1868.39 295.701 1883.24C299.249 1891.53 306.693 1896.05 313.793 1894.23C325.97 1891.09 338.361 1869.33 333.524 1818.4ZM310.586 1899.49C302.61 1899.49 295.042 1894.07 291.229 1885.15C284.125 1868.53 290.006 1840.32 329.96 1815.48C331.1 1814.77 332.601 1815.12 333.31 1816.27C333.342 1816.32 333.373 1816.37 333.401 1816.43C333.558 1815.35 334.433 1814.47 335.566 1814.36C336.9 1814.23 338.096 1815.2 338.229 1816.53C343.725 1871.47 329.836 1895.12 315.005 1898.93C313.532 1899.31 312.053 1899.49 310.586 1899.49Z" fill="white"/>
<path d="M336.312 1943.44C332.884 1943.44 329.577 1942.09 326.828 1939.53C325.847 1938.61 325.796 1937.07 326.715 1936.09C327.633 1935.11 329.173 1935.05 330.152 1935.97C333.535 1939.15 336.989 1938.85 339.292 1938.05C344.411 1936.27 348.403 1930.56 349.461 1923.51C353.12 1899.15 342.779 1852.36 333.459 1817.4C333.113 1816.11 333.885 1814.77 335.183 1814.43C336.48 1814.08 337.813 1814.85 338.16 1816.15C347.597 1851.55 358.053 1899.04 354.273 1924.23C352.948 1933.05 347.695 1940.28 340.889 1942.64C339.365 1943.17 337.827 1943.44 336.312 1943.44Z" fill="white"/>
<path d="M909.689 1127.34C850.881 1099.02 780.253 1123.74 751.937 1182.55C746.368 1194.12 605.488 1450.2 605.488 1450.2L350.205 1693.37C350.205 1693.37 346.917 1746.92 385.835 1773.67C387.884 1771.99 704.624 1539.49 704.624 1539.49C704.624 1539.49 924.531 1332.62 934.367 1324.37C946.652 1313.97 957.468 1300.53 964.901 1285.09C993.217 1226.28 968.499 1155.65 909.689 1127.34Z" fill="#ABBD43"/>
<path d="M383.197 1787.35C382.722 1787.35 382.242 1787.21 381.821 1786.92C341.829 1759.43 345.869 1700.21 347.856 1692.75C347.984 1692.27 348.261 1691.83 348.646 1691.51L616.6 1467.65C623.325 1456.83 782.898 1199.9 788.259 1188.76C788.842 1187.55 790.293 1187.04 791.506 1187.62C792.717 1188.21 793.225 1189.66 792.642 1190.87C787.081 1202.42 627.324 1459.61 620.525 1470.56C620.388 1470.77 620.218 1470.97 620.018 1471.15L352.392 1694.72C350.496 1704.2 347.921 1757.72 384.578 1782.92C385.685 1783.68 385.965 1785.19 385.204 1786.29C384.732 1786.99 383.97 1787.35 383.197 1787.35Z" fill="#6F8137"/>
<path d="M613.281 1437.43C599.422 1444.85 564.158 1462.2 571.093 1482.68C595.832 1485.77 613.281 1437.43 613.281 1437.43Z" fill="#ABBD43"/>
<path d="M572.83 1478.37C564.893 1478.28 558.489 1486.32 564.405 1489.99C570.321 1493.67 572.83 1478.37 572.83 1478.37Z" fill="#ABBD43"/>
<path d="M740.62 1275.72C740.215 1275.72 739.877 1275.71 739.603 1275.69C738.263 1275.59 737.256 1274.42 737.356 1273.08C737.455 1271.75 738.609 1270.76 739.96 1270.84C745.359 1271.24 778.571 1267.81 813.011 1253.74C842.352 1241.75 878.436 1219.18 883.712 1179.76C883.891 1178.43 885.113 1177.5 886.445 1177.68C887.777 1177.85 888.712 1179.08 888.533 1180.41C878.084 1258.48 757.044 1275.72 740.62 1275.72Z" fill="#6F8137"/>
<path d="M882.069 833.8C837.4 847.267 841.653 879.707 831.579 894.574C824.988 904.307 787.676 915.987 777.748 944.84C767.821 973.694 753.515 1035.63 753.691 1042.67C754.501 1074.93 791.148 1071.76 791.148 1071.76C791.148 1071.76 1047.97 884.867 1065.89 838.28C948.741 856.72 882.069 833.8 882.069 833.8Z" fill="#D83A21"/>
<path d="M882.069 833.8C837.4 847.267 841.653 879.707 831.578 894.574C829.22 898.054 822.918 901.8 815.353 906.48C822.624 901.934 950.988 860.147 1030.44 861.2C1037.53 861.294 1044.28 860.747 1050.71 859.72C1058.47 851.027 1063.81 843.694 1065.89 838.28C948.741 856.72 882.069 833.8 882.069 833.8Z" fill="#FA6142"/>
<path d="M1065.45 738.427C1075.65 742.56 1100.2 777.734 1107.23 829.2L1095.37 834.867C1091.92 815.587 1071.79 730.627 1038.97 752.68L1039.83 736.934L1065.45 738.427Z" fill="#D83A21"/>
<path d="M1092.29 842.787C1057.07 832.854 999.901 770.787 1026.73 741.494C1036.71 730.627 1056.11 730.28 1068.63 740.36C1060.44 735.574 1048.35 738.827 1041.72 747.254C1023.95 769.894 1079.75 827.827 1096.09 833.747L1092.29 842.787Z" fill="#FA6142"/>
<path d="M1082.25 835.987C1082.25 835.987 978.753 833.8 854.502 768.827C855.921 802.867 882.88 828.747 882.88 828.747C882.88 828.747 968.38 858.214 1082.25 835.987Z" fill="#FA6142"/>
<path d="M627.474 1233.99C626.666 1233.99 625.844 1233.86 625.039 1233.57C621.24 1232.23 619.251 1228.06 620.596 1224.26C632.802 1189.78 667.696 1162.39 701.442 1135.9C730.906 1112.78 758.736 1090.93 765.114 1068.63C766.222 1064.76 770.262 1062.51 774.136 1063.62C778.011 1064.73 780.254 1068.77 779.146 1072.64C771.468 1099.49 741.831 1122.76 710.452 1147.38C678.346 1172.59 645.144 1198.65 634.352 1229.13C633.292 1232.12 630.479 1233.99 627.474 1233.99Z" fill="#D83A21"/>
<path d="M1384.45 773.374C1384.45 773.374 1394.63 822.48 1388.35 825.814C1384.36 827.934 1366.15 822.854 1366.15 822.854L1384.45 773.374Z" fill="#CE5F49"/>
<path d="M1190.04 839.36L1258.12 798.24L1312.11 836.787L1231.04 924.174L1205.21 902.2L1190.04 839.36Z" fill="#FFAD94"/>
<path d="M1244.36 811.374C1246.07 839.694 1252.99 870.88 1263.4 889.294L1292.35 858.081L1244.36 811.374Z" fill="#CE5F49"/>
<path d="M1346.61 875.641C1359.77 873.067 1398.96 758.027 1384.77 715.587C1337.03 572.774 1180.07 736.467 1253.59 824.947C1298.83 879.401 1339.61 877.001 1346.61 875.641Z" fill="#FFAD94"/>
<path d="M1384.77 715.587C1358.97 638.427 1301.31 650.76 1265.33 692.347C1264.36 693.867 1263.87 694.747 1263.87 694.747C1263.72 694.694 1263.56 694.654 1263.41 694.6L1255.56 714.947C1255.56 714.947 1287.45 765.374 1318.24 755.494C1334.81 750.174 1323.91 732.107 1323.91 732.107C1338.79 731.587 1357.36 763.907 1385.77 764.96C1388.95 745.92 1388.16 725.72 1384.77 715.587Z" fill="#CE5F49"/>
<path d="M1251.81 687.867C1251.81 687.867 1251 687.627 1249.59 687.201C1249.24 687.094 1248.85 686.987 1248.43 686.854C1248.2 686.787 1248.01 686.747 1247.73 686.64C1247.45 686.534 1247.16 686.414 1246.85 686.307C1245.67 685.827 1244.27 685.334 1242.92 684.68C1241.64 683.947 1240.21 683.28 1238.85 682.347C1237.51 681.387 1236.04 680.467 1234.75 679.254C1234.09 678.667 1233.4 678.094 1232.76 677.467C1232.13 676.827 1231.52 676.16 1230.89 675.507C1230.24 674.867 1229.71 674.12 1229.13 673.414C1228.59 672.694 1227.97 672.014 1227.49 671.24L1226.01 669.001C1225.53 668.254 1225.13 667.454 1224.69 666.694C1224.27 665.934 1223.85 665.174 1223.52 664.387C1223.16 663.614 1222.79 662.867 1222.47 662.107C1221.88 660.574 1221.27 659.12 1220.87 657.68C1220.39 656.267 1220.07 654.894 1219.76 653.64C1219.45 652.4 1219.29 651.214 1219.09 650.201C1218.97 649.174 1218.88 648.267 1218.79 647.534C1218.73 646.054 1218.69 645.201 1218.69 645.201C1218.69 645.201 1218.92 646.014 1219.33 647.427C1219.57 648.107 1219.88 648.947 1220.23 649.894C1220.65 650.827 1221.07 651.88 1221.64 652.987C1222.2 654.094 1222.8 655.281 1223.56 656.467C1224.25 657.694 1225.13 658.881 1225.99 660.134C1226.44 660.747 1226.93 661.334 1227.41 661.947C1227.88 662.56 1228.4 663.147 1228.95 663.72C1229.49 664.28 1229.99 664.894 1230.56 665.427L1232.29 667.027C1232.84 667.587 1233.51 668.014 1234.09 668.507C1234.69 668.974 1235.28 669.467 1235.93 669.854C1236.56 670.267 1237.17 670.667 1237.79 671.067C1238.41 671.427 1239.07 671.734 1239.68 672.067C1240.88 672.761 1242.19 673.147 1243.32 673.627C1244.49 674.067 1245.65 674.28 1246.67 674.587C1247.68 674.8 1248.52 674.84 1249.28 674.974C1249.47 675.014 1249.64 675.041 1249.81 675.067C1249.99 675.094 1250.27 675.094 1250.48 675.107C1250.92 675.134 1251.32 675.16 1251.69 675.174C1253.16 675.254 1254.01 675.307 1254.01 675.307C1257.55 675.494 1260.27 678.521 1260.08 682.067C1259.88 685.614 1256.85 688.321 1253.32 688.134C1252.81 688.107 1252.28 688.014 1251.81 687.867Z" fill="#2E353D"/>
<path d="M1250.76 679.147C1250.76 679.147 1284.75 617.667 1366.15 610.067C1442.71 602.907 1465.89 683.907 1390.39 700.387C1390.39 700.387 1418.69 736.494 1387.83 741.441C1364.12 745.227 1321.45 710.521 1303.4 711.147C1303.4 711.147 1332.67 745.041 1311.07 749.801C1289.45 754.547 1255.56 714.947 1255.56 714.947C1255.56 714.947 1288.07 800.867 1212.79 826.681C1224.28 806.774 1183.4 742.014 1189.68 711.467C1194.43 688.347 1218.69 668.707 1250.76 679.147Z" fill="#2E353D"/>
<path d="M1284.35 609.614C1284.35 609.614 1283.91 609.8 1283.11 610.134C1282.69 610.307 1282.2 610.507 1281.61 610.76C1281.04 611.027 1280.4 611.374 1279.68 611.747C1278.96 612.094 1278.2 612.574 1277.37 613.107C1276.96 613.36 1276.53 613.64 1276.09 613.92C1275.68 614.227 1275.24 614.56 1274.79 614.894C1274.33 615.227 1273.88 615.574 1273.4 615.934C1272.95 616.32 1272.49 616.72 1272.01 617.134C1271.04 617.92 1270.13 618.867 1269.15 619.827C1268.17 620.787 1267.27 621.894 1266.29 622.987C1265.4 624.174 1264.4 625.307 1263.55 626.614C1261.71 629.134 1260.09 632 1258.56 635C1257.07 638.014 1255.81 641.267 1254.76 644.6C1253.75 647.947 1253.03 651.414 1252.56 654.867C1252.15 658.347 1252.07 661.8 1252.25 665.16C1252.53 668.494 1253.04 671.72 1253.89 674.72C1254.79 677.694 1255.83 680.48 1257.17 682.92C1257.51 683.534 1257.8 684.147 1258.15 684.72C1258.51 685.294 1258.87 685.854 1259.23 686.4C1259.87 687.52 1260.72 688.467 1261.43 689.44C1262.09 690.414 1262.97 691.2 1263.68 692.04C1264.37 692.867 1265.19 693.547 1265.88 694.214C1267.24 695.6 1268.69 696.56 1269.76 697.467C1270.88 698.307 1271.85 698.88 1272.45 699.32C1273.08 699.734 1273.41 699.96 1273.41 699.96L1273.81 700.24C1277.72 702.894 1278.73 708.2 1276.08 712.094C1273.44 716 1268.12 717.014 1264.23 714.36C1263.91 714.16 1263.57 713.894 1263.31 713.64C1263.31 713.64 1262.91 713.294 1262.16 712.614C1261.43 711.934 1260.31 710.987 1258.99 709.667C1257.72 708.28 1256.07 706.734 1254.48 704.627C1252.81 702.627 1251.12 700.174 1249.49 697.414C1248.72 695.987 1247.84 694.574 1247.17 692.974C1246.81 692.187 1246.45 691.387 1246.09 690.574C1245.75 689.747 1245.47 688.88 1245.15 688.027C1243.88 684.6 1243.04 680.84 1242.49 676.96C1241.96 673.08 1241.92 669.067 1242.16 665.054C1242.49 661.04 1243.2 657.054 1244.21 653.187C1245.31 649.334 1246.67 645.6 1248.31 642.094C1250 638.6 1251.85 635.28 1253.92 632.267C1256.03 629.28 1258.17 626.494 1260.49 624.107C1261.59 622.867 1262.83 621.8 1263.93 620.72C1265.12 619.707 1266.23 618.694 1267.39 617.84C1268.55 616.987 1269.63 616.134 1270.76 615.467C1271.31 615.107 1271.84 614.774 1272.36 614.44C1272.91 614.134 1273.43 613.84 1273.95 613.56C1274.45 613.294 1274.95 613.027 1275.43 612.76C1275.92 612.547 1276.39 612.334 1276.85 612.12C1277.76 611.707 1278.6 611.334 1279.39 611.08C1280.17 610.8 1280.87 610.547 1281.48 610.36C1282.09 610.2 1282.61 610.067 1283.04 609.947C1283.89 609.734 1284.35 609.614 1284.35 609.614Z" fill="#2E353D"/>
<path d="M1446.77 649.027C1446.77 649.027 1446.85 649.453 1447.01 650.253C1447.16 651.04 1447.41 652.2 1447.55 653.734C1447.64 654.494 1447.75 655.333 1447.76 656.253C1447.77 657.187 1447.87 658.187 1447.8 659.253C1447.77 660.32 1447.77 661.48 1447.61 662.667C1447.56 663.28 1447.49 663.893 1447.43 664.52C1447.33 665.16 1447.23 665.8 1447.12 666.453C1446.69 669.093 1445.93 671.894 1444.92 674.814C1443.91 677.734 1442.49 680.694 1440.83 683.667C1439.12 686.627 1437.04 689.507 1434.65 692.253C1432.29 695.027 1429.49 697.52 1426.49 699.787C1423.49 702.067 1420.16 703.96 1416.71 705.48C1413.27 707.054 1409.64 708.12 1406.07 708.827C1405.16 709 1404.27 709.16 1403.39 709.32C1402.49 709.413 1401.6 709.507 1400.73 709.6C1398.97 709.84 1397.25 709.774 1395.56 709.84C1393.88 709.827 1392.25 709.707 1390.67 709.627C1389.11 709.427 1387.57 709.254 1386.12 709.04C1384.69 708.747 1383.32 708.467 1382 708.214C1380.72 707.894 1379.51 707.533 1378.36 707.227C1376.07 706.587 1374.19 705.814 1372.56 705.267C1369.45 703.947 1367.68 703.2 1367.68 703.2C1363.33 701.347 1361.32 696.333 1363.16 691.987C1365.01 687.64 1370.03 685.627 1374.37 687.467C1374.77 687.64 1375.15 687.84 1375.51 688.053L1375.91 688.307C1375.91 688.307 1377.2 689.107 1379.47 690.534C1380.64 691.12 1382.04 691.987 1383.72 692.747C1384.56 693.12 1385.45 693.52 1386.4 693.947C1387.36 694.307 1388.39 694.68 1389.44 695.067C1390.52 695.387 1391.65 695.72 1392.81 696.067C1394 696.307 1395.23 696.6 1396.49 696.814C1397.76 696.934 1399.08 697.227 1400.44 697.24C1401.12 697.28 1401.8 697.32 1402.49 697.36C1403.19 697.333 1403.89 697.32 1404.6 697.293C1407.43 697.187 1410.37 696.813 1413.28 695.987C1416.2 695.213 1419.15 694.12 1421.92 692.614C1424.68 691.134 1427.39 689.4 1429.8 687.334C1432.21 685.28 1434.45 683.04 1436.37 680.64C1438.27 678.227 1439.97 675.747 1441.31 673.214C1442.65 670.694 1443.76 668.2 1444.53 665.8C1444.73 665.2 1444.92 664.614 1445.12 664.04C1445.27 663.454 1445.41 662.88 1445.56 662.32C1445.88 661.213 1446.04 660.134 1446.24 659.107C1446.47 658.094 1446.52 657.12 1446.64 656.227C1446.76 655.333 1446.8 654.52 1446.81 653.774C1446.92 652.28 1446.85 651.08 1446.81 650.267C1446.79 649.467 1446.77 649.027 1446.77 649.027Z" fill="#2E353D"/>
<path d="M1267.29 769.321C1267.29 769.321 1257.23 738.027 1240.8 738.921C1201.36 741.081 1224.37 801.961 1246.12 808.841C1253.08 811.041 1258.39 806.201 1258.39 806.201L1267.29 769.321Z" fill="#E27960"/>
<path d="M1241.83 806.2C1243.48 809.84 1245.41 813.413 1247.67 816.893C1251.61 813.707 1257.24 807.8 1258.39 806.2H1241.83Z" fill="#CE5F49"/>
<path d="M1256.84 771.787C1251.21 760.88 1242.25 761.574 1239.87 768.454C1236.81 777.254 1249.32 798.574 1261.31 792.04L1260.29 780.56L1256.84 771.787Z" fill="#CE5F49"/>
<path d="M1246.12 808.841C1237.25 806.041 1228.19 794.254 1223.21 781.147C1233.79 807.787 1257.84 800.734 1261.48 793.387L1258.39 806.201C1258.39 806.201 1253.08 811.041 1246.12 808.841Z" fill="#FFAD94"/>
<path d="M1388.21 767.747H1258.39C1257.04 767.747 1255.96 766.654 1255.96 765.32C1255.96 763.974 1257.04 762.88 1258.39 762.88H1388.21C1389.56 762.88 1390.65 763.974 1390.65 765.32C1390.65 766.654 1389.56 767.747 1388.21 767.747Z" fill="#0B61DD"/>
<path d="M1380.53 800.667C1380.33 800.667 1380.15 800.64 1379.96 800.6C1378.65 800.294 1377.85 798.974 1378.16 797.667L1388.92 752.413C1389.24 751.093 1390.56 750.294 1391.85 750.6C1393.16 750.92 1393.96 752.227 1393.65 753.534L1382.89 798.8C1382.63 799.92 1381.63 800.667 1380.53 800.667Z" fill="#0B61DD"/>
<path d="M1242.27 748.614C1235.09 743.494 1225.35 746.494 1221.36 751.054C1224.2 744.254 1230.33 737.72 1241.43 738.12C1254.37 738.587 1264.23 758.254 1267.29 766.347C1267.72 771.547 1266.15 782.307 1261.48 793.387C1259.75 779.867 1256.2 760.854 1242.27 748.614Z" fill="#FFAD94"/>
<path d="M1261.29 949.347L1268.13 928.214C1268.13 928.214 1249.92 852 1202.4 827.894C1180.28 835.067 1154.87 838.747 1154.87 838.747L1261.29 949.347Z" fill="white"/>
<path d="M1051.68 1250.01L1024.68 1229.27C979.304 1220.53 910.153 1214.1 910.153 1214.1C919.08 1223.85 989.977 1267.03 1051.68 1250.01Z" fill="#6F8137"/>
<path d="M916.236 1217.58C896.941 1201.54 804.464 1195.31 751.858 1196.3C749.821 1164.98 754.622 1129.6 758.04 1116.94C843.401 1104.93 916.236 1217.58 916.236 1217.58Z" fill="white"/>
<path d="M1043.29 1243.57C910.956 1262.57 839.013 1138.64 758.04 1116.94C760.275 1063.74 1012.13 731.267 1215.92 865.453C1272.43 902.667 1275.21 934.294 1265.99 980.64C1248.61 1067.92 1113.92 1067.82 1035.88 1174.63C1018.37 1198.59 1080.24 1218.53 1043.29 1243.57Z" fill="#FDD41A"/>
<path d="M1041.41 1160.62C1043.71 1175.61 1055.19 1197.29 1032.56 1199.46C1009.92 1201.64 1041.41 1160.62 1041.41 1160.62Z" fill="#FDD41A"/>
<path d="M1049.73 1155.41C1055.6 1160.51 1046.81 1171.94 1041.23 1170.25C1035.64 1168.55 1049.73 1155.41 1049.73 1155.41Z" fill="#FDD41A"/>
<path d="M1046.31 912.667C1052.19 974.987 1061.45 1031.59 1130.57 1093.8C1190.97 1057.25 1246.15 1048.54 1265.99 980.64C1267.75 974.654 1268.21 968.667 1268.91 963.014L1046.31 912.667Z" fill="#E5BC0E"/>
<path d="M818.068 1015.45C791.668 1044.66 772.039 1080.07 764.744 1095.8C764.685 1095.98 764.648 1096.1 764.648 1096.1L910.153 1004.92C895.275 1011.89 855.676 1019.22 818.068 1015.45Z" fill="#D83A21"/>
<path d="M1233.71 1057.25C1246.01 1059.1 1257.09 1043.04 1261.88 1027.23C1266.68 1011.42 1202.23 1017.33 1202.23 1017.33C1202.23 1017.33 1224.71 1053.96 1233.71 1057.25Z" fill="#2E353D"/>
<path d="M1062.44 949.32C1024.15 954.534 823.015 1030.04 763.624 1097.22C847.72 1059.41 885.509 1087.12 955.727 1066.1C968.231 1062.36 1115.69 994.184 1134.88 985.555C1109.93 958.92 1062.44 949.32 1062.44 949.32Z" fill="#FA6142"/>
<path d="M990.812 1107.73L976.895 1103.33C985.621 1075.69 1015.75 1056.8 1044.88 1038.53C1070.61 1022.38 1094.93 1007.13 1101.15 988.428L1115 993.034C1107.12 1016.71 1080.65 1033.31 1052.63 1050.89C1025.73 1067.76 997.923 1085.21 990.812 1107.73Z" fill="#FA6142"/>
<path d="M980.727 1170.57C980.28 1170.57 979.829 1170.55 979.375 1170.51C971.349 1169.77 965.44 1162.67 966.177 1154.64L970.528 1107.29C971.265 1099.27 978.363 1093.35 986.396 1094.1C994.421 1094.83 1000.33 1101.94 999.593 1109.96L995.243 1157.31C994.548 1164.88 988.184 1170.57 980.727 1170.57Z" fill="#FA6142"/>
<path d="M991.148 1105.73L976.559 1105.32L978.424 1039.04L993.013 1039.45L991.148 1105.73Z" fill="#FA6142"/>
<path d="M1158.47 841.694L1370.91 976.601L1653.56 1054C1666.57 1057.56 1674.23 1070.99 1670.67 1084C1667.48 1095.62 1656.41 1102.96 1644.81 1101.85L1341.19 1073.08C1339.09 1072.89 1337.11 1072.39 1335.27 1071.64L1326.99 1068.23L1091.32 971.267C1053.91 955.867 1036.07 913.067 1051.45 875.654C1066.85 838.241 1109.65 820.387 1147.07 835.787C1150.97 837.387 1155 839.521 1158.47 841.694Z" fill="#FFAD94"/>
<path d="M1072.41 1020.47C1074.6 1024.73 1076.91 1029.06 1079.49 1033.34C1096.31 1021.41 1109.73 1008.88 1115 993.034L1101.15 988.428C1097.24 1000.18 1086.48 1010.36 1072.41 1020.47Z" fill="#D83A21"/>
<path d="M1223.4 886.587L1187.32 1010.88L1241.95 1033.34C1224.65 994.934 1223.96 929.2 1241.03 894.52L1223.4 886.587Z" fill="#CE5F49"/>
<path d="M1051.05 951.694C1054.59 973.2 1059.85 994.19 1069.89 1015.29C1100.77 1001.17 1127.4 988.918 1134.88 985.555C1109.93 958.92 1062.44 949.321 1062.44 949.321C1059.41 949.734 1055.96 950.44 1051.05 951.694Z" fill="#D83A21"/>
<path d="M1148.56 834.907L1241.03 894.52C1208.41 936.307 1220.27 1051.09 1233.71 1057.25C1175 1036.1 1134.88 1015.45 1095.31 983.878C1059.53 955.347 1038.49 924.201 1047.97 884.867C1057.44 845.534 1097 821.321 1136.33 830.801C1140.47 831.787 1144.79 833.294 1148.56 834.907Z" fill="#FDD41A"/>
<path d="M2019.63 1973.8C2019.63 1973.8 2044.31 1944.52 2058.51 1941.56C2076.33 1937.84 2127.11 1897.36 2134.92 1878.8C2138.15 1871.14 2163.75 1865.72 2177.97 1872.35C2192.2 1878.99 2235.5 1919.33 2221.27 1973.8H2019.63Z" fill="#2E353D"/>
<path d="M2130.57 1884.68C2123.93 1898.89 2072.73 1938.72 2058.52 1941.56C2054.24 1942.41 2049.04 1945.67 2043.84 1949.79C2119.32 1963.39 2147.37 1920.73 2134.93 1878.8C2133.09 1880.52 2131.6 1882.49 2130.57 1884.68Z" fill="#84B8FF"/>
<path d="M2241.75 1592.56C2241.75 1592.56 2241.97 1592.49 2242.4 1592.36C2242.8 1592.23 2243.4 1591.99 2244.25 1591.8C2245.06 1591.58 2246.08 1591.3 2247.3 1591.05C2248.51 1590.74 2249.88 1590.49 2251.46 1590.23C2254.6 1589.69 2258.41 1589.09 2262.83 1588.73C2267.24 1588.29 2272.23 1588.1 2277.71 1588.05C2283.17 1588.08 2289.09 1588.27 2295.35 1588.85C2301.61 1589.47 2308.2 1590.31 2314.93 1591.68C2321.7 1592.95 2328.62 1594.73 2335.55 1596.89C2338.97 1598.04 2342.49 1599.1 2345.88 1600.51C2349.34 1601.77 2352.72 1603.28 2356.11 1604.76C2357.82 1605.48 2359.45 1606.36 2361.12 1607.17C2362.76 1608.01 2364.42 1608.81 2366.05 1609.68C2367.67 1610.59 2369.28 1611.48 2370.87 1612.4L2373.26 1613.77L2375.57 1615.25C2377.12 1616.24 2378.63 1617.21 2380.17 1618.19C2381.68 1619.19 2383.11 1620.29 2384.55 1621.33C2385.99 1622.4 2387.45 1623.41 2388.84 1624.51C2390.2 1625.63 2391.56 1626.75 2392.88 1627.85C2395.61 1630.03 2398.07 1632.4 2400.48 1634.7C2401.72 1635.84 2402.91 1636.99 2403.99 1638.2C2405.09 1639.4 2406.2 1640.57 2407.28 1641.73C2408.37 1642.89 2409.42 1644.05 2410.37 1645.27C2411.34 1646.46 2412.31 1647.64 2413.24 1648.8C2415.14 1651.08 2416.79 1653.45 2418.35 1655.72C2421.59 1660.17 2423.96 1664.65 2426.22 1668.45C2428.22 1672.44 2429.9 1675.92 2431.17 1678.83C2432.38 1681.76 2433.19 1684.12 2433.8 1685.69C2434.38 1687.29 2434.69 1688.13 2434.69 1688.13C2434.69 1688.13 2434.13 1687.42 2433.07 1686.09C2432.04 1684.75 2430.48 1682.81 2428.68 1680.29C2426.74 1677.84 2424.23 1674.99 2421.57 1671.64C2420.13 1670.04 2418.6 1668.35 2416.99 1666.56C2416.16 1665.68 2415.41 1664.72 2414.51 1663.83C2413.63 1662.93 2412.73 1662.03 2411.81 1661.09C2410.9 1660.16 2409.96 1659.2 2409.01 1658.23C2408.11 1657.24 2407.01 1656.36 2406.01 1655.39C2403.91 1653.51 2401.92 1651.41 2399.58 1649.57C2397.27 1647.69 2395.08 1645.59 2392.56 1643.77C2390.06 1641.91 2387.65 1639.85 2384.95 1638.08C2383.63 1637.16 2382.29 1636.24 2380.98 1635.28C2379.63 1634.35 2378.22 1633.49 2376.83 1632.6C2374.08 1630.76 2371.18 1629.09 2368.28 1627.37L2366.09 1626.09L2363.83 1624.9C2362.32 1624.12 2360.83 1623.3 2359.32 1622.49C2357.82 1621.7 2356.26 1620.99 2354.72 1620.23C2353.18 1619.48 2351.65 1618.69 2350.05 1618.04C2346.93 1616.62 2343.81 1615.19 2340.59 1613.96C2338.99 1613.36 2337.45 1612.64 2335.84 1612.07C2334.22 1611.48 2332.63 1610.88 2331.03 1610.29C2329.46 1609.66 2327.83 1609.21 2326.23 1608.65C2324.64 1608.12 2323.06 1607.52 2321.46 1607.05C2318.26 1606.08 2315.12 1605.09 2311.96 1604.23C2305.72 1602.44 2299.56 1600.97 2293.71 1599.68C2287.84 1598.37 2282.24 1597.35 2277.01 1596.44C2271.82 1595.6 2267.02 1594.85 2262.74 1594.33C2258.45 1593.8 2254.7 1593.36 2251.59 1593.11C2248.49 1592.87 2246.01 1592.67 2244.35 1592.62C2242.67 1592.56 2241.75 1592.56 2241.75 1592.56Z" fill="#2E353D"/>
<path d="M2003.02 1973.8C2003.02 1973.8 2002.71 1973.25 2002.09 1972.21C2001.78 1971.7 2001.39 1971.04 2000.93 1970.28C2000.5 1969.48 2000 1968.56 1999.46 1967.52C1997.3 1963.32 1994.26 1957.06 1991.2 1948.75C1988.07 1940.46 1984.82 1930.19 1981.91 1918.17C1980.38 1912.19 1979.14 1905.73 1977.83 1898.91C1976.62 1892.08 1975.51 1884.86 1974.61 1877.27C1972.86 1862.12 1971.83 1845.54 1972.25 1827.94C1972.39 1819.14 1973.02 1810.09 1973.97 1800.86C1974.84 1791.62 1976.34 1782.22 1978.21 1772.71C1979.11 1767.94 1980.22 1763.18 1981.4 1758.38C1982.69 1753.6 1983.92 1748.79 1985.49 1744C1986.93 1739.19 1988.66 1734.44 1990.36 1729.64C1991.31 1727.27 1992.26 1724.9 1993.21 1722.52C1994.14 1720.14 1995.25 1717.82 1996.28 1715.46L1997.87 1711.92L1999.59 1708.44C2000.77 1706.12 2001.81 1703.75 2003.11 1701.48C2004.35 1699.2 2005.61 1696.91 2006.85 1694.62C2008.23 1692.39 2009.58 1690.15 2010.96 1687.91C2016.58 1679.06 2022.72 1670.43 2029.57 1662.38C2036.49 1654.39 2043.92 1646.82 2051.85 1639.9C2053.81 1638.15 2055.91 1636.54 2057.92 1634.86L2061 1632.38L2064.15 1630.06C2066.28 1628.54 2068.37 1626.96 2070.52 1625.48C2072.69 1624.06 2074.85 1622.63 2077.03 1621.2C2079.19 1619.75 2081.43 1618.48 2083.65 1617.18C2085.89 1615.9 2088.07 1614.51 2090.34 1613.34C2094.9 1611.02 2099.39 1608.58 2104.03 1606.59C2106.34 1605.55 2108.61 1604.48 2110.92 1603.5C2113.24 1602.58 2115.56 1601.66 2117.87 1600.74L2121.32 1599.38C2122.48 1598.94 2123.68 1598.58 2124.82 1598.18C2127.16 1597.39 2129.49 1596.62 2131.79 1595.83C2150.36 1589.83 2168.81 1586.35 2186.28 1584.22C2203.8 1582.18 2220.39 1581.72 2235.61 1581.95C2239.41 1582.06 2243.14 1582.16 2246.77 1582.27C2250.4 1582.5 2253.95 1582.72 2257.4 1582.94C2260.85 1583.16 2264.21 1583.39 2267.46 1583.75C2270.72 1584.1 2273.87 1584.42 2276.93 1584.74C2289.15 1586.19 2299.72 1587.8 2308.36 1589.46C2317.03 1590.92 2323.75 1592.6 2328.33 1593.59C2332.93 1594.64 2335.36 1595.2 2335.36 1595.2C2335.36 1595.2 2332.86 1595.12 2328.17 1594.96C2323.47 1594.78 2316.58 1594.46 2307.85 1594.32C2299.13 1594.06 2288.55 1593.99 2276.46 1594.12C2270.42 1594.34 2263.99 1594.26 2257.24 1594.71C2253.87 1594.87 2250.42 1595.03 2246.87 1595.19C2243.35 1595.47 2239.74 1595.75 2236.06 1596.04C2234.22 1596.2 2232.34 1596.3 2230.48 1596.5C2228.61 1596.7 2226.73 1596.9 2224.82 1597.1C2221.02 1597.54 2217.13 1597.83 2213.22 1598.47C2209.31 1599.07 2205.3 1599.52 2201.28 1600.16C2197.29 1600.87 2193.2 1601.59 2189.08 1602.32C2172.69 1605.52 2155.64 1609.9 2138.83 1616.23C2122.03 1622.58 2105.36 1630.64 2089.92 1640.98C2087.99 1642.3 2086.07 1643.6 2084.16 1644.92C2082.28 1646.3 2080.44 1647.74 2078.58 1649.14L2075.8 1651.27L2073.12 1653.52C2071.33 1655.03 2069.49 1656.46 2067.75 1658.04C2060.72 1664.23 2054.21 1671.02 2048.09 1678.14C2035.89 1692.44 2025.71 1708.49 2017.66 1725.36C2009.58 1742.23 2003.55 1759.87 1999.2 1777.39C1996.99 1786.15 1995.24 1794.9 1993.8 1803.52C1993.6 1804.6 1993.44 1805.67 1993.24 1806.75C1993.08 1807.82 1992.93 1808.9 1992.78 1809.96C1992.49 1812.11 1992.15 1814.24 1991.87 1816.36C1991.38 1820.63 1990.85 1824.83 1990.48 1829C1990 1833.16 1989.76 1837.3 1989.45 1841.35C1989.23 1845.43 1988.97 1849.44 1988.86 1853.39C1988.5 1861.29 1988.53 1868.96 1988.61 1876.32C1988.84 1891.06 1989.79 1904.59 1991.13 1916.55C1992.42 1928.51 1994.14 1938.9 1995.86 1947.4C1997.61 1955.9 1999.33 1962.54 2000.73 1966.97C2001.08 1968.09 2001.39 1969.08 2001.67 1969.93C2001.96 1970.77 2002.22 1971.49 2002.42 1972.07C2002.81 1973.22 2003.02 1973.8 2003.02 1973.8Z" fill="#6F8137"/>
<path d="M1510.64 1952.75C1510.64 1942.15 1502.04 1933.55 1491.43 1933.55C1480.83 1933.55 1472.23 1942.15 1472.23 1952.75C1472.23 1963.36 1480.83 1971.96 1491.43 1971.96C1502.04 1971.96 1510.64 1963.36 1510.64 1952.75Z" fill="#2E353D"/>
<path d="M1807.01 1588.71C1807.01 1588.71 1807.6 1588.84 1808.72 1589.11C1809.82 1589.43 1811.46 1589.88 1813.47 1590.64C1815.47 1591.41 1817.91 1592.35 1820.61 1593.63C1823.33 1594.87 1826.37 1596.35 1829.58 1598.12C1832.84 1599.85 1836.28 1601.84 1839.86 1604.05C1843.42 1606.31 1847.17 1608.73 1850.89 1611.43C1854.65 1614.09 1858.44 1616.97 1862.18 1620.04C1865.94 1623.08 1869.62 1626.35 1873.23 1629.69C1876.8 1633.08 1880.3 1636.55 1883.57 1640.13C1884.38 1641.04 1885.19 1641.92 1886.01 1642.81C1886.78 1643.73 1887.56 1644.64 1888.35 1645.55C1889.89 1647.33 1891.37 1649.17 1892.79 1651C1895.66 1654.64 1898.2 1658.31 1900.55 1661.84C1901.68 1663.63 1902.75 1665.39 1903.79 1667.09C1904.75 1668.84 1905.69 1670.52 1906.58 1672.13C1908.31 1675.41 1909.77 1678.47 1910.9 1681.24C1912.15 1683.96 1912.92 1686.47 1913.68 1688.47C1914.39 1690.49 1914.77 1692.15 1915.12 1693.24C1915.42 1694.33 1915.58 1694.92 1915.58 1694.92C1915.58 1694.92 1914.41 1692.8 1912.35 1689.07C1911.26 1687.24 1910.03 1685 1908.42 1682.53C1906.9 1680.03 1905.01 1677.29 1903.01 1674.32C1901.95 1672.87 1900.85 1671.36 1899.72 1669.79C1898.55 1668.25 1897.34 1666.67 1896.08 1665.04C1893.52 1661.83 1890.78 1658.48 1887.8 1655.12C1884.85 1651.76 1881.71 1648.37 1878.43 1645C1875.15 1641.63 1871.73 1638.28 1868.24 1635.01C1864.76 1631.73 1861.2 1628.55 1857.64 1625.45C1855.84 1623.92 1854.05 1622.4 1852.3 1620.91C1850.5 1619.45 1848.75 1617.97 1847 1616.57C1843.5 1613.73 1840.06 1611.08 1836.78 1608.57C1833.47 1606.11 1830.34 1603.73 1827.39 1601.65C1824.43 1599.59 1821.71 1597.68 1819.26 1596.05C1816.81 1594.43 1814.64 1593.05 1812.84 1591.95C1811.93 1591.4 1811.1 1590.92 1810.4 1590.51C1809.68 1590.11 1809.07 1589.77 1808.58 1589.49C1807.56 1588.99 1807.01 1588.71 1807.01 1588.71Z" fill="#2E353D"/>
<path d="M1865.15 1231.57C1865.15 1231.57 1866.2 1231.83 1868.15 1232.33C1870.08 1232.86 1872.95 1233.55 1876.52 1234.62C1880.11 1235.69 1884.49 1236.96 1889.43 1238.74C1894.38 1240.5 1899.92 1242.64 1905.8 1245.36C1911.72 1248.07 1918.02 1251.27 1924.46 1255.1C1930.87 1258.95 1937.44 1263.35 1943.94 1268.32C1947.17 1270.83 1950.44 1273.42 1953.58 1276.21C1956.82 1278.91 1959.87 1281.88 1963.01 1284.83C1969.13 1290.85 1975.04 1297.28 1980.59 1304C1982.02 1305.65 1983.3 1307.41 1984.63 1309.12C1985.96 1310.85 1987.32 1312.54 1988.6 1314.29C1989.85 1316.05 1991.1 1317.81 1992.35 1319.56L1994.21 1322.2L1995.99 1324.88C1997.15 1326.66 1998.31 1328.44 1999.48 1330.21C2000.63 1331.99 2001.66 1333.82 2002.75 1335.6C2003.81 1337.4 2004.87 1339.18 2005.93 1340.95C2006.92 1342.76 2007.91 1344.55 2008.87 1346.34C2009.83 1348.12 2010.79 1349.89 2011.73 1351.64C2012.62 1353.41 2013.49 1355.18 2014.35 1356.93C2015.19 1358.68 2016.04 1360.41 2016.88 1362.12C2017.67 1363.85 2018.44 1365.56 2019.18 1367.26C2022.25 1373.99 2024.72 1380.54 2027.04 1386.55C2028.09 1389.59 2029.11 1392.51 2030.05 1395.28C2030.52 1396.67 2030.97 1398.02 2031.42 1399.34C2031.83 1400.67 2032.2 1401.96 2032.58 1403.21C2034.05 1408.23 2035.36 1412.58 2036.22 1416.24C2037.15 1419.87 2037.74 1422.76 2038.21 1424.7C2038.63 1426.67 2038.88 1427.71 2038.88 1427.71C2038.88 1427.71 2038.37 1426.76 2037.42 1424.99C2036.52 1423.2 2035.11 1420.61 2033.5 1417.26C2032.68 1415.59 2031.75 1413.75 2030.69 1411.77C2029.63 1409.79 2028.54 1407.63 2027.36 1405.34C2026.78 1404.19 2026.17 1403 2025.56 1401.77C2024.91 1400.57 2024.24 1399.33 2023.55 1398.05C2022.22 1395.5 2020.79 1392.81 2019.32 1390.01C2016.24 1384.49 2013.06 1378.45 2009.38 1372.24C2008.49 1370.68 2007.59 1369.09 2006.66 1367.49C2005.7 1365.91 2004.74 1364.31 2003.75 1362.7C2002.78 1361.09 2001.8 1359.45 2000.83 1357.8C1999.8 1356.17 1998.76 1354.53 1997.7 1352.88C1996.67 1351.23 1995.61 1349.56 1994.55 1347.89C1993.46 1346.24 1992.32 1344.58 1991.22 1342.91C1989.02 1339.55 1986.67 1336.25 1984.31 1332.9C1982.03 1329.51 1979.41 1326.33 1977.03 1322.97C1975.79 1321.31 1974.47 1319.72 1973.19 1318.09C1971.91 1316.48 1970.66 1314.82 1969.32 1313.26C1966.68 1310.07 1964.05 1306.88 1961.28 1303.84C1958.57 1300.74 1955.76 1297.77 1952.98 1294.8C1951.56 1293.36 1950.13 1291.92 1948.71 1290.5C1947.31 1289.04 1945.86 1287.66 1944.42 1286.29C1941.57 1283.5 1938.62 1280.92 1935.75 1278.29C1929.92 1273.21 1924.09 1268.49 1918.38 1264.21C1912.67 1259.94 1907.07 1256.15 1901.79 1252.75C1896.53 1249.34 1891.54 1246.41 1887.09 1243.84C1882.64 1241.28 1878.69 1239.08 1875.42 1237.29C1872.15 1235.54 1869.59 1234.06 1867.83 1233.1C1866.1 1232.1 1865.15 1231.57 1865.15 1231.57Z" fill="#2E353D"/>
<path d="M2313.09 1650.4C2313.09 1650.4 2313.05 1650.82 2313.02 1651.65C2312.96 1652.49 2312.93 1653.73 2312.75 1655.35C2312.29 1658.56 2311.63 1663.4 2309.66 1669.26C2307.73 1675.13 2304.68 1682.09 2300.27 1689.51C2295.88 1696.93 2290.18 1704.84 2283.4 1712.93C2276.62 1721 2268.77 1729.24 2260.14 1737.52C2251.48 1745.77 2242.1 1754.12 2232.19 1762.41C2227.28 1766.59 2222.18 1770.72 2217.03 1774.88C2211.9 1779.04 2206.68 1783.23 2201.37 1787.36C2190.83 1795.61 2180.11 1804 2169.4 1812.39C2158.68 1820.68 2148.18 1829.15 2137.93 1837.51C2135.39 1839.62 2132.87 1841.73 2130.37 1843.84C2127.86 1845.95 2125.36 1848.03 2122.93 1850.15C2118.01 1854.33 2113.32 1858.63 2108.65 1862.8C2099.49 1871.27 2090.89 1879.71 2083.2 1888.09C2075.55 1896.49 2068.73 1904.81 2062.97 1912.87C2057.18 1920.91 2052.46 1928.71 2048.73 1935.91C2045 1943.11 2042.33 1949.71 2040.28 1955.25C2038.33 1960.81 2036.97 1965.32 2036.21 1968.44C2035.41 1971.57 2034.99 1973.24 2034.99 1973.24C2034.99 1973.24 2034.9 1971.52 2034.81 1968.28C2034.73 1966.64 2034.85 1964.65 2034.91 1962.28C2034.91 1959.91 2035.22 1957.2 2035.51 1954.15C2036.24 1948.08 2037.56 1940.68 2040.01 1932.41C2042.45 1924.15 2046.06 1915.04 2050.91 1905.57C2055.77 1896.1 2061.86 1886.29 2069.04 1876.49C2076.24 1866.73 2084.48 1856.97 2093.52 1847.43C2098.03 1842.67 2102.75 1837.95 2107.61 1833.32C2110.05 1830.97 2112.53 1828.68 2115.01 1826.36C2117.53 1824.09 2120.07 1821.83 2122.62 1819.55C2132.85 1810.49 2143.61 1801.77 2154.41 1793.24C2165.3 1784.8 2176.25 1776.52 2187.11 1768.6C2192.52 1764.6 2197.92 1760.71 2203.24 1756.85C2208.54 1753.01 2213.78 1749.21 2218.94 1745.46C2229.22 1737.99 2239.07 1730.75 2248.24 1723.71C2257.38 1716.65 2265.85 1709.8 2273.35 1703.17C2280.82 1696.53 2287.33 1690.11 2292.68 1684.04C2298.07 1677.99 2302.19 1672.24 2305.25 1667.25C2308.27 1662.22 2310.2 1658 2311.4 1655.05C2312.5 1652.01 2313.09 1650.4 2313.09 1650.4Z" fill="#ABBD43"/>
<path d="M2034.99 1973.24C2034.99 1973.24 2035.14 1970.89 2035.43 1966.51C2035.61 1964.31 2035.75 1961.6 2036.05 1958.43C2036.37 1955.25 2036.75 1951.59 2037.22 1947.49C2037.74 1943.4 2038.43 1938.89 2039.13 1933.97C2039.53 1931.52 2039.98 1928.97 2040.49 1926.33C2040.97 1923.69 2041.43 1920.93 2042.08 1918.13C2044.37 1906.85 2047.61 1894.24 2051.98 1880.72C2056.32 1867.19 2061.81 1852.73 2068.78 1837.96C2075.75 1823.17 2084.1 1808.04 2093.81 1793.07C2103.46 1778.05 2114.54 1763.27 2126.7 1749.03C2138.78 1734.72 2152.08 1721.12 2165.89 1708.09C2179.79 1695.2 2194.2 1682.89 2208.91 1671.49C2216.21 1665.73 2223.62 1660.23 2230.97 1654.88C2238.34 1649.52 2245.67 1644.35 2252.95 1639.35C2267.49 1629.35 2281.75 1620.03 2295.26 1611.25C2302.01 1606.88 2308.57 1602.62 2314.92 1598.5C2321.27 1594.41 2327.37 1590.4 2333.18 1586.5C2344.76 1578.67 2355.25 1571.31 2364.11 1564.29C2372.99 1557.28 2380.24 1550.61 2385.71 1544.61C2391.13 1538.6 2394.77 1533.3 2396.85 1529.46C2397.95 1527.57 2398.62 1526.04 2399.11 1525.01C2399.59 1523.97 2399.85 1523.44 2399.85 1523.44C2399.85 1523.44 2399.66 1524 2399.31 1525.09C2398.96 1526.17 2398.51 1527.81 2397.58 1529.82C2395.91 1533.91 2392.96 1539.8 2387.93 1546.44C2382.99 1553.1 2376.26 1560.72 2367.75 1568.52C2363.56 1572.49 2358.9 1576.48 2353.96 1580.66C2349 1584.8 2343.67 1589 2338.08 1593.3C2326.87 1601.92 2314.54 1610.95 2301.45 1620.33C2288.35 1629.72 2274.56 1639.56 2260.44 1649.89C2253.42 1655.11 2246.27 1660.37 2239.13 1665.82C2232.01 1671.29 2224.82 1676.85 2217.72 1682.58C2203.46 1694.05 2189.36 1706.1 2175.85 1718.76C2162.32 1731.4 2149.35 1744.6 2137.39 1758.26C2135.9 1759.99 2134.41 1761.69 2132.93 1763.4C2131.47 1765.13 2130.03 1766.87 2128.59 1768.6C2125.64 1772.01 2122.95 1775.57 2120.13 1779.03C2114.69 1786.07 2109.43 1793.12 2104.52 1800.24C2094.68 1814.47 2086.01 1828.8 2078.58 1842.84C2071.18 1856.88 2064.93 1870.59 2059.84 1883.53C2058.5 1886.75 2057.36 1889.96 2056.22 1893.08C2055.08 1896.21 2053.97 1899.27 2052.97 1902.28C2051.96 1905.29 2050.92 1908.21 2050.02 1911.09C2049.15 1913.97 2048.29 1916.77 2047.47 1919.49C2046.6 1922.2 2045.95 1924.85 2045.25 1927.41C2044.56 1929.99 2043.89 1932.45 2043.23 1934.83C2042.08 1939.6 2040.97 1944 2040.05 1947.99C2039.23 1951.97 2038.48 1955.55 2037.77 1958.65C2037.12 1961.77 2036.68 1964.45 2036.27 1966.61C2035.43 1970.93 2034.99 1973.24 2034.99 1973.24Z" fill="#ABBD43"/>
<path d="M1938.91 1265.37C1938.91 1265.37 1939.53 1265.79 1940.69 1266.61C1941.85 1267.44 1943.64 1268.61 1945.83 1270.27C1948.04 1271.94 1950.84 1273.95 1953.94 1276.51C1955.49 1277.79 1957.23 1279.12 1958.98 1280.62C1960.72 1282.14 1962.58 1283.76 1964.53 1285.47C1972.28 1292.42 1981.32 1301.36 1990.88 1312.46C2000.39 1323.56 2010.2 1336.94 2019.73 1352.33C2022.1 1356.18 2024.56 1360.11 2026.77 1364.27C2027.9 1366.33 2029.05 1368.41 2030.19 1370.52C2031.32 1372.63 2032.58 1374.73 2033.62 1376.93C2035.81 1381.29 2037.96 1385.77 2040.15 1390.32C2042.26 1394.9 2044.23 1399.62 2046.32 1404.39C2048.48 1409.13 2050.21 1414.08 2052.1 1419.07C2053.03 1421.57 2053.96 1424.08 2054.91 1426.61C2055.87 1429.14 2056.63 1431.73 2057.5 1434.32C2059.16 1439.49 2060.99 1444.72 2062.5 1450.06C2063.97 1455.42 2065.43 1460.84 2066.91 1466.3C2067.28 1467.68 2067.64 1469.04 2068.03 1470.41C2068.34 1471.8 2068.65 1473.18 2068.97 1474.57C2069.6 1477.34 2070.22 1480.15 2070.84 1482.94C2071.46 1485.74 2072.07 1488.56 2072.69 1491.38C2073.36 1494.21 2073.75 1497.06 2074.29 1499.93C2075.3 1505.65 2076.31 1511.41 2077.35 1517.2C2078.18 1523 2078.86 1528.85 2079.61 1534.72C2080 1537.66 2080.37 1540.6 2080.74 1543.54C2081.01 1546.5 2081.29 1549.46 2081.55 1552.42C2082.09 1558.35 2082.61 1564.29 2083.08 1570.25C2083.42 1576.23 2083.64 1582.19 2083.9 1588.17C2084.1 1594.16 2084.47 1600.15 2084.4 1606.12C2084.4 1612.1 2084.4 1618.08 2084.4 1624.06C2084.36 1627.04 2084.46 1630.04 2084.3 1633.01C2084.18 1635.99 2084.06 1638.96 2083.94 1641.93C2083.7 1647.86 2083.47 1653.8 2083.16 1659.71C2083.07 1662.66 2082.8 1665.6 2082.55 1668.53C2082.31 1671.46 2082.07 1674.4 2081.84 1677.32C2081.35 1683.16 2080.89 1688.99 2080.41 1694.77C2079.82 1700.55 2079.02 1706.27 2078.34 1711.96C2077.63 1717.65 2076.93 1723.31 2076.23 1728.92C2075.92 1731.73 2075.46 1734.51 2074.99 1737.28C2074.55 1740.04 2074.09 1742.8 2073.63 1745.54C2072.71 1751.02 2071.82 1756.46 2070.93 1761.86C2070.46 1764.55 2070.07 1767.24 2069.55 1769.89C2069 1772.53 2068.46 1775.17 2067.92 1777.79C2066.84 1783.03 2065.79 1788.2 2064.72 1793.32C2063.65 1798.42 2062.69 1803.48 2061.51 1808.42C2059.05 1818.31 2056.73 1827.9 2054.38 1837.16C2052.1 1846.44 2049.49 1855.29 2047.01 1863.8C2044.48 1872.28 2042.12 1880.42 2039.77 1888.13C2037.17 1895.77 2034.8 1903.04 2032.45 1909.83C2030.08 1916.61 2027.94 1922.97 2025.84 1928.81C2023.7 1934.65 2021.6 1939.97 2019.7 1944.77C2015.94 1954.37 2012.86 1961.87 2010.74 1966.96C2008.57 1972.05 2007.43 1974.76 2007.43 1974.76C2007.43 1974.76 2007.82 1971.84 2008.57 1966.35C2009.33 1960.88 2010.5 1952.87 2012.16 1942.73C2012.92 1937.65 2013.95 1932.09 2014.87 1925.97C2015.73 1919.85 2016.8 1913.27 2017.85 1906.21C2018.9 1899.17 2020.16 1891.72 2021.42 1883.84C2022.55 1875.96 2023.73 1867.67 2024.96 1859.01C2026.21 1850.37 2027.75 1841.44 2028.8 1832.09C2029.99 1822.77 2031.32 1813.19 2032.65 1803.32C2034.89 1783.53 2037.51 1762.74 2039.38 1741.21C2039.87 1735.83 2040.48 1730.41 2040.91 1724.95C2041.31 1719.48 2041.71 1713.99 2042.11 1708.44C2042.49 1702.9 2043.01 1697.34 2043.29 1691.76C2043.57 1686.16 2043.87 1680.54 2044.17 1674.91C2044.32 1672.08 2044.46 1669.25 2044.61 1666.42C2044.76 1663.6 2044.92 1660.76 2044.92 1657.93C2045.03 1652.25 2045.16 1646.56 2045.31 1640.87C2045.4 1638.01 2045.46 1635.16 2045.55 1632.3C2045.65 1629.45 2045.55 1626.6 2045.56 1623.75C2045.55 1618.04 2045.52 1612.33 2045.5 1606.61C2045.59 1600.9 2045.26 1595.21 2045.1 1589.52C2044.88 1583.82 2044.79 1578.13 2044.52 1572.46C2044.14 1566.81 2043.8 1561.17 2043.47 1555.54C2043.29 1552.72 2043.13 1549.9 2042.97 1547.1C2042.69 1544.32 2042.42 1541.53 2042.14 1538.74C2040.34 1516.41 2037.01 1494.7 2033.32 1473.78C2032.28 1468.57 2031.26 1463.41 2030.25 1458.29C2029.76 1455.72 2029.04 1453.24 2028.49 1450.72C2027.9 1448.2 2027.33 1445.7 2026.74 1443.21C2026.13 1440.73 2025.64 1438.22 2024.96 1435.8C2024.28 1433.37 2023.61 1430.94 2022.95 1428.55C2021.6 1423.75 2020.4 1418.94 2018.87 1414.33C2013.35 1395.65 2006.74 1378.42 1999.87 1362.81C1999.02 1360.85 1998.19 1358.91 1997.36 1356.99C1996.47 1355.1 1995.55 1353.25 1994.67 1351.41C1993.78 1349.57 1992.9 1347.74 1992.04 1345.95C1991.59 1345.04 1991.16 1344.15 1990.73 1343.26C1990.27 1342.39 1989.81 1341.52 1989.37 1340.66C1987.55 1337.21 1985.83 1333.8 1984.05 1330.55C1982.2 1327.35 1980.4 1324.22 1978.7 1321.16C1971.59 1309.12 1964.7 1298.95 1958.78 1290.69C1952.81 1282.46 1947.76 1276.2 1944.31 1271.91C1940.79 1267.64 1938.91 1265.37 1938.91 1265.37Z" fill="#ABBD43"/>
<path d="M1853.25 1834.79C1853.25 1834.79 1853.58 1835.43 1854.21 1836.63C1854.52 1837.23 1854.89 1837.97 1855.31 1838.84C1855.79 1839.71 1856.38 1840.62 1856.98 1841.66C1857.28 1842.16 1857.6 1842.69 1857.93 1843.27C1858.31 1843.82 1858.7 1844.39 1859.12 1845C1859.94 1846.19 1860.75 1847.49 1861.81 1848.8C1862.33 1849.45 1862.84 1850.13 1863.34 1850.84C1863.86 1851.55 1864.48 1852.23 1865.07 1852.93C1865.65 1853.66 1866.26 1854.39 1866.88 1855.13C1867.51 1855.85 1868.2 1856.6 1868.87 1857.35C1871.53 1860.4 1874.64 1863.53 1877.94 1866.83C1881.28 1870.08 1884.84 1873.49 1888.63 1876.96C1890.54 1878.69 1892.46 1880.45 1894.43 1882.24C1896.4 1884.03 1898.4 1885.83 1900.41 1887.64C1904.46 1891.29 1908.57 1895.01 1912.69 1898.81C1916.8 1902.61 1920.88 1906.47 1924.84 1910.39C1925.82 1911.36 1926.81 1912.35 1927.78 1913.32C1928.76 1914.32 1929.7 1915.32 1930.66 1916.31C1932.58 1918.27 1934.43 1920.27 1936.22 1922.26C1939.81 1926.28 1943.17 1930.25 1946.17 1934.27C1947.67 1936.24 1949.1 1938.24 1950.42 1940.19C1951.73 1942.16 1952.92 1944.12 1954.08 1945.99C1955.12 1947.96 1956.22 1949.75 1957.06 1951.6C1957.89 1953.47 1958.76 1955.13 1959.35 1956.87C1959.97 1958.57 1960.63 1960.11 1961 1961.65C1961.37 1963.17 1961.84 1964.49 1962.01 1965.81C1962.22 1967.09 1962.41 1968.21 1962.55 1969.2C1962.63 1970.19 1962.63 1971.04 1962.66 1971.72C1962.69 1973.08 1962.7 1973.8 1962.7 1973.8C1962.7 1973.8 1962.35 1973.16 1961.72 1971.97C1961.39 1971.39 1961.03 1970.68 1960.56 1969.83C1960.06 1969.03 1959.48 1968.11 1958.82 1967.08C1958.24 1966.04 1957.36 1964.99 1956.54 1963.81C1955.72 1962.64 1954.7 1961.44 1953.67 1960.16C1951.59 1957.6 1949.02 1954.87 1946.21 1951.95C1943.3 1949.08 1940.17 1946 1936.66 1942.87C1933.24 1939.68 1929.45 1936.43 1925.61 1933C1921.68 1929.59 1917.65 1926.07 1913.54 1922.48C1909.44 1918.85 1905.26 1915.12 1901.13 1911.31C1897 1907.49 1892.92 1903.55 1888.98 1899.57C1887.03 1897.57 1885.08 1895.56 1883.23 1893.52C1881.36 1891.48 1879.5 1889.47 1877.78 1887.39C1874.23 1883.31 1871.05 1879.11 1868.14 1875.03C1865.31 1870.87 1862.77 1866.85 1860.75 1862.89C1860.26 1861.91 1859.77 1860.95 1859.29 1860C1858.87 1859.03 1858.45 1858.08 1858.04 1857.15C1857.22 1855.32 1856.56 1853.51 1856 1851.79C1855.38 1850.11 1854.94 1848.47 1854.59 1846.95C1854.41 1846.19 1854.24 1845.47 1854.07 1844.79C1853.94 1844.07 1853.85 1843.37 1853.76 1842.73C1853.56 1841.44 1853.37 1840.31 1853.31 1839.33C1853.28 1838.36 1853.27 1837.53 1853.27 1836.86C1853.25 1835.51 1853.25 1834.79 1853.25 1834.79Z" fill="#ABBD43"/>
<path d="M1382.63 1704.87C1383.67 1708.33 1384.71 1711.81 1385.76 1715.31C1386.69 1718.84 1387.64 1722.37 1388.59 1725.92C1390.57 1732.97 1392.19 1740.17 1393.92 1747.33C1395.63 1754.49 1397.05 1761.72 1398.61 1768.88C1399.96 1776.11 1401.45 1783.25 1402.64 1790.4C1403.85 1797.56 1405.09 1804.64 1406.11 1811.68C1407.2 1818.69 1408.15 1825.65 1409.03 1832.49C1410.83 1846.17 1412.23 1859.45 1413.37 1872.04C1414.48 1884.64 1415.4 1896.55 1415.96 1907.55C1417.2 1929.53 1417.47 1947.85 1417.25 1960.4C1417.21 1963.56 1417.13 1966.33 1417.03 1968.69C1416.97 1969.83 1416.96 1971.09 1416.88 1971.87C1416.83 1972.69 1416.77 1973.44 1416.72 1974.11C1416.71 1974.32 1416.69 1974.55 1416.68 1974.76H1451.71C1451.71 1974.08 1451.71 1973.37 1451.71 1972.61C1451.71 1971.23 1451.63 1970.16 1451.6 1968.77C1451.52 1966.07 1451.37 1963.01 1451.16 1959.65C1450.39 1946.16 1448.69 1927.27 1445.73 1904.77C1444.32 1893.52 1442.47 1881.39 1440.39 1868.57C1438.24 1855.79 1435.8 1842.33 1432.92 1828.48C1431.49 1821.56 1430.01 1814.53 1428.35 1807.44C1426.79 1800.35 1424.99 1793.2 1423.2 1786C1421.44 1778.79 1419.37 1771.59 1417.45 1764.33C1415.32 1757.13 1413.31 1749.87 1411.01 1742.68C1408.71 1735.51 1406.51 1728.31 1403.96 1721.23C1402.72 1717.68 1401.48 1714.15 1400.25 1710.63C1398.92 1707.13 1397.59 1703.64 1396.27 1700.17C1391.03 1686.29 1385.09 1672.91 1379.11 1660.12C1375.93 1653.8 1372.84 1647.57 1369.64 1641.57C1367.96 1638.61 1366.32 1635.68 1364.68 1632.77C1363.05 1629.88 1361.47 1627.01 1359.69 1624.29C1356.17 1618.84 1353.07 1613.37 1349.41 1608.47C1345.87 1603.51 1342.64 1598.6 1338.97 1594.28C1335.41 1589.89 1332.21 1585.55 1328.6 1581.85C1326.87 1579.96 1325.17 1578.11 1323.53 1576.32C1322.71 1575.43 1321.91 1574.53 1321.11 1573.67C1320.28 1572.83 1319.41 1572.05 1318.59 1571.25C1315.25 1568.13 1312.13 1565.2 1309.25 1562.49C1306.16 1560.03 1303.32 1557.77 1300.75 1555.73C1299.47 1554.71 1298.25 1553.75 1297.12 1552.84C1295.95 1551.99 1294.77 1551.28 1293.72 1550.57C1291.59 1549.17 1289.79 1548 1288.32 1547.04C1285.4 1545.12 1283.84 1544.11 1283.84 1544.11C1283.84 1544.11 1285.32 1545.24 1288.09 1547.36C1289.48 1548.43 1291.19 1549.73 1293.19 1551.27C1294.19 1552.05 1295.29 1552.84 1296.39 1553.77C1297.45 1554.76 1298.59 1555.8 1299.77 1556.91C1302.16 1559.11 1304.79 1561.53 1307.65 1564.2C1310.29 1567.07 1313.15 1570.19 1316.2 1573.51C1316.96 1574.35 1317.76 1575.16 1318.51 1576.05C1319.21 1576.96 1319.95 1577.89 1320.69 1578.83C1322.17 1580.71 1323.69 1582.64 1325.25 1584.63C1328.51 1588.48 1331.33 1593 1334.49 1597.53C1337.75 1602 1340.55 1607.07 1343.65 1612.15C1346.85 1617.16 1349.49 1622.77 1352.52 1628.31C1354.05 1631.08 1355.4 1634 1356.76 1636.95C1358.15 1639.88 1359.55 1642.85 1360.95 1645.85C1363.64 1651.93 1366.2 1658.23 1368.83 1664.6C1373.73 1677.52 1378.53 1690.95 1382.63 1704.87Z" fill="#ABBD43"/>
<path d="M1450.53 1974.48C1450.55 1974.57 1450.55 1974.67 1450.56 1974.76H1484.91C1484.69 1973.51 1484.47 1972.15 1484.24 1970.63C1482.48 1959.52 1480.32 1943.28 1478.23 1923.68C1474.08 1884.45 1470.05 1831.73 1469 1778.93C1468.69 1765.73 1468.65 1752.53 1468.73 1739.55C1468.87 1726.55 1469.17 1713.76 1469.77 1701.41C1470.09 1695.23 1470.36 1689.15 1470.83 1683.21C1471.04 1680.25 1471.25 1677.31 1471.45 1674.41C1471.73 1671.52 1472 1668.65 1472.25 1665.84C1473.29 1654.55 1474.73 1643.93 1476.27 1634.16C1477.08 1629.28 1478.03 1624.64 1478.84 1620.2C1479.85 1615.83 1480.79 1611.64 1481.76 1607.75C1482.89 1603.91 1483.87 1600.27 1484.92 1596.95C1486.09 1593.68 1487.19 1590.67 1488.16 1587.95C1490.53 1582.71 1492.33 1578.51 1494.05 1575.92C1495.63 1573.23 1496.47 1571.8 1496.47 1571.8C1496.47 1571.8 1495.51 1573.15 1493.72 1575.69C1491.76 1578.16 1489.61 1582.2 1486.77 1587.32C1485.56 1589.99 1484.21 1592.93 1482.75 1596.13C1481.4 1599.39 1480.11 1602.97 1478.64 1606.79C1477.32 1610.64 1476.03 1614.77 1474.63 1619.13C1473.43 1623.55 1472.07 1628.16 1470.85 1633.03C1468.47 1642.77 1466.11 1653.39 1464.12 1664.71C1463.61 1667.53 1463.11 1670.4 1462.59 1673.31C1462.13 1676.21 1461.67 1679.16 1461.2 1682.15C1460.23 1688.09 1459.44 1694.2 1458.6 1700.41C1456.96 1712.84 1455.57 1725.71 1454.33 1738.8C1453.16 1751.91 1452.08 1765.23 1451.28 1778.56C1447.89 1831.91 1447.49 1885.37 1448.39 1925.59C1448.84 1945.71 1449.67 1962.53 1450.53 1974.48Z" fill="#ABBD43"/>
<path d="M1606.48 1974.76C1606.47 1974.43 1606.44 1973.73 1606.4 1972.67C1606.37 1971.03 1606.33 1968.63 1606.28 1965.56C1606.23 1959.36 1606.25 1950.44 1606.59 1939.72C1606.91 1929 1607.51 1916.49 1608.64 1903.12C1609.21 1896.44 1609.85 1889.53 1610.72 1882.55C1611.52 1875.55 1612.55 1868.48 1613.69 1861.43C1614.85 1854.37 1616.23 1847.36 1617.73 1840.49C1619.32 1833.67 1621.01 1826.95 1623 1820.57C1623.99 1817.39 1624.96 1814.24 1626.11 1811.25C1626.65 1809.73 1627.19 1808.24 1627.73 1806.76C1628.33 1805.32 1628.93 1803.89 1629.52 1802.48C1631.85 1796.83 1634.51 1791.69 1637.21 1787.09C1639.95 1782.52 1642.84 1778.56 1645.68 1775.28C1647.01 1773.53 1648.61 1772.29 1649.92 1770.92C1651.21 1769.52 1652.63 1768.52 1653.87 1767.57C1655.15 1766.65 1656.19 1765.67 1657.27 1765.11C1658.33 1764.51 1659.25 1763.99 1659.99 1763.57C1661.47 1762.75 1662.27 1762.29 1662.27 1762.29C1662.27 1762.29 1661.43 1762.64 1659.85 1763.29C1659.07 1763.61 1658.08 1764.03 1656.93 1764.49C1655.76 1764.95 1654.61 1765.79 1653.2 1766.57C1651.81 1767.37 1650.23 1768.24 1648.75 1769.49C1647.25 1770.72 1645.41 1771.85 1643.84 1773.45C1640.49 1776.48 1637 1780.21 1633.59 1784.61C1630.21 1789.03 1626.8 1794.03 1623.68 1799.57C1622.89 1800.96 1622.11 1802.37 1621.29 1803.79C1620.56 1805.25 1619.81 1806.72 1619.05 1808.21C1617.49 1811.17 1616.09 1814.28 1614.68 1817.45C1611.83 1823.79 1609.25 1830.47 1606.76 1837.31C1604.36 1844.17 1602.07 1851.2 1600.01 1858.29C1597.95 1865.37 1596.01 1872.51 1594.32 1879.56C1592.57 1886.61 1591.05 1893.59 1589.63 1900.36C1586.81 1913.89 1584.64 1926.61 1582.97 1937.56C1581.31 1948.49 1580.16 1957.67 1579.43 1964.13C1579.09 1967.41 1578.81 1969.99 1578.64 1971.73C1578.48 1973.61 1578.4 1974.61 1578.4 1974.61C1578.4 1974.67 1578.4 1974.72 1578.4 1974.76H1606.48Z" fill="#ABBD43"/>
<path d="M715.265 1973.81C715.264 1973.79 715.267 1973.76 715.265 1973.73L715.264 1973.72C715.264 1973.72 715.204 1972.43 715.097 1970.19C715.003 1968.01 714.879 1964.87 714.812 1961.07C714.736 1957.28 714.715 1952.84 714.796 1948.09C714.828 1945.72 714.925 1943.27 715.005 1940.77C715.148 1938.29 715.219 1935.75 715.436 1933.23C715.531 1931.96 715.625 1930.69 715.719 1929.44C715.847 1928.19 715.975 1926.93 716.1 1925.69C716.319 1923.2 716.711 1920.8 717.017 1918.44C717.389 1916.09 717.795 1913.84 718.217 1911.71C718.463 1910.64 718.7 1909.61 718.931 1908.61C719.149 1907.61 719.387 1906.65 719.679 1905.75C720.244 1903.95 720.661 1902.23 721.283 1900.81C721.565 1900.09 721.829 1899.41 722.075 1898.79C722.308 1898.16 722.549 1897.59 722.828 1897.11C723.871 1895.12 724.465 1893.99 724.465 1893.99C724.465 1893.99 723.664 1895 722.26 1896.77C721.885 1897.2 721.536 1897.72 721.185 1898.31C720.821 1898.89 720.425 1899.52 720.004 1900.19C719.096 1901.52 718.36 1903.13 717.435 1904.88C716.96 1905.75 716.536 1906.67 716.124 1907.64C715.697 1908.61 715.257 1909.61 714.804 1910.64C713.964 1912.72 713.117 1914.93 712.287 1917.25C711.525 1919.57 710.655 1921.97 709.959 1924.44C709.591 1925.68 709.221 1926.92 708.849 1928.17C708.512 1929.43 708.173 1930.69 707.836 1931.95C707.128 1934.48 706.571 1937.03 705.945 1939.52C705.385 1942.03 704.816 1944.51 704.327 1946.91C703.331 1951.71 702.499 1956.21 701.844 1960.08C701.181 1963.95 700.696 1967.19 700.361 1969.51C700.047 1971.73 699.867 1973.01 699.867 1973.01C699.833 1973.27 699.812 1973.53 699.801 1973.81H715.265Z" fill="#ABBD43"/>
<path d="M1323.07 1963.39C1323.07 1959.44 1326.27 1956.24 1330.23 1956.24C1334.17 1956.24 1337.37 1959.44 1337.37 1963.39C1337.37 1967.35 1334.17 1970.55 1330.23 1970.55C1326.27 1970.55 1323.07 1967.35 1323.07 1963.39Z" fill="#2E353D"/>
<path d="M779.312 1952.75C779.312 1942.15 770.712 1933.55 760.102 1933.55C749.493 1933.55 740.893 1942.15 740.893 1952.75C740.893 1963.36 749.493 1971.96 760.102 1971.96C770.712 1971.96 779.312 1963.36 779.312 1952.75Z" fill="#2E353D"/>
<path d="M591.74 1963.39C591.74 1959.44 594.944 1956.24 598.895 1956.24C602.847 1956.24 606.05 1959.44 606.05 1963.39C606.05 1967.35 602.847 1970.55 598.895 1970.55C594.944 1970.55 591.74 1967.35 591.74 1963.39Z" fill="#2E353D"/>
<path d="M658.296 2024.91H66.432C65.0893 2024.91 64 2023.81 64 2022.48C64 2021.13 65.0893 2020.04 66.432 2020.04H658.296C659.639 2020.04 660.728 2021.13 660.728 2022.48C660.728 2023.81 659.639 2024.91 658.296 2024.91Z" fill="#84B8FF"/>
<path d="M2025.58 1956.9C2025.68 1959.39 2025.74 1961.75 2025.83 1964C2025.92 1966.27 2025.96 1968.38 2026.09 1970.42C2026.15 1971.39 2026.2 1972.32 2026.27 1973.24H2050C2049.86 1971.82 2049.71 1970.33 2049.54 1968.74C2049.35 1966.87 2049.25 1964.83 2049.07 1962.7C2048.91 1960.56 2048.74 1958.31 2048.58 1955.96C2048.47 1953.59 2048.35 1951.11 2048.24 1948.53C2047.93 1943.38 2047.89 1937.77 2047.78 1931.79C2047.76 1919.84 2047.94 1906.31 2049.14 1891.59C2049.25 1889.75 2049.4 1887.88 2049.53 1886C2049.71 1884.13 2049.9 1882.24 2050.1 1880.33C2050.49 1876.51 2050.82 1872.6 2051.33 1868.66C2051.85 1864.71 2052.37 1860.7 2052.93 1856.62C2053.44 1852.52 2054.24 1848.43 2054.89 1844.24C2057.77 1827.55 2061.49 1810.02 2066.64 1792.22C2071.71 1774.42 2077.71 1756.18 2085.24 1738.19C2086.17 1735.94 2087.04 1733.66 2088 1731.4C2089 1729.18 2090 1726.94 2091.01 1724.71C2092.01 1722.47 2093.02 1720.22 2094.04 1717.98C2095.05 1715.73 2096.02 1713.46 2097.16 1711.27C2099.37 1706.86 2101.6 1702.43 2103.8 1698C2104.36 1696.9 2104.9 1695.78 2105.47 1694.68L2107.27 1691.43L2110.87 1684.91C2115.52 1676.14 2120.9 1667.78 2125.98 1659.3C2128.62 1655.1 2131.46 1651.06 2134.18 1646.94C2136.91 1642.84 2139.59 1638.71 2142.57 1634.82C2145.45 1630.87 2148.33 1626.94 2151.22 1623.02C2152.61 1621.03 2154.14 1619.15 2155.66 1617.27C2157.18 1615.39 2158.68 1613.51 2160.17 1611.63C2161.68 1609.76 2163.2 1607.88 2164.69 1606.03C2166.19 1604.18 2167.63 1602.27 2169.23 1600.51C2172.34 1596.95 2175.45 1593.4 2178.54 1589.88C2180.08 1588.12 2181.62 1586.38 2183.15 1584.63C2184.68 1582.9 2186.33 1581.27 2187.9 1579.59C2191.07 1576.27 2194.21 1572.98 2197.34 1569.72C2198.91 1568.11 2200.4 1566.44 2202.02 1564.9C2203.62 1563.36 2205.22 1561.83 2206.82 1560.3C2210 1557.24 2213.14 1554.24 2216.23 1551.27C2228.86 1539.62 2241.13 1528.91 2252.92 1519.63C2255.85 1517.27 2258.71 1514.95 2261.51 1512.7C2264.4 1510.55 2267.22 1508.47 2269.98 1506.43C2275.48 1502.36 2280.66 1498.44 2285.64 1494.88C2290.69 1491.46 2295.43 1488.24 2299.8 1485.27C2302.01 1483.79 2304.1 1482.36 2306.12 1481C2307.11 1480.32 2308.1 1479.66 2309.04 1479C2310.03 1478.39 2310.99 1477.79 2311.91 1477.22C2326.84 1467.94 2335.36 1462.64 2335.36 1462.64C2335.36 1462.64 2326.64 1467.62 2311.37 1476.32C2310.42 1476.87 2309.44 1477.43 2308.42 1478C2307.44 1478.62 2306.44 1479.26 2305.4 1479.9C2303.35 1481.18 2301.19 1482.52 2298.95 1483.94C2294.44 1486.74 2289.58 1489.78 2284.38 1493.03C2279.27 1496.4 2273.92 1500.14 2268.23 1504C2265.39 1505.95 2262.47 1507.94 2259.5 1509.98C2256.58 1512.15 2253.62 1514.35 2250.6 1516.62C2238.38 1525.5 2225.64 1535.79 2212.45 1547.07C2209.21 1549.95 2205.94 1552.87 2202.6 1555.83C2200.95 1557.31 2199.27 1558.79 2197.6 1560.3C2195.91 1561.79 2194.33 1563.42 2192.67 1564.99C2189.4 1568.16 2186.1 1571.36 2182.75 1574.6C2181.09 1576.24 2179.38 1577.82 2177.76 1579.52C2176.14 1581.23 2174.52 1582.94 2172.88 1584.66C2169.63 1588.11 2166.36 1591.58 2163.05 1595.08C2161.35 1596.8 2159.81 1598.67 2158.21 1600.5C2156.62 1602.32 2155.04 1604.16 2153.43 1606.02C2151.83 1607.86 2150.23 1609.71 2148.62 1611.56C2147 1613.42 2145.38 1615.28 2143.88 1617.24C2140.82 1621.11 2137.73 1625 2134.64 1628.91C2131.46 1632.76 2128.57 1636.86 2125.62 1640.92C2122.7 1645.02 2119.64 1649.04 2116.81 1653.22C2111.26 1661.67 2105.44 1670.02 2100.35 1678.82L2096.41 1685.34L2094.45 1688.6C2093.83 1689.71 2093.22 1690.83 2092.6 1691.94C2090.16 1696.39 2087.72 1700.84 2085.29 1705.28C2084.03 1707.48 2082.96 1709.78 2081.82 1712.04C2080.69 1714.31 2079.58 1716.56 2078.47 1718.83C2077.34 1721.1 2076.22 1723.35 2075.1 1725.6C2074.03 1727.88 2073.03 1730.18 2072 1732.47C2063.55 1750.66 2056.66 1769.21 2050.71 1787.4C2044.7 1805.57 2040.17 1823.56 2036.56 1840.75C2035.69 1845.07 2034.71 1849.3 2034.02 1853.51C2033.29 1857.72 2032.58 1861.87 2031.88 1865.93C2031.19 1870.01 2030.72 1874.07 2030.14 1878.02C2029.85 1880 2029.59 1881.96 2029.33 1883.9C2029.11 1885.84 2028.9 1887.78 2028.71 1889.68C2026.89 1904.95 2026.17 1919.04 2025.7 1931.55C2025.6 1937.82 2025.4 1943.67 2025.52 1949.09C2025.53 1951.8 2025.56 1954.4 2025.58 1956.9Z" fill="#ABBD43"/>
<path d="M1878.55 1641.6C1882.72 1647.83 1887.6 1655.49 1892.97 1664.37C1894.29 1666.6 1895.66 1668.91 1897.07 1671.27C1898.44 1673.67 1899.82 1676.12 1901.24 1678.65C1902.69 1681.16 1904.1 1683.79 1905.54 1686.47C1906.96 1689.16 1908.51 1691.85 1909.89 1694.71C1911.33 1697.53 1912.8 1700.41 1914.29 1703.36C1915.74 1706.32 1917.17 1709.36 1918.63 1712.44C1920.13 1715.51 1921.54 1718.67 1922.94 1721.89C1923.67 1723.49 1924.4 1725.11 1925.11 1726.75C1925.46 1727.56 1925.85 1728.37 1926.2 1729.19C1926.53 1730.03 1926.89 1730.85 1927.21 1731.69C1932.91 1744.99 1938.02 1759.33 1942.87 1774.25C1944.01 1778 1945.13 1781.79 1946.3 1785.6C1946.91 1787.49 1947.4 1789.44 1947.91 1791.37C1948.44 1793.31 1948.95 1795.25 1949.46 1797.2C1949.97 1799.15 1950.5 1801.11 1951.01 1803.07C1951.55 1805.01 1951.92 1807.01 1952.38 1809C1953.29 1812.97 1954.21 1816.96 1955.14 1820.96C1955.88 1825 1956.65 1829.05 1957.4 1833.12C1957.77 1835.16 1958.19 1837.19 1958.53 1839.24C1958.83 1841.28 1959.15 1843.33 1959.45 1845.39C1960.05 1849.51 1960.72 1853.61 1961.3 1857.75C1961.73 1861.89 1962.16 1866.04 1962.6 1870.19L1963.31 1876.41L1963.74 1882.65C1964.02 1886.81 1964.31 1890.97 1964.6 1895.12C1964.72 1899.28 1964.85 1903.43 1964.96 1907.57C1965.06 1911.71 1965.34 1915.84 1965.19 1919.96C1965.13 1924.07 1965.07 1928.17 1965.02 1932.25C1964.99 1934.29 1965.03 1936.33 1964.93 1938.36C1964.83 1940.4 1964.72 1942.41 1964.62 1944.44C1964.41 1948.48 1964.21 1952.49 1963.99 1956.48L1963.84 1959.47L1963.57 1962.43C1963.38 1964.41 1963.21 1966.37 1963.01 1968.33C1962.87 1969.99 1962.73 1971.6 1962.57 1973.24H1984.08C1984.2 1972.43 1984.32 1971.63 1984.45 1970.81C1984.74 1968.79 1985.06 1966.75 1985.36 1964.69L1985.83 1961.61L1986.13 1958.49C1986.52 1954.33 1986.92 1950.13 1987.32 1945.92C1988.32 1937.49 1988.37 1928.89 1988.79 1920.24C1989.04 1915.91 1988.87 1911.56 1988.89 1907.2C1988.84 1902.83 1988.83 1898.45 1988.69 1894.07C1988.43 1889.68 1988.16 1885.29 1987.89 1880.89L1987.48 1874.29L1986.81 1867.72C1986.3 1863.35 1985.78 1858.96 1985.3 1854.59C1984.66 1850.23 1983.92 1845.88 1983.24 1841.55C1982.89 1839.37 1982.55 1837.21 1982.2 1835.04C1981.78 1832.89 1981.3 1830.76 1980.86 1828.61C1979.93 1824.35 1979.02 1820.08 1978.13 1815.84C1975.92 1807.44 1973.97 1799.05 1971.28 1790.97C1970.65 1788.95 1970.03 1786.92 1969.4 1784.91C1968.77 1782.89 1968.16 1780.88 1967.42 1778.91C1966 1774.97 1964.59 1771.05 1963.2 1767.17C1962.51 1765.23 1961.72 1763.33 1960.93 1761.44C1960.16 1759.55 1959.41 1757.67 1958.64 1755.79C1957.87 1753.92 1957.1 1752.05 1956.35 1750.2C1955.55 1748.36 1954.68 1746.56 1953.86 1744.76C1952.19 1741.17 1950.59 1737.59 1948.91 1734.11C1947.17 1730.65 1945.45 1727.24 1943.71 1723.89C1936.62 1710.6 1929.35 1698.35 1921.96 1687.53C1914.55 1676.72 1907.4 1667.11 1900.58 1658.97C1893.81 1650.81 1887.65 1643.97 1882.34 1638.55C1877.1 1633.08 1872.7 1629.05 1869.76 1626.25C1868.29 1624.87 1867.11 1623.85 1866.34 1623.15C1865.56 1622.45 1865.16 1622.09 1865.16 1622.09C1865.16 1622.09 1866.4 1623.87 1868.72 1627.17C1871.04 1630.48 1874.4 1635.36 1878.55 1641.6Z" fill="#ABBD43"/>
<path d="M2421.73 1975.67H213.464C212.121 1975.67 211.031 1974.59 211.031 1973.24C211.031 1971.89 212.121 1970.81 213.464 1970.81H2421.73C2423.07 1970.81 2424.17 1971.89 2424.17 1973.24C2424.17 1974.59 2423.07 1975.67 2421.73 1975.67Z" fill="#84B8FF"/>
</svg>
