<svg width="153" height="181" viewBox="0 0 153 181" fill="none" xmlns="http://www.w3.org/2000/svg">
<path d="M122.246 156.659C121.883 156.877 121.522 157.096 121.156 157.31C109.186 164.367 95.0875 168.779 81.1814 169.637C76.4514 169.938 71.7079 169.961 66.9751 169.708C63.0414 169.497 59.1237 169.053 55.2426 168.378C13.9575 161.122 -2.79665 128.991 10.6933 99.1398C14.024 91.7697 16.0836 83.917 17.6948 76.1612L17.7062 76.1042C20.2997 63.6022 21.7304 51.3453 25.443 41.7408C25.4639 41.6914 25.481 41.6382 25.5038 41.5888C29.8833 30.3465 37.451 22.7446 53.7701 22.7446C55.2996 22.7446 56.8405 22.7655 58.3852 22.7655C58.4688 22.7655 58.5543 22.7997 58.6379 22.8035C64.5333 22.9359 70.4154 23.4206 76.2528 24.2551L76.5169 24.3026C108.53 29.0298 139.567 46.4129 151.673 99.136C157.183 123.087 143.123 143.938 122.246 156.659Z" fill="#5672FF"/>
<path d="M91.7189 68.3864C91.7284 68.8538 91.4415 68.9355 90.976 69.8076C90.7427 70.234 90.4779 70.6424 90.1837 71.0293C89.2337 72.2928 87.9645 73.4993 87.0278 74.6393L77.0889 86.7993C76.7336 87.2325 76.3821 87.6676 76.0268 88.1008L74.1135 90.4416L51.1501 97.2588L47.1734 93.1453L42.1631 87.9488L41.2701 87.0216L40.0731 85.2736L40.0408 85.228L39.0414 83.7707L26.4444 65.411L14.8886 48.5751C13.3477 46.3312 11.5883 44.188 10.0626 41.9251C9.04987 40.426 5.42278 34.7697 3.12188 30.6315C3.09338 29.4212 3.18458 26.29 4.77868 24.3482C4.80583 24.3124 4.83501 24.2781 4.86608 24.2456C4.91168 24.1924 4.95728 24.1392 5.00668 24.0879C5.05608 24.0366 5.10168 23.9815 5.15488 23.9302C5.20808 23.8789 5.25748 23.8238 5.30878 23.7763C5.36008 23.7288 5.41518 23.6737 5.47028 23.6243C5.57921 23.5217 5.69511 23.4229 5.81798 23.3279C5.87688 23.2785 5.94148 23.2291 6.00798 23.1835C6.11628 23.1018 6.23028 23.022 6.34618 22.9441L6.56468 22.8073C6.65208 22.7503 6.74328 22.699 6.83638 22.6458C6.92948 22.5926 6.98838 22.5622 7.06438 22.5223C7.14038 22.4824 7.24108 22.4311 7.33228 22.3893C7.42348 22.3475 7.47668 22.3228 7.55078 22.2867C7.71988 22.2126 7.89658 22.1385 8.07518 22.072C8.1105 22.0572 8.14666 22.0445 8.18347 22.034C10.1633 21.3861 10.9689 20.9966 12.5535 20.4019C16.5435 18.9104 38.1712 10.8753 50.0196 6.40649C52.0241 9.31919 58.885 20.1625 60.5285 22.547C63.5013 26.8701 66.478 31.1869 69.4585 35.4974C73.9817 42.0372 78.5075 48.577 83.0359 55.1168C84.4647 57.1815 85.8916 59.2455 87.3166 61.3089C87.328 61.3222 87.3337 61.3412 87.3451 61.3545C87.5351 61.6357 87.7631 61.9245 88.0101 62.2418C89.2622 63.8169 91.0216 65.7207 91.4966 67.3566C91.6137 67.6892 91.6883 68.0351 91.7189 68.3864Z" fill="#5672FF"/>
<path d="M49.9397 6.27161L49.8903 6.20131C49.8219 6.10251 49.7497 6.01131 49.6794 5.91251C49.3298 6.48251 48.5755 6.81881 47.901 6.27541C47.2265 5.73201 46.7724 4.90361 46.0884 4.34501C45.5032 3.86621 44.4468 3.01501 43.6754 3.27721C43.465 3.35358 43.2378 3.37131 43.018 3.32851C42.9762 3.32851 42.9382 3.32851 42.8945 3.31331C41.9578 3.12331 41.1674 2.65021 40.1984 2.52101C38.8228 2.33101 37.3769 2.52101 36.0089 2.68061C33.5389 2.98461 30.9454 3.22021 28.6369 4.18351C25.918 17.9566 22.3232 16.7881 15.0177 14.8463C14.4154 14.6867 12.7814 14.1281 11.1056 13.6569C10.3417 14.016 9.62184 14.4623 8.96053 14.9869C7.78063 15.973 6.79833 17.2289 5.81413 18.4069C3.29853 21.4184 2.28013 24.4584 2.29913 28.3762C2.30128 28.5574 2.26636 28.7372 2.19653 28.9044C2.29723 29.0944 2.39983 29.2977 2.51003 29.5067C2.70003 29.862 2.90143 30.2344 3.11803 30.622C3.08953 29.4117 3.18073 26.2805 4.77483 24.3387C4.80198 24.3029 4.83117 24.2686 4.86223 24.2361C4.90783 24.1829 4.95343 24.1297 5.00283 24.0784C5.05223 24.0271 5.09783 23.972 5.15103 23.9207C5.20423 23.8694 5.25363 23.8143 5.30493 23.7668C5.35623 23.7193 5.41133 23.6642 5.46643 23.6148C5.57537 23.5122 5.69127 23.4134 5.81413 23.3184C5.87303 23.269 5.93763 23.2196 6.00413 23.174C6.11243 23.0923 6.22643 23.0125 6.34233 22.9346L6.56083 22.7978C6.64823 22.7408 6.73943 22.6895 6.83253 22.6363C6.92563 22.5831 6.98453 22.5527 7.06053 22.5128C7.13653 22.4729 7.23723 22.4216 7.32843 22.3798C7.41963 22.338 7.47283 22.3133 7.54693 22.2772C7.71603 22.2031 7.89273 22.129 8.07133 22.0625C8.10666 22.0477 8.14282 22.0351 8.17963 22.0245C10.1594 21.3766 10.965 20.9871 12.5496 20.3924C16.5396 18.9009 38.1673 10.8658 50.0157 6.39701C49.9948 6.35521 49.9663 6.31151 49.9397 6.27161Z" fill="#7373E5"/>
<path d="M20.3282 16.2732C14.9208 18.215 9.71101 20.6432 4.60571 23.2614C4.64181 23.4324 4.67791 23.6034 4.71971 23.7706C4.7592 23.9281 4.8087 24.083 4.86791 24.2342C5.20504 25.0757 5.59402 25.8956 6.03261 26.689C8.24231 30.8481 12.4736 37.4582 13.5813 39.096C15.1013 41.3646 16.8664 43.5078 18.4073 45.746L29.9631 62.5819L42.5601 80.9416L43.5595 82.3989L43.5918 82.4445L44.7888 84.1925L45.6894 85.1254L50.6997 90.3219L54.6688 94.4335L76.0305 88.0913C76.3858 87.6581 76.7373 87.223 77.0926 86.7898L87.0315 74.6298C87.9682 73.4898 89.2298 72.2833 90.1874 71.0198C90.4816 70.6329 90.7465 70.2245 90.9797 69.7981C91.4433 68.926 91.7397 68.8481 91.7226 68.3769C91.6922 68.025 91.6175 67.6784 91.5003 67.3452C91.0253 65.7093 89.2659 63.8055 88.0138 62.2304C87.7668 61.9207 87.5426 61.6262 87.3488 61.3431C87.3374 61.3298 87.3317 61.3108 87.3203 61.2975C85.8953 59.2328 84.4684 57.1688 83.0396 55.1054C78.5088 48.5694 73.9823 42.0296 69.4603 35.486C66.4773 31.173 63.5006 26.8562 60.5303 22.5356L60.4942 22.4824C58.0348 18.8893 54.5866 16.0862 50.5671 14.4123C46.5476 12.7384 42.129 12.2654 37.8462 13.0508L20.3282 16.2732Z" fill="#FF0000"/>
<path d="M11.5446 19.8299C12.2457 17.13 13.0209 14.4795 13.8588 11.8366C13.8593 11.6995 13.8797 11.5632 13.9196 11.4319C14.2179 10.4686 14.5238 9.50535 14.8316 8.54395C13.437 9.24125 12.0652 9.97845 10.6858 10.7308C10.2735 10.9569 9.865 11.1811 9.4565 11.4129L9.4261 11.43C8.5008 11.9544 7.5812 12.5035 6.7053 13.1039C6.6806 13.121 6.6445 13.14 6.6198 13.1571C5.35738 14.0026 4.20366 14.9999 3.1846 16.1268C1.3834 18.1826 0.684204 20.9015 0.684204 23.5957C0.684204 23.7686 0.743104 23.9396 0.758304 24.1125C0.773504 24.2854 0.828604 24.4336 0.845704 24.5951C0.898904 25.0625 0.973003 25.528 1.068 25.984C1.1098 26.1854 1.1516 26.3849 1.201 26.5825C1.3492 27.1848 1.8337 28.2298 2.5139 29.5028C2.7039 29.8581 2.9053 30.2305 3.1219 30.6181C3.0934 29.4078 3.1846 26.2766 4.7787 24.3348C4.80586 24.299 4.83504 24.2648 4.8661 24.2322C4.9079 24.179 4.9573 24.1258 5.0067 24.0745C5.0561 24.0232 5.1017 23.9681 5.1549 23.9168C5.2081 23.8655 5.2575 23.8104 5.3088 23.7629C5.3601 23.7154 5.4152 23.6603 5.4703 23.6109C5.57924 23.5083 5.69514 23.4095 5.818 23.3145C5.8769 23.2651 5.9415 23.2157 6.008 23.1701C6.1163 23.0884 6.2303 23.0086 6.3462 22.9307L6.5647 22.7939C6.6521 22.7369 6.7433 22.6856 6.8364 22.6324C6.9295 22.5792 6.9884 22.5488 7.0644 22.5089C7.1404 22.469 7.2411 22.4177 7.3323 22.3759C7.4235 22.3341 7.4767 22.3056 7.5508 22.2733C7.7199 22.1992 7.8966 22.1251 8.0752 22.0586C8.11117 22.0439 8.14797 22.0312 8.1854 22.0206L11.7004 20.6906C11.61 20.5688 11.5489 20.4278 11.5218 20.2785C11.4948 20.1292 11.5026 19.9757 11.5446 19.8299Z" fill="#E6E6E6"/>
<path d="M50.0234 6.39699C38.175 10.8658 16.5473 18.899 12.5573 20.3924C10.967 20.9871 10.1614 21.3766 8.18729 22.0245C8.15048 22.035 8.11432 22.0477 8.079 22.0625C7.9004 22.129 7.72369 22.2031 7.55459 22.2772C7.48049 22.3133 7.4064 22.3437 7.3361 22.3798C7.2658 22.4159 7.15749 22.4672 7.06819 22.5128C6.97889 22.5584 6.9143 22.5945 6.8402 22.6363C6.7661 22.6781 6.65019 22.7427 6.56849 22.7978C6.48679 22.8529 6.42029 22.889 6.34999 22.9346C6.23409 23.0125 6.122 23.0923 6.0118 23.174C5.9491 23.2196 5.8845 23.269 5.8218 23.3184C5.69513 23.4134 5.57923 23.5122 5.47409 23.6148C5.41709 23.6642 5.36579 23.7136 5.31259 23.7668C5.25939 23.82 5.2062 23.8694 5.1587 23.9207C5.1112 23.972 5.05609 24.0271 5.01049 24.0784C4.96489 24.1297 4.91549 24.1848 4.86989 24.2361C4.83883 24.2686 4.80965 24.3028 4.78249 24.3387C4.75779 24.2608 4.74069 24.1905 4.72169 24.124C4.67229 23.934 4.6305 23.7269 4.5887 23.5255C4.39012 22.5553 4.29459 21.5669 4.3037 20.5767C4.2901 18.5122 4.84135 16.4833 5.8978 14.7095C6.45567 13.8232 7.14647 13.028 7.94599 12.3516H7.9574L9.4318 11.4434L9.46029 11.4263C12.2523 9.7207 15.1747 8.23851 18.2003 6.99359C18.5632 6.83969 18.928 6.68769 19.2947 6.53949C25.8934 3.85289 32.9234 1.95099 37.852 1.15869L37.9356 1.14539C38.2244 1.09979 38.5056 1.05799 38.7944 1.01809C40.6203 0.771088 42.4177 0.687488 44.0536 1.12639C44.3396 1.2008 44.6202 1.29475 44.8934 1.40759C45.546 1.66417 46.1534 2.02336 46.6927 2.47159C46.7668 2.53049 46.8371 2.59129 46.9074 2.66159C47.0138 2.75279 47.1145 2.85159 47.2171 2.95419C48.1971 3.96084 49.0913 5.04762 49.8904 6.20319L49.9398 6.27349C49.9664 6.31149 49.9949 6.35519 50.0234 6.39699Z" fill="white"/>
<path d="M90.1837 71.0293C89.2337 72.2928 87.9645 73.4993 87.0278 74.6393L80.6134 82.4939C79.4417 83.929 78.2688 85.3642 77.0946 86.7993C76.1066 88.0128 75.1148 89.2262 74.1192 90.4397L51.1501 97.2588L47.1734 93.1453L43.4836 89.3187L42.165 87.9507L40.037 85.2242L39.2276 84.1868C39.1552 84.0609 39.0917 83.9301 39.0376 83.7954C38.3764 82.2336 36.4593 76.5925 41.3556 74.4854C41.5874 74.4854 41.8344 74.2517 42.0985 74.1605C42.8471 73.9002 43.9586 73.4366 45.3532 72.8419C45.3817 72.8305 45.4102 72.8115 45.4368 72.8001C52.4668 69.7848 66.4432 63.1215 75.9755 58.5311C78.8255 57.1631 81.2727 55.9756 83.0264 55.1244C84.4552 57.1891 85.8821 59.2525 87.3071 61.3146C87.3185 61.3279 87.3242 61.345 87.3356 61.3602C87.5256 61.6414 87.7536 61.9302 88.0006 62.2456L89.6612 68.9545L90.1837 71.0293Z" fill="#E6E6E6"/>
<path d="M89.6706 68.9488C87.7035 71.3554 85.7401 73.7621 83.7806 76.1688C82.6089 77.6039 81.436 79.039 80.2618 80.4742C79.2738 81.6876 78.282 82.9011 77.2864 84.1146L54.3154 90.9261L50.3463 86.8145L45.336 81.618L45.146 81.3862L43.2004 78.8915L42.391 77.8541C42.391 77.8541 42.3131 77.7021 42.201 77.4361C42.1136 77.2328 42.011 76.9573 41.8951 76.6343C41.646 75.9178 41.4659 75.1791 41.3574 74.4284C41.5996 74.3158 41.8476 74.2163 42.1003 74.1301C42.8603 73.8698 43.9756 73.4157 45.3835 72.8134L45.4405 72.7887C52.4705 69.7734 66.4469 63.1139 75.9792 58.5235C78.8292 57.1555 81.2764 55.9699 83.0301 55.1187C84.4589 57.1833 85.8858 59.2474 87.3108 61.3108C87.3222 61.3241 87.3279 61.3431 87.3393 61.3564C87.5293 61.6376 87.7573 61.9264 88.0043 62.2437L89.6706 68.9488Z" fill="white"/>
<path d="M93.5334 64.136C93.2199 68.316 91.964 72.5131 89.5434 75.973C87.5142 78.8686 84.3222 82.0796 80.6134 82.4919L87.0335 74.6373C87.9702 73.4973 89.2318 72.2908 90.1894 71.0273L88.0158 62.2398C87.7688 61.9301 87.5446 61.6356 87.3508 61.3525C87.3394 61.3392 87.3337 61.3202 87.3223 61.3069C85.8973 59.2423 84.4704 57.1782 83.0416 55.1148C81.2898 55.966 78.8369 57.1516 75.9907 58.5196C75.9413 58.1529 75.8843 57.7919 75.8216 57.429C74.1477 48.0259 67.6915 39.9585 58.8337 36.339C58.5976 36.2463 58.3836 36.105 58.2056 35.9243C58.0275 35.7436 57.8894 35.5276 57.8001 35.2902C56.4492 35.1211 55.3757 33.4643 56.6924 32.3908C65.4324 25.2563 77.5924 34.3535 83.908 40.7508C90.0222 46.9448 94.2098 55.2611 93.5334 64.136Z" fill="#7373E5"/>
<path d="M47.825 84.2418C47.825 84.2418 54.1577 89.9589 67.3495 84.1544C80.5412 78.3499 58.3833 95.7615 58.3833 95.7615L45.1917 94.707L47.825 84.2418Z" fill="#E6E6E6"/>
<path d="M90.1837 71.0293C89.2337 72.2928 87.9645 73.4993 87.0278 74.6393L80.6134 82.4939C80.1554 82.545 79.6934 82.552 79.234 82.5148C74.3054 82.1101 73.2927 76.8148 74.294 72.8514C74.9514 70.2655 75.8273 67.8145 76.0876 65.1374C76.3087 62.9361 76.2743 60.7167 75.985 58.5235C78.835 57.1555 81.2822 55.9699 83.0359 55.1187C84.4647 57.1833 85.8916 59.2474 87.3166 61.3108C87.328 61.3241 87.3337 61.3431 87.3451 61.3564C87.5351 61.6376 87.7631 61.9264 88.0101 62.2437L90.1837 71.0293Z" fill="#E6E6E6"/>
<path d="M42.849 88.7031L43.894 89.9077C43.8351 90.0977 43.7686 90.2877 43.704 90.4663C43.4623 91.1316 43.1838 91.7831 42.8699 92.4176C42.6799 92.7976 42.4899 93.1662 42.2999 93.5367C41.3803 95.2467 38.973 93.6887 39.8964 91.9692C40.513 90.8092 41.0679 89.6175 41.5589 88.3991C41.3808 88.3159 41.2221 88.1961 41.0934 88.0476C40.4835 87.9203 39.9534 87.299 39.8926 86.5903C34.8918 80.4894 29.9271 74.2764 26.0359 67.2103C21.6317 59.2113 18.4131 50.3934 14.9 41.8814C13.4864 41.5508 13.6175 38.8889 15.2686 38.8091C24.0941 38.3949 32.2831 44.1291 37.6145 51.6208C41.937 57.7008 44.9637 65.3996 45.3855 73.2086C44.0669 73.7995 43.0143 74.2441 42.3094 74.5006C42.0724 74.5853 41.8403 74.683 41.614 74.7932C41.7153 75.5284 41.8838 76.2528 42.1175 76.9573C38.346 78.7186 39.8375 83.7099 40.3676 85.0779C40.4068 85.1923 40.4564 85.303 40.5158 85.4085L41.158 86.3034L42.849 88.7031Z" fill="#7373E5"/>
<path d="M41.3612 74.4816C41.4965 75.5109 41.7807 76.5151 42.2048 77.4627C42.2613 77.6007 42.3247 77.7358 42.3948 77.8674L43.2042 78.8991L45.1042 81.3406L45.1422 81.3881C44.9066 84.0899 44.4392 86.7594 43.4778 89.3206L41.6633 87.8481L40.0388 85.2242L39.2294 84.1868C39.157 84.0609 39.0936 83.9301 39.0394 83.7954C38.382 82.2317 36.4649 76.5906 41.3612 74.4816Z" fill="#E6E6E6"/>
<path d="M42.108 74.1282C41.8553 74.2144 41.6073 74.314 41.3651 74.4265C41.5924 74.3139 41.8258 74.2143 42.0643 74.1282C42.8243 73.8641 43.9529 73.4005 45.3608 72.7887V72.8248C43.97 73.4176 42.8566 73.8679 42.108 74.1282Z" fill="#A0A0E5"/>
<path d="M45.1156 81.2665C45.1156 81.2836 45.1156 81.333 45.1156 81.3501L43.1909 78.8801L42.3929 77.8503C42.3205 77.7284 42.257 77.6014 42.2029 77.4703C41.7765 76.521 41.4929 75.5139 41.3612 74.4816C41.593 74.4816 41.7982 74.2479 42.0604 74.1567C42.8204 73.8926 43.949 73.3967 45.3569 72.7906V72.7241L45.1156 81.2665Z" fill="#E6E6E6"/>
<path d="M122.246 156.658C121.883 156.877 121.522 157.095 121.156 157.31C109.186 164.367 95.0876 168.779 81.1815 169.637C78.5037 169.802 75.8912 169.884 73.344 169.884C71.1729 169.884 69.0506 169.825 66.9771 169.708C63.0434 169.497 59.1256 169.053 55.2446 168.378C63.3671 151.16 66.8536 128.586 63.3386 112.879C62.3563 112.797 61.4044 112.706 60.4753 112.59C55.37 111.986 51.0361 110.88 46.9036 108.74C41.1333 105.767 35.7487 100.812 29.1842 92.4707C25.0479 87.2153 20.9838 81.9371 17.7025 76.1079C14.3528 70.159 11.5104 63.8966 8.99286 57.5506C7.85286 54.6911 6.76606 51.7461 6.65396 48.6719C6.59539 47.2348 6.81009 45.7996 7.28666 44.4425C7.78325 43.0149 8.5883 41.7142 9.64456 40.633C12.3578 37.8495 16.5606 36.7361 20.8109 38.543C22.5307 39.2986 24.1148 40.3314 25.5001 41.6001C27.0269 43.0037 28.4375 44.5287 29.7181 46.1601C37.757 56.0914 44.8725 68.7093 41.0573 80.9073C40.5899 82.4064 39.942 84.0062 40.0978 85.4673C40.1688 86.2148 40.4855 86.9177 40.9984 87.4661C41.9177 88.4561 43.0298 89.2476 44.2664 89.7917C46.8903 90.9773 50.0139 91.192 52.786 90.7037C52.9589 90.6752 53.1299 90.641 53.299 90.6049C53.9051 90.4776 54.4979 90.3199 55.0869 90.1375C57.4923 89.3984 59.7628 88.2527 61.9611 86.9683L62.3411 86.7916C65.5179 85.3419 68.6529 83.7516 71.5124 81.7395C77.2124 77.7077 81.2632 71.6296 82.2664 64.8713C82.561 62.8856 82.5846 60.869 82.3367 58.8768L82.3253 58.7932C82.2892 58.5196 82.2474 58.2403 82.2018 57.9591C81.945 56.426 81.485 54.9341 80.8337 53.5226C80.8356 53.5171 80.8356 53.5111 80.8337 53.5055C79.9944 51.6997 78.9073 50.0197 77.6038 48.5142C76.6442 47.3929 75.6149 46.3331 74.522 45.3412C74.4688 45.2918 74.4156 45.2462 74.3605 45.1968C73.8437 44.7256 73.3123 44.2779 72.7664 43.8535C72.717 43.8155 72.6714 43.7756 72.622 43.7414C71.0851 42.5379 69.4425 41.4759 67.7143 40.5684C67.6967 40.5542 67.6767 40.5433 67.6554 40.5361C66.5666 39.9627 65.4478 39.4483 64.3038 38.9952C63.8915 38.8299 63.4735 38.6722 63.0517 38.5202C61.4149 37.9268 59.8405 37.174 58.3511 36.2725C57.0859 35.5229 55.8887 34.664 54.7734 33.7056C54.4149 33.3953 54.0735 33.0786 53.7493 32.7556C52.3699 31.3762 51.3401 29.3717 51.9063 27.504C52.1799 26.5901 52.8145 25.8149 53.5346 25.1936C57.5246 21.7508 64.1271 23.6546 68.6928 24.6958C82.8649 27.9258 95.9046 35.7158 103.632 48.2691C106.983 53.7145 109.55 59.6197 111.576 65.675C112.488 68.3996 113.286 71.1603 114.01 73.9419C116.917 85.1823 118.402 96.7419 119.453 108.283C119.453 108.36 119.47 108.435 119.478 108.511C120.238 115.465 120.791 122.453 121.188 129.449C121.188 129.532 121.188 129.618 121.201 129.701C121.472 134.363 121.693 139.028 121.862 143.699C122.035 148.02 122.163 152.34 122.246 156.658Z" fill="#FFA792"/>
<path d="M85.4887 69.0381C85.2816 71.2763 81.7628 71.2896 81.9699 69.0381C82.101 67.6492 82.2093 66.2527 82.2644 64.8581C82.4335 60.9251 82.1979 57.0377 80.8318 53.5094C80.8337 53.5038 80.8337 53.4978 80.8318 53.4923C79.8863 51.0218 78.3723 48.8088 76.4124 47.0323C75.7892 46.4623 75.1603 45.8923 74.5124 45.3223C74.4592 45.2729 74.406 45.2273 74.3509 45.1779C73.8265 44.72 73.2964 44.2697 72.7568 43.8346C72.7074 43.7966 72.6618 43.7567 72.6124 43.7225C71.1075 42.4748 69.4601 41.4097 67.7047 40.5495C67.6872 40.5353 67.6672 40.5244 67.6458 40.5172L67.5717 40.4811C66.4773 39.9744 65.3842 39.4728 64.2923 38.9763C62.3087 38.0681 60.3245 37.1605 58.3396 36.2536C57.0791 35.5095 55.8858 34.6569 54.7733 33.7057C54.7904 32.5771 56.0653 31.3763 57.458 32.0128C61.8451 34.0173 66.2531 35.9819 70.6117 38.0434C74.0773 39.6869 77.56 41.5793 80.2504 44.3647C86.6705 50.9976 86.2715 60.509 85.4887 69.0381Z" fill="#FC9D86"/>
<path d="M116.09 88.6327C112.885 93.3086 107.666 96.3657 101.945 96.5025C98.5706 96.565 95.2542 95.6218 92.418 93.7931C92.6992 96.8331 92.1159 99.9852 91.1583 102.858C89.4692 107.931 85.9979 112.018 82.9446 116.306C79.6386 120.946 77.636 125.932 75.9925 131.366C72.2381 143.797 71.2425 157.054 73.3439 169.881C71.1729 169.881 69.0506 169.822 66.977 169.704C63.2916 169.505 59.6202 169.101 55.9798 168.494C55.7328 168.456 55.4877 168.412 55.2445 168.37C56.6824 165.31 57.951 162.174 59.0445 158.975C64.3645 143.516 66.2417 125.85 63.3404 112.871L63.0421 112.846C63.025 112.719 63.0041 112.594 62.9851 112.466C64.7122 112.516 66.464 112.768 68.1607 112.846C75.584 113.205 82.7033 109.138 86.3038 102.67C86.4401 102.394 86.6555 102.165 86.9225 102.012C87.1895 101.859 87.496 101.789 87.8029 101.811C88.599 99.4019 89.15 96.7799 88.9315 94.2681L88.9106 94.2301C87.9264 92.2256 86.9023 90.2401 85.8174 88.285C85.5533 87.81 84.9833 86.3679 84.2974 86.3964C83.8053 86.4173 83.5051 87.1317 83.3189 87.829C83.2655 89.3806 82.974 90.9147 82.4544 92.3776C81.0464 96.3705 78.146 99.6625 74.3623 101.562C74.208 101.844 73.9793 102.078 73.7011 102.239C64.3702 107.787 54.1995 105.155 45.0358 100.76C42.5943 99.6033 40.434 102.792 42.4233 104.623C43.6253 105.724 44.9288 106.708 46.3164 107.562L46.9111 108.737C41.1408 105.763 35.7562 100.808 29.1917 92.4669C25.0554 87.2115 20.9913 81.9333 17.71 76.1041C14.3603 70.1552 11.5179 63.8928 9.00043 57.5468C8.06183 55.1794 7.14983 52.755 6.80593 50.247C6.72961 49.7237 6.68141 49.1966 6.66153 48.6681C6.60296 47.231 6.81766 45.7958 7.29423 44.4387C7.23723 46.6826 7.83003 52.1755 14.4154 55.8387C14.4154 55.8387 13.3001 64.6927 21.0122 67.5351C21.0122 67.5351 19.8722 75.9502 28.0422 77.3847C28.0422 77.3847 29.1328 84.5515 36.7708 84.4451C37.6001 84.4331 38.4267 84.3473 39.2408 84.1886L40.0996 85.4616L40.7779 86.4705C41.683 87.8187 42.8749 88.9502 44.2682 89.7841C44.4582 89.9 44.6596 90.0102 44.8553 90.1147C47.3063 91.4276 50.1468 91.3706 52.7878 90.6942C52.8657 90.6771 52.9398 90.66 53.0139 90.6372C56.1128 89.7993 59.0502 88.304 61.9629 86.9569L62.3429 86.7802C65.5197 85.3305 68.6547 83.7402 71.5142 81.7281C78.8634 76.5278 83.4709 67.9303 82.3442 58.8654L82.3328 58.7818C82.2967 58.5044 82.2549 58.2251 82.2093 57.9477C81.7737 55.395 80.8024 52.9635 79.3593 50.8132C79.6056 50.9197 79.8226 51.084 79.992 51.292C81.9863 53.6595 83.4917 56.3987 84.4211 59.3514C85.3505 62.3041 85.6856 65.4117 85.407 68.4946C85.455 68.6678 85.4786 68.8469 85.4773 69.0266C85.4028 75.2235 86.8526 81.3437 89.6991 86.8486C90.0319 86.9707 90.3218 87.1873 90.5332 87.4718C96.218 94.9692 107.781 94.5645 113.065 86.8562C114.325 84.998 117.371 86.7612 116.09 88.6327Z" fill="#FC9D86"/>
<path d="M39.2333 84.1849C38.4192 84.3435 37.5926 84.4294 36.7633 84.4414C36.901 84.1876 37.1082 83.9783 37.3606 83.838C37.6129 83.6977 37.9001 83.6321 38.1883 83.6491L38.7013 83.3964L39.2333 84.1849Z" fill="#FC9D86"/>
<path d="M68.8448 74.9186C68.8448 73.7045 66.8061 73.7786 65.5901 73.7786C64.5356 73.7786 63.4697 72.4999 62.4076 72.859C59.9756 73.6817 62.4437 76.1346 63.7091 76.7483C65.3982 77.5615 68.8448 77.4456 68.8448 74.9186Z" fill="#E6E6E6"/>
<path d="M31.5934 5.24933L17.8849 10.0107C15.7531 10.7517 17.3149 13.9019 19.441 13.1666L33.1419 8.40333C35.2737 7.66423 33.7024 4.51213 31.5934 5.24933Z" fill="#E6E6E6"/>
<path d="M83.0035 80.4608C80.7406 80.4608 80.7368 83.9796 83.0035 83.9796C85.2702 83.9796 85.2721 80.4608 83.0035 80.4608Z" fill="#FC9D86"/>
<path d="M84.6737 81.2322L83.8738 80.7306C83.6742 80.6141 83.4536 80.538 83.2245 80.5068C82.9955 80.4755 82.7626 80.4897 82.5391 80.5484C82.3155 80.6072 82.1058 80.7094 81.9217 80.8492C81.7377 80.989 81.583 81.1637 81.4665 81.3633C81.3499 81.5629 81.2739 81.7835 81.2426 82.0126C81.2114 82.2416 81.2255 82.4745 81.2842 82.698C81.343 82.9216 81.4452 83.1313 81.585 83.3154C81.7249 83.4994 81.8996 83.6541 82.0992 83.7706L82.8991 84.2722C83.3022 84.5076 83.7823 84.5731 84.2338 84.4544C84.6852 84.3358 85.071 84.0427 85.3064 83.6395C85.5417 83.2364 85.6072 82.7563 85.4886 82.3048C85.3699 81.8534 85.0768 81.4676 84.6737 81.2322Z" fill="#FC9D86"/>
<path d="M6.40883 21.6122L34.7188 10.957L41.7963 8.29695L43.5633 7.62625L44.4487 7.29375C44.7337 7.18545 45.0719 7.06385 45.2619 6.97455C45.7218 6.73992 46.1093 6.38478 46.383 5.94707C46.6567 5.50936 46.8064 5.00552 46.8161 4.48935C46.8232 4.23339 46.795 3.97767 46.7325 3.72935C46.6764 3.48645 46.5815 3.25419 46.4513 3.04155C46.1787 2.60788 45.7896 2.25959 45.3284 2.03645C44.3632 1.54055 43.1491 1.38095 41.9597 1.36575C41.3567 1.36106 40.754 1.39215 40.1547 1.45885C39.5638 1.52345 38.9273 1.63745 38.3174 1.72485C37.7075 1.81225 37.0862 1.93385 36.4725 2.04025C35.8588 2.14665 35.2451 2.27205 34.6352 2.39935C29.7427 3.43824 24.947 4.88997 20.2997 6.73895C17.9722 7.65665 15.6789 8.66175 13.416 9.73715C12.2862 10.2755 11.1633 10.8303 10.0473 11.4016C8.94048 11.9415 7.8681 12.5494 6.83633 13.2218C5.83133 13.8723 4.91157 14.6459 4.09843 15.5246C3.30937 16.3854 2.68817 17.3862 2.26683 18.4753C1.43463 20.6584 1.39283 23.1398 1.93433 25.4521C1.96624 25.5809 2.00557 25.7078 2.05213 25.8321L2.11293 26.0221L2.20033 26.2254C2.31243 26.4952 2.43023 26.7688 2.56703 27.0443C2.82353 27.5934 3.11803 28.1444 3.40873 28.6916C3.99393 29.7879 4.62283 30.8728 5.25173 31.9558C6.51333 34.1123 7.84333 36.2555 9.17333 38.3816L10.1993 39.9738C10.3893 40.2607 10.5242 40.464 10.7066 40.7338L11.2405 41.4938C11.9625 42.5084 12.7168 43.5116 13.4654 44.5338C14.214 45.556 14.9474 46.6238 15.6447 47.6593L17.7632 50.7886L26.2391 63.3077L34.7131 75.8287L38.9558 82.0816L41.0743 85.2128L41.6006 85.9899C41.7621 86.2293 41.9369 86.4573 42.1193 86.6815C42.8497 87.5714 43.7276 88.3291 44.7147 88.9216C45.2008 89.217 45.7127 89.4675 46.2442 89.6702C47.3179 90.0523 48.4554 90.2227 49.5939 90.1718C50.7698 90.1245 51.9352 89.9311 53.0633 89.5961C54.2365 89.2499 55.388 88.8344 56.5118 88.3516C57.6518 87.8728 58.7766 87.3427 59.9147 86.8069L63.3347 85.2052C65.5787 84.162 67.7491 82.9673 69.8308 81.6294C71.8693 80.3023 73.7255 78.7143 75.3522 76.906L75.6581 76.5716L75.9431 76.2182L76.5131 75.5114C76.8931 75.0364 77.218 74.5291 77.5733 74.0389C77.8868 73.5221 78.2193 73.0167 78.5138 72.4904L78.9375 71.6905L79.1503 71.2915L79.3403 70.8792C80.3624 68.697 81.0288 66.3654 81.3144 63.9727C81.3809 63.3761 81.4018 62.7757 81.4455 62.1772C81.4303 61.5787 81.4455 60.9764 81.4113 60.3779L81.3334 59.4811C81.3106 59.1847 81.284 58.8788 81.2327 58.5843C81.1538 57.9957 81.0415 57.4121 80.8964 56.8363C80.3014 54.523 79.2504 52.3519 77.8051 50.4504C76.3289 48.5173 74.612 46.7806 72.696 45.2824C70.796 43.7624 68.6756 42.5388 66.4716 41.3817C64.2676 40.2246 61.9781 39.1511 59.7304 37.9085C58.6037 37.2986 57.4998 36.6203 56.4149 35.8983C55.8829 35.5183 55.3414 35.1554 54.8341 34.7336C54.5795 34.5246 54.3135 34.3327 54.0741 34.1104L53.3369 33.4473C52.3565 32.5486 51.3837 31.4314 50.8935 29.9532C50.8327 29.7632 50.7852 29.5732 50.7434 29.3832C50.7016 29.1932 50.675 29.0032 50.6598 28.8132C50.6446 28.6232 50.6199 28.456 50.6161 28.2698C50.606 28.085 50.606 27.8997 50.6161 27.715C50.6315 26.9401 50.8068 26.1768 51.131 25.473C51.4688 24.7639 51.9593 24.1384 52.5674 23.6414C53.139 23.1791 53.7753 22.8034 54.456 22.5261C55.7269 22.0315 57.0624 21.7224 58.4213 21.6084C61.0566 21.3576 63.6444 21.5248 66.1923 21.8364C68.7341 22.1597 71.2538 22.6382 73.7372 23.269C74.9817 23.5882 76.2072 23.9283 77.4574 24.3843C77.6132 24.4413 77.7747 24.5059 77.9305 24.5743L78.3732 24.7643L79.2567 25.1443C79.8476 25.397 80.4195 25.6896 81.0009 25.9613C85.6125 28.2335 89.8729 31.1579 93.6511 34.6443C95.5382 36.3794 97.3061 38.2399 98.9426 40.2132C99.7634 41.1955 100.548 42.2101 101.283 43.2532L102.403 44.8093L103.446 46.4148C104.848 48.5504 106.075 50.7848 107.246 53.0477C107.531 53.6177 107.799 54.1877 108.076 54.7672C108.353 55.3467 108.646 55.9072 108.887 56.4962L109.647 58.2461C109.773 58.5387 109.904 58.8275 110.027 59.122L110.377 60.0093C112.241 64.7347 113.786 69.5798 115.001 74.512C116.219 79.433 117.175 84.411 117.964 89.4061C119.512 99.3944 120.601 109.442 121.317 119.512C122.033 129.582 122.457 139.665 122.647 149.75C122.837 159.835 122.885 169.924 122.543 180.015C122.541 180.079 122.526 180.141 122.5 180.199C122.474 180.257 122.437 180.309 122.391 180.352C122.345 180.396 122.291 180.43 122.231 180.452C122.172 180.475 122.109 180.485 122.046 180.484C121.982 180.482 121.92 180.467 121.862 180.441C121.804 180.415 121.752 180.378 121.709 180.332C121.665 180.286 121.631 180.232 121.609 180.172C121.586 180.113 121.575 180.05 121.577 179.987C121.836 169.926 121.729 159.847 121.435 149.777C121.14 139.707 120.703 129.648 119.915 119.614C119.126 109.58 117.996 99.5996 116.4 89.6816C115.589 84.7264 114.614 79.8016 113.381 74.9452C112.155 70.097 110.607 65.3363 108.745 60.6952L108.397 59.825C108.277 59.5362 108.146 59.255 108.017 58.9681L107.257 57.2581C107.016 56.6881 106.719 56.1333 106.453 55.569C106.187 55.0047 105.912 54.4461 105.631 53.8913C104.464 51.6911 103.256 49.5118 101.878 47.4408L100.854 45.8828L99.7577 44.3761C99.0433 43.352 98.2833 42.3716 97.4853 41.4216C95.8979 39.521 94.184 37.7296 92.3553 36.0598C88.6978 32.7141 84.5775 29.9126 80.1212 27.7416C79.5512 27.4832 79.0078 27.2039 78.4397 26.9626L77.5866 26.6016L77.161 26.4116C77.0261 26.3565 76.8931 26.3052 76.7544 26.2539C75.6334 25.8492 74.4288 25.5186 73.2318 25.2165C70.8271 24.6167 68.3881 24.1643 65.9282 23.8618C63.4791 23.5711 61.0015 23.4305 58.617 23.6718C57.4614 23.7712 56.3258 24.0348 55.2445 24.4546C54.2261 24.8821 53.3996 25.5243 53.0158 26.3736C52.8156 26.8195 52.7101 27.3021 52.7061 27.791C52.6981 27.9207 52.6981 28.0507 52.7061 28.1805C52.7102 28.314 52.7216 28.4472 52.7403 28.5795C52.7536 28.7201 52.7745 28.8379 52.7954 28.9595C52.8163 29.0811 52.8524 29.1913 52.8904 29.3072C53.1944 30.2382 53.8974 31.1236 54.7695 31.9102L55.4364 32.5106C55.6568 32.712 55.9038 32.8906 56.1375 33.0806C56.5992 33.4606 57.1084 33.8026 57.5986 34.156C58.6132 34.8305 59.6544 35.4746 60.745 36.056C62.9091 37.2549 65.1872 38.336 67.4425 39.5064C69.6978 40.6768 71.9569 41.9897 74.0032 43.6275C76.0619 45.239 77.9059 47.1073 79.4904 49.1869C81.1016 51.3123 82.2727 53.7378 82.9351 56.3214C83.0984 56.9673 83.2253 57.622 83.3151 58.2822C83.3702 58.609 83.3987 58.932 83.4253 59.2626L83.5108 60.2487C83.5545 60.9061 83.5355 61.5692 83.5488 62.2285C83.5051 62.8859 83.4785 63.5471 83.4044 64.2026C83.0928 66.823 82.3635 69.3767 81.2441 71.7665C79.0382 76.5488 75.3028 80.5179 70.948 83.3394C68.7846 84.7186 66.5298 85.9488 64.1992 87.0216L60.7659 88.6119C59.6259 89.1458 58.4669 89.6816 57.2794 90.1756C56.0846 90.6828 54.8608 91.1186 53.6143 91.4809C52.323 91.8625 50.9889 92.0808 49.6433 92.1307C48.2565 92.1834 46.8725 91.9673 45.5678 91.4942C44.9224 91.2461 44.3011 90.9396 43.7115 90.5784C42.5382 89.8649 41.4963 88.9548 40.6316 87.888C40.4169 87.622 40.2098 87.3484 40.0198 87.0653L39.4897 86.2749L37.3845 83.1361L33.1741 76.8661L24.7533 64.3014L16.3325 51.7462L14.2273 48.6074C13.5224 47.551 12.8384 46.5345 12.0955 45.5237C11.3526 44.5129 10.6059 43.4964 9.87063 42.4552L9.32533 41.6686L8.79333 40.8516L7.77873 39.2613C6.42846 37.1181 5.11683 34.9546 3.84383 32.7709C3.21113 31.6727 2.58033 30.5745 1.98373 29.4459C1.68543 28.8759 1.38903 28.3173 1.11353 27.7245C0.971028 27.4376 0.839928 27.1298 0.712628 26.8182L0.623328 26.5845L0.537828 26.3223C0.478421 26.152 0.427688 25.9789 0.385828 25.8036C-0.203172 23.2234 -0.161372 20.4418 0.815228 17.9015C1.31122 16.6383 2.038 15.4786 2.95843 14.4815C3.86178 13.5111 4.88305 12.6577 5.99843 11.9412C7.0805 11.2391 8.20491 10.6046 9.36523 10.0412C10.4938 9.46609 11.6338 8.91002 12.7852 8.37295C15.0804 7.29565 17.4098 6.28295 19.7734 5.36525C24.5046 3.50653 29.3848 2.05226 34.3616 1.01805C34.9848 0.890753 35.6061 0.763454 36.235 0.660854C36.8639 0.558253 37.4871 0.434753 38.1179 0.351153C38.7487 0.267553 39.3605 0.161153 40.0179 0.0908531C40.6692 0.022411 41.3239 -0.00740774 41.9787 0.00155322C43.2916 0.0357532 44.6577 0.191553 45.9459 0.852753C46.6198 1.19302 47.1851 1.71489 47.578 2.35945C47.7732 2.68908 47.915 3.04756 47.9979 3.42155C48.0856 3.78396 48.1233 4.15664 48.11 4.52925C48.0889 5.27963 47.8639 6.01011 47.4592 6.64237C47.0546 7.27464 46.4855 7.78486 45.8129 8.11835C45.4329 8.28935 45.1688 8.37105 44.8629 8.48505L43.9756 8.81185L42.2029 9.46355L35.114 12.0723L6.74513 22.5128C6.62704 22.5515 6.49856 22.5429 6.38662 22.489C6.27469 22.435 6.188 22.3398 6.14474 22.2233C6.10149 22.1068 6.10503 21.9781 6.15462 21.8641C6.20421 21.7502 6.296 21.6599 6.41073 21.6122H6.40883Z" fill="#474136"/>
<path d="M53.8841 172.712L55.3433 168.494C55.8183 167.082 56.2629 165.661 56.6961 164.238C57.1293 162.814 57.5511 161.388 57.9463 159.953C58.3415 158.519 58.6854 157.073 59.0559 155.634C60.4878 149.876 61.5326 144.029 62.1833 138.132C62.4835 135.187 62.7723 132.242 62.9034 129.281C63.0345 126.321 63.0573 123.363 62.9395 120.405C62.8154 117.446 62.5415 114.496 62.1187 111.566C61.9021 110.103 61.6323 108.647 61.3169 107.196C61.0159 105.757 60.6295 104.338 60.1598 102.945V102.921C60.1234 102.803 60.1331 102.677 60.1869 102.566C60.2407 102.456 60.3346 102.37 60.4494 102.326C60.5642 102.283 60.6913 102.285 60.8049 102.332C60.9184 102.378 61.0098 102.467 61.0604 102.579C61.6271 103.991 62.108 105.435 62.5006 106.905C62.9072 108.362 63.234 109.837 63.5247 111.319C64.088 114.285 64.4813 117.281 64.7027 120.292C65.1571 126.316 65.0261 132.37 64.3113 138.369L64.0187 140.613C63.9237 141.362 63.7793 142.101 63.6615 142.845C63.4316 144.335 63.1295 145.811 62.8426 147.29C62.7077 148.031 62.5291 148.762 62.3676 149.497L61.8717 151.699L61.3169 153.886C61.1269 154.616 60.9559 155.347 60.7355 156.066C60.3099 157.508 59.9147 158.959 59.4568 160.39C58.9989 161.821 58.5334 163.24 58.0413 164.667C57.5492 166.094 57.0229 167.492 56.4795 168.891L54.7923 173.071C54.7467 173.189 54.6564 173.284 54.541 173.336C54.4255 173.388 54.2943 173.392 54.1757 173.348C54.0571 173.304 53.9608 173.214 53.9076 173.099C53.8545 172.985 53.8487 172.853 53.8917 172.734L53.8841 172.712Z" fill="#474136"/>
<path d="M6.3918 50.5548C5.7648 48.784 5.8085 46.9144 6.2303 45.1626C6.6521 43.4108 7.4767 41.7331 8.7858 40.4126C8.94513 40.2428 9.11589 40.0841 9.2969 39.9376L9.5648 39.7096L9.8555 39.5082C10.0423 39.3692 10.2377 39.2423 10.4407 39.1282C10.6307 39.0199 10.8207 38.9021 11.0297 38.8014C11.8334 38.3838 12.6793 38.0526 13.5529 37.8134C15.3204 37.3282 17.1784 37.2728 18.9717 37.6519C20.7366 38.0398 22.4218 38.7281 23.9535 39.6868C25.4589 40.6283 26.8601 41.7269 28.1335 42.9643C29.3959 44.1879 30.5669 45.5025 31.6371 46.8973C32.7106 48.2653 33.7423 49.6675 34.7132 51.1115C36.6884 53.9976 38.4105 57.049 39.8603 60.2315C40.5845 61.8333 41.2132 63.4765 41.7432 65.1525C42.2688 66.8464 42.6645 68.5779 42.9269 70.3319C43.179 72.1075 43.2427 73.9048 43.1169 75.6937C42.9459 77.5065 42.5093 79.2843 41.8211 80.97C41.1751 82.6306 40.3999 84.2 39.7007 85.7352C39.0015 87.2704 38.3707 88.8075 38.0154 90.3674C37.8381 91.1376 37.7401 91.9238 37.7228 92.7139C37.6993 93.4974 37.7662 94.2809 37.9223 95.049C37.9812 95.429 38.1009 95.809 38.194 96.1985C38.3232 96.5785 38.4296 96.9585 38.5854 97.3385C38.8726 98.0911 39.2202 98.8193 39.6247 99.5159C41.2378 102.32 43.6774 104.646 46.4514 106.453C46.7934 106.687 47.1563 106.892 47.5154 107.101L48.5927 107.73L49.7118 108.288C50.0918 108.478 50.4547 108.668 50.8518 108.82C51.6213 109.145 52.3851 109.489 53.1831 109.751C53.5783 109.89 53.9697 110.038 54.3687 110.169L55.5752 110.526C56.3751 110.785 57.2016 110.946 58.0148 111.15C58.4214 111.258 58.8394 111.313 59.2498 111.397C59.6602 111.48 60.0763 111.554 60.4905 111.623C62.1521 111.877 63.8281 112.025 65.5084 112.067C67.1857 112.112 68.864 112.035 70.5301 111.837L71.767 111.638L72.3864 111.537L72.9944 111.395C73.3991 111.298 73.8057 111.205 74.2104 111.106L75.396 110.726C75.7911 110.603 76.1782 110.456 76.555 110.285C76.935 110.118 77.315 109.987 77.695 109.789C78.4439 109.423 79.1726 109.017 79.8781 108.573C80.5849 108.131 81.2613 107.642 81.9206 107.133C82.5722 106.613 83.1962 106.059 83.7902 105.474C86.1557 103.134 87.9702 100.215 88.8157 97.0022C89.0294 96.2014 89.1756 95.3841 89.2527 94.5588C89.3379 93.7331 89.3512 92.9016 89.2926 92.0736C89.1755 90.4064 88.8046 88.7668 88.1925 87.2115C88.1456 87.0923 88.148 86.9594 88.1992 86.842C88.2503 86.7246 88.346 86.6323 88.4652 86.5855C88.5843 86.5386 88.7172 86.541 88.8347 86.5921C88.9521 86.6433 89.0443 86.7389 89.0912 86.8581C89.7769 88.493 90.2094 90.2229 90.3737 91.9881C90.457 92.8725 90.464 93.7625 90.3946 94.6481C90.3312 95.5358 90.194 96.4166 89.9842 97.2815C89.1672 100.764 87.2444 103.911 84.7782 106.445C84.157 107.078 83.5031 107.678 82.8193 108.243C82.1306 108.805 81.414 109.332 80.6723 109.822C79.9296 110.306 79.1615 110.749 78.3714 111.152C77.9914 111.366 77.5601 111.532 77.1554 111.708C76.7515 111.898 76.3366 112.064 75.9128 112.204L74.6474 112.632C74.2199 112.749 73.7886 112.852 73.3592 112.962L72.7132 113.126L72.0634 113.242L70.7562 113.475C69.0079 113.715 67.2445 113.828 65.4799 113.812C63.7206 113.796 61.964 113.669 60.2207 113.432C59.7856 113.367 59.3543 113.289 58.9192 113.217C58.4841 113.145 58.049 113.086 57.6215 112.979C56.7646 112.778 55.8982 112.618 55.0565 112.358L53.7854 111.999C53.3655 111.866 52.9513 111.716 52.5333 111.575C51.6916 111.309 50.8803 110.958 50.0633 110.625C49.651 110.468 49.2539 110.27 48.8549 110.076L47.6579 109.506L46.4989 108.851C46.1189 108.632 45.7237 108.417 45.3589 108.17C43.8431 107.214 42.4291 106.105 41.139 104.861C39.8362 103.594 38.7101 102.158 37.7912 100.591C37.3287 99.8012 36.9303 98.9752 36.5999 98.1213C36.4213 97.6995 36.294 97.2568 36.1458 96.8217C36.0318 96.3714 35.8912 95.9268 35.8171 95.4651C35.4676 93.6243 35.511 91.7305 35.9444 89.9076C36.3605 88.1102 37.0578 86.4439 37.7912 84.865C38.5246 83.2861 39.2998 81.768 39.9135 80.2271C40.5463 78.7308 40.9554 77.1496 41.1276 75.5341C41.2568 73.8874 41.2123 72.2316 40.9946 70.5941C40.7637 68.9426 40.408 67.3108 39.9306 65.713C39.4399 64.1034 38.8543 62.5243 38.1769 60.9839C36.797 57.8869 35.1618 54.9101 33.2882 52.0843C32.361 50.6593 31.3749 49.2742 30.3451 47.9195C29.3421 46.5609 28.2402 45.2781 27.0486 44.0815C25.8717 42.9019 24.5731 41.8504 23.1745 40.9446C21.7948 40.0537 20.2723 39.4065 18.6734 39.0313C17.0921 38.6653 15.4465 38.6802 13.8721 39.075C13.0814 39.2732 12.3139 39.5547 11.5826 39.9148C10.8583 40.2477 10.1933 40.697 9.6142 41.2448C8.4742 42.3487 7.6971 43.8592 7.262 45.4248C6.8269 46.9904 6.787 48.708 7.281 50.2052L7.2924 50.2394C7.32646 50.3579 7.31369 50.4849 7.25674 50.5943C7.19979 50.7036 7.10301 50.7869 6.9864 50.8269C6.8698 50.8669 6.74228 50.8606 6.6302 50.8092C6.51813 50.7579 6.43006 50.6654 6.3842 50.551L6.3918 50.5548Z" fill="#474136"/>
<path d="M69.7644 73.4385C69.7644 73.7368 69.7986 74.0408 69.7834 74.3467L69.7264 74.8141L69.696 75.0496L69.6295 75.2834C69.4683 75.9497 69.1171 76.555 68.6187 77.0257C68.1138 77.4957 67.5011 77.8343 66.8346 78.0117C66.517 78.1 66.192 78.1591 65.8637 78.1885C65.7003 78.2075 65.5369 78.2113 65.3735 78.217C65.1959 78.22 65.0183 78.213 64.8415 78.196L64.9859 78.2074C64.3065 78.2292 63.631 78.0965 63.0103 77.8194C62.3896 77.5423 61.8399 77.128 61.4025 76.6077C60.9665 76.0763 60.6659 75.4472 60.5266 74.7742C60.4609 74.4414 60.4316 74.1025 60.4392 73.7634C60.4392 73.5981 60.4658 73.4422 60.481 73.2807C60.4954 73.1185 60.5233 72.9577 60.5646 72.8C60.7015 72.1299 61.0098 71.5067 61.4595 70.9913C61.9051 70.4963 62.4704 70.1241 63.1011 69.9102C64.2291 69.5666 65.4315 69.5501 66.5686 69.8627C66.6799 69.8947 66.7761 69.9656 66.8397 70.0625C66.9033 70.1594 66.93 70.2758 66.9151 70.3907C66.9001 70.5056 66.8445 70.6114 66.7583 70.6888C66.672 70.7662 66.5609 70.8101 66.4451 70.8127H66.428C65.4419 70.7956 64.4501 70.9266 63.6939 71.3275C63.3413 71.5012 63.0395 71.763 62.818 72.0875C62.6188 72.4034 62.5013 72.7638 62.476 73.1364C62.4602 73.3368 62.4602 73.5382 62.476 73.7387C62.4917 73.9243 62.5274 74.1078 62.5824 74.2859C62.6889 74.6361 62.8575 74.9643 63.0802 75.2549C63.3077 75.5523 63.5961 75.7978 63.926 75.9751C64.2559 76.1523 64.6198 76.2572 64.9935 76.2828H65.1113H65.1379C65.2358 76.3019 65.3348 76.3159 65.4343 76.3246C65.5483 76.3246 65.6604 76.3417 65.7763 76.3398C66.002 76.3426 66.2276 76.3267 66.4508 76.2923C66.8729 76.2375 67.276 76.0831 67.6269 75.842L67.7561 75.7564L67.8663 75.6482C67.9431 75.5839 68.0126 75.5112 68.0734 75.4316C68.1342 75.3442 68.1988 75.2568 68.2634 75.1694L68.4173 74.8653L68.4971 74.7096L68.5503 74.5367L68.6605 74.1889L68.7973 73.4403L68.8106 73.3682C68.8314 73.2514 68.8949 73.1465 68.9887 73.0738C69.0825 73.0011 69.1999 72.9659 69.3182 72.9749C69.4365 72.9839 69.5472 73.0365 69.629 73.1225C69.7107 73.2085 69.7576 73.3217 69.7606 73.4403L69.7644 73.4385Z" fill="#474136"/>
</svg>
