<svg width="300" height="300" viewBox="0 0 300 300" fill="none" xmlns="http://www.w3.org/2000/svg">
<path d="M153.156 276.138C138.372 279.279 123.111 280.083 108.081 278.484C92.97 276.876 78.066 272.817 64.374 266.196C51.111 259.785 39 250.974 29.193 239.952C19.386 228.93 12.276 216.627 7.54203 203.103C2.80803 189.579 0.756025 175.398 1.89603 161.244C3.04803 146.934 7.54503 132.693 15.735 120.828C24.405 108.267 37.242 99.3659 52.524 97.2959C68.598 95.1209 85.077 99.8339 98.946 107.844C113.325 116.145 125.436 127.707 137.022 139.464C148.467 151.077 159.612 163.092 172.557 173.082C185.868 183.351 201 190.797 217.671 193.578C225.816 194.937 234.522 195.585 242.685 194.031C249.828 192.669 256.11 188.988 261.126 183.771C271.668 172.806 276.684 157.059 279.081 142.368C281.826 125.553 280.968 108.33 278.229 91.5749C275.748 76.3919 271.941 61.0709 264.543 47.4719C257.538 34.5959 247.122 24.2489 233.994 17.6759C221.142 11.2379 206.784 8.37888 192.543 7.26588C176.7 6.02388 160.59 6.71688 144.81 8.43288C127.851 10.2779 110.943 13.8449 95.226 20.6159C81.669 26.4569 69.006 34.7309 58.83 45.4829C54.003 50.5829 49.779 56.2349 46.32 62.3489C46.035 62.8529 46.812 63.3089 47.097 62.8019C54.501 49.7129 65.43 38.9639 77.997 30.8129C91.665 21.9509 107.097 16.2689 122.964 12.8189C139.725 9.17388 157.02 7.79088 174.15 7.59888C188.871 7.43388 203.796 8.47788 218.016 12.5069C232.047 16.4819 245.148 23.6429 254.763 34.7759C264.894 46.5089 270.606 61.3649 274.236 76.2569C278.232 92.6579 280.419 109.749 279.75 126.642C279.105 142.896 275.772 160.029 267.297 174.126C263.604 180.267 258.738 185.889 252.471 189.498C244.947 193.833 236.148 194.298 227.67 193.803C210.396 192.795 193.953 186.801 179.67 177.129C166.011 167.88 154.425 155.997 142.959 144.24C131.493 132.483 120.081 120.804 106.563 111.579C93.588 102.723 78.57 96.5099 62.718 95.9279C55.11 95.6489 47.415 96.7289 40.311 99.5159C33.798 102.069 27.918 106.014 22.917 110.892C12.81 120.753 6.32103 134.007 3.12003 147.654C-0.0809748 161.301 -0.0119746 175.206 2.68203 188.742C5.37603 202.278 10.881 215.697 18.525 227.439C26.223 239.262 36.147 249.465 47.724 257.523C59.862 265.971 73.593 272.04 87.894 275.739C102.309 279.468 117.336 280.833 132.192 279.912C139.323 279.471 146.415 278.493 153.402 277.008C153.969 276.888 153.729 276.021 153.162 276.141L153.156 276.138Z" fill="#C9DFF4"/>
<path d="M172.497 261.036C180.645 265.371 189.846 266.952 198.96 267.636C208.182 268.326 217.518 268.416 226.728 267.486C236.028 266.547 245.205 264.51 253.8 260.781C260.868 257.715 267.426 253.359 272.919 247.947C278.388 242.562 282.786 236.055 285.339 228.795C286.725 224.85 287.832 220.437 287.286 216.24C286.995 213.993 286.206 211.917 284.754 210.165C283.515 208.668 281.739 207.471 279.828 207.048C277.71 206.577 275.565 207.069 273.759 208.242C271.953 209.415 270.12 211.086 269.34 213.105C267.783 217.125 272.538 220.35 276.132 219.048C280.05 217.629 281.727 213.138 282.441 209.373C283.173 205.506 282.966 201.528 281.988 197.721C279.99 189.948 275.004 183.249 268.557 178.575C261.618 173.547 253.239 170.817 244.869 169.356C242.787 168.993 240.687 168.705 238.587 168.471C237.861 168.39 237.237 169.149 237.237 169.821C237.237 170.619 237.858 171.09 238.587 171.171C246.405 172.044 254.31 173.784 261.366 177.363C268.092 180.774 273.78 185.832 277.197 192.615C280.26 198.696 281.46 206.379 278.64 212.739C277.971 214.245 276.99 215.787 275.475 216.423C275.358 216.471 275.175 216.525 275.028 216.561C274.962 216.576 274.572 216.63 274.779 216.612C274.596 216.627 274.413 216.633 274.227 216.624C274.134 216.621 274.041 216.615 273.951 216.606C274.167 216.63 273.873 216.591 273.831 216.582C273.651 216.54 273.474 216.495 273.297 216.441C273.045 216.363 273.222 216.435 272.988 216.315C272.847 216.243 272.712 216.165 272.58 216.081C272.364 215.946 272.478 216.018 272.529 216.06C272.427 215.982 272.328 215.889 272.235 215.799C272.097 215.664 271.944 215.469 271.86 215.292C271.926 215.43 271.824 215.19 271.815 215.157C271.791 215.073 271.77 214.992 271.749 214.908C271.698 214.698 271.749 215.097 271.746 214.878C271.743 214.752 271.734 214.623 271.746 214.497C271.836 213.741 272.409 213.033 272.925 212.481C274.143 211.176 275.616 209.955 277.416 209.616C278.127 209.481 278.916 209.571 279.654 209.802C280.332 210.012 281.049 210.408 281.613 210.852C283.026 211.974 283.926 213.495 284.373 215.247C285.342 219.03 284.31 223.191 283.161 226.824C281.046 233.502 277.185 239.583 272.367 244.668C267.414 249.891 261.501 254.106 255.033 257.262C247.422 260.976 239.088 263.139 230.724 264.315C222.075 265.533 213.285 265.641 204.573 265.266C196.08 264.897 187.47 264.105 179.424 261.186C177.513 260.493 175.659 259.668 173.865 258.711C173.223 258.369 172.395 258.549 172.017 259.194C171.66 259.806 171.855 260.697 172.5 261.042L172.497 261.036Z" fill="#24317F"/>
<path d="M146.898 166.752C144.747 166.962 142.578 166.968 140.427 166.776C140.16 166.752 139.89 166.725 139.623 166.695C139.5 166.68 139.377 166.668 139.251 166.653C139.17 166.644 138.801 166.593 139.056 166.629C138.522 166.554 137.991 166.47 137.46 166.374C136.398 166.179 135.348 165.939 134.307 165.654C133.266 165.369 132.237 165.039 131.223 164.67C130.716 164.484 130.212 164.286 129.711 164.082C129.477 163.986 129.807 164.124 129.573 164.025C129.438 163.968 129.306 163.911 129.171 163.851C128.925 163.743 128.676 163.629 128.433 163.515C126.471 162.6 124.581 161.529 122.79 160.311C122.343 160.008 121.899 159.693 121.464 159.372C121.365 159.297 121.263 159.222 121.164 159.147C121.098 159.096 121.032 159.045 120.966 158.997C120.957 158.991 120.795 158.865 120.906 158.949C120.984 159.009 120.744 158.823 120.699 158.784C120.585 158.694 120.471 158.604 120.357 158.511C119.517 157.83 118.704 157.116 117.921 156.369C117.138 155.622 116.388 154.845 115.671 154.038C115.314 153.633 114.963 153.222 114.624 152.805C114.453 152.595 114.285 152.385 114.12 152.172C114.024 152.052 114.126 152.178 114.141 152.199C114.102 152.151 114.066 152.1 114.027 152.049C113.94 151.932 113.853 151.818 113.766 151.701C112.485 149.967 111.354 148.122 110.403 146.187C110.166 145.701 109.938 145.212 109.722 144.717C109.689 144.642 109.656 144.564 109.623 144.489C109.632 144.51 109.698 144.669 109.638 144.525C109.59 144.411 109.542 144.294 109.497 144.177C109.395 143.925 109.299 143.673 109.203 143.421C108.723 142.143 108.318 140.835 107.973 139.512C106.56 134.082 106.17 128.52 106.119 122.88C106.071 117.438 106.488 112.218 108.114 107.031C108.861 104.643 109.788 102.528 111.081 100.356C111.666 99.3721 112.302 98.4211 112.983 97.5031C113.061 97.3981 113.142 97.2931 113.22 97.1881C113.313 97.0651 113.226 97.1761 113.211 97.2001C113.25 97.1491 113.292 97.0951 113.334 97.0441C113.523 96.8011 113.718 96.5641 113.913 96.3271C114.279 95.8861 114.654 95.4541 115.041 95.0341C115.815 94.1881 116.628 93.3781 117.477 92.6071C117.903 92.2201 118.335 91.8421 118.779 91.4761C118.983 91.3051 119.19 91.1401 119.397 90.9721C119.517 90.8761 119.64 90.7801 119.763 90.6841C119.613 90.8011 119.916 90.5671 119.964 90.5311C121.806 89.1391 123.768 87.9061 125.814 86.8351C126.837 86.3011 127.881 85.8031 128.946 85.3531C129.09 85.2931 128.958 85.3501 128.931 85.3591C128.991 85.3321 129.054 85.3081 129.114 85.2841C129.237 85.2331 129.36 85.1821 129.483 85.1341C129.771 85.0171 130.059 84.9061 130.35 84.7981C130.944 84.5731 131.541 84.3631 132.144 84.1651C134.769 83.2981 137.466 82.6591 140.196 82.2241C142.749 81.8161 145.557 81.5911 148.269 81.5371C150.981 81.4831 153.834 81.5971 156.603 81.8551C157.914 81.9781 159.273 82.1371 160.461 82.3051C161.157 82.4041 161.946 82.1341 162.123 81.3631C162.267 80.7241 161.928 79.8091 161.181 79.7011C155.478 78.8881 149.706 78.5611 143.958 79.0651C138.348 79.5541 132.834 80.7901 127.644 82.9951C123.21 84.8791 119.079 87.4951 115.518 90.7441C111.996 93.9571 109.032 97.8601 107.076 102.219C104.742 107.418 103.752 113.061 103.491 118.725C103.227 124.464 103.521 130.326 104.472 135.996C105.324 141.066 106.944 145.989 109.629 150.39C111.981 154.242 115.029 157.68 118.542 160.506C122.124 163.389 126.126 165.669 130.443 167.256C134.76 168.843 139.167 169.635 143.658 169.62C144.741 169.617 145.821 169.56 146.898 169.455C147.6 169.386 148.284 168.882 148.248 168.105C148.218 167.433 147.651 166.683 146.898 166.755V166.752Z" fill="#24317F"/>
<path d="M41.163 169.461C49.4423 169.461 56.154 162.749 56.154 154.47C56.154 146.191 49.4423 139.479 41.163 139.479C32.8837 139.479 26.172 146.191 26.172 154.47C26.172 162.749 32.8837 169.461 41.163 169.461Z" fill="#FFC7D2"/>
<path d="M30.1349 164.622C30.1349 164.622 47.3669 202.638 53.5979 208.443C59.8259 214.248 69.0449 211.977 72.2609 210.462C75.4769 208.947 119.391 180.903 119.391 180.903L110.448 102.582C110.448 102.582 103.995 107.463 99.9569 111.615C95.9189 115.764 79.4309 166.053 79.4309 166.053C79.4309 166.053 55.9979 158.58 52.2359 157.392C48.4739 156.204 30.1409 164.625 30.1409 164.625L30.1349 164.622Z" fill="#FFC76C"/>
<path d="M125.622 98.391C125.622 98.391 138.561 134.097 157.455 134.712C176.34 135.339 179.883 98.985 179.883 98.985C179.883 98.985 171.342 91.275 169.158 81.747C168.621 79.386 168.465 76.788 168.531 74.232C168.75 66.483 171.063 59.043 171.063 59.043L143.688 63.279C143.688 63.279 143.817 64.257 144.966 80.817C145.242 84.801 144.612 88.839 143.49 92.685C139.971 104.796 125.619 98.388 125.619 98.388L125.622 98.391Z" fill="#FFD6C7"/>
<path d="M143.49 92.685C145.686 97.08 147.861 101.106 148.797 101.841C151.02 103.581 159.096 96.129 164.577 85.347C166.164 82.215 167.481 78.264 168.534 74.232C168.753 66.483 171.066 59.043 171.066 59.043L143.691 63.279C143.691 63.279 143.82 64.257 144.969 80.817C145.245 84.801 144.615 88.839 143.493 92.685H143.49Z" fill="#F47382"/>
<path d="M183.903 45.6541C181.791 50.5141 179.331 54.2671 179.049 54.6901C179.151 54.5101 179.661 53.5561 179.856 52.1371C180.153 50.0731 179.79 47.0341 176.556 43.9831C173.766 41.3491 168.846 38.7001 160.368 36.6451C134.529 30.3991 116.478 48.5461 116.478 48.5461C116.478 48.5461 108.843 45.0481 105.243 34.6141C101.634 24.1891 103.239 17.1241 106.29 16.7731C109.35 16.4221 112.326 18.1441 112.326 18.1441C112.326 18.1441 108.966 8.60109 113.139 5.94609C117.309 3.29109 123.33 7.41909 123.33 7.41909C123.33 7.41909 143.418 -3.14091 159.663 4.98009C175.914 13.0921 176.691 19.8661 176.691 19.8661C176.691 19.8661 181.143 18.0001 185.871 27.7861C188.337 32.8951 186.363 40.0171 183.909 45.6571L183.903 45.6541Z" fill="#1C1C7A"/>
<path d="M181.92 40.872C181.902 42.303 181.809 43.662 181.647 44.955C181.314 47.628 180.684 50.013 179.856 52.137C175.17 64.233 164.118 67.968 164.118 67.968L152.334 64.365L119.664 54.381C119.664 54.381 118.08 52.149 116.475 48.546C114.162 43.365 111.807 35.337 114.069 27.036C117.909 12.966 133.218 5.39401 150.477 7.12201C167.742 8.85601 182.151 19.707 181.923 40.872H181.92Z" fill="#1C1C7A"/>
<path d="M179.049 54.69C179.151 54.51 179.661 53.556 179.856 52.137C175.17 64.233 164.118 67.968 164.118 67.968L152.334 64.365C152.334 64.365 152.352 64.335 152.355 64.323C159.546 49.041 164.712 43.872 164.712 43.872C164.712 43.872 170.262 43.203 176.553 43.983C178.227 44.19 179.955 44.496 181.647 44.955C182.412 45.156 183.165 45.387 183.903 45.654C181.791 50.514 179.331 54.267 179.049 54.69Z" fill="#6565A5"/>
<path d="M124.086 85.95C129.654 95.106 134.253 95.7421 139.113 95.4781C143.967 95.2171 147.462 93.879 149.157 93.468H149.163C154.638 90.981 160.257 87.6031 162.66 84.639C166.296 80.1721 169.56 69.615 169.875 68.556C169.893 68.499 169.899 68.475 169.899 68.475C169.899 68.475 181.365 70.506 183.204 64.485C185.028 58.458 181.989 55.041 178.608 53.718C175.206 52.41 169.644 53.091 169.029 54.237C168.423 55.362 168.153 61.011 167.304 61.329C166.47 61.656 165.411 61.773 164.973 61.173C164.793 60.936 164.73 58.26 164.697 54.999C164.781 53.445 164.736 51.618 164.679 50.013C164.679 47.481 164.694 45.156 164.709 43.869C164.709 43.869 159.765 45.69 150.915 43.737C142.065 41.784 135.96 38.748 135.96 38.748C135.96 38.748 122.304 42.423 116.538 39.924C116.538 39.924 116.208 50.724 116.826 53.994C117.45 57.273 118.362 59.478 118.002 62.346C117.888 63.237 117.804 64.419 117.813 65.859C117.813 65.859 117.813 65.868 117.816 65.892C117.858 66.54 118.686 77.0821 124.086 85.953V85.95Z" fill="#FFD6C7"/>
<path d="M175.242 66.5761C173.397 66.7891 172.746 66.0061 172.521 65.5141C172.185 64.7791 172.431 63.8971 173.148 63.2701L173.352 63.0931C174.486 62.1211 174.417 61.9321 174.15 61.5961C173.952 61.3471 173.823 61.3051 173.808 61.3051C173.721 61.3141 173.514 61.4971 173.403 61.7281C173.145 62.2771 173.046 62.6911 173.046 62.6941C172.929 63.1921 172.431 63.5071 171.936 63.3901C171.438 63.2761 171.123 62.7841 171.237 62.2831C171.252 62.2231 171.381 61.6681 171.729 60.9331C172.02 60.3181 172.683 59.5651 173.598 59.4571C174.111 59.3971 174.876 59.5201 175.605 60.4351C177.108 62.3191 175.326 63.8461 174.564 64.5001L174.375 64.6621C174.351 64.6831 174.333 64.7011 174.315 64.7191C174.456 64.7491 174.714 64.7731 175.128 64.7161C175.929 64.6051 177.846 62.9611 178.464 60.9031C178.905 59.4331 178.557 58.1851 177.429 57.1981C176.628 56.4961 175.86 56.2171 175.074 56.3581C173.22 56.6791 171.795 59.1541 171.78 59.1781C171.531 59.6251 170.964 59.7871 170.517 59.5381C170.07 59.2891 169.908 58.7221 170.157 58.2751C170.232 58.1431 172.008 55.0051 174.753 54.5281C176.115 54.2941 177.417 54.7231 178.65 55.8001C180.324 57.2671 180.891 59.2681 180.24 61.4371C179.442 64.0951 177.015 66.3331 175.377 66.5551C175.332 66.5611 175.287 66.5671 175.245 66.5731L175.242 66.5761Z" fill="#F47382"/>
<path d="M145.44 60.5491C146.608 60.3103 147.262 58.677 146.899 56.9011C146.536 55.1252 145.294 53.8792 144.125 54.1181C142.957 54.3569 142.303 55.9902 142.666 57.7661C143.029 59.542 144.271 60.788 145.44 60.5491Z" fill="#1C1C7A"/>
<path d="M126.777 62.6915C127.847 62.4727 128.452 61.0163 128.13 59.4385C127.807 57.8607 126.678 56.759 125.608 56.9778C124.539 57.1966 123.933 58.6531 124.256 60.2309C124.578 61.8087 125.707 62.9103 126.777 62.6915Z" fill="#1C1C7A"/>
<path d="M143.904 57.6256C144.399 57.5246 144.671 56.811 144.512 56.0317C144.353 55.2525 143.823 54.7027 143.328 54.8037C142.833 54.9047 142.56 55.6183 142.719 56.3975C142.878 57.1768 143.409 57.7266 143.904 57.6256Z" fill="white"/>
<path d="M125.254 60.5382C125.749 60.4372 126.022 59.7236 125.863 58.9443C125.704 58.1651 125.174 57.6153 124.679 57.7163C124.183 57.8173 123.911 58.5309 124.07 59.3101C124.229 60.0894 124.759 60.6392 125.254 60.5382Z" fill="white"/>
<path d="M135.438 74.208C134.148 74.355 131.565 74.424 130.251 72.879C128.451 70.758 130.035 69.033 131.565 67.362L131.994 66.894C133.11 65.661 132.393 63.162 132.021 62.304C131.82 61.833 132.033 61.287 132.504 61.083C132.975 60.879 133.521 61.095 133.725 61.563C133.8 61.734 135.519 65.766 133.371 68.139L132.933 68.616C131.169 70.536 131.016 70.908 131.667 71.676C132.504 72.663 135.003 72.432 135.81 72.276C136.296 72.174 136.8 72.504 136.899 73.008C136.998 73.512 136.674 73.998 136.17 74.097C136.074 74.115 135.81 74.166 135.438 74.208Z" fill="#F47382"/>
<path d="M147.414 51.3511C147.198 51.3751 146.973 51.3241 146.781 51.1921C144.843 49.8571 141.975 50.7871 141.948 50.7961C141.468 50.9581 140.937 50.6971 140.775 50.2111C140.613 49.7251 140.871 49.2001 141.357 49.0381C141.51 48.9871 145.125 47.7961 147.837 49.6651C148.257 49.9561 148.365 50.5351 148.074 50.9551C147.915 51.1861 147.672 51.3211 147.414 51.3511Z" fill="#1C1C7A"/>
<path d="M122.013 54.906C121.875 54.921 121.731 54.906 121.593 54.855C121.116 54.681 120.864 54.159 121.035 53.679C121.482 52.413 123.282 50.178 126.903 50.784C127.407 50.868 127.749 51.348 127.665 51.852C127.581 52.356 127.101 52.698 126.597 52.614C123.699 52.128 122.868 54.081 122.784 54.306C122.655 54.645 122.352 54.867 122.016 54.906H122.013Z" fill="#1C1C7A"/>
<path d="M146.49 82.5362C142.41 81.8642 138.255 82.0772 134.268 83.1722C133.77 83.3072 133.242 82.9052 133.146 82.4252C133.038 81.8912 133.392 81.4382 133.893 81.3032C138.024 80.1692 142.401 79.9382 146.625 80.6342C147.132 80.7182 147.549 81.1052 147.51 81.6512C147.477 82.1282 147.003 82.6202 146.493 82.5362H146.49Z" fill="#F47382"/>
<path d="M94.437 283.428C94.437 284.988 95.289 286.425 96.66 287.166C105.984 292.2 122.775 298.092 150.312 298.092C188.61 298.092 210 290.553 217.122 287.481C218.721 286.791 219.732 285.204 219.69 283.464C219.534 277.353 219.225 269.55 218.607 260.688C217.395 243.252 212.067 217.317 210.075 208.065C209.64 206.031 207.957 204.573 205.983 204.522C188.241 204.063 105.606 203.355 99.726 229.641C95.079 250.443 94.419 272.349 94.434 283.431L94.437 283.428Z" fill="#24317F"/>
<path d="M137.685 272.835C144.249 277.983 151.476 282.249 159.051 285.732C161.289 286.761 163.56 287.724 165.852 288.621C166.392 288.831 166.626 287.964 166.092 287.754C158.244 284.679 150.678 280.833 143.691 276.105C141.858 274.863 140.064 273.564 138.321 272.196C137.871 271.842 137.229 272.475 137.685 272.832V272.835Z" fill="#3753B7"/>
<path d="M148.275 279.933C148.977 284.34 149.562 288.768 150.51 293.133C150.807 294.495 151.134 295.848 151.485 297.195C151.632 297.756 152.499 297.519 152.352 296.955C151.221 292.614 150.453 288.219 149.775 283.788C149.568 282.423 149.358 281.058 149.142 279.696C149.052 279.126 148.185 279.369 148.275 279.936V279.933Z" fill="#3753B7"/>
<path d="M139.989 290.187C142.542 292.536 145.095 294.885 147.648 297.234C148.074 297.627 148.713 296.991 148.284 296.598C145.731 294.249 143.178 291.9 140.625 289.551C140.199 289.158 139.56 289.794 139.989 290.187Z" fill="#3753B7"/>
<path d="M94.41 244.512C95.832 248.052 102.717 254.343 117.39 252.549C132.06 250.752 127.86 257.208 145.527 262.899C163.194 268.587 174.282 260.667 186.261 256.008C198.237 251.349 219.384 263.568 220.188 249.975C220.995 236.388 210.915 209.175 211.035 192.993V192.942L213.288 109.716C213.288 109.716 209.298 107.502 200.622 102.75C191.946 97.995 172.989 91.086 172.989 91.086C172.689 91.599 160.665 109.68 143.583 109.644C137.376 109.629 136.959 108.207 136.146 105.699C134.721 101.322 142.17 96.405 142.395 96.051V96.042C142.389 96.042 142.377 96.051 142.359 96.06C142.35 96.066 142.338 96.072 142.326 96.078C142.296 96.093 142.263 96.114 142.221 96.135C142.188 96.153 142.152 96.174 142.107 96.192C142.107 96.192 110.298 100.725 108.264 103.866C106.983 105.849 104.337 111.195 103.503 119.226C102.378 122.868 101.454 127.974 100.713 133.605C99.063 146.073 98.31 161.127 98.31 168.591V168.945C98.31 172.14 98.28 175.383 98.238 178.569C98.184 182.265 98.097 185.883 97.977 189.267C97.8 194.43 97.551 199.029 97.224 202.491C96.762 207.471 96.297 219.024 96.024 226.647C96.024 226.647 92.979 240.966 94.401 244.512H94.41Z" fill="#F7B040"/>
<path d="M173.481 99.3481C173.28 100.248 173.082 101.148 172.881 102.048C172.83 102.276 172.95 102.546 173.196 102.603C173.424 102.654 173.694 102.534 173.751 102.288C173.952 101.388 174.15 100.488 174.351 99.588C174.402 99.36 174.282 99.09 174.036 99.033C173.808 98.982 173.538 99.1021 173.481 99.3481Z" fill="#CA7C00"/>
<path d="M170.766 105.129C167.571 109.704 163.146 113.373 158.112 115.77C155.598 116.967 152.925 117.837 150.189 118.347C147.021 118.935 143.67 119.091 140.532 118.248C137.394 117.405 134.712 115.599 133.179 112.821C132.9 112.314 132.123 112.767 132.402 113.274C133.797 115.809 136.194 117.627 138.867 118.653C142.059 119.88 145.587 119.913 148.935 119.454C154.716 118.662 160.221 116.253 164.817 112.671C167.4 110.658 169.665 108.267 171.54 105.582C171.873 105.105 171.093 104.655 170.763 105.129H170.766Z" fill="#CA7C00"/>
<path d="M128.583 103.38C128.757 104.421 129.099 105.426 129.573 106.371C129.681 106.587 129.987 106.65 130.188 106.533C130.41 106.404 130.458 106.134 130.35 105.918C129.918 105.06 129.615 104.118 129.453 103.143C129.414 102.909 129.114 102.759 128.898 102.828C128.646 102.909 128.541 103.131 128.583 103.383V103.38Z" fill="#CA7C00"/>
<path d="M128.799 116.157C129.381 117.342 130.317 118.296 131.331 119.121C132.345 119.946 133.497 120.765 134.634 121.5C137.001 123.033 139.518 124.314 142.137 125.352C142.677 125.565 142.908 124.695 142.377 124.485C139.872 123.492 137.466 122.253 135.201 120.798C134.088 120.081 132.993 119.322 131.967 118.485C131.007 117.702 130.128 116.826 129.576 115.701C129.321 115.182 128.544 115.638 128.799 116.154V116.157Z" fill="#CA7C00"/>
<path d="M169.716 139.488C165.624 145.938 160.971 152.022 155.82 157.662C150.672 163.299 145.035 168.498 138.99 173.16C135.588 175.785 132.057 178.236 128.412 180.513C127.923 180.819 128.373 181.599 128.865 181.29C135.405 177.204 141.585 172.539 147.315 167.376C153.015 162.24 158.271 156.606 162.996 150.561C165.666 147.147 168.168 143.604 170.49 139.941C170.802 139.449 170.022 138.999 169.713 139.488H169.716Z" fill="#CA7C00"/>
<path d="M135.531 168.642C132.435 172.638 128.535 175.962 124.095 178.377C123.585 178.653 124.041 179.43 124.548 179.154C129.048 176.706 133.026 173.328 136.167 169.278C136.317 169.083 136.353 168.831 136.167 168.642C136.014 168.486 135.678 168.45 135.531 168.642Z" fill="#CA7C00"/>
<path d="M140.004 178.515C139.383 181.686 138.6 184.824 137.655 187.914C137.484 188.469 138.354 188.706 138.522 188.154C139.467 185.064 140.253 181.926 140.871 178.755C140.982 178.188 140.115 177.948 140.004 178.515Z" fill="#CA7C00"/>
<path d="M106.878 136.407C114.147 137.997 121.503 139.194 128.901 139.995C130.995 140.22 133.095 140.415 135.198 140.577C135.777 140.622 135.774 139.722 135.198 139.677C127.833 139.107 120.501 138.144 113.241 136.782C111.192 136.398 109.152 135.984 107.118 135.537C106.554 135.414 106.311 136.281 106.878 136.404V136.407Z" fill="#CA7C00"/>
<path d="M108.045 185.328C110.34 186.342 112.632 187.359 114.927 188.373C115.452 188.604 115.911 187.83 115.38 187.596C113.085 186.582 110.793 185.565 108.498 184.551C107.973 184.32 107.514 185.094 108.045 185.328Z" fill="#CA7C00"/>
<path d="M205.518 199.599C201.726 202.182 197.811 204.579 193.788 206.784C189.747 208.998 185.598 211.02 181.362 212.838C177.141 214.65 172.833 216.252 168.459 217.65C164.085 219.048 159.654 220.236 155.172 221.211C150.666 222.189 146.109 222.954 141.528 223.488C140.964 223.554 140.4 223.617 139.833 223.674C139.266 223.731 139.257 224.634 139.833 224.574C144.435 224.094 149.016 223.392 153.549 222.471C158.088 221.547 162.579 220.404 167.007 219.048C171.435 217.692 175.8 216.123 180.078 214.35C184.356 212.577 188.541 210.606 192.627 208.437C196.716 206.262 200.7 203.892 204.558 201.33C205.032 201.015 205.503 200.7 205.971 200.379C206.439 200.058 205.998 199.275 205.518 199.602V199.599Z" fill="#CA7C00"/>
<path d="M163.518 229.578C161.148 230.139 158.724 230.376 156.291 230.292C155.712 230.271 155.712 231.171 156.291 231.192C158.802 231.279 161.313 231.027 163.758 230.448C164.322 230.316 164.082 229.446 163.518 229.581V229.578Z" fill="#CA7C00"/>
<path d="M142.968 230.433C136.737 229.191 130.503 227.946 124.272 226.704C123.705 226.59 123.465 227.457 124.032 227.571C130.263 228.813 136.497 230.058 142.728 231.3C143.295 231.414 143.535 230.547 142.968 230.433Z" fill="#CA7C00"/>
<path d="M72.4139 180.84C82.3349 191.589 82.8959 208.464 94.0949 218.286C97.6319 221.388 101.916 223.347 106.323 224.811C110.73 226.275 115.53 227.574 120.279 227.28C127.968 226.806 135.066 221.367 138.147 214.2C139.596 210.825 140.559 206.562 138.93 203.097C138.171 201.483 136.842 200.118 135.012 199.953C133.041 199.776 131.409 200.856 130.362 202.515C128.331 205.722 128.625 210.15 129.339 213.705C130.131 217.641 131.787 221.391 134.256 224.52C140.193 232.038 149.853 234.618 158.631 236.985C163.575 238.317 168.576 239.436 173.61 240.384C178.389 241.284 183.207 241.932 187.995 242.781C192.471 243.576 196.95 244.602 201.069 246.594C204.75 248.376 207.969 250.95 210.438 254.268C215.703 261.348 217.263 270.498 215.922 279.222C215.562 281.556 215.013 283.857 214.308 286.11C214.068 286.875 214.752 287.703 215.454 287.835C216.297 287.994 216.912 287.415 217.152 286.647C219.828 278.082 220.206 268.557 216.96 260.145C215.511 256.392 213.405 252.942 210.693 250.014C207.816 246.909 204.207 244.596 200.325 243.027C196.188 241.353 191.811 240.414 187.425 239.673C182.799 238.89 178.155 238.233 173.544 237.351C168.72 236.427 163.926 235.347 159.183 234.069C154.833 232.896 150.435 231.666 146.298 229.845C142.557 228.198 139.059 225.945 136.509 222.648C134.241 219.714 132.654 216.192 132.054 212.484C131.763 210.684 131.592 208.746 131.853 206.928C132.036 205.647 132.456 204.096 133.485 203.271C134.49 202.464 135.588 203.019 136.176 204.087C136.875 205.353 136.992 206.949 136.8 208.371C135.846 215.472 130.455 221.58 123.789 223.656C119.685 224.934 115.374 224.271 111.318 223.212C107.073 222.105 102.846 220.665 99.0899 218.334C93.0749 214.599 89.5319 208.308 86.7329 201.906C83.8949 195.411 81.5819 188.559 77.5859 182.682C76.6049 181.236 75.5129 179.877 74.3309 178.599C73.7969 178.02 72.7649 178.188 72.2849 178.752C71.7239 179.409 71.8829 180.261 72.4169 180.843L72.4139 180.84Z" fill="#24317F"/>
<path d="M73.515 164.352L81.594 179.916C83.112 182.841 81.972 186.441 79.047 187.959C76.122 189.477 72.522 188.34 71.004 185.412L62.925 169.848C61.407 166.923 62.544 163.323 65.472 161.805C66.936 161.046 68.568 160.953 70.023 161.403C71.472 161.871 72.756 162.888 73.515 164.349V164.352Z" fill="#921A90"/>
<path d="M32.142 116.4C33.045 116.685 33.8339 117.309 34.3019 118.215L42.4619 133.935L35.9219 137.328L27.762 121.608C26.823 119.796 27.525 117.576 29.337 116.634C30.243 116.163 31.2449 116.106 32.1389 116.397L32.142 116.4Z" fill="#C9DFF4"/>
<path d="M54.3029 107.835L62.4629 123.555L55.9229 126.948L47.7629 111.228C46.8239 109.416 47.5259 107.196 49.3379 106.254C50.2349 105.789 51.2459 105.726 52.1399 106.017C53.0429 106.302 53.8319 106.926 54.2999 107.832L54.3029 107.835Z" fill="#C9DFF4"/>
<path d="M87.324 155.85C89.238 159.534 89.478 163.647 88.317 167.313C87.162 170.988 84.588 174.216 80.901 176.13L68.301 182.67C60.93 186.495 51.846 183.618 48.021 176.247C46.107 172.563 45.867 168.45 47.037 164.778C48.198 161.112 50.763 157.887 54.447 155.976L67.047 149.436C74.427 145.605 83.496 148.479 87.321 155.847L87.324 155.85Z" fill="#B836B6"/>
<path d="M70.956 118.878L85.527 146.952L41.79 169.653L27.219 141.579C26.232 139.677 26.9699 137.343 28.8719 136.356L65.724 117.228C67.626 116.241 69.969 116.976 70.956 118.878Z" fill="#FF6FFD"/>
<path d="M91.6499 146.292C92.7359 148.386 92.8739 150.729 92.2139 152.814C91.5539 154.899 90.0929 156.735 87.9989 157.821L49.2449 177.936C45.0569 180.111 39.8939 178.482 37.7159 174.285C36.6299 172.191 36.4979 169.857 37.1579 167.772C37.8179 165.687 39.2789 163.851 41.3729 162.765L80.1269 142.65C84.3239 140.472 89.4779 142.104 91.6499 146.292Z" fill="#D775D5"/>
<path d="M47.2991 126.793L42.863 129.095L49.1608 141.229L53.5969 138.927L47.2991 126.793Z" fill="white"/>
<path d="M229.005 233.541C229.005 233.541 228 253.854 224.595 257.964C221.19 262.074 218.628 263.103 218.334 263.82C218.037 264.54 217.941 269.985 215.673 271.116C213.405 272.247 213.21 269.163 213.21 268.341C213.21 267.519 214.908 259.626 214.908 259.626L217.347 256.419L212.028 259.092C212.028 259.092 205.428 267.792 204.246 267.501C203.064 267.21 201.39 266.079 200.799 264.435L200.208 262.791C200.208 262.791 197.352 264.537 196.269 261.456C195.186 258.372 196.368 256.317 197.058 255.084C197.748 253.851 203.658 245.526 203.658 245.526C203.658 245.526 197.166 246.45 195.831 244.497C194.496 242.544 195.48 241.824 196.761 241.824C198.042 241.824 205.626 238.329 205.626 238.329L211.086 230.004L229.005 233.532V233.541Z" fill="#FFC7D2"/>
<path d="M206.478 106.797C198.42 106.044 190.758 111.294 188.583 118.839C187.023 124.251 187.146 131.766 192.789 141.177C205.275 162 225.957 184.596 224.853 187.695C223.749 190.794 207.081 228.822 207.381 233.595C207.681 238.368 226.923 245.412 231.339 242.385C235.755 239.358 263.007 189.384 261.21 179.493C259.416 169.602 242.55 146.934 229.998 128.385C220.932 114.99 215.151 107.604 206.481 106.794L206.478 106.797Z" fill="#FFC76C"/>
<path d="M188.814 114.222C185.778 118.257 185.214 123.585 186.285 128.415C186.525 129.498 186.819 130.578 187.299 131.58C187.575 132.159 187.884 132.723 188.199 133.281C189.189 135.045 190.245 136.77 191.313 138.489C192.777 140.847 194.271 143.187 195.777 145.518C197.532 148.236 199.305 150.945 201.09 153.648C202.989 156.525 204.9 159.396 206.817 162.258C208.692 165.057 210.573 167.847 212.463 170.634C214.152 173.124 215.847 175.611 217.551 178.089C218.895 180.045 220.242 181.995 221.604 183.939C222.438 185.13 223.269 186.321 224.136 187.488C224.268 187.665 224.4 187.839 224.535 188.013C224.889 188.469 225.522 187.83 225.171 187.377C225.099 187.284 225.24 187.47 225.159 187.362C225.129 187.323 225.099 187.281 225.069 187.242C225.006 187.158 224.943 187.074 224.88 186.987C224.721 186.771 224.562 186.555 224.403 186.336C223.974 185.742 223.548 185.142 223.125 184.542C221.877 182.775 220.647 180.996 219.417 179.217C217.794 176.865 216.183 174.507 214.575 172.146C212.733 169.437 210.897 166.722 209.067 164.001C207.162 161.169 205.266 158.331 203.382 155.487C201.498 152.643 199.725 149.952 197.916 147.171C196.335 144.741 194.766 142.302 193.221 139.851C192.024 137.949 190.836 136.041 189.702 134.1C189.303 133.419 188.913 132.738 188.541 132.042C188.4 131.778 188.262 131.514 188.13 131.244C188.076 131.136 188.025 131.025 187.974 130.914C187.95 130.863 187.929 130.812 187.905 130.761C187.839 130.614 187.929 130.83 187.884 130.71C186.327 126.672 186.18 121.827 187.806 117.795C188.256 116.679 188.865 115.632 189.588 114.672C189.936 114.21 189.156 113.76 188.811 114.219L188.814 114.222Z" fill="#CA7C00"/>
<path d="M246.933 180.204C240.816 180.753 234.384 181.365 229.095 184.791C227.778 185.643 226.566 186.66 225.534 187.842C225.15 188.283 225.726 188.844 226.17 188.478C227.379 187.479 229.17 187.722 230.595 187.992C232.563 188.367 234.516 188.829 236.451 189.345C237.012 189.495 237.249 188.628 236.691 188.478C234.615 187.923 232.509 187.398 230.385 187.044C228.717 186.765 226.908 186.708 225.531 187.842L226.167 188.478C229.998 184.086 235.893 182.424 241.47 181.674C243.285 181.431 245.109 181.269 246.93 181.104C247.503 181.053 247.509 180.153 246.93 180.204H246.933Z" fill="#CA7C00"/>
<path d="M235.545 235.179C230.187 231.861 224.364 229.296 218.31 227.544C216.588 227.046 214.848 226.617 213.093 226.251C212.529 226.134 212.286 227.001 212.853 227.118C218.973 228.393 224.919 230.472 230.478 233.337C232.05 234.147 233.589 235.02 235.092 235.953C235.587 236.259 236.037 235.482 235.545 235.176V235.179Z" fill="#CA7C00"/>
<path d="M198.477 262.698C198.708 260.082 199.923 257.685 201.387 255.549C202.851 253.413 204.546 251.265 206.754 249.864C207.243 249.555 206.79 248.775 206.301 249.087C204.465 250.251 203.025 251.88 201.711 253.587C200.397 255.297 199.209 257.121 198.42 259.137C197.973 260.283 197.688 261.474 197.58 262.698C197.529 263.274 198.429 263.271 198.48 262.698H198.477Z" fill="#F47382"/>
<path d="M201.048 263.448C201.183 262.287 202.137 261.243 202.845 260.37C203.553 259.497 204.366 258.6 205.212 257.796C206.874 256.215 208.761 254.865 210.852 253.911C212.022 253.377 213.255 252.99 214.518 252.747C215.085 252.639 214.845 251.769 214.278 251.88C209.439 252.81 205.302 255.921 202.245 259.686C201.348 260.793 200.316 261.981 200.145 263.448C200.079 264.021 200.979 264.018 201.045 263.448H201.048Z" fill="#F47382"/>
<path d="M23.238 150.723C23.238 150.723 22.836 146.442 23.238 143.499C23.64 140.556 25.044 136.074 25.713 136.476C26.382 136.878 26.715 137.547 27.453 140.223C28.188 142.899 27.987 144.57 27.987 144.57C27.987 144.57 29.727 141.984 30.06 141.504C30.393 141.024 36.951 136.545 38.154 136.944C39.357 137.343 40.35 138.147 40.155 138.549C39.96 138.951 40.155 139.284 40.155 139.284C40.155 139.284 42.435 138.951 42.837 140.355C43.239 141.759 42.303 143.163 42.303 143.163C42.303 143.163 43.842 144.099 43.776 145.437C43.71 146.775 40.707 149.049 40.635 149.25C40.563 149.451 37.221 157.473 37.221 157.473C37.221 157.473 42.978 152.394 43.779 152.394C44.58 152.394 45.048 152.193 45.249 152.862C45.45 153.531 40.095 157.818 38.859 159.42C37.623 161.022 37.089 161.424 37.089 161.424C37.089 161.424 30.333 164.769 23.244 150.723H23.238Z" fill="#FFC7D2"/>
<path d="M39.573 139.14C35.529 142.317 31.383 145.743 29.49 150.684C29.283 151.224 30.153 151.458 30.357 150.924C32.187 146.154 36.312 142.836 40.209 139.776C40.665 139.419 40.023 138.786 39.573 139.14Z" fill="#F47382"/>
<path d="M41.415 143.019C37.857 146.124 34.959 149.967 32.952 154.242C32.709 154.764 33.483 155.22 33.729 154.695C35.706 150.48 38.541 146.715 42.051 143.652C42.489 143.271 41.85 142.635 41.415 143.016V143.019Z" fill="#F47382"/>
<path d="M56.1541 13.3529C56.1541 13.3529 55.4071 16.7189 59.2741 26.3069C63.1411 35.8949 68.5381 39.8639 68.5381 39.8639L95.6161 33.8789C95.6161 33.8789 86.0251 26.6429 84.1741 19.7459C82.3231 12.8489 81.0721 10.1549 81.0721 10.1549L72.4381 6.87891L56.1511 13.3529H56.1541Z" fill="white"/>
<path d="M223.191 96.882L226.302 108.585C226.302 108.585 232.914 112.791 241.158 112.455C249.402 112.119 252.093 110.268 252.093 110.268L249.558 90.855C249.558 90.855 242.913 102.009 223.191 96.885V96.882Z" fill="white"/>
<path d="M183.756 10.83L191.859 3.42603C191.859 3.42603 205.098 4.09803 210.342 11.502C215.583 18.906 216.072 19.578 216.072 19.578L200.826 31.86C200.826 31.86 192.984 12.006 183.756 10.827V10.83Z" fill="#00EEFF"/>
<path d="M26.175 222.069L54.906 215.091C54.906 215.091 55.641 219.438 62.253 230.388C68.868 241.338 79.635 246.384 79.635 246.384L59.478 272.517C59.478 272.517 27.564 264.045 26.175 222.069Z" fill="#00EEFF"/>
<path d="M235.317 264.879C235.317 264.879 244.524 252.441 245.868 242.346C247.212 232.251 247.215 228.549 247.215 228.549L266.733 233.052C266.733 233.052 269.088 245.376 265.05 257.154L261.012 268.932L235.317 264.879Z" fill="white"/>
<path d="M286.047 130.628L271.645 128.852L270.426 138.737L284.828 140.513L286.047 130.628Z" fill="#6565A5"/>
<path d="M282.095 140.174L273.157 139.072L270.309 162.165L279.247 163.267L282.095 140.174Z" fill="#9AC3E5"/>
<path d="M280.311 136.362C290.554 136.362 298.857 128.059 298.857 117.816C298.857 107.573 290.554 99.27 280.311 99.27C270.068 99.27 261.765 107.573 261.765 117.816C261.765 128.059 270.068 136.362 280.311 136.362Z" fill="#C9DFF4"/>
<path d="M280.311 128.151C286.019 128.151 290.646 123.524 290.646 117.816C290.646 112.108 286.019 107.481 280.311 107.481C274.603 107.481 269.976 112.108 269.976 117.816C269.976 123.524 274.603 128.151 280.311 128.151Z" fill="white"/>
<path d="M13.3042 92.8097C11.3896 92.8097 9.67529 91.8218 8.71798 90.1618C7.76067 88.5052 7.76067 86.526 8.71798 84.8694L25.8104 55.2641C26.7677 53.6075 28.482 52.6162 30.3966 52.6162C32.3113 52.6162 34.0256 53.6041 34.9829 55.2641L52.0753 84.8694C53.0326 86.526 53.0326 88.5052 52.0753 90.1618C51.118 91.8184 49.4037 92.8097 47.489 92.8097H13.3042Z" fill="#FF0000"/>
<path d="M28.3158 82.1367C28.3158 81.5902 28.5127 81.1387 28.9099 80.7857C29.3071 80.4326 29.7993 80.2595 30.3934 80.2595C30.9874 80.2595 31.4797 80.436 31.8769 80.7857C32.274 81.1387 32.4709 81.5868 32.4709 82.1367C32.4709 82.6867 32.274 83.1348 31.8769 83.4879C31.4797 83.8409 30.9874 84.014 30.3934 84.014C29.7993 84.014 29.3071 83.8375 28.9099 83.4879C28.5127 83.1348 28.3158 82.6867 28.3158 82.1367ZM31.938 78.6911H28.9031L28.4244 67.6345H32.4132L31.9346 78.6911H31.938Z" fill="white"/>
</svg>
