<svg width="25" height="22" viewBox="0 0 25 22" fill="none" xmlns="http://www.w3.org/2000/svg">
<path d="M19.7129 0.120555C20.2988 -0.124908 20.9676 0.0125514 21.4167 0.459293L24.5411 3.60122C24.834 3.89577 25 4.29342 25 4.71071C25 5.12799 24.834 5.52564 24.5411 5.8202L21.4167 8.96212C20.9676 9.41377 20.2988 9.54632 19.7129 9.30086C19.1271 9.05539 18.7463 8.48592 18.7463 7.84772V6.27676H17.1841C16.6911 6.27676 16.2273 6.50749 15.9344 6.90514L13.8645 9.68869L11.9117 7.07206L13.4349 5.02981C14.3185 3.84177 15.7098 3.14465 17.1841 3.14465H18.7463V1.57369C18.7463 0.9404 19.1271 0.366018 19.7129 0.120555ZM8.00625 12.3102L9.95899 14.9269L8.43585 16.9691C7.55224 18.1571 6.16091 18.8543 4.68658 18.8543H1.5622C0.698106 18.8543 0 18.1522 0 17.2833C0 16.4144 0.698106 15.7123 1.5622 15.7123H4.68658C5.17965 15.7123 5.64343 15.4816 5.93634 15.084L8.00625 12.3102ZM21.4118 21.5396C20.9627 21.9913 20.2939 22.1238 19.7081 21.8784C19.1222 21.6329 18.7415 21.0634 18.7415 20.4252V18.8543H17.1793C15.7049 18.8543 14.3136 18.1571 13.43 16.9691L5.93634 6.91496C5.64343 6.51731 5.17965 6.28658 4.68658 6.28658H1.5622C0.698106 6.28658 0 5.58455 0 4.71562C0 3.84668 0.698106 3.14465 1.5622 3.14465H4.68658C6.16091 3.14465 7.55224 3.84177 8.43585 5.02981L15.9344 15.084C16.2273 15.4816 16.6911 15.7123 17.1841 15.7123H18.7463V14.1414C18.7463 13.5081 19.1271 12.9337 19.7129 12.6882C20.2988 12.4428 20.9676 12.5802 21.4167 13.027L24.5411 16.1689C24.834 16.4635 25 16.8611 25 17.2784C25 17.6957 24.834 18.0933 24.5411 18.3879L21.4167 21.5298L21.4118 21.5396Z" fill="#606060"/>
</svg>
