<svg width="28" height="22" viewBox="0 0 28 22" fill="none" xmlns="http://www.w3.org/2000/svg">
<g clip-path="url(#clip0_3445_124)">
<path d="M13.9999 1.375C13.6456 1.375 13.2956 1.43516 12.9631 1.55117L0.691191 5.90391C0.275566 6.0543 -5.90101e-05 6.44102 -5.90101e-05 6.875C-5.90101e-05 7.30898 0.275566 7.6957 0.691191 7.84609L3.22432 8.74414C2.50682 9.85273 2.09994 11.1633 2.09994 12.5426V13.75C2.09994 14.9703 1.62744 16.2293 1.12432 17.2219C0.839941 17.7805 0.516191 18.3305 0.139941 18.8375C-5.90086e-05 19.0223 -0.039434 19.2629 0.039316 19.482C0.118066 19.7012 0.301816 19.8645 0.529316 19.9203L3.32932 20.6078C3.51307 20.6551 3.70994 20.6207 3.87182 20.5219C4.03369 20.423 4.14744 20.2598 4.18244 20.075C4.55869 18.2359 4.37057 16.5859 4.09057 15.4043C3.95057 14.7941 3.76244 14.1711 3.49994 13.5996V12.5426C3.49994 11.2449 3.94619 10.0203 4.72057 9.04062C5.28494 8.37461 6.01557 7.8375 6.87307 7.50664L13.7418 4.85547C14.1006 4.71797 14.5074 4.88984 14.6474 5.24219C14.7874 5.59453 14.6124 5.99414 14.2537 6.13164L7.38494 8.78281C6.84244 8.99336 6.36557 9.31563 5.97619 9.71094L12.9587 12.1859C13.2912 12.302 13.6412 12.3621 13.9956 12.3621C14.3499 12.3621 14.6999 12.302 15.0324 12.1859L27.3087 7.84609C27.7243 7.7 27.9999 7.30898 27.9999 6.875C27.9999 6.44102 27.7243 6.0543 27.3087 5.90391L15.0368 1.55117C14.7043 1.43516 14.3543 1.375 13.9999 1.375ZM5.59994 17.5312C5.59994 19.048 9.36244 20.625 13.9999 20.625C18.6374 20.625 22.3999 19.048 22.3999 17.5312L21.7306 11.2836L15.5093 13.4922C15.0237 13.6641 14.5118 13.75 13.9999 13.75C13.4881 13.75 12.9718 13.6641 12.4906 13.4922L6.26932 11.2836L5.59994 17.5312Z" fill="#606060"/>
</g>
<defs>
<clipPath id="clip0_3445_124">
<rect width="28" height="22" fill="white"/>
</clipPath>
</defs>
</svg>
